<svg width="70" height="70" viewBox="0 0 70 70" fill="none" xmlns="http://www.w3.org/2000/svg">
<path opacity="0.4" d="M37.225 31.8253L43.125 25.9254C43.825 25.2254 43.825 24.225 43.125 23.525C42.425 22.825 41.425 22.825 40.725 23.525L34.8249 29.4254L28.925 23.525C28.225 22.825 27.225 22.825 26.525 23.525C25.825 24.225 25.825 25.2254 26.525 25.9254L32.425 31.8253L26.525 37.7252C25.825 38.4252 25.825 39.4251 26.525 40.1251C26.825 40.4251 27.325 40.6251 27.725 40.6251C28.125 40.6251 28.625 40.4251 28.925 40.1251L34.8249 34.2252L40.725 40.1251C41.025 40.4251 41.525 40.6251 41.925 40.6251C42.325 40.6251 42.825 40.4251 43.125 40.1251C43.825 39.4251 43.825 38.4252 43.125 37.7252L37.225 31.8253Z" fill="black"/>
</svg>
