<svg width="1348" height="285" viewBox="0 0 1348 285" fill="none" xmlns="http://www.w3.org/2000/svg">
<g clip-path="url(#clip0_394_6467)">
<path d="M454.2 156.4C456.9 154.2 464.2 153.7 470.8 154.5C477.7 155.6 481.5 158.2 478.8 160C476.3 162.2 468.6 163 462.2 161.9C455.2 160.8 452.1 158.4 454.2 156.4ZM437.5 120.4C446.6 121.3 453.8 119.5 457.3 117.2C459.2 114.1 452 111.4 445 110.3C435.7 109.2 428.1 111 424.6 113.3C423.1 116.4 430 119.1 437.5 120.4ZM517.3 143.7C509.1 142.9 501.7 144.7 499.8 146.8C497.9 149.5 504.2 152 510.9 152.8C519.9 153.9 526.7 152.1 529.4 150C530.8 147.3 525.1 144.8 517.3 143.7ZM500.1 177.7C507.4 178.5 511.8 176.9 515.4 175.2C517.4 173.3 511.8 171.6 506 170.3C499.3 169.5 494.4 171 491.1 172.8C489.4 174.9 494.4 176.4 500.1 177.7ZM494.6 133.3C496 130.6 489.6 128 481.6 127.2C472.7 126.4 464.9 128.3 463.3 130.6C462 133.5 468.8 136.2 476.8 137C485.2 137.7 492.6 135.8 494.6 133.3ZM382.5 81.7C384.4 78.3 376.9 75.5 367.6 74.2C357.6 73.3 349.9 75.5 347.7 78.3C345.8 81.5 353.5 84.4 362.6 85.6C372.8 86.7 380.4 84.5 382.5 81.7ZM359.7 103.5C351.7 102.2 344.5 103.6 341.4 106C339 108.7 344.3 111.3 352.2 112.8C360.3 113.9 367.4 112.5 371.1 110C373.2 107.4 367.7 104.8 359.7 103.5ZM432.9 69C430 66.8 427.8 64.1 419.4 63.4C414.2 62.6 406.4 62.7 402.2 63.7C395 64.7 395.6 67.7 395.5 69.9C398.3 72 400.8 75 409 75.5C422.2 77.1 435.5 73.8 432.9 69ZM421.5 99.6C420.9 96.7 416.7 93.4 406.9 92.2C398.7 92.1 388.5 93.1 386.8 96.3C387.2 99.1 391.7 102.3 401.4 103.4C409.5 103.6 419.6 102.7 421.5 99.6ZM628.4 175.5C636 176.2 644.3 175 645.7 172.4C647.2 170 643.6 167.1 635.3 166.4C627.5 165.8 618.9 166.7 617.1 169.6C615.6 172 619.5 174.6 628.4 175.5ZM628.2 130.1C630.9 126.9 622.2 124.1 613.5 122.9C603.1 121.8 595.5 124.3 592.4 127C589.8 130.4 598.6 133.1 607.5 134.3C617.7 135.5 625.4 132.8 628.2 130.1ZM344.3 139.3C351.2 140.1 355.8 138.4 359.1 136.7C361.1 134.5 354.8 132.8 349.3 131.5C341.6 130.6 337.2 132.1 334.2 133.9C332.2 136.2 338 137.7 344.3 139.3ZM662.5 147.1C664.1 144.2 659.4 140.8 649.8 139.9C640.1 139.4 630.4 140.6 628.2 143.7C626.6 146.8 631.4 149.9 641.1 151C650.6 151.3 660.1 150.2 662.5 147.1ZM657.9 190.3C664 191.5 672.7 190.5 676.8 188.7C680.4 187 677 184.2 671 182.8C664.1 181.5 655.9 182.5 652.1 184.2C648.5 186.2 652.1 189 657.9 190.3ZM694.6 162.9C697.1 159.8 690.6 157.2 682 156.2C673.1 155.5 664.8 157.3 662.1 159.9C660.1 163 666.5 165.5 674.7 166.6C684.2 167.4 692.1 165.5 694.6 162.9ZM559.3 144C568.6 145.2 576.3 143 578.9 140.4C581.2 137.3 574.3 134.8 565.4 133.6C555.9 132.7 548.2 134.9 545.6 137.6C543.2 140.4 550.8 143 559.3 144ZM543.4 121.2C541.1 119.4 538 117.2 530.9 116.5C526.5 116 519.9 116.2 516.5 117C509 117.8 509.2 120.5 509.1 122.6C510.9 124.4 514.7 126.8 521.4 127.2C534 128.7 544.7 125.3 543.4 121.2ZM592.3 160C601 160.8 607.6 159.3 611.8 157C613.6 154.2 608.5 151.8 600.7 150.3C591.6 149.7 584.8 150.9 580.8 153.5C579.5 156.2 584.5 158.5 592.3 160ZM543.1 88.2C531.2 87 522.7 89.4 519.6 92.7C517.1 96.6 525.6 99.6 535.7 101C547.4 102.2 555.8 99.5 559.1 96.3C561.6 92.8 552.8 89.6 543.1 88.2ZM591.2 109C585.9 106 575.5 105.1 567.1 105.8C559.2 106.7 555.5 109.7 555.7 112.2C557.5 114.5 562.4 117 570 117.9C579.3 119.3 586.7 117.2 592.5 115.1C594.8 113.3 594.4 110.9 591.2 109ZM160.7 -156.7C166.3 -154 172.7 -150 182 -149.7C194.5 -149 207.6 -151.4 207.5 -156.9C209 -161.2 199.9 -164.3 192.4 -167.4C184.6 -168.7 174.4 -169.3 168.3 -167.5C159.5 -165.3 157.5 -161.1 160.7 -156.7ZM117.5 -179.7C121.1 -177.8 126 -176.2 132.1 -175.2C142.6 -174.6 153.2 -176.1 157.4 -179.7H117.5ZM101.4 -109.6C101.6 -105.4 109.9 -101.1 121.8 -99.5C133.3 -98.8 143.1 -101.2 144.9 -105.4C144.7 -109.6 136 -113.6 124.7 -115.5C113 -116.2 103.4 -113.8 101.4 -109.6ZM106.9 -147.7C106.7 -143.1 113.6 -138.2 126 -136.5C137.9 -135.4 149.7 -137.4 152.1 -141.8C152.3 -146.4 144.9 -151.7 132.7 -153.3C120.8 -154.5 108.8 -152.6 106.9 -147.7ZM184.3 69.7C191.4 70.6 199.2 70 201.8 67.4C203.5 65.3 200.1 62.5 192.5 61.2C185 60 176.3 60.9 174.1 63.3C172.4 65.4 176.7 68.5 184.3 69.7ZM164.4 -21.4C155 -23.2 144.4 -22.4 140.4 -19.4C136.8 -16.3 141 -12.3 149.9 -10.2C159.3 -8.40001 169.7 -9.10001 174.6 -12.2C178 -15.4 173.4 -19.1 164.4 -21.4ZM148.9 21.2C157.2 22.6 164.3 21.1 167.9 18.3C170.3 15.5 164 12.7 155.1 11C146.2 9.3 139.5 11 136.3 13.8C133.4 16.8 140 19.6 148.9 21.2ZM704.8 130.7C699.5 129.6 693 128.8 686.6 129.7C678.2 130.7 674.7 134 675.7 136.8C679.5 138.9 683.9 141.4 691.5 141.5C699.9 142.3 705.9 140.6 711 138.5C716.5 136.2 711.3 132.6 704.8 130.7ZM319.8 86C310.7 84.8 304 86.9 301.4 89.2C299.8 92 306.7 94.7 314.5 95.8C323.8 96.9 330.5 94.8 332.9 92.6C334.4 89.7 327.6 87.1 319.8 86ZM265.6 105C271.9 106.2 280.2 105.4 282.4 103.2C284.6 101.1 281 98.2 273.2 97C266.5 96.2 258.5 96.9 256 99.1C254.2 101.3 257.6 103.9 265.6 105ZM210.7 37.1C211.7 34 206.5 30.8 197.2 29.9C188.6 29 179.3 30.1 178.3 33.4C177.3 36.3 182.5 39.6 192.5 40.5C201.3 41.4 210.2 40.2 210.7 37.1ZM302.9 44.7C303.9 41 294.5 38.4 285.5 37C274.3 36.1 269 39.2 266.2 41.9C265.4 45.5 274.8 47.9 283.3 49.4C294.5 50.4 300.5 47.6 302.9 44.7ZM302.8 122C309.1 122.8 317.2 122.2 320 120.4C322 118.5 319.3 116 313 114.6C306.5 113.7 299.2 114.2 295.3 116C294 118 297.4 120.5 302.8 122ZM327.9 55.8C316.7 55.1 310.9 57.7 308.1 60.6C306.8 64 316.6 66.5 324.9 68C335.9 68.9 341.5 66 344.5 63.2C345.6 59.7 336.4 57.2 327.9 55.8ZM293 74.4C293.9 71.7 289.2 68.7 279.5 67.7C270.9 66.8 262.2 68.1 261.7 71.1C260.5 73.8 265.2 77 274.4 77.9C282.7 78.6 291.7 77.5 293 74.4ZM224.9 87.3C232.2 88.2 239.8 87.6 242.6 85.1C244.2 83 241 80 233 78.8C225.9 77.7 218 78.7 215.6 81.1C213.4 83.3 217.5 86.2 224.9 87.3ZM220.4 6.3C222 2.6 213.3 -0.600009 203.9 -1.90001C193.1 -3.10001 185.8 -0.600006 183.9 2.39999C181.7 6.19999 190.3 9.4 199.8 10.5C210.8 11.8 218.1 9.4 220.4 6.3ZM262.2 26C263.9 22.4 255.9 19.3 246.2 18C235.2 16.7 227.6 19.2 225.5 22.4C224.2 25.8 232.2 28.8 241.3 30.2C252.4 31.5 259.9 29 262.2 26ZM252.9 56.2C253.5 53.2 248.8 49.9 239.5 49C230.8 48.3 222 49.7 220.7 52.7C220.1 55.5 224.8 58.7 234.1 59.6C242.8 60.3 251.9 59.2 252.9 56.2ZM388.3 129.3C395.8 130.2 404 129.5 407.1 127.2C409.1 125 406 122.1 398.8 120.9C391.2 120 382.7 120.6 379.6 122.9C377.3 125.2 381 128 388.3 129.3ZM1324.2 168.3C1327.4 165.4 1323.6 162.3 1314.8 161.3C1305.8 160.7 1295.3 162.3 1292.1 165.3C1288.7 168.3 1292.7 171.3 1301.5 172.3C1310.5 172.8 1320.3 171.3 1324.2 168.3ZM1278.3 196.7C1286.6 197 1294 195.3 1297.1 193.1C1299.4 190.4 1295.1 188.3 1287.7 187.5C1279.1 187.2 1272.3 188.8 1268.7 191.3C1266.8 193.8 1271.2 195.8 1278.3 196.7ZM1117.9 185.9C1125.4 187.6 1136.1 186.1 1142 184.1C1148.1 181.8 1143.7 178.4 1137.9 176.8C1130.6 175 1120 176.4 1114.1 178.3C1108.4 180.9 1112.4 184.3 1117.9 185.9ZM1249.7 181.9C1258.2 182.8 1267.2 181.4 1272.6 178.8C1276.2 176 1272.2 173.3 1264 171.8C1255.9 170.9 1247.2 172.6 1242 175.2C1238.1 177.9 1242.6 180.4 1249.7 181.9ZM1328.4 186.8C1335.7 187.4 1342.3 186.2 1347.4 184.3V178.9C1345.9 178.3 1343.9 177.8 1341.6 177.4C1333.3 176.6 1325.8 178.2 1320.6 180.6C1317.6 183.4 1321.4 185.5 1328.4 186.8ZM1150.6 201C1158.6 201.5 1166.3 199.8 1169.2 197.5C1172 195.1 1166.9 192.6 1159.5 191.8C1151.8 191.2 1143.8 193 1140.8 195.4C1138.6 198 1143.6 200.3 1150.6 201ZM1195.7 172.9C1197.8 169.9 1192.7 167.1 1183.9 166C1174.7 165.6 1165.2 167.5 1161.3 170.4C1159.4 173.3 1164.9 176.3 1173.5 177.2C1182.3 177.7 1191.9 175.8 1195.7 172.9ZM1200.6 191.6C1208.6 191.7 1218.5 190.9 1221.3 188C1222.1 185.5 1220.3 182.6 1211.7 181.9C1203.5 181.6 1193.7 182.6 1191 185.5C1190.2 187.7 1192.1 190.7 1200.6 191.6ZM1247.1 163.1C1249.1 159.9 1247.1 156.5 1237 155.6C1227.6 155.2 1216.4 156.2 1213 159.5C1210.3 162.6 1213 166 1223.1 167C1232.8 167.4 1243.5 166.4 1247.1 163.1ZM708.8 182.2C716.2 182.4 724.3 181.1 727 178.5C727.4 176.1 723 173.5 715.1 172.7C707.3 172.4 699.2 173.9 696.9 176.1C696.1 178.7 700.5 181.2 708.8 182.2ZM826.3 159.2C829.4 156.1 820.9 153.6 812.6 152.2C802.3 151.3 794.4 153.8 791 156.4C788.3 159.7 796.1 162.2 804.5 163.5C815.2 164.6 822.5 162.1 826.3 159.2ZM818.1 202.5C825.3 203.4 832.4 202.1 836.2 200.1C839.4 197.8 835 195.5 827.8 194.2C820.6 193.2 813.3 194.5 809.3 196.7C806.5 199 810.9 201.3 818.1 202.5ZM886.7 190.6C889 187.9 883.3 185.6 876.9 184.4C868.2 183.8 860.3 185.4 856.9 187.5C854.4 190.3 860.1 192.8 866.3 193.8C875.1 194.6 882.8 192.7 886.7 190.6ZM806.9 184.9C809.1 182.2 804.3 180 797.3 178.5C788.2 177.9 781.6 179.2 777.3 181.5C775.5 184.2 780.1 186.4 787.7 187.8C796.1 188.6 802.7 187.2 806.9 184.9ZM849.9 217.1C856.8 217.7 862.9 216.6 866.6 214.7C868 212.6 865.2 210.7 858.6 209.5C851.9 209 845.6 209.9 842 211.9C840.5 214 843.8 216 849.9 217.1ZM857.2 173.1C855.6 171.5 852.7 169.4 846.2 168.9C842.1 168.3 836 168.6 832.2 169.4C824.6 170.2 824.7 172.6 823.7 174.6C825.3 176.5 828.7 178.5 834.8 179C846.8 180.1 857.7 177 857.2 173.1ZM745.8 153C746.6 149.9 740.6 146.9 731.2 145.8C721.6 145.2 712.8 147.3 709.3 150C708.8 153 715 156.1 724.3 157.2C733.9 157.8 742.7 155.8 745.8 153ZM739.3 196.7C746.9 197.1 754.2 196.5 757.6 194.1C758.6 192 756.6 189.6 749 188.4C741.6 187.8 733.9 188.5 731.1 190.7C729.7 192.9 731.9 195.4 739.3 196.7ZM775.8 169.3C778.7 166.6 773.6 163.9 765.1 162.4C756.5 161.3 748.3 162.9 743.8 165.5C740.7 168.2 745.9 170.7 754.4 172.4C762.9 173.4 771.3 172 775.8 169.3ZM771 211.1C777.3 212.1 784.6 211.2 787.8 209.3C790.3 207.6 787.8 205.1 781.2 204.2C774.9 203.4 767.7 204 764.7 206C762.2 207.9 764.4 210.3 771 211.1ZM1115.4 168.5C1118.9 166.8 1118.5 164.6 1116.1 162.7C1112.5 160.1 1102 159.3 1093.9 160C1086.1 160.8 1081.8 163.5 1080.6 165.9C1081.7 168.2 1085.8 170.4 1092.9 171C1101.3 172.4 1109.5 170.4 1115.4 168.5ZM896 208.1C903.4 209.1 910.3 207.8 914.2 205.6C917.8 203.5 913.4 201.2 906.4 200C899.1 199.1 891.9 200.4 888.5 202.4C884.7 204.6 889.1 206.9 896 208.1ZM1037.7 161.6C1041.7 158 1034.2 155.3 1025.2 153.8C1014.3 153 1005.6 155.3 1001.4 158.4C997.8 161.9 1005.3 164.5 1014.3 165.8C1025.1 166.9 1033.9 164.4 1037.7 161.6ZM1072.4 195.7C1080.2 196.2 1089.8 195.1 1092.6 192.3C1093.4 189.9 1091.2 187.1 1082.4 186.3C1074.3 186.2 1064.7 187 1062.2 189.9C1061.4 192.2 1063.6 195.3 1072.4 195.7ZM1015.9 186.4C1018.3 183.3 1010.5 181.3 1003.5 180.1C993.5 179.4 987.3 182 983.2 184.3C980.7 187.5 988.6 189.4 995.8 190.4C1005.5 191 1011.8 188.6 1015.9 186.4ZM1044.7 181.2C1053.4 181.5 1062.8 180 1066.1 177.1C1068.2 174.3 1063.1 171.3 1053.9 170.4C1044.8 169.9 1035.4 171.8 1031.6 174.6C1030.4 177.4 1035.7 180.2 1044.7 181.2ZM974.6 213.8C981.8 214.4 989.4 213.7 993 211.4C994.5 209.3 993.1 206.8 985.4 205.8C978.4 205.4 970.6 205.9 967.2 208.1C965.7 210.5 967.2 212.7 974.6 213.8ZM944.7 199.6C953 200.4 959.7 198.8 964.2 196.5C966.5 193.9 962.3 191.8 955.1 190.3C946.4 189.8 939.9 191 934.9 193.3C933.1 195.9 937.3 198.1 944.7 199.6ZM936.9 179C935.4 177.4 932.8 175.1 926.1 174.8C922 174.2 915.7 174.3 911.8 175C904.9 176.1 904.9 178.4 903.7 180.5C905.3 182.1 908 183.9 914.5 184.7C926.5 185.8 936.8 182.6 936.9 179ZM986.6 170.8C990 167.9 982.2 165.3 974 164.2C963.9 163.1 956.2 165.6 952.5 168.2C949 171.6 956.7 173.9 965.4 175.1C975.1 176.1 983.1 173.6 986.6 170.8ZM432.7 17.4C446.6 18.8 456 15.3 460 11.6C462.8 6.59999 452.1 3 440.2 1C426.1 -0.6 416.9 3.09999 412.9 6.89999C410.2 11.6 421.5 15.2 432.7 17.4ZM676.5 39.4C669.5 36.6 660.1 33.8 649.6 34.5C639.9 34.5 634.8 37.1 630 39.6C628.6 41.9 627.6 45 631.6 47.2C638.1 50.1 647.9 52.8 658.9 52.1C667.8 51.9 673.2 49.6 678.8 47.2C679.3 44.8 680.6 41.7 676.5 39.4ZM391.9 -2.8C405.4 -1.7 416.1 -4.6 419.9 -8.8C420.8 -13.4 412.1 -17.8 399.4 -19.6C385.7 -20.6 375 -17.7 371.3 -13.6C370.5 -8.90001 379.7 -4.8 391.9 -2.8ZM307.4 -44.9C317 -43.9 328.5 -45.4 333.8 -48.7C336 -50.2 335.4 -52.1 335.5 -54C333.7 -57.6 324.6 -60.5 315.7 -61.8C306 -63.1 295.2 -62.1 290.6 -58.9C288.6 -57.1 285.8 -55.1 287.7 -52.6C289.2 -49.2 298.5 -46.2 307.4 -44.9ZM334.8 -27.9C340.8 -25.1 350.5 -22.6 359.7 -23.1C368.2 -23.5 374.3 -25.1 378.5 -27.8C378.5 -30.4 379.8 -33.3 374.6 -35.7C368.4 -38.4 358.9 -41.1 349.1 -40.7C340.9 -40.3 335 -38.6 331 -35.8C330.9 -33.2 329.4 -30.3 334.8 -27.9ZM243.3 -77.2C242.9 -72.3 252.7 -68 265.2 -66.2C278.4 -65.2 288.2 -68.2 291.3 -72.5C291.3 -77.3 281.7 -81.5 269.7 -83.5C256.9 -84.4 246.8 -81.5 243.3 -77.2ZM510.9 -6.7C504.8 -9.3 499.6 -10.9 491.9 -12.2C481.2 -13.2 473.4 -11.2 466.9 -9.20001C463.4 -6.30001 460.2 -3 465.7 0.300003C471.1 2.7 476.2 4.1 484.6 5.7C495.5 6.4 504.9 5.19999 510.7 2.09999C514.2 -0.500009 514.3 -3.8 510.9 -6.7ZM598.4 62.7C612.1 63.8 622.8 61.3 627.2 57.2C629.7 52.7 621.3 48.5 608.2 46.7C594.7 45.5 584 48.2 579.4 52.3C577.3 56.8 586.2 61 598.4 62.7ZM425 -20.7C430 -17.4 437.1 -15.4 446.6 -14.4C457.4 -13.5 466.1 -15.5 471.5 -18.1C473.5 -20.3 476.1 -23.3 471.7 -26.4C466.7 -29.6 459.2 -31.7 449.9 -32.7C438.8 -33.7 430.8 -31.9 425.2 -29C423 -26.6 420.7 -23.7 425 -20.7ZM542.2 38.8C547.1 41.7 553.9 43.6 562.7 44.6C572.7 45.4 580.9 43.8 586 41.6C588.4 39 593 36.3 588 33.4C583.5 30.4 576.6 28.4 567.1 27.5C557.3 26.8 549.1 28.3 543.8 30.6C541.4 33.3 537.5 36 542.2 38.8ZM504.9 20.3C510.6 22.8 515.7 24.1 523.4 25.5C534 26.3 543.9 25 549.5 22C553 19.6 553.8 16.3 550.1 13.2C544.4 11 539.3 9.59999 531.6 7.89999C521.2 7.09999 513.3 8.9 506.8 11C503.3 13.6 500.3 16.9 504.9 20.3ZM472.4 36.4C485.9 37.7 495.3 34.2 499.4 30.6C502.2 25.9 491.5 22.4 479.7 20.3C466 18.9 456.5 22.2 452.8 25.9C450.2 30.7 460.8 34.2 472.4 36.4ZM525.3 -174.3C521.1 -176.6 515.7 -178.4 509.8 -179.6H480.7C476.1 -178.4 472.2 -176.7 469.2 -174.6C465.5 -170.5 467 -166.4 472.6 -162.2C480.5 -158.2 492.9 -155.8 504.6 -155.5C514.9 -156.1 523.4 -158.4 528.9 -162.2C532.2 -166.1 530.4 -170.5 525.3 -174.3ZM435 -165.6C424.4 -165.3 419.1 -162 413.4 -158.9C411.1 -155.7 413.1 -151.3 417.9 -148.2C425.7 -144.1 438 -141.6 450.7 -142C460.8 -142.2 466.2 -145.4 472 -148.5C474.1 -151.5 472.6 -156.2 468 -159.1C459.5 -163.4 447.5 -166.1 435 -165.6ZM510.1 -135.5C502.3 -139.8 490 -142.4 477.7 -141.5C467.9 -140.4 459.2 -138.2 456.6 -134.2C453.4 -131.4 455.8 -126 461.5 -123.7C469.6 -119.5 481.4 -116.6 494 -117.8C501.9 -118.9 510 -120 514.4 -123.5C517.3 -126.9 517 -132.5 510.1 -135.5ZM497.4 -97.5C489.7 -101.3 477.8 -104 466 -103.5C456.3 -103.4 450.3 -100.4 445.1 -97.4C443 -94.5 444.2 -90.4 448.8 -87.5C456.9 -83.4 468.7 -81.1 481 -81.6C490.7 -81.7 495.9 -84.7 501.9 -87.6C503.8 -90.3 502.4 -94.6 497.4 -97.5ZM296.6 -115.7C290.3 -119 280.3 -121.7 270.1 -121.2C261.7 -120.8 255 -118.9 250.8 -115.8C251.4 -113.2 249.8 -109.6 255.9 -107.2C262.2 -103.9 272.4 -101.2 282.4 -101.5C290.8 -102.1 297.1 -103.9 300.9 -106.9C300.8 -109.8 302.7 -113.1 296.6 -115.7ZM464.3 -67.3C453.4 -68.1 443.8 -66.8 437.3 -64.2C433.5 -61.2 430.9 -58 434.9 -54.3C440.1 -51.3 446.6 -48.4 455.9 -47.5C467.4 -46.7 478.1 -48.3 484.5 -51.5C487.4 -54.1 488.2 -57 485.3 -60.5C480.4 -63.4 474.1 -66.5 464.3 -67.3ZM343.4 -61.5C349.7 -57.9 360 -56.3 370.1 -56.4C377.7 -57.3 384.8 -58.5 388.6 -61.3C390.1 -64 390.8 -67.7 385.4 -70.7C378.7 -74 368.4 -75.9 358.3 -75.6C350.6 -74.9 343.4 -73.8 340.2 -70.9C337.9 -68.2 337.6 -64.3 343.4 -61.5ZM410 -143.9C402.1 -147.7 391.2 -151.1 379 -150.2C368.8 -150.1 363.4 -146.9 357.6 -143.7C357.3 -140.6 356.5 -136.9 361.8 -133.9C370 -130.4 381 -127.1 392.1 -127.8C402.7 -127.7 408 -131 413.5 -134.2C414.6 -137.2 415 -141.2 410 -143.9ZM344.5 -91C339.8 -93.5 333.9 -97.3 324.6 -97.6C314.3 -98.9 304.4 -97.1 299.2 -94.3C295.4 -91.5 295.4 -88.4 298.3 -85.6C302.8 -83 308.9 -79.4 318 -79C328 -78.1 339.7 -79.2 345 -82.6C346.6 -85 347.6 -88.3 344.5 -91ZM349.9 -98.5C355.6 -95.6 362.4 -91.7 372.1 -91.3C384.3 -90.1 394.4 -92.3 400.8 -95.7C402.6 -97.8 404.9 -100.1 401.9 -102.6C400.2 -106.7 391.1 -109.8 381.7 -111.4C374.7 -112.4 364.4 -112.2 358.7 -110.8C348.1 -108.4 346 -103.5 349.9 -98.5ZM633 80.6C643.6 81.8 654 80.2 659.9 77.2C662.7 76 662.5 74.5 662.2 72.7C660.9 69.6 654.9 66.8 645.7 65.5C638.8 65.3 632.5 65.4 626.8 66.2C619.9 67.6 614.3 70.3 616.1 73.5C617.2 76.5 623.9 79.3 633 80.6ZM819.3 34.7C812.6 31.3 802 29.4 791 29.7C779.7 29.6 772.1 32.9 767.9 36C766.3 38.2 767.5 41.7 770.4 43.8C777.3 47 787.9 49.1 799.1 48.6C807.8 48.3 815.1 46.6 820.1 43.6C823.7 41.4 822.9 37.5 819.3 34.7ZM767.9 10.5C757.6 9.4 744.7 10.6 737.9 13.3C733.1 16.1 728.7 19 732.3 23C735.6 26.3 743.5 28.5 752.6 29.9C764.4 31.1 776 29.4 783.6 26.7C786.9 23.7 791.3 21 788.4 17.5C785.1 14.1 777.2 11.8 767.9 10.5ZM824.3 48.8C816.8 50.1 807.7 51.1 805.1 54.4C802.1 56.3 801.5 59.5 805.5 61.4C809.1 64.4 814.9 65.6 822.6 67C841.1 68.9 855.8 63.3 856.6 57.7C856.4 55.1 852.2 53.3 848 51.4C841.1 49.3 832.8 48.7 824.3 48.8ZM700.6 22.1C693.3 23.3 683.8 24.4 681.6 27.7C679 29.8 678.5 33.2 682.4 35.2C686.3 38.2 693.2 39.4 701 40.9C719.4 43 734 37.3 734.6 31.2C734.3 28.7 730 26.8 725.1 24.6C718 22.6 709.9 21.8 700.6 22.1ZM908.1 41.8C901.7 39.2 892.5 36.1 882 36.2C870.8 36.5 863.3 38.9 856.3 42.1C854 44.8 853.2 48.2 857.2 50.8C863.3 53.6 872.8 56.4 883.2 56C894.5 55.9 902 53.5 908.3 50.4C911 47.9 912.1 44.6 908.1 41.8ZM618.3 -33.2C611.3 -36.8 599.4 -39.3 587.1 -38C578.1 -37.4 569.8 -34.9 567 -31.6C564.2 -28.9 566 -24.6 570.9 -22.3C578.1 -18.7 589.7 -16.3 601.8 -17.3C608.7 -18.3 616.4 -19.2 620.5 -22.2C624.1 -25.4 624.6 -30 618.3 -33.2ZM579.2 -53.8C571.8 -57.6 560.1 -60 547.6 -59C538.4 -58.2 530.1 -55.9 527.4 -52.3C524 -49.5 526.3 -45.1 531.4 -42.6C538.8 -38.9 550.3 -36.6 562.7 -37.6C569.6 -38.7 577.5 -39.7 581.6 -42.8C585.2 -46 585.3 -50.8 579.2 -53.8ZM939.5 59.9C933.8 56.4 922.2 55.6 911.4 55.8C902.6 56.6 894 58.5 890.6 61.5C887.5 64 888.9 67.7 892.8 69.7C898.4 72.8 909 74.4 919 73.9C927 73.3 933.5 72.1 939.3 69.8C943.1 67 945.2 62.9 939.5 59.9ZM693.7 7.8C687.1 3.7 675 3.09999 664.1 3.09999C655.3 3.69999 646.8 5.6 643.9 9C640.9 11.5 642.5 15.8 647.4 18C653.3 21.4 664.6 22.8 675.2 22.5C682.8 21.9 689.8 20.5 695.1 18.2C698.1 15.2 700.2 10.8 693.7 7.8ZM656 -12.8C648.6 -16.1 637.4 -18.6 625.4 -17.5C617 -16.7 608.5 -14.6 605.3 -11.1C602.9 -8.70001 604.5 -4.60001 609.2 -2.40001C616.4 1.19999 627.4 3.5 639.7 2.5C646.8 1.8 654.1 0.799994 658.3 -2.10001C662 -5.10001 661.9 -9.5 656 -12.8ZM683 70.1C689.3 70.9 698.1 70.6 704 69.7C712.2 67.8 716.7 64.3 714.3 60.9C713.7 57.8 706.2 55.5 697.6 54.1C691.9 53.4 682.4 53.6 677.3 54.8C668.7 56.7 664 59.8 666.4 63.5C667.5 66.5 675.4 68.9 683 70.1ZM740.5 101.4C745.6 104.1 754.8 105.6 764.2 105.4C771.1 104.7 777.6 104.1 781.5 101.5C783.8 99.4 784.7 96.5 780.9 94.2C775.5 91.4 766.1 89.9 756.8 90.1C750.1 90.7 743.2 91.8 739.3 94C737.4 96.2 736.5 99.4 740.5 101.4ZM906.8 114.3C912.4 116.7 920.9 119 930.1 118.6C938.4 118.5 944.1 116.6 949.1 114.4C951.6 112.3 952.8 109.6 949 107.4C943.6 105.3 935.7 102.7 926.1 103.1C917.6 103.4 912.1 105.2 906.8 107.6C904 109.5 903.2 112.3 906.8 114.3ZM803.2 94.6C809.1 95.5 817.8 95 823.6 94C831.8 92.3 836.2 89.2 834.5 85.7C833.9 82.7 826.4 80.3 818.5 79.2C812.8 78.6 803.7 78.7 797.8 79.7C789.5 81.6 785.1 84.7 787.5 88C787.7 91.3 795.4 93.5 803.2 94.6ZM744.4 60C755.2 60 762 58 767.5 55.1C769.6 52.7 770.4 49.3 766.3 46.6C759.9 44 751.5 41.3 741.7 41.6C730.9 41.6 723.8 43.6 718.4 46.7C716.2 49.2 715.3 52.5 719.8 55.1C725.8 57.7 734.9 60.2 744.4 60ZM703.5 82.6C708 85.3 714.6 87.1 722.7 88C732.1 88.7 739.8 87.4 745.5 85C748 82.6 752.4 80.1 748.3 77.2C744.5 74.7 737.9 72.8 729 71.9C719.8 71.3 711.7 72.8 705.7 75C703.4 77.3 699 79.8 703.5 82.6ZM801.4 66.3C797.4 63.8 792 61.3 783.2 60.6C773.2 60.2 763.8 61.6 757 63.5C752.9 66.1 750.5 68.7 753.1 71.9C757.2 74.3 763.2 76.8 771.5 77.6C782.4 78.3 792.5 77 799.1 74.2C802 72.1 804 69.3 801.4 66.3ZM918.5 90C913.4 87.7 905.2 85.1 895.2 85.4C886.5 85.7 879.6 87.4 874.3 90.2C871.9 92.4 870.1 95.4 874.7 97.7C880.3 100.1 888.4 102.3 898 102C906.5 101.7 913.6 100 918.9 97.3C921.5 95.2 922.5 92.2 918.5 90ZM870.9 128.3C884 129.6 893 126.4 898.3 123.2C902 118.9 892.8 115.7 882.8 114.1C869.8 113 859.9 115.9 855.2 119.3C851.4 123.6 861.1 126.8 870.9 128.3ZM867.5 84.6C874.4 83.8 881.5 82.9 886.2 80.2C889.1 77.4 891.5 73.8 885.5 71.3C879.9 68.2 869.8 67 859.6 67C851.1 67.9 842.6 69.8 839.2 72.8C837 75 837.6 78.2 841.6 80.6C847 83.6 856.9 84.8 867.5 84.6ZM838.9 112C851.8 113 862.7 110.4 868 106.5C871 102.3 863.2 98.5 851.2 96.8C838.2 95.7 827.1 98.1 822.1 102.2C819.1 106.3 827.3 110.2 838.9 112ZM538 -75.9C531 -79.8 519.8 -81.3 508.3 -81.2C498.6 -80.3 488.4 -78.5 486 -74.4C484.1 -71.1 486.1 -67.8 490.7 -64.6C497.3 -60.9 507.8 -59.5 518.3 -59.5C527.6 -59.3 533.7 -61.6 539.8 -63.9C543.7 -67.2 546.1 -72.2 538 -75.9ZM1208.5 94.1C1203.2 93.7 1194 93.8 1188.4 95C1179.7 96.8 1173.8 100 1175.2 103.3C1175.1 106.1 1182 108.4 1189.5 109.5C1195 110.2 1204 109.9 1209.4 108.9C1218.6 107 1223.9 103.8 1222.6 100.5C1222.9 97.5 1216.4 95.3 1208.5 94.1ZM1230.8 94.5C1236.2 96.9 1244.4 99.4 1254.9 98.8C1263 98.5 1269.3 96.6 1275.5 94.3C1278.1 92.1 1279.9 89 1276.9 86.8C1271.6 84.1 1263.5 81.7 1252.8 82.6C1244.3 82.9 1237.6 84.9 1232.6 87.2C1229.5 89.2 1227.5 92.4 1230.8 94.5ZM1150.7 57.9C1144.7 57.2 1134.7 57.4 1128.6 58.5C1118.9 60.7 1113.1 64.2 1113.8 67.8C1113.3 71.6 1121.8 74.1 1130.6 75.6C1136.8 76.2 1146.1 75.9 1152.7 74.8C1162.2 72.7 1168.1 69.2 1166.9 65.6C1167.9 61.8 1159.5 59.2 1150.7 57.9ZM1226.6 81.5C1236.4 81.5 1242.4 79 1248.5 76.5C1251.7 74.1 1252 70.9 1248.8 68.5C1244 65.6 1234 63.6 1223.3 64.1C1213.3 64.5 1207.3 67 1201.7 69.4C1198.3 71.7 1198 74.9 1201 77.4C1206.4 80.4 1216.3 82.1 1226.6 81.5ZM1260.3 111.5C1264.4 114.1 1272.8 115.5 1282 115.1C1289.4 114.4 1295.5 113.6 1300.5 111.1C1303.7 109 1305.3 106 1302.6 104.1C1298.3 101.3 1288.9 100 1280.3 100.1C1273.3 100.8 1266.5 101.7 1261.8 104.1C1259.2 106.4 1257 109.5 1260.3 111.5ZM1332.5 76.9C1331.1 73.8 1324.1 72.2 1316.6 70.9C1307.2 70.5 1297.8 71.5 1290.6 73.6C1284.4 75.8 1281.8 78.6 1282.9 81.8C1284.4 84.9 1291.3 86.4 1299 87.8C1309.6 88.4 1318.9 86.7 1326.5 84.5C1329.7 82.1 1334.4 79.9 1332.5 76.9ZM1339 70.6C1341.1 72.2 1343.6 73.8 1347.4 74.9V61.8C1340.6 64.2 1336.5 67.3 1339 70.6ZM1342.4 117C1343.8 117.7 1345.5 118.4 1347.4 119V109C1346.3 109.4 1345.3 109.8 1344.3 110.2C1340.9 112.4 1339.2 114.9 1342.4 117ZM1313.4 100.5C1318.3 102.8 1325.9 105.1 1335.3 104.6C1339.8 104.4 1343.8 103.7 1347.4 102.8V89.7C1344 89.1 1340.2 88.8 1336 89C1327.7 89.3 1321.1 91.1 1315.8 93.6C1311.9 95.7 1310.7 98.5 1313.4 100.5ZM144.8 -51.7C143.9 -47.6 150.9 -43.5 162 -42.1C173.2 -41.1 182.9 -43.1 184.9 -46.8C185.8 -50.9 178.6 -55.1 167.5 -56.5C156.1 -57.5 145.7 -55.6 144.8 -51.7ZM485.5 60.7C487.4 56.8 479.8 53 468.7 51.4C456.6 50.4 446.4 52.6 443.4 56.1C441.7 60.1 449.3 63.9 460.1 65.4C472.3 66.4 482.9 64.4 485.5 60.7ZM78.9 -138.1C67.4 -139.6 58.4 -137.5 54.7 -133.7C52.5 -129.8 60.9 -125.5 71.7 -123.1C82.6 -121.6 92 -123.6 95.7 -127.6C97.4 -131.5 90.1 -135.7 78.9 -138.1ZM100.9 -166.9C101.5 -171.4 93.8 -176.1 81.4 -177.8C69.4 -179.1 58.7 -176.9 57.3 -172.3C56.7 -167.8 64.5 -162.9 77 -161.4C89 -160 99.3 -162.3 100.9 -166.9ZM103.9 1.2C112.9 1.8 121 1.39999 123.5 -1.60001C123.7 -4.70001 120.2 -7.69999 110.6 -9.39999C102.4 -9.99999 93.7 -9.5 91.4 -6.3C91.8 -3.4 94.6 -0.200003 103.9 1.2ZM78.6 -99.4C68.9 -101.7 57.9 -100.6 53.3 -97.5C50 -94.2 55.1 -89.9 64.3 -87.4C74.3 -85.5 84.9 -86.5 89.3 -89.4C93.1 -92.7 88 -97.1 78.6 -99.4ZM48.5 -59.9C48.6 -56.2 56.5 -53 66.1 -51.9C76.5 -51.3 83.3 -53.2 84.5 -56.5C84.1 -60.5 77.2 -63.5 67.5 -64.8C57 -65.5 49.7 -63.3 48.5 -59.9ZM192.3 -81.6C192.6 -85.7 186.5 -90.8 173.8 -92.2C161.9 -93.1 150.2 -91.7 148.3 -87C148.7 -82.6 153.8 -77.9 167 -76.4C178.4 -75.7 190.6 -76.9 192.3 -81.6ZM115.9 -43C105.3 -43.9 98.4 -42.2 94.9 -38.9C94.4 -35.5 101 -32.3 110.2 -30.4C120.7 -29.3 127.7 -31.2 131.5 -34.2C132.1 -37.9 125.1 -40.8 115.9 -43ZM1339.9 24.5C1341.9 25.7 1344.4 26.6 1347.4 27.4V11.8C1344.6 12.7 1342.1 13.8 1340.3 15.1C1336.2 18.2 1336 21.7 1339.9 24.5ZM433.1 85.8C431.2 89.2 440.4 92 449.1 93.5C460.1 94.7 467.7 92 470.8 89.1C472.9 85.5 463.5 82.6 454.6 81.2C443.3 80.3 436.1 82.9 433.1 85.8ZM137.9 -69.4C138.4 -73.7 127.8 -76.6 118.4 -78.1C106.1 -79.2 100.2 -76.1 98.1 -72.6C97.2 -68.4 108 -65.5 117.3 -63.7C129.5 -62.7 135 -66.2 137.9 -69.4ZM1317.3 21.3C1305.8 20.9 1294.1 22.2 1286.5 25.1C1279.4 28.2 1278.1 32.1 1280.3 35.6C1283.5 38.1 1290.2 40.2 1297.7 41C1309.6 41.6 1322.5 40.4 1330.2 36.6C1337.1 34.1 1336.2 30 1334.7 26.9C1331.6 24.3 1325.2 22.2 1317.3 21.3ZM593.1 27.2C598 29.8 603.8 32.5 613 33.3C623.7 33.7 634.9 33.2 640.3 29.9C644.3 28 645 26 643.3 23.4C641.8 20.3 635.9 17 625.9 15.7C618.7 15 608.7 15.1 602.3 16.3C593.1 18.6 588 22.6 593.1 27.2ZM602.8 0C596.9 -3.3 586.1 -4.5 576.3 -4.8C566.7 -4 557.3 -2.1 554.5 1.5C553.2 4.3 554.3 6.89999 558.2 9.59999C564.7 13.1 575.4 14.4 584.5 14.6C592.5 14.1 599.5 12.6 604.7 10.2C607.2 6.9 609.1 3.2 602.8 0ZM969.9 78.3C964.2 75.1 954.1 73.2 942.2 74.3C934.6 74.8 927.1 77 924 79.7C921.1 82 922.3 84.9 925.7 87.2C931.9 90.1 941.7 92.1 953.3 91.3C959.4 90.1 965.6 89.3 970.3 86.9C973.8 84.7 975.3 80.8 969.9 78.3ZM1024.9 66.5C1019.2 63 1008.3 62.3 997.4 62.4C988.9 63.3 980.3 65.1 976.8 68.1C973.4 70.5 974 74 978.5 76.3C983.5 79.4 993.6 80.7 1004.4 80.3C1012 79.8 1018.8 78.6 1024.1 76.2C1028.1 73.4 1030.5 69.4 1024.9 66.5ZM958.1 103.8C963.7 106.2 972.2 108.6 981.4 108.1C990.3 107.7 997.2 106.2 1002.7 103.6C1005.1 101.6 1006.2 98.5 1003.2 96.3C997.2 94.1 989 91.4 979.7 91.8C970.8 92.2 963.7 93.7 958.6 96.5C956 98.6 954.7 101.6 958.1 103.8ZM523.8 -40.8C517.4 -44.3 506.3 -45.8 496.4 -45.9C486.8 -45.5 477.7 -43.5 474.8 -39.6C472.9 -36.6 474.7 -33.6 479 -30.7C485.4 -27 496.2 -25.9 506.4 -25.5C514.5 -26.4 520.9 -27.7 526.3 -30.4C528.7 -33.5 530.3 -37.3 523.8 -40.8ZM395.7 -74.7C402.4 -71.5 413.5 -68.2 425.1 -69C434.1 -69.4 440.2 -71.5 444.9 -74.3C446.6 -77.4 447.2 -81.2 442.1 -84C434.3 -87.4 423.6 -90.6 412.4 -89.9C403 -89.4 397.4 -87.1 392.3 -84C390 -81.3 390.3 -77.6 395.7 -74.7ZM563.3 -20C556.5 -23.7 545.8 -25 536.1 -25C526.6 -24.2 517.1 -22.4 514.1 -18.6C512.8 -15.8 514.1 -13 518.2 -10C524.1 -6.7 535.2 -5.5 545.2 -5C553.4 -5.6 559.9 -7.3 565.1 -9.8C567.9 -13.1 569.5 -16.9 563.3 -20ZM437.4 -104.6C444.8 -105.7 452.7 -106.7 457 -109.8C458.8 -113.2 460.6 -118.1 453.8 -121.4C446.3 -125.6 433.9 -127.2 422.1 -127C412.8 -126 404.7 -123.8 401.8 -119.9C399.2 -117.1 401.8 -113.1 406.8 -110.3C414.2 -106.1 426 -104.4 437.4 -104.6ZM1080.9 55.8C1074.9 53.1 1066.4 50.4 1056.1 50.6C1044.8 50.7 1037.4 53.2 1030 56.4C1027.3 58.9 1025.9 62.2 1029.6 64.8C1035.6 67.2 1044.7 69.9 1055 69.9C1066.2 69.8 1073.5 67.2 1080.5 64.3C1083.2 61.7 1084.4 58.3 1080.9 55.8ZM1146.6 81.4C1143.2 83.7 1143.5 86.7 1147 88.9C1152.8 91.8 1162.3 93.8 1173.4 92.6C1180.1 91.6 1186.9 90.8 1191.4 88.5C1195.5 85.9 1197 82.3 1192.7 79.6C1186.7 76.7 1177.6 74.8 1165.6 75.9C1157.7 76.5 1150.4 78.8 1146.6 81.4ZM1221.5 50.6C1215.6 48.1 1207.4 45.3 1196.8 45.5C1185.4 45.6 1177.9 48.1 1170.8 51.2C1167.5 53.7 1166.1 57.1 1169.3 59.7C1175.1 62.4 1183.6 65.1 1194.1 64.9C1205.1 64.7 1212.8 62.2 1220.5 59.1C1223.1 56.5 1224.9 53.2 1221.5 50.6ZM1277.4 38.4C1274.8 35.6 1266.4 34.3 1258.9 33.3C1248.1 32.9 1237 34.1 1229.7 37.3C1225 39.7 1221.4 42.3 1222.9 45.4C1224.6 48.3 1229.6 51.2 1238.4 52.5C1249.5 53.8 1263.9 52.1 1273.3 48.6C1278.5 45.7 1281.3 41.6 1277.4 38.4ZM385.5 -40.1C392 -37.1 401.7 -34.2 412.5 -34.6C422 -34.5 427.1 -37.5 432.5 -40.2C433.4 -42.7 433.6 -45.6 429.2 -48.1C422.3 -51.1 413 -54.1 401.8 -53.8C391.9 -53.7 386.8 -50.6 381.6 -48C380.5 -45.4 380.7 -42.5 385.5 -40.1ZM1333.8 40.7C1325.3 41.4 1315.9 43.5 1311.9 46.6C1307.6 49.1 1307.9 53 1311.7 55.2C1316.3 58.3 1326.4 59.8 1336.9 59C1340.5 58.8 1344 58.4 1347.4 57.8V41.2C1343.1 40.8 1338.4 40.6 1333.8 40.7ZM1256.1 58.1C1253.4 61.2 1253.3 64 1256.1 66.6C1260.6 69.7 1270.4 70.8 1279.4 70.8C1288.2 70.7 1294.4 68.8 1300.9 66.8C1306.1 64 1310.2 59.7 1304.6 56.5C1300 53.4 1289.7 52.2 1279.1 52.5C1269.9 53.1 1260.1 54.9 1256.1 58.1ZM1092.9 97.6C1094.4 100.8 1101.7 102.2 1109.4 103.6C1119.7 104.2 1129 102.6 1136.1 100.5C1139.1 98.3 1143.3 96.1 1141 93.4C1139.6 90.1 1132 88.6 1124.5 87.3C1115.1 87 1105.6 87.9 1099.1 89.8C1093.2 92.1 1090.8 94.7 1092.9 97.6ZM1145.3 104.7C1135.9 105 1130.1 107.4 1124.4 109.5C1122.5 111.6 1121.3 113.9 1124.5 116.1C1129.4 118.3 1137.1 120.6 1146.3 120.3C1155.7 120 1161.7 117.7 1167.1 115.5C1168.7 113.3 1170.4 111.2 1167.3 109.2C1162.2 106.7 1154.5 104.3 1145.3 104.7ZM1104.5 71.4C1098.5 69.5 1090.6 68.8 1081.9 69.3C1074.5 70.3 1065 71.6 1062.3 74.7C1058.9 76.7 1058 79.7 1061.3 81.6C1064.1 84.1 1070.5 85.2 1077.2 86.9C1095.2 88.6 1110.4 83.2 1112.1 77.5C1112.5 75.1 1108.7 73.3 1104.5 71.4ZM1054 114.2C1060.3 114.8 1068.6 114.6 1074.1 113.6C1082.7 111.7 1088.2 108.6 1086.6 105.3C1086.6 102.2 1080 100.1 1072 98.9C1066.6 98.2 1057.2 98.6 1052 99.5C1043.2 101.5 1038.1 104.6 1039.7 107.8C1040 110.7 1046.9 112.9 1054 114.2ZM1054.7 84.6C1049.7 81.5 1039.8 80.2 1029.2 80.5C1020.7 81.2 1012.5 83.1 1008.7 86.1C1005.9 88.3 1006.4 91.4 1010 93.8C1015 96.7 1024.8 97.9 1035.5 97.4C1042.3 96.9 1049.6 95.8 1054.5 93.2C1057.2 90.7 1060.3 87 1054.7 84.6ZM628.5 -165.7C620.2 -170.8 606 -171.9 593.5 -171.9C582.9 -171 572.3 -168.6 569 -163.7C565.9 -159.9 568 -155 574 -151.4C581.6 -146.2 594.9 -145.6 606.5 -144.6C616 -145.3 623 -147.3 629.9 -150.2C636.6 -155.2 635.5 -160.7 628.5 -165.7ZM1312.5 -6C1307 -3.2 1305.2 0.500003 1307.2 3.8C1310.7 6.5 1316.4 10.2 1325.9 10.4C1333.3 11.2 1340.7 10.8 1347.4 9.59999V-10.9C1334.9 -12 1321.6 -10 1312.5 -6ZM1271.1 2.09999C1263.3 3.89999 1252.5 5.99999 1250.1 9.59999C1247.2 12.5 1249.2 15.8 1252.1 18.2C1257.1 21.6 1267.7 22.9 1277.2 23.1C1290.8 22.7 1305.8 19.2 1308.7 14.1C1312.7 9.89999 1306.9 6.2 1300.1 3.5C1291.5 1.8 1282.2 0.499991 1271.1 2.09999ZM1347.4 160.3V153.5C1346.1 154 1344.9 154.6 1344 155.2C1342.6 157.1 1344.1 158.9 1347.4 160.3ZM1329.6 146.8C1336.1 147.2 1342.6 146.3 1347.3 144.9V135C1346.7 134.9 1346 134.9 1345.2 134.8C1338.8 134 1332.6 134.4 1326.7 135.3C1320.2 136.7 1315.6 139.3 1315.7 141.8C1316.8 144.3 1322.6 146.2 1329.6 146.8ZM1247.7 18.7C1242.2 15 1230.3 14.3 1219.1 14.2C1209.5 15 1199.5 17.1 1194.3 20.7C1190.7 23.9 1190.6 27.7 1195.3 30.6C1199.7 34.1 1211.4 34.9 1221.5 35.1C1230.9 34.7 1237.8 33 1244.7 30.5C1252 27.1 1252.6 22.5 1247.7 18.7ZM1108.6 38.5C1098.4 39.4 1088.6 41.6 1083.6 45.1C1081.5 48.1 1081.9 51 1085.1 53.5C1091.6 56.9 1101.1 58.8 1112.7 58.4C1121.4 57.8 1129.2 56.3 1134.6 53.5C1139 50.7 1142.3 46.4 1136.6 43.5C1130.6 40.2 1120 38.2 1108.6 38.5ZM1098 21.5C1089.6 19.9 1079.8 18.4 1069 20C1061.9 21.8 1051.7 23.8 1049.7 27.4C1046.8 30.2 1049.4 33.4 1052.8 35.8C1057.9 39.2 1068.2 40.4 1077.7 40.6C1091 40.3 1105.6 36.5 1108 31.9C1111.2 27.5 1105.1 24.1 1098 21.5ZM1019.1 31.6C1009.1 31.9 1001 35 996.1 38.1C992.8 40.6 993.9 44.7 997.7 46.8C1004.8 50.1 1015.3 52.7 1027.5 51.6C1036.2 50.5 1043.1 49.3 1048.8 46.3C1053 43.5 1054.3 39.2 1049.1 36.6C1042.4 33.2 1031.8 30.6 1019.1 31.6ZM1163.3 26.5C1151.6 26.3 1143.3 30.2 1137.4 33.4C1134.9 36.2 1135.6 39.4 1138.5 41.6C1145.1 44.5 1154.4 47.6 1166.8 46.5C1177.5 46.4 1184.6 43.8 1191.1 40.8C1195.4 38.2 1195.4 34.5 1192.2 31.9C1185.6 28.6 1175.9 25.5 1163.3 26.5ZM1325.4 127.8C1328.2 126.5 1328.9 125 1329.5 123.7C1330 120.7 1323.4 118.6 1316.3 117.5C1308.5 116.8 1297.9 117.8 1292.5 120.3C1289.5 122 1285.9 123.3 1286.3 125.2C1286.2 128 1292.6 130.1 1299.5 131.3C1308.1 131.7 1319 130.5 1325.4 127.8ZM1246.1 122.1C1249.8 120.2 1251.6 117.6 1249.4 115.5C1247.5 113.2 1240.9 111.4 1234.1 111C1225 110.4 1216.6 111.9 1210.9 114C1207.7 116.3 1202.6 118.8 1206 121.5C1208.1 123.5 1214.9 125.4 1221.1 125.8C1231.3 126.4 1239.1 124.4 1246.1 122.1ZM1145.5 162C1158.4 162.5 1170.6 158.8 1170.4 154.8C1166.6 153.1 1166.5 150.5 1158.9 150C1152.8 149.4 1146.8 149.6 1141.2 150.6C1134.9 152 1130 154.3 1131.4 156.9C1132.5 159.2 1138.1 161.2 1145.5 162ZM1116.8 146.3C1127.8 146.9 1139.7 144.8 1142.4 141.2C1145.2 138.2 1140.7 135.6 1134.7 133.7C1128.3 133.1 1119.2 132.7 1112.8 133.8C1103.3 135.5 1101.8 138.6 1102.2 141.7C1105.3 143.4 1108.9 146.1 1116.8 146.3ZM1275.4 157.1C1286.2 158 1295.2 155.6 1300 152.7C1304.5 149 1297.3 146.4 1288.5 145.3C1278.1 144.2 1268.6 146.6 1264.3 149.6C1260.1 153.3 1266.8 155.9 1275.4 157.1ZM1022 137.2C1026.6 139.3 1034.2 141.1 1042.6 140.8C1050.2 140.4 1056 139 1060.8 136.7C1062 134.8 1064.5 132.4 1060.7 130.4C1056.4 128.3 1049.2 126.3 1040.1 126.9C1032.7 127.2 1026.4 128.6 1021.7 130.9C1020.3 133.1 1018.4 135.3 1022 137.2ZM1063.5 156.3C1074.8 157 1085.1 155.2 1089.5 151.8C1093 148.3 1087.2 144.9 1076.8 143.8C1065.8 142.9 1055.4 145 1051.2 148.1C1048.3 151.8 1054.1 155.1 1063.5 156.3ZM1111.9 126.9C1114.5 125.7 1114.8 124.2 1115.5 122.6C1115.3 119.7 1110 117 1101.4 116C1095.3 115.6 1089 115.8 1082.8 116.4C1075.9 118.2 1070.1 120.6 1070.9 123.5C1071.3 126.5 1076.6 129 1084.8 130.1C1095.2 131.1 1105.5 129.5 1111.9 126.9ZM1246.4 141.3C1261.1 142.9 1275.4 138.8 1276.4 134.2C1275.5 131.7 1272.3 129.4 1264.8 128.6C1259.9 127.9 1251.4 128.3 1246.2 129.2C1237.9 130.6 1235.4 133.3 1235 135.9C1235.8 138.4 1239.3 140.6 1246.4 141.3ZM949.3 46.6C944.5 49.4 939.7 52.4 942.7 56.1C945.7 59 953 61.3 962.1 62.6C973.1 63.7 984.7 62 992.2 59.3C995.5 56.5 1000.6 54 997.6 50.5C995.4 47.4 987.4 45.1 978.8 43.9C968.8 43 956.4 44.1 949.3 46.6ZM1195 151.8C1205.6 152.7 1216.7 150.9 1221.1 147.3C1224.9 143.7 1219.5 140.4 1209.7 139.3C1198.7 138.6 1188 140.6 1183.1 144C1179.8 147.6 1185.2 150.9 1195 151.8ZM1194.9 130.9C1197.6 127.1 1191.6 123.5 1180.8 122.2C1168.7 121.4 1158 123.8 1152.6 127.4C1149.9 131.3 1156.3 134.6 1166.9 136.1C1178.8 136.8 1189.6 134.3 1194.9 130.9ZM283.2 -179.7C288.9 -178.3 295.3 -177.7 301.5 -178C305.3 -178.4 309.1 -178.9 312.4 -179.7H283.2ZM1033.2 119C1036.5 114.8 1029.5 111.2 1018.1 109.6C1005.4 108.6 994.1 111 988.9 114.9C985.2 119.2 992.5 122.8 1003.8 124.3C1016.7 125.5 1028.1 123 1033.2 119ZM612.4 -126.1C605.1 -129.7 594.1 -133.2 582.9 -132.8C569 -133.3 560.8 -130 554 -126C551.5 -122.7 551.7 -117.9 556.9 -114.5C564.4 -111.1 575.3 -107.7 586.8 -107.9C599.6 -107.6 608.3 -110.7 615.1 -114.8C617.8 -118.2 617.6 -122.7 612.4 -126.1ZM596.5 -88.9C591.9 -92.2 582.2 -94.1 574 -95.4C561.4 -96 550.5 -94.6 544.3 -91C540 -88.1 536.8 -85.2 540 -81.3C543.3 -77.7 550.5 -74.3 560.6 -72.8C573.7 -71 588.9 -72.9 596.8 -76.7C601.3 -80.2 602.4 -84.9 596.5 -88.9ZM840.3 3.39999C832.9 0.199994 822.6 -3.10001 809.9 -2.10001C797.5 -2.20001 790.4 1.79999 785.1 4.89999C782.9 7.29999 784.4 11 787.2 13.4C795 16.7 805.6 19.6 818 18.9C828.4 18.7 835.1 16.1 841.5 13.2C844.9 10.4 844.2 6.39999 840.3 3.39999ZM796.2 -20.6C786.9 -22.5 777 -24.1 765.8 -22.3C758.5 -20.4 748.7 -18.4 747.2 -15C745 -12 748.1 -8.5 752 -6C758.1 -2.3 769.5 -1.00001 779.5 -0.400009C793 -0.900009 806.9 -4.5 808.8 -9.5C811.2 -14 804.2 -17.7 796.2 -20.6ZM911.4 5.09999C898.5 3.99999 885.3 6.1 877.5 9.8C872.4 12.6 871.6 16.2 874.8 19.6C878.9 21.9 885.6 25.6 895 26C908.8 27.3 921.7 25.1 929.6 21.2C933.3 18.3 935.2 15 932 11.8C927.8 9.4 921.2 5.49999 911.4 5.09999ZM821.2 23.7C819.6 26.9 820.5 29.7 823.8 32.7C830.5 35.9 841.3 37.9 852.8 37.6C861.7 37.1 869.4 35.5 874.6 32.7C878.1 29.5 880.4 25.3 874.6 22.3C867.9 19 857.1 17 845.6 17.1C834.7 17.8 825.5 20.4 821.2 23.7ZM700.6 -5.90001C694.5 -2.70001 694.3 1.3 697.7 5C702.4 7.6 709.7 9.79999 717.9 10.9C730.9 11.5 743 10.4 750.1 6.2C756.2 3.7 753.5 -0.400003 751.4 -3.8C746.6 -6.5 739.1 -8.6 731.2 -9.8C718.9 -10.6 707.7 -9.10001 700.6 -5.90001ZM962.1 29.6C955.6 26.4 944.3 23.6 931.1 24.6C921.5 25 913 28.1 908.8 31.2C905.7 33.8 906.6 37.7 910.9 40C918.5 43.1 928.9 45.7 941.3 44.8C949.4 43.9 957.1 42.6 962.3 39.6C966.2 36.7 967.5 32.5 962.1 29.6ZM553.3 -112C545.4 -115.9 533 -118.5 520.3 -118.4C510.6 -117.3 503 -115.1 497.9 -111.7C496 -108.5 495 -103.6 501.9 -100.7C510.7 -96.5 522.3 -94.2 534.7 -94.6C544.2 -95.5 551.6 -97.8 557.1 -101.2C558.9 -104.2 560 -109 553.3 -112ZM694.7 -78.9C689.3 -81.8 682.2 -85.9 671.7 -86.6C657.5 -88 644.2 -85.9 636.8 -81.5C631.6 -78.4 631.3 -74.4 635.1 -70.7C640.5 -67.9 647.4 -63.9 658 -63.4C672.7 -61.7 686 -64.2 693.9 -68.4C697.1 -71.5 698.7 -75.3 694.7 -78.9ZM712 -24.6C704.3 -28.5 692.9 -30.7 681.4 -30.4C670.6 -29.6 661.6 -27.2 657.2 -23.3C655.2 -20.2 657.2 -17 660.5 -14.1C668.3 -10.4 679.6 -8.20001 691.2 -8.60001C700.5 -8.90001 708.2 -10.7 713.4 -13.7C716.7 -17 718.7 -21.5 712 -24.6ZM674.9 -45.6C667.2 -49.5 655.7 -51.7 643.6 -51.2C632.8 -50.6 623.7 -48 619.7 -44.3C618 -41 619.5 -37.5 623.3 -34.6C631.2 -30.9 642.6 -28.8 653.9 -29C663.4 -29.6 670.7 -31.2 676.3 -34.2C679.7 -37.7 681.3 -42.3 674.9 -45.6ZM603.8 -73.3C593.5 -72.4 583.3 -70.2 580.1 -66.3C577.6 -62.8 578.8 -58.9 584.5 -55.7C591.7 -52 603.3 -49.9 615.3 -50.4C624.3 -51 632.2 -52.6 637.2 -55.9C642.4 -59.5 640 -64.2 634.5 -68C627 -71.6 615.5 -73.8 603.8 -73.3ZM249.7 -0.5C261 0.9 268.2 -2.4 271.2 -5.5C273.4 -9.7 262.9 -13 252.9 -14.6C241.2 -15.7 233.7 -12.6 230.6 -9.39999C229 -5.19999 239.2 -2.2 249.7 -0.5ZM199 -100C198.4 -95.1 207.2 -90.6 219.8 -88.6C233.2 -87.4 243.9 -89.9 247.2 -94.5C248.1 -99.7 239.1 -104.2 226.4 -106C213.1 -107.4 202.4 -104.8 199 -100ZM206.4 -20.9C217.4 -20.2 226.6 -22.4 228.9 -26.1C229 -30 221 -33.8 210.1 -35.2C198.9 -36 189.8 -33.9 187.6 -30.1C187.5 -26.2 195.4 -22.4 206.4 -20.9ZM371.7 57.6C382.2 58.1 393.1 57.1 395.3 53.2C396.1 49.8 391.3 45.6 379.8 44.5C369 43.8 357.9 44.9 356 48.7C355.4 52.4 359.8 56.5 371.7 57.6ZM178.6 -129.4C165.1 -131.1 156.2 -127.6 153.2 -123.4C151.3 -118.5 162.4 -114.2 174.2 -112.1C187 -110.7 196.4 -113.9 199.4 -118.3C201.7 -123.4 190.4 -127.6 178.6 -129.4ZM237.2 -59.9C239.4 -64.5 228.7 -68.3 218.1 -69.9C204.6 -71.7 195.3 -68.3 192.7 -64.3C191.6 -59.7 201.4 -55.9 212.7 -54C225.4 -52.6 234.1 -55.9 237.2 -59.9ZM290.5 19.6C301.1 20.4 311.9 18.9 314 15.3C314.6 11.5 308.9 7.4 297.6 6C286.6 5 275.5 6.6 273.2 10.3C272.7 14.2 279.2 18.2 290.5 19.6ZM331.4 38.4C342.1 39.2 353.3 38.3 355.4 34.4C355.6 30.5 350.8 26.4 339.2 25.2C328 24.5 316.5 25.6 315.1 29.6C314.7 33.2 319.3 37.3 331.4 38.4ZM367.2 3.3C369.2 -0.999997 361 -4.9 349.2 -6.8C336.4 -7.8 326.1 -5.50001 323.1 -1.60001C322 2.69999 329.6 6.89999 341.8 8.59999C354.1 9.49999 364.7 7.2 367.2 3.3ZM324.9 -17.9C326.5 -21.6 318.1 -24.2 311.5 -26.6C304.1 -27.8 295.2 -28.3 289 -26.8C280.7 -25.1 278.7 -21.4 281.8 -17.9C286.7 -15.7 292.1 -12.4 301 -12C312.7 -11.4 324.6 -13.4 324.9 -17.9ZM282 -40.7C278.9 -43.7 273.1 -46.9 264.4 -47.9C256.8 -48.4 251.9 -48.5 246 -47.5C238.7 -46 236.5 -42.9 237.9 -39.9C240.3 -36.7 246.2 -33.8 255.3 -32.7C265.9 -31.2 275.3 -32.6 280.8 -35.6C282.7 -36.9 281.9 -38.9 282 -40.7ZM367.2 -179.7C367.5 -178.3 368.6 -176.8 370.5 -175.3C376.2 -171.8 383.3 -168.3 393.5 -167.1C405.6 -166.7 418.1 -167.4 424.6 -171.7C427.3 -174.1 429 -176.9 426.6 -179.8H367.2V-179.7ZM527.2 -179.7C527.9 -178.8 528.8 -177.9 529.9 -176.9C538.7 -172.4 551.1 -169.9 564.1 -170.4C574 -170.9 582.3 -172.8 587.5 -176.9C588.4 -177.7 589.2 -178.7 589.8 -179.7H527.2ZM571.6 -149.4C566.5 -152.6 557.8 -155.4 548.6 -156.8C535.6 -157.3 523.5 -155.9 516.1 -152.1C509.6 -148.3 510 -143.4 514.3 -139C519.8 -135.7 528.3 -133.1 537.2 -131.9C551.3 -131.2 564.8 -132.6 572.2 -137.1C577.9 -140.3 574.4 -145.3 571.6 -149.4ZM206.8 -133.4C209 -130.3 215.6 -126.9 225.2 -125.5C243.7 -123.1 257.6 -128.5 254.1 -135.7C251 -138.9 244.9 -142.6 235.5 -143.8C229.1 -144.9 219.5 -144.5 214.3 -143.1C205.6 -141.2 204.1 -137.4 206.8 -133.4ZM309.4 -152C304.8 -154.8 298.4 -158.6 288.9 -159.1C277.7 -160.7 268 -158.6 262.2 -155.7C258.6 -153 259 -149.2 262.1 -146.2C266.9 -143.4 273.1 -139.4 282.4 -139.1C293 -138.1 304.6 -139.3 309.8 -143.1C312.1 -145.7 312.9 -149 309.4 -152ZM259.8 -179C259.3 -179.2 258.7 -179.5 258.2 -179.7H213.4C213.3 -179.6 213.2 -179.5 213.1 -179.4C211.3 -176.3 211.5 -172.4 216.9 -169.7C223.9 -166.1 234.1 -163.4 244.4 -163.7C252.1 -164.5 259.5 -165.6 263.3 -169C265.9 -171.9 265.1 -176.1 259.8 -179ZM308 -120.5C314.8 -117.3 325.6 -114 336.6 -114.4C345.8 -114.8 351.8 -117.3 357.1 -120.3C358.6 -123 359.1 -126.9 353.7 -129.5C346.3 -132.8 335.9 -136 324.7 -135.7C315.5 -135.5 309.2 -133.1 304.5 -129.9C302.5 -127.1 302.6 -123.3 308 -120.5ZM364.8 -168C358.3 -171.2 352.5 -173 343 -174.9C331.9 -176.2 323.3 -174 316.2 -171.4C312.4 -167.8 309.6 -163.8 315.4 -159.5C322.4 -156.3 328.1 -154.5 337.2 -152.7C349.1 -151.7 360 -153.4 365.9 -157.1C369.2 -160.2 369.7 -164.2 364.8 -168ZM854.9 154.1C868.2 154.9 879.3 151.1 878.3 147C874.7 145.2 873.8 142.6 866.1 142.3C860 141.5 853.7 141.7 848.3 142.6C842.1 144.1 837.7 146.6 839.3 149.2C840.9 151.7 847.3 153.4 854.9 154.1ZM821.2 138.3C832.2 138.7 841.7 136.5 846.2 133.2C847.8 129.5 840.7 126.5 830.2 124.9C819.1 124.3 809.2 126.6 805.3 130.1C803.9 133.6 811.2 136.8 821.2 138.3ZM812.6 111.5C807.5 109.5 799.6 107.4 791.1 107.8C783.5 108.3 777.6 109.6 773.1 111.7C771.9 113.8 770.5 116.3 774.2 118C779.3 120.3 787.2 122.2 795.9 122C803.1 121.6 809.5 120.2 813.5 117.9C814.8 115.9 816.8 113.6 812.6 111.5ZM704.9 115.4C716.6 116.3 728.6 114.2 730.3 110.1C732.1 106.9 726.9 104.2 719.4 102.1C712.7 101.4 704 100.9 697.6 102.3C688.3 103.6 687.5 107.3 688.9 110.3C692.8 112.5 697 115.2 704.9 115.4ZM985.2 150.3C995.9 150.9 1006.1 148.6 1010.1 145.5C1012.6 142 1005.5 138.8 995.8 137.5C984.7 136.7 974.6 139.3 970.6 142.5C968.3 146 975.4 149.3 985.2 150.3ZM407.2 22.7C409 18.7 401.2 14.6 389.3 13.2C376.9 11.9 366.6 14.2 363.7 18.3C361.9 22.6 369.9 26.4 382.1 28.1C393.9 29.3 404.1 27 407.2 22.7ZM725.2 128C729.9 130.2 737.3 131.7 745.3 131.8C751.8 131.3 758.2 130.5 762 128.2C764.8 126.3 764 124 761.7 122.2C756.8 120 749.4 118.2 741.8 118.2C734.9 118.9 728.4 119.5 724.5 122.1C722 124 722.5 126.1 725.2 128ZM882.6 169.1C894.6 170.5 908.2 167.5 907.3 163.3C904.8 161.5 903.7 159 896 158.4C891.2 157.7 883.6 158 879.8 158.9C872.7 159.9 872.5 162.4 871.7 164.3C873.6 166.2 875.4 168.6 882.6 169.1ZM934.9 160.3C948.2 160.8 959.3 157.3 958.7 153C955.2 151.5 954.7 148.8 946.8 148.3C940.5 147.6 934.4 147.9 928.5 148.7C922.7 150.1 918.4 152.6 919.6 155.1C921.5 157.6 927.7 159.6 934.9 160.3ZM964.6 120.7C952.2 119.5 942.5 122.6 938 125.8C933.7 129.8 942.3 133 952.8 134.6C965.1 135.7 974.9 132.7 979.6 129.4C983.8 125.4 974.7 122.3 964.6 120.7ZM929.2 137.3C928.4 134.8 924 132.3 916.6 131.7C911.3 131 902.8 131.1 898.3 132.3C890.3 133.7 888.5 136.2 888.6 138.8C889.6 141.1 894 143.6 901.5 144.4C916.3 145.9 929.6 142.1 929.2 137.3ZM772.2 147.7C783.5 148.8 791.4 146.4 795.2 143.4C798.5 140 790.5 137.2 781.2 136C769.9 134.7 761.3 137.1 757.8 140.1C755.3 143.6 762.7 146.6 772.2 147.7ZM522.5 76.3C520.5 73.5 515.6 71.1 507.3 70C501.9 69.2 494.2 69.3 489.9 70.3C482.9 71.6 480.5 74.5 481.3 77.1C483.6 79.8 488.7 82.3 496.7 83.1C505.7 84.3 515.2 83.1 520.4 80.6C522.7 79.4 522.3 77.7 522.5 76.3ZM494 110.6C500.9 110.7 504.7 109.2 507.8 107.6C509.2 105.7 507.6 104 505.5 102.1C501.4 99.9 493 98.3 486.6 98.8C479.5 98.8 476 100.3 472.8 102.1C471 104.1 473 105.4 474.9 107.4C479.3 109.6 487.5 111.1 494 110.6ZM534.6 43.9C529 41.6 520.2 39.2 511 39.5C503.2 39.9 497.3 41.4 493.2 44C492.7 46.1 491.2 49 495.6 51C500.7 53.6 509.7 55.8 518.9 55.3C526.6 54.9 532.8 53.5 536.9 50.9C537.7 48.7 538.8 45.9 534.6 43.9ZM679.9 83.7C666.8 82.4 657.3 85.5 653 89.1C649.6 93.4 659.9 96.7 670.6 98.5C683.5 99.7 692.8 96.6 697.4 93.2C700.4 88.8 690.9 85.6 679.9 83.7ZM420.6 46.9C432.9 48 442.9 45.9 445.7 42C447.7 37.9 440.1 34.1 428.4 32.2C416.1 31.3 405.7 33.7 403.2 37.3C401.5 41.5 409 45.3 420.6 46.9ZM606.8 104.3C611.9 106.6 619.7 108.5 627.5 108.4C634.4 107.8 640.8 107.1 644.5 104.6C646.8 103 646.5 100.6 643.1 98.6C638.7 96.3 630.8 94.6 622.3 94.4C615.5 95 609.2 95.9 605.5 98.2C602.7 100.1 603.9 102.5 606.8 104.3ZM653.7 124.8C662.8 125.7 672.4 124.6 677.1 122.3C679.4 121 679.3 119.6 679.5 118.1C677.7 115.6 673.2 113.2 665.6 112.4C659.3 112 654.7 112.3 648.6 112.8C642.1 114 639.4 116.7 639.6 119C641.2 121.6 645.8 123.9 653.7 124.8ZM582.9 90.6C592.2 91.3 603 90.8 608 88C610.1 86.4 611.3 84.8 610.1 82.7C608.3 80.3 602.9 77.7 595.2 76.8C589.6 75.9 581.2 76.1 576.5 77.3C568.4 78.8 566.9 81.9 567.9 84.7C569.3 87 575 89.6 582.9 90.6ZM532.8 69.3C538.4 72 546.3 74 555.3 73.7C562.8 73 568.6 72.3 572.7 69.5C575.4 67.4 575.7 64.6 571.2 62.4C566.1 60 557.3 57.9 548.5 58.1C541.6 58.7 534.8 59.8 531.3 62.4C529 64.4 528.5 67.4 532.8 69.3ZM481.4 220.8C478 220.7 475.5 221 474.4 221.7C474.4 222.8 475.3 223.7 478.5 224.1C481.8 224.1 484.1 223.8 485.8 223C485.6 222 484.5 221.3 481.4 220.8ZM492.7 195.9C487.7 195.1 483.7 196.2 481.2 197.6C479.5 199.3 483.5 200.6 488.2 201.6C493.4 202.3 497.4 201.2 499.9 199.8C501.6 198 497.6 196.7 492.7 195.9ZM446.8 205.5C442.3 205.1 440.6 206.2 438.6 207C438.2 208.5 442.2 209 445.1 209.9C449.7 210.3 451.3 209.2 453.6 208.2C453.7 206.9 449.8 206.2 446.8 205.5ZM460 180.5C454.8 179.5 449.3 180.9 446.6 181.8C443.4 183.4 448 185.1 452.4 186.3C457.8 187.4 462.7 186.2 465.9 185.1C468.7 183.3 464.2 181.7 460 180.5ZM527.6 211.1C522.6 210.9 519.7 211.7 517.6 212.8C517.3 214.4 519.7 215.3 523.6 216.1C528.9 216.3 531.8 215.6 534.1 214.4C534 212.9 531.6 212 527.6 211.1ZM700.3 260.9C697.4 260.7 696.1 261.4 694.5 262C693.9 262.9 696.5 263.2 698.1 263.6C700.7 263.8 702.1 263.2 703.7 262.6C704.5 261.9 701.6 261.4 700.3 260.9ZM514.4 235.1C511.4 235 510.6 235.8 508.9 236.3C508.7 237.1 511.1 237.6 513.2 238.1C516.2 238.4 517.1 237.6 518.3 236.9C518.9 236.1 516.5 235.7 514.4 235.1ZM379 174.3C374.9 173.4 369.6 174.1 366.6 175.1C364.2 176.3 367.4 178.1 370.7 179.1C375.5 180.2 380.7 179.3 383.3 178.4C386 177.1 383.1 175.4 379 174.3ZM387.5 147.9C381.9 147.5 374.6 147.5 372 149.7C372.3 151.5 373.5 154 380.6 154.8C386.6 155.1 393.5 155 395.5 152.8C396 151.1 394.8 148.9 387.5 147.9ZM401.8 214.8C398.8 214.5 398 215.3 396.3 215.9C395.9 216.7 398.3 217.3 400.5 217.8C403.7 218 404.5 217.1 406 216.7C406.6 215.8 403.9 215.3 401.8 214.8ZM544.2 250.4L545.1 251.8H549.8L548.7 250.3L544.2 250.4ZM426.7 164.8C421 163.6 414 163.8 410.6 165C407.3 166.7 408.9 168.7 413.7 170.3C418.9 171.1 425.3 171.1 429.7 169.9C432 168.2 430.8 166.3 426.7 164.8ZM437.7 138.3C430.4 137.1 423.7 137.7 418.5 139.2C415.2 141.4 418.3 143.7 424 145.3C431.2 146.8 438 146 443.4 144.6C446.1 142.3 442.6 140.3 437.7 138.3ZM436.2 230C434.5 229.8 432.4 230 431.9 230.5C432.3 231 432.5 231.6 434.4 232C438.9 232.3 440.3 230.4 436.2 230ZM412 189.7C406.9 189.5 404.1 190.1 401.6 191.4C401.8 193 404.4 194 408.6 194.9C413.7 195.1 416.7 194.4 419 193.2C419 191.6 416.4 190.7 412 189.7ZM593.6 241.4C591.2 240.9 588.2 241.3 586.7 242C585.2 242.8 587.3 243.8 589.2 244.4C592.2 244.8 594.9 244.2 596.9 243.7C598.3 242.9 595.9 242 593.6 241.4ZM657.3 208.3C652.1 207 645.9 207.3 641.6 208.6C639 210.1 639.5 212 643.9 213.4C649.1 214.3 655.3 213.9 659.4 212.9C662.3 211.4 661.7 209.6 657.3 208.3ZM620.3 192.1C613.5 191.3 608.9 192.7 605.3 194.4C603.8 196.5 608.9 198 614.5 199.1C621 199.9 626.1 198.3 628.8 196.8C631 194.8 626.1 193.3 620.3 192.1ZM669.2 246.6C665.3 246.2 664.9 247.5 662.1 248.1C661.5 249.2 666 249.5 668.1 250.4C672 250.6 672.4 249.3 674.8 248.8C676.1 247.6 671.6 247.3 669.2 246.6ZM639.7 231.9C635.4 231.5 630.7 231.8 629.2 233C628.4 234.3 629.3 235.5 634 236.4C637.7 236.6 642.4 236.6 644.3 235.2C644.9 234.1 643.9 232.5 639.7 231.9ZM708.9 202.8C709.1 201 705.8 198.5 699 198C692.5 197.7 685.1 198.7 684.2 200.8C683.7 202.8 687.4 205.2 693.9 205.5C700.1 205.8 707.4 204.9 708.9 202.8ZM684.5 222.7C678.2 222.2 675.9 223.7 672.7 225C671.4 226.7 676.7 227.5 680.6 228.5C686.6 228.9 689 227.5 692.1 226.2C693.1 224.4 688 223.6 684.5 222.7ZM587.5 176.6C580.6 176 574.2 177.1 570.8 179.2C569.4 181.3 573.1 183.4 579.9 184.6C587.2 185.1 593.4 184.2 596.3 182.2C597.8 179.9 594.2 177.8 587.5 176.6ZM620 256.6C618.3 257.1 620.9 257.6 622 257.8C624.6 258.6 625.2 257.5 627.1 256.9L622.1 255.9L620 256.6ZM559.6 226.1C555.2 225.6 553.6 226.8 551.2 227.7C550.4 228.9 554.5 229.6 557.1 230.3C561.8 230.6 563.7 229.5 566.1 228.7C566.5 227.4 562.8 226.8 559.6 226.1ZM574.4 201.9C569 200.9 564.1 202.1 560.7 203.1C558.2 204.8 562.4 206.5 566.6 207.4C571.6 208.6 576.5 207.5 580.1 206.2C582.7 204.6 578.3 203 574.4 201.9ZM607.6 217.3C603.1 216.8 597.7 217.1 595.2 218.4C595.2 219.8 595.7 221.4 600.6 222.1C604.8 222.6 610.7 222.5 612.4 221C612.9 219.7 612.2 218.1 607.6 217.3ZM562.7 165.9C564.8 163.3 559.1 160.9 552.1 160.4C543.7 159.7 536.9 161.2 535.3 163.4C533.7 165.8 538.9 168.2 546.3 168.9C554.1 169.7 560.9 168 562.7 165.9ZM366.8 199.6C363.7 199.2 361 199.7 359.1 200.4C357.9 201.3 360.2 202.2 362.8 202.6C365.6 203.4 368.4 202.6 369.8 202.1C371.3 201.2 369.1 200.4 366.8 199.6ZM542.8 186.7C537.6 185.6 530.3 186 527.2 187.4C524.9 189 526.3 191.2 531.7 192.3C537.1 193.4 544.2 193.1 547.4 191.7C549.6 190.2 548.2 187.8 542.8 186.7ZM131.8 129.1C128 129 125.4 129.3 124.2 130.4C124.9 131.4 126.2 132.2 130.1 133.1C133.1 133.2 136 132.8 137.3 131.9C137 130.6 135.2 129.7 131.8 129.1ZM136.4 101.2C131.7 100.7 127 101.8 126.3 103.2C124.7 104.7 131 106.2 133.3 106.6C139.2 108.1 143.1 105.9 144.5 104.9C145.7 103.4 140.5 101.7 136.4 101.2ZM101.1 54C94.7 53.3 89.2 54.1 87.4 56.1C86.9 57.9 89.7 60.1 96.3 61.1C102.3 61.7 108.2 61.2 110.4 59.1C111.2 57.1 107.9 55.1 101.1 54ZM103.8 22.8C96.9 22.3 89.1 23.3 88.7 26.2C88.9 28.6 94 31.5 102 32.3C109.1 32.6 117.1 31.5 117.3 28.8C116.7 26.4 111.5 23.3 103.8 22.8ZM121.7 156.1L123.3 157.6L128.2 157.7L127 155.9L121.7 156.1ZM150.3 42.3C143 41.3 134.9 41.9 133 44.4C130.9 46.8 134.5 49.8 142.7 51.2C149.6 52.2 158.2 51.3 160.4 48.8C162 46.6 158.4 43.6 150.3 42.3ZM142.8 72.2C136.5 71.6 131.1 72.4 129.1 74.5C128.4 76.4 131.9 78.4 138.4 79.4C144 80.1 149.7 79.5 152.1 77.6C152.5 75.5 149.5 73.5 142.8 72.2ZM88.9 112C84.2 111.3 84.5 113.3 82 113.8C81.1 115.2 86.8 115.5 89 116.4C93.6 117 93.8 115.3 95.9 114.6C97 113.3 91.5 112.9 88.9 112ZM65.3 3.7C58.8 2.2 50.1 3.1 46.2 5C42.8 7 47.5 10.4 53.6 11.9C60.8 13.6 68.9 12.7 72.5 10.8C75.9 8.9 71.5 5.4 65.3 3.7ZM57.2 34.5C51.2 34.2 45.3 34.7 43.1 36.8C42.8 38.9 45.8 41.1 52.7 42.3C59 42.9 64.6 42.1 66.6 40C67.1 38 63.9 35.7 57.2 34.5ZM64.9 -30C55.4 -31.1 48.1 -29.3 47.1 -26.2C45.9 -23.1 53 -20.2 61.8 -19.1C70.5 -18.1 78 -20 78.8 -23C80.4 -26 73.1 -29.1 64.9 -30ZM52.2 65.3C47.2 64.5 41.9 66.1 41.7 67.3C39.5 69 46.4 70.5 49 71.2C54.9 72.7 58.8 70.4 60.6 69.5C61.3 67.8 56.5 65.8 52.2 65.3ZM81.7 140.1L83 141.7H88.3L86.7 140L81.7 140.1ZM172.2 145.7C168.8 145.4 166.2 145.9 164.1 146.5C162.7 147.5 165.1 148.4 167.7 149C170.9 149.7 173.7 149.1 175.7 148.4C176.9 147.6 174.6 146.5 172.2 145.7ZM94.5 83.2C89.7 82.5 84.5 83.8 84.2 85.2C82.2 86.8 88.9 88.1 91.5 88.8C97.6 90.4 101.2 88.1 103.1 87.2C103.6 85.5 98.7 83.7 94.5 83.2ZM216.7 135.2C211.6 135.1 208.7 135.8 207 137.2C206.7 138.8 210 139.9 214.3 140.8C219.2 140.9 222.3 140.3 224.4 139C224.1 137.3 221.3 136.3 216.7 135.2ZM263.7 124.7C257.9 124.2 252.2 124.8 250.4 126.7C249.5 128.6 252.6 130.4 258.6 131.3C264.6 131.9 270.4 131.5 272.4 129.5C273.2 127.7 270.2 125.7 263.7 124.7ZM280.5 194.5C278.8 194.8 281.6 195.4 283.1 195.8C285.9 196.6 286.7 195.4 288.2 195L282.5 193.6L280.5 194.5ZM293.4 168C288.6 167.6 287.2 168.9 284.9 169.9C284.1 171.3 288.4 171.9 291.5 172.6C296.4 172.9 298.3 171.8 300.3 170.9C300.9 169.5 296.7 168.9 293.4 168ZM177.1 118.3C171.5 117.5 169.2 119 166.6 120.1C165.4 121.6 170 122.8 174.3 123.9C179.3 124.7 182.5 123.2 184.8 122.1C186.2 120.5 181 119.3 177.1 118.3ZM317.9 209.5L319 210.8L323.8 210.9L322.8 209.3L317.9 209.5ZM339.4 158.1C333.6 157.2 329.8 158.3 327.3 159.9C325.7 161.4 330.2 162.9 334.8 163.7C340.7 164.6 344.9 163.5 346.9 161.9C348.5 160.5 344.2 159 339.4 158.1ZM331.6 184.1C328 183.5 324.6 184.2 322.9 184.8C321.5 185.9 324.1 187 326.5 187.7C329.7 188.2 333.1 187.7 335.4 187.2C336.9 186.1 334 184.9 331.6 184.1ZM304.5 141.9C300.2 141.4 292.9 141.3 290.4 142.8C289.2 144.1 290.6 146.5 295.3 147.5C300.1 148.2 306.9 148 309.2 146.7C311.1 145.5 309.9 143 304.5 141.9ZM208 161.8C204.2 162.3 203.4 162.8 203.4 163.9C204.6 165 211.2 166 213.5 164.8C216.2 163.7 211.5 162 208 161.8ZM256.8 151.7C252.5 151.5 247.6 151.7 246 153C245.2 154.3 246.6 155.9 251.7 156.6C256 156.9 260.5 156.9 262.3 155.2C262.9 154 261.6 152.4 256.8 151.7ZM184.7 90.6C178.6 90 173.1 90.4 170.7 92.3C170.2 94.2 172.9 96.3 179.6 97.4C185.5 98.1 191.4 97.5 193.6 95.5C193.9 93.5 191.2 91.6 184.7 90.6ZM245.5 178L242 179.5C243.6 181.4 249.4 181.3 251.2 180.2C251.8 179.6 249.6 178.1 245.5 178ZM225 107.5C219.2 107 213.9 107.6 211.7 109.5C211.2 111.4 213.2 113.2 219.7 114.3C225.7 114.9 231.6 114.3 233.8 112.4C234.6 110.6 231.4 108.6 225 107.5ZM944.3 253.9C939.6 253.9 936.3 254.5 934 255.7C933.4 257.1 935.6 257.9 939.2 258.9C944.2 258.9 947.2 258.3 949.4 257C950.3 255.7 947.7 254.7 944.3 253.9ZM1166.3 232.1C1161.3 231.2 1154.2 231.6 1151 233C1147.5 234.6 1148.4 236.7 1152.6 237.7C1157.5 238.7 1164.2 238.3 1167.9 236.8C1171.4 235.2 1170.9 233.2 1166.3 232.1ZM1140.8 255.5C1135.8 255.3 1132.7 256 1130.1 257.1C1129.5 258.6 1131.6 259.5 1135.4 260.2C1139.8 260.4 1143 259.7 1145.8 258.5C1146.5 257.1 1144.3 256.2 1140.8 255.5ZM1165.8 269.8C1162.3 269.6 1159.7 270 1158.2 270.9C1157.8 271.9 1158.7 272.5 1161.3 273C1164.6 273.1 1167.2 272.7 1168.7 271.9C1168.9 270.9 1168.2 270.2 1165.8 269.8ZM1189.9 207.8C1184.4 206.4 1175.5 207.7 1171.1 209.2C1166.6 211.2 1169.5 213.7 1175 215.1C1180.9 216.3 1189.4 215.1 1193.7 213.5C1198 211.6 1195.3 209 1189.9 207.8ZM1190.5 246.8C1186.1 246.5 1180.9 246.5 1178.3 248C1177.2 249.4 1177.3 251 1181.6 251.7C1185.8 251.9 1191 251.9 1193.6 250.5C1194.7 249 1194.6 247.4 1190.5 246.8ZM1117.1 278.7L1113 280C1113.5 281.4 1118.4 281.3 1121.2 280.5C1121.8 279.9 1121 278.5 1117.1 278.7ZM1088.7 226.2C1082.8 225.8 1077.2 226.8 1073.7 228.4C1071.8 230.1 1074.9 231.9 1080.5 233C1086 233.4 1092.1 232.4 1095.4 230.6C1097.3 228.9 1094.2 227 1088.7 226.2ZM1093.6 264.4C1089.9 264.1 1086.8 264.6 1084.2 265.6C1082.7 266.7 1084.5 267.6 1088.1 268.2C1091.2 268.6 1094.9 267.9 1096.8 267C1098.4 266 1096.5 264.9 1093.6 264.4ZM1144.5 222.1C1147.1 220.2 1145.7 217.9 1139.2 217C1133.3 216.3 1125.5 217 1122 218.9C1119 220.6 1121 223.1 1127.4 223.9C1133.2 224.9 1140.6 224.2 1144.5 222.1ZM1119.3 207C1122.3 204.5 1117 202.3 1110.5 201.4C1102.6 200.5 1095 202.4 1091.8 204.3C1088.8 206.8 1094.5 209.1 1100.7 210C1108.7 210.9 1116 209 1119.3 207ZM1117.1 241.3C1112.5 240.2 1107.1 241.4 1103.4 242.5C1100 244.1 1103.7 245.6 1107 246.7C1112 247.6 1117.2 246.3 1121.1 245.3C1123.7 243.9 1120.6 242.3 1117.1 241.3ZM1314.5 203.4C1307.9 202.8 1301.3 203.9 1297 205.9C1294.8 207.9 1297.1 209.9 1303.5 211C1310.1 211.6 1316.7 210.5 1320.9 208.3C1322.9 206.2 1320.6 204.4 1314.5 203.4ZM1288.3 227.8C1283.4 227.3 1277.3 227.9 1274.2 229.6C1272.3 231.3 1273.7 232.9 1279.1 233.7C1284 234.2 1290 233.6 1293.3 231.8C1294.8 230.3 1293.7 228.6 1288.3 227.8ZM1068.4 250.8C1064.7 250 1059.5 250.5 1056.4 251.4C1053.4 252.7 1056.1 254.3 1058.7 255.2C1062.6 256 1067.6 255.2 1071 254.4C1073.7 253.2 1071.5 251.6 1068.4 250.8ZM1312.6 242.2C1308.8 241.8 1303.6 242.9 1301.9 244.2C1299.3 245.4 1303.7 246.6 1305.8 246.9C1309.7 248 1315.2 246.2 1317.4 245.2C1319.3 243.9 1315.9 242.6 1312.6 242.2ZM1335.2 256.6C1331.7 256.1 1329.9 257.6 1327.7 258C1325.8 259.3 1330.4 259.7 1331.9 260.3C1335.8 260.8 1337.1 259.2 1339.7 258.7C1341.6 257.5 1336.5 257.3 1335.2 256.6ZM1340.5 218.2C1335.6 217.2 1328.8 218.4 1324.7 219.6C1321.4 221.4 1324.3 223.1 1328 224.3C1333.1 225.3 1339.4 224 1343.4 222.8C1347.1 221.1 1344.2 219.5 1340.5 218.2ZM1240.7 237.3C1236.3 236.7 1230 237 1227.1 238.1C1224.5 239.3 1224.8 241.4 1228.8 242.3C1232.5 242.8 1238.8 242.7 1242.3 241.3C1244.5 240.2 1244.4 238 1240.7 237.3ZM1287.3 266C1284.7 265.5 1281.8 266.1 1279.6 266.7C1278.1 267.4 1279.6 268.4 1281.1 268.9C1283.8 269.2 1286.6 268.7 1288.8 268.1C1290.6 267.2 1289.1 266.5 1287.3 266ZM1214.7 260.7C1211.4 260.1 1207.8 260.9 1205.7 261.7C1203.9 262.9 1205.9 263.8 1208.8 264.4C1212.1 265 1216 264.3 1217.7 263.2C1219.7 262.1 1217.8 261.3 1214.7 260.7ZM1237 274.8L1232.7 276.2C1233.4 277.5 1238.1 277.6 1241.2 276.5C1242.1 276 1241 274.7 1237 274.8ZM1213.7 222.2C1207.8 221.7 1201.8 222.8 1198 224.4C1196.3 226.2 1199.2 228.1 1204.9 228.9C1210.8 229.4 1216.5 228.5 1219.8 226.7C1221.7 224.8 1219 223.1 1213.7 222.2ZM1238.8 197.5C1231.4 196.6 1223.8 197.9 1219.6 199.9C1215.9 202.4 1219.5 204.6 1226.1 205.7C1232.9 206.6 1240.6 205.3 1245.1 203.1C1249 200.9 1245 198.6 1238.8 197.5ZM1262.6 212.7C1256.8 212.4 1249 213.6 1247 215.6C1245.8 217.4 1248.2 219.6 1255 220C1260.9 220.4 1268.4 219.4 1270.7 217.3C1271.8 215.4 1269.4 213 1262.6 212.7ZM1263.8 251.6C1260.3 251.4 1255.3 251.7 1252.9 252.9C1251.8 253.9 1252.1 255.4 1256.4 255.8C1260.1 256.3 1264.5 256.1 1267.1 254.6C1268 253.6 1268.4 252.2 1263.8 251.6ZM822.7 257.7C819 257.2 815.7 257.9 813.7 258.7C811.9 259.8 814.5 260.8 817.7 261.3C821.4 261.8 825 261.2 826.4 260.3C828.2 259.2 825.7 258.1 822.7 257.7ZM850.3 271.8C847.4 271.6 846.4 272.3 844.3 272.9C843.6 273.7 846.3 274.2 848 274.8C850.8 275 851.7 274.2 853.6 273.6C854.3 272.7 851.6 272.3 850.3 271.8ZM841.1 234.1C836.1 233.2 830.5 234.3 827.4 235.4C823.8 236.9 827.9 238.5 831.5 239.5C836.7 240.4 841.8 239.3 845.3 238.1C848.6 236.8 844.3 235.2 841.1 234.1ZM869.1 248.6C864.7 247.9 861.3 249.2 858.9 250.2C856.8 251.6 861.1 252.5 864.2 253.3C869.1 253.9 872 252.6 874.6 251.8C876.9 250.5 872.3 249.3 869.1 248.6ZM1060.6 211.5C1054.7 211.5 1045.4 211.8 1043.9 214.4C1043.5 216.2 1044.7 218.8 1052.7 219.3C1058.8 219.5 1067.5 218.9 1069.4 216.5C1069.6 214.7 1068.6 212.1 1060.6 211.5ZM897.7 263C894.4 262.3 890.8 263.1 889.4 264C887.3 265.1 889.7 266 892.9 266.6C896.2 267 899.6 266.4 901.6 265.5C903.5 264.5 901.1 263.6 897.7 263ZM747.2 252C743.9 251.6 740.4 252.2 738.8 253.2C737 254.2 739.3 255.2 742.9 255.8C746.2 256.4 749.6 255.7 751.3 254.7C753 253.7 750.9 252.7 747.2 252ZM817.2 223.7C818 222.2 817.7 220 810.6 219.3C805.5 219 798.6 219 795.9 221.1C795.5 222.7 795.8 224.9 801.9 225.6C807.8 225.8 814.5 225.8 817.2 223.7ZM733.6 213.9C727.7 212.7 722.2 214.1 718.3 215.3C715.5 216.8 719 218.6 723.2 219.9C729.1 220.9 735 219.8 738.5 218.7C741.5 216.9 737.6 215.1 733.6 213.9ZM793 243.2C788.7 242.4 785.2 243.7 783.1 244.7C781.1 246.1 785.1 247 788.9 247.9C793.3 248.5 796.3 247.4 798.7 246.3C800.4 245 796.5 244 793 243.2ZM765 228.6C760.9 228.1 754.4 228.1 751.7 229.5C749.8 230.7 750.5 232.7 754.8 233.5C758.9 234.1 765.2 234.1 768.4 232.7C770.1 231.6 769.5 229.5 765 228.6ZM775.7 266.4C772.9 266.1 771.6 266.9 770.1 267.5C769.5 268.3 772.2 268.6 773.8 269C777 269.3 778.1 268.5 779.6 268.1C780 267.2 777.7 266.9 775.7 266.4ZM888.5 224.8C882.6 224.5 875.9 224.7 873.3 226.6C872.3 228.2 872.7 230.2 879.3 231C884.9 231.4 891.4 231.3 894.4 229.3C895.1 227.7 894.6 225.6 888.5 224.8ZM1011.5 220.8C1005.4 220.5 998 221.5 996.3 223.7C995.3 225.4 998.1 227.7 1005.1 228C1011 228.4 1018.3 227.4 1020.1 225.3C1021 223.5 1018 221.2 1011.5 220.8ZM994.6 283.2C992.9 283.9 995.1 284.1 996.6 284.6C998.8 285.2 1000.1 284.2 1001.4 283.8L996.7 282.6L994.6 283.2ZM1021.3 259.6C1017.8 259.1 1014.3 259.2 1010.7 260C1009 261.2 1008.8 262.3 1011.4 263.2C1015.5 263.7 1019.7 263.8 1022.5 262.9C1023.7 261.6 1024.4 260.6 1021.3 259.6ZM1031.6 196C1024.4 195.5 1015.7 197 1013.4 199.4C1012.4 201.8 1016.6 204.2 1024.2 204.9C1031.4 205.2 1039.6 203.7 1042.2 201.4C1043.9 199.1 1039.6 196.5 1031.6 196ZM1046 273.6C1043.2 273.2 1040.4 273.7 1038.4 274.3C1036.9 275.2 1038.8 276 1040.6 276.4C1043.2 276.8 1045.8 276.5 1047.7 275.7C1049.5 274.9 1047.8 274.2 1046 273.6ZM1039.9 235.8C1034.5 235.4 1029 235.9 1026.2 237.6C1025.2 239.2 1026.3 240.8 1031.7 241.6C1036.8 241.9 1042.4 241.4 1045.2 239.9C1046.9 238.2 1045.3 236.6 1039.9 235.8ZM992.8 244.9C987.6 244.3 983.1 245.3 980.7 246.7C978.2 248.2 981.9 249.3 985.8 250.2C991 250.8 995.1 249.8 997.9 248.4C1000.3 247.2 996.6 245.8 992.8 244.9ZM936.6 215.5C930.7 214.7 923 215.3 920.2 217.4C917.2 219.2 919.4 221.6 925.7 222.4C931.8 223.4 939.8 222.6 942.8 220.6C945.4 218.9 942.8 216.5 936.6 215.5ZM714.9 237.5C710.8 237.3 707.3 238.1 705 239.2C704.8 240.4 707.4 241.6 711.3 242.3C715.8 242.5 718.8 241.8 721.2 240.7C721.9 239.2 719.2 238.2 714.9 237.5ZM923.9 277.3L920 278.6C920.9 280 925.8 280 928.2 279C928.8 278.4 927.3 277.1 923.9 277.3ZM918.3 239.8C914.1 239.2 907.6 239.3 904.4 240.4C902.7 241.7 903.2 243.7 907.3 244.5C911.4 245.2 917.9 245.1 921.1 243.8C922.8 242.6 922.4 240.6 918.3 239.8ZM47.4 94.5C42.6 94 42.8 95.6 40.3 96.5C39.9 97.8 45.7 98.2 47.7 99.1C52.6 99.7 52.3 97.9 55 97.2C55.8 95.8 50 95.3 47.4 94.5ZM971.1 268.1C967 267.7 966.3 269.1 964.1 269.6C962.4 270.8 967 271.1 969 271.8C972.9 272.1 973.7 270.7 976.1 270.2C977.8 269.1 972.6 268.7 971.1 268.1ZM965.4 230.5C960 229.6 953.9 230.7 950.3 231.8C947 233.5 950.5 235.4 954.1 236.5C960 237.4 965.6 236.4 969.3 235.1C972.7 233.4 969.3 231.8 965.4 230.5ZM21.8 -110C31.5 -109.3 40.9 -111.1 41.6 -114.9C41 -118.7 33.8 -122.6 23.8 -124C13.9 -124.5 4.90004 -122.8 3.60004 -118.7C4.60004 -115.2 11.6 -111.2 21.8 -110ZM8.5 -153.8C10.1 -151 16.5 -148.5 23.7 -147.6C33 -146.2 41.4 -147.7 45.6 -150.4C47 -153.2 45.7 -155.7 42 -158.5C35.7 -162.3 24.3 -162.9 16.2 -162.3C7.90001 -161.6 4.5 -157.2 8.5 -153.8ZM9 46.8C4.5 46.1 1.90004 47 0.100037 48.1V50.9C1.80004 51.7 4.60002 52.3 7.40002 52.9C12.8 53.8 15.6 52.2 17.6 50.8C18.7 49.1 13.9 47.8 9 46.8ZM15.3 -17.2C8.50005 -17.7 3.10004 -16.6 0.100037 -14.6V-12.1C1.80004 -10.3 6.00004 -8.8 11.6 -7.7C18.7 -7 24.8 -8.2 27.1 -10.8C27.5 -13.2 22.4 -15.6 15.3 -17.2ZM14.1 15.9C8.20004 14.8 3.10004 15.8 0.100037 17V20.5C1.90004 21.5 4.6 22.4 7 23.2C13.8 24.5 18.7 23 22 21.5C24.6 19.5 18.6 17.1 14.1 15.9ZM4.20001 76.3C2.10001 76.1 0.900037 76.3 0.100037 76.7V80C1.70004 80.4 3.6 80.7 5 81.1C9.3 81.7 9.60001 79.8 11.7 79.1C12.3 77.8 6.40001 77.2 4.20001 76.3ZM20.1 -50.9C11.2 -51.8 4.7 -50.7 2 -47.8C1.6 -44.6 6.10001 -41.9 15.2 -40.2C23.8 -39.4 30.4 -40.7 33.1 -43.4C33.5 -46.5 28.1 -49.3 20.1 -50.9ZM2.60004 105.7C1.80004 105.6 0.8 105.7 0 105.8V107.7C0.4 107.8 0.8 107.9 1.5 108.1C7.1 108.5 6.90004 106.3 2.60004 105.7ZM23.6 -86.2C13.8 -87.8 5.7 -86 3 -82.9C0.6 -79.5 7.50004 -76.2 17.1 -74.3C26.3 -72.9 33.9 -74.9 37.1 -78C39.3 -81.2 32.3 -84.6 23.6 -86.2ZM1347.4 -134.5C1345.6 -131.8 1341.9 -129.1 1341.2 -126.8C1343.4 -127 1345.5 -126.9 1347.4 -126.9V-77.4C1346.4 -77.6 1345.4 -77.7 1344.3 -77.9C1344.2 -74.2 1341.1 -70.8 1335.8 -67.4C1338.8 -67.4 1343 -67.3 1347.4 -67.1V-42.3C1334.6 -40.7 1322.6 -41.6 1312.7 -43.9C1314.6 -39.3 1309.8 -35.5 1302.1 -32.3C1312.2 -33.4 1328.8 -31.5 1335.1 -28.7L1333.7 -33.6C1335.6 -36.6 1340.6 -40 1347.5 -42.2V-23.4C1346.1 -23.7 1344.7 -24 1343.4 -24.3C1342.2 -24.7 1343.1 -25.5 1341.3 -25.8L1338.9 -25.9C1341.4 -21.6 1339.9 -17.1 1331 -13.4C1322.1 -10.6 1311.1 -8.2 1298.5 -9L1280.5 -12.4C1283 -8.09999 1280.5 -4.1 1272.7 -0.800003C1264.3 2 1253.2 4.5 1240.5 3.7C1233 2.8 1225 0.799994 1219.4 -1.10001C1223.5 1.99999 1224.2 5.5 1221.3 8.8C1214.9 12.5 1205.7 16.1 1193.9 16.5C1181.5 17 1172.8 14.3 1163.8 12.1C1166.4 14.6 1166.8 18.4 1164.4 20.9C1157.8 24.3 1149.1 28.3 1136.3 28.1C1123.9 29 1114.3 25.8 1107.3 22.7C1104.5 20.4 1104.1 16.8 1106.1 14.3C1108.6 11.9 1115.7 10.5 1118.2 8C1109.1 9.8 1098.6 10.1 1089.3 9.09999C1084.5 8.69999 1082.1 6.6 1077.3 6.5C1080.6 9.7 1078.1 13.2 1074.4 15.8C1067.6 19.1 1059.9 21.1 1050.1 21.8C1037.2 22.4 1027.9 19.5 1018.6 17.1C1024.1 20.8 1023.1 26 1015 29.4C1007.6 32.3 996.7 33.7 986.2 33.1C978.1 32.1 967.5 30.6 964.9 27.3C959.9 23.3 961.4 18.9 970.3 15.5C971.2 15.1 974 14.7 972.8 13.7C964.4 15.1 953.9 14.8 945.7 14C935.6 12.5 929.7 9.2 927.5 5.5C925.2 0.9 933.5 -3.30001 941.1 -6.40001C932.2 -4.80001 921.6 -4.40001 911.9 -5.60001C906.5 -6.10001 903.2 -8.39999 897.8 -8.89999C902.4 -5.69999 899.8 -2.20001 897.3 0.599991C891.3 4.19999 882.7 6.29999 872.7 6.89999C860.3 7.09999 848.6 4.69999 841 0.899994C838 -2.20001 835.1 -5.99999 839.8 -9.39999C842.3 -10.7 846.6 -11.9 847.4 -13.2C835.7 -12.2 823.1 -12.3 814.1 -15C805.4 -18.2 798.9 -21.8 801.3 -26.7C803.1 -29 804.8 -31.8 811.5 -32.7L811 -33.2C795.5 -31.3 779.5 -34.5 768.8 -38.4C773 -34.9 773.7 -31.7 771.9 -28.3C767.7 -24.3 758.1 -21.9 747.7 -21C734.7 -20.3 723.3 -22.4 715.6 -26.5C711.2 -29.8 709.9 -33.1 711.8 -36.7C715.9 -40.6 725.6 -43.2 736.2 -44C748.6 -44.4 760.7 -42.1 769.2 -39C765.5 -41.9 762.6 -46.6 766.3 -49.5L778 -55.9C767.1 -53.7 751.2 -53.9 740.5 -57.2C735.5 -57.4 737.1 -59.9 732.2 -59.7C735.3 -56.8 738 -52.4 735 -49.6C730.3 -46.1 722.3 -42.8 711.7 -42.3C701.8 -41.6 692.8 -42.5 684.6 -44.9C675 -47.6 670.9 -51.6 672.6 -56.2C675.2 -59.2 679.4 -63.5 689.1 -64.5C696 -66 707 -66.1 714.4 -65.1L730.6 -60.6C724.1 -66 726 -72.2 735.6 -76.8C724.4 -75.3 712.2 -76 702.5 -78.6C694.4 -82 686.7 -86.2 688.8 -91.3C690.9 -94.7 696.9 -98.1 702 -100.2C693.3 -98.6 682.5 -97.9 673 -98.9C665.7 -99.8 659.8 -103 652.6 -103.9C657.9 -100.3 660 -96 656.6 -92.2C653.2 -88.1 642.8 -85.9 632.7 -84.9C621.2 -84.9 607.6 -86.1 600.1 -90.8C594.2 -94.2 592.8 -98.5 595.2 -102.4C598.6 -106.6 609 -108.9 619.1 -109.6C632.4 -109.6 645.9 -108 654.3 -104.1C649.3 -107.4 647.1 -111.8 649 -115.5C650.9 -118.3 659.2 -120.5 660.9 -123.2C653.8 -121.9 644.6 -121.2 636.1 -121.9C627.1 -122.6 616 -126 612.2 -129.5C607.2 -134.2 608.7 -139.1 614.5 -142.7C621.9 -147.2 634.6 -148.5 648.2 -147.7C657.4 -146.6 668.6 -143.1 672.4 -139.8C677.4 -135.1 675.9 -130.2 670.1 -126.5C667.9 -124.4 660.7 -124.7 662 -122.5C669.9 -124.3 681 -124.9 691.3 -123.4C697.8 -123 702.9 -119.8 709.5 -119.1C704.6 -123 703.9 -128.1 708.2 -131.7C710.5 -133 714.9 -134.3 714.8 -135.9C702 -135.2 689.6 -135.5 680 -139C669.7 -142.1 665.5 -147 666.8 -152.2C669.1 -155.6 674.8 -159.6 680.9 -162.3C671.2 -159.4 656.8 -159.2 645.5 -161C634.8 -164 627.3 -168 624.5 -172.4C623.6 -175.1 624.7 -177.7 627.2 -180H688.3C690.5 -178.5 692.2 -176.8 693.4 -175.1C696.4 -169.8 687.7 -165.7 681.3 -161.6C694.3 -164.7 711.6 -163.3 724.2 -160C719.9 -165.7 724.5 -170.7 730.8 -175.2C718.2 -174.2 706.5 -174.7 697.6 -178.2C696 -178.8 694.5 -179.4 693.1 -180H749.7C749.1 -179.7 748.5 -179.4 747.8 -179C760.5 -180.3 771.3 -179.1 781.8 -176.5C781 -177.6 780.5 -178.8 780.4 -179.9H857.9C857.6 -176.9 855.5 -173.6 852.5 -170.9C860 -169.8 870.6 -171.2 878.2 -169C875.9 -172.7 878.5 -175.8 883.1 -178.5C877.3 -179 871.5 -179.1 866.2 -179.8H1021.4L1020.9 -178.8C1025.7 -179.1 1029.3 -178.3 1034.1 -178.2C1034.6 -178.7 1035.2 -179.2 1035.8 -179.7H1281.4L1278.9 -175.9C1285.2 -174.8 1293.1 -175.2 1298.5 -173.3C1298.2 -175.6 1300.8 -177.6 1303.4 -179.7H1347.9V-134.5H1347.4ZM1310.9 -151.4L1332.1 -148.7C1331.4 -152.1 1335.7 -155.2 1339.9 -158.3C1332 -158.5 1322.3 -157.9 1317.4 -159.3C1316.7 -156.4 1314.6 -154 1310.9 -151.4ZM1278.7 -112.8C1286.6 -112.6 1293.1 -111.5 1300.1 -110.7C1297.9 -113.8 1303.4 -116.3 1306.1 -119.2C1298.2 -119 1291.3 -119.8 1284.2 -120.5C1286 -117.3 1283.1 -114.9 1278.7 -112.8ZM1249.7 -136.4L1266.6 -134.3L1271.5 -141.8L1255.1 -143.2C1253.3 -140.8 1254.4 -138.1 1249.7 -136.4ZM1248.8 -75.2C1256.9 -75.8 1264.2 -74.5 1270.3 -73.1C1270.7 -76 1272 -79.1 1276.9 -81.8C1268.9 -82.2 1260.3 -83 1253.9 -84.1C1255.4 -80.7 1248.8 -78 1248.8 -75.2ZM1223.5 -104.3L1219.2 -97.8L1238.6 -96.5C1237 -99.1 1240.2 -101.4 1243.3 -103.7C1236.4 -103.4 1229.6 -104.7 1223.5 -104.3ZM1217.3 -160.9L1232.6 -158.8C1234.2 -160.9 1236.2 -163.1 1238.4 -165.3L1221.6 -166.6C1220.7 -164.7 1219.8 -162.6 1217.3 -160.9ZM1191.6 -121.5L1202.9 -120.4L1206.6 -125.9L1193.8 -126.5L1191.6 -121.5ZM1185.7 -61.2C1194.5 -61.5 1202.4 -60.8 1209.1 -59.5C1209.3 -62.7 1211.7 -66 1214.8 -68.2C1207.4 -68 1200.1 -68.6 1193.9 -69.5C1191.7 -66.8 1192.2 -63.3 1185.7 -61.2ZM1165.1 -36.4C1164.5 -32.7 1160.4 -29.3 1156.4 -26.5C1167.5 -27.4 1176.6 -25.6 1184.4 -24.1C1182.2 -28.1 1186.3 -31.6 1190.9 -34.6C1180.9 -33.7 1172.7 -35 1165.1 -36.4ZM1160.3 -145.7C1168.2 -143.3 1170.9 -147.8 1170.5 -149.7L1160.6 -150L1160.3 -145.7ZM1158.8 -84.1L1176 -82.4L1180.3 -89.6L1164 -90L1158.8 -84.1ZM1157.7 -54.8C1148.5 -54.7 1140.5 -55.5 1132.8 -57C1135 -53.4 1127.6 -49.5 1127.5 -47.9C1136 -48 1145.5 -47.1 1151.3 -46.3C1151 -49.4 1154.6 -52.5 1157.7 -54.8ZM1142.2 -111L1130.2 -111.6L1127.9 -107.2C1132.3 -107.3 1136.6 -105.7 1140.7 -106.5L1142.2 -111ZM1122 -170.4C1130.8 -167.9 1137.5 -170.9 1135.3 -174.2L1123.5 -175.5L1122 -170.4ZM1096.1 -130.8C1098.8 -129.9 1102.9 -129.8 1104.9 -130L1106.6 -133.1L1098.9 -133.7C1095.9 -133 1097.1 -131.7 1096.1 -130.8ZM1102.5 -76.9L1097.6 -69.6L1116.5 -68.3L1120 -75.1L1102.5 -76.9ZM1058.7 -154.7C1062.2 -154.4 1064.3 -154.3 1067.5 -153.9C1070.2 -155.1 1069.6 -156.7 1071.1 -158.1L1062.3 -158.9C1059.7 -157.6 1059.6 -156.3 1058.7 -154.7ZM1070.9 -97.6C1068.1 -96 1068.3 -93.9 1066.1 -92.2L1081.5 -90.6L1084.4 -96.6C1079.7 -97.1 1074.7 -96.7 1070.9 -97.6ZM1061.5 -61.5L1041.2 -63.1C1042.1 -60 1039.2 -57.9 1035 -55.2C1043.5 -55.5 1051.9 -54.8 1057.8 -54.1C1055.4 -57 1060.3 -59 1061.5 -61.5ZM1043 -29.2C1032.6 -28.5 1023.9 -29.4 1016 -31.3C1015.8 -27.4 1014.8 -24 1008.1 -21.6C1015.6 -21.2 1029.4 -20.7 1037.2 -18.7C1035.1 -22.2 1037.5 -26 1043 -29.2ZM1008.4 -49.8C997.6 -48.9 989.8 -50.2 981.7 -51.8C982.4 -48.3 980 -44.9 973.8 -42.3C984.7 -42.9 993.5 -41.5 1002.4 -39.8C1000.6 -43.6 1004.3 -46.8 1008.4 -49.8ZM1032.9 -115.4L1044.6 -114.8L1044.7 -119.2L1035.6 -119.7C1034.6 -118.1 1031.2 -116.6 1032.9 -115.4ZM1008.8 -85L1003.3 -77.8C1010.1 -77.9 1016.7 -77.2 1022.1 -76.2L1026.1 -83.4C1020.2 -83.2 1014 -83.9 1008.8 -85ZM995.8 -139.4L1007.9 -138.1L1010.8 -143C1007 -143.7 1003 -144.5 997.7 -144.4C998.9 -142.4 995.9 -141.1 995.8 -139.4ZM990.8 -105.2L972.7 -107.5L967.5 -100.4L987.1 -98.8C986.1 -101.2 988.1 -103.2 990.8 -105.2ZM969.4 -70L947.6 -71.7C948.5 -68.6 945 -66.3 941.5 -63.7C950.9 -64.3 959.4 -62.6 966.7 -61.8C965 -64.8 966.5 -67.5 969.4 -70ZM955.8 -162.4L973.1 -161.8L976.9 -167.9C971.6 -169.4 965.4 -169.3 959.5 -170.1C960.4 -167.4 957.1 -164.9 955.8 -162.4ZM932.1 -123.1C939 -123.9 945.1 -122 949.8 -122.3L953.4 -128.1C948.5 -129.4 942.1 -129.5 936.4 -130.2L932.1 -123.1ZM932.4 -92.4C925.8 -92.4 918.8 -92.9 913 -93.9L908 -85.5C915.6 -85.4 923.1 -85 929.5 -83.9C927.6 -87.2 933.7 -89.9 932.4 -92.4ZM894.2 -147.1L912.5 -145.3C914.9 -148.1 915.5 -150.7 919 -153.5C912 -153.2 904.6 -153.8 898.8 -155.1C899.4 -152.1 895.7 -149.7 894.2 -147.1ZM870.3 -107.8C878.7 -108.7 885.8 -107.5 892.8 -106.8C890 -109.9 895.2 -112.3 896.7 -115C889.2 -115.5 881.3 -115.9 874.4 -117.5C876.1 -113.9 871.8 -110.4 870.3 -107.8ZM878.3 -79C868.9 -79.3 859.1 -79.5 851.9 -82.1C852.9 -78.2 850.7 -74.7 846.3 -71.6C855.1 -71.8 865.6 -71.2 874.4 -69.3C871.3 -72.8 874.8 -76 878.3 -79ZM832.1 -131.1C840.8 -131.5 849.8 -130.6 856.2 -129.7L861.1 -138.9C851.1 -138 842.6 -141.1 835.5 -141.8C839.4 -137.4 833.1 -134.4 832.1 -131.1ZM841.7 -102.1C831.4 -101.9 821.1 -102.7 813.1 -105.4C816.7 -100.7 811.9 -96.8 806.4 -93.3C814.4 -93.9 828.9 -93 838.2 -90.5C835.1 -95.1 839 -98.7 841.7 -102.1ZM788.2 -154.2C799.9 -155.5 810.9 -153.6 819.9 -152.5C818.4 -156.6 820.7 -160.4 825.9 -163.5C815.5 -163 804.3 -164.3 794.9 -166.5C798.8 -161.8 793.7 -158 788.2 -154.2ZM769.1 -116.2C781.6 -117.3 790.9 -115.2 800.2 -113.5C798.1 -117.7 798.7 -121.3 803.8 -124.6C796.4 -124.5 784.4 -125.3 776.1 -128.2C776.7 -123.7 773.6 -119.3 769.1 -116.2ZM727.9 -138.8C739.9 -140.8 752.7 -139.1 761.8 -136.9C757.7 -141.9 764.5 -146 768.1 -149.5C755.6 -148.4 746 -150.3 736.3 -152C737.5 -148.5 737.1 -142.5 727.9 -138.8ZM748.4 -111.1C738.6 -111.4 722.5 -111.4 712.5 -116.3L716.4 -111.3C716.8 -107 709.7 -102.5 704.3 -100.7C717 -102.4 732.9 -102.6 743.6 -98.5C740.4 -103.4 742.6 -107.3 748.4 -111.1ZM782.1 -76.2C780.3 -80.4 778.7 -85.7 788.5 -89.1C776.1 -87.9 765.6 -89.4 755.6 -91.5C761.4 -86.4 752.3 -81.5 747.9 -79.1C760.7 -79.9 772.9 -79.9 782.1 -76.2ZM820.9 -54C814.3 -57.8 819.9 -62.2 823.5 -65.9C815.4 -66.4 801.1 -65.9 792.7 -69.7L794.2 -65.5C795.1 -61.7 785.9 -57 780.6 -55.9C793.8 -58 810.1 -57.8 820.9 -54ZM857.6 -31.9C853.8 -36.7 852.8 -41.9 864.5 -45.4C852.5 -45.1 835.9 -46.1 829.6 -48.6C833.3 -43.5 829.8 -39.1 821.2 -35.6L834.9 -36.3C843.6 -35.9 852.5 -34.4 857.6 -31.9ZM898.9 -24.7C885.4 -23.8 872.8 -24.3 863.6 -28.6L865.1 -25.8C870.2 -21.5 858.1 -16.7 857.3 -15.7C869.6 -16.4 883.2 -16.1 892.9 -12.1C886.6 -16.5 891.3 -21.1 898.9 -24.7ZM914.4 -57.6C905.2 -57.2 896.2 -58.3 888.7 -60.1C889.7 -56.1 886.9 -52.6 879.9 -49.4C891.2 -50.3 901.3 -49.2 910.2 -47.5C908.1 -51 910 -55 914.4 -57.6ZM947.8 -25.2C944 -29.4 946.1 -33.5 953.1 -37C943.1 -36.8 931.3 -37.2 923.5 -39.1C924.1 -35.2 922.8 -31.1 915.8 -28.4C926.9 -29.5 939.2 -28.4 947.8 -25.2ZM983.1 -3.90001C978.2 -8.10001 980.3 -13 987.9 -16.7C978.9 -16.3 965.1 -16.7 956.6 -20L957.9 -16.5C956.4 -12.6 951.7 -8.2 941.8 -6C947.2 -7 952.5 -8.00001 959.6 -7.90001C968.2 -7.70001 977.9 -6.10001 983.1 -3.90001ZM1014.9 11.4C1014.8 7.69999 1022.3 3.5 1027.8 1.8C1013.9 4.1 999 2.9 988.2 -1.2L991.2 4C990.4 7.6 984 10.8 978.5 12.9L994.3 11.8C1004.4 11.7 1013.7 14.2 1018.9 17L1014.9 11.4ZM1077.8 -9.3C1068.2 -9 1056.8 -9.2 1048.7 -11.5C1048.5 -7.7 1045.2 -1.90001 1032.1 0.899994C1044.8 -1.60001 1061.1 -0.999997 1070.9 2.3C1066.3 -1.4 1070.8 -5.7 1077.8 -9.3ZM1094.4 -31.4C1091.8 -34.8 1096.5 -38.8 1098.1 -41.7C1089 -40.6 1080.9 -42.6 1073.9 -43.1C1074.4 -39.8 1072.1 -36.9 1067.1 -34.4C1077.6 -34.5 1086.6 -33.9 1094.4 -31.4ZM1128 -9.8C1124.6 -14.2 1127 -18.3 1134.6 -21.9C1124.6 -20.7 1111.3 -23.1 1105.5 -24.2C1106 -20.1 1103.8 -16.3 1095.7 -13.2C1107.9 -14.4 1119.2 -13 1128 -9.8ZM1173 -3.5C1158.7 -0.8 1144.3 -3.1 1134.1 -5.7C1134.4 -4.3 1136.9 -3.30001 1135.9 -1.90001C1134.8 2.19999 1130.2 5.9 1120.6 7.8C1135.6 5.5 1151.6 6.79999 1162.2 10.9L1159.3 6.2C1160 2.4 1164.3 -0.6 1173 -3.5ZM1225.4 -15.1C1212.6 -13.7 1203.2 -15.4 1193.9 -17.3C1194.4 -12.5 1191.7 -8.30001 1180.2 -5.10001L1192.9 -6.10001C1204 -6.00001 1212.3 -4.2 1220.2 -1.2L1217.7 -2.8C1214.3 -6.9 1217 -11.5 1225.4 -15.1ZM1243.9 -36.9C1242.8 -40.9 1244.5 -44.5 1251.5 -47.9C1240.9 -47.3 1231.5 -47.6 1223.9 -49.2C1224.4 -45.6 1220.7 -42.2 1217.3 -39.5C1227.4 -40 1236.9 -39.1 1243.9 -36.9ZM1284.1 -28.2C1271.6 -27.1 1261.6 -28.4 1252.5 -30.7C1254.1 -26.4 1250.6 -22.8 1244 -19.4C1253.8 -19.6 1267.5 -19.2 1275.6 -15.8C1271.6 -20.4 1277.3 -24.6 1284.1 -28.2ZM1310.3 -61.7C1299.8 -61.3 1290.7 -62.1 1282.9 -63.8C1282.3 -59.9 1280.8 -56.1 1273.5 -53.2C1285.5 -54.3 1294.2 -52.5 1302.2 -51.1C1300.4 -55.2 1305.8 -58.9 1310.3 -61.7ZM1340.4 -97.6L1328.5 -97.4C1309.5 -104.4 1319.6 -91.7 1308.8 -89.5C1318 -90.3 1324.6 -88.1 1332.7 -87.2C1331.8 -91 1336.2 -94.6 1340.4 -97.6ZM44.1 122.8C42.3 123 40.3 122.7 39.9 123.6C40.1 124 40.6 124.8 43 125.1C48 125.7 48 123.4 44.1 122.8Z" fill="url(#paint0_linear_394_6467)" fill-opacity="0.3"/>
</g>
<defs>
<linearGradient id="paint0_linear_394_6467" x1="0.0521" y1="52.5189" x2="1347.39" y2="52.5189" gradientUnits="userSpaceOnUse">
<stop stop-color="#D617FF"/>
<stop offset="1" stop-color="#410263"/>
</linearGradient>
<clipPath id="clip0_394_6467">
<rect width="1348" height="285" fill="white"/>
</clipPath>
</defs>
</svg>
