<svg width="1348" height="285" viewBox="0 0 1348 285" fill="none" xmlns="http://www.w3.org/2000/svg">
<g clip-path="url(#clip0_393_6451)">
<path d="M893.4 128.387C890.7 130.587 883.4 131.087 876.8 130.287C869.9 129.187 866.1 126.587 868.8 124.787C871.3 122.587 879 121.787 885.4 122.887C892.3 123.887 895.4 126.387 893.4 128.387ZM910 164.387C900.9 163.487 893.7 165.287 890.2 167.587C888.3 170.687 895.5 173.387 902.5 174.487C911.8 175.587 919.4 173.787 922.9 171.487C924.4 168.387 917.5 165.687 910 164.387ZM830.2 140.987C838.4 141.787 845.8 139.987 847.7 137.887C849.6 135.187 843.3 132.687 836.6 131.887C827.6 130.787 820.8 132.587 818.1 134.687C816.7 137.387 822.5 139.887 830.2 140.987ZM847.4 106.987C840.1 106.187 835.7 107.787 832.1 109.487C830.1 111.387 835.7 113.087 841.5 114.387C848.2 115.187 853.1 113.687 856.4 111.887C858.1 109.887 853.1 108.387 847.4 106.987ZM852.9 151.487C851.5 154.187 857.9 156.787 865.9 157.587C874.8 158.387 882.6 156.487 884.2 154.187C885.5 151.287 878.7 148.587 870.7 147.787C862.3 147.087 855 148.887 852.9 151.487ZM965 202.987C963.1 206.387 970.6 209.187 979.9 210.487C989.9 211.387 997.6 209.187 999.8 206.387C1001.7 203.187 994 200.287 984.9 199.087C974.8 197.987 967.1 200.287 965 202.987ZM987.8 181.187C995.8 182.487 1003 181.087 1006.1 178.687C1008.5 175.987 1003.2 173.387 995.3 171.887C987.2 170.787 980.1 172.187 976.4 174.687C974.3 177.387 979.8 179.887 987.8 181.187ZM914.7 215.687C917.6 217.887 919.8 220.587 928.2 221.287C933.4 222.087 941.2 221.987 945.4 220.987C952.6 219.987 952 216.987 952.1 214.787C949.3 212.687 946.8 209.687 938.6 209.187C925.3 207.687 912 210.987 914.7 215.687ZM926.1 185.087C926.7 187.987 930.9 191.287 940.7 192.487C948.9 192.587 959.1 191.587 960.8 188.387C960.4 185.587 955.9 182.387 946.2 181.287C938 181.187 928 181.987 926.1 185.087ZM719.1 109.187C711.5 108.487 703.2 109.687 701.8 112.287C700.3 114.687 703.9 117.587 712.2 118.287C720 118.887 728.6 117.987 730.4 115.087C732 112.787 728 110.087 719.1 109.187ZM719.3 154.687C716.6 157.887 725.3 160.687 734 161.887C744.4 162.987 752 160.487 755.1 157.787C757.7 154.387 748.9 151.687 740 150.487C729.8 149.287 722.2 151.987 719.3 154.687ZM1003.2 145.487C996.3 144.687 991.7 146.387 988.4 148.087C986.4 150.287 992.7 151.987 998.2 153.287C1005.9 154.187 1010.3 152.687 1013.3 150.887C1015.4 148.487 1009.5 147.087 1003.2 145.487ZM685 137.687C683.4 140.587 688.1 143.987 697.7 144.887C707.4 145.387 717.1 144.187 719.3 141.087C720.9 137.987 716.1 134.887 706.4 133.787C696.9 133.487 687.5 134.487 685 137.687ZM689.6 94.4871C683.5 93.2871 674.8 94.2871 670.7 96.0871C667.1 97.7871 670.5 100.587 676.5 101.987C683.4 103.287 691.6 102.287 695.4 100.587C699 98.5871 695.4 95.7871 689.6 94.4871ZM652.9 121.887C650.4 124.987 656.9 127.587 665.5 128.587C674.4 129.287 682.7 127.487 685.4 124.887C687.4 121.787 681 119.287 672.8 118.187C663.3 117.287 655.4 119.287 652.9 121.887ZM788.3 140.687C779 139.487 771.3 141.687 768.7 144.287C766.4 147.387 773.3 149.887 782.2 151.087C791.7 151.987 799.4 149.787 802 147.087C804.3 144.387 796.7 141.787 788.3 140.687ZM804.1 163.587C806.4 165.387 809.5 167.587 816.6 168.287C821 168.787 827.6 168.587 831 167.787C838.5 166.987 838.3 164.287 838.4 162.187C836.6 160.387 832.8 157.987 826.1 157.587C813.5 155.987 802.8 159.487 804.1 163.587ZM755.2 124.787C746.5 123.987 739.9 125.487 735.7 127.787C733.9 130.587 739 132.987 746.8 134.487C755.9 135.087 762.7 133.887 766.7 131.287C768.1 128.587 763 126.287 755.2 124.787ZM804.5 196.587C816.4 197.787 824.9 195.387 828 192.087C830.5 188.187 822 185.187 811.9 183.787C800.2 182.587 791.8 185.287 788.5 188.487C785.9 191.887 794.7 195.187 804.5 196.587ZM756.3 175.687C761.6 178.687 772 179.587 780.4 178.887C788.3 177.987 792 174.987 791.8 172.487C790 170.187 785.1 167.687 777.5 166.787C768.2 165.387 760.8 167.487 755 169.587C752.8 171.387 753.1 173.787 756.3 175.687ZM1186.8 441.487C1181.2 438.787 1174.8 434.787 1165.5 434.487C1153 433.787 1139.9 436.187 1140 441.687C1138.5 445.987 1147.6 449.087 1155.1 452.187C1162.9 453.487 1173.1 454.087 1179.2 452.287C1188.1 449.987 1190 445.787 1186.8 441.487ZM1230 464.487C1226.4 462.587 1221.5 460.987 1215.4 459.987C1204.9 459.387 1194.3 460.887 1190.1 464.487H1230ZM1246.1 394.387C1245.9 390.187 1237.6 385.887 1225.7 384.287C1214.2 383.587 1204.4 385.987 1202.6 390.187C1202.8 394.387 1211.5 398.387 1222.8 400.287C1234.6 400.987 1244.2 398.487 1246.1 394.387ZM1240.6 432.487C1240.8 427.887 1233.9 422.987 1221.5 421.287C1209.6 420.187 1197.8 422.187 1195.4 426.587C1195.2 431.187 1202.6 436.487 1214.8 438.087C1226.7 439.187 1238.7 437.387 1240.6 432.487ZM1163.3 214.987C1156.2 214.087 1148.4 214.687 1145.8 217.287C1144.1 219.387 1147.5 222.187 1155.1 223.487C1162.6 224.687 1171.3 223.787 1173.5 221.387C1175.1 219.287 1170.8 216.187 1163.3 214.987ZM1183.1 306.187C1192.5 307.987 1203.1 307.187 1207.1 304.187C1210.7 301.087 1206.5 297.087 1197.6 294.987C1188.2 293.187 1177.8 293.887 1172.9 296.987C1169.6 300.087 1174.2 303.787 1183.1 306.187ZM1198.7 263.487C1190.4 262.087 1183.3 263.587 1179.7 266.387C1177.3 269.187 1183.6 271.987 1192.5 273.687C1201.4 275.387 1208.1 273.687 1211.3 270.887C1214.1 267.987 1207.5 265.187 1198.7 263.487ZM642.8 153.987C648.1 155.087 654.6 155.887 661 154.987C669.4 153.987 672.9 150.687 671.9 147.887C668.1 145.787 663.7 143.287 656.1 143.187C647.7 142.387 641.7 144.087 636.6 146.187C631.1 148.587 636.2 152.187 642.8 153.987ZM1027.7 198.687C1036.8 199.887 1043.5 197.787 1046.1 195.487C1047.7 192.687 1040.8 189.987 1033 188.887C1023.7 187.787 1017 189.887 1014.6 192.087C1013.1 195.087 1020 197.587 1027.7 198.687ZM1081.9 179.787C1075.6 178.587 1067.3 179.387 1065.1 181.587C1062.9 183.687 1066.5 186.587 1074.3 187.787C1081 188.587 1089 187.887 1091.5 185.687C1093.3 183.487 1089.9 180.887 1081.9 179.787ZM1136.8 247.587C1135.8 250.687 1141 253.887 1150.3 254.787C1158.9 255.687 1168.2 254.587 1169.2 251.287C1170.2 248.387 1165 245.087 1155 244.187C1146.2 243.387 1137.3 244.487 1136.8 247.587ZM1044.6 239.987C1043.6 243.687 1053 246.287 1062 247.687C1073.2 248.587 1078.5 245.487 1081.3 242.787C1082.1 239.187 1072.7 236.787 1064.2 235.287C1053 234.387 1047 237.187 1044.6 239.987ZM1044.7 162.787C1038.4 161.987 1030.3 162.587 1027.5 164.387C1025.5 166.287 1028.2 168.787 1034.5 170.187C1041 171.087 1048.3 170.587 1052.2 168.787C1053.5 166.787 1050.1 164.187 1044.7 162.787ZM1019.6 228.987C1030.8 229.687 1036.6 227.087 1039.4 224.187C1040.7 220.787 1030.9 218.287 1022.6 216.787C1011.6 215.887 1006 218.787 1003 221.587C1001.9 225.087 1011.1 227.587 1019.6 228.987ZM1054.5 210.287C1053.6 212.987 1058.3 215.987 1068 216.987C1076.6 217.887 1085.3 216.587 1085.8 213.587C1087 210.887 1082.3 207.687 1073.1 206.787C1064.9 206.187 1055.8 207.287 1054.5 210.287ZM1122.6 197.387C1115.3 196.487 1107.7 197.087 1104.9 199.587C1103.3 201.687 1106.5 204.687 1114.5 205.887C1121.6 206.987 1129.5 205.987 1131.9 203.587C1134.1 201.487 1130 198.487 1122.6 197.387ZM1127.1 278.487C1125.5 282.187 1134.2 285.387 1143.6 286.687C1154.4 287.887 1161.7 285.387 1163.6 282.387C1165.8 278.587 1157.2 275.387 1147.7 274.287C1136.7 272.987 1129.4 275.387 1127.1 278.487ZM1085.3 258.787C1083.6 262.387 1091.6 265.487 1101.3 266.787C1112.3 268.087 1119.9 265.587 1122 262.387C1123.3 258.987 1115.3 255.987 1106.2 254.587C1095.1 253.187 1087.6 255.687 1085.3 258.787ZM1094.6 228.487C1094 231.487 1098.7 234.787 1108 235.687C1116.7 236.387 1125.5 234.987 1126.8 231.987C1127.4 229.187 1122.7 225.987 1113.4 225.087C1104.7 224.387 1095.6 225.487 1094.6 228.487ZM959.2 155.387C951.7 154.487 943.5 155.187 940.4 157.487C938.4 159.687 941.5 162.587 948.7 163.787C956.3 164.687 964.8 164.087 967.9 161.787C970.2 159.487 966.6 156.787 959.2 155.387ZM23.3 116.487C20.1 119.387 23.9 122.487 32.7 123.487C41.7 124.087 52.2 122.487 55.4 119.487C58.8 116.487 54.8 113.487 46 112.487C37 111.887 27.2 113.487 23.3 116.487ZM69.3 88.0871C61 87.7871 53.6 89.4871 50.5 91.6871C48.2 94.3871 52.5 96.4871 59.9 97.2871C68.5 97.5871 75.3 95.9871 78.9 93.4871C80.8 90.8871 76.4 88.9871 69.3 88.0871ZM229.6 98.7871C222.1 97.0871 211.4 98.5871 205.5 100.587C199.4 102.887 203.8 106.287 209.6 107.887C216.9 109.687 227.5 108.287 233.4 106.387C239.1 103.787 235.1 100.487 229.6 98.7871ZM97.9 102.887C89.4 101.987 80.4 103.387 75 105.987C71.4 108.787 75.4 111.487 83.6 112.987C91.7 113.887 100.4 112.187 105.6 109.587C109.4 106.887 104.9 104.287 97.9 102.887ZM19.1 97.8871C11.8 97.2871 5.2 98.4871 0.100002 100.387V105.787C1.6 106.387 3.6 106.887 5.9 107.287C14.2 108.087 21.7 106.487 26.9 104.087C30 101.287 26.2 99.2871 19.1 97.8871ZM196.9 83.6871C188.9 83.1871 181.2 84.8871 178.3 87.1871C175.5 89.5871 180.6 92.0871 188 92.8871C195.7 93.4871 203.7 91.6871 206.7 89.2871C209 86.7871 204 84.4871 196.9 83.6871ZM151.8 111.887C149.7 114.887 154.8 117.687 163.6 118.787C172.8 119.187 182.3 117.287 186.2 114.387C188.1 111.487 182.6 108.487 174 107.587C165.2 107.087 155.7 108.987 151.8 111.887ZM146.9 93.1871C138.9 93.0871 129 93.8871 126.2 96.7871C125.4 99.2871 127.2 102.187 135.8 102.887C144 103.187 153.8 102.187 156.5 99.2871C157.3 96.9871 155.5 94.0871 146.9 93.1871ZM100.4 121.687C98.4 124.887 100.4 128.287 110.5 129.187C119.9 129.587 131.1 128.587 134.5 125.287C137.2 122.187 134.5 118.787 124.4 117.787C114.7 117.387 104 118.387 100.4 121.687ZM638.7 102.587C631.3 102.387 623.2 103.687 620.5 106.287C620.1 108.687 624.5 111.287 632.4 112.087C640.2 112.387 648.3 110.887 650.6 108.687C651.4 106.087 647 103.487 638.7 102.587ZM521.3 125.487C518.2 128.587 526.7 131.087 535 132.487C545.3 133.387 553.2 130.887 556.6 128.287C559.3 124.987 551.5 122.487 543.1 121.187C532.3 120.187 525.1 122.687 521.3 125.487ZM529.5 82.1871C522.3 81.2871 515.2 82.5871 511.4 84.5871C508.2 86.8871 512.6 89.1871 519.8 90.4871C527 91.4871 534.3 90.1871 538.3 87.9871C541.1 85.6871 536.6 83.3871 529.5 82.1871ZM460.9 94.1871C458.6 96.8871 464.3 99.1871 470.7 100.387C479.4 100.987 487.3 99.3871 490.7 97.2871C493.2 94.4871 487.5 91.9871 481.3 90.9871C472.5 90.1871 464.7 92.0871 460.9 94.1871ZM540.7 99.7871C538.5 102.487 543.3 104.687 550.3 106.187C559.4 106.787 566 105.487 570.3 103.187C572.1 100.487 567.5 98.2871 559.9 96.8871C551.4 96.1871 544.9 97.4871 540.7 99.7871ZM497.6 67.6871C490.7 67.0871 484.6 68.1871 480.9 70.0871C479.5 72.1871 482.3 74.0871 488.9 75.2871C495.6 75.7871 501.9 74.8871 505.5 72.8871C507 70.7871 503.7 68.7871 497.6 67.6871ZM490.4 111.587C492 113.187 494.9 115.287 501.4 115.787C505.5 116.387 511.6 116.087 515.4 115.287C523 114.487 522.9 112.087 523.9 110.087C522.3 108.187 518.9 106.187 512.8 105.687C500.7 104.687 489.8 107.787 490.4 111.587ZM601.7 131.687C600.9 134.787 606.9 137.787 616.3 138.887C625.9 139.487 634.7 137.387 638.2 134.687C638.7 131.687 632.5 128.587 623.2 127.487C613.6 126.987 604.8 128.887 601.7 131.687ZM608.2 88.0871C600.6 87.6871 593.3 88.2871 589.9 90.6871C588.9 92.7871 590.9 95.1871 598.5 96.3871C605.9 96.9871 613.6 96.2871 616.4 94.0871C617.8 91.7871 615.6 89.3871 608.2 88.0871ZM571.8 115.387C568.9 118.087 574 120.787 582.5 122.287C591.1 123.387 599.3 121.787 603.8 119.187C606.9 116.487 601.7 113.987 593.2 112.287C584.6 111.287 576.2 112.787 571.8 115.387ZM576.6 73.5871C570.3 72.5871 563 73.4871 559.8 75.3871C557.3 77.0871 559.8 79.5871 566.4 80.4871C572.7 81.2871 579.9 80.6871 582.9 78.6871C585.3 76.8871 583.1 74.4871 576.6 73.5871ZM232.1 116.287C228.6 117.987 229 120.187 231.4 122.087C235 124.687 245.5 125.487 253.6 124.787C261.4 123.987 265.7 121.287 266.9 118.887C265.8 116.587 261.7 114.387 254.6 113.787C246.2 112.287 238 114.387 232.1 116.287ZM451.5 76.6871C444.1 75.6871 437.2 76.9871 433.3 79.1871C429.7 81.2871 434.1 83.5871 441.1 84.7871C448.4 85.6871 455.6 84.3871 459 82.3871C462.8 80.1871 458.5 77.8871 451.5 76.6871ZM309.8 123.187C305.8 126.787 313.3 129.487 322.3 130.987C333.2 131.787 341.9 129.487 346.1 126.387C349.7 122.887 342.2 120.287 333.2 118.987C322.5 117.787 313.6 120.387 309.8 123.187ZM275.2 88.9871C267.4 88.4871 257.8 89.5871 255 92.3871C254.2 94.7871 256.4 97.5871 265.2 98.3871C273.3 98.4871 282.9 97.6871 285.4 94.7871C286.2 92.5871 283.9 89.3871 275.2 88.9871ZM331.7 98.3871C329.3 101.487 337.1 103.487 344.1 104.687C354.1 105.387 360.3 102.787 364.4 100.487C366.9 97.2871 359 95.3871 351.8 94.3871C342 93.6871 335.7 96.0871 331.7 98.3871ZM302.9 103.587C294.2 103.287 284.8 104.787 281.5 107.687C279.4 110.487 284.5 113.487 293.7 114.387C302.8 114.887 312.2 112.987 316 110.187C317.1 107.387 311.8 104.587 302.9 103.587ZM372.9 70.9871C365.7 70.3871 358.1 71.0871 354.5 73.3871C353 75.4871 354.4 77.9871 362.1 78.9871C369.1 79.3871 376.9 78.8871 380.3 76.6871C381.9 74.2871 380.3 72.0871 372.9 70.9871ZM402.9 85.1871C394.6 84.3871 387.9 85.9871 383.4 88.2871C381.1 90.8871 385.3 92.9871 392.5 94.4871C401.2 94.9871 407.7 93.7871 412.7 91.4871C414.5 88.7871 410.3 86.5871 402.9 85.1871ZM410.7 105.687C412.2 107.287 414.8 109.587 421.5 109.887C425.6 110.487 431.9 110.387 435.8 109.687C442.7 108.587 442.7 106.287 443.9 104.187C442.3 102.587 439.6 100.787 433.1 99.9871C421.1 98.8871 410.8 102.087 410.7 105.687ZM360.9 113.987C357.5 116.887 365.3 119.487 373.5 120.587C383.6 121.687 391.3 119.187 395 116.587C398.5 113.187 390.8 110.887 382.1 109.687C372.5 108.687 364.5 111.087 360.9 113.987ZM914.8 267.387C900.9 265.987 891.5 269.487 887.5 273.187C884.7 278.187 895.4 281.787 907.3 283.787C921.4 285.387 930.6 281.687 934.6 277.887C937.3 273.187 926.1 269.587 914.8 267.387ZM671 245.287C678 248.087 687.4 250.887 697.9 250.187C707.6 250.187 712.7 247.587 717.5 245.087C718.9 242.787 719.9 239.687 715.9 237.487C709.4 234.587 699.6 231.887 688.6 232.587C679.7 232.787 674.3 235.087 668.7 237.487C668.2 239.987 666.9 242.987 671 245.287ZM955.6 287.587C942.1 286.487 931.4 289.387 927.6 293.587C926.7 298.187 935.4 302.587 948.1 304.387C961.8 305.387 972.5 302.487 976.2 298.387C977 293.587 967.9 289.587 955.6 287.587ZM1040.1 329.687C1030.5 328.687 1019 330.187 1013.7 333.487C1011.5 334.987 1012.1 336.887 1012 338.787C1013.8 342.387 1022.9 345.287 1031.8 346.587C1041.5 347.887 1052.3 346.887 1056.9 343.687C1058.9 341.887 1061.7 339.887 1059.8 337.387C1058.3 333.887 1049 330.987 1040.1 329.687ZM1012.7 312.687C1006.7 309.887 997 307.387 987.8 307.887C979.3 308.287 973.2 309.887 969 312.587C969 315.187 967.7 318.087 972.9 320.487C979.1 323.187 988.6 325.887 998.4 325.487C1006.6 325.087 1012.5 323.387 1016.5 320.587C1016.6 317.887 1018.1 315.087 1012.7 312.687ZM1104.2 361.987C1104.6 357.087 1094.8 352.787 1082.3 350.987C1069.1 349.987 1059.3 352.987 1056.2 357.287C1056.2 362.087 1065.8 366.287 1077.8 368.287C1090.6 369.187 1100.7 366.187 1104.2 361.987ZM836.7 291.487C842.8 294.087 848 295.687 855.7 296.987C866.4 297.987 874.2 295.987 880.7 293.987C884.2 291.087 887.4 287.787 881.9 284.487C876.5 282.087 871.4 280.687 863 279.087C852.1 278.387 842.7 279.587 836.9 282.687C833.4 285.287 833.2 288.587 836.7 291.487ZM749.1 222.087C735.4 220.987 724.7 223.487 720.3 227.587C717.8 232.087 726.2 236.287 739.3 238.087C752.8 239.287 763.5 236.587 768.1 232.487C770.2 227.987 761.3 223.687 749.1 222.087ZM922.5 305.487C917.5 302.187 910.4 300.187 900.9 299.187C890.1 298.287 881.4 300.287 876 302.887C874 305.087 871.4 308.087 875.8 311.187C880.8 314.387 888.3 316.487 897.6 317.487C908.7 318.487 916.7 316.687 922.3 313.787C924.6 311.387 926.9 308.487 922.5 305.487ZM805.3 245.887C800.4 242.987 793.6 241.087 784.8 240.087C774.8 239.287 766.6 240.887 761.5 243.087C759.1 245.687 754.5 248.387 759.5 251.287C764 254.287 770.9 256.287 780.4 257.187C790.2 257.887 798.4 256.387 803.7 254.087C806.1 251.387 810 248.787 805.3 245.887ZM842.6 264.487C836.9 261.987 831.8 260.687 824.1 259.287C813.5 258.487 803.6 259.787 798 262.787C794.5 265.187 793.7 268.487 797.4 271.587C803.1 273.787 808.2 275.187 815.9 276.887C826.3 277.687 834.2 275.887 840.7 273.787C844.2 271.187 847.2 267.787 842.6 264.487ZM875.2 248.387C861.7 247.087 852.3 250.587 848.2 254.187C845.4 258.887 856.1 262.387 867.9 264.487C881.6 265.887 891.1 262.587 894.8 258.887C897.4 254.087 886.7 250.487 875.2 248.387ZM822.2 459.087C826.4 461.387 831.8 463.187 837.7 464.387H866.8C871.4 463.187 875.3 461.487 878.3 459.387C882 455.287 880.5 451.187 874.9 446.987C867 442.987 854.6 440.587 842.9 440.287C832.6 440.887 824.1 443.187 818.6 446.987C815.3 450.887 817.1 455.287 822.2 459.087ZM912.5 450.287C923.1 449.987 928.4 446.687 934.1 443.587C936.4 440.387 934.4 435.987 929.6 432.887C921.8 428.787 909.5 426.287 896.8 426.687C886.7 426.887 881.3 430.087 875.5 433.187C873.4 436.187 874.9 440.887 879.5 443.787C888 448.187 900 450.887 912.5 450.287ZM837.4 420.287C845.2 424.587 857.5 427.187 869.8 426.287C879.6 425.187 888.3 422.987 890.9 418.987C894.1 416.187 891.7 410.787 886 408.487C877.9 404.287 866.1 401.387 853.5 402.587C845.6 403.687 837.5 404.787 833.1 408.287C830.2 411.687 830.5 417.187 837.4 420.287ZM850.1 382.287C857.8 386.087 869.7 388.787 881.5 388.287C891.2 388.187 897.2 385.187 902.4 382.187C904.5 379.287 903.3 375.187 898.7 372.287C890.6 368.187 878.8 365.887 866.5 366.387C856.8 366.487 851.6 369.487 845.6 372.387C843.7 375.087 845.1 379.387 850.1 382.287ZM1050.9 400.487C1057.2 403.787 1067.2 406.487 1077.4 405.987C1085.8 405.587 1092.5 403.687 1096.7 400.587C1096.1 397.987 1097.7 394.387 1091.6 391.987C1085.3 388.687 1075.1 385.987 1065.1 386.287C1056.7 386.887 1050.4 388.687 1046.6 391.687C1046.7 394.587 1044.8 397.787 1050.9 400.487ZM883.2 351.987C894.1 352.787 903.7 351.487 910.2 348.887C914 345.887 916.6 342.687 912.6 338.987C907.4 335.987 900.9 333.087 891.6 332.187C880.1 331.387 869.4 332.987 863 336.187C860.1 338.787 859.3 341.687 862.2 345.187C867.1 348.187 873.4 351.187 883.2 351.987ZM1004.1 346.187C997.8 342.587 987.5 340.987 977.4 341.087C969.8 341.987 962.7 343.187 958.9 345.987C957.4 348.687 956.7 352.387 962.1 355.387C968.8 358.687 979.1 360.587 989.2 360.287C996.9 359.587 1004.1 358.487 1007.3 355.587C1009.6 352.887 1009.9 348.987 1004.1 346.187ZM937.5 428.687C945.4 432.487 956.3 435.887 968.5 434.987C978.7 434.887 984.1 431.687 989.9 428.487C990.2 425.387 991 421.687 985.7 418.687C977.5 415.187 966.5 411.887 955.4 412.587C944.8 412.487 939.5 415.787 934 418.987C933 421.987 932.5 425.987 937.5 428.687ZM1003 375.787C1007.7 378.287 1013.6 382.087 1022.9 382.387C1033.2 383.687 1043.1 381.887 1048.3 379.087C1052.1 376.287 1052.1 373.187 1049.2 370.387C1044.7 367.787 1038.6 364.187 1029.5 363.787C1019.5 362.887 1007.8 363.987 1002.5 367.387C1000.9 369.687 999.9 373.087 1003 375.787ZM997.6 383.287C991.9 380.387 985.1 376.487 975.4 376.087C963.2 374.887 953.1 377.087 946.7 380.487C944.9 382.587 942.6 384.887 945.6 387.387C947.3 391.487 956.4 394.587 965.8 396.187C972.8 397.187 983.1 396.987 988.8 395.587C999.4 393.187 1001.5 388.287 997.6 383.287ZM714.5 204.187C703.9 202.987 693.5 204.587 687.6 207.587C684.8 208.787 685 210.287 685.3 212.087C686.6 215.187 692.6 217.987 701.8 219.287C708.7 219.487 715 219.387 720.7 218.587C727.6 217.187 733.2 214.487 731.4 211.287C730.3 208.287 723.6 205.387 714.5 204.187ZM528.3 250.087C535 253.487 545.6 255.387 556.6 255.087C567.9 255.187 575.5 251.887 579.7 248.787C581.3 246.587 580.1 243.087 577.2 240.987C570.3 237.787 559.7 235.687 548.5 236.187C539.8 236.487 532.5 238.187 527.5 241.187C523.9 243.287 524.6 247.287 528.3 250.087ZM579.6 274.187C589.9 275.287 602.8 274.087 609.6 271.387C614.4 268.587 618.8 265.687 615.2 261.687C611.9 258.387 604 256.187 594.9 254.787C583.1 253.587 571.5 255.287 563.9 257.987C560.6 260.987 556.2 263.687 559.1 267.187C562.4 270.687 570.3 272.887 579.6 274.187ZM523.2 235.987C530.7 234.687 539.8 233.687 542.4 230.387C545.4 228.487 546 225.287 542 223.387C538.4 220.387 532.6 219.187 524.9 217.787C506.4 215.887 491.7 221.487 490.9 227.087C491.1 229.687 495.3 231.487 499.5 233.387C506.5 235.387 514.8 236.087 523.2 235.987ZM647 262.687C654.3 261.487 663.8 260.387 666 257.087C668.6 254.987 669.1 251.587 665.2 249.587C661.3 246.587 654.4 245.387 646.6 243.887C628.2 241.787 613.6 247.487 613 253.587C613.3 256.087 617.6 257.987 622.5 260.187C629.6 262.087 637.7 262.887 647 262.687ZM439.4 242.887C445.8 245.487 455 248.587 465.5 248.487C476.7 248.187 484.2 245.787 491.2 242.587C493.5 239.887 494.3 236.487 490.3 233.887C484.2 231.087 474.7 228.287 464.3 228.687C453 228.787 445.5 231.187 439.2 234.287C436.5 236.887 435.4 240.187 439.4 242.887ZM729.2 317.987C736.2 321.587 748.1 324.087 760.4 322.787C769.4 322.187 777.7 319.687 780.5 316.387C783.3 313.687 781.5 309.387 776.6 307.087C769.4 303.487 757.8 301.087 745.7 302.087C738.8 303.087 731.1 303.987 727 306.987C723.4 310.187 722.9 314.687 729.2 317.987ZM768.3 338.487C775.7 342.287 787.4 344.687 799.9 343.687C809.1 342.887 817.4 340.587 820.1 336.987C823.5 334.187 821.2 329.787 816.1 327.287C808.7 323.587 797.2 321.287 784.8 322.287C777.9 323.387 770 324.387 765.9 327.487C762.3 330.787 762.3 335.587 768.3 338.487ZM408.1 224.787C413.8 228.287 425.4 229.087 436.2 228.887C445 228.087 453.6 226.187 457 223.187C460.1 220.687 458.7 216.987 454.8 214.987C449.2 211.887 438.6 210.287 428.6 210.787C420.6 211.387 414.1 212.587 408.3 214.887C404.4 217.787 402.3 221.887 408.1 224.787ZM653.8 276.887C660.4 280.987 672.5 281.587 683.4 281.587C692.2 280.987 700.7 279.087 703.6 275.687C706.6 273.187 705 268.887 700.1 266.687C694.2 263.287 682.9 261.887 672.3 262.187C664.7 262.787 657.7 264.187 652.4 266.487C649.4 269.587 647.3 273.887 653.8 276.887ZM691.5 297.487C698.9 300.787 710.1 303.287 722.1 302.187C730.5 301.387 739 299.287 742.2 295.787C744.6 293.387 743 289.287 738.3 287.087C731.1 283.487 720.1 281.187 707.8 282.187C700.7 282.887 693.4 283.887 689.2 286.787C685.5 289.787 685.6 294.287 691.5 297.487ZM664.5 214.687C658.2 213.887 649.4 214.187 643.5 215.087C635.3 216.987 630.8 220.487 633.2 223.887C633.8 226.987 641.3 229.287 649.9 230.687C655.6 231.387 665.1 231.187 670.2 229.987C678.8 228.087 683.5 224.987 681.1 221.287C680.1 218.287 672.1 215.787 664.5 214.687ZM607.1 183.387C602 180.687 592.8 179.187 583.4 179.387C576.5 180.087 570 180.687 566.1 183.287C563.8 185.387 562.9 188.287 566.7 190.587C572.1 193.387 581.5 194.887 590.8 194.687C597.5 194.087 604.4 192.987 608.3 190.787C610.2 188.587 611 185.287 607.1 183.387ZM440.7 170.487C435.1 168.087 426.6 165.787 417.4 166.187C409.1 166.287 403.4 168.187 398.4 170.387C395.9 172.487 394.7 175.187 398.5 177.387C403.9 179.487 411.8 182.087 421.4 181.687C429.9 181.387 435.4 179.587 440.7 177.187C443.5 175.187 444.3 172.387 440.7 170.487ZM544.3 190.087C538.4 189.187 529.7 189.687 523.9 190.687C515.7 192.387 511.3 195.487 513 198.987C513.6 201.987 521.1 204.387 529 205.487C534.7 206.087 543.8 205.987 549.7 204.987C558 203.087 562.4 199.987 560 196.687C559.9 193.387 552.1 191.187 544.3 190.087ZM603.1 224.787C592.3 224.787 585.5 226.787 580 229.687C577.9 232.087 577.1 235.487 581.2 238.187C587.6 240.787 596 243.487 605.8 243.187C616.6 243.187 623.7 241.187 629.1 238.087C631.3 235.587 632.2 232.287 627.7 229.687C621.7 227.087 612.7 224.587 603.1 224.787ZM644.1 202.187C639.6 199.487 633 197.687 624.9 196.787C615.5 196.087 607.8 197.387 602.1 199.787C599.6 202.187 595.2 204.687 599.3 207.587C603.1 210.087 609.7 211.987 618.6 212.887C627.8 213.487 635.9 211.987 641.9 209.787C644.1 207.387 648.5 204.887 644.1 202.187ZM546.1 218.387C550.1 220.887 555.5 223.387 564.3 224.087C574.3 224.487 583.7 223.087 590.5 221.187C594.6 218.587 597 215.987 594.4 212.787C590.3 210.387 584.3 207.887 576 207.087C565.1 206.387 555 207.687 548.4 210.487C545.5 212.687 543.6 215.387 546.1 218.387ZM429.1 194.787C434.2 197.087 442.4 199.687 452.4 199.387C461.1 199.087 468 197.387 473.3 194.587C475.7 192.387 477.5 189.387 472.9 187.087C467.3 184.687 459.2 182.487 449.6 182.787C441.1 183.087 434 184.787 428.7 187.487C426 189.587 425.1 192.487 429.1 194.787ZM476.6 156.487C463.5 155.187 454.5 158.387 449.2 161.587C445.5 165.887 454.7 169.087 464.7 170.687C477.7 171.787 487.6 168.887 492.3 165.487C496.1 161.087 486.4 157.987 476.6 156.487ZM480 200.187C473.1 200.987 466 201.887 461.3 204.587C458.4 207.387 456 210.987 462 213.487C467.6 216.587 477.7 217.787 487.9 217.787C496.4 216.887 504.9 214.987 508.3 211.987C510.5 209.787 509.9 206.587 505.9 204.187C500.6 201.187 490.7 199.887 480 200.187ZM508.6 172.787C495.7 171.787 484.8 174.387 479.5 178.287C476.5 182.487 484.3 186.287 496.3 187.987C509.3 189.087 520.4 186.687 525.4 182.587C528.5 178.387 520.2 174.587 508.6 172.787ZM809.6 360.687C816.6 364.587 827.8 366.087 839.3 365.987C849 365.087 859.2 363.287 861.6 359.187C863.5 355.887 861.5 352.587 856.9 349.387C850.3 345.687 839.8 344.287 829.3 344.287C820 344.087 813.9 346.387 807.8 348.687C803.8 351.987 801.5 356.987 809.6 360.687ZM139 190.687C144.3 191.087 153.5 190.987 159.1 189.787C167.8 187.987 173.7 184.787 172.3 181.487C172.4 178.687 165.5 176.387 158 175.287C152.5 174.587 143.5 174.887 138.1 175.887C128.9 177.787 123.6 180.987 124.9 184.287C124.7 187.287 131.1 189.487 139 190.687ZM116.7 190.187C111.3 187.787 103.1 185.287 92.6 185.887C84.5 186.187 78.2 188.087 72 190.387C69.4 192.587 67.6 195.687 70.6 197.887C75.9 200.587 84 202.987 94.7 202.087C103.2 201.787 109.9 199.787 114.9 197.487C118 195.587 120 192.287 116.7 190.187ZM196.9 226.887C202.9 227.587 212.9 227.387 219 226.287C228.7 224.087 234.5 220.587 233.8 216.987C234.3 213.187 225.8 210.687 217 209.187C210.8 208.587 201.5 208.887 194.9 209.987C185.4 212.087 179.5 215.587 180.7 219.187C179.6 222.987 188.1 225.587 196.9 226.887ZM120.9 203.187C111.1 203.187 105.1 205.687 99 208.187C95.8 210.587 95.5 213.787 98.7 216.187C103.5 219.087 113.5 221.087 124.2 220.587C134.2 220.187 140.2 217.687 145.8 215.287C149.2 212.987 149.5 209.787 146.5 207.287C141.2 204.387 131.3 202.687 120.9 203.187ZM87.2 173.187C83.1 170.587 74.7 169.187 65.5 169.587C58.1 170.287 52 171.087 47 173.587C43.8 175.687 42.2 178.687 44.9 180.587C49.2 183.387 58.6 184.687 67.2 184.587C74.2 183.887 81 182.987 85.7 180.587C88.3 178.387 90.6 175.287 87.2 173.187ZM15 207.887C16.4 210.987 23.4 212.587 30.9 213.887C40.3 214.287 49.7 213.287 56.9 211.187C63.1 208.987 65.7 206.187 64.6 202.987C63.1 199.887 56.2 198.387 48.5 196.987C37.9 196.387 28.6 198.087 21 200.287C17.8 202.587 13.1 204.887 15 207.887ZM8.5 214.187C6.4 212.587 3.9 210.987 0.100002 209.887V222.987C6.9 220.587 11.1 217.487 8.5 214.187ZM5.1 167.687C3.7 166.987 2 166.287 0.100002 165.687V175.687C1.2 175.287 2.2 174.887 3.2 174.487C6.6 172.387 8.3 169.787 5.1 167.687ZM34.2 184.187C29.3 181.887 21.7 179.587 12.3 180.087C7.8 180.287 3.8 180.987 0.200001 181.887V194.987C3.6 195.587 7.4 195.887 11.6 195.687C19.9 195.387 26.5 193.587 31.8 191.087C35.6 188.987 36.9 186.287 34.2 184.187ZM1202.7 336.387C1203.6 332.287 1196.6 328.187 1185.5 326.787C1174.3 325.787 1164.6 327.787 1162.6 331.487C1161.7 335.587 1168.9 339.787 1180 341.187C1191.4 342.287 1201.8 340.287 1202.7 336.387ZM862 224.087C860.1 227.987 867.7 231.787 878.8 233.387C890.9 234.387 901.1 232.187 904.1 228.687C905.8 224.687 898.2 220.887 887.4 219.387C875.2 218.287 864.6 220.287 862 224.087ZM1268.6 422.887C1280.1 424.387 1289.1 422.287 1292.8 418.487C1295 414.587 1286.6 410.287 1275.8 407.887C1264.9 406.387 1255.5 408.387 1251.8 412.387C1250.1 416.187 1257.5 420.387 1268.6 422.887ZM1246.6 451.587C1246 456.087 1253.7 460.787 1266.1 462.487C1278.1 463.787 1288.8 461.587 1290.2 456.987C1290.8 452.487 1283 447.587 1270.5 446.087C1258.5 444.787 1248.3 447.087 1246.6 451.587ZM1243.6 283.587C1234.6 282.987 1226.5 283.387 1224 286.387C1223.8 289.487 1227.3 292.487 1236.9 294.187C1245.1 294.787 1253.8 294.287 1256.1 291.087C1255.8 288.187 1252.9 284.987 1243.6 283.587ZM1268.9 384.187C1278.6 386.487 1289.6 385.387 1294.2 382.287C1297.5 378.987 1292.4 374.687 1283.2 372.187C1273.2 370.287 1262.6 371.287 1258.2 374.187C1254.4 377.387 1259.5 381.787 1268.9 384.187ZM1299 344.687C1298.9 340.987 1291 337.787 1281.4 336.687C1271 336.087 1264.2 337.987 1263 341.287C1263.4 345.287 1270.3 348.287 1280 349.587C1290.6 350.187 1297.8 347.987 1299 344.687ZM1155.2 366.287C1154.9 370.387 1161 375.487 1173.7 376.887C1185.6 377.787 1197.3 376.387 1199.2 371.687C1198.8 367.287 1193.7 362.587 1180.5 361.087C1169.1 360.487 1157 361.687 1155.2 366.287ZM1231.7 327.787C1242.3 328.687 1249.2 326.987 1252.7 323.687C1253.2 320.287 1246.6 317.087 1237.4 315.187C1226.9 314.087 1219.9 315.987 1216.1 318.987C1215.4 322.587 1222.5 325.487 1231.7 327.787ZM7.6 260.287C5.6 259.087 3.1 258.187 0.100002 257.387V272.987C2.9 272.087 5.4 270.987 7.2 269.687C11.3 266.587 11.5 263.087 7.6 260.287ZM914.5 198.887C916.4 195.487 907.2 192.687 898.5 191.187C887.5 189.987 879.9 192.687 876.8 195.587C874.7 199.187 884.1 202.087 893 203.487C904.2 204.487 911.4 201.787 914.5 198.887ZM1209.6 354.087C1209.1 358.387 1219.7 361.287 1229.1 362.787C1241.4 363.887 1247.3 360.787 1249.4 357.287C1250.3 353.087 1239.5 350.187 1230.2 348.387C1218 347.387 1212.5 350.987 1209.6 354.087ZM30.2 263.487C41.7 263.887 53.4 262.587 61 259.687C68.1 256.587 69.4 252.687 67.2 249.187C64 246.687 57.3 244.587 49.8 243.787C37.9 243.187 25 244.387 17.3 248.187C10.4 250.687 11.3 254.787 12.8 257.887C16 260.387 22.3 262.587 30.2 263.487ZM754.5 257.487C749.6 254.887 743.8 252.187 734.6 251.387C723.9 250.987 712.7 251.487 707.3 254.787C703.3 256.687 702.6 258.687 704.3 261.287C705.8 264.387 711.7 267.687 721.7 268.987C728.9 269.687 738.9 269.587 745.3 268.387C754.4 266.187 759.5 262.087 754.5 257.487ZM744.7 284.787C750.6 288.087 761.4 289.287 771.2 289.587C780.8 288.787 790.2 286.887 793 283.287C794.3 280.487 793.2 277.887 789.3 275.187C782.8 271.687 772.1 270.387 763 270.187C755 270.687 748 272.187 742.8 274.587C740.3 277.887 738.4 281.487 744.7 284.787ZM377.6 206.387C383.3 209.587 393.4 211.487 405.3 210.387C412.9 209.887 420.4 207.687 423.5 204.987C426.4 202.687 425.2 199.787 421.8 197.487C415.6 194.587 405.8 192.587 394.2 193.387C388.1 194.587 381.9 195.387 377.2 197.787C373.8 200.087 372.3 203.987 377.6 206.387ZM322.6 218.187C328.3 221.687 339.2 222.387 350.1 222.287C358.6 221.387 367.2 219.587 370.7 216.587C374.1 214.187 373.5 210.687 369 208.387C364 205.287 353.9 203.987 343.1 204.387C335.5 204.887 328.7 206.087 323.4 208.487C319.5 211.287 317 215.287 322.6 218.187ZM389.4 180.887C383.8 178.487 375.3 176.087 366.1 176.587C357.2 176.987 350.3 178.487 344.8 181.087C342.4 183.087 341.3 186.187 344.3 188.387C350.3 190.587 358.5 193.287 367.8 192.887C376.7 192.487 383.8 190.987 388.9 188.187C391.6 186.187 392.8 183.087 389.4 180.887ZM823.7 325.487C830.1 328.987 841.2 330.487 851.1 330.587C860.7 330.187 869.8 328.187 872.7 324.287C874.6 321.287 872.8 318.287 868.5 315.387C862.1 311.687 851.3 310.587 841.1 310.187C833 311.087 826.6 312.387 821.2 315.087C818.8 318.187 817.2 322.087 823.7 325.487ZM951.8 359.487C945.1 356.287 934 352.987 922.4 353.787C913.4 354.187 907.3 356.287 902.6 359.087C900.9 362.187 900.3 365.987 905.4 368.787C913.2 372.187 923.9 375.387 935.1 374.687C944.5 374.187 950.1 371.887 955.2 368.787C957.5 366.087 957.2 362.387 951.8 359.487ZM784.3 304.787C791.1 308.487 801.8 309.787 811.5 309.787C821 308.987 830.5 307.187 833.5 303.387C834.8 300.587 833.5 297.787 829.4 294.787C823.5 291.487 812.4 290.287 802.4 289.787C794.2 290.387 787.7 292.087 782.5 294.587C779.7 297.887 778 301.687 784.3 304.787ZM910.1 389.287C902.7 390.387 894.8 391.387 890.5 394.487C888.7 397.887 886.9 402.787 893.7 406.087C901.2 410.287 913.6 411.887 925.4 411.687C934.7 410.687 942.8 408.487 945.7 404.587C948.3 401.787 945.7 397.787 940.7 394.987C933.4 390.887 921.6 389.187 910.1 389.287ZM266.6 228.987C272.6 231.687 281.1 234.387 291.4 234.187C302.7 234.087 310.1 231.587 317.5 228.387C320.2 225.887 321.6 222.587 317.9 219.987C311.9 217.587 302.8 214.887 292.5 214.887C281.3 214.987 274 217.587 267 220.487C264.4 222.987 263.2 226.487 266.6 228.987ZM200.9 203.287C204.3 200.987 204 197.987 200.5 195.787C194.7 192.887 185.2 190.887 174.1 192.087C167.4 193.087 160.6 193.887 156.1 196.187C152 198.787 150.5 202.387 154.8 205.087C160.8 207.987 169.9 209.887 181.9 208.787C189.8 208.287 197.2 205.987 200.9 203.287ZM126.1 234.087C132 236.587 140.2 239.387 150.8 239.187C162.2 239.087 169.7 236.587 176.8 233.487C180.1 230.987 181.5 227.587 178.3 224.987C172.5 222.287 164 219.587 153.5 219.787C142.5 219.987 134.8 222.487 127.1 225.587C124.4 228.187 122.6 231.487 126.1 234.087ZM70.1 246.387C72.7 249.187 81.1 250.487 88.6 251.487C99.4 251.887 110.5 250.687 117.8 247.487C122.5 245.087 126.1 242.487 124.6 239.387C122.9 236.487 117.9 233.587 109.1 232.287C98 230.987 83.6 232.687 74.2 236.187C69 239.087 66.2 243.087 70.1 246.387ZM962.1 324.787C955.6 321.787 945.9 318.887 935.1 319.287C925.6 319.187 920.5 322.187 915.1 324.887C914.2 327.387 914 330.287 918.4 332.787C925.3 335.787 934.6 338.787 945.8 338.487C955.7 338.387 960.8 335.287 966 332.687C967 330.087 966.8 327.287 962.1 324.787ZM13.8 244.087C22.3 243.387 31.7 241.287 35.7 238.187C40 235.687 39.7 231.787 35.9 229.587C31.3 226.487 21.2 224.987 10.7 225.787C7.1 225.987 3.6 226.387 0.200001 226.987V243.587C4.4 243.987 9.1 244.087 13.8 244.087ZM91.5 226.587C94.2 223.487 94.3 220.687 91.5 218.087C87 214.987 77.2 213.887 68.2 213.887C59.4 213.987 53.2 215.887 46.7 217.887C41.5 220.687 37.4 224.987 43 228.187C47.6 231.287 57.9 232.487 68.5 232.187C77.7 231.587 87.4 229.887 91.5 226.587ZM254.7 187.087C253.2 183.887 245.9 182.487 238.2 181.087C227.9 180.487 218.6 182.087 211.5 184.187C208.5 186.387 204.3 188.587 206.6 191.287C208 194.587 215.6 196.087 223.1 197.387C232.5 197.687 242 196.787 248.5 194.887C254.3 192.687 256.7 190.087 254.7 187.087ZM202.3 180.087C211.7 179.787 217.5 177.387 223.2 175.287C225.1 173.187 226.3 170.887 223.1 168.687C218.2 166.487 210.5 164.187 201.3 164.487C191.9 164.787 185.9 167.087 180.5 169.287C178.9 171.487 177.2 173.587 180.3 175.587C185.3 178.087 193.1 180.387 202.3 180.087ZM243 213.287C249 215.187 256.9 215.887 265.6 215.387C273 214.387 282.5 213.087 285.2 209.987C288.6 207.987 289.5 204.987 286.2 203.087C283.4 200.587 277 199.487 270.3 197.787C252.3 196.087 237.1 201.487 235.4 207.187C235 209.687 238.8 211.487 243 213.287ZM293.6 170.587C287.3 169.987 279 170.187 273.5 171.187C264.9 173.087 259.4 176.187 261 179.487C261 182.587 267.6 184.687 275.6 185.887C281 186.587 290.4 186.187 295.6 185.287C304.4 183.287 309.5 180.187 307.9 176.987C307.5 174.087 300.7 171.887 293.6 170.587ZM292.8 200.087C297.8 203.187 307.7 204.487 318.3 204.187C326.8 203.487 335 201.587 338.8 198.587C341.6 196.387 341.1 193.287 337.5 190.887C332.5 187.987 322.7 186.787 312 187.287C305.2 187.787 297.9 188.887 293 191.487C290.3 194.087 287.2 197.787 292.8 200.087ZM719 450.487C727.3 455.587 741.5 456.687 754 456.687C764.6 455.787 775.2 453.387 778.5 448.487C781.6 444.687 779.5 439.787 773.5 436.187C765.9 430.987 752.6 430.387 741 429.387C731.5 430.087 724.5 432.087 717.6 434.987C710.9 439.987 712.1 445.487 719 450.487ZM35 290.687C40.5 287.887 42.3 284.187 40.3 280.887C36.8 278.187 31.1 274.487 21.6 274.287C14.2 273.487 6.8 273.887 0.100002 275.087V295.587C12.6 296.787 25.9 294.687 35 290.687ZM76.4 282.687C84.2 280.887 95 278.787 97.4 275.187C100.3 272.287 98.3 268.987 95.4 266.587C90.4 263.187 79.8 261.887 70.3 261.687C56.7 262.087 41.7 265.587 38.8 270.687C34.8 274.887 40.6 278.587 47.4 281.287C56 282.987 65.4 284.287 76.4 282.687ZM0.100002 124.387V131.187C1.4 130.687 2.6 130.087 3.5 129.487C4.9 127.687 3.5 125.787 0.100002 124.387ZM17.9 137.987C11.4 137.587 4.9 138.487 0.200001 139.887V149.787C0.800001 149.887 1.5 149.887 2.3 149.987C8.7 150.787 14.9 150.387 20.8 149.487C27.3 148.087 31.9 145.487 31.8 142.987C30.7 140.487 24.9 138.487 17.9 137.987ZM99.8 266.087C105.3 269.787 117.2 270.487 128.4 270.587C138 269.787 148 267.687 153.2 264.087C156.8 260.887 156.9 257.087 152.2 254.187C147.8 250.687 136.1 249.887 126 249.687C116.6 250.087 109.7 251.787 102.8 254.287C95.6 257.687 95 262.287 99.8 266.087ZM238.9 246.287C249.1 245.387 258.9 243.187 263.9 239.687C266 236.687 265.6 233.787 262.4 231.287C255.9 227.887 246.4 225.987 234.8 226.387C226.1 226.987 218.3 228.487 212.9 231.287C208.5 234.087 205.2 238.387 210.9 241.287C216.9 244.587 227.6 246.587 238.9 246.287ZM249.6 263.287C258 264.887 267.8 266.387 278.6 264.787C285.7 262.987 295.9 260.987 297.9 257.387C300.8 254.587 298.2 251.387 294.8 248.987C289.7 245.587 279.4 244.387 269.9 244.187C256.6 244.487 242 248.287 239.6 252.887C236.3 257.287 242.4 260.587 249.6 263.287ZM328.4 253.187C338.4 252.887 346.5 249.787 351.4 246.687C354.7 244.187 353.6 240.087 349.8 237.987C342.7 234.687 332.2 232.087 320 233.187C311.3 234.287 304.4 235.487 298.7 238.487C294.5 241.287 293.2 245.587 298.4 248.187C305.1 251.487 315.7 254.087 328.4 253.187ZM184.2 258.287C195.9 258.487 204.2 254.587 210.1 251.387C212.6 248.587 211.9 245.387 209 243.187C202.4 240.287 193.1 237.187 180.7 238.287C170 238.387 162.9 240.987 156.4 243.987C152.1 246.587 152.1 250.287 155.3 252.887C161.9 256.187 171.6 259.287 184.2 258.287ZM22.1 156.887C19.3 158.187 18.6 159.687 18 160.987C17.5 163.987 24.1 166.087 31.2 167.187C39 167.887 49.6 166.887 55 164.387C58 162.687 61.6 161.387 61.2 159.487C61.3 156.687 54.9 154.587 48 153.387C39.5 152.987 28.5 154.287 22.1 156.887ZM101.5 162.587C97.8 164.487 96 167.087 98.2 169.187C100.1 171.487 106.7 173.287 113.5 173.687C122.6 174.287 131 172.787 136.7 170.687C139.9 168.387 145 165.887 141.6 163.187C139.5 161.187 132.7 159.287 126.5 158.887C116.2 158.287 108.4 160.287 101.5 162.587ZM202 122.787C189.1 122.287 176.9 125.987 177.1 129.987C180.9 131.687 181 134.287 188.6 134.787C194.7 135.387 200.7 135.187 206.3 134.187C212.6 132.787 217.5 130.487 216.1 127.887C215 125.487 209.4 123.587 202 122.787ZM230.7 138.487C219.7 137.887 207.8 139.987 205.1 143.587C202.3 146.587 206.8 149.187 212.8 151.087C219.2 151.687 228.3 152.087 234.7 150.987C244.2 149.287 245.7 146.187 245.3 143.087C242.2 141.287 238.6 138.587 230.7 138.487ZM72.1 127.587C61.3 126.687 52.3 129.087 47.5 131.987C43 135.687 50.2 138.287 59 139.387C69.4 140.487 78.9 138.087 83.2 135.087C87.4 131.387 80.8 128.887 72.1 127.587ZM325.6 147.487C321 145.387 313.4 143.587 305 143.887C297.4 144.287 291.6 145.687 286.8 147.987C285.6 149.887 283.1 152.287 286.9 154.287C291.2 156.387 298.4 158.387 307.5 157.787C314.9 157.487 321.2 156.087 325.9 153.787C327.2 151.587 329.1 149.387 325.6 147.487ZM284 128.387C272.7 127.687 262.4 129.487 258 132.887C254.5 136.387 260.3 139.787 270.7 140.887C281.7 141.787 292.1 139.687 296.3 136.587C299.3 132.987 293.4 129.587 284 128.387ZM235.6 157.887C233 159.087 232.7 160.587 232 162.187C232.2 165.087 237.5 167.787 246.1 168.787C252.2 169.187 258.5 168.987 264.7 168.387C271.6 166.587 277.4 164.187 276.6 161.287C276.2 158.287 270.9 155.787 262.7 154.687C252.3 153.587 242.1 155.187 235.6 157.887ZM101.2 143.387C86.5 141.787 72.2 145.887 71.2 150.487C72.1 152.987 75.3 155.287 82.8 156.087C87.7 156.787 96.2 156.387 101.4 155.487C109.7 154.087 112.2 151.387 112.6 148.787C111.8 146.287 108.2 144.087 101.2 143.387ZM398.2 238.087C403 235.287 407.8 232.287 404.8 228.587C401.8 225.687 394.5 223.387 385.4 222.087C374.4 220.987 362.8 222.687 355.3 225.387C352 228.187 346.9 230.687 349.9 234.187C352.1 237.287 360.1 239.587 368.7 240.787C378.7 241.787 391.1 240.587 398.2 238.087ZM152.5 132.887C141.9 131.987 130.8 133.787 126.4 137.387C122.6 140.987 128 144.287 137.8 145.387C148.8 146.087 159.5 144.087 164.4 140.687C167.7 137.087 162.3 133.887 152.5 132.887ZM152.6 153.787C149.9 157.587 155.9 161.187 166.7 162.487C178.8 163.287 189.5 160.887 194.9 157.287C197.6 153.387 191.2 150.087 180.6 148.587C168.8 147.887 157.9 150.387 152.6 153.787ZM1064.3 464.487C1058.6 463.087 1052.2 462.487 1046 462.787C1042.2 463.187 1038.4 463.687 1035.1 464.487H1064.3ZM314.3 165.687C311 169.887 318 173.487 329.4 175.087C342.1 176.087 353.4 173.687 358.6 169.787C362.3 165.487 355 161.887 343.7 160.387C330.9 159.287 319.4 161.687 314.3 165.687ZM735.2 410.887C742.5 414.487 753.5 417.987 764.7 417.587C778.6 418.087 786.8 414.787 793.6 410.787C796.1 407.487 795.9 402.687 790.7 399.287C783.2 395.887 772.3 392.487 760.8 392.687C748 392.387 739.3 395.487 732.5 399.587C729.8 402.987 730 407.487 735.2 410.887ZM751.1 373.587C755.7 376.887 765.4 378.787 773.6 380.087C786.2 380.687 797.1 379.287 803.3 375.687C807.6 372.787 810.8 369.887 807.6 365.987C804.3 362.387 797.1 358.987 787 357.487C773.9 355.687 758.7 357.587 750.8 361.387C746.2 364.987 745.1 369.687 751.1 373.587ZM507.2 281.287C514.6 284.487 524.9 287.787 537.6 286.787C550 286.887 557.1 282.887 562.4 279.787C564.6 277.387 563.1 273.687 560.3 271.287C552.5 267.987 541.9 265.087 529.5 265.787C519.1 265.987 512.4 268.587 506 271.487C502.6 274.287 503.3 278.387 507.2 281.287ZM551.3 305.287C560.6 307.187 570.5 308.787 581.7 306.987C589 305.087 598.8 303.087 600.3 299.687C602.5 296.687 599.4 293.187 595.5 290.687C589.4 286.987 578 285.687 568 285.087C554.5 285.587 540.6 289.187 538.7 294.187C536.3 298.787 543.3 302.387 551.3 305.287ZM436.1 279.587C449 280.687 462.2 278.587 470 274.887C475.1 272.087 475.9 268.487 472.7 265.087C468.6 262.787 461.9 259.087 452.5 258.687C438.7 257.387 425.8 259.587 417.9 263.487C414.2 266.387 412.3 269.687 415.5 272.887C419.7 275.387 426.3 279.287 436.1 279.587ZM526.3 260.987C527.9 257.787 527 254.987 523.7 251.987C517 248.787 506.2 246.787 494.7 247.087C485.8 247.587 478.1 249.187 472.9 251.987C469.4 255.187 467.1 259.387 472.9 262.387C479.6 265.687 490.4 267.687 501.9 267.587C512.8 266.887 522 264.387 526.3 260.987ZM647 290.687C653.1 287.487 653.3 283.487 649.9 279.787C645.2 277.187 637.9 274.987 629.7 273.887C616.7 273.287 604.6 274.387 597.5 278.587C591.4 281.087 594.1 285.187 596.2 288.587C601 291.287 608.5 293.387 616.4 294.587C628.6 295.287 639.8 293.787 647 290.687ZM385.5 255.087C392 258.287 403.3 261.087 416.5 260.087C426.1 259.687 434.6 256.587 438.8 253.487C441.9 250.887 441 246.987 436.8 244.687C429.2 241.587 418.8 238.987 406.4 239.887C398.3 240.787 390.6 242.087 385.4 245.087C381.3 248.087 380.1 252.187 385.5 255.087ZM794.2 396.687C802.1 400.587 814.5 403.187 827.2 403.087C836.9 401.987 844.5 399.787 849.6 396.387C851.5 393.187 852.5 388.287 845.6 385.387C836.8 381.187 825.2 378.887 812.8 379.287C803.3 380.187 795.9 382.487 790.4 385.887C788.6 388.987 787.5 393.787 794.2 396.687ZM652.8 363.687C658.2 366.587 665.3 370.687 675.8 371.387C690 372.787 703.3 370.687 710.7 366.287C715.9 363.187 716.2 359.187 712.4 355.487C707 352.687 700.1 348.687 689.5 348.187C674.8 346.487 661.5 348.987 653.6 353.187C650.5 356.287 648.8 359.987 652.8 363.687ZM635.5 309.387C643.2 313.287 654.6 315.487 666.1 315.187C676.9 314.387 685.9 311.987 690.3 308.087C692.3 304.987 690.3 301.787 687 298.887C679.2 295.187 667.9 292.987 656.3 293.387C647 293.687 639.3 295.487 634.1 298.487C630.8 301.687 628.8 306.187 635.5 309.387ZM672.7 330.387C680.4 334.287 691.9 336.487 704 335.987C714.8 335.387 723.9 332.787 727.9 329.087C729.6 325.787 728.1 322.287 724.3 319.387C716.4 315.687 705 313.587 693.7 313.787C684.2 314.387 676.9 315.987 671.3 318.987C667.8 322.487 666.2 327.087 672.7 330.387ZM743.7 358.087C754 357.187 764.2 354.987 767.4 351.087C769.9 347.587 768.7 343.687 763 340.487C755.8 336.787 744.2 334.687 732.2 335.187C723.2 335.787 715.3 337.387 710.3 340.687C705.1 344.287 707.5 348.987 713 352.787C720.5 356.387 732 358.587 743.7 358.087ZM1097.9 285.287C1086.6 283.887 1079.4 287.187 1076.4 290.287C1074.2 294.487 1084.7 297.787 1094.7 299.387C1106.4 300.487 1113.9 297.387 1117 294.187C1118.6 289.987 1108.3 286.987 1097.9 285.287ZM1148.5 384.787C1149.1 379.887 1140.3 375.387 1127.7 373.387C1114.3 372.187 1103.6 374.687 1100.3 379.287C1099.4 384.487 1108.4 388.987 1121.1 390.787C1134.4 392.187 1145.1 389.587 1148.5 384.787ZM1141.1 305.587C1130.1 304.887 1120.9 307.087 1118.6 310.787C1118.5 314.687 1126.5 318.487 1137.4 319.887C1148.6 320.687 1157.7 318.587 1159.9 314.787C1160 310.987 1152.1 307.087 1141.1 305.587ZM975.9 227.087C965.4 226.587 954.5 227.587 952.3 231.487C951.5 234.887 956.3 239.087 967.8 240.187C978.6 240.887 989.7 239.787 991.6 235.987C992.1 232.287 987.8 228.287 975.9 227.087ZM1168.9 414.187C1182.4 415.887 1191.3 412.387 1194.3 408.187C1196.2 403.287 1185.1 398.987 1173.3 396.887C1160.5 395.487 1151.1 398.687 1148.1 403.087C1145.8 408.087 1157.1 412.287 1168.9 414.187ZM1110.4 344.687C1108.2 349.287 1118.9 353.087 1129.5 354.687C1143 356.487 1152.3 353.087 1154.9 349.087C1156 344.487 1146.2 340.687 1134.9 338.787C1122.1 337.287 1113.5 340.687 1110.4 344.687ZM1057.1 265.087C1046.5 264.287 1035.7 265.787 1033.6 269.387C1033 273.187 1038.7 277.287 1050 278.687C1061 279.687 1072.1 278.087 1074.4 274.387C1074.9 270.587 1068.3 266.487 1057.1 265.087ZM1016.2 246.387C1005.5 245.587 994.3 246.487 992.2 250.387C992 254.287 996.8 258.387 1008.4 259.587C1019.6 260.287 1031.1 259.187 1032.5 255.187C1032.8 251.587 1028.2 247.387 1016.2 246.387ZM980.3 281.487C978.3 285.787 986.5 289.687 998.3 291.587C1011.1 292.587 1021.4 290.287 1024.4 286.387C1025.5 282.087 1017.9 277.887 1005.7 276.187C993.4 275.187 982.8 277.487 980.3 281.487ZM1022.6 302.687C1021 306.387 1029.4 308.987 1036 311.387C1043.4 312.587 1052.3 313.087 1058.5 311.587C1066.8 309.887 1068.8 306.187 1065.7 302.687C1060.8 300.487 1055.4 297.187 1046.5 296.787C1034.8 296.087 1022.9 298.187 1022.6 302.687ZM1065.5 325.487C1068.6 328.487 1074.4 331.687 1083.1 332.687C1090.7 333.187 1095.6 333.287 1101.5 332.287C1108.8 330.787 1111 327.687 1109.6 324.687C1107.2 321.487 1101.3 318.587 1092.2 317.487C1081.6 315.987 1072.2 317.387 1066.7 320.387C1064.8 321.687 1065.6 323.587 1065.5 325.487ZM980.3 464.487C980 463.087 978.9 461.587 977 460.087C971.3 456.587 964.2 453.087 954 451.887C941.9 451.487 929.4 452.187 922.9 456.487C920.2 458.887 918.5 461.687 920.9 464.587H980.3V464.487ZM820.4 464.487C819.7 463.587 818.8 462.687 817.7 461.687C808.9 457.187 796.5 454.687 783.5 455.187C773.6 455.687 765.3 457.587 760.1 461.687C759.2 462.487 758.4 463.487 757.8 464.487H820.4ZM775.9 434.187C781 437.387 789.7 440.187 798.9 441.587C811.9 442.087 824 440.687 831.4 436.887C837.9 433.087 837.5 428.187 833.2 423.787C827.7 420.487 819.2 417.887 810.3 416.687C796.2 415.987 782.7 417.387 775.3 421.887C769.7 424.987 773.1 429.987 775.9 434.187ZM1140.7 418.187C1138.5 415.087 1131.9 411.687 1122.3 410.287C1103.8 407.887 1089.9 413.287 1093.4 420.487C1096.5 423.687 1102.6 427.387 1112 428.587C1118.4 429.687 1128 429.287 1133.2 427.887C1141.9 425.987 1143.4 422.087 1140.7 418.187ZM1038.1 436.787C1042.7 439.587 1049.1 443.387 1058.6 443.887C1069.8 445.487 1079.5 443.387 1085.3 440.487C1088.9 437.787 1088.5 433.987 1085.4 430.987C1080.6 428.187 1074.4 424.187 1065.1 423.887C1054.5 422.887 1042.9 424.087 1037.7 427.887C1035.4 430.387 1034.6 433.687 1038.1 436.787ZM1087.7 463.687C1088.2 463.887 1088.8 464.187 1089.3 464.387H1134.2C1134.3 464.287 1134.4 464.187 1134.5 464.087C1136.3 460.987 1136.1 457.087 1130.7 454.387C1123.7 450.787 1113.5 448.087 1103.2 448.387C1095.5 449.187 1088.1 450.287 1084.3 453.587C1081.7 456.687 1082.5 460.787 1087.7 463.687ZM1039.5 405.287C1032.7 402.087 1021.9 398.787 1010.9 399.187C1001.7 399.587 995.7 402.087 990.4 405.087C988.9 407.787 988.4 411.687 993.8 414.287C1001.2 417.587 1011.6 420.787 1022.8 420.487C1032 420.287 1038.3 417.887 1043 414.687C1045 411.887 1044.9 408.087 1039.5 405.287ZM982.8 452.687C989.3 455.887 995.1 457.687 1004.6 459.587C1015.7 460.887 1024.3 458.687 1031.4 456.087C1035.2 452.487 1038 448.487 1032.2 444.187C1025.2 440.987 1019.5 439.187 1010.4 437.387C998.5 436.387 987.6 438.087 981.7 441.787C978.3 444.987 977.8 448.987 982.8 452.687ZM492.6 130.687C479.3 129.887 468.2 133.687 469.2 137.787C472.8 139.587 473.7 142.187 481.4 142.487C487.5 143.287 493.8 143.087 499.2 142.187C505.4 140.687 509.8 138.187 508.2 135.587C506.6 132.987 500.2 131.287 492.6 130.687ZM526.3 146.487C515.3 146.087 505.8 148.287 501.3 151.587C499.7 155.287 506.8 158.287 517.3 159.887C528.4 160.487 538.3 158.187 542.2 154.687C543.6 151.087 536.4 147.987 526.3 146.487ZM535 173.287C540.1 175.287 548 177.387 556.5 176.987C564.1 176.487 570 175.187 574.5 173.087C575.7 170.987 577.1 168.487 573.4 166.787C568.3 164.487 560.4 162.587 551.7 162.787C544.5 163.187 538.1 164.587 534.1 166.887C532.8 168.887 530.7 171.187 535 173.287ZM642.6 169.387C630.9 168.487 618.9 170.587 617.2 174.687C615.4 177.887 620.6 180.587 628.1 182.687C634.8 183.387 643.5 183.887 649.9 182.487C659.2 181.187 660 177.487 658.6 174.487C654.7 172.187 650.5 169.587 642.6 169.387ZM362.3 134.387C351.6 133.787 341.4 136.087 337.4 139.187C334.9 142.687 342 145.887 351.7 147.187C362.8 147.987 372.9 145.387 376.9 142.187C379.3 138.787 372.1 135.487 362.3 134.387ZM940.3 261.987C938.5 265.987 946.3 270.087 958.2 271.487C970.6 272.787 980.9 270.487 983.8 266.387C985.6 262.087 977.6 258.287 965.4 256.587C953.6 255.487 943.4 257.787 940.3 261.987ZM622.4 156.787C617.7 154.587 610.3 153.087 602.3 152.987C595.8 153.487 589.4 154.287 585.6 156.587C582.8 158.487 583.6 160.787 585.9 162.587C590.8 164.787 598.2 166.587 605.8 166.587C612.7 165.887 619.2 165.287 623.1 162.687C625.6 160.687 625.1 158.687 622.4 156.787ZM464.9 115.587C452.9 114.187 439.3 117.187 440.2 121.387C442.7 123.187 443.8 125.687 451.5 126.287C456.3 126.987 463.9 126.687 467.7 125.787C474.8 124.787 475 122.287 475.8 120.387C473.9 118.487 472.1 116.187 464.9 115.587ZM412.6 124.387C399.3 123.887 388.2 127.387 388.8 131.687C392.3 133.187 392.8 135.887 400.7 136.387C407 137.087 413.1 136.787 419 135.987C424.8 134.587 429.1 132.087 427.9 129.587C426 127.187 419.8 125.187 412.6 124.387ZM382.9 164.087C395.3 165.287 405 162.187 409.5 158.987C413.8 154.987 405.2 151.787 394.7 150.187C382.4 149.087 372.6 152.087 367.9 155.387C363.8 159.387 372.8 162.387 382.9 164.087ZM418.3 147.487C419.1 149.987 423.5 152.487 430.9 153.087C436.2 153.787 444.7 153.687 449.2 152.487C457.2 151.087 459 148.587 458.9 145.987C457.9 143.687 453.5 141.187 446 140.387C431.3 138.887 417.9 142.687 418.3 147.487ZM575.3 136.987C564 135.887 556.1 138.287 552.3 141.287C549 144.687 557 147.487 566.3 148.687C577.6 149.987 586.2 147.587 589.7 144.587C592.2 141.087 584.9 138.187 575.3 136.987ZM825 208.487C827 211.287 831.9 213.687 840.2 214.787C845.6 215.587 853.3 215.487 857.6 214.487C864.6 213.187 867 210.287 866.2 207.687C863.9 204.987 858.8 202.487 850.8 201.687C841.8 200.487 832.3 201.687 827.1 204.187C824.9 205.387 825.2 206.987 825 208.487ZM853.5 174.187C846.6 174.087 842.8 175.587 839.7 177.187C838.3 179.087 839.9 180.787 842 182.687C846.1 184.887 854.5 186.487 860.9 185.987C868 185.987 871.5 184.487 874.7 182.687C876.5 180.687 874.5 179.387 872.6 177.387C868.3 175.187 860 173.687 853.5 174.187ZM813 240.787C818.6 243.087 827.4 245.487 836.6 245.187C844.4 244.787 850.3 243.287 854.4 240.687C854.9 238.587 856.4 235.687 852 233.687C846.9 231.087 837.9 228.887 828.7 229.387C821 229.787 814.8 231.187 810.7 233.787C809.8 236.087 808.7 238.887 813 240.787ZM667.6 200.987C680.7 202.287 690.2 199.187 694.5 195.587C697.9 191.287 687.6 187.987 676.9 186.187C664 184.987 654.7 188.087 650.1 191.487C647.1 195.987 656.6 199.187 667.6 200.987ZM926.9 237.787C914.6 236.687 904.6 238.787 901.8 242.687C899.8 246.787 907.4 250.587 919.1 252.487C931.4 253.387 941.8 250.987 944.3 247.387C946.1 243.287 938.5 239.387 926.9 237.787ZM740.7 180.387C735.6 178.087 727.8 176.187 720 176.287C713.1 176.887 706.7 177.587 703 180.087C700.7 181.687 701 184.087 704.4 186.087C708.8 188.387 716.7 190.087 725.2 190.287C732 189.687 738.3 188.787 742 186.487C744.9 184.587 743.7 182.287 740.7 180.387ZM693.9 159.887C684.8 158.987 675.2 160.087 670.5 162.387C668.2 163.687 668.3 165.087 668.1 166.587C669.9 169.087 674.4 171.487 682 172.287C688.3 172.687 692.9 172.387 699 171.887C705.5 170.687 708.2 167.987 708 165.687C706.3 163.187 701.7 160.887 693.9 159.887ZM764.6 194.187C755.3 193.487 744.5 193.987 739.5 196.787C737.4 198.387 736.2 199.987 737.5 202.087C739.3 204.487 744.7 207.087 752.4 207.987C758 208.887 766.4 208.687 771.1 207.487C779.2 205.987 780.7 202.887 779.7 200.087C778.2 197.687 772.5 195.187 764.6 194.187ZM814.7 215.487C809.1 212.787 801.2 210.787 792.2 211.087C784.7 211.787 778.9 212.487 774.8 215.287C772.1 217.387 771.8 220.187 776.3 222.387C781.4 224.787 790.2 226.887 799 226.687C805.9 226.087 812.7 224.987 816.2 222.387C818.5 220.287 819 217.387 814.7 215.487ZM866.1 63.8871C869.5 63.9871 872 63.6871 873.1 62.9871C873.1 61.8871 872.2 60.9871 869 60.5871C865.7 60.5871 863.4 60.8871 861.7 61.6871C862 62.7871 863 63.4871 866.1 63.8871ZM854.8 88.8871C859.8 89.6871 863.8 88.5871 866.3 87.1871C868 85.4871 864 84.1871 859.3 83.1871C854.1 82.4871 850.1 83.5871 847.6 84.9871C846 86.6871 849.9 88.0871 854.8 88.8871ZM900.7 79.2871C905.2 79.6871 906.9 78.5871 908.9 77.7871C909.3 76.2871 905.3 75.7871 902.4 74.8871C897.8 74.4871 896.2 75.5871 893.9 76.5871C893.8 77.8871 897.7 78.4871 900.7 79.2871ZM887.5 104.287C892.7 105.287 898.2 103.887 900.9 102.987C904.1 101.387 899.5 99.6871 895.1 98.4871C889.7 97.3871 884.8 98.5871 881.6 99.6871C878.8 101.387 883.4 103.087 887.5 104.287ZM819.9 73.5871C824.9 73.7871 827.8 72.9871 829.9 71.8871C830.2 70.2871 827.8 69.3871 823.9 68.5871C818.6 68.3871 815.7 69.0871 813.4 70.2871C813.5 71.8871 816 72.7871 819.9 73.5871ZM647.2 23.7871C650.1 23.9871 651.4 23.2871 653 22.6871C653.6 21.7871 651 21.4871 649.4 21.0871C646.8 20.8871 645.4 21.4871 643.8 22.0871C643.1 22.8871 645.9 23.3871 647.2 23.7871ZM833.1 49.6871C836.1 49.7871 836.9 48.9871 838.6 48.4871C838.8 47.6871 836.4 47.1871 834.3 46.6871C831.3 46.3871 830.4 47.1871 829.2 47.8871C828.6 48.5871 831 49.0871 833.1 49.6871ZM968.5 110.387C972.6 111.287 977.9 110.587 980.9 109.587C983.3 108.387 980.1 106.587 976.8 105.587C972 104.487 966.8 105.387 964.2 106.287C961.5 107.687 964.4 109.287 968.5 110.387ZM960.1 136.787C965.7 137.187 973 137.187 975.6 134.987C975.3 133.187 974.1 130.687 967 129.887C961 129.587 954.1 129.687 952.1 131.887C951.6 133.687 952.7 135.887 960.1 136.787ZM945.7 69.9871C948.7 70.2871 949.5 69.4871 951.2 68.8871C951.6 68.0871 949.2 67.4871 947 66.9871C943.8 66.7871 943 67.6871 941.5 68.0871C941 68.9871 943.6 69.4871 945.7 69.9871ZM803.3 34.2871L802.4 32.8871H797.7L798.8 34.3871L803.3 34.2871ZM920.8 119.887C926.5 121.087 933.5 120.887 936.9 119.687C940.2 117.987 938.6 115.987 933.8 114.387C928.6 113.587 922.2 113.587 917.8 114.787C915.5 116.487 916.7 118.487 920.8 119.887ZM909.8 146.387C917.1 147.587 923.8 146.987 929 145.487C932.3 143.287 929.2 140.987 923.5 139.387C916.3 137.887 909.5 138.687 904.1 140.087C901.4 142.387 904.9 144.487 909.8 146.387ZM911.3 54.7871C913 54.9871 915.1 54.7871 915.6 54.2871C915.2 53.7871 915 53.1871 913.1 52.7871C908.6 52.4871 907.3 54.3871 911.3 54.7871ZM935.5 95.0871C940.6 95.2871 943.4 94.6871 945.9 93.3871C945.7 91.7871 943.1 90.7871 938.9 89.8871C933.8 89.6871 930.8 90.3871 928.5 91.5871C928.6 93.0871 931.2 94.0871 935.5 95.0871ZM754 43.3871C756.4 43.8871 759.4 43.4871 760.9 42.7871C762.4 41.9871 760.3 40.9871 758.4 40.3871C755.4 39.9871 752.7 40.5871 750.7 41.0871C749.2 41.8871 751.6 42.7871 754 43.3871ZM690.2 76.3871C695.4 77.6871 701.6 77.3871 705.9 76.0871C708.5 74.5871 708 72.6871 703.6 71.2871C698.4 70.3871 692.2 70.7871 688.1 71.7871C685.2 73.2871 685.9 75.0871 690.2 76.3871ZM727.2 92.6871C734 93.4871 738.6 92.0871 742.2 90.3871C743.7 88.2871 738.6 86.7871 733 85.6871C726.5 84.8871 721.4 86.4871 718.7 87.9871C716.6 89.9871 721.4 91.3871 727.2 92.6871ZM678.3 38.1871C682.2 38.5871 682.6 37.2871 685.4 36.6871C686 35.5871 681.5 35.2871 679.4 34.3871C675.5 34.1871 675.1 35.4871 672.7 35.9871C671.4 37.1871 675.9 37.3871 678.3 38.1871ZM707.8 52.8871C712.1 53.2871 716.8 52.9871 718.3 51.7871C719.1 50.4871 718.2 49.2871 713.5 48.3871C709.8 48.1871 705.1 48.1871 703.2 49.5871C702.6 50.5871 703.6 52.2871 707.8 52.8871ZM638.7 81.9871C638.5 83.7871 641.8 86.2871 648.6 86.7871C655.1 87.0871 662.5 86.0871 663.4 83.9871C663.9 81.9871 660.2 79.5871 653.7 79.2871C647.4 78.9871 640.1 79.7871 638.7 81.9871ZM663.1 62.0871C669.4 62.5871 671.7 61.0871 674.9 59.7871C676.2 58.0871 670.9 57.2871 667 56.2871C661 55.8871 658.6 57.2871 655.5 58.5871C654.4 60.3871 659.5 61.1871 663.1 62.0871ZM760 108.087C766.9 108.687 773.3 107.587 776.7 105.487C778.1 103.387 774.4 101.287 767.6 100.087C760.3 99.5871 754.1 100.487 751.2 102.487C749.7 104.887 753.3 106.887 760 108.087ZM727.6 28.1871C729.3 27.6871 726.7 27.1871 725.6 26.9871C723 26.1871 722.4 27.2871 720.5 27.8871L725.5 28.8871L727.6 28.1871ZM787.9 58.5871C792.3 59.0871 793.9 57.8871 796.3 56.9871C797.1 55.7871 793 55.0871 790.4 54.3871C785.7 54.0871 783.8 55.1871 781.4 55.9871C781 57.2871 784.7 57.9871 787.9 58.5871ZM773.1 82.8871C778.5 83.8871 783.4 82.6871 786.8 81.6871C789.3 79.9871 785.1 78.2871 780.9 77.3871C775.9 76.1871 771 77.2871 767.4 78.5871C764.9 80.1871 769.2 81.6871 773.1 82.8871ZM739.9 67.4871C744.4 67.9871 749.8 67.6871 752.3 66.3871C752.3 64.9871 751.8 63.3871 746.9 62.6871C742.7 62.1871 736.8 62.2871 735.1 63.7871C734.7 65.0871 735.3 66.6871 739.9 67.4871ZM784.9 118.887C782.8 121.487 788.5 123.887 795.5 124.387C803.9 125.087 810.7 123.587 812.3 121.387C813.9 118.987 808.7 116.587 801.3 115.887C793.5 115.087 786.6 116.687 784.9 118.887ZM980.7 85.0871C983.8 85.4871 986.5 84.9871 988.4 84.2871C989.6 83.3871 987.3 82.4871 984.7 82.0871C981.9 81.2871 979.1 82.0871 977.7 82.5871C976.2 83.4871 978.4 84.3871 980.7 85.0871ZM804.8 97.9871C810 99.0871 817.3 98.6871 820.4 97.2871C822.7 95.6871 821.3 93.4871 815.9 92.3871C810.5 91.2871 803.4 91.5871 800.2 92.9871C797.9 94.5871 799.3 96.9871 804.8 97.9871ZM1215.8 155.587C1219.6 155.687 1222.2 155.387 1223.4 154.287C1222.7 153.287 1221.4 152.487 1217.5 151.587C1214.5 151.487 1211.6 151.887 1210.3 152.787C1210.6 154.087 1212.3 155.087 1215.8 155.587ZM1211.1 183.587C1215.8 184.087 1220.5 182.987 1221.2 181.587C1222.8 180.087 1216.5 178.587 1214.2 178.187C1208.3 176.687 1204.4 178.887 1203 179.887C1201.8 181.287 1207 182.987 1211.1 183.587ZM1246.4 230.787C1252.8 231.487 1258.3 230.687 1260.1 228.687C1260.6 226.887 1257.8 224.687 1251.2 223.687C1245.2 223.087 1239.3 223.587 1237.1 225.687C1236.4 227.687 1239.7 229.687 1246.4 230.787ZM1243.8 261.987C1250.7 262.487 1258.5 261.487 1258.9 258.587C1258.7 256.187 1253.6 253.287 1245.6 252.487C1238.5 252.187 1230.5 253.287 1230.3 255.987C1230.9 258.387 1236 261.487 1243.8 261.987ZM1225.9 128.587L1224.3 127.087L1219.4 126.987L1220.6 128.787L1225.9 128.587ZM1197.2 242.387C1204.5 243.387 1212.6 242.787 1214.5 240.287C1216.6 237.887 1213 234.887 1204.8 233.487C1197.9 232.487 1189.3 233.387 1187.1 235.887C1185.5 238.087 1189.2 241.087 1197.2 242.387ZM1204.7 212.587C1211 213.187 1216.4 212.387 1218.4 210.287C1219.1 208.387 1215.6 206.387 1209.1 205.387C1203.5 204.687 1197.8 205.287 1195.4 207.187C1195.1 209.287 1198 211.187 1204.7 212.587ZM1258.7 172.687C1263.4 173.387 1263.1 171.387 1265.6 170.887C1266.5 169.487 1260.8 169.187 1258.6 168.287C1254 167.687 1253.8 169.387 1251.7 170.087C1250.5 171.487 1256.1 171.887 1258.7 172.687ZM1282.3 280.987C1288.8 282.487 1297.5 281.587 1301.4 279.687C1304.8 277.687 1300.1 274.287 1294 272.787C1286.8 271.087 1278.7 271.987 1275.1 273.887C1271.6 275.887 1276 279.387 1282.3 280.987ZM1290.4 250.187C1296.4 250.487 1302.3 249.987 1304.5 247.887C1304.8 245.787 1301.8 243.587 1294.9 242.387C1288.6 241.787 1283 242.587 1281 244.687C1280.5 246.787 1283.7 249.087 1290.4 250.187ZM1282.7 314.687C1292.2 315.787 1299.5 313.987 1300.5 310.887C1301.7 307.787 1294.6 304.887 1285.8 303.787C1277.1 302.787 1269.6 304.687 1268.8 307.687C1267.2 310.687 1274.5 313.787 1282.7 314.687ZM1295.3 219.387C1300.3 220.187 1305.6 218.587 1305.8 217.387C1308 215.687 1301.1 214.187 1298.5 213.487C1292.6 211.987 1288.7 214.287 1286.9 215.187C1286.2 216.987 1291.1 218.987 1295.3 219.387ZM1265.9 144.687L1264.6 143.087H1259.3L1260.9 144.787L1265.9 144.687ZM1175.3 138.987C1178.7 139.287 1181.3 138.787 1183.4 138.187C1184.8 137.187 1182.4 136.287 1179.8 135.687C1176.6 134.987 1173.8 135.587 1171.8 136.287C1170.7 137.187 1172.9 138.287 1175.3 138.987ZM1253.1 201.487C1257.9 202.187 1263.1 200.887 1263.4 199.487C1265.4 197.887 1258.7 196.587 1256.1 195.887C1250 194.287 1246.4 196.587 1244.5 197.487C1244 199.287 1248.8 201.087 1253.1 201.487ZM1130.8 149.487C1135.9 149.587 1138.8 148.887 1140.5 147.487C1140.8 145.887 1137.5 144.787 1133.2 143.887C1128.3 143.787 1125.2 144.387 1123.1 145.687C1123.4 147.487 1126.2 148.487 1130.8 149.487ZM1083.8 160.087C1089.6 160.587 1095.3 159.987 1097.1 158.087C1098 156.187 1094.9 154.387 1088.9 153.487C1082.9 152.887 1077.1 153.287 1075.1 155.287C1074.3 157.087 1077.4 158.987 1083.8 160.087ZM1067 90.2871C1068.7 89.9871 1065.9 89.3871 1064.4 88.9871C1061.6 88.1871 1060.8 89.3871 1059.3 89.7871L1065 91.1871L1067 90.2871ZM1054.1 116.687C1058.9 117.087 1060.3 115.787 1062.6 114.787C1063.4 113.387 1059.1 112.787 1056 112.087C1051.1 111.787 1049.2 112.887 1047.2 113.787C1046.6 115.287 1050.9 115.887 1054.1 116.687ZM1170.5 166.487C1176.1 167.287 1178.4 165.787 1181 164.687C1182.2 163.187 1177.6 161.987 1173.3 160.887C1168.3 160.087 1165.1 161.587 1162.8 162.687C1161.4 164.187 1166.6 165.387 1170.5 166.487ZM1029.6 75.2871L1028.5 73.9871L1023.7 73.8871L1024.7 75.4871L1029.6 75.2871ZM1008.1 126.587C1013.9 127.487 1017.7 126.387 1020.2 124.787C1021.8 123.287 1017.3 121.787 1012.7 120.987C1006.8 120.087 1002.6 121.187 1000.6 122.787C999 124.187 1003.4 125.787 1008.1 126.587ZM1015.9 100.587C1019.5 101.187 1022.9 100.487 1024.6 99.8871C1026 98.7871 1023.4 97.6871 1021 96.9871C1017.8 96.4871 1014.4 96.9871 1012.1 97.4871C1010.7 98.6871 1013.6 99.7871 1015.9 100.587ZM1043 142.787C1047.3 143.287 1054.6 143.387 1057.1 141.887C1058.3 140.587 1056.9 138.187 1052.2 137.187C1047.4 136.487 1040.6 136.687 1038.3 137.987C1036.4 139.287 1037.6 141.687 1043 142.787ZM1139.6 122.887C1143.4 122.387 1144.2 121.887 1144.2 120.787C1143 119.687 1136.4 118.687 1134.1 119.887C1131.3 120.987 1136 122.787 1139.6 122.887ZM1090.7 133.087C1095 133.287 1099.9 133.087 1101.5 131.787C1102.3 130.487 1100.9 128.887 1095.8 128.187C1091.5 127.887 1087 127.887 1085.2 129.587C1084.6 130.687 1086 132.287 1090.7 133.087ZM1162.8 194.187C1168.9 194.787 1174.4 194.387 1176.8 192.487C1177.3 190.587 1174.6 188.487 1167.9 187.387C1162 186.687 1156.1 187.287 1153.9 189.287C1153.6 191.187 1156.3 193.087 1162.8 194.187ZM1102 106.687L1105.5 105.187C1103.9 103.287 1098.1 103.387 1096.3 104.487C1095.7 105.187 1098 106.687 1102 106.687ZM1122.6 177.187C1128.4 177.687 1133.7 177.087 1135.9 175.187C1136.4 173.287 1134.4 171.487 1127.9 170.387C1121.9 169.787 1116 170.387 1113.8 172.287C1112.9 174.087 1116.1 176.187 1122.6 177.187ZM403.2 30.7871C407.9 30.7871 411.2 30.1871 413.5 28.9871C414.1 27.5871 411.9 26.7871 408.3 25.7871C403.3 25.7871 400.3 26.3871 398.1 27.6871C397.3 29.0871 399.9 30.0871 403.2 30.7871ZM181.2 52.5871C186.2 53.4871 193.3 53.0871 196.5 51.6871C200 50.0871 199.1 47.9871 194.9 46.9871C190 45.9871 183.3 46.3871 179.6 47.8871C176.1 49.4871 176.6 51.4871 181.2 52.5871ZM206.7 29.2871C211.7 29.4871 214.8 28.7871 217.4 27.6871C218 26.1871 215.9 25.2871 212.1 24.5871C207.7 24.3871 204.5 25.0871 201.7 26.2871C201 27.6871 203.2 28.5871 206.7 29.2871ZM181.7 14.8871C185.2 15.0871 187.8 14.6871 189.3 13.7871C189.7 12.7871 188.8 12.1871 186.2 11.6871C182.9 11.5871 180.3 11.9871 178.8 12.7871C178.6 13.7871 179.3 14.5871 181.7 14.8871ZM157.7 76.8871C163.2 78.2871 172.1 76.9871 176.5 75.4871C181 73.4871 178.1 70.9871 172.6 69.5871C166.7 68.3871 158.2 69.5871 153.9 71.1871C149.5 73.0871 152.2 75.6871 157.7 76.8871ZM157 37.9871C161.4 38.2871 166.6 38.2871 169.2 36.7871C170.3 35.3871 170.2 33.7871 165.9 33.0871C161.7 32.8871 156.5 32.8871 153.9 34.2871C152.8 35.7871 152.9 37.3871 157 37.9871ZM230.5 5.9871L234.6 4.68711C234.1 3.28711 229.2 3.38711 226.4 4.18711C225.7 4.88711 226.6 6.1871 230.5 5.9871ZM258.8 58.5871C264.7 58.9871 270.3 57.9871 273.8 56.3871C275.7 54.6871 272.6 52.8871 267 51.7871C261.5 51.3871 255.4 52.3871 252.1 54.1871C250.2 55.8871 253.3 57.6871 258.8 58.5871ZM253.9 20.2871C257.6 20.5871 260.7 20.0871 263.3 19.0871C264.8 17.9871 263 17.0871 259.4 16.4871C256.3 16.0871 252.6 16.7871 250.7 17.6871C249.1 18.6871 251.1 19.8871 253.9 20.2871ZM203 62.5871C200.4 64.4871 201.8 66.7871 208.3 67.6871C214.2 68.3871 222 67.6871 225.5 65.7871C228.5 64.0871 226.5 61.5871 220.1 60.7871C214.3 59.7871 206.9 60.5871 203 62.5871ZM228.2 77.6871C225.2 80.1871 230.5 82.3871 237 83.2871C244.9 84.1871 252.5 82.2871 255.7 80.3871C258.7 77.8871 253 75.5871 246.8 74.6871C238.8 73.8871 231.5 75.6871 228.2 77.6871ZM230.5 43.3871C235.1 44.4871 240.5 43.2871 244.2 42.1871C247.6 40.5871 243.9 39.0871 240.6 37.9871C235.6 37.0871 230.4 38.3871 226.5 39.3871C223.8 40.7871 226.9 42.3871 230.5 43.3871ZM33 81.3871C39.6 81.9871 46.2 80.8871 50.5 78.8871C52.7 76.8871 50.4 74.8871 44 73.7871C37.4 73.1871 30.8 74.2871 26.6 76.4871C24.6 78.4871 26.9 80.2871 33 81.3871ZM59.2 56.9871C64.1 57.4871 70.2 56.8871 73.3 55.1871C75.2 53.4871 73.8 51.8871 68.4 51.0871C63.5 50.5871 57.5 51.1871 54.2 52.9871C52.7 54.3871 53.8 56.1871 59.2 56.9871ZM279.1 33.9871C282.8 34.7871 288 34.2871 291.1 33.3871C294.1 32.0871 291.4 30.4871 288.8 29.5871C284.9 28.7871 279.9 29.5871 276.5 30.3871C273.8 31.4871 276 33.1871 279.1 33.9871ZM35 42.5871C38.8 42.9871 44 41.8871 45.7 40.5871C48.3 39.3871 43.9 38.1871 41.8 37.8871C37.9 36.7871 32.4 38.5871 30.2 39.5871C28.2 40.7871 31.7 42.0871 35 42.5871ZM12.3 28.0871C15.8 28.5871 17.6 27.0871 19.8 26.6871C21.7 25.3871 17.1 24.9871 15.6 24.3871C11.7 23.8871 10.4 25.4871 7.8 25.9871C6 27.1871 11 27.4871 12.3 28.0871ZM7 66.4871C11.9 67.4871 18.7 66.2871 22.8 65.0871C26.1 63.2871 23.2 61.5871 19.5 60.3871C14.4 59.3871 8.1 60.6871 4.1 61.8871C0.500002 63.5871 3.3 65.2871 7 66.4871ZM106.9 47.4871C111.3 48.0871 117.6 47.7871 120.5 46.6871C123.1 45.4871 122.8 43.3871 118.8 42.4871C115.1 41.9871 108.8 42.0871 105.3 43.4871C103.1 44.5871 103.1 46.6871 106.9 47.4871ZM60.2 18.6871C62.8 19.1871 65.7 18.5871 67.9 17.9871C69.4 17.2871 67.9 16.2871 66.4 15.7871C63.7 15.4871 60.9 15.9871 58.7 16.5871C56.9 17.4871 58.4 18.1871 60.2 18.6871ZM132.8 24.0871C136.1 24.6871 139.7 23.8871 141.8 23.0871C143.6 21.8871 141.6 20.9871 138.7 20.3871C135.4 19.7871 131.5 20.4871 129.8 21.5871C127.8 22.6871 129.8 23.4871 132.8 24.0871ZM110.5 9.88712L114.8 8.4871C114.1 7.1871 109.4 7.08711 106.3 8.18711C105.4 8.68711 106.5 9.98712 110.5 9.88712ZM133.8 62.5871C139.7 63.0871 145.7 61.9871 149.5 60.3871C151.2 58.5871 148.3 56.6871 142.6 55.8871C136.7 55.3871 131 56.2871 127.7 58.0871C125.9 59.9871 128.5 61.5871 133.8 62.5871ZM108.7 87.2871C116.1 88.1871 123.7 86.8871 127.9 84.8871C131.6 82.3871 128 80.1871 121.4 79.0871C114.6 78.1871 106.9 79.4871 102.4 81.6871C98.5 83.8871 102.6 86.0871 108.7 87.2871ZM84.9 71.9871C90.7 72.2871 98.5 71.0871 100.5 69.0871C101.7 67.2871 99.3 65.0871 92.5 64.6871C86.6 64.2871 79.1 65.2871 76.8 67.3871C75.7 69.3871 78.2 71.6871 84.9 71.9871ZM83.7 33.1871C87.2 33.3871 92.2 33.0871 94.6 31.8871C95.7 30.8871 95.4 29.3871 91.1 28.9871C87.4 28.4871 83 28.6871 80.4 30.1871C79.5 31.0871 79.1 32.4871 83.7 33.1871ZM524.8 27.0871C528.5 27.5871 531.8 26.8871 533.8 26.0871C535.6 24.9871 533 23.9871 529.8 23.4871C526.1 22.9871 522.5 23.5871 521.1 24.4871C519.4 25.4871 521.8 26.5871 524.8 27.0871ZM497.2 12.8871C500.1 13.0871 501.1 12.3871 503.2 11.7871C503.9 10.9871 501.2 10.4871 499.5 9.88712C496.7 9.68712 495.8 10.4871 493.9 11.0871C493.2 11.9871 495.9 12.4871 497.2 12.8871ZM506.4 50.5871C511.4 51.4871 517 50.3871 520.1 49.2871C523.7 47.7871 519.6 46.1871 516 45.1871C510.8 44.2871 505.7 45.3871 502.2 46.5871C498.9 47.9871 503.2 49.5871 506.4 50.5871ZM478.4 36.0871C482.8 36.7871 486.2 35.4871 488.6 34.4871C490.7 33.0871 486.4 32.1871 483.3 31.3871C478.4 30.7871 475.5 32.0871 472.9 32.8871C470.6 34.2871 475.2 35.3871 478.4 36.0871ZM287 73.2871C292.9 73.2871 302.2 72.9871 303.7 70.3871C304.1 68.5871 302.9 65.9871 294.9 65.4871C288.8 65.2871 280.1 65.8871 278.2 68.2871C278 70.0871 278.9 72.6871 287 73.2871ZM449.8 21.6871C453.1 22.3871 456.7 21.5871 458.1 20.6871C460.2 19.5871 457.8 18.6871 454.6 18.0871C451.3 17.6871 447.9 18.2871 445.9 19.1871C444 20.1871 446.4 21.0871 449.8 21.6871ZM600.3 32.7871C603.6 33.1871 607.1 32.5871 608.7 31.5871C610.5 30.5871 608.2 29.5871 604.6 28.9871C601.3 28.3871 597.9 29.0871 596.2 30.0871C594.5 31.0871 596.6 32.0871 600.3 32.7871ZM530.3 61.0871C529.5 62.5871 529.8 64.7871 536.9 65.4871C542 65.7871 548.9 65.7871 551.6 63.6871C552 62.0871 551.7 59.8871 545.6 59.1871C539.8 58.8871 533.1 58.9871 530.3 61.0871ZM613.9 70.8871C619.8 72.0871 625.3 70.6871 629.2 69.4871C632 67.9871 628.5 66.1871 624.3 64.8871C618.4 63.8871 612.5 64.9871 609 66.0871C606.1 67.8871 610 69.5871 613.9 70.8871ZM554.5 41.4871C558.8 42.2871 562.3 40.9871 564.4 39.9871C566.4 38.5871 562.4 37.6871 558.6 36.7871C554.2 36.1871 551.2 37.2871 548.8 38.3871C547.1 39.6871 551 40.7871 554.5 41.4871ZM582.6 56.0871C586.7 56.5871 593.2 56.5871 595.9 55.1871C597.8 53.9871 597.1 51.9871 592.8 51.1871C588.7 50.5871 582.4 50.5871 579.2 51.9871C577.5 53.1871 578 55.1871 582.6 56.0871ZM571.8 18.3871C574.6 18.6871 575.9 17.8871 577.4 17.2871C578 16.4871 575.3 16.1871 573.7 15.7871C570.5 15.4871 569.4 16.2871 567.9 16.6871C567.5 17.5871 569.8 17.8871 571.8 18.3871ZM459 59.9871C464.9 60.2871 471.6 60.0871 474.2 58.1871C475.2 56.5871 474.8 54.5871 468.2 53.7871C462.6 53.3871 456.1 53.4871 453.1 55.4871C452.4 56.9871 453 59.1871 459 59.9871ZM336 63.9871C342.1 64.2871 349.5 63.2871 351.2 61.0871C352.2 59.3871 349.4 57.0871 342.4 56.7871C336.5 56.3871 329.2 57.3871 327.4 59.4871C326.6 61.2871 329.5 63.4871 336 63.9871ZM352.9 1.58707C354.6 0.887075 352.4 0.687111 350.9 0.187111C348.7 -0.412889 347.4 0.587099 346.1 0.987099L350.8 2.18711L352.9 1.58707ZM326.2 25.1871C329.7 25.6871 333.2 25.5871 336.8 24.7871C338.5 23.5871 338.7 22.4871 336.1 21.5871C332 21.0871 327.8 20.9871 325 21.8871C323.8 23.1871 323.1 24.1871 326.2 25.1871ZM315.9 88.6871C323.1 89.1871 331.8 87.6871 334.1 85.2871C335.1 82.8871 330.9 80.4871 323.3 79.7871C316.1 79.4871 307.9 80.9871 305.3 83.2871C303.7 85.5871 307.9 88.1871 315.9 88.6871ZM301.5 11.1871C304.3 11.5871 307.1 11.0871 309.1 10.4871C310.6 9.5871 308.7 8.78712 306.9 8.38712C304.3 7.98712 301.7 8.28707 299.8 9.08707C298 9.88707 299.7 10.5871 301.5 11.1871ZM307.6 48.9871C313 49.3871 318.5 48.8871 321.3 47.1871C322.3 45.5871 321.2 43.9871 315.8 43.1871C310.7 42.8871 305.1 43.3871 302.3 44.8871C300.6 46.4871 302.2 48.0871 307.6 48.9871ZM354.7 39.7871C359.9 40.3871 364.4 39.3871 366.8 37.9871C369.3 36.4871 365.6 35.3871 361.7 34.4871C356.5 33.8871 352.4 34.8871 349.6 36.2871C347.2 37.5871 350.9 38.8871 354.7 39.7871ZM410.9 69.2871C416.8 70.0871 424.5 69.4871 427.3 67.3871C430.3 65.5871 428.1 63.1871 421.8 62.3871C415.7 61.3871 407.7 62.1871 404.7 64.1871C402.2 65.8871 404.7 68.2871 410.9 69.2871ZM632.6 47.1871C636.7 47.3871 640.2 46.5871 642.5 45.4871C642.7 44.2871 640.1 43.0871 636.2 42.3871C631.7 42.1871 628.7 42.8871 626.3 43.9871C625.7 45.5871 628.3 46.4871 632.6 47.1871ZM423.6 7.38712L427.5 6.08707C426.6 4.68707 421.7 4.68711 419.3 5.68711C418.7 6.38711 420.2 7.58712 423.6 7.38712ZM429.2 44.8871C433.4 45.4871 439.9 45.3871 443.1 44.2871C444.8 42.9871 444.3 40.9871 440.2 40.1871C436.1 39.4871 429.6 39.5871 426.4 40.8871C424.7 42.0871 425.1 44.0871 429.2 44.8871ZM1300.1 190.287C1304.9 190.787 1304.7 189.187 1307.2 188.287C1307.6 186.987 1301.8 186.587 1299.8 185.687C1294.9 185.087 1295.2 186.887 1292.5 187.587C1291.7 188.987 1297.5 189.387 1300.1 190.287ZM376.5 16.6871C380.6 17.0871 381.3 15.6871 383.5 15.1871C385.2 13.9871 380.6 13.6871 378.6 12.9871C374.7 12.6871 373.9 14.0871 371.5 14.5871C369.7 15.6871 374.9 15.9871 376.5 16.6871ZM382.1 54.2871C387.5 55.1871 393.6 54.0871 397.2 52.9871C400.5 51.2871 397 49.3871 393.4 48.2871C387.5 47.3871 381.9 48.3871 378.2 49.6871C374.9 51.3871 378.2 52.9871 382.1 54.2871ZM1325.7 394.787C1316 394.087 1306.6 395.887 1305.9 399.687C1306.5 403.487 1313.7 407.387 1323.7 408.787C1333.6 409.287 1342.6 407.587 1343.9 403.487C1342.9 399.987 1335.9 395.987 1325.7 394.787ZM1339 438.587C1337.4 435.787 1331 433.287 1323.8 432.387C1314.5 430.987 1306.1 432.487 1301.9 435.187C1300.5 437.987 1301.8 440.487 1305.5 443.287C1311.8 447.087 1323.2 447.687 1331.3 447.087C1339.6 446.387 1343 441.887 1339 438.587ZM1338.5 237.887C1343 238.587 1345.6 237.687 1347.4 236.587V233.787C1345.7 232.987 1342.9 232.387 1340.1 231.787C1334.7 230.887 1331.9 232.487 1329.9 233.887C1328.8 235.687 1333.6 236.987 1338.5 237.887ZM1332.3 301.887C1339.1 302.387 1344.5 301.287 1347.5 299.287V296.787C1345.8 294.987 1341.6 293.487 1336 292.387C1328.9 291.687 1322.8 292.887 1320.5 295.487C1320 297.987 1325.1 300.387 1332.3 301.887ZM1333.5 268.887C1339.4 269.987 1344.5 268.987 1347.5 267.787V264.287C1345.7 263.287 1343 262.387 1340.6 261.587C1333.8 260.287 1328.9 261.787 1325.6 263.287C1323 265.187 1328.9 267.687 1333.5 268.887ZM1343.4 208.487C1345.5 208.687 1346.7 208.487 1347.5 208.087V204.787C1345.9 204.387 1344 204.087 1342.6 203.687C1338.3 203.087 1338 204.987 1335.9 205.687C1335.2 206.987 1341.2 207.487 1343.4 208.487ZM1327.4 335.687C1336.3 336.587 1342.8 335.487 1345.5 332.587C1345.9 329.387 1341.4 326.687 1332.3 324.987C1323.7 324.187 1317.1 325.487 1314.4 328.187C1314 331.287 1319.4 333.987 1327.4 335.687ZM1344.9 179.087C1345.7 179.187 1346.7 179.087 1347.5 178.987V177.087C1347.1 176.987 1346.7 176.887 1346 176.687C1340.5 176.287 1340.6 178.487 1344.9 179.087ZM1323.9 370.987C1333.7 372.587 1341.8 370.787 1344.5 367.687C1346.9 364.287 1340 360.987 1330.4 359.087C1321.2 357.687 1313.6 359.687 1310.4 362.787C1308.3 365.987 1315.2 369.287 1323.9 370.987ZM0.100002 419.187C1.9 416.487 5.6 413.787 6.3 411.487C4.1 411.687 2 411.587 0.100002 411.587V361.987C1.1 362.187 2.1 362.287 3.2 362.487C3.3 358.787 6.4 355.387 11.7 351.987C8.7 351.987 4.5 351.887 0.100002 351.687V326.887C12.9 325.287 24.9 326.187 34.8 328.487C32.9 323.887 37.7 320.087 45.4 316.887C35.3 317.987 18.7 316.087 12.4 313.287L13.8 318.187C11.9 321.187 6.9 324.587 0 326.787V307.987C1.4 308.287 2.8 308.587 4.1 308.887C5.3 309.287 4.4 310.087 6.2 310.387L8.6 310.487C6.1 306.187 7.6 301.687 16.5 297.987C25.4 295.187 36.4 292.787 49 293.587L67 296.987C64.5 292.687 67 288.687 74.8 285.387C83.2 282.587 94.3 280.087 107 280.887C114.5 281.787 122.5 283.787 128.1 285.687C124 282.587 123.3 279.087 126.2 275.787C132.6 272.087 141.8 268.487 153.6 268.087C166 267.587 174.7 270.287 183.7 272.487C181.1 269.987 180.7 266.187 183.1 263.687C189.7 260.287 198.4 256.287 211.2 256.487C223.6 255.587 233.2 258.787 240.2 261.887C243 264.187 243.4 267.787 241.4 270.287C238.9 272.687 231.8 274.087 229.3 276.587C238.4 274.787 248.9 274.487 258.2 275.487C263 275.887 265.4 277.987 270.2 278.087C266.9 274.887 269.4 271.387 273.1 268.787C279.9 265.487 287.6 263.487 297.4 262.787C310.3 262.187 319.6 265.087 328.9 267.487C323.4 263.787 324.4 258.587 332.5 255.187C339.9 252.287 350.8 250.887 361.3 251.487C369.4 252.487 380 253.987 382.6 257.287C387.6 261.287 386.1 265.687 377.2 269.087C376.3 269.487 373.5 269.887 374.7 270.887C383.1 269.487 393.6 269.787 401.8 270.587C411.9 272.087 417.8 275.387 420 279.087C422.3 283.687 414 287.887 406.4 290.987C415.3 289.387 425.9 288.987 435.6 290.187C441 290.687 444.3 292.987 449.7 293.487C445.1 290.287 447.7 286.787 450.2 283.987C456.2 280.387 464.8 278.287 474.8 277.687C487.2 277.487 498.9 279.887 506.5 283.687C509.5 286.787 512.4 290.587 507.7 293.987C505.2 295.287 500.9 296.487 500.1 297.787C511.8 296.787 524.4 296.887 533.4 299.587C542.1 302.787 548.6 306.387 546.2 311.287C544.4 313.587 542.7 316.387 536 317.287L536.5 317.787C552 315.887 568 319.087 578.7 322.987C574.5 319.487 573.8 316.287 575.6 312.887C579.8 308.887 589.4 306.487 599.8 305.587C612.8 304.887 624.2 306.987 631.9 311.087C636.3 314.387 637.6 317.687 635.7 321.287C631.6 325.187 621.9 327.787 611.3 328.587C598.9 328.987 586.8 326.687 578.3 323.587C582 326.487 584.9 331.187 581.2 334.087L569.5 340.487C580.4 338.287 596.3 338.487 607 341.787C612 341.987 610.4 344.487 615.3 344.287C612.2 341.387 609.5 336.987 612.5 334.187C617.2 330.687 625.2 327.387 635.8 326.887C645.7 326.187 654.7 327.087 662.9 329.487C672.5 332.187 676.6 336.187 674.9 340.787C672.3 343.787 668.1 348.087 658.4 349.087C651.5 350.587 640.5 350.687 633.1 349.687L616.9 345.187C623.4 350.587 621.5 356.787 611.9 361.387C623.1 359.887 635.3 360.587 645 363.187C653.1 366.587 660.8 370.787 658.7 375.887C656.6 379.287 650.6 382.687 645.5 384.787C654.2 383.187 665 382.487 674.5 383.487C681.8 384.387 687.7 387.587 694.9 388.487C689.6 384.887 687.5 380.587 690.9 376.787C694.3 372.687 704.7 370.487 714.8 369.487C726.3 369.487 739.9 370.687 747.4 375.387C753.3 378.787 754.7 383.087 752.3 386.987C748.9 391.187 738.5 393.487 728.4 394.187C715.1 394.187 701.6 392.587 693.2 388.687C698.2 391.987 700.4 396.387 698.5 400.087C696.6 402.887 688.3 405.087 686.6 407.787C693.7 406.487 702.9 405.787 711.4 406.487C720.4 407.187 731.5 410.587 735.3 414.087C740.3 418.787 738.8 423.687 733 427.287C725.6 431.787 712.9 433.087 699.3 432.287C690.1 431.187 678.9 427.687 675.1 424.387C670.1 419.687 671.6 414.787 677.4 411.087C679.6 408.987 686.8 409.287 685.5 407.087C677.6 408.887 666.5 409.487 656.2 407.987C649.7 407.587 644.6 404.387 638 403.687C642.9 407.587 643.6 412.687 639.3 416.287C637 417.587 632.6 418.887 632.7 420.487C645.5 419.787 657.9 420.087 667.5 423.587C677.8 426.687 682 431.587 680.7 436.787C678.4 440.187 672.7 444.187 666.6 446.887C676.3 443.987 690.7 443.787 702 445.587C712.7 448.587 720.2 452.587 723 456.987C723.9 459.687 722.8 462.287 720.3 464.587H659.2C657 463.087 655.3 461.387 654.1 459.687C651.1 454.387 659.8 450.287 666.2 446.187C653.2 449.287 635.9 447.887 623.3 444.587C627.6 450.287 623 455.287 616.7 459.787C629.3 458.787 641 459.287 649.9 462.787C651.5 463.387 653 463.987 654.4 464.587H597.8C598.4 464.287 599 463.987 599.7 463.587C587 464.887 576.2 463.687 565.7 461.087C566.5 462.187 567 463.387 567.1 464.487H489.6C489.9 461.487 492 458.187 495 455.487C487.5 454.387 476.9 455.787 469.3 453.587C471.6 457.287 469 460.387 464.4 463.087C470.2 463.587 476 463.687 481.3 464.387H326.6L327.1 463.387C322.3 463.687 318.7 462.887 313.9 462.787C313.4 463.287 312.8 463.787 312.2 464.287H66.6L69.1 460.487C62.8 459.387 54.9 459.787 49.5 457.887C49.8 460.187 47.2 462.187 44.6 464.287H0.100002V419.187ZM36.6 436.087L15.4 433.387C16.1 436.787 11.8 439.887 7.6 442.987C15.5 443.187 25.2 442.587 30.1 443.987C30.8 441.187 32.9 438.787 36.6 436.087ZM68.9 397.587C61 397.387 54.5 396.287 47.5 395.487C49.7 398.587 44.2 401.087 41.5 403.987C49.4 403.787 56.3 404.587 63.4 405.287C61.5 402.087 64.4 399.687 68.9 397.587ZM97.9 421.187L81 419.087L76.1 426.587L92.5 427.987C94.3 425.587 93.1 422.787 97.9 421.187ZM98.7 359.887C90.6 360.487 83.3 359.187 77.2 357.787C76.8 360.687 75.5 363.787 70.6 366.487C78.6 366.887 87.2 367.687 93.6 368.787C92.1 365.487 98.7 362.687 98.7 359.887ZM124 389.087L128.3 382.587L108.9 381.287C110.5 383.887 107.3 386.187 104.2 388.487C111.2 388.087 117.9 389.387 124 389.087ZM130.3 445.687L115 443.587C113.4 445.687 111.4 447.887 109.2 450.087L126 451.387C126.8 449.487 127.8 447.287 130.3 445.687ZM156 406.187L144.7 405.087L141 410.587L153.8 411.187L156 406.187ZM161.8 345.987C153 346.287 145.1 345.587 138.4 344.287C138.2 347.487 135.8 350.787 132.7 352.987C140.1 352.787 147.4 353.387 153.6 354.287C155.8 351.487 155.3 348.087 161.8 345.987ZM182.4 321.087C183 317.387 187.1 313.987 191.1 311.187C180 312.087 170.9 310.287 163.1 308.787C165.3 312.787 161.2 316.287 156.6 319.287C166.6 318.487 174.8 319.787 182.4 321.087ZM187.2 430.487C179.3 428.087 176.6 432.587 177 434.487L186.9 434.787L187.2 430.487ZM188.8 368.887L171.6 367.187L167.3 374.387L183.6 374.787L188.8 368.887ZM189.9 339.487C199.1 339.387 207.1 340.187 214.8 341.687C212.6 338.087 220 334.187 220.1 332.587C211.6 332.687 202.1 331.787 196.3 330.987C196.5 334.087 192.9 337.287 189.9 339.487ZM205.3 395.787L217.3 396.387L219.6 391.987C215.2 392.087 210.9 390.487 206.8 391.287L205.3 395.787ZM225.5 455.187C216.7 452.687 210 455.687 212.2 458.987L224 460.287L225.5 455.187ZM251.5 415.587C248.8 414.687 244.7 414.587 242.7 414.787L241 417.887L248.7 418.487C251.7 417.687 250.4 416.487 251.5 415.587ZM245 361.587L249.9 354.287L231 352.987L227.5 359.787L245 361.587ZM288.9 439.487C285.4 439.187 283.3 439.087 280.1 438.687C277.4 439.887 278 441.487 276.5 442.887L285.3 443.687C287.8 442.387 287.9 441.087 288.9 439.487ZM276.6 382.387C279.4 380.787 279.2 378.687 281.4 376.987L266 375.387L263.1 381.387C267.8 381.787 272.8 381.487 276.6 382.387ZM286.1 346.287L306.4 347.887C305.5 344.787 308.4 342.687 312.6 339.987C304.1 340.287 295.7 339.587 289.8 338.887C292.1 341.787 287.2 343.787 286.1 346.287ZM304.6 313.987C315 313.287 323.7 314.187 331.6 316.087C331.8 312.187 332.8 308.787 339.5 306.387C332 305.987 318.2 305.487 310.4 303.487C312.4 306.987 310 310.687 304.6 313.987ZM339.1 334.487C349.9 333.587 357.7 334.887 365.8 336.487C365.1 332.987 367.5 329.587 373.7 326.987C362.8 327.587 354 326.187 345.1 324.487C347 328.287 343.2 331.487 339.1 334.487ZM314.6 400.087L302.9 399.487L302.8 403.887L311.9 404.387C312.9 402.787 316.3 401.287 314.6 400.087ZM338.7 369.687L344.2 362.487C337.4 362.587 330.8 361.887 325.4 360.887L321.4 368.087C327.4 367.887 333.6 368.587 338.7 369.687ZM351.7 424.187L339.6 422.887L336.7 427.787C340.5 428.487 344.5 429.287 349.8 429.187C348.7 427.087 351.6 425.787 351.7 424.187ZM356.7 389.987L374.8 392.287L380 385.187L360.4 383.587C361.4 385.887 359.4 387.987 356.7 389.987ZM378.2 354.687L400 356.387C399.1 353.287 402.6 350.987 406.1 348.387C396.7 348.987 388.2 347.287 380.9 346.487C382.6 349.487 381 352.287 378.2 354.687ZM391.7 447.087L374.4 446.487L370.6 452.587C375.9 454.087 382.1 453.987 388 454.787C387.1 452.087 390.4 449.687 391.7 447.087ZM415.4 407.887C408.5 408.687 402.4 406.787 397.7 407.087L394.1 412.887C399 414.187 405.4 414.287 411.1 414.987L415.4 407.887ZM415.1 377.187C421.7 377.187 428.7 377.687 434.5 378.687L439.5 370.287C431.9 370.187 424.4 369.787 418 368.687C419.9 371.887 413.8 374.687 415.1 377.187ZM453.4 431.887L435.1 430.087C432.7 432.887 432.1 435.487 428.6 438.287C435.6 437.987 443 438.587 448.8 439.887C448.1 436.887 451.8 434.387 453.4 431.887ZM477.3 392.487C468.9 393.387 461.8 392.187 454.8 391.487C457.6 394.587 452.4 396.987 450.9 399.687C458.4 400.187 466.3 400.587 473.2 402.187C471.5 398.687 475.7 395.187 477.3 392.487ZM469.3 363.687C478.7 363.987 488.5 364.187 495.7 366.787C494.7 362.887 496.9 359.387 501.3 356.287C492.5 356.487 482 355.887 473.2 353.987C476.2 357.487 472.7 360.687 469.3 363.687ZM515.5 415.887C506.8 416.287 497.8 415.387 491.4 414.487L486.5 423.687C496.5 422.787 505 425.887 512.1 426.587C508.2 422.187 514.4 419.187 515.5 415.887ZM505.8 386.787C516.1 386.587 526.4 387.387 534.4 390.087C530.8 385.387 535.6 381.487 541.1 377.987C533.1 378.587 518.6 377.687 509.3 375.187C512.4 379.887 508.6 383.487 505.8 386.787ZM559.3 438.887C547.6 440.187 536.6 438.287 527.6 437.187C529.1 441.287 526.8 445.087 521.6 448.187C532 447.687 543.2 448.987 552.6 451.187C548.7 446.487 553.8 442.787 559.3 438.887ZM578.5 400.887C566 401.987 556.7 399.887 547.4 398.187C549.5 402.387 548.9 405.987 543.8 409.287C551.2 409.187 563.2 409.987 571.5 412.887C570.8 408.487 574 404.087 578.5 400.887ZM619.6 423.487C607.6 425.487 594.8 423.787 585.7 421.587C589.8 426.587 583 430.687 579.4 434.187C591.9 433.087 601.5 434.987 611.2 436.687C610 433.187 610.4 427.287 619.6 423.487ZM599.2 395.787C609 396.087 625.1 396.087 635.1 400.987L631.2 395.987C630.8 391.687 637.9 387.187 643.3 385.387C630.6 387.087 614.7 387.287 604 383.187C607.2 388.087 604.9 392.087 599.2 395.787ZM565.4 360.887C567.2 365.087 568.8 370.387 559 373.787C571.4 372.587 581.9 374.087 591.9 376.187C586.1 371.087 595.2 366.187 599.6 363.787C586.8 364.687 574.6 364.587 565.4 360.887ZM526.6 338.787C533.2 342.587 527.6 346.987 524 350.687C532.1 351.187 546.4 350.687 554.8 354.487L553.3 350.287C552.4 346.487 561.6 341.787 566.9 340.687C553.7 342.787 537.4 342.487 526.6 338.787ZM489.9 316.587C493.7 321.387 494.7 326.587 483 330.087C495 329.787 511.6 330.787 517.9 333.287C514.2 328.187 517.7 323.787 526.3 320.287L512.6 320.987C503.9 320.587 495.1 319.187 489.9 316.587ZM448.6 309.387C462.1 308.487 474.7 308.987 483.9 313.287L482.4 310.487C477.3 306.187 489.4 301.387 490.2 300.387C477.9 301.087 464.3 300.787 454.6 296.787C460.9 301.187 456.2 305.787 448.6 309.387ZM433.1 342.387C442.3 341.987 451.3 343.087 458.8 344.887C457.8 340.887 460.6 337.387 467.6 334.187C456.3 335.087 446.2 333.987 437.3 332.287C439.4 335.687 437.5 339.787 433.1 342.387ZM399.8 309.887C403.6 314.087 401.5 318.187 394.5 321.687C404.5 321.487 416.3 321.887 424.1 323.787C423.5 319.887 424.8 315.787 431.8 313.087C420.6 314.287 408.3 313.087 399.8 309.887ZM364.5 288.687C369.4 292.887 367.3 297.787 359.7 301.487C368.7 301.087 382.5 301.487 391 304.787L389.7 301.287C391.2 297.387 395.9 292.987 405.8 290.787C400.4 291.787 395.1 292.787 388 292.687C379.3 292.487 369.7 290.787 364.5 288.687ZM332.6 273.387C332.7 277.087 325.2 281.287 319.7 282.987C333.6 280.687 348.5 281.887 359.3 285.987L356.3 280.787C357.1 277.187 363.5 273.987 369 271.887L353.2 272.987C343.1 273.087 333.8 270.587 328.6 267.787L332.6 273.387ZM269.7 293.987C279.3 293.687 290.7 293.887 298.8 296.187C299 292.387 302.3 286.587 315.4 283.787C302.7 286.287 286.4 285.687 276.6 282.387C281.3 286.187 276.7 290.487 269.7 293.987ZM253.1 316.087C255.7 319.487 251 323.487 249.4 326.387C258.5 325.287 266.6 327.287 273.6 327.787C273.1 324.487 275.4 321.587 280.4 319.087C269.9 319.187 260.9 318.587 253.1 316.087ZM219.6 294.587C223 298.987 220.6 303.087 213 306.687C223 305.487 236.3 307.887 242.1 308.987C241.6 304.887 243.8 301.087 251.9 297.987C239.7 299.187 228.4 297.787 219.6 294.587ZM174.5 288.187C188.8 285.487 203.2 287.787 213.4 290.387C213.1 288.987 210.6 287.987 211.6 286.587C212.7 282.487 217.3 278.787 226.9 276.887C211.9 279.187 195.9 277.887 185.3 273.787L188.2 278.487C187.5 282.287 183.2 285.287 174.5 288.187ZM122.1 299.787C134.9 298.387 144.3 300.087 153.6 301.987C153.1 297.187 155.8 292.987 167.3 289.787L154.6 290.787C143.5 290.687 135.2 288.887 127.3 285.887L129.8 287.487C133.2 291.687 130.5 296.287 122.1 299.787ZM103.6 321.587C104.7 325.587 103 329.187 96 332.587C106.6 331.987 116 332.287 123.6 333.887C123.1 330.287 126.8 326.887 130.2 324.187C120.1 324.787 110.6 323.887 103.6 321.587ZM63.4 312.987C75.9 311.887 85.9 313.187 95 315.487C93.4 311.187 96.9 307.587 103.5 304.187C93.7 304.387 80 303.987 71.9 300.587C75.9 305.187 70.3 309.387 63.4 312.987ZM37.3 346.387C47.8 345.987 56.9 346.787 64.7 348.487C65.3 344.587 66.8 340.787 74.1 337.887C62.1 338.987 53.4 337.187 45.4 335.787C47.1 339.987 41.7 343.587 37.3 346.387ZM7.2 382.287L19.1 382.087C38.1 389.087 28 376.387 38.8 374.187C29.6 374.987 23 372.787 14.9 371.887C15.7 375.787 11.3 379.287 7.2 382.287ZM1303.4 161.987C1305.2 161.787 1307.2 162.087 1307.6 161.187C1307.4 160.787 1306.9 159.987 1304.5 159.687C1299.5 158.987 1299.5 161.387 1303.4 161.987Z" fill="url(#paint0_linear_393_6451)" fill-opacity="0.5"/>
</g>
<defs>
<linearGradient id="paint0_linear_393_6451" x1="1347.48" y1="232.224" x2="0.136523" y2="232.224" gradientUnits="userSpaceOnUse">
<stop stop-color="#D617FF"/>
<stop offset="1" stop-color="#410263"/>
</linearGradient>
<clipPath id="clip0_393_6451">
<rect width="1348" height="285" fill="white"/>
</clipPath>
</defs>
</svg>
