<svg width="205" height="48" viewBox="0 0 205 48" fill="none" xmlns="http://www.w3.org/2000/svg">
<path d="M19.0559 17.3017C20.5319 17.1491 21.8587 15.9524 21.5194 14.207C20.8202 11.9602 17.9541 11.9375 16.6129 13.6107C15.1002 15.5047 16.8173 17.5307 19.0539 17.2914" fill="black"/>
<path d="M8.4315 22.7385C7.6015 23.2069 8.46626 24.0487 9.45367 24.3272C10.2714 24.5562 11.1505 24.3726 11.2077 23.6628C11.1321 22.5838 9.29626 22.2517 8.43355 22.7385" fill="black"/>
<path d="M24.9213 21.9627C26.3809 21.9483 28.3496 20.7806 28.1534 18.2284C27.6281 15.239 24.2446 14.7005 22.5171 16.6233C20.4728 18.9093 22.2882 21.9874 24.9213 21.9627Z" fill="black"/>
<path d="M22.7441 24.0549C22.6276 21.7567 19.8636 21.0489 18.1464 22.324C16.2144 23.7682 17.39 26.1758 19.5774 26.4852C21.0084 26.6916 22.6316 25.8189 22.7379 24.0549" fill="black"/>
<path d="M13.8634 29.1121C14.9836 29.5412 16.2941 29.3184 16.5517 28.1816C16.7029 26.5166 14.3253 25.7264 12.97 26.3062C11.5267 26.9251 12.2728 28.5035 13.8634 29.1121Z" fill="black"/>
<path d="M7.64846 27.4973C7.01879 27.6005 7.54829 28.5062 8.40895 29.1478C9.13674 29.6904 10.0444 29.9483 10.2877 29.4407C10.5289 28.4979 8.39464 27.3777 7.64846 27.4994" fill="black"/>
<path d="M37.1158 14.1692C37.8148 14.1816 38.3668 13.3563 38.0173 11.8069C37.4837 9.90265 36.1262 9.04232 35.4312 9.6984C34.3109 10.7609 35.5844 14.1445 37.1158 14.1692Z" fill="black"/>
<path d="M34.4255 20.3816C35.4211 20.2517 36.7274 19.0097 36.5128 16.6494C36.4985 16.5627 36.4842 16.4431 36.4658 16.3605C35.9853 13.9178 33.6773 13.0865 32.4139 14.904C30.899 17.0807 32.2095 20.6642 34.4255 20.3816Z" fill="black"/>
<path d="M16.8891 30.9029C15.0859 31.7467 15.8035 33.4838 17.6394 34.1192C18.9967 34.5876 20.7447 34.303 21.3192 33.0176C21.8834 31.07 18.8986 29.9621 16.8871 30.9029" fill="black"/>
<path d="M38.878 19.1301C38.3997 18.014 37.2998 18.3998 36.7008 19.8955C35.9342 21.808 36.5127 23.9578 37.6534 23.4318C38.3138 23.1264 39.0273 21.8534 39.0722 20.2503C39.0798 19.8678 39.014 19.4874 38.878 19.1301Z" fill="black"/>
<path d="M27.6707 30.5392C28.693 29.3013 28.8974 27.8571 28.2064 26.6914C29.433 27.3908 30.8783 27.1391 32.0906 26.0127C31.2729 27.43 31.0071 28.9134 31.418 29.883L31.3342 29.846C30.6228 29.5551 29.2899 29.5859 27.6544 30.5392M32.1233 30.5969C34.1984 31.088 36.4451 28.3048 36.762 25.7672C36.8805 23.3822 35.0856 23.0644 33.4645 24.3827C33.3132 24.5045 33.1333 24.6881 32.9901 24.8201C34.7462 21.3335 32.3134 18.5544 29.5148 19.6252C27.3253 20.4628 25.8451 23.4089 27.2905 25.8146C23.5596 24.0341 20.215 27.8344 21.2249 30.306C21.2372 30.3348 22.4781 33.2501 26.2867 31.6181C24.2628 33.7762 25.0274 35.4844 27.0104 35.4597C29.5455 35.4308 32.8675 32.6621 32.1213 30.599" fill="black"/>
<path d="M19.4731 35.5042C18.2751 36.4161 18.8311 37.5508 20.6158 37.8439C22.1245 38.0914 24.3386 37.6375 25.2791 36.4471C25.3814 36.2963 25.4511 36.1255 25.4835 35.9457C25.7043 34.2787 21.4888 33.9693 19.4689 35.5042" fill="black"/>
<path d="M13.0681 36.1334C12.2279 36.414 12.6264 37.2165 13.9041 37.8189C15.0531 38.3616 16.8459 38.6442 17.7353 38.1305C17.8303 38.0673 17.906 37.9788 17.9541 37.8747C18.3139 36.8555 14.4194 35.6857 13.0681 36.1334Z" fill="black"/>
<path d="M40.0658 21.5145C39.6897 21.1925 38.6349 24.1717 38.8393 24.9826C38.8965 25.2053 39.0437 25.1559 39.2358 24.8484C39.5118 24.411 39.888 23.3795 40.076 22.2551C40.1027 22.0612 40.1701 21.6052 40.0638 21.5145" fill="black"/>
<path d="M34.8198 31.1896C34.8096 31.6374 35.1592 31.6208 35.7071 31.1442C36.6429 30.2474 37.3783 29.1592 37.8639 27.9525C37.9395 27.7298 38.0969 27.2655 37.917 27.1273C37.3344 26.6714 34.8505 29.9373 34.8198 31.1917" fill="black"/>
<path d="M28.7075 36.2326C28.546 36.7607 29.106 36.804 30.0976 36.3399C31.267 35.7952 33.0006 34.5243 33.8776 33.3422C33.9982 33.1564 34.2026 32.8449 34.1188 32.6572C33.7325 31.8071 29.1327 34.8503 28.7075 36.2326Z" fill="black"/>
<path d="M61.0143 27.0521L61.0572 28.9956H60.8426L59.6466 27.0521L55.0059 19.8105H51.5857V34.2524H54.7913V27.4194L54.7504 25.1973H54.9548L56.3449 27.4194L60.8017 34.2524H64.2219V19.8105H61.0143V27.0521Z" fill="black"/>
<path d="M68.2634 19.8105H67.3721V34.2524H78.2991V31.3476H70.5716V28.4343H77.97V25.5461H70.5716V22.7195H78.2911V19.8105H68.2634Z" fill="black"/>
<path d="M90.3508 28.5851C90.3762 29.1489 90.2814 29.7117 90.0728 30.2355C89.9795 30.4365 89.8472 30.6164 89.6834 30.7646C89.5198 30.9128 89.3281 31.0261 89.12 31.0979C87.9078 31.4445 86.6239 31.4445 85.4116 31.0979C84.9935 30.9488 84.651 30.6387 84.4589 30.2355C84.2433 29.7135 84.1449 29.1499 84.1707 28.5851V19.8105H80.9856V28.6365C80.9562 29.718 81.1951 30.7896 81.6807 31.754C82.1509 32.6319 82.8834 33.338 83.7741 33.7717C84.7091 34.2489 85.8743 34.4862 87.2699 34.4834C88.6656 34.4808 89.824 34.2434 90.7453 33.7717C91.6382 33.3367 92.3743 32.6313 92.851 31.754C93.3446 30.7921 93.588 29.7194 93.5583 28.6365V19.8105H90.3508V28.5851Z" fill="black"/>
<path d="M99.8773 19.8105H95.2673V22.7237H99.8773V34.2771H103.085V22.7237H107.705V19.8105H99.8773Z" fill="black"/>
<path d="M116.244 26.4514H112.716V22.7171H116.244C116.999 22.7171 117.52 22.8533 117.804 23.1297C118.088 23.4062 118.232 23.8848 118.232 24.5739C118.232 25.263 118.09 25.7705 117.804 26.0428C117.518 26.3152 116.999 26.4555 116.244 26.4555M119.258 29.2386C118.853 28.8364 118.353 28.5464 117.804 28.3968V28.1803C118.522 28.1283 119.221 27.917 119.849 27.5613C120.372 27.2504 120.787 26.7833 121.037 26.2244C121.306 25.5873 121.438 24.8992 121.421 24.2067C121.447 23.3694 121.234 22.542 120.807 21.8237C120.371 21.1487 119.741 20.6246 119 20.3218C118.076 19.9542 117.088 19.781 116.095 19.8122H109.508V34.2542H112.716V29.117H113.998C114.408 29.1 114.819 29.163 115.206 29.3026C115.502 29.4272 115.761 29.6278 115.956 29.8844C116.198 30.2075 116.409 30.5529 116.586 30.916L118.276 34.2542H122.015L120.2 30.6292C119.959 30.1151 119.642 29.6417 119.258 29.2263" fill="black"/>
<path d="M133.681 29.6539C133.495 30.2225 133.095 30.6949 132.569 30.9702C131.947 31.2459 131.27 31.375 130.591 31.3479C129.905 31.3762 129.221 31.2471 128.592 30.9702C128.066 30.6943 127.667 30.2221 127.481 29.6539C127.246 29.0281 127.129 28.1541 127.129 27.0317C127.129 25.9093 127.244 25.0319 127.476 24.3991C127.665 23.8348 128.063 23.3664 128.589 23.0932C129.218 22.8174 129.902 22.6884 130.588 22.7157C131.267 22.6893 131.942 22.8184 132.564 23.0932C133.09 23.3658 133.489 23.8343 133.677 24.3991C133.912 25.0181 134.03 25.8957 134.03 27.0317C134.03 28.1679 133.912 29.0419 133.677 29.6539M134.266 20.5041C133.239 19.8933 132.012 19.5873 130.585 19.5859C129.158 19.5845 127.932 19.8906 126.906 20.5041C125.886 21.1177 125.066 22.0173 124.545 23.0932C123.994 24.3321 123.71 25.6743 123.71 27.0317C123.71 28.3893 123.994 29.7313 124.545 30.9702C125.066 32.0466 125.886 32.9464 126.906 33.5595C127.925 34.1729 129.151 34.4789 130.585 34.4776C132.019 34.4761 133.247 34.1701 134.266 33.5595C135.289 32.9512 136.111 32.0501 136.627 30.9702C137.169 29.7295 137.45 28.3882 137.45 27.0317C137.45 25.6753 137.169 24.3339 136.627 23.0932C136.11 22.0139 135.288 21.1129 134.266 20.5041Z" fill="black"/>
<path d="M149.494 27.0521L149.535 28.9956H149.33L148.124 27.0521L143.486 19.8105H140.063V34.2524H143.27V27.4194L143.228 25.1973H143.432L144.822 27.4194L149.279 34.2524H152.701V19.8105H149.494V27.0521Z" fill="black"/>
<path d="M164.096 26.6345C163.81 26.9288 163.297 27.0761 162.558 27.0761H159.051V22.7166H162.558C163.297 22.7166 163.81 22.8604 164.096 23.1479C164.381 23.4367 164.523 24.0185 164.523 24.8974C164.523 25.7762 164.381 26.3416 164.096 26.6345ZM165.165 20.408C164.314 19.9969 163.378 19.7928 162.434 19.8118H155.844V34.2536H159.051V29.9665H162.434C163.379 29.9838 164.316 29.7812 165.171 29.3743C165.95 28.9969 166.601 28.3962 167.043 27.6475C167.485 26.7995 167.717 25.8551 167.717 24.8964C167.717 23.9376 167.485 22.9933 167.043 22.1452C166.598 21.3955 165.949 20.792 165.171 20.408" fill="black"/>
<path d="M173.394 28.1538L174.212 25.9091L175.301 22.6514H175.506L176.554 25.9091L177.373 28.1538H173.394ZM173.12 19.8105L167.837 34.2524H171.174L172.344 31.0359H178.417L179.576 34.2524H183.052L177.782 19.8105H173.12Z" fill="black"/>
<path d="M192.486 19.811L190.237 23.6093L189.012 25.7467H188.807L187.58 23.601L185.331 19.811H181.694L187.275 29.0456V34.2529H190.481V29.0373L196.062 19.8027L192.486 19.811Z" fill="black"/>
</svg>
