<svg width="130" height="105" viewBox="0 0 130 105" fill="none" xmlns="http://www.w3.org/2000/svg">
<path d="M5 12.8169C13.2438 18.4849 23.2 21.2069 33.2234 20.5331V99.8993C23.2 100.573 13.2438 97.8511 5 92.1831V12.8169Z" fill="#EA0020" stroke="white" stroke-width="10" stroke-linecap="round" stroke-linejoin="round"/>
<path d="M96.7766 5.10073C106.8 4.42686 116.756 7.14887 125 12.8169V92.1831C116.756 86.5151 106.8 83.7931 96.7766 84.4669V5.10073Z" fill="#EA0020" stroke="white" stroke-width="10" stroke-linecap="round" stroke-linejoin="round"/>
<path d="M32.8171 20.9339C54.2385 19.9318 75.6598 6.50369 97.0811 5.50159V83.9659C75.6598 84.968 54.2385 98.3961 32.8171 99.3982V20.9339Z" fill="white" stroke="white" stroke-width="10" stroke-linecap="round" stroke-linejoin="round"/>
<path d="M65.0002 32.458C63.8834 34.863 62.8682 37.2681 61.7514 39.6731C61.6264 39.9794 61.3923 40.23 61.0931 40.3776C60.7939 40.5253 60.4503 40.5599 60.1271 40.4748C59.3389 40.3558 58.5591 40.1884 57.792 39.9737C58.4012 42.98 58.9088 45.8861 59.5179 48.8924C59.924 50.4958 58.7057 50.8966 58.0966 50.2954C56.7768 49.1931 55.3555 48.0907 54.0357 46.8882C53.8326 47.7901 53.6296 48.5918 53.4265 49.4937C53.3746 49.703 53.2594 49.8918 53.0962 50.035C52.933 50.1782 52.7296 50.269 52.5128 50.2954L47.3352 50.596C47.8428 52.1993 48.2489 53.7025 48.7565 55.3059C49.0611 56.4082 49.2641 56.809 48.4519 57.31C47.8428 57.7109 47.2336 58.2119 46.6245 58.6128C49.5687 60.3163 52.5128 61.9197 55.457 63.5231C55.6467 63.6288 55.7919 63.798 55.8664 64.0002C55.9409 64.2023 55.9397 64.424 55.8631 64.6254C55.5585 65.5273 55.3555 66.5294 55.0509 67.4312L63.8834 63.5231C64.188 63.4228 64.5941 63.5231 64.5941 63.8237C64.4925 67.0304 64.2895 70.3373 64.188 73.544C64.6956 73.3436 65.2032 73.2434 65.7108 73.043C65.6093 69.9365 65.5078 66.7298 65.5078 63.6233C65.5497 63.442 65.6366 63.2738 65.7606 63.1339C65.8847 62.994 66.042 62.8867 66.2184 62.8216C69.1626 62.2203 72.1068 61.5189 75.0509 61.0178C74.7464 60.2161 74.5433 59.4145 74.2387 58.6128C74.1849 58.364 74.1937 58.1059 74.2645 57.8613C74.3353 57.6167 74.4659 57.393 74.6448 57.2098C77.589 53.8027 80.5332 50.4958 83.4773 47.3893C82.8682 47.2891 82.2591 47.0886 81.6499 46.9884C80.8377 46.8882 81.0408 46.3872 81.3453 45.1847C81.853 43.3809 82.2591 41.5771 82.7667 39.7733C81.0408 40.575 79.3149 41.3767 77.589 42.2786C77.1829 42.479 76.7768 42.3788 76.6753 41.9779C76.4723 41.2765 76.2692 40.575 76.0662 39.7733C74.7464 41.7775 73.325 43.6815 72.0052 45.6857C71.3961 46.5876 70.2794 46.9884 70.5839 45.1847C71.0915 41.8777 71.7007 38.5708 72.2083 35.1637L69.8733 37.1679C69.2641 37.7691 68.5535 38.0698 68.2489 37.4685C67.1321 35.8651 66.0154 34.1616 65.0002 32.458Z" fill="#EA0020" stroke="white" stroke-width="10" stroke-linecap="round" stroke-linejoin="round"/>
<path d="M5 12.8169C13.2438 18.4849 23.2 21.2069 33.2234 20.5331V99.8993C23.2 100.573 13.2438 97.8511 5 92.1831V12.8169Z" fill="#EA0020"/>
<path d="M96.7766 5.10073C106.8 4.42686 116.756 7.14887 125 12.8169V92.1831C116.756 86.5151 106.8 83.7931 96.7766 84.4669V5.10073Z" fill="#EA0020"/>
<path d="M32.8171 20.9339C54.2385 19.9318 75.6598 6.50369 97.0811 5.50159V83.9659C75.6598 84.968 54.2385 98.3961 32.8171 99.3982V20.9339Z" fill="white"/>
<path d="M65.0002 32.458C63.8834 34.863 62.8682 37.2681 61.7514 39.6731C61.6264 39.9794 61.3923 40.23 61.0931 40.3776C60.7939 40.5253 60.4503 40.5599 60.1271 40.4748C59.3389 40.3558 58.5591 40.1884 57.792 39.9737C58.4012 42.98 58.9088 45.8861 59.5179 48.8924C59.924 50.4958 58.7057 50.8966 58.0966 50.2954C56.7768 49.1931 55.3555 48.0907 54.0357 46.8882C53.8326 47.7901 53.6296 48.5918 53.4265 49.4937C53.3746 49.703 53.2594 49.8918 53.0962 50.035C52.933 50.1782 52.7296 50.269 52.5128 50.2954L47.3352 50.596C47.8428 52.1993 48.2489 53.7025 48.7565 55.3059C49.0611 56.4082 49.2641 56.809 48.4519 57.31C47.8428 57.7109 47.2336 58.2119 46.6245 58.6128C49.5687 60.3163 52.5128 61.9197 55.457 63.5231C55.6467 63.6288 55.7919 63.798 55.8664 64.0002C55.9409 64.2023 55.9397 64.424 55.8631 64.6254C55.5585 65.5273 55.3555 66.5294 55.0509 67.4312L63.8834 63.5231C64.188 63.4228 64.5941 63.5231 64.5941 63.8237C64.4925 67.0304 64.2895 70.3373 64.188 73.544C64.6956 73.3436 65.2032 73.2434 65.7108 73.043C65.6093 69.9365 65.5078 66.7298 65.5078 63.6233C65.5497 63.442 65.6366 63.2738 65.7606 63.1339C65.8847 62.994 66.042 62.8867 66.2184 62.8216C69.1626 62.2203 72.1068 61.5189 75.0509 61.0178C74.7464 60.2161 74.5433 59.4145 74.2387 58.6128C74.1849 58.364 74.1937 58.1059 74.2645 57.8613C74.3353 57.6167 74.4659 57.393 74.6448 57.2098C77.589 53.8027 80.5332 50.4958 83.4773 47.3893C82.8682 47.2891 82.2591 47.0886 81.6499 46.9884C80.8377 46.8882 81.0408 46.3872 81.3453 45.1847C81.853 43.3809 82.2591 41.5771 82.7667 39.7733C81.0408 40.575 79.3149 41.3767 77.589 42.2786C77.1829 42.479 76.7768 42.3788 76.6753 41.9779C76.4723 41.2765 76.2692 40.575 76.0662 39.7733C74.7464 41.7775 73.325 43.6815 72.0052 45.6857C71.3961 46.5876 70.2794 46.9884 70.5839 45.1847C71.0915 41.8777 71.7007 38.5708 72.2083 35.1637L69.8733 37.1679C69.2641 37.7691 68.5535 38.0698 68.2489 37.4685C67.1321 35.8651 66.0154 34.1616 65.0002 32.458Z" fill="#EA0020"/>
</svg>
