<svg width="130" height="105" viewBox="0 0 130 105" fill="none" xmlns="http://www.w3.org/2000/svg">
<path d="M5 12.8044C45.0332 39.8398 85.0664 -14.2309 125 12.8044V18.4536C84.9668 -8.58173 44.9336 45.4889 5 18.4536V12.8044Z" fill="#D80031" stroke="white" stroke-width="10" stroke-linecap="round" stroke-linejoin="round"/>
<path d="M5 18.4536C45.0332 45.4889 85.0664 -8.58173 125 18.4536V24.0624C84.9668 -2.97291 44.9336 51.0977 5 24.0624V18.4536Z" fill="white" stroke="white" stroke-width="10" stroke-linecap="round" stroke-linejoin="round"/>
<path d="M5 24.0624C45.0332 51.0977 85.0664 -2.97296 125 24.0624V29.7115C84.9668 2.67621 44.9336 56.7469 5 29.7115V24.0624Z" fill="#D80031" stroke="white" stroke-width="10" stroke-linecap="round" stroke-linejoin="round"/>
<path d="M5 29.7518C45.0332 56.7871 85.0664 2.71649 125 29.7518V35.401C84.9668 8.36566 44.9336 62.4363 5 35.401V29.7518Z" fill="white" stroke="white" stroke-width="10" stroke-linecap="round" stroke-linejoin="round"/>
<path d="M5 35.5019C45.0332 62.5373 85.0664 8.46661 125 35.5019V41.1511C84.9668 14.1158 44.9336 68.1864 5 41.1511V35.5019Z" fill="#D80031" stroke="white" stroke-width="10" stroke-linecap="round" stroke-linejoin="round"/>
<path d="M5 41.1511C45.0332 68.1864 85.0664 14.1158 125 41.1511V46.8003C84.9668 19.765 44.9336 73.8356 5 46.8003V41.1511Z" fill="white" stroke="white" stroke-width="10" stroke-linecap="round" stroke-linejoin="round"/>
<path d="M5 46.8003C45.0332 73.8356 85.0664 19.765 125 46.8003V52.4494C84.9668 25.4141 44.9336 79.4848 5 52.4494V46.8003Z" fill="#D80031" stroke="white" stroke-width="10" stroke-linecap="round" stroke-linejoin="round"/>
<path d="M5 52.4496C45.0332 79.4849 85.0664 25.4142 125 52.4496V58.0987C84.9668 31.0634 44.9336 85.1341 5 58.0987V52.4496Z" fill="white" stroke="white" stroke-width="10" stroke-linecap="round" stroke-linejoin="round"/>
<path d="M5 58.1996C45.0332 85.2349 85.0664 31.1642 125 58.1996V63.8487C84.9668 36.8134 44.9336 90.8841 5 63.8487V58.1996Z" fill="#D80031" stroke="white" stroke-width="10" stroke-linecap="round" stroke-linejoin="round"/>
<path d="M5 63.8489C45.0332 90.8842 85.0664 36.8135 125 63.8489V69.4577C84.9668 42.4224 44.9336 96.493 5 69.4577V63.8489Z" fill="white" stroke="white" stroke-width="10" stroke-linecap="round" stroke-linejoin="round"/>
<path d="M5 69.4575C45.0332 96.4928 85.0664 42.4222 125 69.4575V75.1067C84.9668 48.0713 44.9336 102.142 5 75.1067V69.4575Z" fill="#D80031" stroke="white" stroke-width="10" stroke-linecap="round" stroke-linejoin="round"/>
<path d="M5 75.1471C45.0332 102.182 85.0664 48.1118 125 75.1471V80.7962C84.9668 53.7609 44.9336 107.832 5 80.7962V75.1471Z" fill="white" stroke="white" stroke-width="10" stroke-linecap="round" stroke-linejoin="round"/>
<path d="M5 80.7961C45.0332 107.831 85.0664 53.7608 125 80.7961V86.4453C84.9668 59.41 44.9336 113.481 5 86.4453V80.7961Z" fill="#D80031" stroke="white" stroke-width="10" stroke-linecap="round" stroke-linejoin="round"/>
<path d="M5 86.5464C45.0332 113.582 85.0664 59.511 125 86.5464V92.1955C84.9668 65.1602 44.9336 119.231 5 92.1955V86.5464Z" fill="white" stroke="white" stroke-width="10" stroke-linecap="round" stroke-linejoin="round"/>
<path d="M5 12.8044C31.0913 30.4581 57.2822 13.5106 83.3735 7.15527V52.5504C57.2822 58.9057 31.0913 75.7524 5 58.1996V12.8044Z" fill="#2530A9" stroke="white" stroke-width="10" stroke-linecap="round" stroke-linejoin="round"/>
<path d="M26.0125 43.0679C26.0125 34.8967 32.5851 28.9449 40.7511 27.4318C43.3075 26.9303 45.9482 27.104 48.4191 27.9361C41.5478 23.6993 30.8922 25.616 24.7179 31.5678C18.5436 37.5196 19.1411 48.5153 26.0125 55.7785C32.3859 62.3356 42.0457 60.9233 48.4191 53.3574C41.5478 59.6119 32.4855 58.4013 28.2034 51.0372C26.802 48.6187 26.0469 45.872 26.0125 43.0679Z" fill="#F5D028" stroke="white" stroke-width="10" stroke-linecap="round" stroke-linejoin="round"/>
<path d="M59.6723 37.3178C62.3611 35.4012 65.0499 33.3836 67.7387 31.4669C64.8507 32.6774 61.9627 33.888 59.1744 34.9976C61.1661 32.2739 63.0582 29.4493 65.0499 26.6248C62.5603 28.945 60.0706 31.2652 57.581 33.4845C58.4773 30.4581 59.2739 27.3309 60.1702 24.3046L55.3901 33.081C54.9918 30.3572 54.5934 27.5327 54.1951 24.809C53.8964 26.9274 53.5976 29.1467 53.2989 31.2652L53.0001 33.081C53.0001 33.2827 52.9005 33.5853 52.9005 33.7871C51.3072 31.8704 49.7138 29.8529 48.1204 27.8353C49.0167 30.3573 49.8134 32.9801 50.7096 35.502C48.22 34.695 45.7304 33.888 43.2408 32.8792C45.2325 34.5941 47.1246 36.3091 49.1163 37.9231C46.2283 38.4275 43.3404 38.831 40.552 39.1336C43.2138 39.751 45.9065 40.2225 48.6184 40.5459C45.9296 42.2609 43.2408 43.9758 40.552 45.3881C43.4503 44.667 46.3091 43.7915 49.1163 42.7653C47.1246 45.3881 45.2325 48.0109 43.2408 50.5329C45.7304 48.5153 48.22 46.4977 50.7096 44.2784C49.8134 47.3048 49.0167 50.3311 48.1204 53.2566C49.7138 50.432 51.3072 47.6074 52.9005 44.6819C52.9005 44.8837 53.0001 45.0854 53.0001 45.3881C53.0997 45.9934 53.1993 46.4977 53.2989 47.103C53.5976 49.1206 53.8964 51.0373 54.1951 53.0548L55.3901 43.9758C56.9835 45.8925 58.5768 47.8092 60.1702 49.625C59.2739 47.103 58.4773 44.6819 57.581 42.16C60.0706 42.8661 62.5603 43.4714 65.0499 44.0767L59.1744 39.638C62.0623 38.9319 64.9503 38.2257 67.7387 37.4187C65.0501 37.5364 62.3572 37.5027 59.6723 37.3178Z" fill="#F5D028" stroke="white" stroke-width="10" stroke-linecap="round" stroke-linejoin="round"/>
<path d="M5 12.8044C45.0332 39.8398 85.0664 -14.2309 125 12.8044V18.4536C84.9668 -8.58173 44.9336 45.4889 5 18.4536V12.8044Z" fill="#D80031"/>
<path d="M5 18.4536C45.0332 45.4889 85.0664 -8.58173 125 18.4536V24.0624C84.9668 -2.97291 44.9336 51.0977 5 24.0624V18.4536Z" fill="white"/>
<path d="M5 24.0624C45.0332 51.0977 85.0664 -2.97296 125 24.0624V29.7115C84.9668 2.67621 44.9336 56.7469 5 29.7115V24.0624Z" fill="#D80031"/>
<path d="M5 29.7518C45.0332 56.7871 85.0664 2.71649 125 29.7518V35.401C84.9668 8.36566 44.9336 62.4363 5 35.401V29.7518Z" fill="white"/>
<path d="M5 35.5019C45.0332 62.5373 85.0664 8.46661 125 35.5019V41.1511C84.9668 14.1158 44.9336 68.1864 5 41.1511V35.5019Z" fill="#D80031"/>
<path d="M5 41.1511C45.0332 68.1864 85.0664 14.1158 125 41.1511V46.8003C84.9668 19.765 44.9336 73.8356 5 46.8003V41.1511Z" fill="white"/>
<path d="M5 46.8003C45.0332 73.8356 85.0664 19.765 125 46.8003V52.4494C84.9668 25.4141 44.9336 79.4848 5 52.4494V46.8003Z" fill="#D80031"/>
<path d="M5 52.4496C45.0332 79.4849 85.0664 25.4142 125 52.4496V58.0987C84.9668 31.0634 44.9336 85.1341 5 58.0987V52.4496Z" fill="white"/>
<path d="M5 58.1996C45.0332 85.2349 85.0664 31.1642 125 58.1996V63.8487C84.9668 36.8134 44.9336 90.8841 5 63.8487V58.1996Z" fill="#D80031"/>
<path d="M5 63.8489C45.0332 90.8842 85.0664 36.8135 125 63.8489V69.4577C84.9668 42.4224 44.9336 96.493 5 69.4577V63.8489Z" fill="white"/>
<path d="M5 69.4575C45.0332 96.4928 85.0664 42.4222 125 69.4575V75.1067C84.9668 48.0713 44.9336 102.142 5 75.1067V69.4575Z" fill="#D80031"/>
<path d="M5 75.1471C45.0332 102.182 85.0664 48.1118 125 75.1471V80.7962C84.9668 53.7609 44.9336 107.832 5 80.7962V75.1471Z" fill="white"/>
<path d="M5 80.7961C45.0332 107.831 85.0664 53.7608 125 80.7961V86.4453C84.9668 59.41 44.9336 113.481 5 86.4453V80.7961Z" fill="#D80031"/>
<path d="M5 86.5464C45.0332 113.582 85.0664 59.511 125 86.5464V92.1955C84.9668 65.1602 44.9336 119.231 5 92.1955V86.5464Z" fill="white"/>
<path d="M5 12.8044C31.0913 30.4581 57.2822 13.5106 83.3735 7.15527V52.5504C57.2822 58.9057 31.0913 75.7524 5 58.1996V12.8044Z" fill="#2530A9"/>
<path d="M26.0125 43.0679C26.0125 34.8967 32.5851 28.9449 40.7511 27.4318C43.3075 26.9303 45.9482 27.104 48.4191 27.9361C41.5478 23.6993 30.8922 25.616 24.7179 31.5678C18.5436 37.5196 19.1411 48.5153 26.0125 55.7785C32.3859 62.3356 42.0457 60.9233 48.4191 53.3574C41.5478 59.6119 32.4855 58.4013 28.2034 51.0372C26.802 48.6187 26.0469 45.872 26.0125 43.0679Z" fill="#F5D028"/>
<path d="M59.6723 37.3178C62.3611 35.4012 65.0499 33.3836 67.7387 31.4669C64.8507 32.6774 61.9627 33.888 59.1744 34.9976C61.1661 32.2739 63.0582 29.4493 65.0499 26.6248C62.5603 28.945 60.0706 31.2652 57.581 33.4845C58.4773 30.4581 59.2739 27.3309 60.1702 24.3046L55.3901 33.081C54.9918 30.3572 54.5934 27.5327 54.1951 24.809C53.8964 26.9274 53.5976 29.1467 53.2989 31.2652L53.0001 33.081C53.0001 33.2827 52.9005 33.5853 52.9005 33.7871C51.3072 31.8704 49.7138 29.8529 48.1204 27.8353C49.0167 30.3573 49.8134 32.9801 50.7096 35.502C48.22 34.695 45.7304 33.888 43.2408 32.8792C45.2325 34.5941 47.1246 36.3091 49.1163 37.9231C46.2283 38.4275 43.3404 38.831 40.552 39.1336C43.2138 39.751 45.9065 40.2225 48.6184 40.5459C45.9296 42.2609 43.2408 43.9758 40.552 45.3881C43.4503 44.667 46.3091 43.7915 49.1163 42.7653C47.1246 45.3881 45.2325 48.0109 43.2408 50.5329C45.7304 48.5153 48.22 46.4977 50.7096 44.2784C49.8134 47.3048 49.0167 50.3311 48.1204 53.2566C49.7138 50.432 51.3072 47.6074 52.9005 44.6819C52.9005 44.8837 53.0001 45.0854 53.0001 45.3881C53.0997 45.9934 53.1993 46.4977 53.2989 47.103C53.5976 49.1206 53.8964 51.0373 54.1951 53.0548L55.3901 43.9758C56.9835 45.8925 58.5768 47.8092 60.1702 49.625C59.2739 47.103 58.4773 44.6819 57.581 42.16C60.0706 42.8661 62.5603 43.4714 65.0499 44.0767L59.1744 39.638C62.0623 38.9319 64.9503 38.2257 67.7387 37.4187C65.0501 37.5364 62.3572 37.5027 59.6723 37.3178Z" fill="#F5D028"/>
</svg>
