<svg width="130" height="105" viewBox="0 0 130 105" fill="none" xmlns="http://www.w3.org/2000/svg">
<path d="M5 12.7952C45.0333 39.7985 84.9667 -14.2081 125 12.7952V92.2048C84.9667 65.2015 45.0333 119.208 5 92.2048V12.7952Z" fill="#C8172B" stroke="white" stroke-width="10" stroke-linecap="round" stroke-linejoin="round"/>
<path d="M73.4858 54.6002C75.183 59.4008 76.98 64.1014 78.6772 69.002C74.0848 67.0017 69.4925 65.3015 65 63.5013C60.4076 68.3019 55.8153 73.2025 51.3228 77.703C53.0199 71.9023 54.8169 66.0016 56.5141 60.2009C51.838 58.4036 47.2711 56.3331 42.8369 54.0001C48.5906 52.8066 54.26 51.2364 59.8086 49.2996C61.5058 43.3988 63.3028 37.4981 65 31.5974C66.797 36.298 68.4941 40.9986 70.2912 45.7991C75.8397 43.8623 81.5091 42.2921 87.2629 41.0986C82.6705 45.2991 78.0782 49.8996 73.4858 54.6002Z" fill="#FCFF2C" stroke="white" stroke-width="10" stroke-linecap="round" stroke-linejoin="round"/>
<path d="M5 12.7952C45.0333 39.7985 84.9667 -14.2081 125 12.7952V92.2048C84.9667 65.2015 45.0333 119.208 5 92.2048V12.7952Z" fill="#C8172B"/>
<path d="M73.4858 54.6002C75.183 59.4008 76.98 64.1014 78.6772 69.002C74.0848 67.0017 69.4925 65.3015 65 63.5013C60.4076 68.3019 55.8153 73.2025 51.3228 77.703C53.0199 71.9023 54.8169 66.0016 56.5141 60.2009C51.838 58.4036 47.2711 56.3331 42.8369 54.0001C48.5906 52.8066 54.26 51.2364 59.8086 49.2996C61.5058 43.3988 63.3028 37.4981 65 31.5974C66.797 36.298 68.4941 40.9986 70.2912 45.7991C75.8397 43.8623 81.5091 42.2921 87.2629 41.0986C82.6705 45.2991 78.0782 49.8996 73.4858 54.6002Z" fill="#FCFF2C"/>
</svg>
