<svg width="48" height="48" viewBox="0 0 48 48" fill="none" xmlns="http://www.w3.org/2000/svg">
<g clip-path="url(#clip0_142_31)">
<rect width="48" height="48" rx="16" fill="white"/>
<path d="M19.3184 16.9301C20.7944 16.7775 22.1212 15.5808 21.7819 13.8354C21.0827 11.5886 18.2166 11.5659 16.8754 13.2391C15.3627 15.1331 17.0798 17.1591 19.3164 16.9198M8.69395 22.3669C7.86395 22.8353 8.72871 23.6771 9.71612 23.9556C10.5339 24.1846 11.413 24.001 11.4702 23.2912C11.3946 22.2122 9.55871 21.8801 8.696 22.3669M25.1838 21.5911C26.6434 21.5767 28.6121 20.409 28.4159 17.8568C27.8906 14.8674 24.5071 14.3289 22.7796 16.2517C20.7353 18.5377 22.5507 21.6158 25.1838 21.5911ZM23.0066 23.6833C22.8901 21.3851 20.1261 20.6773 18.4089 21.9524C16.4769 23.3966 17.6525 25.8042 19.8399 26.1136C21.2709 26.32 22.8941 25.4473 23.0004 23.6833M14.1259 28.7405C15.2461 29.1696 16.5566 28.9468 16.8142 27.81C16.9654 26.145 14.5878 25.3548 13.2325 25.9346C11.7892 26.5535 12.5353 28.1319 14.1259 28.7405ZM7.91091 27.1257C7.28124 27.2289 7.81074 28.1346 8.6714 28.7762C9.39919 29.3188 10.3069 29.5767 10.5502 29.0691C10.7914 28.1263 8.65709 27.0061 7.91091 27.1278M37.3783 13.7976C38.0773 13.81 38.6293 12.9847 38.2798 11.4353C37.7462 9.53107 36.3886 8.67074 35.6936 9.32682C34.5733 10.3893 35.8469 13.7729 37.3783 13.7976ZM34.688 20.01C35.6836 19.8801 36.9898 18.6381 36.7752 16.2778C36.7609 16.1911 36.7467 16.0715 36.7283 15.9889C36.2478 13.5462 33.9397 12.7149 32.6763 14.5324C31.1614 16.7091 32.472 20.2926 34.688 20.01ZM17.1516 30.5313C15.3484 31.3751 16.066 33.1122 17.9019 33.7476C19.2592 34.216 21.0072 33.9314 21.5817 32.646C22.1459 30.6984 19.1611 29.5905 17.1496 30.5313M39.1404 18.7585C38.6621 17.6424 37.5623 18.0282 36.9633 19.5239C36.1967 21.4364 36.7752 23.5862 37.9159 23.0602C38.5763 22.7548 39.2898 21.4818 39.3347 19.8787C39.3423 19.4962 39.2764 19.1158 39.1404 18.7585Z" fill="black"/>
<path d="M27.9339 30.1676C28.9562 28.9297 29.1606 27.4855 28.4696 26.3198C29.6962 27.0192 31.1415 26.7675 32.3538 25.6411C31.5361 27.0584 31.2703 28.5418 31.6812 29.5114L31.5974 29.4744C30.886 29.1835 29.5531 29.2143 27.9176 30.1676M32.3865 30.2253C34.4616 30.7164 36.7083 27.9332 37.0252 25.3956C37.1437 23.0106 35.3488 22.6928 33.7277 24.0111C33.5764 24.1329 33.3965 24.3165 33.2533 24.4485C35.0094 20.9619 32.5766 18.1828 29.778 19.2536C27.5885 20.0912 26.1083 23.0373 27.5537 25.443C23.8228 23.6625 20.4782 27.4628 21.4881 29.9344C21.5004 29.9632 22.7413 32.8785 26.5499 31.2465C24.526 33.4046 25.2906 35.1128 27.2736 35.0881C29.8087 35.0592 33.1307 32.2905 32.3845 30.2274" fill="black"/>
<path d="M19.7363 35.1327C18.5383 36.0446 19.0943 37.1793 20.879 37.4724C22.3877 37.7199 24.6018 37.266 25.5423 36.0756C25.6446 35.9248 25.7143 35.754 25.7467 35.5742C25.9675 33.9072 21.752 33.5978 19.7321 35.1327M13.3313 35.7619C12.4911 36.0425 12.8896 36.845 14.1673 37.4474C15.3163 37.9901 17.1091 38.2727 17.9985 37.759C18.0935 37.6958 18.1692 37.6073 18.2173 37.5032C18.5771 36.484 14.6826 35.3142 13.3313 35.7619ZM40.329 21.143C39.9529 20.821 38.8981 23.8002 39.1025 24.6111C39.1597 24.8338 39.3069 24.7844 39.499 24.4769C39.775 24.0395 40.1512 23.008 40.3392 21.8836C40.3659 21.6897 40.4333 21.2337 40.327 21.143M35.083 30.8181C35.0728 31.2659 35.4224 31.2493 35.9703 30.7727C36.9061 29.8759 37.6415 28.7877 38.1271 27.581C38.2027 27.3583 38.3601 26.894 38.1802 26.7558C37.5976 26.2999 35.1137 29.5658 35.083 30.8202M28.9707 35.8611C28.8092 36.3892 29.3692 36.4325 30.3608 35.9684C31.5302 35.4237 33.2638 34.1528 34.1408 32.9707C34.2614 32.7849 34.4658 32.4734 34.382 32.2857C33.9957 31.4356 29.3959 34.4788 28.9707 35.8611ZM61.2775 26.6806L61.3204 28.6241H61.1058L59.9098 26.6806L55.2691 19.439H51.8489V33.8809H55.0545V27.0479L55.0136 24.8258H55.218L56.6081 27.0479L61.0649 33.8809H64.4851V19.439H61.2775V26.6806ZM68.5266 19.439H67.6353V33.8809H78.5623V30.9761H70.8348V28.0628H78.2332V25.1746H70.8348V22.348H78.5543V19.439H68.5266ZM90.614 28.2136C90.6394 28.7774 90.5446 29.3402 90.336 29.864C90.2427 30.065 90.1104 30.2449 89.9466 30.3931C89.783 30.5413 89.5913 30.6546 89.3832 30.7264C88.171 31.073 86.8871 31.073 85.6748 30.7264C85.2567 30.5773 84.9142 30.2672 84.7221 29.864C84.5065 29.342 84.4081 28.7784 84.4339 28.2136V19.439H81.2488V28.265C81.2194 29.3465 81.4583 30.4181 81.9439 31.3825C82.4141 32.2604 83.1466 32.9665 84.0373 33.4002C84.9723 33.8774 86.1375 34.1147 87.5331 34.1119C88.9288 34.1093 90.0872 33.8719 91.0085 33.4002C91.9014 32.9652 92.6375 32.2598 93.1142 31.3825C93.6078 30.4206 93.8512 29.3479 93.8215 28.265V19.439H90.614V28.2136ZM100.14 19.439H95.5305V22.3522H100.14V33.9056H103.348V22.3522H107.968V19.439H100.14ZM116.507 26.0799H112.979V22.3456H116.507C117.262 22.3456 117.783 22.4818 118.067 22.7582C118.351 23.0347 118.495 23.5133 118.495 24.2024C118.495 24.8915 118.353 25.399 118.067 25.6713C117.781 25.9437 117.262 26.084 116.507 26.084M119.521 28.8671C119.116 28.4649 118.616 28.1749 118.067 28.0253V27.8088C118.785 27.7568 119.484 27.5455 120.112 27.1898C120.635 26.8789 121.05 26.4118 121.3 25.8529C121.569 25.2158 121.701 24.5277 121.684 23.8352C121.71 22.9979 121.497 22.1705 121.07 21.4522C120.634 20.7772 120.004 20.2531 119.263 19.9503C118.339 19.5827 117.351 19.4095 116.358 19.4407H109.771V33.8827H112.979V28.7455H114.261C114.671 28.7285 115.082 28.7915 115.469 28.9311C115.765 29.0557 116.024 29.2563 116.219 29.5129C116.461 29.836 116.672 30.1814 116.849 30.5445L118.539 33.8827H122.278L120.463 30.2577C120.222 29.7436 119.905 29.2702 119.521 28.8548M133.944 29.2824C133.758 29.851 133.358 30.3234 132.832 30.5987C132.21 30.8744 131.533 31.0035 130.854 30.9764C130.168 31.0047 129.484 30.8756 128.855 30.5987C128.329 30.3228 127.93 29.8506 127.744 29.2824C127.509 28.6566 127.392 27.7826 127.392 26.6602C127.392 25.5378 127.507 24.6604 127.739 24.0276C127.928 23.4633 128.326 22.9949 128.852 22.7217C129.481 22.4459 130.165 22.3169 130.851 22.3442C131.53 22.3178 132.205 22.4469 132.827 22.7217C133.353 22.9943 133.752 23.4628 133.94 24.0276C134.175 24.6466 134.293 25.5242 134.293 26.6602C134.293 27.7964 134.175 28.6704 133.94 29.2824M134.529 20.1326C133.502 19.5218 132.275 19.2158 130.848 19.2144C129.421 19.213 128.195 19.5191 127.169 20.1326C126.149 20.7462 125.329 21.6458 124.808 22.7217C124.257 23.9606 123.973 25.3028 123.973 26.6602C123.973 28.0178 124.257 29.3598 124.808 30.5987C125.329 31.6751 126.149 32.5749 127.169 33.188C128.188 33.8014 129.414 34.1074 130.848 34.1061C132.282 34.1046 133.51 33.7986 134.529 33.188C135.552 32.5797 136.374 31.6786 136.89 30.5987C137.432 29.358 137.713 28.0167 137.713 26.6602C137.713 25.3038 137.432 23.9624 136.89 22.7217C136.373 21.6424 135.551 20.7414 134.529 20.1326ZM149.757 26.6806L149.798 28.6241H149.593L148.387 26.6806L143.749 19.439H140.326V33.8809H143.533V27.0479L143.491 24.8258H143.695L145.085 27.0479L149.542 33.8809H152.964V19.439H149.757V26.6806ZM164.359 26.263C164.073 26.5573 163.56 26.7046 162.821 26.7046H159.314V22.3451H162.821C163.56 22.3451 164.073 22.4889 164.359 22.7764C164.644 23.0652 164.786 23.647 164.786 24.5259C164.786 25.4047 164.644 25.9701 164.359 26.263ZM165.428 20.0365C164.577 19.6254 163.641 19.4213 162.697 19.4403H156.107V33.8821H159.314V29.595H162.697C163.642 29.6123 164.579 29.4097 165.434 29.0028C166.213 28.6254 166.864 28.0247 167.306 27.276C167.748 26.428 167.98 25.4836 167.98 24.5249C167.98 23.5661 167.748 22.6218 167.306 21.7737C166.861 21.024 166.212 20.4205 165.434 20.0365M173.657 27.7823L174.475 25.5376L175.564 22.2799H175.769L176.817 25.5376L177.636 27.7823H173.657ZM173.383 19.439L168.1 33.8809H171.437L172.607 30.6644H178.68L179.839 33.8809H183.315L178.045 19.439H173.383ZM192.749 19.4395L190.5 23.2378L189.275 25.3752H189.07L187.843 23.2295L185.594 19.4395H181.957L187.538 28.6741V33.8814H190.744V28.6658L196.325 19.4312L192.749 19.4395Z" fill="black"/>
</g>
<defs>
<clipPath id="clip0_142_31">
<rect width="48" height="48" rx="16" fill="white"/>
</clipPath>
</defs>
</svg>
