<svg width="84" height="89" viewBox="0 0 84 89" fill="none" xmlns="http://www.w3.org/2000/svg">
<path d="M56.4598 47.3785C55.7254 46.0327 54.7876 44.8083 53.6797 43.7485C52.4283 42.6057 50.8374 41.9033 49.1497 41.7485C47.5052 41.6477 45.8876 42.2012 44.6497 43.2885C44.5292 43.3873 44.4156 43.4942 44.3097 43.6085C44.1565 43.7677 43.9853 43.9086 43.7997 44.0285C43.5298 44.1104 43.2513 44.1608 42.9698 44.1785C42.4855 44.1783 42.007 44.2827 41.5668 44.4846C41.1267 44.6866 40.7354 44.9813 40.4197 45.3485C40.0676 45.8935 39.9016 46.5379 39.9467 47.1852C39.9918 47.8324 40.2454 48.4476 40.6697 48.9385C41.0635 49.3844 41.5102 49.7807 41.9998 50.1185C42.1592 50.2189 42.3097 50.3326 42.4498 50.4585C42.8698 50.7985 42.9698 51.0585 42.9698 51.0985C42.9698 51.3385 42.8698 51.5585 42.4598 51.9685C41.3836 52.9404 40.677 54.2548 40.4598 55.6885C40.3733 56.6043 40.5989 57.5225 41.0999 58.2939C41.6009 59.0654 42.348 59.6449 43.2198 59.9385C43.6441 60.0687 44.0859 60.1328 44.5297 60.1285C45.8413 60.0702 47.1055 59.621 48.1597 58.8385C48.4497 58.6585 48.7398 58.4485 48.9898 58.2585C49.6648 57.7067 50.4246 57.2678 51.2398 56.9585C51.7283 56.8412 52.2276 56.7742 52.7298 56.7585C53.9178 56.7585 55.0833 56.4335 56.0998 55.8185C56.7753 55.3012 57.3016 54.614 57.6248 53.827C57.9481 53.0399 58.0567 52.1813 57.9397 51.3385C57.7379 49.9272 57.233 48.5762 56.4598 47.3785ZM45.7198 51.0785C45.6973 50.5299 45.5518 49.9934 45.2939 49.5087C45.0359 49.024 44.6723 48.6036 44.2298 48.2785C44.0967 48.16 43.9564 48.0498 43.8097 47.9485L43.6398 47.8185C43.3458 47.6262 43.0769 47.3977 42.8398 47.1385C42.7807 47.0606 42.7366 46.9724 42.7098 46.8785C42.9143 46.8353 43.1214 46.8052 43.3298 46.7885C43.9081 46.7568 44.4766 46.6248 45.0098 46.3985C45.4746 46.1723 45.8947 45.8641 46.2498 45.4885L46.3598 45.3885L46.4898 45.2685C47.1859 44.6648 48.0899 44.3563 49.0098 44.4085C50.1007 44.5199 51.1222 44.9954 51.9097 45.7585C52.8045 46.6412 53.5628 47.6523 54.1597 48.7585C54.7334 49.6023 55.1156 50.5614 55.2797 51.5685C55.3477 51.9339 55.3189 52.3109 55.1961 52.6617C55.0733 53.0126 54.8608 53.3252 54.5798 53.5685C53.9615 53.8832 53.273 54.0347 52.5798 54.0085C51.9046 54.0401 51.2345 54.1407 50.5798 54.3085C49.4456 54.6846 48.3911 55.2678 47.4698 56.0285L46.7198 56.5585C46.3653 56.8705 45.9479 57.1025 45.4958 57.2388C45.0437 57.3751 44.5676 57.4126 44.0998 57.3485C43.8294 57.2432 43.5995 57.0547 43.4432 56.8103C43.2868 56.5659 43.2121 56.2781 43.2298 55.9885C43.3927 55.1764 43.8306 54.4453 44.4698 53.9185C44.8568 53.5523 45.1667 53.1123 45.3814 52.6246C45.5961 52.1369 45.7111 51.6113 45.7198 51.0785Z" fill="#B81EBE"/>
<path d="M80.1 30.6685C77.8666 25.7055 74.656 21.2433 70.6599 17.5485C66.4836 13.6725 61.5453 10.7095 56.1599 8.8485C56.2056 8.51711 56.2291 8.18302 56.23 7.8485C56.2423 5.86601 55.4992 3.95325 54.1519 2.49895C52.8045 1.04466 50.9539 0.15796 48.9762 0.0191546C46.9985 -0.119651 45.0423 0.499809 43.505 1.75164C41.9677 3.00347 40.9647 4.7937 40.7 6.75847C34.4153 7.11493 28.2979 8.91862 22.8252 12.0288C17.3525 15.139 12.6723 19.4715 9.1499 24.6885C8.70341 24.6171 8.25209 24.5803 7.79993 24.5785C5.73205 24.5811 3.74969 25.4037 2.28748 26.866C0.825265 28.3282 0.00264604 30.3106 0 32.3785C0.139454 35.1399 1.16309 37.7834 2.91992 39.9185C1.83256 45.7029 2.0134 51.6543 3.44983 57.362C4.88626 63.0698 7.54413 68.3979 11.24 72.9785C11.2964 73.0869 11.3707 73.185 11.46 73.2685C17.7612 80.9549 26.6567 86.0706 36.4694 87.6511C46.282 89.2316 56.334 87.1677 64.73 81.8485C64.8467 81.7994 64.9547 81.7319 65.0499 81.6485C69.8465 78.5585 73.9389 74.4933 77.0608 69.7174C80.1827 64.9415 82.2642 59.5619 83.1699 53.9285V53.8085C83.5015 51.698 83.6687 49.5649 83.6699 47.4285V47.0685C83.6358 41.4128 82.4198 35.8267 80.1 30.6685ZM63.1 68.0985C61.73 67.4085 60.2699 66.1985 60.3099 64.8485C60.3099 62.9185 63.25 61.7685 63.84 61.5585L64.9399 61.1585C66.9399 60.4385 69.16 59.6285 70.38 57.5785C70.7255 56.9788 71.0006 56.3413 71.2 55.6785L70.85 55.5585H71.25C71.389 54.8609 71.7379 54.2223 72.25 53.7285C72.5531 53.5535 72.9005 53.4701 73.25 53.4885C73.7842 53.5099 74.3158 53.5735 74.84 53.6785L80.21 54.6785C78.8483 61.7769 75.4742 68.3341 70.49 73.5685C70.0659 72.6794 69.4906 71.8708 68.7899 71.1785C67.6155 70.1517 66.2586 69.3545 64.7899 68.8285L64.5299 68.7185C64.0499 68.5085 63.5899 68.3085 63.1499 68.0985H63.1ZM70.72 51.4685C69.6784 52.2994 68.9432 53.4535 68.63 54.7485C68.4791 55.254 68.278 55.743 68.0299 56.2085C67.2599 57.4985 65.52 58.1085 63.85 58.6885C63.53 58.7885 63.2 58.9085 62.85 59.0285C59.54 60.2585 57.6099 62.3685 57.5399 64.8085C57.5399 67.0785 59.12 69.2285 61.88 70.5785C62.3 70.7885 62.7299 70.9685 63.1499 71.1485L63.5699 71.3185C64.8063 71.74 65.9552 72.3839 66.96 73.2185C67.6387 73.902 68.1429 74.739 68.4299 75.6585C67.04 76.9127 65.5594 78.0625 64 79.0985C63.1838 78.6796 62.4073 78.1876 61.6799 77.6285L60.8999 76.9885C60.6399 76.7785 60.39 76.5585 60.13 76.3585C58.01 74.5985 55.82 72.7885 52.96 72.2085C52.0842 72.0349 51.1926 71.9545 50.2999 71.9685C49.8299 71.9685 49.3699 71.9685 48.9199 71.9685H48.7899C47.0999 71.9685 45.5 72.0385 44.26 71.3185C43.6925 70.9443 43.1602 70.5193 42.6699 70.0485C41.5899 69.0485 40.25 67.8485 38.39 67.8285C36.53 67.8085 35.08 69.0085 33.86 70.0685C32.86 70.8785 32.0099 71.6485 31.1499 71.6085C29.7099 71.5085 28.86 69.2285 28.49 67.8685C27.78 65.3385 26.5899 62.3685 23.6799 61.9185C21.6799 61.5985 19.56 62.7785 18.08 65.0885C17.81 65.4985 17.58 65.9285 17.34 66.3485L17.1899 66.6185C16.7408 67.5611 16.1432 68.4255 15.4199 69.1785C14.6482 69.7939 13.7798 70.2772 12.85 70.6085C7.73945 63.9569 4.96294 55.8067 4.94995 47.4185C4.94863 45.8101 5.05224 44.2034 5.26001 42.6085C5.78875 43.1482 6.34615 43.6589 6.92993 44.1385C7.1766 44.3323 7.48121 44.4377 7.79492 44.4377C8.10863 44.4377 8.41324 44.3323 8.65991 44.1385C8.65991 44.1385 9.20999 43.6985 9.98999 42.9385C10.55 42.9385 11.0999 42.9385 11.6499 42.8885H12C13.5466 42.6879 15.1177 42.8001 16.62 43.2185C17.6535 43.6776 18.6111 44.2913 19.46 45.0385L19.5399 45.0985C19.9599 45.4385 20.38 45.7785 20.84 46.0985C22.176 47.1284 23.7951 47.7251 25.48 47.8085C26.0793 47.8062 26.6753 47.7187 27.25 47.5485C29.88 46.6385 30.99 43.7785 31.14 41.5985C31.1837 40.3451 31.1167 39.0902 30.9399 37.8485L30.88 37.2585C30.82 36.6685 30.76 36.1085 30.74 35.5385C30.74 34.6085 30.83 32.3485 32.22 31.3185C33.61 30.2885 35.76 30.7185 37.88 31.1285L38.36 31.2285C42.3 31.9785 45.2699 31.0485 46.5299 28.6685C46.9211 27.7418 47.0975 26.7386 47.0455 25.7341C46.9936 24.7295 46.7147 23.7499 46.23 22.8685C45.99 22.3685 45.73 21.8685 45.47 21.3985C44.98 20.5923 44.5904 19.7292 44.3099 18.8285C44.1239 18.0055 44.1239 17.1514 44.3099 16.3285C45.3 17.5295 46.398 18.6375 47.59 19.6385C47.8366 19.8323 48.1412 19.9377 48.455 19.9377C48.7687 19.9377 49.0733 19.8323 49.3199 19.6385C51.9777 17.4535 54.096 14.6851 55.51 11.5485C60.2532 13.2195 64.6224 15.805 68.37 19.1585C68.3046 20.9998 67.76 22.7921 66.7899 24.3585C66.5099 24.7885 66.1999 25.2185 65.7899 25.7485C65.2898 26.4066 64.8354 27.0982 64.4299 27.8185C63.9658 28.5831 63.6823 29.4435 63.6008 30.3342C63.5194 31.2249 63.6422 32.1224 63.96 32.9585C64.88 34.9585 67.07 35.8785 68.64 36.3585L69.11 36.5085C70.2827 36.7224 71.3711 37.2632 72.25 38.0685C72.7031 38.6939 73.0417 39.3948 73.25 40.1385C73.37 40.4585 73.49 40.7685 73.61 41.1385C74.2752 42.7523 75.2765 44.2059 76.5472 45.4026C77.818 46.5992 79.3291 47.5114 80.98 48.0785C80.98 49.4085 80.87 50.7285 80.72 52.0785L75.3999 51.0785C74.2199 50.7785 72.32 50.4285 70.77 51.4685H70.72ZM17.27 71.2185C18.1899 70.3032 18.9474 69.2379 19.51 68.0685L19.59 67.9285C19.86 67.4185 20.11 66.9785 20.36 66.5785C21.06 65.5285 22.19 64.4685 23.25 64.6385C24.63 64.8585 25.36 66.8785 25.85 68.6385C26.85 72.2885 28.62 74.2185 30.99 74.3685C32.99 74.4685 34.4699 73.1885 35.6699 72.1485C36.5099 71.4085 37.46 70.5785 38.37 70.5785C39.348 70.7899 40.2277 71.3212 40.87 72.0885C41.4798 72.6863 42.1501 73.2192 42.87 73.6785C44.81 74.8085 46.93 74.7485 48.98 74.6785C50.1187 74.5986 51.2628 74.6489 52.39 74.8285C54.58 75.2685 56.39 76.8285 58.39 78.3985C58.91 78.8385 59.47 79.2985 60.01 79.7185C60.55 80.1385 60.92 80.3985 61.39 80.7185C53.8602 84.8968 45.1344 86.3936 36.6426 84.9638C28.1507 83.534 20.3962 79.2622 14.6499 72.8485C15.6041 72.4474 16.4885 71.8972 17.27 71.2185ZM7.77991 27.3085C8.27064 27.3109 8.75873 27.3816 9.22998 27.5185L9.39001 27.5785C10.3934 27.9208 11.2654 28.5667 11.8854 29.4267C12.5053 30.2868 12.8424 31.3183 12.85 32.3785C12.85 35.6285 10.1299 38.8985 8.54993 40.5285C8.47058 40.5846 8.39988 40.652 8.33997 40.7285C8.13997 40.9385 7.94991 41.1185 7.77991 41.2785C6.98794 40.5216 6.24323 39.7167 5.54993 38.8685C5.50557 38.7891 5.45194 38.7152 5.39001 38.6485C3.61001 36.3785 2.71997 34.2685 2.71997 32.3785C2.7147 31.7101 2.84158 31.0474 3.09338 30.4283C3.34519 29.8092 3.71687 29.246 4.18713 28.7711C4.65739 28.2962 5.21691 27.919 5.8335 27.6611C6.45008 27.4032 7.11157 27.2698 7.77991 27.2685V27.3085ZM48.4099 2.7885C49.7511 2.79115 51.0366 3.32507 51.985 4.27343C52.9333 5.22179 53.4673 6.50732 53.47 7.8485C53.4687 8.37481 53.4016 8.89889 53.27 9.4085C53.2636 9.46498 53.2636 9.522 53.27 9.57848C52.46 12.6685 49.7899 15.4785 48.4399 16.7485C47.1826 15.581 46.0682 14.2685 45.12 12.8385C45.0837 12.7675 45.0401 12.7005 44.99 12.6385C44.0165 11.2228 43.4557 9.56444 43.37 7.8485C43.366 7.1827 43.4932 6.52263 43.7444 5.906C43.9955 5.28936 44.3657 4.72821 44.8337 4.25463C45.3017 3.78105 45.8584 3.40429 46.472 3.14586C47.0857 2.88744 47.7441 2.75245 48.4099 2.74852V2.7885ZM41.6499 19.5085C41.9828 20.6304 42.4566 21.7057 43.0599 22.7085C43.3099 23.1585 43.53 23.5885 43.74 24.0285C44.18 25.0285 44.61 26.3985 44.08 27.3985C43.13 29.1885 39.84 28.7185 38.85 28.5385L38.37 28.4385C35.95 27.9485 32.9399 27.3485 30.5499 29.1185C28.3299 30.7585 27.93 33.5485 27.98 35.5985C28.0079 36.4485 28.0813 37.2963 28.2 38.1385V38.2185C28.3596 39.2537 28.4232 40.3015 28.39 41.3485C28.28 42.7985 27.5899 44.4585 26.3099 44.9185C25.0299 45.3785 23.3099 44.4485 22.4299 43.8385L21.77 43.3285L21.1699 42.8685C20.0912 41.9427 18.8771 41.1872 17.5699 40.6285C16.3734 40.2202 15.1139 40.0272 13.85 40.0585C13.4 40.0585 12.95 40.0585 12.51 40.0585C14.02 38.0585 15.59 35.2685 15.59 32.3085C15.5923 30.9543 15.241 29.623 14.571 28.4462C13.9011 27.2693 12.9357 26.2878 11.77 25.5985C15.0739 20.8923 19.3978 16.993 24.4192 14.1914C29.4406 11.3898 35.03 9.75826 40.77 9.41851C41.0525 10.8296 41.5732 12.1823 42.3099 13.4185C41.3997 15.299 41.1666 17.436 41.6499 19.4685V19.5085ZM76.09 40.1885C75.9734 39.9045 75.8731 39.614 75.7899 39.3185V39.2285C75.5033 38.1933 75.0214 37.2226 74.37 36.3685C73.1459 35.1115 71.5702 34.2539 69.85 33.9085L69.49 33.7885C68.25 33.3885 66.93 32.8585 66.49 31.8685C66.3625 31.4134 66.3305 30.9369 66.3959 30.4688C66.4613 30.0007 66.6227 29.5512 66.87 29.1485C67.2175 28.563 67.5946 27.9955 68 27.4485L68.1699 27.2185C68.4899 26.7885 68.8199 26.3385 69.1699 25.8485C69.989 24.5344 70.568 23.0852 70.88 21.5685C76.9277 27.9948 80.5026 36.3563 80.97 45.1685C78.7612 44.1808 77.0148 42.3843 76.09 40.1485V40.1885Z" fill="#B81EBE"/>
<path d="M7.78005 34.7585C8.2259 34.7605 8.6623 34.63 9.03384 34.3835C9.40537 34.137 9.69531 33.7857 9.86684 33.3742C10.0384 32.9626 10.0838 32.5094 9.99734 32.072C9.91084 31.6347 9.69639 31.2328 9.38113 30.9176C9.06586 30.6023 8.66397 30.3878 8.22658 30.3013C7.7892 30.2148 7.336 30.2602 6.92446 30.4317C6.51292 30.6033 6.16165 30.8932 5.91518 31.2647C5.66871 31.6363 5.53808 32.0727 5.54006 32.5185C5.54269 33.1118 5.77961 33.6801 6.19912 34.0996C6.61863 34.5191 7.18678 34.7559 7.78005 34.7585ZM7.78005 31.5586C7.97783 31.5586 8.17127 31.6172 8.33572 31.7271C8.50016 31.837 8.62831 31.9931 8.704 32.1759C8.77969 32.3586 8.79947 32.5596 8.76089 32.7536C8.7223 32.9476 8.62706 33.1258 8.4872 33.2657C8.34735 33.4055 8.16922 33.5007 7.97524 33.5393C7.78126 33.5779 7.58009 33.5581 7.39736 33.4824C7.21463 33.4067 7.05851 33.2785 6.94863 33.1141C6.83875 32.9497 6.78005 32.7563 6.78005 32.5586C6.78005 32.2933 6.88548 32.0389 7.07302 31.8514C7.26056 31.6639 7.51483 31.5586 7.78005 31.5586Z" fill="#B81EBE"/>
<path d="M48.4102 19.7285C48.8556 19.7285 49.2911 19.5963 49.6613 19.3487C50.0315 19.101 50.3199 18.749 50.4899 18.3372C50.6599 17.9255 50.7039 17.4726 50.6162 17.0359C50.5286 16.5992 50.3134 16.1983 49.9977 15.884C49.682 15.5697 49.2802 15.3562 48.843 15.2705C48.4059 15.1849 47.9532 15.2308 47.5423 15.4027C47.1313 15.5745 46.7806 15.8645 46.5346 16.2358C46.2885 16.6071 46.1582 17.0431 46.1602 17.4886C46.1628 18.0836 46.4011 18.6533 46.8228 19.0731C47.2444 19.4929 47.8152 19.7285 48.4102 19.7285ZM48.4102 16.5285C48.608 16.5285 48.8014 16.5872 48.9658 16.697C49.1303 16.8069 49.2584 16.9631 49.3341 17.1458C49.4098 17.3286 49.4296 17.5296 49.391 17.7236C49.3524 17.9176 49.2572 18.0958 49.1173 18.2356C48.9775 18.3755 48.7993 18.4707 48.6054 18.5093C48.4114 18.5479 48.2102 18.5281 48.0275 18.4524C47.8448 18.3767 47.6886 18.2486 47.5788 18.0841C47.4689 17.9197 47.4102 17.7263 47.4102 17.5285C47.4102 17.2633 47.5156 17.009 47.7031 16.8214C47.8907 16.6339 48.145 16.5285 48.4102 16.5285Z" fill="#B81EBE"/>
</svg>
