<svg width="88" height="80" viewBox="0 0 88 80" fill="none" xmlns="http://www.w3.org/2000/svg">
<path d="M87.1002 22.2002C87.0975 18.1405 85.4836 14.2479 82.613 11.3773C79.7424 8.50665 75.8498 6.89279 71.7902 6.89014C65.635 2.39192 58.2037 -0.0220935 50.5801 0.000152381C41.1322 0.0110183 32.0637 3.71924 25.3152 10.3314C18.5666 16.9435 14.6739 25.9344 14.4702 35.3802C14.4549 35.6266 14.4549 35.8737 14.4702 36.1201C14.4598 36.2165 14.4598 36.3138 14.4702 36.4102C14.4702 37.1602 14.4702 37.9201 14.5402 38.6801C13.3583 39.516 12.3619 40.587 11.6134 41.826C10.8649 43.0649 10.3803 44.4452 10.1902 45.8802H1.36017C1.18082 45.8775 1.00274 45.9108 0.836516 45.9782C0.670295 46.0456 0.519315 46.1456 0.392486 46.2725C0.265657 46.3993 0.165565 46.5503 0.098174 46.7165C0.0307827 46.8827 -0.00254578 47.0608 0.000151571 47.2401V58.7502C-0.00254578 58.9295 0.0307827 59.1076 0.098174 59.2738C0.165565 59.44 0.265657 59.591 0.392486 59.7178C0.519315 59.8447 0.670295 59.9447 0.836516 60.0121C1.00274 60.0795 1.18082 60.1128 1.36017 60.1101H2.81015V74.1101C2.81015 75.4362 3.33694 76.708 4.27463 77.6457C5.21231 78.5834 6.48407 79.1101 7.81015 79.1101H35.4601C36.7862 79.1101 38.058 78.5834 38.9957 77.6457C39.9334 76.708 40.4601 75.4362 40.4601 74.1101V70.8102C43.7748 71.7896 47.2138 72.2848 50.6702 72.2802C60.2385 72.2618 69.4118 68.4623 76.1907 61.7096C82.9697 54.9568 86.8048 45.7984 86.8602 36.2302V35.9802C86.8348 33.3762 86.5365 30.782 85.9702 28.2401C86.7533 26.3245 87.1378 24.2694 87.1002 22.2002ZM84.3802 22.2002C84.3851 24.3195 83.8549 26.4058 82.8388 28.2656C81.8227 30.1255 80.3535 31.6987 78.5674 32.8396C76.7814 33.9805 74.7362 34.652 72.6215 34.7919C70.5068 34.9319 68.391 34.5357 66.4702 33.6401C66.2994 33.4957 66.0975 33.393 65.8802 33.3401C64.193 32.4415 62.7329 31.1699 61.6111 29.622C60.4894 28.0742 59.7354 26.2909 59.4066 24.4077C59.0778 22.5246 59.1829 20.5913 59.7137 18.7549C60.2446 16.9185 61.1873 15.2274 62.4702 13.8102C62.6169 13.7118 62.7398 13.582 62.8301 13.4301C65.0863 11.1456 68.1312 9.81097 71.3401 9.70016H71.7902C75.1181 9.70275 78.3098 11.0218 80.6686 13.3694C83.0274 15.7169 84.3617 18.9023 84.3802 22.2302V22.2002ZM50.5702 69.5002C47.1402 69.5002 43.7501 66.0901 41.1801 60.0801H41.8102C42.17 60.0775 42.5144 59.9334 42.7689 59.6789C43.0234 59.4244 43.1675 59.08 43.1702 58.7202V52.1401C45.6002 52.3601 48.0802 52.4802 50.5702 52.4802C54.5858 52.4764 58.596 52.1857 62.5702 51.6101C60.2402 62.4201 55.4702 69.5302 50.5702 69.5302V69.5002ZM63.1702 48.8102C59.0169 49.5054 54.8112 49.84 50.6002 49.8102C48.0902 49.8102 45.6002 49.6802 43.1702 49.4402V47.2302C43.1729 47.0508 43.1395 46.8727 43.0721 46.7065C43.0047 46.5403 42.9047 46.3893 42.7778 46.2625C42.651 46.1357 42.5 46.0356 42.3338 45.9682C42.1675 45.9008 41.9895 45.8675 41.8102 45.8701H37.5402C37.1325 42.6429 36.9287 39.3931 36.9301 36.1401C36.9284 31.8909 37.2863 27.649 38.0002 23.4601C42.1468 22.7654 46.3458 22.4308 50.5501 22.4601C52.5501 22.4601 54.5268 22.5368 56.4802 22.6902C56.5607 25.3196 57.3169 27.884 58.676 30.1364C60.0352 32.3888 61.9514 34.2532 64.2401 35.5501V36.1302C64.2468 40.3796 63.8889 44.6219 63.1702 48.8102ZM50.5901 2.75015H50.6402C54.0802 2.75015 57.5101 6.26015 60.0801 12.3701C58.2442 14.5389 57.0525 17.1787 56.6402 19.9901C54.6402 19.8401 52.5801 19.7602 50.5501 19.7602C46.5327 19.7534 42.5207 20.0576 38.5501 20.6701C40.9301 9.81014 45.6701 2.73015 50.5901 2.72015V2.75015ZM62.1501 10.3401C61.0708 7.8437 59.5914 5.54009 57.7701 3.52014C61.2732 4.287 64.6275 5.62127 67.7002 7.47015C65.674 8.02372 63.7844 8.99067 62.1501 10.3102V10.3401ZM43.4102 3.52014C42.5403 4.44666 41.757 5.45085 41.0702 6.52014C38.3679 11.0349 36.5173 16.0073 35.6102 21.1902C30.4218 22.1117 25.4421 23.9613 20.9102 26.6501C19.8424 27.3242 18.8383 28.094 17.9102 28.9502C19.2963 22.7193 22.4322 17.0136 26.9493 12.5035C31.4665 7.99346 37.1771 4.86651 43.4102 3.49014V3.52014ZM17.1702 36.1201C17.1702 35.8501 17.1702 35.5701 17.1702 35.3001C17.8902 30.6501 24.8401 26.3002 35.0901 24.0302C34.4739 28.0306 34.1663 32.0725 34.1702 36.1201C34.1616 39.3826 34.3587 42.6424 34.7602 45.8802H33.0002C32.67 43.3553 31.4328 41.0368 29.5193 39.3569C27.6057 37.677 25.1465 36.7505 22.6002 36.7502H20.6002C19.4504 36.7507 18.3086 36.9399 17.2202 37.3102C17.1802 36.9102 17.1702 36.5201 17.1702 36.1201ZM20.5702 39.4702H22.5702C24.3945 39.4721 26.1601 40.1152 27.5584 41.2868C28.9568 42.4585 29.8989 44.0843 30.2202 45.8802H12.9202C13.2414 44.0843 14.1835 42.4585 15.5818 41.2868C16.9802 40.1152 18.7458 39.4721 20.5702 39.4702ZM2.71014 48.6002H40.4702V57.3901H34.2602V55.0102C34.2629 54.8308 34.2295 54.6527 34.1621 54.4865C34.0947 54.3203 33.9947 54.1693 33.8678 54.0425C33.741 53.9157 33.59 53.8156 33.4238 53.7482C33.2575 53.6808 33.0795 53.6474 32.9001 53.6501H27.6501C27.4708 53.6474 27.2927 53.6808 27.1265 53.7482C26.9603 53.8156 26.8093 53.9157 26.6825 54.0425C26.5556 54.1693 26.4556 54.3203 26.3882 54.4865C26.3208 54.6527 26.2875 54.8308 26.2902 55.0102V57.3901H16.9001V54.9201C16.9028 54.7408 16.8695 54.5627 16.8021 54.3965C16.7347 54.2303 16.6347 54.0793 16.5078 53.9525C16.381 53.8257 16.23 53.7256 16.0638 53.6582C15.8976 53.5908 15.7195 53.5575 15.5402 53.5602H10.3001C10.1208 53.5575 9.94274 53.5908 9.77652 53.6582C9.6103 53.7256 9.45932 53.8257 9.33249 53.9525C9.20566 54.0793 9.10557 54.2303 9.03818 54.3965C8.97079 54.5627 8.93746 54.7408 8.94015 54.9201V57.3901H2.73016L2.71014 48.6002ZM28.9901 56.3701H31.5201V61.4502H28.9901V56.3701ZM11.6402 56.2902H14.1602V61.3601H11.6402V56.2902ZM35.4001 76.2902H7.75015C7.15515 76.2875 6.58541 76.0493 6.16562 75.6276C5.74582 75.206 5.51016 74.6352 5.51016 74.0402V60.0402H8.92017V62.6501C8.91747 62.8295 8.9508 63.0075 9.01819 63.1738C9.08558 63.34 9.18564 63.491 9.31247 63.6178C9.4393 63.7447 9.59031 63.8447 9.75653 63.9121C9.92275 63.9795 10.1008 64.0129 10.2802 64.0102H15.5201C15.6991 64.0115 15.8766 63.9772 16.0422 63.9093C16.2078 63.8415 16.3582 63.7413 16.4848 63.6148C16.6113 63.4882 16.7115 63.3378 16.7793 63.1722C16.8472 63.0066 16.8815 62.8291 16.8802 62.6501V60.1101H26.2701V62.8102C26.2688 62.9891 26.3031 63.1666 26.371 63.3322C26.4388 63.4978 26.539 63.6482 26.6655 63.7748C26.7921 63.9013 26.9425 64.0015 27.1081 64.0693C27.2737 64.1372 27.4512 64.1715 27.6302 64.1701H32.8802C33.2409 64.1701 33.5868 64.0269 33.8418 63.7718C34.0969 63.5168 34.2401 63.1708 34.2401 62.8102V60.1101H37.6402V74.1101C37.6349 74.7017 37.3969 75.2674 36.9777 75.6847C36.5584 76.1021 35.9917 76.3375 35.4001 76.3401V76.2902ZM40.4001 64.5402C41.1974 65.9735 42.1498 67.3149 43.2401 68.5402L43.4702 68.7701C42.4333 68.5462 41.4086 68.2692 40.4001 67.9402V64.5402ZM57.7002 68.8102C58.5963 67.891 59.4001 66.8862 60.1002 65.8102C62.792 61.313 64.6391 56.3616 65.5501 51.2002C70.744 50.2818 75.7282 48.4284 80.2602 45.7302C81.3258 45.0569 82.3297 44.2906 83.2602 43.4402C81.8543 49.6623 78.7027 55.3542 74.1753 59.848C69.6479 64.3417 63.9326 67.4507 57.7002 68.8102ZM84.0102 35.9901V36.1602C84.0102 36.3502 84.0102 36.5501 84.0102 36.7401C83.4802 41.4601 76.4801 45.9402 66.0901 48.2202C66.6729 44.4241 66.9771 40.5906 67.0002 36.7502C69.9659 37.7226 73.1581 37.7648 76.1485 36.8711C79.1389 35.9774 81.7844 34.1905 83.7302 31.7502C83.9196 33.1521 84.0132 34.5654 84.0102 35.9802V35.9901ZM71.7902 12.9901C71.9691 12.9888 72.1466 13.0231 72.3122 13.091C72.4778 13.1588 72.6282 13.259 72.7548 13.3855C72.8813 13.5121 72.9815 13.6625 73.0493 13.8281C73.1172 13.9937 73.1515 14.1712 73.1501 14.3502V15.6101C73.8706 15.877 74.499 16.3457 74.9601 16.9601C75.0871 17.0993 75.1838 17.2632 75.244 17.4417C75.3043 17.6201 75.3268 17.8091 75.3102 17.9967C75.2936 18.1843 75.2382 18.3664 75.1475 18.5315C75.0569 18.6966 74.9329 18.8411 74.7835 18.9557C74.6341 19.0704 74.4625 19.1528 74.2796 19.1976C74.0967 19.2425 73.9064 19.2489 73.7209 19.2164C73.5354 19.1839 73.3587 19.1133 73.2019 19.0089C73.0451 18.9045 72.9117 18.7687 72.8102 18.6101C72.6894 18.4589 72.5377 18.3351 72.3652 18.2472C72.1928 18.1592 72.0035 18.1091 71.8102 18.1002C71.6425 18.0988 71.4763 18.1307 71.3211 18.1939C71.1658 18.2572 71.0247 18.3505 70.9057 18.4686C70.7867 18.5866 70.6922 18.7271 70.6278 18.8818C70.5633 19.0366 70.5301 19.2025 70.5302 19.3701C70.5488 19.7176 70.686 20.0481 70.919 20.3066C71.1519 20.565 71.4665 20.7357 71.8102 20.7902C72.8916 20.8343 73.9135 21.2971 74.6599 22.0808C75.4064 22.8646 75.8188 23.9078 75.8102 24.9901C75.8083 25.8146 75.5518 26.6184 75.0756 27.2914C74.5995 27.9645 73.927 28.474 73.1501 28.7502V30.0402C73.1475 30.4 73.0034 30.7444 72.7489 30.9989C72.4944 31.2534 72.15 31.3975 71.7902 31.4001C71.6104 31.4028 71.4318 31.3696 71.265 31.3023C71.0983 31.235 70.9467 31.1351 70.819 31.0084C70.6914 30.8817 70.5904 30.7308 70.5219 30.5645C70.4534 30.3982 70.4188 30.22 70.4202 30.0402V28.8102C69.6273 28.5248 68.9449 27.9963 68.4702 27.3001C68.2855 26.9991 68.2242 26.6384 68.2992 26.2932C68.3741 25.9481 68.5794 25.6452 68.8723 25.4478C69.1651 25.2504 69.5229 25.1738 69.871 25.2338C70.219 25.2939 70.5304 25.486 70.7401 25.7701C70.8605 25.9425 71.0206 26.0833 71.2068 26.1808C71.393 26.2783 71.6 26.3295 71.8102 26.3301C71.9778 26.3315 72.144 26.2996 72.2992 26.2364C72.4545 26.1731 72.5957 26.0798 72.7147 25.9617C72.8337 25.8437 72.9281 25.7032 72.9925 25.5485C73.057 25.3938 73.0902 25.2278 73.0901 25.0602C73.0781 24.723 72.9563 24.3989 72.7433 24.1372C72.5304 23.8755 72.2379 23.6905 71.9102 23.6101H71.7902C71.7042 23.6255 71.6161 23.6255 71.5302 23.6101H71.4702C70.4648 23.4785 69.5402 22.99 68.8647 22.2338C68.1893 21.4776 67.8079 20.5039 67.7902 19.4901C67.7918 18.671 68.0449 17.8721 68.5153 17.2014C68.9856 16.5308 69.6506 16.0207 70.4202 15.7401V14.4702C70.4048 14.2821 70.4289 14.093 70.4911 13.9149C70.5533 13.7368 70.6521 13.5737 70.7812 13.4362C70.9103 13.2986 71.0668 13.1896 71.2405 13.1162C71.4143 13.0429 71.6016 13.0067 71.7902 13.0102V12.9901Z" fill="#B81EBE"/>
</svg>
