<svg width="66" height="80" viewBox="0 0 66 80" fill="none" xmlns="http://www.w3.org/2000/svg">
<path d="M56.1306 19.7354C55.4706 19.0754 54.7805 18.4454 54.0705 17.8454L55.0705 16.1054C55.4539 16.3276 55.8773 16.472 56.3166 16.5303C56.7559 16.5887 57.2025 16.5598 57.6306 16.4454C58.4987 16.2109 59.239 15.6431 59.6905 14.8654L62.0205 10.8654C62.464 10.0872 62.5826 9.16549 62.3504 8.30044C62.1182 7.43538 61.554 6.69688 60.7805 6.24538L50.7805 0.455406C50.3955 0.232395 49.9704 0.087542 49.5294 0.0291971C49.0884 -0.0291477 48.6402 0.000136636 48.2105 0.115379C47.3434 0.351798 46.6036 0.919167 46.1505 1.6954L43.8305 5.6954C43.3812 6.47385 43.2594 7.39891 43.4919 8.26714C43.7244 9.13538 44.2922 9.87572 45.0705 10.3254L44.0705 12.0454C41.2607 11.0361 38.3276 10.4105 35.3505 10.1854V6.1354H35.6306C35.8699 6.13672 36.1072 6.09056 36.3286 5.99956C36.55 5.90857 36.7511 5.77454 36.9204 5.60528C37.0896 5.43601 37.2237 5.23486 37.3146 5.01345C37.4056 4.79204 37.4518 4.55477 37.4505 4.31539V1.89538C37.4518 1.656 37.4056 1.41876 37.3146 1.19735C37.2237 0.975938 37.0896 0.774758 36.9204 0.605491C36.7511 0.436224 36.55 0.302228 36.3286 0.211234C36.1072 0.120241 35.8699 0.0740745 35.6306 0.0754008H30.1306C29.8912 0.0740745 29.6539 0.120241 29.4324 0.211234C29.211 0.302228 29.0099 0.436224 28.8407 0.605491C28.6714 0.774758 28.5374 0.975938 28.4464 1.19735C28.3554 1.41876 28.3092 1.656 28.3105 1.89538V4.31539C28.3092 4.55477 28.3554 4.79204 28.4464 5.01345C28.5374 5.23486 28.6714 5.43601 28.8407 5.60528C29.0099 5.77454 29.211 5.90857 29.4324 5.99956C29.6539 6.09056 29.8912 6.13672 30.1306 6.1354H30.4105V10.1954C27.4334 10.4205 24.5003 11.0461 21.6905 12.0554L20.6905 10.3354C21.4682 9.8839 22.036 9.14352 22.2705 8.27538C22.3854 7.84734 22.4146 7.40078 22.3563 6.96142C22.2979 6.52206 22.1532 6.09858 21.9305 5.71538L19.6005 1.71538C19.3798 1.32939 19.0848 0.990902 18.7326 0.719413C18.3805 0.447924 17.9781 0.248802 17.5487 0.133537C17.1192 0.0182717 16.6712 -0.0108576 16.2304 0.0478129C15.7897 0.106483 15.3649 0.251804 14.9805 0.475395L4.98054 6.2654C4.20228 6.71508 3.63446 7.45542 3.40193 8.32366C3.1694 9.1919 3.2912 10.1169 3.74055 10.8954L6.07051 14.8954C6.29221 15.2817 6.58807 15.6204 6.94111 15.8921C7.29416 16.1637 7.69749 16.3628 8.12776 16.478C8.55803 16.5933 9.00678 16.6223 9.44832 16.5635C9.88985 16.5047 10.3154 16.3592 10.7005 16.1354L11.7005 17.8754C10.9805 18.4754 10.3005 19.1054 9.64046 19.7654C4.05951 25.3359 0.669259 32.7284 0.0890635 40.5922C-0.491132 48.4561 1.77755 56.2662 6.48054 62.5954C5.07223 65.5346 3.96973 68.6107 3.1905 71.7754C2.4905 75.1854 2.8105 78.0454 5.1905 79.4154C7.3305 80.6454 9.67057 79.8554 12.0106 77.9954C14.062 76.2346 15.8981 74.2374 17.4805 72.0454C22.2312 74.5552 27.5226 75.867 32.8955 75.867C38.2683 75.867 43.5599 74.5552 48.3105 72.0454C49.899 74.2326 51.7382 76.2261 53.7905 77.9854C56.1305 79.8454 58.4705 80.6354 60.6005 79.4054C62.9805 78.0354 63.3005 75.1754 62.6005 71.7654C61.8213 68.6008 60.7188 65.5246 59.3105 62.5854C64.0075 56.2539 66.2724 48.4451 65.6923 40.583C65.1123 32.7208 61.7258 25.329 56.1505 19.7554L56.1306 19.7354ZM52.2705 16.4354C50.3764 15.0383 48.3341 13.8545 46.1805 12.9054L47.0205 11.4654L53.1105 14.9754L52.2705 16.4354ZM45.7705 6.83538L48.0905 2.83538C48.164 2.70625 48.2631 2.59353 48.3818 2.50411C48.5004 2.41469 48.6361 2.35046 48.7805 2.31539C48.9221 2.27415 49.0707 2.26265 49.217 2.28158C49.3633 2.30051 49.5041 2.34948 49.6306 2.42541L59.6306 8.21538C59.7595 8.2881 59.8726 8.38563 59.9636 8.50234C60.0545 8.61906 60.1214 8.75264 60.1605 8.89538C60.2343 9.18562 60.195 9.49307 60.0505 9.75539L57.7205 13.7554C57.6491 13.8842 57.5518 13.9969 57.4348 14.0864C57.3178 14.1758 57.1835 14.2402 57.0405 14.2754C56.8972 14.3169 56.747 14.3285 56.5991 14.3096C56.4511 14.2907 56.3087 14.2416 56.1805 14.1654L46.1805 8.3854C46.0531 8.31212 45.9416 8.21426 45.8524 8.09753C45.7631 7.9808 45.6978 7.84753 45.6605 7.70541C45.6157 7.56094 45.6023 7.40853 45.6213 7.25848C45.6403 7.10842 45.6911 6.96415 45.7705 6.83538ZM30.2705 3.97539V2.2354H35.4906V3.97539H30.2705ZM33.4005 6.1354V10.1354H32.4005V6.1354H33.4005ZM9.54048 14.1354C9.41426 14.2119 9.27352 14.2612 9.12715 14.2801C8.98078 14.2991 8.83204 14.2872 8.6905 14.2454C8.54679 14.2087 8.41186 14.1439 8.29341 14.0546C8.17496 13.9654 8.07541 13.8534 8.00056 13.7254L5.68049 9.72539C5.60695 9.59801 5.55919 9.45741 5.53999 9.31158C5.52079 9.16575 5.53061 9.01755 5.56868 8.87548C5.60675 8.7334 5.67237 8.6002 5.76192 8.48351C5.85146 8.36682 5.96314 8.26893 6.09053 8.1954L16.0905 2.40539C16.2187 2.3292 16.3612 2.28011 16.5091 2.26119C16.657 2.24227 16.8073 2.25393 16.9505 2.2954C17.0942 2.33207 17.2293 2.3969 17.3477 2.48617C17.4662 2.57543 17.5656 2.68735 17.6405 2.81539L19.9605 6.81539C20.105 7.07771 20.1443 7.38517 20.0705 7.67541C19.9921 7.96102 19.8056 8.20489 19.5505 8.3554L9.54048 14.1354ZM19.5405 12.8854C17.387 13.8409 15.342 15.0244 13.4405 16.4154L12.6005 14.9554L18.7005 11.4454L19.5405 12.8854ZM10.5405 76.1754C8.92048 77.4554 7.42046 78.0754 6.27046 77.4054C4.94046 76.6454 4.84055 74.6554 5.36055 72.1754C5.99356 69.5442 6.88445 66.9817 8.02046 64.5254C8.53046 65.1054 9.02053 65.6654 9.59053 66.2054C11.3612 67.9756 13.3271 69.5389 15.4505 70.8654C14.0361 72.8222 12.4021 74.6106 10.5805 76.1954L10.5405 76.1754ZM60.3205 72.1754C60.8305 74.6554 60.7305 76.6454 59.4105 77.4054C58.2505 78.0754 56.7505 77.4554 55.1405 76.1754C53.306 74.5991 51.6587 72.8174 50.2305 70.8654C52.354 69.5389 54.3199 67.9756 56.0905 66.2054C56.6305 65.6654 57.1505 65.1054 57.6505 64.5254C58.8088 66.9847 59.7168 69.5543 60.3605 72.1954L60.3205 72.1754ZM54.4906 64.5954C49.4777 69.5895 42.8884 72.6914 35.8453 73.3726C28.8021 74.0538 21.7407 72.2722 15.8637 68.3312C9.98672 64.3903 5.6577 58.5338 3.61409 51.7593C1.57048 44.9848 1.93858 37.7113 4.65584 31.1778C7.3731 24.6443 12.2714 19.2549 18.5163 15.9276C24.7612 12.6002 31.9666 11.5408 38.905 12.9297C45.8434 14.3187 52.0855 18.0701 56.5684 23.5449C61.0513 29.0197 63.4977 35.8794 63.4906 42.9554C63.4977 46.978 62.7097 50.9624 61.1721 54.6796C59.6344 58.3967 57.3773 61.7733 54.5305 64.6154L54.4906 64.5954Z" fill="#B81EBE"/>
<path d="M32.8806 15.5253C26.5297 15.5368 20.3791 17.7502 15.4772 21.7883C10.5753 25.8264 7.22528 31.4393 5.99795 37.6705C4.77063 43.9018 5.74198 50.3659 8.74649 55.9612C11.751 61.5566 16.6026 65.937 22.4749 68.356C28.3471 70.7751 34.8766 71.0831 40.9505 69.2275C47.0243 67.372 52.2668 63.4677 55.7847 58.18C59.3026 52.8923 60.8781 46.5484 60.2428 40.2293C59.6075 33.9102 56.8006 28.0068 52.3006 23.5253C49.7494 20.9792 46.7208 18.9619 43.3882 17.5891C40.0557 16.2163 36.4849 15.5149 32.8806 15.5253ZM57.1106 45.7853C56.4721 51.2444 54.0097 56.3282 50.1223 60.2138C46.235 64.0993 41.15 66.5592 35.6906 67.1953V63.4753H30.0706V67.1953C24.6092 66.5644 19.5213 64.1062 15.633 60.2196C11.7446 56.333 9.28396 51.2464 8.65054 45.7853H12.3706V40.1753H8.65054C9.28051 34.7129 11.74 29.6242 15.6291 25.737C19.5181 21.8498 24.6079 19.3927 30.0706 18.7653V22.4753H35.6906V18.7653C41.152 19.3962 46.2398 21.8544 50.1282 25.7409C54.0166 29.6275 56.4772 34.7142 57.1106 40.1753H53.3905V45.7853H57.1106Z" fill="#B81EBE"/>
<path d="M32.8704 32.8855C33.0497 32.8828 33.2277 32.9162 33.3939 32.9836C33.5601 33.0509 33.7112 33.151 33.838 33.2779C33.9648 33.4047 34.0649 33.5557 34.1323 33.7219C34.1997 33.8881 34.233 34.0662 34.2303 34.2455V35.5055C34.9533 35.7677 35.5828 36.2373 36.0403 36.8555C36.148 36.9967 36.2269 37.1577 36.2723 37.3293C36.3178 37.501 36.329 37.6799 36.3053 37.8558C36.2816 38.0318 36.2235 38.2014 36.1343 38.3549C36.0451 38.5084 35.9264 38.6428 35.7853 38.7505C35.6441 38.8582 35.4832 38.937 35.3115 38.9825C35.1399 39.028 34.961 39.0392 34.785 39.0155C34.6091 38.9918 34.4394 38.9337 34.2859 38.8445C34.1324 38.7553 33.9979 38.6367 33.8903 38.4955C33.7695 38.3442 33.6179 38.2205 33.4454 38.1325C33.273 38.0446 33.0836 37.9945 32.8903 37.9855C32.5508 37.9855 32.2253 38.1204 31.9852 38.3604C31.7452 38.6005 31.6104 38.9261 31.6104 39.2655C31.6275 39.6124 31.7645 39.9426 31.9979 40.1997C32.2314 40.4569 32.5467 40.625 32.8903 40.6755C33.9717 40.7196 34.9937 41.1824 35.7401 41.9662C36.4865 42.7499 36.8989 43.7932 36.8903 44.8755C36.8884 45.7 36.6319 46.5037 36.1558 47.1768C35.6796 47.8499 35.0072 48.3593 34.2303 48.6355V49.9255C34.2011 50.2674 34.0445 50.5858 33.7917 50.8178C33.539 51.0498 33.2085 51.1786 32.8654 51.1786C32.5223 51.1786 32.1916 51.0498 31.9388 50.8178C31.6861 50.5858 31.5297 50.2674 31.5004 49.9255V48.6355C30.6878 48.3568 29.9865 47.8238 29.5004 47.1155C29.3988 46.9668 29.3277 46.7995 29.2913 46.6231C29.2549 46.4468 29.2538 46.265 29.2882 46.0882C29.3226 45.9114 29.3918 45.7433 29.4917 45.5935C29.5916 45.4437 29.7204 45.3152 29.8704 45.2155C30.1723 45.0156 30.5407 44.9423 30.8961 45.0115C31.2516 45.0808 31.5654 45.2869 31.7703 45.5855C31.8901 45.7591 32.0498 45.9015 32.236 46.0006C32.4221 46.0998 32.6294 46.1529 32.8403 46.1555C33.1798 46.1555 33.5053 46.0207 33.7454 45.7806C33.9854 45.5406 34.1204 45.215 34.1204 44.8755C34.1083 44.5383 33.9865 44.2143 33.7736 43.9526C33.5606 43.6909 33.268 43.5059 32.9403 43.4255H32.8203C32.7343 43.4403 32.6463 43.4403 32.5603 43.4255H32.5004C31.4958 43.2919 30.5723 42.8029 29.8972 42.0471C29.2221 41.2913 28.8401 40.3187 28.8203 39.3055C28.8199 38.4847 29.0721 37.6836 29.5426 37.0109C30.0131 36.3383 30.6791 35.8267 31.4503 35.5455V34.2855C31.4415 34.0976 31.4725 33.91 31.541 33.7348C31.6095 33.5597 31.7141 33.4009 31.848 33.2688C31.982 33.1368 32.1422 33.0344 32.3184 32.9684C32.4945 32.9023 32.6826 32.8741 32.8704 32.8855Z" fill="#B81EBE"/>
</svg>
