<svg width="85" height="80" viewBox="0 0 85 80" fill="none" xmlns="http://www.w3.org/2000/svg">
<path d="M43.6699 44.9301H45.3599C45.7158 44.9434 46.0698 44.8725 46.393 44.723C46.7162 44.5736 46.9996 44.3498 47.2199 44.0701C47.5015 43.7686 47.7101 43.4064 47.8293 43.0115C47.9486 42.6165 47.9754 42.1994 47.9078 41.7925C47.8401 41.3855 47.6797 40.9996 47.4391 40.6645C47.1984 40.3294 46.8839 40.0542 46.5199 39.86C46.166 39.7014 45.7868 39.6067 45.3999 39.5801H41.8799V47.5801H43.7099L43.6699 44.9301ZM43.8099 41.0001H45.2199C45.6499 41.0001 46.0699 41.4201 46.0699 42.1201C46.0471 42.4068 46.0003 42.6912 45.9299 42.9701C45.8632 43.0554 45.7783 43.1247 45.6815 43.1732C45.5846 43.2216 45.4782 43.2478 45.3699 43.2501H43.8199L43.8099 41.0001Z" fill="#B81EBE"/>
<path d="M38.7599 28.22H33.4199V33.5599H38.7599V28.22Z" fill="#B81EBE"/>
<path d="M34.6797 39.6001V47.6001H36.5096V44.9301H38.2197C38.7361 44.9218 39.2394 44.7662 39.6703 44.4815C40.1013 44.1968 40.4419 43.7949 40.652 43.3231C40.8622 42.8513 40.9332 42.3293 40.8566 41.8185C40.78 41.3077 40.559 40.8295 40.2197 40.4401C39.9397 40.3001 39.6596 40.0201 39.3796 39.8801C39.0226 39.7203 38.64 39.6255 38.2497 39.6001H34.6797ZM38.7497 43.11C38.684 43.1964 38.5993 43.2666 38.5022 43.3151C38.4051 43.3637 38.2982 43.3893 38.1896 43.3901H36.6497V41.1401H38.3297C39.0397 41.4201 39.0397 42.5401 38.7497 43.0701V43.11Z" fill="#B81EBE"/>
<path d="M29.9094 28.22H24.5693V33.5599H29.9094V28.22Z" fill="#B81EBE"/>
<path d="M28.9197 45.6302H31.4496L32.0096 47.4602H34.0096L30.9197 39.4602H29.5197L26.4297 47.4602H28.4297L28.9197 45.6302ZM30.1896 41.4202L31.1896 44.3702H29.1896L30.1896 41.4202Z" fill="#B81EBE"/>
<path d="M82.85 61.3602H77.37V47.4602C77.3886 47.2092 77.3552 46.957 77.2719 46.7195C77.1886 46.482 77.0572 46.2642 76.8859 46.0797C76.7146 45.8953 76.5072 45.7481 76.2764 45.6475C76.0457 45.5469 75.7967 45.495 75.545 45.495C75.2933 45.495 75.0443 45.5469 74.8135 45.6475C74.5828 45.7481 74.3753 45.8953 74.204 46.0797C74.0328 46.2642 73.9013 46.482 73.8181 46.7195C73.7348 46.957 73.7014 47.2092 73.72 47.4602V61.3602H52.9399C52.457 61.3679 51.9961 61.5632 51.6545 61.9047C51.313 62.2463 51.1177 62.7073 51.11 63.1902V66.7002H31.73V63.1902C31.7223 62.7089 31.5284 62.2494 31.189 61.9081C30.8496 61.5669 30.3912 61.3705 29.91 61.3602H10.53V8.84021H36.93C37.3907 8.80609 37.8214 8.59899 38.1357 8.2605C38.4501 7.922 38.6248 7.47714 38.6248 7.0152C38.6248 6.55325 38.4501 6.10839 38.1357 5.7699C37.8214 5.4314 37.3907 5.22431 36.93 5.19019H8.83997C8.35015 5.20069 7.88429 5.40404 7.54352 5.75604C7.20275 6.10805 7.01458 6.58029 7.01996 7.07019V61.4102H1.81995C1.33876 61.4205 0.88029 61.6169 0.540894 61.9581C0.201497 62.2994 0.00765288 62.7589 0 63.2402V77.2402C0.00765288 77.7214 0.201497 78.181 0.540894 78.5222C0.88029 78.8635 1.33876 79.0599 1.81995 79.0702H82.5699C83.0625 79.0092 83.5256 78.8024 83.8998 78.4763C84.274 78.1502 84.5422 77.7198 84.67 77.2402V63.2402C84.6754 62.7503 84.4872 62.278 84.1464 61.926C83.8057 61.574 83.3398 61.3707 82.85 61.3602ZM80.74 75.5502H3.50995V65.0102H28.08V68.5202C28.0877 69.0031 28.283 69.4641 28.6245 69.8057C28.966 70.1472 29.427 70.3425 29.91 70.3502H52.66C53.1412 70.3399 53.5996 70.1435 53.939 69.8022C54.2784 69.461 54.4723 69.0014 54.48 68.5202V65.0102H80.74V75.5502Z" fill="#B81EBE"/>
<path d="M36.9299 14.0701H17.8298C17.3727 14.1077 16.9463 14.3156 16.6351 14.6526C16.324 14.9897 16.1508 15.4314 16.1498 15.8901V54.3701C16.1377 54.601 16.1718 54.8321 16.2501 55.0498C16.3284 55.2675 16.4493 55.4674 16.6057 55.6378C16.7621 55.8081 16.9509 55.9456 17.1611 56.0422C17.3713 56.1387 17.5987 56.1924 17.8298 56.2001C23.0298 56.2001 60.6599 56.3401 65.9999 56.2001C66.3267 56.2641 66.6643 56.2455 66.9822 56.146C67.3 56.0465 67.5879 55.8691 67.8198 55.6301C67.9968 55.4709 68.1389 55.2768 68.2371 55.0599C68.3352 54.843 68.3872 54.6081 68.3898 54.3701V47.4901C68.3898 47.0047 68.1971 46.5392 67.8539 46.196C67.5107 45.8529 67.0452 45.6601 66.5599 45.6601C66.0745 45.6601 65.6091 45.8529 65.2659 46.196C64.9227 46.5392 64.7299 47.0047 64.7299 47.4901V52.6901C58.5599 52.8301 35.9498 52.8301 19.5198 52.6901V17.6901H36.9299C37.3906 17.6559 37.8213 17.4488 38.1356 17.1104C38.45 16.7719 38.6246 16.327 38.6246 15.8651C38.6246 15.4031 38.45 14.9582 38.1356 14.6198C37.8213 14.2813 37.3906 14.0742 36.9299 14.04V14.0701Z" fill="#B81EBE"/>
<path d="M63.2199 30.61C65.1087 30.61 66.9551 30.0499 68.5256 29.0006C70.0961 27.9512 71.3202 26.4597 72.043 24.7147C72.7658 22.9697 72.9549 21.0494 72.5864 19.1969C72.2179 17.3444 71.3084 15.6428 69.9728 14.3072C68.6372 12.9716 66.9355 12.062 65.083 11.6935C63.2305 11.325 61.3103 11.5142 59.5653 12.237C57.8203 12.9598 56.3287 14.1839 55.2794 15.7544C54.23 17.3249 53.6699 19.1712 53.6699 21.06C53.6726 23.592 54.6796 26.0196 56.47 27.81C58.2604 29.6004 60.6879 30.6074 63.2199 30.61ZM63.2199 15.1601C64.4066 15.1601 65.5666 15.5119 66.5533 16.1712C67.54 16.8305 68.3091 17.7676 68.7632 18.8639C69.2173 19.9603 69.3361 21.1667 69.1046 22.3306C68.8731 23.4945 68.3016 24.5636 67.4625 25.4027C66.6234 26.2418 65.5543 26.8133 64.3904 27.0448C63.2266 27.2763 62.0202 27.1575 60.9238 26.7033C59.8275 26.2492 58.8904 25.4801 58.2311 24.4934C57.5718 23.5067 57.2199 22.3468 57.2199 21.1601C57.2432 19.576 57.8828 18.0633 59.003 16.9431C60.1232 15.8229 61.6359 15.1833 63.2199 15.1601Z" fill="#B81EBE"/>
<path d="M43.81 25.55H47.74C48.0833 26.7222 48.5562 27.8526 49.15 28.92L46.34 31.73C46.0047 32.0656 45.8164 32.5206 45.8164 32.995C45.8164 33.4694 46.0047 33.9244 46.34 34.26L49.99 37.91C50.3256 38.2453 50.7806 38.4336 51.2549 38.4336C51.7293 38.4336 52.1843 38.2453 52.52 37.91L55.3199 35.1C56.3697 35.7365 57.5091 36.2117 58.7 36.51V40.44C58.7077 40.9203 58.9019 41.3787 59.2416 41.7184C59.5812 42.058 60.0397 42.2523 60.52 42.26H65.72C66.2003 42.2523 66.6587 42.058 66.9984 41.7184C67.338 41.3787 67.5323 40.9203 67.54 40.44V36.51C68.7107 36.1624 69.8405 35.6897 70.91 35.1L73.72 37.91C74.0556 38.2453 74.5106 38.4336 74.985 38.4336C75.4594 38.4336 75.9144 38.2453 76.25 37.91L79.9 34.26C80.2352 33.9244 80.4235 33.4694 80.4235 32.995C80.4235 32.5206 80.2352 32.0656 79.9 31.73L77.09 28.92C77.7282 27.8747 78.2037 26.7384 78.5 25.55H82.43C82.9103 25.5423 83.3687 25.3481 83.7084 25.0084C84.048 24.6688 84.2423 24.2103 84.25 23.73V18.53C84.2423 18.0497 84.048 17.5913 83.7084 17.2516C83.3687 16.912 82.9103 16.7177 82.43 16.71H78.5C78.1524 15.5393 77.6796 14.4095 77.09 13.34L79.9 10.53C80.0759 10.3685 80.2165 10.1722 80.3129 9.95361C80.4093 9.73504 80.4594 9.49889 80.46 9.26001C80.422 8.78856 80.2245 8.34411 79.9 8L76.22 4.35004C75.8843 4.01479 75.4293 3.82648 74.955 3.82648C74.4806 3.82648 74.0256 4.01479 73.6899 4.35004L70.8799 7.16003C69.8347 6.52178 68.6983 6.0463 67.5099 5.75V1.82001C67.5022 1.33972 67.308 0.881282 66.9684 0.541626C66.6287 0.20197 66.1702 0.00772723 65.6899 0H60.49C60.0097 0.00772723 59.5513 0.20197 59.2116 0.541626C58.872 0.881282 58.6777 1.33972 58.67 1.82001V5.75C57.4967 6.09937 56.3637 6.57204 55.29 7.16003L52.49 4.35004C52.1544 4.01479 51.6994 3.82648 51.225 3.82648C50.7506 3.82648 50.2956 4.01479 49.96 4.35004L46.31 8C46.1343 8.15965 45.9938 8.35412 45.8973 8.57104C45.8009 8.78797 45.7508 9.02262 45.75 9.26001C45.7881 9.73438 45.9855 10.182 46.31 10.53L49.12 13.34C48.4776 14.3832 48.0019 15.5202 47.71 16.71H43.78C43.2997 16.7177 42.8412 16.912 42.5016 17.2516C42.1619 17.5913 41.9677 18.0497 41.96 18.53V23.73C41.9678 24.2154 42.1662 24.6783 42.5123 25.0188C42.8584 25.3593 43.3245 25.5501 43.81 25.55ZM45.64 20.36H49.29C49.6936 20.3694 50.0868 20.2315 50.396 19.972C50.7052 19.7125 50.9093 19.3491 50.97 18.95C51.275 17.2315 51.9582 15.6022 52.97 14.18C53.2234 13.8517 53.349 13.4426 53.3232 13.0287C53.2975 12.6148 53.1222 12.2243 52.83 11.93L50.3 9.40002L51.42 8.28003L53.95 10.81C54.2609 11.0705 54.6471 11.2246 55.0519 11.2498C55.4568 11.2749 55.8591 11.1699 56.2 10.95C57.6244 9.94226 59.2528 9.25952 60.97 8.95001C61.3682 8.88732 61.7303 8.68268 61.9894 8.3739C62.2486 8.06513 62.3873 7.67307 62.3799 7.27002V3.62H64.06V7.27002C64.0505 7.67361 64.1885 8.06681 64.448 8.37604C64.7075 8.68527 65.0709 8.88932 65.47 8.95001C67.1872 9.25952 68.8155 9.94226 70.24 10.95C70.5682 11.2035 70.9774 11.329 71.3913 11.3033C71.8052 11.2775 72.1957 11.1022 72.49 10.81L75.02 8.28003L76.14 9.40002L73.61 11.93C73.3495 12.241 73.1954 12.6271 73.1702 13.032C73.145 13.4368 73.2501 13.8391 73.47 14.18C74.4777 15.6044 75.1605 17.2328 75.47 18.95C75.5307 19.3491 75.7347 19.7125 76.0439 19.972C76.3532 20.2315 76.7464 20.3694 77.15 20.36H80.8V22.07H77.15C76.7464 22.0606 76.3532 22.1985 76.0439 22.458C75.7347 22.7175 75.5307 23.0809 75.47 23.48C75.1605 25.1972 74.4777 26.8255 73.47 28.25C73.2165 28.5782 73.0909 28.9874 73.1167 29.4014C73.1425 29.8153 73.3178 30.2057 73.61 30.5L76.14 33.03L75.02 34.15L72.49 31.62C72.179 31.3595 71.7929 31.2054 71.388 31.1802C70.9831 31.155 70.5809 31.2601 70.24 31.48C68.8155 32.4877 67.1872 33.1705 65.47 33.48C65.0709 33.5407 64.7075 33.7447 64.448 34.054C64.1885 34.3632 64.0505 34.7564 64.06 35.16V38.81H62.3799V35.07C62.3873 34.667 62.2486 34.2748 61.9894 33.9661C61.7303 33.6573 61.3682 33.4527 60.97 33.39C59.2528 33.0805 57.6244 32.3978 56.2 31.39C55.8717 31.1365 55.4626 31.011 55.0486 31.0367C54.6347 31.0625 54.2442 31.2378 53.95 31.53L51.42 34.06L50.3 32.94L52.83 30.41C53.0904 30.0991 53.2445 29.7129 53.2697 29.308C53.2949 28.9032 53.1899 28.5009 52.97 28.16C51.9582 26.7378 51.275 25.1085 50.97 23.39C50.9093 22.9909 50.7052 22.6276 50.396 22.368C50.0868 22.1085 49.6936 21.9705 49.29 21.98H45.64V20.36Z" fill="#B81EBE"/>
</svg>
