<svg width="46" height="46" viewBox="0 0 46 46" fill="none" xmlns="http://www.w3.org/2000/svg">
<circle cx="22.5" cy="22.5" r="18.5" fill="black"/>
<path fill-rule="evenodd" clip-rule="evenodd" d="M22.6 0C35.1 0 45.2 10.1001 45.2 22.6001C45.2 35.1001 35.1 45.2002 22.6 45.2002C10.1 45.2002 0 35.1001 0 22.6001C0 10.1001 10.1 0 22.6 0ZM24.8 37.9004V24.9004H29.9L31 19.1001H24.8C24.8 17.1001 24.6 14.9003 25.8 13.8003C26.9 12.7003 29.4 12.8 31.2 13V7.7002C29.8 7.4002 28.2 7.20029 26.7 7.30029C23.8 7.50029 21.2 7.90039 19.5 10.4004C17.8 12.8004 17.9 15.7002 17.9 19.2002H14V25H17.9V38H24.8V37.9004Z" fill="#DBDBDB"/>
</svg>
