<svg width="46" height="46" viewBox="0 0 46 46" fill="none" xmlns="http://www.w3.org/2000/svg">
<circle cx="22.5" cy="22.5" r="18.5" fill="black"/>
<path fill-rule="evenodd" clip-rule="evenodd" d="M23.2001 0C10.7001 0 0.600098 10.1001 0.600098 22.6001C0.600098 35.1001 10.7001 45.2002 23.2001 45.2002C35.7001 45.2002 45.8 35.1001 45.8 22.6001C45.8 10.1001 35.7001 0 23.2001 0ZM17.5001 32.9004H12.5001V16.9004H17.4V32.9004H17.5001ZM15.0001 14.7002C13.4001 14.7002 12.1001 13.4003 12.1001 11.8003C12.1001 10.2003 13.4001 9 15.0001 9C16.6001 9 17.9 10.3004 17.9 11.9004C17.9 13.5004 16.6001 14.7002 15.0001 14.7002ZM36.0001 32.9004H31.1001C31.1001 29.9004 31.1001 26.9003 31.1001 23.8003C31.1001 23.5003 31.1 23.1001 30.9 22.6001C30.3 20.1001 27.2001 20.2001 26.1001 22.1001C25.7001 22.8001 25.6001 23.6 25.6001 24.5C25.6001 27.3 25.6001 30.0003 25.6001 32.8003H20.7001C20.7001 32.8003 20.6001 32.8002 20.6001 32.7002V16.8003H25.3C25.3 16.8003 25.4 16.8004 25.4 16.9004V19C25.4 19.1 25.4001 19.1 25.5001 19C26.3001 17.6 27.8 16.7 29.3 16.5C30.2 16.3 31.1001 16.4001 32.1001 16.6001C34.5001 17.3001 35.8001 19.2001 36.1001 21.6001C36.1001 21.9001 36.2001 22.4 36.2001 23C36.0001 26.4 36.0001 29.6004 36.0001 32.9004Z" fill="#DBDBDB"/>
</svg>
