<svg width="46" height="46" viewBox="0 0 46 46" fill="none" xmlns="http://www.w3.org/2000/svg">
<circle cx="22.5" cy="22.5" r="18.5" fill="black"/>
<path fill-rule="evenodd" clip-rule="evenodd" d="M22.6 0C35.1 0 45.2 10.1001 45.2 22.6001C45.2 35.1001 35.1 45.2002 22.6 45.2002C10.1 45.2002 0 35.1001 0 22.6001C0 10.1001 10.1 0 22.6 0ZM30.1 10.9004L23.5 18.4004L17.8999 10.9004H9.69995L19.5 23.7002L10.2 34.3003H14.2L21.3999 26.1001L27.6 34.3003H35.6L25.3999 20.8003L34.1 10.8003H30.1V10.9004ZM28.7 31.9004H30.8999L16.7 13.1001H14.2999L28.7 31.9004Z" fill="#DBDBDB"/>
</svg>
