<svg width="46" height="46" viewBox="0 0 46 46" fill="none" xmlns="http://www.w3.org/2000/svg">
<path fill-rule="evenodd" clip-rule="evenodd" d="M20.7002 23.9004C20.7002 25.4004 19.6002 26.6001 18.2002 26.6001C16.8002 26.6001 15.7002 25.4004 15.7002 23.9004C15.7002 22.4004 16.8002 21.2002 18.2002 21.2002C19.6002 21.2002 20.7002 22.4004 20.7002 23.9004Z" fill="white"/>
<path fill-rule="evenodd" clip-rule="evenodd" d="M29.8003 23.9004C29.8003 25.4004 28.7003 26.6001 27.3003 26.6001C25.9003 26.6001 24.8003 25.4004 24.8003 23.9004C24.8003 22.4004 25.9003 21.2002 27.3003 21.2002C28.7003 21.2002 29.8003 22.4004 29.8003 23.9004Z" fill="white"/>
<path fill-rule="evenodd" clip-rule="evenodd" d="M22.8003 0C10.3003 0 0.200195 10.1001 0.200195 22.6001C0.200195 35.1001 10.3003 45.2002 22.8003 45.2002C35.3003 45.2002 45.4003 35.1001 45.4003 22.6001C45.5003 10.1001 35.3003 0 22.8003 0ZM36.4003 29.8003C34.3003 31.4003 32.0002 32.6003 29.5002 33.3003C28.9002 32.6003 28.5002 31.8004 28.0002 30.9004C28.8002 30.6004 29.6003 30.2003 30.3003 29.8003L29.8003 29.4004C27.4003 30.5004 24.8002 31.0004 22.2002 30.9004C20.1002 30.8004 18.0002 30.3004 16.0002 29.4004L15.5002 29.8003C16.2002 30.2003 17.0003 30.6004 17.8003 30.9004C17.4003 31.7004 16.9003 32.5003 16.3003 33.3003C13.8003 32.5003 11.5003 31.4003 9.40027 29.8003C9.30027 29.1003 9.30029 28.5004 9.30029 27.9004C9.20029 24.0004 10.1003 20.3003 11.9003 16.8003C12.4003 15.9003 12.9003 15.1002 13.4003 14.2002C15.2003 13.4002 17.1002 12.8 19.0002 12.5C19.3002 13 19.5002 13.4004 19.7002 13.9004C21.8002 13.6004 23.8003 13.6004 25.9003 13.9004C26.1003 13.4004 26.3002 12.9 26.6002 12.5C28.5002 12.8 30.4002 13.4002 32.2002 14.2002C34.7002 17.8002 36.2003 21.9003 36.4003 26.3003C36.6003 27.5003 36.5003 28.6003 36.4003 29.8003Z" fill="white"/>
</svg>
