<svg width="46" height="46" viewBox="0 0 46 46" fill="none" xmlns="http://www.w3.org/2000/svg">
<path fill-rule="evenodd" clip-rule="evenodd" d="M22.9999 0C10.4999 0 0.399902 10.1001 0.399902 22.6001C0.399902 35.1001 10.4999 45.2002 22.9999 45.2002C35.4999 45.2002 45.5999 35.1001 45.5999 22.6001C45.5999 10.1001 35.4999 0 22.9999 0ZM17.2999 32.9004H12.2999V16.9004H17.1998V32.9004H17.2999ZM14.7999 14.7002C13.1999 14.7002 11.8999 13.4003 11.8999 11.8003C11.8999 10.2003 13.1999 9 14.7999 9C16.3999 9 17.6998 10.3004 17.6998 11.9004C17.6998 13.5004 16.3999 14.7002 14.7999 14.7002ZM35.7999 32.9004H30.8999C30.8999 29.9004 30.8999 26.9003 30.8999 23.8003C30.8999 23.5003 30.8998 23.1001 30.6998 22.6001C30.0998 20.1001 26.9999 20.2001 25.8999 22.1001C25.4999 22.8001 25.3999 23.6 25.3999 24.5C25.3999 27.3 25.3999 30.0003 25.3999 32.8003H20.4999C20.4999 32.8003 20.3999 32.8002 20.3999 32.7002V16.8003H25.0999C25.0999 16.8003 25.1998 16.8004 25.1998 16.9004V19C25.1998 19.1 25.1999 19.1 25.2999 19C26.0999 17.6 27.5999 16.7 29.0999 16.5C29.9999 16.3 30.8999 16.4001 31.8999 16.6001C34.2999 17.3001 35.5999 19.2001 35.8999 21.6001C35.8999 21.9001 35.9999 22.4 35.9999 23C35.7999 26.4 35.7999 29.6004 35.7999 32.9004Z" fill="white"/>
</svg>
