<svg width="46" height="46" viewBox="0 0 46 46" fill="none" xmlns="http://www.w3.org/2000/svg">
<path fill-rule="evenodd" clip-rule="evenodd" d="M23.2001 0C10.7001 0 0.600098 10.1001 0.600098 22.6001C0.600098 35.1001 10.7001 45.2002 23.2001 45.2002C35.7001 45.2002 45.8002 35.1001 45.8002 22.6001C45.9002 10.1001 35.7001 0 23.2001 0ZM35.6001 12.1001C35.0001 15.0001 33.6001 20.6001 33.2001 22.6001C32.5001 26.0001 31.8001 29.4003 31.0001 32.8003C30.9001 33.2003 30.8001 33.4001 30.7001 33.6001C30.4001 34.1001 29.8002 34.3003 29.3002 34.3003C29.0002 34.3003 28.8001 34.2 28.6001 34C26.6001 32.5 24.7001 31 22.7001 29.5C22.7001 29.5 22.7001 29.5 22.6001 29.5L20.2001 27.7002C19.4001 27.1002 19.4001 25.9003 20.1001 25.3003C22.9001 22.8003 29.1001 17.1003 30.9001 15.3003C31.0001 15.2003 30.9001 15.0001 30.7001 15.1001C27.0001 17.4001 19.9001 22.1001 16.9001 24.1001C16.0001 24.7001 14.9001 24.8 13.9001 24.5C12.3001 24 10.7001 23.4004 9.20007 22.9004C9.00007 22.9004 8.90007 22.8002 8.70007 22.7002C8.00007 22.3002 8.10017 21.3004 8.80017 20.9004C15.4002 18.0004 29.4001 12.9002 34.1001 11.2002C35.0001 10.8002 35.8001 11.4001 35.6001 12.1001Z" fill="white"/>
</svg>
