<svg width="46" height="46" viewBox="0 0 46 46" fill="none" xmlns="http://www.w3.org/2000/svg">
<path fill-rule="evenodd" clip-rule="evenodd" d="M23.2001 0C35.7001 0 45.8002 10.1001 45.8002 22.6001C45.8002 35.1001 35.7001 45.2002 23.2001 45.2002C10.7001 45.2002 0.600098 35.1001 0.600098 22.6001C0.600098 10.1001 10.7001 0 23.2001 0ZM31.7001 14.3003C30.2001 13.3003 29.1002 11.7004 28.8002 9.90039C28.7002 9.50039 28.7001 9.1002 28.7001 8.7002H23.9001V27.8003C23.8001 30.0003 22.1001 31.7002 19.9001 31.7002C19.3001 31.7002 18.6001 31.5002 18.1001 31.2002C16.8001 30.5002 15.9001 29.2001 15.9001 27.6001C15.9001 25.4001 17.7001 23.6001 19.9001 23.6001C20.3001 23.6001 20.7001 23.7003 21.1001 23.8003V18.9004C20.7001 18.9004 20.3001 18.8003 19.9001 18.8003C15.1001 18.8003 11.1001 22.7001 11.1001 27.6001C11.1001 30.6001 12.6001 33.2003 14.9001 34.8003C16.3001 35.8003 18.1001 36.4004 19.9001 36.4004C24.7001 36.4004 28.7001 32.5001 28.7001 27.6001V17.9004C30.6001 19.2004 32.9001 20 35.4001 20V15.2002C34.0001 15.4002 32.7001 15.0003 31.7001 14.3003Z" fill="white"/>
</svg>
