<svg width="46" height="46" viewBox="0 0 46 46" fill="none" xmlns="http://www.w3.org/2000/svg">
<path fill-rule="evenodd" clip-rule="evenodd" d="M22.6 0C35.1 0 45.2 10.1001 45.2 22.6001C45.2 35.1001 35.1 45.2002 22.6 45.2002C10.1 45.2002 0 35.1001 0 22.6001C0 10.1001 10.1 0 22.6 0ZM37.6 16.5C37.6 16.5 37.3 14.4 36.4 13.5C35.2 12.3 33.9 12.3002 33.3 12.2002C29 11.9002 22.6 11.9004 22.6 11.9004C22.6 11.9004 16.2 11.9002 11.9 12.2002C11.3 12.3002 10 12.3 8.90002 13.5C8.00002 14.4 7.69995 16.5 7.69995 16.5C7.69995 16.5 7.40002 19.0004 7.40002 21.4004V23.7002C7.40002 26.2002 7.69995 28.6001 7.69995 28.6001C7.69995 28.6001 8.00002 30.7001 8.90002 31.6001C10.1 32.8001 11.6 32.8004 12.3 32.9004C14.8 33.1004 22.7 33.2002 22.7 33.2002C22.7 33.2002 29.1 33.2004 33.4 32.9004C34 32.8004 35.3 32.8001 36.4 31.6001C37.3 30.7001 37.6 28.6001 37.6 28.6001C37.6 28.6001 37.9 26.1002 37.9 23.7002V21.4004C37.9 19.0004 37.6 16.5 37.6 16.5ZM19.5 26.6001L27.7 22.3003L19.5 18V26.6001Z" fill="white"/>
</svg>
