<svg width="11" height="20" viewBox="0 0 11 20" fill="none" xmlns="http://www.w3.org/2000/svg">
<path d="M6.50415 15H0.77785V3.9115H6.23935C8.606 3.9115 9.88035 4.75555 9.88035 6.67535C9.88035 7.99935 9.1356 8.85995 7.66265 9.042V9.2075C9.45005 9.3399 10.3272 10.4653 10.3272 11.9548C10.3272 13.825 9.0363 15 6.50415 15ZM3.26035 6.14575V8.29725H6.07385C7.00065 8.29725 7.39785 8.09865 7.39785 7.2215C7.39785 6.3278 6.9841 6.14575 6.07385 6.14575H3.26035ZM3.26035 10.3163V12.7658H6.4214C7.33165 12.7658 7.82815 12.6002 7.82815 11.5576C7.82815 10.4819 7.3482 10.3163 6.4214 10.3163H3.26035Z" fill="#161825"/>
<path d="M3.75623 1.5625H2.15625V4.0625H3.75623V1.5625Z" fill="#161825"/>
<path d="M6.65662 1.5625H5.05664V4.0625H6.65662V1.5625Z" fill="#161825"/>
<path d="M3.75623 14.5625H2.15625V17.0625H3.75623V14.5625Z" fill="#161825"/>
<path d="M6.65662 14.5625H5.05664V17.0625H6.65662V14.5625Z" fill="#161825"/>
</svg>
