<svg width="469" height="332" viewBox="0 0 469 332" fill="none" xmlns="http://www.w3.org/2000/svg">
<g opacity="0.7">
<path d="M225.6 167.787V183.487C225.6 194.287 202.3 202.987 173.6 202.987C144.9 202.987 121.6 194.287 121.6 183.487V167.787H225.6Z" fill="#6929C4"/>
<path d="M173.5 187.287C202.219 187.287 225.5 178.557 225.5 167.787C225.5 157.018 202.219 148.287 173.5 148.287C144.781 148.287 121.5 157.018 121.5 167.787C121.5 178.557 144.781 187.287 173.5 187.287Z" fill="#D9D1EC"/>
</g>
<path opacity="0.7" d="M173.6 165.687C173.6 165.987 173.5 166.287 173.4 166.487C173.5 166.087 173.5 165.587 173.5 165.187C173.6 165.387 173.6 165.487 173.6 165.687Z" fill="url(#paint0_linear_606_6755)"/>
<g opacity="0.7">
<path d="M204.3 41.8872V164.687C204.3 164.887 204.3 165.087 204.3 165.187C204.3 165.587 204.2 166.087 204.2 166.487C202.5 170.287 189.4 173.287 173.6 173.287C156.6 173.287 142.8 169.887 142.8 165.687V41.0872L204.3 41.8872Z" fill="url(#paint1_linear_606_6755)"/>
<path d="M173.5 49.4871C190.511 49.4871 204.3 46.0846 204.3 41.8872C204.3 37.6898 190.511 34.2871 173.5 34.2871C156.49 34.2871 142.7 37.6898 142.7 41.8872C142.7 46.0846 156.49 49.4871 173.5 49.4871Z" fill="#D9D1EC"/>
</g>
<g opacity="0.7">
<path d="M159.721 24V20.4777H151.643V18.9513L157.349 7.56253H159.298L153.733 18.74H159.815V14.0671H161.67V18.74H164.065V20.4777H161.67V24H159.721ZM166.122 18.0121V16.3448H175.421V18.0121H166.122ZM184.243 24.2818C183.132 24.2818 182.185 24.0626 181.402 23.6243C180.635 23.1703 180.017 22.5676 179.547 21.8162C179.093 21.0647 178.756 20.2272 178.537 19.3036C178.334 18.3643 178.232 17.4094 178.232 16.4388C178.232 14.6228 178.467 13.0339 178.936 11.6719C179.406 10.2943 180.095 9.22193 181.003 8.45485C181.441 8.06348 181.926 7.77387 182.459 7.58601C183.007 7.3825 183.594 7.28074 184.22 7.28074C185.19 7.28074 186.02 7.48426 186.709 7.89128C187.413 8.2983 187.969 8.84622 188.376 9.53503C188.58 9.87943 188.736 10.2395 188.846 10.6152C188.971 10.9909 189.065 11.3823 189.128 11.7893H187.319C187.163 10.897 186.803 10.2082 186.239 9.72288C185.691 9.23759 185.01 8.99494 184.196 8.99494C183.461 8.99494 182.787 9.23759 182.177 9.72288C181.566 10.1925 181.073 10.944 180.697 11.9772C180.322 12.9947 180.118 14.3332 180.087 15.9926C180.447 15.2568 180.995 14.6541 181.731 14.1845C182.466 13.7148 183.382 13.48 184.478 13.48C185.37 13.48 186.2 13.6992 186.967 14.1375C187.75 14.5759 188.384 15.1942 188.869 15.9926C189.355 16.791 189.597 17.7146 189.597 18.7635C189.597 19.6871 189.378 20.5716 188.94 21.417C188.517 22.2623 187.899 22.9511 187.085 23.4834C186.302 24.0157 185.355 24.2818 184.243 24.2818ZM184.126 22.5441C184.862 22.5441 185.488 22.3797 186.004 22.051C186.521 21.7066 186.912 21.2526 187.179 20.689C187.46 20.1255 187.601 19.5149 187.601 18.8574C187.601 17.7459 187.265 16.8614 186.592 16.2039C185.934 15.5308 185.112 15.1942 184.126 15.1942C183.437 15.1942 182.827 15.3664 182.294 15.7108C181.762 16.0552 181.347 16.5092 181.05 17.0728C180.768 17.6207 180.627 18.2234 180.627 18.8809C180.627 19.5697 180.768 20.1959 181.05 20.7595C181.347 21.3074 181.762 21.7457 182.294 22.0745C182.827 22.3876 183.437 22.5441 184.126 22.5441ZM194.097 24L203.654 7.56253H205.626L196.069 24H194.097ZM195.552 15.1942C194.848 15.1942 194.206 15.0298 193.627 14.7011C193.063 14.3723 192.617 13.9184 192.288 13.3391C191.96 12.7442 191.795 12.0476 191.795 11.2492C191.795 10.4352 191.96 9.73854 192.288 9.15931C192.633 8.56443 193.095 8.10262 193.674 7.77387C194.253 7.46077 194.887 7.30423 195.576 7.30423C196.28 7.30423 196.914 7.46077 197.478 7.77387C198.042 8.08696 198.488 8.54095 198.817 9.13583C198.989 9.43327 199.114 9.76202 199.192 10.1221C199.27 10.4665 199.31 10.8422 199.31 11.2492C199.31 12.0633 199.137 12.7677 198.793 13.3626C198.464 13.9418 198.018 14.388 197.455 14.7011C196.891 15.0298 196.257 15.1942 195.552 15.1942ZM195.552 13.6679C196.1 13.6679 196.578 13.4644 196.985 13.0573C197.408 12.6503 197.619 12.0476 197.619 11.2492C197.619 10.4352 197.415 9.82464 197.008 9.41761C196.601 8.99494 196.124 8.7836 195.576 8.7836C195.028 8.7836 194.535 8.99494 194.097 9.41761C193.674 9.82464 193.463 10.4352 193.463 11.2492C193.463 12.0476 193.674 12.6503 194.097 13.0573C194.519 13.4644 195.005 13.6679 195.552 13.6679ZM204.335 24.2818C203.63 24.2818 202.988 24.1174 202.409 23.7887C201.846 23.4599 201.4 23.0059 201.071 22.4267C200.742 21.8318 200.578 21.1352 200.578 20.3368C200.578 19.5227 200.742 18.8261 201.071 18.2469C201.415 17.652 201.869 17.1902 202.433 16.8614C203.012 16.5483 203.646 16.3918 204.335 16.3918C205.039 16.3918 205.673 16.5483 206.237 16.8614C206.8 17.1745 207.247 17.6285 207.575 18.2234C207.748 18.5208 207.873 18.8496 207.951 19.2097C208.029 19.5541 208.068 19.9298 208.068 20.3368C208.068 21.1508 207.904 21.8553 207.575 22.4502C207.247 23.0294 206.8 23.4756 206.237 23.7887C205.673 24.1174 205.039 24.2818 204.335 24.2818ZM204.311 22.7554C204.875 22.7554 205.36 22.5519 205.767 22.1449C206.19 21.7379 206.401 21.1352 206.401 20.3368C206.401 19.5227 206.198 18.9122 205.791 18.5052C205.384 18.0982 204.898 17.8947 204.335 17.8947C203.787 17.8947 203.302 18.0982 202.879 18.5052C202.456 18.9122 202.245 19.5227 202.245 20.3368C202.245 21.1352 202.448 21.7379 202.855 22.1449C203.278 22.5519 203.763 22.7554 204.311 22.7554Z" fill="white"/>
</g>
<g opacity="0.7">
<path d="M104.1 217.487V233.187C104.1 243.987 80.8001 252.687 52.1001 252.687C23.4001 252.687 0.100098 243.987 0.100098 233.187V217.487H104.1Z" fill="#6929C4"/>
<path d="M52 236.987C80.7188 236.987 104 228.257 104 217.487C104 206.718 80.7188 197.987 52 197.987C23.2812 197.987 0 206.718 0 217.487C0 228.257 23.2812 236.987 52 236.987Z" fill="#D9D1EC"/>
</g>
<path opacity="0.7" d="M52.0999 215.387C52.0999 215.687 51.9999 215.987 51.8999 216.187C51.9999 215.787 51.9999 215.287 51.9999 214.887C52.0999 215.087 52.0999 215.287 52.0999 215.387Z" fill="url(#paint2_linear_606_6755)"/>
<g opacity="0.7">
<path d="M82.8003 111.887V214.387C82.8003 214.587 82.8003 214.787 82.8003 214.887C82.8003 215.287 82.7003 215.787 82.7003 216.187C81.0003 219.987 67.9003 222.987 52.1003 222.987C35.1003 222.987 21.3003 219.587 21.3003 215.387V111.087L82.8003 111.887Z" fill="url(#paint3_linear_606_6755)"/>
<path d="M52.0002 119.487C69.0106 119.487 82.8002 116.085 82.8002 111.887C82.8002 107.69 69.0106 104.287 52.0002 104.287C34.9898 104.287 21.2002 107.69 21.2002 111.887C21.2002 116.085 34.9898 119.487 52.0002 119.487Z" fill="#D9D1EC"/>
</g>
<g opacity="0.7">
<path d="M36.2743 94.2674C35.1941 94.2674 34.2391 94.0795 33.4094 93.7038C32.5797 93.3124 31.9066 92.7645 31.39 92.0601C30.889 91.3399 30.5838 90.4946 30.4742 89.524H32.3762C32.5797 90.385 33.0024 91.113 33.6443 91.7078C34.2861 92.2871 35.1628 92.5767 36.2743 92.5767C37.4797 92.5767 38.4033 92.2401 39.0451 91.5669C39.7026 90.8938 40.0314 90.0406 40.0314 89.0074C40.0314 87.8959 39.687 87.0505 38.9982 86.4713C38.325 85.8921 37.4249 85.6025 36.2977 85.6025C36.0003 85.6025 35.7029 85.6416 35.4054 85.7199C35.108 85.7982 34.8184 85.9234 34.5366 86.0956L33.3155 84.7102L38.9747 79.1684H31.1552V77.5481H41.3934V79.0979L36.2743 84.1466C36.9787 84.0683 37.6675 84.1231 38.3407 84.311C39.0138 84.4832 39.6165 84.7728 40.1488 85.1798C40.6967 85.5868 41.1272 86.1113 41.4403 86.7531C41.7691 87.395 41.9334 88.1386 41.9334 88.9839C41.9334 90.0954 41.6908 91.0503 41.2055 91.8487C40.7359 92.6315 40.0784 93.2342 39.233 93.6568C38.3876 94.0639 37.4014 94.2674 36.2743 94.2674ZM44.6247 87.9977V86.3304H53.9236V87.9977H44.6247ZM62.464 94.2674C61.4151 94.2674 60.468 94.0795 59.6226 93.7038C58.7929 93.3124 58.1198 92.7645 57.6032 92.0601C57.0866 91.3399 56.7656 90.5024 56.6404 89.5475H58.5659C58.7538 90.4555 59.1921 91.1912 59.8809 91.7548C60.5697 92.3027 61.4386 92.5767 62.4874 92.5767C63.2702 92.5767 63.9433 92.3966 64.5069 92.0366C65.0705 91.6765 65.501 91.1834 65.7984 90.5572C66.1115 89.931 66.2681 89.2266 66.2681 88.4438C66.2681 87.2228 65.9236 86.2365 65.2348 85.4851C64.546 84.7336 63.6537 84.3579 62.5579 84.3579C61.6499 84.3579 60.875 84.5614 60.2332 84.9685C59.5913 85.3755 59.1217 85.9078 58.8242 86.5653H56.9457L58.3546 77.5481H66.9725V79.2623H59.8809L58.9182 84.264C59.2939 83.81 59.8105 83.4343 60.468 83.1369C61.1411 82.8394 61.9082 82.6907 62.7692 82.6907C63.8494 82.6907 64.7887 82.9412 65.5871 83.4421C66.4011 83.9431 67.0351 84.6241 67.4891 85.4851C67.7083 85.9234 67.8727 86.3852 67.9822 86.8705C68.1075 87.3558 68.1701 87.8724 68.1701 88.4203C68.1701 89.5631 67.9275 90.5729 67.4422 91.4495C66.9725 92.3262 66.3072 93.015 65.4462 93.516C64.6008 94.0169 63.6067 94.2674 62.464 94.2674ZM72.599 93.9856L82.1563 77.5481H84.1288L74.5715 93.9856H72.599ZM74.0549 85.1798C73.3505 85.1798 72.7086 85.0154 72.1294 84.6867C71.5658 84.3579 71.1197 83.9039 70.7909 83.3247C70.4622 82.7298 70.2978 82.0332 70.2978 81.2348C70.2978 80.4208 70.4622 79.7241 70.7909 79.1449C71.1353 78.55 71.5971 78.0882 72.1764 77.7595C72.7556 77.4464 73.3896 77.2898 74.0784 77.2898C74.7829 77.2898 75.4169 77.4464 75.9805 77.7595C76.544 78.0726 76.9902 78.5265 77.3189 79.1214C77.4912 79.4189 77.6164 79.7476 77.6947 80.1077C77.7729 80.4521 77.8121 80.8278 77.8121 81.2348C77.8121 82.0489 77.6399 82.7533 77.2955 83.3482C76.9667 83.9274 76.5206 84.3736 75.957 84.6867C75.3934 85.0154 74.7594 85.1798 74.0549 85.1798ZM74.0549 83.6535C74.6029 83.6535 75.0803 83.45 75.4873 83.0429C75.91 82.6359 76.1214 82.0332 76.1214 81.2348C76.1214 80.4208 75.9179 79.8102 75.5108 79.4032C75.1038 78.9805 74.6263 78.7692 74.0784 78.7692C73.5305 78.7692 73.0374 78.9805 72.599 79.4032C72.1764 79.8102 71.965 80.4208 71.965 81.2348C71.965 82.0332 72.1764 82.6359 72.599 83.0429C73.0217 83.45 73.507 83.6535 74.0549 83.6535ZM82.8372 94.2674C82.1328 94.2674 81.4909 94.103 80.9117 93.7743C80.3481 93.4455 79.902 92.9915 79.5732 92.4123C79.2445 91.8174 79.0801 91.1208 79.0801 90.3224C79.0801 89.5083 79.2445 88.8117 79.5732 88.2325C79.9176 87.6376 80.3716 87.1758 80.9352 86.847C81.5144 86.5339 82.1484 86.3774 82.8372 86.3774C83.5417 86.3774 84.1757 86.5339 84.7393 86.847C85.3029 87.1601 85.749 87.6141 86.0778 88.209C86.25 88.5064 86.3752 88.8352 86.4535 89.1952C86.5318 89.5397 86.5709 89.9154 86.5709 90.3224C86.5709 91.1364 86.4065 91.8409 86.0778 92.4358C85.749 93.015 85.3029 93.4612 84.7393 93.7743C84.1757 94.103 83.5417 94.2674 82.8372 94.2674ZM82.8138 92.741C83.3773 92.741 83.8626 92.5375 84.2697 92.1305C84.6923 91.7235 84.9037 91.1208 84.9037 90.3224C84.9037 89.5083 84.7002 88.8978 84.2931 88.4908C83.8861 88.0838 83.4008 87.8802 82.8372 87.8802C82.2893 87.8802 81.804 88.0838 81.3814 88.4908C80.9587 88.8978 80.7473 89.5083 80.7473 90.3224C80.7473 91.1208 80.9508 91.7235 81.3579 92.1305C81.7805 92.5375 82.2658 92.741 82.8138 92.741Z" fill="white"/>
</g>
<g opacity="0.7">
<path d="M47.462 174.956H43.4751L46.1331 159.008H50.12L47.462 174.956Z" fill="white"/>
<path d="M62.524 159.451C61.638 159.008 60.309 158.565 58.98 158.565C54.9931 158.565 51.8921 160.78 51.8921 163.881C51.8921 166.096 54.1071 167.425 55.4361 168.311C57.208 169.197 57.651 169.639 57.651 170.082C57.651 170.968 56.3221 171.855 54.9931 171.855C53.2211 171.855 52.3351 171.412 51.0061 170.969L50.5631 170.526L50.1201 174.07C51.0061 174.513 52.7781 174.956 54.5501 174.956C58.98 174.956 61.638 172.741 61.638 169.64C61.638 167.868 60.752 166.539 58.094 165.21C56.765 164.324 55.879 163.881 55.879 163.438C55.879 162.552 56.765 162.109 58.094 162.109C59.423 162.109 60.309 162.552 61.195 162.552H61.638L62.524 159.451Z" fill="white"/>
<path d="M67.8401 169.196C68.2831 168.31 69.6121 164.766 69.6121 164.766C69.6121 164.766 70.0551 163.881 70.0551 163.438L70.4981 164.766C70.4981 164.766 71.3841 168.753 71.3841 169.196C70.4981 169.196 68.7261 169.196 67.8401 169.196ZM73.1561 159.008H70.0551C69.1691 159.008 68.2831 159.451 67.8401 160.337L61.6382 174.956H66.0681C66.0681 174.956 66.9541 173.184 66.9541 172.741C67.3971 172.741 71.8271 172.741 72.2701 172.741C72.2701 173.184 72.7131 174.956 72.7131 174.956H76.7001L73.1561 159.008Z" fill="white"/>
<path d="M39.9311 159.008L35.9441 169.64L35.5012 167.425C34.6152 164.767 32.4002 162.109 29.7422 160.78L33.2862 174.512H37.7161L44.3611 158.565H39.9311V159.008Z" fill="white"/>
<path d="M32.4003 159.008H25.7554V159.451C31.0713 160.78 34.1723 163.881 35.9443 167.867L34.6153 160.78C33.7293 159.451 33.2863 159.008 32.4003 159.008Z" fill="#FAA61A"/>
</g>
<g opacity="0.7">
<path d="M364.4 163.887V179.587C364.4 190.387 341.1 199.087 312.4 199.087C283.7 199.087 260.4 190.387 260.4 179.587V163.887H364.4Z" fill="#6929C4"/>
<path d="M312.3 183.387C341.019 183.387 364.3 174.657 364.3 163.887C364.3 153.118 341.019 144.387 312.3 144.387C283.581 144.387 260.3 153.118 260.3 163.887C260.3 174.657 283.581 183.387 312.3 183.387Z" fill="#D9D1EC"/>
</g>
<path opacity="0.7" d="M312.4 161.787C312.4 162.087 312.3 162.387 312.2 162.587C312.3 162.187 312.3 161.687 312.3 161.287C312.4 161.487 312.4 161.687 312.4 161.787Z" fill="url(#paint4_linear_606_6755)"/>
<g opacity="0.7">
<path d="M343.101 58.2871V160.787C343.101 160.987 343.101 161.187 343.101 161.287C343.101 161.687 343.001 162.187 343.001 162.587C341.301 166.387 328.201 169.387 312.401 169.387C295.401 169.387 281.601 165.987 281.601 161.787V57.4871L343.101 58.2871Z" fill="url(#paint5_linear_606_6755)"/>
<path d="M312.3 65.8872C329.311 65.8872 343.101 62.4845 343.101 58.2871C343.101 54.0897 329.311 50.687 312.3 50.687C295.29 50.687 281.5 54.0897 281.5 58.2871C281.5 62.4845 295.29 65.8872 312.3 65.8872Z" fill="#D9D1EC"/>
</g>
<g opacity="0.7">
<path d="M296.561 40.6641C295.481 40.6641 294.526 40.4763 293.697 40.1005C292.867 39.7092 292.194 39.1613 291.677 38.4568C291.176 37.7367 290.871 36.8913 290.761 35.9207H292.663C292.867 36.7817 293.29 37.5097 293.931 38.1046C294.573 38.6838 295.45 38.9734 296.561 38.9734C297.767 38.9734 298.69 38.6368 299.332 37.9637C299.99 37.2905 300.319 36.4373 300.319 35.4041C300.319 34.2926 299.974 33.4473 299.285 32.8681C298.612 32.2888 297.712 31.9992 296.585 31.9992C296.287 31.9992 295.99 32.0384 295.693 32.1166C295.395 32.1949 295.105 32.3201 294.824 32.4923L293.603 31.1069L299.262 25.5651H291.442V23.9449H301.68V25.4947L296.561 30.5433C297.266 30.4651 297.955 30.5198 298.628 30.7077C299.301 30.8799 299.904 31.1695 300.436 31.5765C300.984 31.9836 301.414 32.508 301.727 33.1498C302.056 33.7917 302.221 34.5353 302.221 35.3806C302.221 36.4921 301.978 37.4471 301.493 38.2455C301.023 39.0282 300.365 39.6309 299.52 40.0536C298.675 40.4606 297.689 40.6641 296.561 40.6641ZM304.912 34.3944V32.7272H314.211V34.3944H304.912ZM322.751 40.6641C321.702 40.6641 320.755 40.4763 319.91 40.1005C319.08 39.7092 318.407 39.1613 317.89 38.4568C317.374 37.7367 317.053 36.8991 316.928 35.9442H318.853C319.041 36.8522 319.479 37.588 320.168 38.1515C320.857 38.6994 321.726 38.9734 322.775 38.9734C323.557 38.9734 324.23 38.7934 324.794 38.4333C325.358 38.0733 325.788 37.5801 326.086 36.9539C326.399 36.3277 326.555 35.6233 326.555 34.8405C326.555 33.6195 326.211 32.6332 325.522 31.8818C324.833 31.1304 323.941 30.7547 322.845 30.7547C321.937 30.7547 321.162 30.9582 320.52 31.3652C319.878 31.7722 319.409 32.3045 319.111 32.962H317.233L318.642 23.9449H327.26V25.659H320.168L319.205 30.6607C319.581 30.2067 320.098 29.831 320.755 29.5336C321.428 29.2362 322.195 29.0874 323.056 29.0874C324.137 29.0874 325.076 29.3379 325.874 29.8389C326.688 30.3398 327.322 31.0208 327.776 31.8818C327.995 32.3201 328.16 32.782 328.269 33.2672C328.395 33.7525 328.457 34.2692 328.457 34.8171C328.457 35.9599 328.215 36.9696 327.729 37.8463C327.26 38.7229 326.594 39.4117 325.733 39.9127C324.888 40.4136 323.894 40.6641 322.751 40.6641ZM332.886 40.3823L342.443 23.9449H344.416L334.859 40.3823H332.886ZM334.342 31.5765C333.638 31.5765 332.996 31.4122 332.417 31.0834C331.853 30.7547 331.407 30.3007 331.078 29.7215C330.749 29.1266 330.585 28.4299 330.585 27.6315C330.585 26.8175 330.749 26.1209 331.078 25.5416C331.422 24.9468 331.884 24.4849 332.463 24.1562C333.043 23.8431 333.677 23.6866 334.366 23.6866C335.07 23.6866 335.704 23.8431 336.268 24.1562C336.831 24.4693 337.277 24.9233 337.606 25.5182C337.778 25.8156 337.903 26.1443 337.982 26.5044C338.06 26.8488 338.099 27.2245 338.099 27.6315C338.099 28.4456 337.927 29.1501 337.583 29.7449C337.254 30.3242 336.808 30.7703 336.244 31.0834C335.681 31.4122 335.047 31.5765 334.342 31.5765ZM334.342 30.0502C334.89 30.0502 335.367 29.8467 335.774 29.4397C336.197 29.0326 336.408 28.4299 336.408 27.6315C336.408 26.8175 336.205 26.207 335.798 25.7999C335.391 25.3773 334.913 25.1659 334.366 25.1659C333.818 25.1659 333.324 25.3773 332.886 25.7999C332.463 26.207 332.252 26.8175 332.252 27.6315C332.252 28.4299 332.463 29.0326 332.886 29.4397C333.309 29.8467 333.794 30.0502 334.342 30.0502ZM343.124 40.6641C342.42 40.6641 341.778 40.4997 341.199 40.171C340.635 39.8422 340.189 39.3882 339.86 38.809C339.532 38.2141 339.367 37.5175 339.367 36.7191C339.367 35.9051 339.532 35.2084 339.86 34.6292C340.205 34.0343 340.659 33.5725 341.222 33.2438C341.802 32.9307 342.436 32.7741 343.124 32.7741C343.829 32.7741 344.463 32.9307 345.026 33.2438C345.59 33.5569 346.036 34.0108 346.365 34.6057C346.537 34.9032 346.662 35.2319 346.741 35.592C346.819 35.9364 346.858 36.3121 346.858 36.7191C346.858 37.5332 346.694 38.2376 346.365 38.8325C346.036 39.4117 345.59 39.8579 345.026 40.171C344.463 40.4997 343.829 40.6641 343.124 40.6641ZM343.101 39.1378C343.664 39.1378 344.15 38.9343 344.557 38.5272C344.979 38.1202 345.191 37.5175 345.191 36.7191C345.191 35.9051 344.987 35.2945 344.58 34.8875C344.173 34.4805 343.688 34.277 343.124 34.277C342.576 34.277 342.091 34.4805 341.668 34.8875C341.246 35.2945 341.034 35.9051 341.034 36.7191C341.034 37.5175 341.238 38.1202 341.645 38.5272C342.068 38.9343 342.553 39.1378 343.101 39.1378Z" fill="white"/>
</g>
<path opacity="0.7" d="M321.6 119.887C327.786 119.887 332.8 114.873 332.8 108.687C332.8 102.501 327.786 97.4871 321.6 97.4871C315.415 97.4871 310.4 102.501 310.4 108.687C310.4 114.873 315.415 119.887 321.6 119.887Z" fill="white"/>
<path opacity="0.7" d="M307.5 119.887C313.686 119.887 318.7 114.873 318.7 108.687C318.7 102.501 313.686 97.4871 307.5 97.4871C301.315 97.4871 296.3 102.501 296.3 108.687C296.3 114.873 301.315 119.887 307.5 119.887Z" fill="white"/>
<g opacity="0.7">
<path d="M468.6 217.487V233.187C468.6 243.987 445.3 252.687 416.6 252.687C387.9 252.687 364.6 243.987 364.6 233.187V217.487H468.6Z" fill="#6929C4"/>
<path d="M416.5 236.987C445.219 236.987 468.5 228.257 468.5 217.487C468.5 206.718 445.219 197.987 416.5 197.987C387.781 197.987 364.5 206.718 364.5 217.487C364.5 228.257 387.781 236.987 416.5 236.987Z" fill="#D9D1EC"/>
</g>
<path opacity="0.7" d="M416.6 215.387C416.6 215.687 416.5 215.987 416.4 216.187C416.5 215.787 416.5 215.287 416.5 214.887C416.6 215.087 416.6 215.287 416.6 215.387Z" fill="url(#paint6_linear_606_6755)"/>
<g opacity="0.7">
<path d="M447.3 91.5872V214.387C447.3 214.587 447.3 214.787 447.3 214.887C447.3 215.287 447.2 215.787 447.2 216.187C445.5 219.987 432.4 222.987 416.6 222.987C399.6 222.987 385.8 219.587 385.8 215.387V90.7871L447.3 91.5872Z" fill="url(#paint7_linear_606_6755)"/>
<path d="M416.5 99.187C433.511 99.187 447.3 95.7845 447.3 91.5872C447.3 87.3898 433.511 83.9871 416.5 83.9871C399.49 83.9871 385.7 87.3898 385.7 91.5872C385.7 95.7845 399.49 99.187 416.5 99.187Z" fill="#D9D1EC"/>
</g>
<g opacity="0.7">
<path d="M402.715 73.707V70.1847H394.638V68.6584L400.344 57.2696H402.293L396.728 68.447H402.809V63.7741H404.664V68.447H407.06V70.1847H404.664V73.707H402.715ZM409.117 67.7191V66.0519H418.416V67.7191H409.117ZM427.238 73.9888C426.126 73.9888 425.179 73.7697 424.397 73.3313C423.63 72.8773 423.011 72.2746 422.542 71.5232C422.088 70.7718 421.751 69.9342 421.532 69.0106C421.328 68.0713 421.227 67.1164 421.227 66.1458C421.227 64.3298 421.461 62.7409 421.931 61.3789C422.401 60.0013 423.089 58.929 423.997 58.1619C424.436 57.7705 424.921 57.4809 425.453 57.293C426.001 57.0895 426.588 56.9878 427.214 56.9878C428.185 56.9878 429.015 57.1913 429.704 57.5983C430.408 58.0053 430.964 58.5532 431.371 59.2421C431.574 59.5865 431.731 59.9465 431.84 60.3222C431.966 60.6979 432.06 61.0893 432.122 61.4963H430.314C430.158 60.604 429.797 59.9152 429.234 59.4299C428.686 58.9446 428.005 58.702 427.191 58.702C426.455 58.702 425.782 58.9446 425.171 59.4299C424.561 59.8996 424.068 60.651 423.692 61.6842C423.316 62.7018 423.113 64.0402 423.082 65.6996C423.442 64.9639 423.99 64.3612 424.725 63.8915C425.461 63.4219 426.377 63.1871 427.473 63.1871C428.365 63.1871 429.195 63.4062 429.962 63.8445C430.745 64.2829 431.379 64.9012 431.864 65.6996C432.349 66.498 432.592 67.4217 432.592 68.4705C432.592 69.3942 432.373 70.2786 431.934 71.124C431.512 71.9694 430.893 72.6582 430.079 73.1904C429.297 73.7227 428.349 73.9888 427.238 73.9888ZM427.121 72.2511C427.856 72.2511 428.482 72.0868 428.999 71.758C429.516 71.4136 429.907 70.9596 430.173 70.3961C430.455 69.8325 430.596 69.222 430.596 68.5645C430.596 67.453 430.259 66.5685 429.586 65.911C428.929 65.2378 428.107 64.9012 427.121 64.9012C426.432 64.9012 425.821 65.0734 425.289 65.4178C424.757 65.7623 424.342 66.2162 424.044 66.7798C423.763 67.3277 423.622 67.9304 423.622 68.5879C423.622 69.2767 423.763 69.9029 424.044 70.4665C424.342 71.0144 424.757 71.4527 425.289 71.7815C425.821 72.0946 426.432 72.2511 427.121 72.2511ZM437.091 73.707L446.648 57.2696H448.621L439.064 73.707H437.091ZM438.547 64.9012C437.843 64.9012 437.201 64.7369 436.622 64.4081C436.058 64.0794 435.612 63.6254 435.283 63.0462C434.954 62.4513 434.79 61.7546 434.79 60.9563C434.79 60.1422 434.954 59.4456 435.283 58.8663C435.628 58.2715 436.089 57.8096 436.669 57.4809C437.248 57.1678 437.882 57.0113 438.571 57.0113C439.275 57.0113 439.909 57.1678 440.473 57.4809C441.036 57.794 441.482 58.248 441.811 58.8429C441.983 59.1403 442.109 59.4691 442.187 59.8291C442.265 60.1735 442.304 60.5492 442.304 60.9563C442.304 61.7703 442.132 62.4748 441.788 63.0696C441.459 63.6489 441.013 64.095 440.449 64.4081C439.886 64.7369 439.252 64.9012 438.547 64.9012ZM438.547 63.3749C439.095 63.3749 439.573 63.1714 439.98 62.7644C440.402 62.3573 440.614 61.7546 440.614 60.9563C440.614 60.1422 440.41 59.5317 440.003 59.1246C439.596 58.702 439.119 58.4906 438.571 58.4906C438.023 58.4906 437.53 58.702 437.091 59.1246C436.669 59.5317 436.457 60.1422 436.457 60.9563C436.457 61.7546 436.669 62.3573 437.091 62.7644C437.514 63.1714 437.999 63.3749 438.547 63.3749ZM447.329 73.9888C446.625 73.9888 445.983 73.8244 445.404 73.4957C444.84 73.1669 444.394 72.713 444.065 72.1337C443.737 71.5389 443.572 70.8422 443.572 70.0438C443.572 69.2298 443.737 68.5331 444.065 67.9539C444.41 67.359 444.864 66.8972 445.427 66.5685C446.007 66.2554 446.641 66.0988 447.329 66.0988C448.034 66.0988 448.668 66.2554 449.231 66.5685C449.795 66.8816 450.241 67.3356 450.57 67.9304C450.742 68.2279 450.867 68.5566 450.946 68.9167C451.024 69.2611 451.063 69.6368 451.063 70.0438C451.063 70.8579 450.899 71.5623 450.57 72.1572C450.241 72.7364 449.795 73.1826 449.231 73.4957C448.668 73.8244 448.034 73.9888 447.329 73.9888ZM447.306 72.4625C447.87 72.4625 448.355 72.259 448.762 71.8519C449.185 71.4449 449.396 70.8422 449.396 70.0438C449.396 69.2298 449.192 68.6192 448.785 68.2122C448.378 67.8052 447.893 67.6017 447.329 67.6017C446.782 67.6017 446.296 67.8052 445.874 68.2122C445.451 68.6192 445.24 69.2298 445.24 70.0438C445.24 70.8422 445.443 71.4449 445.85 71.8519C446.273 72.259 446.758 72.4625 447.306 72.4625Z" fill="white"/>
</g>
<g opacity="0.7">
<path d="M418 154.887C411.1 154.887 404.3 154.887 397.4 154.887C396.9 154.887 396.6 154.687 396.6 154.087C396.6 153.187 396.6 152.187 396.6 151.287C396.6 150.787 396.8 150.587 397.3 150.487C397.9 150.487 398.4 150.487 399 150.487C410.3 150.487 421.5 150.487 432.8 150.487C434.7 150.487 436.7 150.487 438.6 150.487C439.2 150.487 439.4 150.687 439.4 151.387C439.4 152.287 439.4 153.187 439.4 154.087C439.4 154.687 439.2 154.887 438.6 154.887C431.7 154.887 424.8 154.887 418 154.887ZM397.9 151.787C397.9 152.387 397.9 152.987 397.9 153.587C411.3 153.587 424.7 153.587 438.1 153.587C438.1 152.987 438.1 152.387 438.1 151.787C424.7 151.787 411.3 151.787 397.9 151.787Z" fill="white"/>
<path d="M396.8 149.087C396.8 148.787 397 148.687 397.3 148.487C400.5 147.087 403.8 145.587 407 144.187C410.5 142.687 413.9 141.087 417.4 139.587C417.8 139.387 418.2 139.387 418.6 139.587C424.5 142.187 430.4 144.887 436.3 147.487C437.1 147.887 437.9 148.187 438.7 148.587C439.1 148.787 439.3 149.087 439.1 149.487C439 149.787 438.6 149.987 438.2 149.787C436.7 149.087 435.1 148.387 433.6 147.787C428.5 145.487 423.4 143.187 418.2 140.987C418.1 140.887 417.8 140.887 417.7 140.987C412.6 143.187 407.6 145.487 402.5 147.687C400.9 148.387 399.4 149.087 397.8 149.787C397.6 149.887 397.3 149.887 397.1 149.887C397 149.687 396.8 149.487 396.8 149.087Z" fill="white"/>
<path d="M418 179.587C424.9 179.587 431.9 179.587 438.8 179.587C439.3 179.587 439.6 179.787 439.6 180.287C439.6 180.587 439.3 180.887 439 180.887C438.3 180.887 437.7 180.887 437 180.887C423.8 180.887 410.5 180.887 397.3 180.887C396.8 180.887 396.6 180.787 396.5 180.387C396.4 179.887 396.7 179.587 397.2 179.587C399.4 179.587 401.5 179.587 403.7 179.587C408.5 179.587 413.2 179.587 418 179.587Z" fill="white"/>
<path d="M407.4 156.887C405.9 156.887 404.4 156.887 403 156.887C403 157.387 403 157.887 403 158.387C403 162.887 403 167.287 403 171.787C403 172.287 402.8 172.487 402.5 172.587C402.1 172.587 401.8 172.387 401.8 171.987C401.8 171.287 401.8 170.487 401.8 169.787C401.8 165.687 401.8 161.487 401.8 157.387C401.8 157.287 401.8 157.087 401.8 156.887C401.5 156.887 401.2 156.887 400.9 156.887C400.4 156.887 400.2 156.687 400.2 156.287C400.2 155.887 400.4 155.687 400.9 155.587C403.8 155.587 406.8 155.587 409.7 155.587C410.1 155.587 410.4 155.787 410.4 156.187C410.4 156.587 410.1 156.787 409.7 156.787C409.4 156.787 409.1 156.787 408.8 156.787C408.8 156.987 408.8 157.087 408.8 157.287C408.8 161.987 408.8 166.787 408.8 171.487C408.8 171.587 408.8 171.687 408.8 171.787C408.8 172.187 408.6 172.387 408.2 172.387C407.8 172.387 407.6 172.187 407.6 171.787C407.6 169.687 407.6 167.487 407.6 165.387C407.6 162.587 407.6 159.887 407.6 157.087C407.4 157.087 407.4 156.987 407.4 156.887Z" fill="white"/>
<path d="M434.4 156.887C434.4 158.487 434.4 160.087 434.4 161.687C434.4 165.087 434.4 168.387 434.4 171.787C434.4 172.287 434.2 172.587 433.7 172.587C433.4 172.587 433.1 172.387 433.1 172.087C433.1 171.987 433.1 171.887 433.1 171.687C433.1 166.887 433.1 162.187 433.1 157.387C433.1 157.287 433.1 157.087 433.1 156.887C431.6 156.887 430.2 156.887 428.6 156.887C428.6 156.987 428.6 157.187 428.6 157.287C428.6 162.087 428.6 166.987 428.6 171.787C428.6 172.287 428.4 172.487 428.1 172.487C427.6 172.587 427.4 172.287 427.4 171.787C427.4 170.187 427.4 168.587 427.4 166.987C427.4 163.687 427.4 160.487 427.4 157.187C427.4 157.087 427.4 156.987 427.4 156.787C427.1 156.787 426.7 156.787 426.4 156.787C426 156.787 425.8 156.587 425.7 156.187C425.7 155.787 425.9 155.487 426.4 155.487C429.4 155.487 432.4 155.487 435.3 155.487C435.7 155.487 436 155.787 436 156.087C436 156.487 435.8 156.687 435.4 156.687C435.1 156.887 434.7 156.887 434.4 156.887Z" fill="white"/>
<path d="M418 171.087C414.1 171.087 411 167.987 411 164.087C411 160.187 414.1 157.087 418 157.087C421.8 157.087 424.9 160.287 424.9 164.087C425 167.987 421.9 171.087 418 171.087ZM418 169.787C421.2 169.787 423.7 167.187 423.7 164.087C423.7 160.987 421.1 158.387 418 158.387C414.8 158.387 412.3 160.987 412.3 164.187C412.3 167.287 414.8 169.787 418 169.787Z" fill="white"/>
<path d="M418 177.987C411.8 177.987 405.6 177.987 399.4 177.987C399.2 177.987 398.9 177.887 398.8 177.787C398.7 177.587 398.7 177.287 398.7 177.087C398.8 176.787 399 176.787 399.3 176.787C400.5 176.787 401.6 176.787 402.8 176.787C407.7 176.787 412.6 176.787 417.4 176.787C423.8 176.787 430.1 176.787 436.5 176.787C436.6 176.787 436.6 176.787 436.7 176.787C437.1 176.787 437.4 176.987 437.4 177.487C437.4 177.887 437.2 178.087 436.7 178.087C435.1 178.087 433.5 178.087 431.9 178.087C427.3 177.987 422.7 177.987 418 177.987Z" fill="white"/>
<path d="M418 175.187C412.5 175.187 407 175.187 401.6 175.187C401.3 175.187 401 175.187 400.9 174.887C400.8 174.687 400.8 174.387 400.9 174.187C401 173.887 401.2 173.887 401.5 173.887C402.3 173.887 403.2 173.887 404 173.887C413.2 173.887 422.4 173.887 431.6 173.887C432.6 173.887 433.6 173.887 434.6 173.887C435 173.887 435.2 174.087 435.3 174.387C435.4 174.787 435.1 175.187 434.7 175.187C433.4 175.187 432.1 175.187 430.8 175.187C426.5 175.187 422.3 175.187 418 175.187Z" fill="white"/>
<path d="M417.797 168.577V167.824C417.405 167.778 417.053 167.667 416.741 167.491C416.434 167.309 416.19 167.064 416.007 166.758C415.831 166.452 415.743 166.093 415.743 165.683H416.604C416.604 166.067 416.711 166.387 416.926 166.641C417.148 166.888 417.438 167.048 417.797 167.12V164.48L417.533 164.392C417.207 164.274 416.926 164.141 416.692 163.991C416.464 163.841 416.288 163.658 416.164 163.443C416.04 163.222 415.978 162.958 415.978 162.651C415.971 162.286 416.046 161.973 416.203 161.713C416.359 161.445 416.578 161.234 416.858 161.077C417.138 160.921 417.451 160.826 417.797 160.794V160.002H418.471V160.794C418.817 160.833 419.123 160.93 419.39 161.087C419.664 161.243 419.882 161.455 420.045 161.722C420.208 161.99 420.293 162.306 420.3 162.671H419.439C419.439 162.384 419.351 162.136 419.175 161.928C418.999 161.719 418.765 161.582 418.471 161.517V163.874L418.53 163.893C418.843 163.997 419.123 164.108 419.371 164.226C419.618 164.336 419.827 164.47 419.997 164.626C420.166 164.776 420.296 164.959 420.388 165.174C420.479 165.383 420.525 165.64 420.525 165.947C420.525 166.325 420.43 166.651 420.241 166.924C420.058 167.198 419.811 167.413 419.498 167.57C419.192 167.72 418.849 167.811 418.471 167.843V168.577H417.797ZM418.471 167.149C418.823 167.11 419.11 166.993 419.332 166.797C419.56 166.595 419.674 166.328 419.674 165.995C419.674 165.741 419.628 165.539 419.537 165.389C419.452 165.233 419.322 165.102 419.146 164.998C418.97 164.894 418.745 164.796 418.471 164.705V167.149ZM417.797 163.639V161.498C417.516 161.537 417.285 161.648 417.102 161.83C416.92 162.013 416.829 162.26 416.829 162.573C416.829 162.853 416.897 163.065 417.034 163.209C417.177 163.352 417.432 163.496 417.797 163.639Z" fill="white"/>
</g>
<path d="M285.5 285.087H200.2C212.1 281.787 226.9 279.887 242.8 279.887C258.9 279.887 273.6 281.787 285.5 285.087Z" fill="url(#paint8_linear_606_6755)"/>
<path d="M315 282.987V304.787C315 319.687 282.8 331.787 243 331.787C203.2 331.787 171 319.687 171 304.787V282.987H315Z" fill="#B81EBE"/>
<path d="M242.9 309.987C282.665 309.987 314.9 297.899 314.9 282.987C314.9 268.075 282.665 255.987 242.9 255.987C203.136 255.987 170.9 268.075 170.9 282.987C170.9 297.899 203.136 309.987 242.9 309.987Z" fill="#D9D1EC"/>
<path d="M243.1 280.087C243.1 280.487 243 280.887 242.8 281.287C242.9 280.687 243 280.087 243 279.487C243 279.687 243.1 279.887 243.1 280.087Z" fill="url(#paint9_linear_606_6755)"/>
<path d="M285.6 248.487V278.687C285.6 278.887 285.6 279.187 285.6 279.387C285.6 279.987 285.5 280.587 285.4 281.187C283 286.487 265 290.487 243 290.487C219.4 290.487 200.3 285.787 200.3 279.987V247.287L285.6 248.487Z" fill="url(#paint10_linear_606_6755)"/>
<path d="M242.9 258.987C266.483 258.987 285.6 254.286 285.6 248.487C285.6 242.688 266.483 237.987 242.9 237.987C219.318 237.987 200.2 242.688 200.2 248.487C200.2 254.286 219.318 258.987 242.9 258.987Z" fill="#D9D1EC"/>
<path d="M225.261 222.513V220.271H232.249V202.882L225.358 204.734V202.817L233.452 199.762H234.882V220.271H240.667V222.513H225.261ZM246.342 222.513L259.571 199.762H262.301L249.073 222.513H246.342ZM248.358 210.325C247.383 210.325 246.494 210.097 245.692 209.642C244.912 209.187 244.295 208.559 243.84 207.757C243.385 206.934 243.157 205.97 243.157 204.864C243.157 203.738 243.385 202.773 243.84 201.972C244.316 201.148 244.956 200.509 245.757 200.054C246.559 199.621 247.437 199.404 248.39 199.404C249.365 199.404 250.243 199.621 251.023 200.054C251.803 200.487 252.42 201.116 252.876 201.939C253.114 202.351 253.287 202.806 253.396 203.304C253.504 203.781 253.558 204.301 253.558 204.864C253.558 205.991 253.32 206.966 252.843 207.79C252.388 208.591 251.77 209.209 250.99 209.642C250.21 210.097 249.333 210.325 248.358 210.325ZM248.358 208.212C249.116 208.212 249.777 207.931 250.34 207.367C250.925 206.804 251.218 205.97 251.218 204.864C251.218 203.738 250.936 202.893 250.373 202.329C249.809 201.744 249.149 201.452 248.39 201.452C247.632 201.452 246.949 201.744 246.342 202.329C245.757 202.893 245.465 203.738 245.465 204.864C245.465 205.97 245.757 206.804 246.342 207.367C246.928 207.931 247.599 208.212 248.358 208.212ZM260.514 222.903C259.539 222.903 258.65 222.676 257.848 222.221C257.068 221.766 256.451 221.137 255.996 220.336C255.541 219.512 255.313 218.548 255.313 217.443C255.313 216.316 255.541 215.352 255.996 214.55C256.472 213.727 257.101 213.088 257.881 212.633C258.683 212.199 259.56 211.983 260.514 211.983C261.489 211.983 262.366 212.199 263.146 212.633C263.926 213.066 264.544 213.694 264.999 214.518C265.237 214.929 265.411 215.385 265.519 215.883C265.627 216.36 265.682 216.88 265.682 217.443C265.682 218.57 265.454 219.545 264.999 220.368C264.544 221.17 263.926 221.788 263.146 222.221C262.366 222.676 261.489 222.903 260.514 222.903ZM260.481 220.791C261.261 220.791 261.933 220.509 262.496 219.946C263.081 219.382 263.374 218.548 263.374 217.443C263.374 216.316 263.092 215.471 262.529 214.908C261.965 214.344 261.294 214.063 260.514 214.063C259.755 214.063 259.084 214.344 258.498 214.908C257.913 215.471 257.621 216.316 257.621 217.443C257.621 218.548 257.903 219.382 258.466 219.946C259.051 220.509 259.723 220.791 260.481 220.791Z" fill="white"/>
<path d="M239.4 269.187C240.5 269.087 241.6 268.187 241.3 266.787C240.8 265.087 238.5 265.087 237.5 266.287C236.4 267.787 237.7 269.387 239.4 269.187Z" fill="white"/>
<path d="M231.2 273.387C230.6 273.787 231.2 274.387 232 274.587C232.6 274.787 233.3 274.587 233.4 274.087C233.3 273.287 231.9 272.987 231.2 273.387Z" fill="white"/>
<path d="M244 272.787C245.1 272.787 246.7 271.887 246.5 269.887C246.1 267.587 243.5 267.187 242.1 268.687C240.5 270.387 241.9 272.787 244 272.787Z" fill="white"/>
<path d="M242.3 274.387C242.2 272.587 240.1 272.087 238.7 273.087C237.2 274.187 238.1 276.087 239.8 276.287C240.9 276.387 242.2 275.687 242.3 274.387Z" fill="white"/>
<path d="M235.401 278.287C236.301 278.587 237.301 278.487 237.501 277.587C237.601 276.287 235.801 275.687 234.701 276.187C233.601 276.587 234.201 277.787 235.401 278.287Z" fill="white"/>
<path d="M230.6 276.987C230.1 277.087 230.5 277.787 231.2 278.287C231.8 278.687 232.5 278.887 232.7 278.487C232.8 277.787 231.2 276.887 230.6 276.987Z" fill="white"/>
<path d="M253.4 266.787C253.9 266.787 254.4 266.187 254.1 264.987C253.7 263.487 252.6 262.887 252.1 263.387C251.2 264.187 252.2 266.787 253.4 266.787Z" fill="white"/>
<path d="M251.301 271.587C252.101 271.487 253.101 270.487 252.901 268.687C252.901 268.587 252.901 268.487 252.901 268.487C252.501 266.587 250.701 265.987 249.801 267.387C248.601 268.987 249.601 271.787 251.301 271.587Z" fill="white"/>
<path d="M237.7 279.587C236.3 280.187 236.9 281.587 238.3 282.087C239.4 282.487 240.7 282.187 241.2 281.287C241.6 279.787 239.3 278.887 237.7 279.587Z" fill="white"/>
<path d="M254.8 270.587C254.4 269.687 253.6 269.987 253.1 271.187C252.5 272.687 253 274.287 253.8 273.887C254.3 273.687 254.9 272.687 254.9 271.487C254.9 271.187 254.9 270.887 254.8 270.587Z" fill="white"/>
<path d="M246.1 279.387C246.9 278.387 247.1 277.287 246.5 276.387C247.5 276.887 248.6 276.687 249.5 275.887C248.9 276.987 248.7 278.087 249 278.887H248.9C248.4 278.587 247.4 278.587 246.1 279.387ZM249.6 279.387C251.2 279.787 253 277.587 253.2 275.687C253.3 273.887 251.9 273.587 250.6 274.587C250.5 274.687 250.3 274.787 250.2 274.887C251.6 272.187 249.7 270.087 247.5 270.887C245.8 271.487 244.7 273.787 245.8 275.687C242.9 274.287 240.3 277.287 241.1 279.187C241.1 279.187 242.1 281.487 245 280.187C243.4 281.887 244 283.187 245.6 283.187C247.6 283.087 250.1 280.987 249.6 279.387Z" fill="white"/>
<path d="M239.7 283.187C238.8 283.887 239.2 284.787 240.6 284.987C241.8 285.187 243.5 284.787 244.2 283.887C244.3 283.787 244.3 283.687 244.4 283.487C244.6 282.187 241.3 281.987 239.7 283.187Z" fill="white"/>
<path d="M234.8 283.687C234.1 283.887 234.5 284.487 235.4 284.987C236.3 285.387 237.7 285.587 238.4 285.187C238.5 285.187 238.5 285.087 238.6 284.987C238.8 284.187 235.8 283.287 234.8 283.687Z" fill="white"/>
<path d="M255.7 272.387C255.4 272.187 254.6 274.387 254.7 275.087C254.7 275.287 254.9 275.187 255 274.987C255.2 274.687 255.5 273.887 255.7 272.987C255.7 272.887 255.8 272.487 255.7 272.387Z" fill="white"/>
<path d="M251.601 279.887C251.601 280.187 251.901 280.187 252.301 279.887C253.001 279.187 253.601 278.387 254.001 277.387C254.101 277.187 254.201 276.887 254.001 276.787C253.601 276.387 251.701 278.887 251.601 279.887Z" fill="white"/>
<path d="M246.9 283.687C246.8 284.087 247.2 284.087 248 283.787C248.9 283.387 250.3 282.387 250.9 281.487C251 281.387 251.2 281.087 251.1 280.987C250.8 280.287 247.2 282.687 246.9 283.687Z" fill="white"/>
<defs>
<linearGradient id="paint0_linear_606_6755" x1="173.422" y1="165.889" x2="173.622" y2="165.889" gradientUnits="userSpaceOnUse">
<stop stop-color="#C62834"/>
<stop offset="1" stop-color="#FF4557"/>
</linearGradient>
<linearGradient id="paint1_linear_606_6755" x1="142.702" y1="107.201" x2="204.343" y2="107.201" gradientUnits="userSpaceOnUse">
<stop stop-color="#516374"/>
<stop offset="0.9516" stop-color="#9BA5AF"/>
<stop offset="0.9682" stop-color="#97A2AC"/>
<stop offset="0.9841" stop-color="#8C97A3"/>
<stop offset="0.9998" stop-color="#788693"/>
<stop offset="1" stop-color="#788693"/>
</linearGradient>
<linearGradient id="paint2_linear_606_6755" x1="51.9259" y1="215.596" x2="52.126" y2="215.596" gradientUnits="userSpaceOnUse">
<stop stop-color="#C62834"/>
<stop offset="1" stop-color="#FF4557"/>
</linearGradient>
<linearGradient id="paint3_linear_606_6755" x1="21.206" y1="167.046" x2="82.8466" y2="167.046" gradientUnits="userSpaceOnUse">
<stop stop-color="#516374"/>
<stop offset="0.9516" stop-color="#9BA5AF"/>
<stop offset="0.9682" stop-color="#97A2AC"/>
<stop offset="0.9841" stop-color="#8C97A3"/>
<stop offset="0.9998" stop-color="#788693"/>
<stop offset="1" stop-color="#788693"/>
</linearGradient>
<linearGradient id="paint4_linear_606_6755" x1="312.212" y1="161.993" x2="312.412" y2="161.993" gradientUnits="userSpaceOnUse">
<stop stop-color="#C62834"/>
<stop offset="1" stop-color="#FF4557"/>
</linearGradient>
<linearGradient id="paint5_linear_606_6755" x1="281.492" y1="113.444" x2="343.133" y2="113.444" gradientUnits="userSpaceOnUse">
<stop stop-color="#516374"/>
<stop offset="0.9516" stop-color="#9BA5AF"/>
<stop offset="0.9682" stop-color="#97A2AC"/>
<stop offset="0.9841" stop-color="#8C97A3"/>
<stop offset="0.9998" stop-color="#788693"/>
<stop offset="1" stop-color="#788693"/>
</linearGradient>
<linearGradient id="paint6_linear_606_6755" x1="416.418" y1="215.596" x2="416.618" y2="215.596" gradientUnits="userSpaceOnUse">
<stop stop-color="#C62834"/>
<stop offset="1" stop-color="#FF4557"/>
</linearGradient>
<linearGradient id="paint7_linear_606_6755" x1="385.698" y1="156.908" x2="447.338" y2="156.908" gradientUnits="userSpaceOnUse">
<stop stop-color="#516374"/>
<stop offset="0.9516" stop-color="#9BA5AF"/>
<stop offset="0.9682" stop-color="#97A2AC"/>
<stop offset="0.9841" stop-color="#8C97A3"/>
<stop offset="0.9998" stop-color="#788693"/>
<stop offset="1" stop-color="#788693"/>
</linearGradient>
<linearGradient id="paint8_linear_606_6755" x1="200.29" y1="282.464" x2="285.545" y2="282.464" gradientUnits="userSpaceOnUse">
<stop stop-color="#C62834"/>
<stop offset="1" stop-color="#FF4557"/>
</linearGradient>
<linearGradient id="paint9_linear_606_6755" x1="242.779" y1="280.351" x2="243.056" y2="280.351" gradientUnits="userSpaceOnUse">
<stop stop-color="#C62834"/>
<stop offset="1" stop-color="#FF4557"/>
</linearGradient>
<linearGradient id="paint10_linear_606_6755" x1="200.258" y1="269.005" x2="285.577" y2="269.005" gradientUnits="userSpaceOnUse">
<stop offset="2.49653e-07" stop-color="#B81EBE"/>
<stop offset="1" stop-color="#6929C4"/>
</linearGradient>
</defs>
</svg>
