<svg width="373" height="349" viewBox="0 0 373 349" fill="none" xmlns="http://www.w3.org/2000/svg">
<path d="M100.53 258.413C108.27 253.963 129.69 259.063 137.39 263.493C145.08 267.913 145.04 275.113 137.3 279.563L43.5399 333.483C34.5899 338.633 23.56 338.633 14.61 333.483L3.84994 327.293C-1.28006 324.343 -1.28006 316.963 3.84994 314.013L100.53 258.413Z" fill="#A8AFD3"/>
<path d="M269.13 280.713C273.16 278.393 280.89 280.253 284.89 282.553C288.89 284.853 292.3 289.403 288.27 291.723L192.54 346.773C187.88 349.453 182.14 349.453 177.48 346.773L171.88 343.553C169.21 342.013 169.21 338.173 171.88 336.643L269.13 280.713Z" fill="#CDD1E6"/>
<path d="M137.11 9.20312L123.84 1.57299C120.15 -0.717011 115.26 -0.586845 109.9 2.49316L22.3101 52.863C11.9801 58.803 3.6001 74.7531 3.6001 88.4731V301.803C3.6001 310.973 6.65009 317.443 11.4701 320.253L11.4901 320.263C11.5201 320.283 11.5501 320.303 11.5901 320.323L25.3301 328.223L29.0302 317.673L112.07 269.923C122.4 263.983 130.78 248.033 130.78 234.313V27.323L137.11 9.20312Z" fill="url(#paint0_linear_99_77)"/>
<path d="M6.5 113.913V141.943L14.27 146.413V118.373L6.5 113.913Z" fill="#5E6F7E"/>
<path d="M6.5 160.713V188.753L14.27 193.223V165.183L6.5 160.713Z" fill="#5E6F7E"/>
<path d="M125.9 277.883L40.4 327.053C27.72 334.343 17.4399 326.603 17.4399 309.773V96.4432C17.4399 82.7232 25.82 66.7731 36.15 60.8331L123.74 10.4633C135.26 3.83325 144.6 10.8732 144.6 26.1732V242.273C144.61 255.993 136.24 271.933 125.9 277.883Z" fill="#A0AAB3"/>
<path d="M123.78 274.013L38.2804 323.173C28.7704 328.643 21.0703 322.833 21.0703 310.213V97.4332C21.0703 84.8132 28.7804 70.1432 38.2804 64.6832L123.78 15.513C133.29 10.043 140.99 15.8532 140.99 28.4732V241.253C140.99 253.883 133.28 268.553 123.78 274.013Z" fill="#161825"/>
<path d="M31.4401 325.993C29.7101 325.993 28.0901 325.583 26.6401 324.743C22.6201 322.433 20.3101 317.143 20.3101 310.223V97.443C20.3101 84.593 28.2001 69.6129 37.9001 64.0329L123.39 14.8729C127.78 12.3529 132.04 12.033 135.41 13.973C139.43 16.283 141.74 21.5831 141.74 28.4931V241.263C141.74 254.103 133.85 269.093 124.15 274.673L38.6602 323.843C36.1702 325.273 33.7101 325.993 31.4401 325.993ZM130.62 14.2331C128.61 14.2331 126.41 14.883 124.16 16.183L38.67 65.3429C29.39 70.6829 21.8401 85.073 21.8401 97.443V310.223C21.8401 316.583 23.8702 321.393 27.4102 323.433C30.2902 325.093 34.0202 324.763 37.9102 322.533L123.4 273.363C132.68 268.023 140.23 253.623 140.23 241.263V28.4931C140.23 22.1331 138.2 17.3229 134.66 15.2829C133.45 14.5829 132.08 14.2331 130.62 14.2331Z" fill="#072039"/>
<path d="M269.05 266.063L183.65 315.173C176.05 319.543 169.89 314.903 169.89 304.813V241.873C169.89 231.783 176.05 220.053 183.65 215.683L269.05 166.573C276.65 162.203 282.81 166.843 282.81 176.933V239.873C282.81 249.963 276.65 261.693 269.05 266.063Z" fill="#FFCA60"/>
<path d="M173.17 246.163V303.323C173.17 311.143 178.19 314.603 184.39 311.033L268.28 262.793C274.48 259.233 279.5 250.003 279.5 242.173V185.023L226.33 259.713L173.17 246.163Z" fill="#FFCA60"/>
<path d="M268.29 170.713L184.4 218.953C178.2 222.513 173.18 231.753 173.18 239.573V246.163L226.35 259.703L279.52 185.013V178.423C279.51 170.603 274.49 167.153 268.29 170.713Z" fill="#FFE086"/>
<path d="M273.72 134.583L182.95 186.783C179.52 188.753 176.75 186.663 176.75 182.113V112.683C176.75 108.133 179.53 102.843 182.95 100.873L273.72 48.673C277.15 46.703 279.92 48.7929 279.92 53.3429V122.773C279.93 127.323 277.15 132.613 273.72 134.583Z" fill="#161825"/>
<path d="M196.24 135.803L191.26 138.673V132.973L196.24 130.103V135.803Z" fill="#FFC48E"/>
<path d="M194.19 127.343V130.173L197.07 128.513V139.273L201.27 136.863V123.263L194.19 127.343Z" fill="#FFC48E"/>
<path d="M196.19 136.943L190.43 140.263V132.333L193.31 130.683V127.843L186.23 131.913V145.513L196.19 139.783V136.943Z" fill="#FFC48E"/>
<path d="M216.05 124.833L211.7 127.333C210.64 127.943 209.78 127.293 209.78 125.893V125.103C209.78 123.693 210.64 122.063 211.7 121.453L216.05 118.953C217.11 118.343 217.97 118.993 217.97 120.393V121.183C217.97 122.593 217.11 124.223 216.05 124.833Z" fill="#6929C4"/>
<path d="M197.59 165.633L186.85 171.813C185.98 172.313 185.27 171.783 185.27 170.623C185.27 169.463 185.98 168.113 186.85 167.613L197.59 161.433C198.46 160.933 199.17 161.463 199.17 162.623C199.17 163.783 198.46 165.133 197.59 165.633Z" fill="#6929C4"/>
<path d="M215.2 155.503L204.46 161.683C203.59 162.183 202.88 161.653 202.88 160.493C202.88 159.333 203.59 157.983 204.46 157.483L215.2 151.303C216.07 150.803 216.78 151.333 216.78 152.493C216.78 153.653 216.07 155.003 215.2 155.503Z" fill="#6929C4"/>
<path d="M263.14 112.603L255.6 116.943C254.73 117.443 254.02 116.913 254.02 115.753C254.02 114.593 254.73 113.243 255.6 112.743L263.14 108.403C264.01 107.903 264.72 108.433 264.72 109.593C264.73 110.753 264.02 112.103 263.14 112.603Z" fill="#6929C4"/>
<path d="M232.58 115.323L228.23 117.823C227.17 118.433 226.31 117.783 226.31 116.383V115.593C226.31 114.183 227.17 112.553 228.23 111.943L232.58 109.443C233.64 108.833 234.5 109.483 234.5 110.883V111.673C234.5 113.083 233.64 114.713 232.58 115.323Z" fill="#6929C4"/>
<path d="M249.11 105.823L244.76 108.323C243.7 108.933 242.84 108.283 242.84 106.883V106.093C242.84 104.683 243.7 103.053 244.76 102.443L249.11 99.9432C250.17 99.3332 251.03 99.9831 251.03 101.383V102.173C251.03 103.583 250.17 105.213 249.11 105.823Z" fill="#6929C4"/>
<path d="M265.64 96.3131L261.29 98.8131C260.23 99.4231 259.37 98.7731 259.37 97.3731V96.5831C259.37 95.1731 260.23 93.5432 261.29 92.9332L265.64 90.4332C266.7 89.8232 267.56 90.4731 267.56 91.8731V92.6632C267.56 94.0732 266.7 95.7031 265.64 96.3131Z" fill="#6929C4"/>
<path d="M283.979 185.843L247.849 206.623C239.909 211.183 233.479 206.343 233.479 195.803C233.479 185.263 239.909 173.023 247.849 168.463L283.979 147.683C291.919 143.123 298.349 147.963 298.349 158.503C298.349 169.033 291.909 181.273 283.979 185.843Z" fill="#B81EBE"/>
<path d="M242.13 209.123C240.66 209.123 239.28 208.763 238.04 208.053C234.63 206.093 232.68 201.623 232.68 195.793C232.68 185.023 239.3 172.443 247.45 167.763L283.58 146.983C287.3 144.853 290.91 144.583 293.78 146.233C297.19 148.193 299.14 152.663 299.14 158.493C299.14 169.263 292.52 181.843 284.37 186.523L248.24 207.303C246.13 208.513 244.06 209.123 242.13 209.123ZM289.69 146.753C288.04 146.753 286.23 147.293 284.38 148.363L248.25 169.143C240.55 173.573 234.28 185.533 234.28 195.803C234.28 201.053 235.95 205.023 238.85 206.693C241.2 208.043 244.26 207.773 247.46 205.933L283.59 185.153C291.29 180.723 297.56 168.763 297.56 158.493C297.56 153.243 295.89 149.273 292.99 147.603C291.99 147.033 290.88 146.753 289.69 146.753Z" fill="#6929C4"/>
<path d="M252.76 194.753C251.31 195.593 250.079 195.963 249.059 195.883C248.049 195.803 247.27 195.223 246.74 194.143C246.21 193.063 245.939 191.463 245.939 189.333C245.939 187.223 246.21 185.323 246.74 183.633C247.27 181.943 248.049 180.473 249.059 179.223C250.079 177.973 251.3 176.933 252.74 176.113C253.59 175.623 254.419 175.253 255.219 174.993C256.019 174.743 256.799 174.603 257.549 174.583V177.453C256.789 177.423 256.039 177.463 255.309 177.573C254.579 177.693 253.819 177.973 253.049 178.413C251.999 179.013 251.129 179.753 250.429 180.623C249.729 181.493 249.21 182.523 248.87 183.713C248.53 184.903 248.349 186.313 248.349 187.933C248.349 189.543 248.52 190.743 248.88 191.553C249.24 192.363 249.759 192.803 250.449 192.873C251.139 192.943 251.979 192.693 252.969 192.123C253.469 191.833 253.949 191.513 254.419 191.143C254.879 190.783 255.32 190.393 255.74 189.963V185.663L252.719 187.403V184.863L258.109 181.763V190.043C257.269 191.063 256.41 191.973 255.52 192.753C254.61 193.553 253.7 194.213 252.76 194.753Z" fill="#F5F5F7"/>
<path d="M261.489 189.423V171.373L266.819 168.303C267.989 167.633 268.929 167.283 269.659 167.263C270.389 167.243 270.919 167.503 271.269 168.033C271.609 168.563 271.789 169.343 271.789 170.353C271.789 171.143 271.669 171.853 271.419 172.473C271.179 173.093 270.889 173.643 270.549 174.123C270.209 174.603 269.889 175.063 269.589 175.483L269.309 175.023C269.859 174.833 270.379 174.783 270.889 174.863C271.389 174.943 271.799 175.213 272.129 175.663C272.459 176.113 272.619 176.823 272.619 177.783C272.619 179.013 272.399 180.133 271.949 181.173C271.499 182.203 270.879 183.133 270.079 183.953C269.279 184.773 268.369 185.483 267.329 186.073L261.489 189.423ZM263.869 177.533L267.109 175.673C267.479 175.463 267.839 175.193 268.189 174.873C268.539 174.553 268.819 174.163 269.049 173.683C269.279 173.203 269.399 172.633 269.399 171.963C269.399 170.953 269.169 170.393 268.719 170.283C268.269 170.173 267.669 170.333 266.919 170.763L263.879 172.513V177.533H263.869ZM263.889 185.553L267.299 183.593C267.799 183.303 268.269 182.963 268.709 182.553C269.149 182.143 269.499 181.653 269.769 181.083C270.039 180.503 270.169 179.833 270.169 179.053C270.169 178.463 270.079 178.033 269.909 177.763C269.739 177.503 269.509 177.353 269.229 177.333C268.949 177.303 268.629 177.363 268.279 177.503C267.919 177.643 267.579 177.813 267.229 178.013L263.879 179.933V185.553H263.889Z" fill="#F5F5F7"/>
<path d="M277.81 173.573V180.043L275.43 181.413V163.363L281.13 160.083C282.77 159.143 284.04 158.893 284.94 159.323C285.84 159.763 286.29 160.933 286.29 162.823C286.29 164.713 285.84 166.433 284.94 167.953C284.04 169.483 282.78 170.713 281.13 171.663L277.81 173.573ZM277.81 171.033L280.83 169.293C281.45 168.943 281.95 168.563 282.34 168.163C282.73 167.773 283.03 167.353 283.24 166.913C283.46 166.473 283.6 166.033 283.68 165.613C283.76 165.193 283.8 164.773 283.8 164.353C283.8 163.943 283.76 163.553 283.68 163.203C283.6 162.853 283.46 162.573 283.24 162.383C283.02 162.193 282.72 162.113 282.34 162.163C281.95 162.203 281.44 162.403 280.83 162.763L277.81 164.503V171.033Z" fill="#F5F5F7"/>
<path d="M357.7 144.403L321.57 165.183C313.63 169.743 307.2 164.903 307.2 154.363C307.2 143.823 313.63 131.583 321.57 127.023L357.7 106.243C365.64 101.683 372.07 106.523 372.07 117.063C372.07 127.593 365.64 139.833 357.7 144.403Z" fill="#B81EBE"/>
<path d="M315.85 167.683C314.38 167.683 313 167.333 311.76 166.613C308.35 164.653 306.4 160.183 306.4 154.353C306.4 143.583 313.02 131.003 321.17 126.323L357.3 105.543C361.02 103.413 364.63 103.143 367.5 104.793C370.91 106.753 372.86 111.223 372.86 117.053C372.86 127.823 366.24 140.403 358.09 145.083L321.96 165.863C319.86 167.073 317.78 167.683 315.85 167.683ZM363.41 105.313C361.76 105.313 359.95 105.853 358.1 106.923L321.97 127.703C314.27 132.133 308 144.093 308 154.363C308 159.613 309.67 163.583 312.57 165.253C314.92 166.603 317.98 166.333 321.18 164.493L357.31 143.713C365.01 139.283 371.28 127.323 371.28 117.053C371.28 111.803 369.61 107.833 366.71 106.163C365.72 105.593 364.61 105.313 363.41 105.313Z" fill="#6929C4"/>
<path d="M320.23 156.613V138.563L329.66 133.143V135.663L322.62 139.703V144.933L328.75 141.413V143.953L322.6 147.493V152.743L329.66 148.683V151.203L320.23 156.613Z" fill="#F5F5F7"/>
<path d="M338.91 146.243C336.95 147.373 335.46 147.603 334.42 146.943C333.38 146.283 332.86 144.713 332.86 142.243V131.283L335.3 129.883V140.813C335.3 142.513 335.59 143.603 336.18 144.083C336.77 144.563 337.65 144.473 338.83 143.793C339.98 143.133 340.86 142.213 341.47 141.043C342.08 139.873 342.39 138.433 342.39 136.743V125.813L344.68 124.493V135.453C344.68 137.093 344.44 138.613 343.98 140.003C343.51 141.393 342.85 142.603 341.98 143.653C341.13 144.693 340.11 145.553 338.91 146.243Z" fill="#F5F5F7"/>
<path d="M348.1 140.573V122.523L354.49 118.853C355.99 117.993 357.13 117.783 357.93 118.243C358.73 118.693 359.13 119.823 359.13 121.623C359.13 122.563 358.98 123.513 358.68 124.483C358.38 125.453 357.94 126.353 357.36 127.193C356.79 128.033 356.1 128.713 355.31 129.233L355.57 128.163L359.84 133.833L356.88 135.533L352.89 129.733L353.99 130.373L350.48 132.393V139.213L348.1 140.573ZM350.48 129.953L353.82 128.033C354.77 127.483 355.48 126.813 355.95 126.023C356.42 125.233 356.65 124.303 356.65 123.243C356.65 122.253 356.46 121.593 356.1 121.263C355.73 120.933 355.11 121.023 354.21 121.533L350.48 123.683V129.953Z" fill="#F5F5F7"/>
<path d="M328.63 207.723L292.5 228.503C284.56 233.063 278.13 228.223 278.13 217.683C278.13 207.143 284.56 194.903 292.5 190.343L328.63 169.563C336.57 165.003 343 169.843 343 180.383C343 190.923 336.57 203.163 328.63 207.723Z" fill="#B81EBE"/>
<path d="M286.79 231.013C285.32 231.013 283.94 230.653 282.7 229.943C279.29 227.983 277.34 223.513 277.34 217.683C277.34 206.903 283.96 194.333 292.11 189.653L328.24 168.873C331.95 166.743 335.57 166.473 338.44 168.123C341.85 170.083 343.8 174.553 343.8 180.383C343.8 191.153 337.18 203.733 329.03 208.413L292.9 229.193C290.79 230.403 288.71 231.013 286.79 231.013ZM334.34 168.643C332.69 168.643 330.88 169.183 329.03 170.253L292.9 191.033C285.2 195.463 278.93 207.423 278.93 217.693C278.93 222.943 280.6 226.913 283.5 228.583C285.85 229.933 288.91 229.663 292.11 227.823L328.24 207.043C335.94 202.613 342.21 190.653 342.21 180.383C342.21 175.133 340.54 171.163 337.64 169.493C336.65 168.923 335.53 168.643 334.34 168.643Z" fill="#6929C4"/>
<path d="M297.33 216.653C295.07 217.953 293.37 218.163 292.21 217.293C291.06 216.423 290.49 214.413 290.49 211.273C290.49 208.183 291.06 205.533 292.19 203.323C293.33 201.113 295.04 199.343 297.32 198.033C298.08 197.593 298.84 197.273 299.59 197.073C300.35 196.873 301.08 196.773 301.78 196.783V199.463C301.07 199.343 300.37 199.363 299.68 199.523C298.98 199.683 298.29 199.953 297.62 200.343C296.57 200.943 295.69 201.683 295 202.553C294.3 203.423 293.79 204.453 293.45 205.643C293.12 206.823 292.94 208.243 292.94 209.883C292.94 211.493 293.11 212.693 293.46 213.493C293.8 214.293 294.33 214.723 295.02 214.783C295.72 214.843 296.6 214.563 297.69 213.943C298.34 213.573 299.01 213.063 299.7 212.423C300.39 211.783 301.09 211.013 301.8 210.103V212.783C301.37 213.303 300.9 213.803 300.4 214.293C299.9 214.783 299.39 215.223 298.87 215.623C298.34 216.023 297.83 216.363 297.33 216.653Z" fill="#F5F5F7"/>
<path d="M303.3 212.953L308.91 191.673L311.44 190.223L316.9 205.143L314.4 206.583L309.59 192.753L310.5 192.123L305.69 211.593L303.3 212.953ZM306.07 206.463L306.76 203.633L313.6 199.703L313.79 202.033L306.07 206.463Z" fill="#F5F5F7"/>
<path d="M318.97 203.943V185.893L324.02 182.993C326.35 181.653 328.08 181.413 329.22 182.273C330.36 183.133 330.92 185.053 330.92 188.033C330.92 191.013 330.35 193.593 329.22 195.773C328.08 197.953 326.35 199.713 324.02 201.053L318.97 203.943ZM321.34 200.053L323.78 198.653C325.39 197.723 326.58 196.523 327.34 195.053C328.1 193.573 328.48 191.703 328.48 189.423C328.48 187.163 328.1 185.733 327.34 185.133C326.58 184.523 325.39 184.683 323.78 185.603L321.34 187.003V200.053Z" fill="#F5F5F7"/>
<path d="M99.7302 102.823C111.13 109.563 111.13 131.103 99.7302 150.953C88.3302 170.793 69.8602 181.423 58.4602 174.683C47.0602 167.943 47.0602 146.403 58.4602 126.553C69.8502 106.703 88.3302 96.0829 99.7302 102.823Z" fill="#F5F5F7"/>
<path d="M66.2003 177.173C63.2603 177.173 60.5603 176.473 58.2203 175.083C46.6203 168.223 46.5402 146.343 58.0502 126.313C65.4602 113.403 76.3802 103.733 86.5502 101.063C91.5902 99.7331 96.2403 100.203 99.9703 102.413C111.57 109.273 111.65 131.153 100.14 151.183C92.7303 164.093 81.8103 173.763 71.6403 176.433C69.7603 176.923 67.9403 177.173 66.2003 177.173ZM91.9803 101.273C90.3203 101.273 88.5902 101.503 86.7902 101.983C76.8602 104.593 66.1603 114.093 58.8703 126.793C47.6203 146.383 47.5403 167.683 58.7003 174.283C62.2103 176.353 66.6003 176.783 71.3903 175.533C81.3203 172.923 92.0202 163.423 99.3102 150.723C110.56 131.133 110.64 109.833 99.4803 103.233C97.2903 101.923 94.7503 101.273 91.9803 101.273Z" fill="#F5F5F7"/>
<path d="M79.0906 172.783C86.1006 168.753 92.5406 162.163 97.5706 154.463L97.0906 146.333C96.5506 137.263 89.8705 133.813 81.8005 138.453L76.3706 141.573C68.3106 146.213 61.6206 157.343 61.0806 167.043L60.6006 175.723C65.6406 177.623 72.0806 176.813 79.0906 172.783Z" fill="#B81EBE"/>
<path d="M78.9804 111.843L79.2004 111.713C85.0704 108.333 89.7304 111.403 89.4104 118.423L89.3003 120.793C89.0003 127.283 84.5204 134.813 79.0904 137.933C73.6604 141.053 69.1804 138.683 68.8804 132.533L68.7704 130.283C68.4504 123.653 73.1104 115.223 78.9804 111.843Z" fill="#B81EBE"/>
<path d="M113.61 206.703L47.7898 244.553C42.7098 247.473 38.5898 244.373 38.5898 237.633C38.5898 230.893 42.7098 223.053 47.7898 220.133L113.61 182.283C118.69 179.363 122.81 182.463 122.81 189.203C122.81 195.953 118.69 203.783 113.61 206.703Z" fill="#F5F5F7"/>
<path d="M44.1401 246.123C43.2101 246.123 42.33 245.903 41.54 245.443C39.37 244.193 38.1201 241.343 38.1201 237.623C38.1201 230.743 42.35 222.703 47.55 219.713L113.37 181.863C115.73 180.503 118.04 180.333 119.86 181.383C122.03 182.633 123.28 185.483 123.28 189.203C123.28 196.083 119.05 204.123 113.85 207.113L48.0302 244.963C46.6902 245.733 45.3701 246.123 44.1401 246.123ZM117.26 181.663C116.2 181.663 115.04 182.013 113.85 182.693L48.0302 220.543C43.0902 223.383 39.0701 231.053 39.0701 237.633C39.0701 241.003 40.1401 243.553 42.0101 244.633C43.5201 245.503 45.49 245.333 47.55 244.153L113.37 206.303C118.31 203.463 122.33 195.793 122.33 189.213C122.33 185.843 121.26 183.293 119.39 182.213C118.75 181.843 118.03 181.663 117.26 181.663Z" fill="#ADB5C5"/>
<path d="M53.7799 225.113C55.5799 226.173 55.5799 229.573 53.7799 232.703C51.9799 235.833 49.0699 237.503 47.2699 236.443C45.4699 235.383 45.4699 231.983 47.2699 228.853C49.0699 225.723 51.9899 224.043 53.7799 225.113Z" fill="#B81EBE"/>
<path d="M68.8698 216.433C70.6698 217.493 70.6698 220.893 68.8698 224.023C67.0698 227.153 64.1598 228.823 62.3598 227.763C60.5598 226.703 60.5598 223.303 62.3598 220.173C64.1598 217.043 67.0798 215.373 68.8698 216.433Z" fill="#B81EBE"/>
<path d="M83.9596 207.753C85.7596 208.813 85.7596 212.213 83.9596 215.343C82.1596 218.473 79.2496 220.143 77.4496 219.083C75.6496 218.023 75.6496 214.623 77.4496 211.493C79.2596 208.363 82.1696 206.693 83.9596 207.753Z" fill="#B81EBE"/>
<path d="M99.0597 199.073C100.86 200.133 100.86 203.533 99.0597 206.663C97.2597 209.793 94.3497 211.463 92.5497 210.403C90.7497 209.343 90.7497 205.943 92.5497 202.813C94.3497 199.683 97.2597 198.013 99.0597 199.073Z" fill="#B81EBE"/>
<path d="M114.15 190.393C115.95 191.453 115.95 194.853 114.15 197.983C112.35 201.113 109.44 202.783 107.64 201.723C105.84 200.663 105.84 197.263 107.64 194.133C109.44 191.013 112.35 189.333 114.15 190.393Z" fill="#B81EBE"/>
<path d="M297.52 12.4332L292.39 9.48327C290.63 8.47327 288.4 8.64325 286.11 9.96325L263.1 23.1932C258 26.1232 253.85 34.0031 253.85 40.7631V67.5531C253.85 71.1731 255.05 73.9432 257.16 75.1532L262.29 78.1031L264.44 74.1031L286.45 61.4432C291.55 58.5132 295.7 50.6332 295.7 43.8732V17.0831C295.7 16.6831 295.68 16.3032 295.65 15.9232L297.52 12.4332Z" fill="#F5F5F7"/>
<path d="M291.41 64.1031L268.4 77.333C263.39 80.213 259.32 77.153 259.32 70.503V43.7132C259.32 37.0532 263.38 29.3231 268.4 26.4431L291.41 13.2132C296.42 10.3332 300.49 13.393 300.49 20.053V46.843C300.49 53.483 296.42 61.2131 291.41 64.1031Z" fill="#6929C4"/>
<path d="M264.79 78.753C263.89 78.753 263.05 78.5331 262.29 78.1031C260.19 76.8931 258.98 74.123 258.98 70.503V43.7132C258.98 36.9532 263.13 29.0832 268.23 26.1432L291.24 12.9132C293.53 11.5932 295.76 11.4232 297.52 12.4332C299.62 13.6432 300.83 16.4131 300.83 20.0331V46.8231C300.83 53.5731 296.68 61.4532 291.58 64.3932L268.57 77.6232C267.26 78.3732 265.98 78.753 264.79 78.753ZM295.02 12.4532C293.95 12.4532 292.78 12.8033 291.58 13.4933L268.57 26.7233C263.66 29.5433 259.66 37.1632 259.66 43.7032V70.4933C259.66 73.8733 260.74 76.4331 262.63 77.5131C264.17 78.3931 266.15 78.2231 268.23 77.0331L291.24 63.8031C296.15 60.9831 300.15 53.3631 300.15 46.8231V20.0331C300.15 16.6531 299.07 14.0931 297.18 13.0131C296.53 12.6431 295.8 12.4532 295.02 12.4532Z" fill="#6929C4"/>
<path d="M279.36 58.823L268.02 52.083L270.03 48.7332L277.54 53.1931L288.19 28.7629L291.78 30.313L279.36 58.823Z" fill="#F5F5F7"/>
<defs>
<linearGradient id="paint0_linear_99_77" x1="-15.5403" y1="304.661" x2="150.56" y2="16.9656" gradientUnits="userSpaceOnUse">
<stop stop-color="#516374"/>
<stop offset="0.0853" stop-color="#788693"/>
<stop offset="0.5783" stop-color="#788693"/>
<stop offset="0.6429" stop-color="#BAC1C8"/>
<stop offset="0.7166" stop-color="#9BA5AF"/>
<stop offset="0.9256" stop-color="#9BA5AF"/>
<stop offset="0.9516" stop-color="#9BA5AF"/>
<stop offset="0.9682" stop-color="#97A2AC"/>
<stop offset="0.9841" stop-color="#8C97A3"/>
<stop offset="0.9998" stop-color="#788693"/>
<stop offset="1" stop-color="#788693"/>
</linearGradient>
</defs>
</svg>
