<svg width="72" height="68" viewBox="0 0 72 68" fill="none" xmlns="http://www.w3.org/2000/svg">
<path d="M71.7999 41.0001C71.7999 41.3001 71.6999 41.6001 71.4999 41.9001L53.2999 66.8002C52.9999 67.2002 52.4999 67.4001 51.9999 67.4001C51.4999 67.4001 51.0999 67.2002 50.7999 66.8002L40.7999 52.9001L38.7999 50.1001L32.6998 41.6001C32.4998 41.3001 32.3999 41.0001 32.3999 40.7001C32.3999 40.4001 32.4999 40.2001 32.5999 40.0001C32.8999 39.5001 33.3999 39.2001 33.9999 39.2001H41.0999V26.6001H44.0999V40.6001V42.2001H36.7999L41.3999 48.6001L43.3999 51.4001L52.0999 63.5001L67.4999 42.4001H61.7999H60.1998V29.6001V26.8002H63.1998V39.5001H70.2999C70.8999 39.5001 71.3998 39.8001 71.6998 40.4001C71.7998 40.5001 71.7999 40.8001 71.7999 41.0001Z" fill="#B81EBE"/>
<path d="M55.5999 26.6C55.2999 22.4 54.1 18.3 51.9 14.5C48.2 8.1 42.1999 3.49998 35.0999 1.59998C32.7999 0.999976 30.3 0.699951 27.9 0.699951C23.1 0.699951 18.2999 2.00002 13.9999 4.40002C7.59994 8.10002 2.99992 14.1 1.09992 21.2C-2.90008 35.9 5.89992 51.1 20.5999 55.1C23.0999 55.8 25.5 56.1 27.8 56.1C32.2 56.1 36.7 55 40.8 52.8C41.1 52.7001 41.3999 52.5 41.6999 52.3C42.2999 52 42.8 51.6 43.3 51.3L41.3 48.5C40.8 48.8 40.3 49.2 39.8 49.4C39.4 49.6 39.0999 49.8 38.6999 50C35.1999 51.8 31.3999 52.7 27.5999 52.7C25.4999 52.7 23.2999 52.4 21.1999 51.9C14.8999 50.2 9.59997 46.2 6.39997 40.5C3.09997 34.9 2.29994 28.3 3.99994 22C5.69994 15.7 9.79997 10.5 15.4 7.19995C19.2 5.09995 23.3999 3.90002 27.5999 3.90002C29.6999 3.90002 31.8 4.19995 33.9 4.69995C40.2 6.39995 45.4999 10.5 48.6999 16.1C50.5999 19.3 51.7 22.9 51.9 26.5C52 27.5 52 28.5 51.9 29.5H55.4C55.6 28.6 55.5999 27.6 55.5999 26.6Z" fill="#B81EBE"/>
<path d="M31.4001 17.5999C31.2001 17.5999 31.1001 17.5999 31.0001 17.5999C30.1001 17.2999 29.6001 16.3999 29.8001 15.5999L31.0001 11.0999C31.2001 10.3999 31.9001 9.8999 32.6001 9.8999C32.7001 9.8999 32.9001 9.89988 33.0001 9.99988C33.9001 10.1999 34.4 11.1999 34.2 11.9999L33.0001 16.4999C32.8001 17.0999 32.1001 17.5999 31.4001 17.5999Z" fill="#B81EBE"/>
<path d="M23.0002 47C22.8002 47 22.7002 47 22.6002 47C21.7002 46.7 21.2002 45.8 21.4002 45L22.6002 40.5C22.8002 39.8 23.5001 39.3 24.2001 39.3C24.3001 39.3 24.5002 39.3 24.6002 39.4C25.5002 39.6 26.0002 40.6 25.8002 41.4L24.6002 45.9C24.4002 46.5 23.7002 47 23.0002 47Z" fill="#B81EBE"/>
<path d="M26 42.7001C24.9 42.7001 23.9 42.5001 23 42.2001C19.6 41.1001 16.5999 37.9002 18.1999 32.3002C18.3999 31.6002 19.1 31.1001 19.8 31.1001C19.9 31.1001 20.1 31.1001 20.1999 31.2001C20.6 31.3001 20.9999 31.6001 21.1999 32.0001C21.4 32.4001 21.5 32.8001 21.4 33.2001C20.3 37.1001 22.6 38.6001 24 39.1001C24.6 39.3001 25.3 39.4001 26 39.4001C28.1 39.4001 29.9 38.4001 30.5 37.0001L30.6 36.9001V36.8002C31.8 33.5002 28.3 30.5001 26.7 29.4001C21.7 25.9001 20.2 22.4002 22.3 18.8002C24.6 14.7002 27.9 14.1001 29.8 14.1001C31 14.1001 32.0999 14.3002 33.2 14.8002C37.1 16.5002 38.9 20.5001 37.6 24.7001C37.4 25.4001 36.7 25.9001 36 25.9001C35.8 25.9001 35.7 25.9002 35.5 25.8002C34.7 25.5002 34.2 24.6001 34.4 23.7001C35.3 20.6001 33.6 18.6002 31.8 17.8002C31.2 17.5002 30.5 17.4001 29.8 17.4001C28.7 17.4001 26.6 17.8001 25.1 20.5001C24.3 22.0001 24.2 23.8002 28.5 26.8002C30.3 28.0002 35.9 32.6002 33.6 38.3002C32.2 41.6002 28.6 42.7001 26 42.7001Z" fill="#B81EBE"/>
<path d="M63.3003 26.6001H41.2002V29.6001H63.3003V26.6001Z" fill="#B81EBE"/>
</svg>
