<svg width="49" height="30" viewBox="0 0 49 30" fill="none" xmlns="http://www.w3.org/2000/svg">
<path d="M34.5082 24.6001C34.7082 24.6001 34.8082 24.6 35.0082 24.5L48.3081 14.8999C48.5081 14.6999 48.6082 14.4997 48.6082 14.1997C48.6082 13.8997 48.5081 13.7 48.3081 13.5L35.1082 3.8999C35.0082 3.7999 34.8082 3.69971 34.6082 3.69971C34.5082 3.69971 34.3081 3.6998 34.2081 3.7998C33.9081 3.8998 33.7081 4.2 33.7081 4.5V8.19971H27.8081C27.1081 8.19971 26.9081 8.4998 26.8081 8.7998C27.6081 9.2998 27.0081 9.5998 27.2081 9.7998H35.3081V9V6L46.4082 14.1001L35.1082 22.1997V18.2998H34.3081H26.9082V19.8999H33.6082V23.6997C33.6082 23.9997 33.8082 24.2999 34.0082 24.3999C34.2082 24.4999 34.3082 24.6001 34.5082 24.6001Z" fill="#6929C4"/>
<path d="M14.608 29.3999C13.408 29.3999 12.108 29.1999 10.808 28.8999C3.00796 26.7999 -1.59196 18.6999 0.508035 10.8999C1.50804 7.0999 3.90796 4 7.30796 2C9.50796 0.7 12.108 0 14.608 0C15.908 0 17.1081 0.2 18.4081 0.5C22.2081 1.5 25.308 3.8998 27.308 7.2998C29.308 10.6998 29.808 14.5999 28.808 18.3999C27.808 22.1999 25.408 25.2998 22.008 27.2998C19.608 28.6998 17.108 29.3999 14.608 29.3999ZM14.508 1.7998C12.308 1.7998 10.008 2.4 8.00804 3.5C5.00804 5.2 2.90804 7.9998 2.00804 11.2998C1.10804 14.5998 1.60796 18.1001 3.30796 21.1001C5.00796 24.1001 7.80801 26.2001 11.108 27.1001C12.208 27.4001 13.308 27.6001 14.508 27.6001C16.708 27.6001 19.0081 26.9999 20.9081 25.8999C23.9081 24.1999 26.0081 21.4001 26.9081 18.1001C27.8081 14.8001 27.308 11.2998 25.608 8.2998C23.908 5.2998 21.108 3.1998 17.808 2.2998C16.708 1.9998 15.608 1.7998 14.508 1.7998Z" fill="#6929C4"/>
<path d="M16.4081 9C16.3081 9 16.208 9 16.208 9C15.708 8.9 15.4081 8.3999 15.6081 7.8999L16.208 5.5C16.308 5.1 16.7081 4.8999 17.0081 4.8999C17.1081 4.8999 17.108 4.8999 17.208 4.8999C17.708 4.9999 17.908 5.5 17.808 6L17.208 8.3999C17.208 8.7999 16.8081 9 16.4081 9Z" fill="#6929C4"/>
<path d="M12.0082 24.6001C11.9082 24.6001 11.8081 24.6001 11.8081 24.6001C11.3081 24.5001 11.0082 24 11.2082 23.5L11.8081 21.1001C11.9081 20.7001 12.3082 20.5 12.6082 20.5C12.7082 20.5 12.7081 20.5 12.8081 20.5C13.3081 20.6 13.5082 21.1001 13.4082 21.6001L12.8081 24C12.7081 24.3 12.4082 24.6001 12.0082 24.6001Z" fill="#6929C4"/>
<path d="M13.5078 22.2998C12.9078 22.2998 12.4078 22.2001 11.9078 22.1001C10.1078 21.5001 8.50784 19.7999 9.40784 16.8999C9.50784 16.4999 9.90776 16.2998 10.2078 16.2998C10.3078 16.2998 10.3078 16.2998 10.4078 16.2998C10.6078 16.3998 10.8078 16.4997 10.9078 16.6997C11.0078 16.8997 11.0078 17.0999 11.0078 17.3999C10.4078 19.4999 11.6078 20.2 12.4078 20.5C12.7078 20.6 13.1078 20.6997 13.5078 20.6997C14.6078 20.6997 15.6078 20.1999 15.9078 19.3999V19.2998C16.5078 17.5998 14.7077 15.9999 13.8077 15.3999C11.1077 13.4999 10.4078 11.6998 11.5078 9.7998C12.7078 7.6998 14.5078 7.2998 15.4078 7.2998C16.0078 7.2998 16.6078 7.39971 17.2078 7.69971C19.3078 8.59971 20.2078 10.6999 19.5078 12.8999C19.4078 13.2999 19.0078 13.5 18.6078 13.5C18.5078 13.5 18.4078 13.5 18.4078 13.5C18.0078 13.4 17.7077 12.8999 17.8077 12.3999C18.3077 10.7999 17.4078 9.6998 16.4078 9.2998C16.1078 9.1998 15.7078 9.1001 15.4078 9.1001C14.8078 9.1001 13.7078 9.29971 12.9078 10.6997C12.5078 11.4997 12.4078 12.4 14.7078 14C15.6078 14.7 18.6078 17.1001 17.4078 20.1001C16.9078 21.7001 15.0078 22.2998 13.5078 22.2998Z" fill="#6929C4"/>
</svg>
