<svg width="206" height="49" viewBox="0 0 206 49" fill="none" xmlns="http://www.w3.org/2000/svg">
<path d="M1.75736 33.126V16.7985H6.82677V18.642C7.39735 17.9178 8.07766 17.3691 8.86769 16.9961C9.67968 16.601 10.5575 16.4035 11.5012 16.4035C12.5326 16.4035 13.5531 16.6559 14.5625 17.1606C15.572 17.6654 16.373 18.4445 16.9656 19.4978C17.4923 18.6639 18.2165 17.9397 19.1382 17.3252C20.0599 16.7108 21.1352 16.4035 22.3642 16.4035C23.6809 16.4035 24.833 16.6669 25.8206 17.1936C26.8081 17.7203 27.5652 18.5103 28.0919 19.5637C28.6406 20.5951 28.9149 21.8789 28.9149 23.4151V33.126H23.8784V24.0735C23.8784 23.042 23.626 22.241 23.1213 21.6704C22.6165 21.0779 21.8704 20.7817 20.8828 20.7817C19.8733 20.7817 19.1162 21.0779 18.6115 21.6704C18.1287 22.263 17.8873 23.064 17.8873 24.0735V33.126H12.8179V24.0735C12.8179 23.0859 12.5655 22.2959 12.0608 21.7034C11.578 21.0889 10.8318 20.7817 9.82232 20.7817C8.83478 20.7817 8.08863 21.0779 7.58388 21.6704C7.07914 22.241 6.82677 23.042 6.82677 24.0735V33.126H1.75736ZM33.2915 15.3501C32.4356 15.3501 31.7004 15.0429 31.0859 14.4284C30.4715 13.814 30.1642 13.0788 30.1642 12.2229C30.1642 11.367 30.4715 10.6319 31.0859 10.0174C31.7004 9.40293 32.4356 9.09569 33.2915 9.09569C34.1912 9.09569 34.9374 9.40293 35.5299 10.0174C36.1224 10.6319 36.4187 11.367 36.4187 12.2229C36.4187 13.0788 36.1224 13.814 35.5299 14.4284C34.9374 15.0429 34.1912 15.3501 33.2915 15.3501ZM30.7568 33.126V16.7985H35.8262V33.126H30.7568ZM45.7592 33.521C44.1133 33.521 42.6649 33.1699 41.414 32.4676C40.1631 31.7654 39.1756 30.7778 38.4514 29.505C37.7491 28.2102 37.398 26.696 37.398 24.9623C37.398 23.2944 37.7382 21.8241 38.4185 20.5512C39.0988 19.2564 40.0644 18.2469 41.3153 17.5227C42.5662 16.7766 44.0475 16.4035 45.7592 16.4035C47.6904 16.4035 49.3802 16.9083 50.8286 17.9178C52.277 18.9053 53.2536 20.4854 53.7583 22.658H48.3268C48.1074 22.0216 47.7672 21.5497 47.3064 21.2425C46.8675 20.9133 46.3188 20.7487 45.6605 20.7487C44.9363 20.7487 44.3437 20.9462 43.8829 21.3413C43.444 21.7363 43.1148 22.252 42.8953 22.8884C42.6978 23.5248 42.5991 24.2161 42.5991 24.9623C42.5991 25.6865 42.6978 26.3777 42.8953 27.0361C43.1148 27.6725 43.444 28.1882 43.8829 28.5833C44.3437 28.9783 44.9363 29.1758 45.6605 29.1758C46.3188 29.1758 46.8675 29.0112 47.3064 28.682C47.7672 28.3528 48.1074 27.881 48.3268 27.2665H53.7583C53.4511 28.6052 52.9244 29.7354 52.1783 30.6571C51.4321 31.5788 50.5104 32.292 49.4131 32.7968C48.3378 33.2796 47.1198 33.521 45.7592 33.521ZM55.2816 33.126V16.7985H60.351V19.3332C60.9216 18.4993 61.6458 17.808 62.5236 17.2594C63.4014 16.6888 64.4109 16.4035 65.5521 16.4035V21.7692H64.1366C62.8637 21.7692 61.9091 22.0545 61.2727 22.6251C60.6582 23.1957 60.351 24.1393 60.351 25.456V33.126H55.2816ZM74.826 33.521C73.2459 33.521 71.7975 33.1918 70.4808 32.5334C69.186 31.8531 68.1436 30.8766 67.3536 29.6037C66.5855 28.3309 66.2014 26.7837 66.2014 24.9623C66.2014 23.2286 66.5745 21.7253 67.3206 20.4525C68.0887 19.1796 69.1311 18.1921 70.4479 17.4898C71.7646 16.7656 73.2459 16.4035 74.8918 16.4035C76.6475 16.4035 78.1727 16.7766 79.4675 17.5227C80.7622 18.2469 81.7717 19.2564 82.4959 20.5512C83.2201 21.8241 83.5822 23.2944 83.5822 24.9623C83.5822 26.696 83.1982 28.2102 82.4301 29.505C81.662 30.7778 80.6196 31.7654 79.3029 32.4676C77.9861 33.1699 76.4939 33.521 74.826 33.521ZM74.8589 29.11C75.5831 29.11 76.2086 28.9344 76.7353 28.5833C77.2619 28.2321 77.6679 27.7384 77.9532 27.1019C78.2605 26.4655 78.4141 25.7413 78.4141 24.9293C78.4141 24.0296 78.2495 23.2834 77.9203 22.6909C77.6131 22.0764 77.1851 21.6156 76.6365 21.3083C76.1098 21.0011 75.5173 20.8475 74.8589 20.8475C74.1786 20.8475 73.5641 21.0121 73.0155 21.3413C72.4888 21.6704 72.0718 22.1423 71.7646 22.7567C71.4574 23.3712 71.3037 24.1064 71.3037 24.9623C71.3037 25.7742 71.4464 26.4984 71.7317 27.1349C72.0389 27.7493 72.4559 28.2321 72.9826 28.5833C73.5093 28.9344 74.1347 29.11 74.8589 29.11ZM92.0939 33.126L84.2594 10.0832H89.5592L95.2541 28.2212L97.0316 22.0655L92.8181 10.0832H98.0192L100.554 18.0824L103.023 10.0832H108.257L104.01 22.0655L105.755 28.2212L111.483 10.0832H116.783L108.948 33.126H102.694L100.554 26.1802L98.3155 33.126H92.0939ZM122.95 33.521C121.37 33.521 119.921 33.1918 118.604 32.5334C117.31 31.8531 116.267 30.8766 115.477 29.6037C114.709 28.3309 114.325 26.7837 114.325 24.9623C114.325 23.2286 114.698 21.7253 115.444 20.4525C116.212 19.1796 117.255 18.1921 118.571 17.4898C119.888 16.7656 121.37 16.4035 123.015 16.4035C124.771 16.4035 126.296 16.7766 127.591 17.5227C128.886 18.2469 129.895 19.2564 130.62 20.5512C131.344 21.8241 131.706 23.2944 131.706 24.9623C131.706 26.696 131.322 28.2102 130.554 29.505C129.786 30.7778 128.743 31.7654 127.426 32.4676C126.11 33.1699 124.617 33.521 122.95 33.521ZM122.982 29.11C123.707 29.11 124.332 28.9344 124.859 28.5833C125.386 28.2321 125.792 27.7384 126.077 27.1019C126.384 26.4655 126.538 25.7413 126.538 24.9293C126.538 24.0296 126.373 23.2834 126.044 22.6909C125.737 22.0764 125.309 21.6156 124.76 21.3083C124.233 21.0011 123.641 20.8475 122.982 20.8475C122.302 20.8475 121.688 21.0121 121.139 21.3413C120.612 21.6704 120.195 22.1423 119.888 22.7567C119.581 23.3712 119.427 24.1064 119.427 24.9623C119.427 25.7742 119.57 26.4984 119.855 27.1349C120.163 27.7493 120.579 28.2321 121.106 28.5833C121.633 28.9344 122.258 29.11 122.982 29.11ZM133.173 33.126V16.7985H138.242V19.3332C138.813 18.4993 139.537 17.808 140.415 17.2594C141.293 16.6888 142.302 16.4035 143.443 16.4035V21.7692H142.028C140.755 21.7692 139.801 22.0545 139.164 22.6251C138.55 23.1957 138.242 24.1393 138.242 25.456V33.126H133.173ZM144.649 33.126V10.0832H149.719V23.3164L154.558 16.7985H160.812L154.097 24.8964L161.043 33.126H154.755L149.719 26.1802V33.126H144.649ZM167.885 33.521C166.371 33.521 164.977 33.2028 163.705 32.5664C162.432 31.908 161.411 30.9424 160.643 29.6696C159.875 28.3967 159.491 26.8276 159.491 24.9623C159.491 23.0969 159.864 21.5278 160.61 20.255C161.356 18.9821 162.366 18.0275 163.639 17.3911C164.912 16.7327 166.327 16.4035 167.885 16.4035C169.509 16.4035 170.936 16.7437 172.165 17.424C173.415 18.0824 174.392 19.037 175.094 20.2879C175.819 21.5168 176.181 22.9872 176.181 24.6989C176.181 24.9184 176.17 25.1598 176.148 25.4231C176.148 25.6645 176.126 25.9169 176.082 26.1802H164.56C164.626 26.9703 164.813 27.5957 165.12 28.0566C165.449 28.5174 165.844 28.8576 166.305 29.077C166.788 29.2745 167.26 29.3733 167.721 29.3733C168.357 29.3733 168.895 29.2416 169.334 28.9783C169.773 28.7149 170.113 28.3089 170.354 27.7603H175.786C175.544 28.7917 175.061 29.7464 174.337 30.6242C173.613 31.502 172.702 32.2043 171.605 32.731C170.53 33.2576 169.29 33.521 167.885 33.521ZM164.56 23.3493H170.947C170.947 22.4495 170.65 21.7473 170.058 21.2425C169.465 20.7378 168.719 20.4854 167.819 20.4854C166.942 20.4854 166.217 20.7487 165.647 21.2754C165.076 21.7802 164.714 22.4715 164.56 23.3493ZM177.6 33.126V16.7985H182.669V19.3332C183.24 18.4993 183.964 17.808 184.842 17.2594C185.72 16.6888 186.729 16.4035 187.87 16.4035V21.7692H186.455C185.182 21.7692 184.227 22.0545 183.591 22.6251C182.976 23.1957 182.669 24.1393 182.669 25.456V33.126H177.6ZM196.318 33.521C195.133 33.521 193.959 33.3125 192.796 32.8955C191.655 32.4566 190.7 31.8202 189.932 30.9863C189.164 30.1304 188.736 29.077 188.648 27.8261H193.685C193.772 28.4406 194.058 28.9234 194.54 29.2745C195.045 29.6037 195.616 29.7683 196.252 29.7683C196.779 29.7683 197.24 29.6696 197.635 29.4721C198.052 29.2526 198.26 28.9015 198.26 28.4187C198.26 28.0237 198.074 27.7164 197.701 27.497C197.328 27.2556 196.889 27.069 196.384 26.9374C195.901 26.8057 195.473 26.696 195.1 26.6082C194.069 26.3448 193.103 26.0486 192.203 25.7194C191.304 25.3902 190.568 24.9074 189.998 24.271C189.449 23.6346 189.175 22.7348 189.175 21.5717C189.175 20.4525 189.482 19.5088 190.097 18.7407C190.711 17.9726 191.534 17.3911 192.565 16.9961C193.597 16.601 194.727 16.4035 195.956 16.4035C197.887 16.4035 199.478 16.8863 200.729 17.8519C202.002 18.7956 202.748 20.2001 202.968 22.0655H198.26C198.151 21.4071 197.876 20.9353 197.437 20.65C196.998 20.3427 196.45 20.1891 195.791 20.1891C195.309 20.1891 194.881 20.2879 194.508 20.4854C194.135 20.661 193.948 20.9901 193.948 21.4729C193.948 21.868 194.124 22.1862 194.475 22.4276C194.848 22.647 195.276 22.8116 195.758 22.9213C196.241 23.0311 196.68 23.1408 197.075 23.2505C198.129 23.5139 199.094 23.8211 199.972 24.1722C200.872 24.5234 201.607 25.0281 202.178 25.6865C202.748 26.3229 203.044 27.2446 203.066 28.4516C203.066 29.5269 202.748 30.4486 202.112 31.2167C201.497 31.9629 200.674 32.5334 199.643 32.9285C198.633 33.3235 197.525 33.521 196.318 33.521Z" fill="white"/>
<path d="M6.42051 44.9868L4.43926 38.2096H5.58702L7.02172 43.5248L8.60672 38.2096H9.90478L11.5034 43.5248L12.9245 38.2096H14.0859L12.1047 44.9868H10.9296L9.26258 39.3983L7.5956 44.9868H6.42051ZM18.2308 45.1508C17.6114 45.1508 17.0421 45.0141 16.5229 44.7409C16.0036 44.4585 15.5892 44.0531 15.2795 43.5248C14.9697 42.9873 14.8149 42.3406 14.8149 41.5845C14.8149 40.8649 14.9652 40.2409 15.2658 39.7126C15.5755 39.1843 15.99 38.7743 16.5092 38.4828C17.0375 38.1914 17.6296 38.0456 18.2855 38.0456C18.914 38.0456 19.4879 38.1822 20.0071 38.4555C20.5355 38.7288 20.959 39.1296 21.2779 39.6579C21.5967 40.1863 21.7561 40.8285 21.7561 41.5845C21.7561 42.2768 21.6058 42.8917 21.3052 43.4291C21.0046 43.9666 20.5856 44.3902 20.0481 44.6999C19.5198 45.0005 18.914 45.1508 18.2308 45.1508ZM18.2308 44.1533C18.6772 44.1533 19.078 44.0486 19.4333 43.8391C19.7885 43.6204 20.0709 43.3198 20.2804 42.9372C20.4899 42.5547 20.5947 42.1038 20.5947 41.5845C20.5947 41.0926 20.5036 40.6554 20.3214 40.2728C20.1392 39.8902 19.875 39.5896 19.5289 39.371C19.1827 39.1524 18.7637 39.0431 18.2718 39.0431C17.7708 39.0431 17.3472 39.1569 17.0011 39.3847C16.6641 39.6124 16.409 39.9175 16.2359 40.3001C16.0628 40.6827 15.9763 41.1109 15.9763 41.5845C15.9763 42.1857 16.0856 42.6776 16.3042 43.0602C16.5229 43.4337 16.8052 43.7115 17.1514 43.8937C17.4975 44.0668 17.8574 44.1533 18.2308 44.1533ZM23.3481 44.9868V38.2096H24.3866L24.4822 39.5076C24.6918 39.0613 25.0106 38.706 25.4387 38.4419C25.8668 38.1777 26.3952 38.0456 27.0237 38.0456V39.248H26.7094C25.9625 39.248 25.4068 39.4484 25.0425 39.8492C24.6781 40.25 24.4959 40.8239 24.4959 41.5709V44.9868H23.3481ZM28.3119 44.9868V35.4222H29.4597V41.0653L32.2335 38.2096H33.6408L30.6348 41.2703L34.0234 44.9868H32.5614L29.4597 41.4752V44.9868H28.3119ZM41.3958 45.1508C40.9312 45.1508 40.5167 45.0779 40.1524 44.9322C39.7971 44.7864 39.492 44.586 39.2369 44.331C38.991 44.0759 38.8042 43.7844 38.6767 43.4565C38.5492 43.1285 38.4854 42.7824 38.4854 42.418C38.4854 42.0263 38.5628 41.6665 38.7177 41.3386C38.8725 41.0015 39.0684 40.7009 39.3052 40.4368C39.5512 40.1726 39.8062 39.9494 40.0704 39.7672L40.1524 39.6989L40.0704 39.6033C39.8244 39.3118 39.6286 39.0112 39.4829 38.7015C39.3371 38.3826 39.2642 38.0411 39.2642 37.6767C39.2642 37.2212 39.369 36.8113 39.5785 36.4469C39.7971 36.0826 40.1023 35.7956 40.494 35.5861C40.8948 35.3675 41.3685 35.2582 41.915 35.2582C42.4616 35.2582 42.9352 35.3675 43.336 35.5861C43.7368 35.7956 44.0466 36.0962 44.2652 36.4879C44.4929 36.8705 44.6068 37.326 44.6068 37.8543H43.4863C43.4863 37.4991 43.4226 37.203 43.2951 36.9662C43.1675 36.7293 42.9853 36.5517 42.7485 36.4333C42.5117 36.3057 42.2293 36.242 41.9013 36.242C41.5916 36.242 41.3229 36.3057 41.0952 36.4333C40.8674 36.5517 40.6898 36.7202 40.5623 36.9388C40.4439 37.1575 40.3847 37.408 40.3847 37.6903C40.3847 38.1276 40.5441 38.5375 40.8629 38.9201C41.1908 39.3027 41.5916 39.7308 42.0653 40.2045L44.0466 42.1584L45.5359 39.4666H46.7247L44.7844 42.8826L46.916 44.9868H45.4949L44.1832 43.6888L44.1149 43.7981C43.7778 44.1898 43.3907 44.5131 42.9535 44.7682C42.5253 45.0233 42.0061 45.1508 41.3958 45.1508ZM41.4504 44.1533C41.8786 44.1533 42.252 44.0577 42.5709 43.8664C42.8897 43.666 43.1948 43.379 43.4863 43.0056L40.8629 40.4368C40.4985 40.6645 40.1934 40.9378 39.9474 41.2566C39.7106 41.5754 39.5922 41.9489 39.5922 42.377C39.5922 42.6776 39.665 42.9646 39.8108 43.2378C39.9656 43.5111 40.1797 43.7343 40.453 43.9074C40.7354 44.0713 41.0679 44.1533 41.4504 44.1533ZM54.9237 45.1508C54.2952 45.1508 53.7258 45.005 53.2157 44.7135C52.7147 44.422 52.3185 44.0121 52.027 43.4838C51.7355 42.9464 51.5897 42.3178 51.5897 41.5982C51.5897 40.8877 51.7264 40.2683 51.9996 39.7399C52.282 39.2025 52.6737 38.788 53.1747 38.4965C53.6848 38.1959 54.2769 38.0456 54.951 38.0456C55.5887 38.0456 56.1443 38.1868 56.618 38.4692C57.0917 38.7516 57.4606 39.1342 57.7248 39.6169C57.998 40.0906 58.1347 40.6235 58.1347 41.2156C58.1347 41.3431 58.1347 41.4433 58.1347 41.5162C58.1347 41.5891 58.1301 41.7029 58.121 41.8578H52.7238C52.7511 42.3042 52.8559 42.705 53.0381 43.0602C53.2294 43.4064 53.4844 43.6796 53.8033 43.88C54.1312 44.0805 54.5047 44.1807 54.9237 44.1807C55.3974 44.1807 55.7936 44.0713 56.1124 43.8527C56.4313 43.6341 56.6635 43.3381 56.8093 42.9646H57.9434C57.825 43.3836 57.6291 43.7571 57.3558 44.085C57.0826 44.4129 56.741 44.6725 56.3311 44.8638C55.9303 45.0551 55.4611 45.1508 54.9237 45.1508ZM52.7375 40.9697H57.0006C56.9733 40.3593 56.7637 39.8811 56.3721 39.535C55.9804 39.1888 55.4976 39.0157 54.9237 39.0157C54.3771 39.0157 53.8898 39.1843 53.4617 39.5213C53.0426 39.8492 52.8012 40.332 52.7375 40.9697ZM61.9105 45.1508C61.4459 45.1508 61.0223 45.0734 60.6397 44.9185C60.2572 44.7636 59.952 44.5314 59.7243 44.2216C59.5057 43.9028 59.3963 43.5157 59.3963 43.0602C59.3963 42.5319 59.533 42.1129 59.8063 41.8032C60.0795 41.4843 60.4393 41.2566 60.8857 41.12C61.3412 40.9742 61.8285 40.9013 62.3477 40.9013H64.1787C64.1787 40.4277 64.0967 40.0542 63.9327 39.7809C63.7779 39.5076 63.5729 39.3118 63.3179 39.1934C63.0628 39.0749 62.7804 39.0157 62.4707 39.0157C62.0243 39.0157 61.6372 39.125 61.3093 39.3437C60.9905 39.5532 60.7901 39.8811 60.7081 40.3275H59.533C59.5785 39.8356 59.7425 39.4211 60.0249 39.0841C60.3073 38.747 60.6625 38.492 61.0907 38.3189C61.5279 38.1367 61.9879 38.0456 62.4707 38.0456C63.1539 38.0456 63.705 38.1731 64.124 38.4282C64.543 38.6741 64.8482 39.0066 65.0395 39.4256C65.2308 39.8447 65.3264 40.3092 65.3264 40.8194V42.8963C65.3264 43.2333 65.3674 43.4884 65.4494 43.6614C65.5314 43.8345 65.7409 43.9393 66.0779 43.9757V44.9868C65.7773 44.9868 65.5041 44.9504 65.2581 44.8775C65.0122 44.7955 64.8027 44.668 64.6296 44.4949C64.4656 44.3127 64.3472 44.0759 64.2743 43.7844C64.0466 44.167 63.7323 44.4904 63.3315 44.7545C62.9398 45.0187 62.4661 45.1508 61.9105 45.1508ZM62.0881 44.1807C62.5436 44.1807 62.9262 44.0668 63.2359 43.8391C63.5456 43.6022 63.7779 43.3016 63.9327 42.9372C64.0967 42.5729 64.1787 42.1948 64.1787 41.8032V41.7895H62.4434C62.1245 41.7895 61.8239 41.8259 61.5416 41.8988C61.2592 41.9626 61.0314 42.0855 60.8584 42.2677C60.6853 42.4408 60.5988 42.6867 60.5988 43.0056C60.5988 43.4155 60.7445 43.7161 61.036 43.9074C61.3275 44.0896 61.6782 44.1807 62.0881 44.1807ZM67.4619 44.9868V38.2096H68.5004L68.596 39.5076C68.8055 39.0613 69.1244 38.706 69.5525 38.4419C69.9806 38.1777 70.509 38.0456 71.1375 38.0456V39.248H70.8232C70.0763 39.248 69.5206 39.4484 69.1562 39.8492C68.7919 40.25 68.6097 40.8239 68.6097 41.5709V44.9868H67.4619ZM72.4257 44.9868V38.2096H73.4642L73.5325 39.4256C73.7511 38.9975 74.0654 38.6605 74.4753 38.4145C74.8852 38.1686 75.3498 38.0456 75.869 38.0456C76.6706 38.0456 77.3083 38.2916 77.782 38.7835C78.2647 39.2662 78.5061 40.0132 78.5061 41.0243V44.9868H77.3584V41.1473C77.3584 40.4459 77.2126 39.9175 76.9211 39.5623C76.6296 39.207 76.1924 39.0294 75.6094 39.0294C75.0264 39.0294 74.5391 39.2435 74.1474 39.6716C73.7648 40.0906 73.5735 40.6918 73.5735 41.4752V44.9868H72.4257ZM87.0035 45.1508C86.3841 45.1508 85.8148 45.0141 85.2955 44.7409C84.7763 44.4585 84.3619 44.0531 84.0521 43.5248C83.7424 42.9873 83.5876 42.3406 83.5876 41.5845C83.5876 40.8649 83.7379 40.2409 84.0385 39.7126C84.3482 39.1843 84.7627 38.7743 85.2819 38.4828C85.8102 38.1914 86.4023 38.0456 87.0582 38.0456C87.6867 38.0456 88.2606 38.1822 88.7798 38.4555C89.3081 38.7288 89.7317 39.1296 90.0505 39.6579C90.3694 40.1863 90.5288 40.8285 90.5288 41.5845C90.5288 42.2768 90.3785 42.8917 90.0779 43.4291C89.7773 43.9666 89.3583 44.3902 88.8208 44.6999C88.2925 45.0005 87.6867 45.1508 87.0035 45.1508ZM87.0035 44.1533C87.4499 44.1533 87.8507 44.0486 88.2059 43.8391C88.5612 43.6204 88.8436 43.3198 89.0531 42.9372C89.2626 42.5547 89.3674 42.1038 89.3674 41.5845C89.3674 41.0926 89.2763 40.6554 89.0941 40.2728C88.9119 39.8902 88.6477 39.5896 88.3016 39.371C87.9554 39.1524 87.5364 39.0431 87.0445 39.0431C86.5435 39.0431 86.1199 39.1569 85.7738 39.3847C85.4367 39.6124 85.1817 39.9175 85.0086 40.3001C84.8355 40.6827 84.749 41.1109 84.749 41.5845C84.749 42.1857 84.8583 42.6776 85.0769 43.0602C85.2955 43.4337 85.5779 43.7115 85.9241 43.8937C86.2702 44.0668 86.63 44.1533 87.0035 44.1533ZM92.1208 44.9868V38.2096H93.1593L93.2549 39.5076C93.4644 39.0613 93.7833 38.706 94.2114 38.4419C94.6395 38.1777 95.1679 38.0456 95.7964 38.0456V39.248H95.4821C94.7352 39.248 94.1795 39.4484 93.8151 39.8492C93.4508 40.25 93.2686 40.8239 93.2686 41.5709V44.9868H92.1208ZM103.83 45.1508C103.21 45.1508 102.641 45.0141 102.122 44.7409C101.603 44.4585 101.188 44.0531 100.878 43.5248C100.569 42.9873 100.414 42.3406 100.414 41.5845C100.414 40.8649 100.564 40.2409 100.865 39.7126C101.174 39.1843 101.589 38.7743 102.108 38.4828C102.636 38.1914 103.229 38.0456 103.884 38.0456C104.513 38.0456 105.087 38.1822 105.606 38.4555C106.134 38.7288 106.558 39.1296 106.877 39.6579C107.196 40.1863 107.355 40.8285 107.355 41.5845C107.355 42.2768 107.205 42.8917 106.904 43.4291C106.603 43.9666 106.184 44.3902 105.647 44.6999C105.119 45.0005 104.513 45.1508 103.83 45.1508ZM103.83 44.1533C104.276 44.1533 104.677 44.0486 105.032 43.8391C105.387 43.6204 105.67 43.3198 105.879 42.9372C106.089 42.5547 106.194 42.1038 106.194 41.5845C106.194 41.0926 106.102 40.6554 105.92 40.2728C105.738 39.8902 105.474 39.5896 105.128 39.371C104.782 39.1524 104.363 39.0431 103.871 39.0431C103.37 39.0431 102.946 39.1569 102.6 39.3847C102.263 39.6124 102.008 39.9175 101.835 40.3001C101.662 40.6827 101.575 41.1109 101.575 41.5845C101.575 42.1857 101.685 42.6776 101.903 43.0602C102.122 43.4337 102.404 43.7115 102.75 43.8937C103.096 44.0668 103.456 44.1533 103.83 44.1533ZM109.316 44.9868V39.1797H108.291V38.2096H109.316V37.3078C109.316 36.6519 109.48 36.1737 109.808 35.8731C110.136 35.5725 110.614 35.4222 111.243 35.4222H111.926V36.4059H111.42C111.074 36.4059 110.828 36.4788 110.682 36.6246C110.537 36.7612 110.464 36.998 110.464 37.3351V38.2096H112.131V39.1797H110.464V44.9868H109.316ZM113.866 44.9868V39.1797H112.841V38.2096H113.866V37.3078C113.866 36.6519 114.03 36.1737 114.358 35.8731C114.686 35.5725 115.164 35.4222 115.793 35.4222H116.476V36.4059H115.97C115.624 36.4059 115.378 36.4788 115.233 36.6246C115.087 36.7612 115.014 36.998 115.014 37.3351V38.2096H116.681V39.1797H115.014V44.9868H113.866ZM120.828 45.1508C120.199 45.1508 119.63 45.005 119.12 44.7135C118.619 44.422 118.222 44.0121 117.931 43.4838C117.639 42.9464 117.494 42.3178 117.494 41.5982C117.494 40.8877 117.63 40.2683 117.903 39.7399C118.186 39.2025 118.578 38.788 119.079 38.4965C119.589 38.1959 120.181 38.0456 120.855 38.0456C121.492 38.0456 122.048 38.1868 122.522 38.4692C122.995 38.7516 123.364 39.1342 123.629 39.6169C123.902 40.0906 124.038 40.6235 124.038 41.2156C124.038 41.3431 124.038 41.4433 124.038 41.5162C124.038 41.5891 124.034 41.7029 124.025 41.8578H118.628C118.655 42.3042 118.76 42.705 118.942 43.0602C119.133 43.4064 119.388 43.6796 119.707 43.88C120.035 44.0805 120.408 44.1807 120.828 44.1807C121.301 44.1807 121.697 44.0713 122.016 43.8527C122.335 43.6341 122.567 43.3381 122.713 42.9646H123.847C123.729 43.3836 123.533 43.7571 123.26 44.085C122.986 44.4129 122.645 44.6725 122.235 44.8638C121.834 45.0551 121.365 45.1508 120.828 45.1508ZM118.641 40.9697H122.904C122.877 40.3593 122.668 39.8811 122.276 39.535C121.884 39.1888 121.401 39.0157 120.828 39.0157C120.281 39.0157 119.794 39.1843 119.365 39.5213C118.946 39.8492 118.705 40.332 118.641 40.9697ZM125.56 44.9868V38.2096H126.598L126.694 39.5076C126.903 39.0613 127.222 38.706 127.65 38.4419C128.078 38.1777 128.607 38.0456 129.235 38.0456V39.248H128.921C128.174 39.248 127.618 39.4484 127.254 39.8492C126.89 40.25 126.708 40.8239 126.708 41.5709V44.9868H125.56ZM136.394 45.1508C135.93 45.1508 135.506 45.0734 135.123 44.9185C134.741 44.7636 134.436 44.5314 134.208 44.2216C133.989 43.9028 133.88 43.5157 133.88 43.0602C133.88 42.5319 134.017 42.1129 134.29 41.8032C134.563 41.4843 134.923 41.2566 135.369 41.12C135.825 40.9742 136.312 40.9013 136.831 40.9013H138.662C138.662 40.4277 138.58 40.0542 138.416 39.7809C138.262 39.5076 138.057 39.3118 137.802 39.1934C137.547 39.0749 137.264 39.0157 136.954 39.0157C136.508 39.0157 136.121 39.125 135.793 39.3437C135.474 39.5532 135.274 39.8811 135.192 40.3275H134.017C134.062 39.8356 134.226 39.4211 134.509 39.0841C134.791 38.747 135.146 38.492 135.574 38.3189C136.012 38.1367 136.472 38.0456 136.954 38.0456C137.638 38.0456 138.189 38.1731 138.608 38.4282C139.027 38.6741 139.332 39.0066 139.523 39.4256C139.715 39.8447 139.81 40.3092 139.81 40.8194V42.8963C139.81 43.2333 139.851 43.4884 139.933 43.6614C140.015 43.8345 140.225 43.9393 140.562 43.9757V44.9868C140.261 44.9868 139.988 44.9504 139.742 44.8775C139.496 44.7955 139.286 44.668 139.113 44.4949C138.949 44.3127 138.831 44.0759 138.758 43.7844C138.53 44.167 138.216 44.4904 137.815 44.7545C137.424 45.0187 136.95 45.1508 136.394 45.1508ZM136.572 44.1807C137.027 44.1807 137.41 44.0668 137.72 43.8391C138.029 43.6022 138.262 43.3016 138.416 42.9372C138.58 42.5729 138.662 42.1948 138.662 41.8032V41.7895H136.927C136.608 41.7895 136.308 41.8259 136.025 41.8988C135.743 41.9626 135.515 42.0855 135.342 42.2677C135.169 42.4408 135.082 42.6867 135.082 43.0056C135.082 43.4155 135.228 43.7161 135.52 43.9074C135.811 44.0896 136.162 44.1807 136.572 44.1807ZM145.562 44.9868V38.2096H146.6L146.682 39.1934C146.901 38.829 147.192 38.5466 147.557 38.3462C147.921 38.1458 148.331 38.0456 148.786 38.0456C149.324 38.0456 149.784 38.1549 150.166 38.3735C150.558 38.5922 150.859 38.9246 151.068 39.371C151.305 38.9611 151.628 38.6377 152.038 38.4009C152.457 38.164 152.908 38.0456 153.391 38.0456C153.938 38.0456 154.407 38.1549 154.798 38.3735C155.199 38.583 155.509 38.911 155.728 39.3573C155.946 39.7946 156.056 40.3502 156.056 41.0243V44.9868H154.921V41.1473C154.921 40.4459 154.78 39.9175 154.498 39.5623C154.216 39.207 153.81 39.0294 153.282 39.0294C152.735 39.0294 152.28 39.2435 151.915 39.6716C151.56 40.0906 151.383 40.6918 151.383 41.4752V44.9868H150.235V41.1473C150.235 40.4459 150.094 39.9175 149.811 39.5623C149.529 39.207 149.123 39.0294 148.595 39.0294C148.058 39.0294 147.607 39.2435 147.242 39.6716C146.887 40.0906 146.71 40.6918 146.71 41.4752V44.9868H145.562ZM158.481 36.7066C158.254 36.7066 158.062 36.6337 157.907 36.4879C157.762 36.3331 157.689 36.1418 157.689 35.9141C157.689 35.6954 157.762 35.5132 157.907 35.3675C158.062 35.2218 158.254 35.1489 158.481 35.1489C158.7 35.1489 158.887 35.2218 159.042 35.3675C159.196 35.5132 159.274 35.6954 159.274 35.9141C159.274 36.1418 159.196 36.3331 159.042 36.4879C158.887 36.6337 158.7 36.7066 158.481 36.7066ZM157.907 44.9868V38.2096H159.055V44.9868H157.907ZM164.169 45.1508C163.531 45.1508 162.953 45.005 162.434 44.7135C161.924 44.422 161.518 44.0121 161.218 43.4838C160.917 42.9464 160.767 42.3178 160.767 41.5982C160.767 40.8968 160.912 40.2819 161.204 39.7536C161.495 39.2161 161.896 38.7971 162.406 38.4965C162.916 38.1959 163.504 38.0456 164.169 38.0456C164.971 38.0456 165.645 38.2551 166.191 38.6741C166.747 39.0932 167.098 39.6534 167.243 40.3548H166.068C165.977 39.9358 165.754 39.6124 165.399 39.3847C165.043 39.1478 164.629 39.0294 164.155 39.0294C163.673 39.0294 163.267 39.1478 162.939 39.3847C162.611 39.6215 162.361 39.9358 162.188 40.3275C162.024 40.7192 161.942 41.1427 161.942 41.5982C161.942 42.0992 162.037 42.5456 162.229 42.9372C162.42 43.3289 162.68 43.6341 163.008 43.8527C163.345 44.0713 163.727 44.1807 164.155 44.1807C164.629 44.1807 165.043 44.0668 165.399 43.8391C165.754 43.6022 165.977 43.2697 166.068 42.8416H167.243C167.152 43.2971 166.965 43.6979 166.683 44.044C166.401 44.3902 166.045 44.6634 165.617 44.8638C165.189 45.0551 164.706 45.1508 164.169 45.1508ZM168.846 44.9868V38.2096H169.885L169.98 39.5076C170.19 39.0613 170.509 38.706 170.937 38.4419C171.365 38.1777 171.893 38.0456 172.522 38.0456V39.248H172.208C171.461 39.248 170.905 39.4484 170.541 39.8492C170.176 40.25 169.994 40.8239 169.994 41.5709V44.9868H168.846ZM176.686 45.1508C176.066 45.1508 175.497 45.0141 174.978 44.7409C174.458 44.4585 174.044 44.0531 173.734 43.5248C173.424 42.9873 173.27 42.3406 173.27 41.5845C173.27 40.8649 173.42 40.2409 173.721 39.7126C174.03 39.1843 174.445 38.7743 174.964 38.4828C175.492 38.1914 176.084 38.0456 176.74 38.0456C177.369 38.0456 177.943 38.1822 178.462 38.4555C178.99 38.7288 179.414 39.1296 179.733 39.6579C180.051 40.1863 180.211 40.8285 180.211 41.5845C180.211 42.2768 180.061 42.8917 179.76 43.4291C179.459 43.9666 179.04 44.3902 178.503 44.6999C177.975 45.0005 177.369 45.1508 176.686 45.1508ZM176.686 44.1533C177.132 44.1533 177.533 44.0486 177.888 43.8391C178.243 43.6204 178.526 43.3198 178.735 42.9372C178.945 42.5547 179.049 42.1038 179.049 41.5845C179.049 41.0926 178.958 40.6554 178.776 40.2728C178.594 39.8902 178.33 39.5896 177.984 39.371C177.637 39.1524 177.218 39.0431 176.727 39.0431C176.226 39.0431 175.802 39.1569 175.456 39.3847C175.119 39.6124 174.864 39.9175 174.691 40.3001C174.518 40.6827 174.431 41.1109 174.431 41.5845C174.431 42.1857 174.54 42.6776 174.759 43.0602C174.978 43.4337 175.26 43.7115 175.606 43.8937C175.952 44.0668 176.312 44.1533 176.686 44.1533ZM184.094 47.9929V47.0091H184.626C184.964 47.0091 185.205 46.9362 185.351 46.7904C185.506 46.6538 185.583 46.417 185.583 46.0799V38.2096H186.731V46.1072C186.731 46.5445 186.658 46.8997 186.512 47.173C186.366 47.4554 186.148 47.6604 185.856 47.7879C185.574 47.9245 185.223 47.9929 184.804 47.9929H184.094ZM186.17 36.7066C185.952 36.7066 185.765 36.6337 185.61 36.4879C185.455 36.3331 185.378 36.1418 185.378 35.9141C185.378 35.6954 185.455 35.5132 185.61 35.3675C185.765 35.2218 185.952 35.1489 186.17 35.1489C186.389 35.1489 186.571 35.2218 186.717 35.3675C186.872 35.5132 186.949 35.6954 186.949 35.9141C186.949 36.1418 186.872 36.3331 186.717 36.4879C186.571 36.6337 186.389 36.7066 186.17 36.7066ZM191.857 45.1508C191.238 45.1508 190.668 45.0141 190.149 44.7409C189.63 44.4585 189.216 44.0531 188.906 43.5248C188.596 42.9873 188.441 42.3406 188.441 41.5845C188.441 40.8649 188.592 40.2409 188.892 39.7126C189.202 39.1843 189.616 38.7743 190.136 38.4828C190.664 38.1914 191.256 38.0456 191.912 38.0456C192.54 38.0456 193.114 38.1822 193.633 38.4555C194.162 38.7288 194.585 39.1296 194.904 39.6579C195.223 40.1863 195.382 40.8285 195.382 41.5845C195.382 42.2768 195.232 42.8917 194.932 43.4291C194.631 43.9666 194.212 44.3902 193.674 44.6999C193.146 45.0005 192.54 45.1508 191.857 45.1508ZM191.857 44.1533C192.304 44.1533 192.704 44.0486 193.06 43.8391C193.415 43.6204 193.697 43.3198 193.907 42.9372C194.116 42.5547 194.221 42.1038 194.221 41.5845C194.221 41.0926 194.13 40.6554 193.948 40.2728C193.766 39.8902 193.501 39.5896 193.155 39.371C192.809 39.1524 192.39 39.0431 191.898 39.0431C191.397 39.0431 190.974 39.1569 190.627 39.3847C190.29 39.6124 190.035 39.9175 189.862 40.3001C189.689 40.6827 189.603 41.1109 189.603 41.5845C189.603 42.1857 189.712 42.6776 189.931 43.0602C190.149 43.4337 190.432 43.7115 190.778 43.8937C191.124 44.0668 191.484 44.1533 191.857 44.1533ZM200.595 45.1508C200.04 45.1508 199.543 45.0369 199.106 44.8092C198.678 44.5815 198.35 44.2626 198.122 43.8527L198.013 44.9868H196.974V35.4222H198.122V39.33C198.341 39.0021 198.651 38.706 199.051 38.4419C199.461 38.1777 199.981 38.0456 200.609 38.0456C201.292 38.0456 201.884 38.2005 202.385 38.5102C202.886 38.8199 203.273 39.2435 203.547 39.7809C203.82 40.3184 203.957 40.9287 203.957 41.6119C203.957 42.2859 203.82 42.8917 203.547 43.4291C203.273 43.9666 202.882 44.3902 202.372 44.6999C201.871 45.0005 201.279 45.1508 200.595 45.1508ZM200.472 44.1533C200.937 44.1533 201.342 44.0486 201.688 43.8391C202.035 43.6204 202.303 43.3198 202.495 42.9372C202.695 42.5456 202.795 42.0992 202.795 41.5982C202.795 41.1154 202.7 40.6827 202.508 40.3001C202.326 39.9084 202.062 39.6033 201.716 39.3847C201.37 39.1569 200.955 39.0431 200.472 39.0431C200.017 39.0431 199.612 39.1524 199.256 39.371C198.91 39.5805 198.637 39.8766 198.437 40.2591C198.245 40.6417 198.15 41.0881 198.15 41.5982C198.15 42.0719 198.245 42.5046 198.437 42.8963C198.628 43.2788 198.897 43.584 199.243 43.8117C199.589 44.0395 199.999 44.1533 200.472 44.1533Z" fill="white"/>
</svg>
