<svg width="204" height="53" viewBox="0 0 204 53" fill="none" xmlns="http://www.w3.org/2000/svg">
<path d="M17.3815 30.4097H0.751465V47.0396H17.3815V30.4097Z" fill="white"/>
<path d="M39.0317 10.0198V47.0396H22.4017V26.6497H0.761719V10.0198H39.0317Z" fill="white"/>
<path d="M56.9504 40V11.3246H67.5602C69.5539 11.3246 71.3017 11.666 72.8037 12.3488C74.3331 13.0042 75.5347 13.9737 76.4086 15.2573C77.2826 16.5408 77.7195 18.0975 77.7195 19.9272C77.7195 21.757 77.2826 23.3273 76.4086 24.6382C75.5347 25.9218 74.3331 26.9049 72.8037 27.5877C71.3017 28.2431 69.5539 28.5708 67.5602 28.5708H62.1939V40H56.9504ZM62.1939 24.1057H67.4374C69.2671 24.1057 70.5507 23.7233 71.288 22.9586C72.0254 22.1667 72.3941 21.1562 72.3941 19.9272C72.3941 18.7256 72.0254 17.7425 71.288 16.9778C70.5507 16.1858 69.2671 15.7898 67.4374 15.7898H62.1939V24.1057ZM80.2949 40V19.6815H85.4974V22.7129C86.2074 21.5658 87.1087 20.6919 88.2011 20.0911C89.2935 19.4903 90.5087 19.1899 91.8469 19.1899V24.6792H90.4541C88.7882 24.6792 87.5456 25.0752 86.7263 25.8671C85.907 26.6591 85.4974 27.9837 85.4974 29.8407V40H80.2949ZM103.605 40.4916C101.475 40.4916 99.6315 40.0273 98.0749 39.0988C96.5455 38.1702 95.3575 36.9003 94.5109 35.289C93.6643 33.6778 93.241 31.8617 93.241 29.8407C93.241 27.6832 93.678 25.8125 94.5519 24.2286C95.4258 22.6446 96.6411 21.4156 98.1978 20.5417C99.7544 19.6405 101.557 19.1899 103.605 19.1899C105.626 19.1899 107.388 19.6268 108.89 20.5008C110.419 21.3747 111.607 22.5763 112.454 24.1057C113.327 25.635 113.764 27.3965 113.764 29.3901C113.764 29.7451 113.751 30.1002 113.723 30.4552C113.696 30.7829 113.655 31.097 113.601 31.3974H98.5255C98.6074 32.3532 98.8532 33.1998 99.2628 33.9372C99.6998 34.6473 100.273 35.2071 100.983 35.6168C101.721 35.9991 102.554 36.1903 103.482 36.1903C104.438 36.1903 105.257 35.9854 105.94 35.5758C106.65 35.1662 107.21 34.538 107.62 33.6914H113.232C112.85 34.8931 112.235 36.0128 111.388 37.0505C110.542 38.0883 109.463 38.9213 108.152 39.5494C106.869 40.1775 105.353 40.4916 103.605 40.4916ZM98.5664 27.9154H108.357C108.33 26.5499 107.824 25.4711 106.841 24.6792C105.885 23.8872 104.752 23.4912 103.441 23.4912C102.322 23.4912 101.284 23.8462 100.328 24.5563C99.3721 25.239 98.7849 26.3587 98.5664 27.9154ZM116.539 40V19.6815H121.742V22.0165C122.424 21.0606 123.298 20.3505 124.363 19.8863C125.428 19.422 126.548 19.1899 127.722 19.1899C129.252 19.1899 130.672 19.5176 131.983 20.173C133.321 20.8012 134.359 21.798 135.096 23.1635C135.779 21.9072 136.721 20.9377 137.923 20.255C139.152 19.5449 140.49 19.1899 141.937 19.1899C143.494 19.1899 144.9 19.5176 146.157 20.173C147.44 20.8012 148.451 21.7707 149.188 23.0815C149.925 24.3924 150.294 26.031 150.294 27.9973V40H145.092V28.7347C145.092 27.2053 144.723 25.99 143.986 25.0888C143.248 24.1876 142.115 23.737 140.585 23.737C139.083 23.737 137.95 24.1876 137.185 25.0888C136.421 25.99 136.038 27.2053 136.038 28.7347V40H130.836V28.7347C130.836 27.178 130.44 25.9627 129.648 25.0888C128.883 24.1876 127.777 23.737 126.33 23.737C125.101 23.737 124.022 24.133 123.093 24.925C122.192 25.6896 121.742 26.9595 121.742 28.7347V40H116.539ZM156.49 17.0597C155.561 17.0597 154.756 16.732 154.073 16.0766C153.418 15.3938 153.09 14.5882 153.09 13.6596C153.09 12.7038 153.418 11.8981 154.073 11.2427C154.756 10.5873 155.561 10.2596 156.49 10.2596C157.446 10.2596 158.252 10.5873 158.907 11.2427C159.562 11.8981 159.89 12.7038 159.89 13.6596C159.89 14.5882 159.562 15.3938 158.907 16.0766C158.252 16.732 157.446 17.0597 156.49 17.0597ZM153.868 40V19.6815H159.112V40H153.868ZM171.26 40.4916C169.731 40.4916 168.297 40.2185 166.959 39.6723C165.621 39.0988 164.515 38.2931 163.641 37.2554C162.794 36.2176 162.33 35.0023 162.248 33.6095H167.492C167.628 34.4834 168.051 35.1662 168.762 35.6577C169.499 36.1493 170.318 36.3951 171.219 36.3951C171.984 36.3951 172.694 36.2312 173.35 35.9035C174.032 35.5485 174.374 35.0023 174.374 34.2649C174.374 33.6914 174.128 33.2408 173.636 32.9131C173.145 32.5854 172.571 32.3259 171.916 32.1348C171.26 31.9436 170.66 31.7797 170.113 31.6432C168.748 31.3155 167.505 30.9331 166.386 30.4962C165.266 30.0319 164.378 29.4038 163.723 28.6118C163.067 27.7925 162.74 26.7137 162.74 25.3756C162.74 24.0647 163.108 22.945 163.846 22.0165C164.61 21.0879 165.607 20.3915 166.836 19.9272C168.092 19.4357 169.444 19.1899 170.892 19.1899C173.158 19.1899 175.07 19.7634 176.627 20.9104C178.183 22.0574 179.03 23.7506 179.167 25.99H174.21C174.128 25.1161 173.759 24.4607 173.104 24.0237C172.476 23.5595 171.684 23.3273 170.728 23.3273C169.963 23.3273 169.28 23.4639 168.68 23.737C168.079 24.0101 167.778 24.529 167.778 25.2936C167.778 25.8398 168.024 26.2904 168.516 26.6455C169.007 26.9732 169.594 27.2463 170.277 27.4648C170.96 27.6559 171.561 27.8198 172.08 27.9563C173.5 28.3114 174.742 28.721 175.807 29.1853C176.9 29.6496 177.76 30.2777 178.388 31.0697C179.016 31.8617 179.344 32.9267 179.371 34.2649C179.371 35.6031 178.989 36.7365 178.224 37.665C177.487 38.5935 176.504 39.3036 175.275 39.7952C174.046 40.2594 172.708 40.4916 171.26 40.4916ZM192.055 40.4916C189.925 40.4916 188.082 40.0273 186.525 39.0988C184.996 38.1702 183.808 36.9003 182.961 35.289C182.115 33.6778 181.691 31.8617 181.691 29.8407C181.691 27.6832 182.128 25.8125 183.002 24.2286C183.876 22.6446 185.091 21.4156 186.648 20.5417C188.205 19.6405 190.007 19.1899 192.055 19.1899C194.076 19.1899 195.838 19.6268 197.34 20.5008C198.869 21.3747 200.057 22.5763 200.904 24.1057C201.778 25.635 202.215 27.3965 202.215 29.3901C202.215 29.7451 202.201 30.1002 202.174 30.4552C202.146 30.7829 202.106 31.097 202.051 31.3974H186.976C187.058 32.3532 187.304 33.1998 187.713 33.9372C188.15 34.6473 188.724 35.2071 189.434 35.6168C190.171 35.9991 191.004 36.1903 191.933 36.1903C192.888 36.1903 193.708 35.9854 194.39 35.5758C195.101 35.1662 195.66 34.538 196.07 33.6914H201.682C201.3 34.8931 200.685 36.0128 199.839 37.0505C198.992 38.0883 197.913 38.9213 196.603 39.5494C195.319 40.1775 193.803 40.4916 192.055 40.4916ZM187.017 27.9154H196.807C196.78 26.5499 196.275 25.4711 195.292 24.6792C194.336 23.8872 193.202 23.4912 191.892 23.4912C190.772 23.4912 189.734 23.8462 188.778 24.5563C187.822 25.239 187.235 26.3587 187.017 27.9154Z" fill="white"/>
</svg>
