<svg width="94" height="56" viewBox="0 0 94 56" fill="none" xmlns="http://www.w3.org/2000/svg">
<path d="M26.6502 46.29C26.3402 46.29 26.0402 46.2 25.7902 46.03L0.650229 27.96C0.250229 27.67 0.0103269 27.21 0.000326858 26.72C-0.00967314 26.23 0.210293 25.76 0.590293 25.46L25.5103 7.28003C25.7803 7.08003 26.1003 6.97998 26.4303 6.97998C26.6703 6.97998 26.9103 7.04001 27.1203 7.14001C27.6403 7.40001 27.9703 7.92 27.9903 8.5V15.58H39.1803C40.4703 15.58 40.8902 16.2301 41.0302 16.7001C39.5702 17.5801 38.8403 18.1601 38.4903 18.5601L25.0503 18.55L25.0103 16.98V11.3101L3.95028 26.67L25.2303 41.96V34.6801L26.8003 34.64H40.8103V37.61H28.2103V44.71C28.2103 45.29 27.9002 45.81 27.3902 46.08C27.1602 46.22 26.9102 46.29 26.6502 46.29Z" fill="white"/>
<path d="M65.7113 55.4501C63.3913 55.4501 60.9714 55.12 58.5214 54.47C43.7914 50.49 35.0214 35.27 38.9814 20.55C40.8714 13.41 45.4614 7.43998 51.8914 3.72998C56.1214 1.28998 60.9214 0 65.7514 0C68.1514 0 70.5614 0.320063 72.9114 0.940063C80.0514 2.83006 86.0214 7.40998 89.7314 13.85C93.4214 20.26 94.4114 27.72 92.5214 34.86C90.6314 42 86.0514 47.9701 79.6114 51.6801C75.2914 54.1501 70.4813 55.4501 65.7113 55.4501ZM65.5715 3.33997C61.3615 3.33997 57.1414 4.46999 53.3814 6.60999C47.7614 9.85999 43.7214 15.12 42.0014 21.41C40.3114 27.71 41.1714 34.2901 44.4414 39.9301C47.7014 45.5801 52.9614 49.6201 59.2614 51.3101C61.3514 51.8701 63.4814 52.16 65.6114 52.16C69.8414 52.16 74.0414 51.02 77.7814 48.85C83.3914 45.6 87.4414 40.35 89.1614 34.05C90.8614 27.77 89.9913 21.19 86.7113 15.52C83.4613 9.91002 78.2114 5.86001 71.9114 4.14001C69.7914 3.62001 67.6715 3.33997 65.5715 3.33997Z" fill="white"/>
<path d="M69.2314 16.9301C69.0714 16.9301 68.9314 16.93 68.8414 16.9C67.9414 16.65 67.4115 15.73 67.6515 14.88L68.8714 10.42C69.0614 9.72004 69.7314 9.20996 70.4614 9.20996C70.6014 9.20996 70.7415 9.23002 70.8815 9.27002C71.7415 9.51002 72.2715 10.43 72.0315 11.28L70.8115 15.74C70.6315 16.43 69.9714 16.9301 69.2314 16.9301Z" fill="white"/>
<path d="M60.8315 46.3202C60.6715 46.3202 60.5316 46.3202 60.4416 46.2902C59.5416 46.0402 59.0116 45.1201 59.2516 44.2701L60.4715 39.8102C60.6615 39.1102 61.3316 38.6001 62.0616 38.6001C62.2016 38.6001 62.3415 38.6202 62.4815 38.6602C63.3415 38.9002 63.8716 39.8202 63.6316 40.6702L62.4116 45.1301C62.2216 45.8201 61.5615 46.3202 60.8315 46.3202Z" fill="white"/>
<path d="M63.7715 42.0101C62.6715 42.0101 61.6515 41.8502 60.8115 41.5502C57.4515 40.4502 54.4415 37.2902 56.0115 31.6902C56.2115 30.9902 56.8714 30.4801 57.6014 30.4801C57.7414 30.4801 57.8815 30.5002 58.0215 30.5402C58.4415 30.6602 58.7915 30.9302 59.0115 31.3202C59.2315 31.7002 59.2915 32.1402 59.1715 32.5502C58.0415 36.5002 60.3215 37.9302 61.7815 38.4402C62.4315 38.6502 63.1015 38.7501 63.8015 38.7501C65.9415 38.7501 67.7415 37.7901 68.2815 36.3701L68.3314 36.2301V36.1602C69.5014 32.8902 65.9815 29.8901 64.4015 28.7301C59.3615 25.2301 57.9315 21.7601 60.0315 18.0901C62.3115 14.0401 65.6814 13.4302 67.4914 13.4302C68.6414 13.4302 69.8114 13.6701 70.8514 14.1201C74.7414 15.8301 76.5215 19.8001 75.2715 23.9801C75.0415 24.6601 74.3915 25.1401 73.6415 25.1401C73.4915 25.1401 73.3315 25.1201 73.1815 25.0801C72.3515 24.8001 71.8514 23.8801 72.1014 23.0001C73.0414 19.9101 71.2814 17.9101 69.4814 17.1401C68.8914 16.8701 68.2115 16.7201 67.5315 16.7201C66.4215 16.7201 64.3414 17.1202 62.8414 19.7902C62.0314 21.2702 61.8914 23.0401 66.2414 26.1101C68.0214 27.3601 73.6314 31.8802 71.3414 37.5702C70.0614 40.8502 66.4615 42.0101 63.7715 42.0101Z" fill="white"/>
</svg>
