<svg width="92" height="56" viewBox="0 0 92 56" fill="none" xmlns="http://www.w3.org/2000/svg">
<path d="M65.2911 46.29C65.6011 46.29 65.9011 46.2 66.1511 46.03L91.2911 27.96C91.6911 27.67 91.9311 27.21 91.9411 26.72C91.9511 26.23 91.7311 25.76 91.3511 25.46L66.4311 7.28003C66.1611 7.08003 65.8411 6.97998 65.5111 6.97998C65.2711 6.97998 65.0311 7.04001 64.8211 7.14001C64.3011 7.40001 63.9711 7.92 63.9511 8.5V15.58H52.7611C51.4711 15.58 51.0511 16.2301 50.9111 16.7001C52.3711 17.5801 51.2511 18.1601 51.5911 18.5601L66.8811 18.55L66.9211 16.98V11.3101L87.9711 26.67L66.6911 41.96V34.6801L65.1211 34.64H51.1111V37.61H63.7111V44.71C63.7111 45.29 64.0211 45.81 64.5311 46.08C64.7811 46.22 65.0311 46.29 65.2911 46.29Z" fill="#B81EBE"/>
<path d="M27.6811 55.4501C25.3611 55.4501 22.9411 55.12 20.4911 54.47C5.76109 50.49 -3.0089 35.27 0.951096 20.55C2.8411 13.41 7.4311 7.43998 13.8611 3.72998C18.0911 1.28998 22.8911 0 27.7211 0C30.1211 0 32.5311 0.320063 34.8811 0.940063C42.0211 2.83006 47.9911 7.40998 51.7011 13.85C55.3911 20.26 56.3811 27.72 54.4911 34.86C52.6011 42 48.0211 47.9701 41.5811 51.6801C37.2611 54.1501 32.4511 55.4501 27.6811 55.4501ZM27.5411 3.33997C23.3311 3.33997 19.1111 4.46999 15.3511 6.60999C9.73109 9.85999 5.6911 15.12 3.9711 21.41C2.2811 27.71 3.1411 34.2901 6.4111 39.9301C9.6711 45.5801 14.9311 49.6201 21.2311 51.3101C23.3211 51.8701 25.4511 52.16 27.5811 52.16C31.8111 52.16 36.0111 51.02 39.7511 48.85C45.3611 45.6 49.4111 40.35 51.1311 34.05C52.8311 27.77 51.9611 21.19 48.6811 15.52C45.4311 9.91002 40.1811 5.86001 33.8811 4.14001C31.7611 3.62001 29.6411 3.33997 27.5411 3.33997Z" fill="#B81EBE"/>
<path d="M31.211 16.9301C31.051 16.9301 30.911 16.93 30.821 16.9C29.921 16.65 29.391 15.73 29.631 14.88L30.851 10.42C31.041 9.72004 31.711 9.20996 32.441 9.20996C32.581 9.20996 32.721 9.23002 32.861 9.27002C33.721 9.51002 34.251 10.43 34.011 11.28L32.791 15.74C32.601 16.43 31.941 16.9301 31.211 16.9301Z" fill="#B81EBE"/>
<path d="M22.8013 46.3202C22.6413 46.3202 22.5013 46.3202 22.4113 46.2902C21.5113 46.0402 20.9813 45.1201 21.2213 44.2701L22.4413 39.8102C22.6313 39.1102 23.3013 38.6001 24.0313 38.6001C24.1713 38.6001 24.3113 38.6202 24.4513 38.6602C25.3113 38.9002 25.8413 39.8202 25.6013 40.6702L24.3813 45.1301C24.1913 45.8201 23.5313 46.3202 22.8013 46.3202Z" fill="#B81EBE"/>
<path d="M25.7412 42.0101C24.6412 42.0101 23.6212 41.8502 22.7812 41.5502C19.4212 40.4502 16.4112 37.2902 17.9812 31.6902C18.1812 30.9902 18.8412 30.4801 19.5712 30.4801C19.7112 30.4801 19.8512 30.5002 19.9912 30.5402C20.4112 30.6602 20.7612 30.9302 20.9812 31.3202C21.2012 31.7002 21.2612 32.1402 21.1412 32.5502C20.0112 36.5002 22.2912 37.9302 23.7512 38.4402C24.4012 38.6502 25.0712 38.7501 25.7712 38.7501C27.9112 38.7501 29.7112 37.7901 30.2512 36.3701L30.3012 36.2301V36.1602C31.4712 32.8902 27.9512 29.8901 26.3712 28.7301C21.3312 25.2301 19.9012 21.7601 22.0012 18.0901C24.2812 14.0401 27.6512 13.4302 29.4612 13.4302C30.6112 13.4302 31.7812 13.6701 32.8212 14.1201C36.7112 15.8301 38.4912 19.8001 37.2412 23.9801C37.0112 24.6601 36.3612 25.1401 35.6112 25.1401C35.4612 25.1401 35.3012 25.1201 35.1512 25.0801C34.3212 24.8001 33.8212 23.8801 34.0712 23.0001C35.0112 19.9101 33.2512 17.9101 31.4512 17.1401C30.8612 16.8701 30.1812 16.7201 29.5012 16.7201C28.3912 16.7201 26.3112 17.1202 24.8112 19.7902C24.0012 21.2702 23.8612 23.0401 28.2112 26.1101C29.9912 27.3601 35.6012 31.8802 33.3112 37.5702C32.0312 40.8502 28.4312 42.0101 25.7412 42.0101Z" fill="#B81EBE"/>
</svg>
