<svg width="765" height="691" viewBox="0 0 765 691" fill="none" xmlns="http://www.w3.org/2000/svg">
<path d="M343.8 426.1C346.8 427.7 358.4 419.7 360.4 420.9C362.9 422.4 362.7 426.1 363 429.1C363.6 436.6 354.6 447.6 347 438.7C345.8 436.6 346.8 426.7 343.8 426.1Z" fill="#B2B2B2" stroke="#2A2A2A" stroke-width="0.75" stroke-miterlimit="10" stroke-linecap="round" stroke-linejoin="round"/>
<path d="M678.399 534.9C681.399 539.5 693.2 540.5 699.5 538.9C693.8 534.8 685.199 536.5 678.399 534.9Z" fill="#686868" stroke="#2A2A2A" stroke-width="0.75" stroke-miterlimit="10" stroke-linecap="round" stroke-linejoin="round"/>
<path d="M712.1 654.3C712 654.8 711.9 655.3 711.8 655.8C752.2 655.7 723.4 614.7 712.1 654.3Z" fill="#686868" stroke="#2A2A2A" stroke-width="0.75" stroke-miterlimit="10" stroke-linecap="round" stroke-linejoin="round"/>
<path d="M612.3 524.3C612.5 523.7 612.6 523.2 612.5 522.7C612.3 521.8 612.7 520.8 613.5 520.5C644 507.7 626 514 654.4 521C655.5 521.3 656.3 522.3 656 523.3C655.7 524.8 657 526.5 657.9 528C658.1 528.4 658.2 528.8 658.2 529.3C657.6 536.8 655.5 544.5 658.5 551.8C659.2 553.5 661.5 553.5 662.3 551.9C663.4 549.8 665.1 551.5 664.9 556.5C664.9 556.8 664.9 557.1 665 557.4C665.8 559.5 667.2 561.1 668 563.3C668.1 563.7 668.4 564 668.7 564.3C679.6 572.7 693.6 545.8 694.2 545.8C698 545.8 705.5 545.2 704.1 540.8C703.9 540.2 704 539.5 704.4 539C715.9 523.4 733.8 547.1 747.4 548.4C747.5 548.4 747.7 548.4 747.8 548.4C770.3 546.8 762.5 567.8 763.1 583.6C763.4 611 764.1 636 764.5 663.2C764.5 665 762.3 666 761 664.8C756.8 660.8 750.4 654.5 749 651.3C748.6 650.3 747.5 649.9 746.4 650.2C743.4 651.2 739.1 652.4 737.5 651C736.8 650.4 735.7 650.2 735 650.9C734.9 651 734.8 651.1 734.6 651.2C733 652.5 730.6 650.8 731.4 648.8C732.6 645.7 735.7 641.6 733.1 639.9C730.1 637 729.2 635.8 729.4 635.2C729.8 634.2 729.8 633.2 729 632.6C725.5 630 731.4 628 729.3 626.7C728.8 626.4 717.6 607.9 717.6 605.3C717.6 604.4 710.4 597.3 708.6 597.4C701 593.6 692 590.7 684 586.9C683.7 586.7 683.3 586.7 682.9 586.7C678.1 587.2 665.2 582.7 664.7 579.4C664.5 578.3 663.7 577.2 662.6 577.2C662.2 577.2 661.7 577.1 661.2 576.8C660.5 576.4 659.8 576.5 659.1 576.8C657.9 577.4 655.6 575.7 657.1 574.1C653.9 574.1 652.6 574.2 651.6 570.3C650.4 574.3 648.6 568.4 649.5 566.8C649.2 563.6 652.3 561.9 652.4 558.7C648.1 561 649.9 565.5 647.6 567.1C647 567.5 646.6 568.1 646.7 568.8C647.3 575 636.9 586.2 634.4 573.6C634.3 572.9 634.5 572.1 635.1 571.6C637.8 569.3 637.1 570.3 636.1 567C635.9 566.3 635.4 565.7 634.7 565.6C632.3 565.1 629.5 558.8 626.4 558.6C620.9 558.4 623.8 554.6 627.8 554.2C631.9 553.8 634.9 557.9 637.7 553.1C639.8 549.5 650.7 552.4 651.3 553.6C651.6 553 651.7 552.3 651.7 551.7C651.7 550.8 652.2 549.8 653.1 549.6C653.3 549.5 653.5 549.5 653.8 549.4C652.9 548.4 653 547.4 653.9 546.5C652.8 547.3 652.4 547.4 652.3 547C652.1 545.8 651.2 544.9 650 545.1C641.1 547 622.3 548.6 625.1 542.1C621.7 542.2 622.4 538.8 623.4 536.8C623.1 535.1 620.4 537.9 622.2 534.7C620.7 535 620.3 535 620.4 533.4C618.9 535.5 616.5 533.6 614.5 532.3C613.7 531.8 612.8 532 612.1 532.6C610.8 534 604.4 532.2 612.3 524.3Z" fill="#686868" stroke="#2A2A2A" stroke-width="0.75" stroke-miterlimit="10" stroke-linecap="round" stroke-linejoin="round"/>
<path d="M65.1994 464.5C71.2994 466.2 64.3994 459 61.7994 459.5C62.4994 455.2 52.8994 453.8 57.0994 459C59.4994 461.2 63.8994 461.2 65.1994 464.5Z" fill="#686868" stroke="#2A2A2A" stroke-width="0.75" stroke-miterlimit="10" stroke-linecap="round" stroke-linejoin="round"/>
<path d="M425.7 598.2C425.3 600 426 601.7 426.3 603.5C426.5 604.4 427.1 605.1 427.9 605.4C429.4 606 430.8 608.3 432.7 606.8C433.8 605.9 436.7 605 439.1 604.7C440.6 604.5 441.6 603.2 441.3 601.7C439.1 592.2 442.1 582.1 441.4 572C441.6 563 436 553.6 449.1 553.5C450 553.5 450.8 553.9 451.3 554.6C456.7 563 441 569.7 459.7 578.2C461.7 579.2 457.5 586.3 459.1 589.5C459.2 589.7 459.4 589.9 459.6 590.1C462.8 592.8 469.2 594.3 467.7 587.9C467.9 582.7 481.7 587.1 477.6 583.1C480 586.9 482.6 579.2 478.7 578.1C478.2 581.7 477 576.7 475.1 576.8C475.5 576.3 470.9 570 470.4 566.3C471.1 566.5 471.3 564.8 471.9 564C472.5 563.2 472.6 562.3 472.2 561.4C471.1 559.2 470.9 556.7 468.5 555.3C468.1 555 467.8 554.7 467.6 554.3C465.8 549.6 462.5 543.3 457.8 541.9C457.3 541.7 456.9 541.2 457 540.6C457 539.6 458.1 539.1 458.9 539.6C463.1 542.1 466.2 535 471.1 533.8C471.4 533.7 471.7 533.6 471.9 533.5C475.5 531.1 478.2 523.6 482.5 521.9C483.5 521.5 484.5 521.9 485.2 522.7C488.6 526.5 491.2 522 489.8 518.9C488.8 516.6 481.1 519.1 481.9 520C479 520.1 470.6 518.1 469.6 521.8C469.1 523.7 464.5 524.1 462.6 522.6C461.6 521.8 460.1 521.9 459.2 522.8C454.7 527.7 450.9 536.6 445.4 528.4C445.2 528.1 445.1 527.7 445 527.3C444.7 524.8 443.4 523.3 441.2 522.9C440.7 522.8 440.1 522.6 439.8 522.2C431.7 513.3 438.2 491.1 452.2 498.7C452.6 498.9 453.1 499.1 453.5 499C457.6 498.8 460.9 496.1 464.9 498.4C465.3 498.6 465.8 498.8 466.2 498.8C472.7 498.6 480.5 495.7 486.2 500.3C501 507.2 510.4 492.3 516.9 481.4C517.4 480.6 517.2 479.7 516.7 478.9C516.6 478.8 516.5 478.6 516.5 478.5C515.7 476.7 513.1 476.6 511.9 478.2C511.1 479.2 510.5 480.5 509.2 481.3C505.3 483.2 509.4 484.2 503.2 487.3C501.6 494.9 462.4 489.7 457.6 484.7C457.4 484.5 457.2 484.3 457 484.2C444.8 478.7 449.3 495.2 442.1 491.1C440.9 490.4 439.3 490.9 438.7 492.1C437.5 494.4 435.8 496.5 434.7 498.7C433.1 500 433.4 501.8 433.6 503.6C433.8 505.2 432.5 506.8 430.9 506.5C430.6 506.5 430.4 506.5 430 506.5C430.8 509.6 433.2 508.9 432.3 512.5C431.4 515.8 434.4 518.8 433.5 522.1C432.5 520.3 430 520.3 429.1 522.1C424.9 530 426.2 538.9 422.4 547.3C422.2 551.4 415.5 553.3 416.5 556.7C418.3 559.4 415.9 562.6 417.1 567.1C417.5 568.6 419.2 569.3 420.6 568.7C432 563.4 430.5 591.5 425.7 598.2Z" fill="#686868" stroke="#2A2A2A" stroke-width="0.75" stroke-miterlimit="10" stroke-linecap="round" stroke-linejoin="round"/>
<path d="M466.399 596.5C461.699 598.2 466.3 603.5 466.5 603.2C467.7 602.1 467.299 597.9 466.399 596.5Z" fill="#686868" stroke="#2A2A2A" stroke-width="0.75" stroke-miterlimit="10" stroke-linecap="round" stroke-linejoin="round"/>
<path d="M475.3 602.9C477.1 599.1 482.4 582.4 472.6 591.2C470.6 593 473.9 595.2 472.5 597.1C469.4 599.4 472.6 605.2 474.5 600.5C474.7 601.3 475 602.1 475.3 602.9Z" fill="#686868" stroke="#2A2A2A" stroke-width="0.75" stroke-miterlimit="10" stroke-linecap="round" stroke-linejoin="round"/>
<path d="M483.4 584.6C476.9 586.8 480.1 598 476.6 602.8C475.4 606.2 477.5 605.3 479.5 607.3C480.4 604 481.8 602.4 484.9 601.5C486.1 599.8 483.2 596.9 481.7 598.6C481.7 596.8 482.7 586.9 485.2 591.5C486.6 588.8 483.4 587.2 483.4 584.6Z" fill="#686868" stroke="#2A2A2A" stroke-width="0.75" stroke-miterlimit="10" stroke-linecap="round" stroke-linejoin="round"/>
<path d="M486.7 535.7C486.6 534.7 486.7 533.6 487 532.6C492.6 535.5 491.2 524.4 486.7 531.3C485.2 529.1 488.2 528.5 485.2 527.6C477.9 524.9 480 541.3 484.3 530.7C485.9 531.8 484.4 535.5 486.7 535.7Z" fill="#686868" stroke="#2A2A2A" stroke-width="0.75" stroke-miterlimit="10" stroke-linecap="round" stroke-linejoin="round"/>
<path d="M482.799 577.1C481.199 577.8 481.499 580.9 483.199 581.5C485.799 582.5 486.899 577.6 482.799 577.1Z" fill="#686868" stroke="#2A2A2A" stroke-width="0.75" stroke-miterlimit="10" stroke-linecap="round" stroke-linejoin="round"/>
<path d="M505.1 536C499.6 545.1 516.1 541.2 519.1 538.4C518.7 538.4 518.4 538.401 518.1 538.301C517 537.901 515.8 537.7 514.6 537.6C511.8 537.5 507.3 535.2 505.1 536Z" fill="#686868" stroke="#2A2A2A" stroke-width="0.75" stroke-miterlimit="10" stroke-linecap="round" stroke-linejoin="round"/>
<path d="M520.6 538.2C519.7 542.3 532 541.1 534.3 538.8C529.8 538.1 525 539.8 520.6 538.2Z" fill="#686868" stroke="#2A2A2A" stroke-width="0.75" stroke-miterlimit="10" stroke-linecap="round" stroke-linejoin="round"/>
<path d="M529 541.6C525.8 542.3 528.8 549.5 530.4 550.6C531 549.4 529.8 542.7 529 541.6Z" fill="#686868" stroke="#2A2A2A" stroke-width="0.75" stroke-miterlimit="10" stroke-linecap="round" stroke-linejoin="round"/>
<path d="M539.7 574.4C543.8 573.7 553.6 568.3 545.8 565.4C544.5 554.5 513.5 563.6 539.7 574.4Z" fill="#686868" stroke="#2A2A2A" stroke-width="0.75" stroke-miterlimit="10" stroke-linecap="round" stroke-linejoin="round"/>
<path d="M549.399 511.4C547.499 510.6 546.099 514.8 547.399 515.8C549.499 517.6 549.699 512.5 549.399 511.4Z" fill="#686868" stroke="#2A2A2A" stroke-width="0.75" stroke-miterlimit="10" stroke-linecap="round" stroke-linejoin="round"/>
<path d="M549.4 517.4C547.6 518.3 548.5 521.1 550.6 520.5C550.4 519.4 550 518.4 549.4 517.4Z" fill="#686868" stroke="#2A2A2A" stroke-width="0.75" stroke-miterlimit="10" stroke-linecap="round" stroke-linejoin="round"/>
<path d="M553.9 512.1C552.9 513.8 552.2 514.4 551 512.5C549.7 516.6 551.7 515.1 553 517.9C553.3 518.5 551.4 521.2 553.4 520.8C554.5 520.5 555.7 519.9 556.1 521.4C556.6 523.1 562.4 520.3 557.5 518.9C553.5 518 557.9 513.8 553.9 512.1Z" fill="#686868" stroke="#2A2A2A" stroke-width="0.75" stroke-miterlimit="10" stroke-linecap="round" stroke-linejoin="round"/>
<path d="M552.7 532C548 538.6 557.8 536.5 561.3 537.1C567.1 535.8 555.2 528.1 552.7 532Z" fill="#686868" stroke="#2A2A2A" stroke-width="0.75" stroke-miterlimit="10" stroke-linecap="round" stroke-linejoin="round"/>
<path d="M556.2 506.5C555.7 511.6 562 521.3 566.9 521.7C562.9 518.6 554.7 496.4 563.2 499C566.4 500.6 571.1 501.6 574.7 502C570.5 494.8 563.3 495.5 565.7 491.7C571.9 487.7 572.2 485.7 571.7 478.8C567.9 477.8 563.8 481.6 562.3 484.7C566.8 485.2 558.9 487 559.2 491.8C558.2 493.4 555.9 491.8 555.3 490.7C555.4 486.2 564.4 482.8 560.8 476.3C556.1 473.3 560.6 471.4 560.8 467.9C553.6 470.3 548.5 486.8 555 491.9C551.1 497 558.7 501.2 556.2 506.5Z" fill="#686868" stroke="#2A2A2A" stroke-width="0.75" stroke-miterlimit="10" stroke-linecap="round" stroke-linejoin="round"/>
<path d="M554.5 527.4C554 527.8 553.399 528.2 552.899 528.6C553.999 528.7 555 528.6 556 528C555.4 527.8 554.9 527.6 554.5 527.4Z" fill="#686868" stroke="#2A2A2A" stroke-width="0.75" stroke-miterlimit="10" stroke-linecap="round" stroke-linejoin="round"/>
<path d="M591.5 568.1C598.1 572.2 611.5 579.7 601.7 565.7C601.6 562.5 599 559.3 595.6 559.5C589.7 560.2 585.3 553.1 579.6 558.3C572.4 554.9 555.2 556.8 559.2 569.1C562.8 556.8 561.8 564 568.4 567.5C569.1 567.6 577.4 560.7 575.4 566C576.7 565.7 584.3 568.8 584.8 566.2C585.2 563.9 591.1 565.8 591.5 568.1Z" fill="#686868" stroke="#2A2A2A" stroke-width="0.75" stroke-miterlimit="10" stroke-linecap="round" stroke-linejoin="round"/>
<path d="M560.7 570.2C556.6 573.7 561 573.2 563.6 571.2C561.6 574.9 570.7 566.2 560.7 570.2Z" fill="#686868" stroke="#2A2A2A" stroke-width="0.75" stroke-miterlimit="10" stroke-linecap="round" stroke-linejoin="round"/>
<path d="M564.9 470.8C570.5 469.6 572.7 464.9 569.7 459.9C566.6 462.8 562.4 466.1 564.9 470.8Z" fill="#686868" stroke="#2A2A2A" stroke-width="0.75" stroke-miterlimit="10" stroke-linecap="round" stroke-linejoin="round"/>
<path d="M592.3 542.3C594.5 543.4 596.2 542.7 598.3 542.2C597.1 540.6 599.6 539.8 598.3 537.3C596.3 534.5 583.3 540.8 592.3 542.3Z" fill="#686868" stroke="#2A2A2A" stroke-width="0.75" stroke-miterlimit="10" stroke-linecap="round" stroke-linejoin="round"/>
<path d="M603.8 514.3C610 516 603.8 510.1 602.4 508.7C605.6 509.1 606.7 513.4 610.2 512.6C621 510.1 598 502.7 597.4 509.7C600.3 507.7 598.7 510.9 597 510.3C598.4 512.1 601.6 510.9 601 514.1C601.5 511.6 603.6 511.6 603.8 514.3Z" fill="#686868" stroke="#2A2A2A" stroke-width="0.75" stroke-miterlimit="10" stroke-linecap="round" stroke-linejoin="round"/>
<path d="M599.5 521.2C599 524 606.4 523 605.7 520.2C604.1 522 601.5 520.6 599.5 521.2Z" fill="#686868" stroke="#2A2A2A" stroke-width="0.75" stroke-miterlimit="10" stroke-linecap="round" stroke-linejoin="round"/>
<path d="M602.4 514C601.5 514.4 600.8 514.9 600.3 515.8C601.6 516.6 604.5 514.9 602.4 514Z" fill="#686868" stroke="#2A2A2A" stroke-width="0.75" stroke-miterlimit="10" stroke-linecap="round" stroke-linejoin="round"/>
<path d="M606.6 522.4C601 523.3 603.2 527.2 606.3 530.2C608.1 532 611.5 523.4 606.6 522.4Z" fill="#686868" stroke="#2A2A2A" stroke-width="0.75" stroke-miterlimit="10" stroke-linecap="round" stroke-linejoin="round"/>
<path d="M492 683.6C496.8 685.6 491.099 686.2 490.399 690.1C499.599 689.1 509.999 685.601 513.799 676.301C514.599 672.801 512.699 675.6 515.599 674.6L517.299 666.801C510.899 660.801 512.4 668.6 505.5 669.5C503.7 669.8 505.499 674.9 504.299 675.7C494.199 672.6 499 671.1 492 683.6Z" fill="#686868" stroke="#2A2A2A" stroke-width="0.75" stroke-miterlimit="10" stroke-linecap="round" stroke-linejoin="round"/>
<path d="M227.9 613.9C226.5 612.9 219.9 611.7 218.7 612.9C218.3 608.7 214.7 614.2 214.3 615.6C213.8 617 205.9 625.6 204.5 626.5C208.3 632.7 229.1 628.3 223.2 635.2C219.6 639.4 243.7 638.7 250.5 644.5C267.9 638.7 284.8 651.8 302.8 653.4C310.5 653 319.8 657.8 326.8 654.3C331.9 651.5 340.7 660.3 348 660.3C350 664.8 353.4 661.3 349.3 658.2C346.5 654.4 349.3 650.6 349.4 646.7C346.5 639 335.3 645.5 329.6 643.9C318.5 641.9 321.4 629.8 319.6 628.6C315.3 625.8 310.5 627.5 306 626.8C305.1 626.4 303.5 622.9 302.2 624.6C300.9 626.3 298 626 296.8 624.1C289.5 613 290.6 630.1 284.6 629.9C278.1 627.6 270.1 629.1 263.6 627.3C258 630.5 256.2 622.3 253.7 619.2C251.5 616.3 252 619 250.2 619C248 619 246 615.9 243.8 617C239.7 616.9 237.2 612 232.4 611.7C232 613.5 230.1 616.3 227.9 613.9Z" fill="#686868" stroke="#2A2A2A" stroke-width="0.75" stroke-miterlimit="10" stroke-linecap="round" stroke-linejoin="round"/>
<path d="M325.2 628.7C316.8 630.1 325.7 637.7 327.9 633.1C331.7 637.2 335.7 632 340 632.8C348.6 625.2 330.4 629.1 325.2 628.7Z" fill="#686868" stroke="#2A2A2A" stroke-width="0.75" stroke-miterlimit="10" stroke-linecap="round" stroke-linejoin="round"/>
<path d="M349.5 649.9C346.9 656.8 364.2 656.2 359.2 663.1C359.2 664.3 363.7 658.8 363.9 658.8C365.9 658.1 370.7 656.1 368 653.5C362.7 646.1 355.9 654.5 349.5 649.9Z" fill="#686868" stroke="#2A2A2A" stroke-width="0.75" stroke-miterlimit="10" stroke-linecap="round" stroke-linejoin="round"/>
<path d="M378.7 652.1C372.6 652.7 377.1 664 371.6 661.3C369.6 664.8 381.4 663.8 381.9 664.4C381.1 659.4 389 651.3 378.7 652.1Z" fill="#686868" stroke="#2A2A2A" stroke-width="0.75" stroke-miterlimit="10" stroke-linecap="round" stroke-linejoin="round"/>
<path d="M403.3 664.6C406.4 663 409.5 662.4 411 659C410.4 666.5 414.7 661.3 419 663.3C418.2 662.3 417.2 661.8 415.9 661.7C418.6 660 422.9 663.2 423.4 658.6C420.6 663.3 420 645.7 415.9 657C413.4 648.1 410 658.7 406.2 650.7C404.6 649.1 398.9 650.3 400.8 653C403.5 657.5 414.3 658.9 404.2 661.2C401.6 661.8 401.1 659.4 399.9 657.7C394.7 652.5 384.4 656.1 385.7 663.6C385.3 672.4 398.6 663.9 403.3 664.6Z" fill="#686868" stroke="#2A2A2A" stroke-width="0.75" stroke-miterlimit="10" stroke-linecap="round" stroke-linejoin="round"/>
<path d="M419.5 675.5C424 681.5 433.8 678.4 437.9 686.3C448.4 694.7 452.5 678.9 441.2 677.6C438.9 673.7 434.1 670.9 429.2 672.4C426.2 674.3 421.7 671.2 419.5 675.5Z" fill="#686868" stroke="#2A2A2A" stroke-width="0.75" stroke-miterlimit="10" stroke-linecap="round" stroke-linejoin="round"/>
<path d="M435.9 662.7C441 659.9 456.8 668.2 457.5 662.4C462.2 664.3 464.1 663.1 468.4 661.5C471.3 660.4 481.8 661.9 479.8 656C481.9 656.4 481.4 653.9 483.3 653.8C482.3 651.4 479.4 647.7 479 652.5C479.9 651.9 480.9 651.8 481.9 652.2C476.9 654.6 473.3 663.1 468 656.9C466 655.2 463.9 658 461.8 657.2C459.4 658.1 459.2 659.5 456.3 657C441 645.8 426.4 662.4 435.9 662.7Z" fill="#686868" stroke="#2A2A2A" stroke-width="0.75" stroke-miterlimit="10" stroke-linecap="round" stroke-linejoin="round"/>
<path d="M484.299 653.3C481.199 656.1 487.299 656.3 487.899 654.2C488.299 652 485.299 652.7 484.299 653.3Z" fill="#686868" stroke="#2A2A2A" stroke-width="0.75" stroke-miterlimit="10" stroke-linecap="round" stroke-linejoin="round"/>
<path d="M489.2 653.1C492.3 655.3 481.3 658.7 491.8 658.4C491.3 655.6 495.4 653.4 497.6 653C494.5 649.8 493.299 653.9 491.399 654.9C492.199 652.8 490.7 652.9 489.2 653.1Z" fill="#686868" stroke="#2A2A2A" stroke-width="0.75" stroke-miterlimit="10" stroke-linecap="round" stroke-linejoin="round"/>
<path d="M498.3 654.3C495.9 657 499.7 655.9 500.7 658C501.8 656.8 504 653.7 502.3 652C501.6 653.6 499.8 653.8 498.3 654.3Z" fill="#686868" stroke="#2A2A2A" stroke-width="0.75" stroke-miterlimit="10" stroke-linecap="round" stroke-linejoin="round"/>
<path d="M506 650.6C505.2 651.6 504.2 654 506.9 652.5C496 659.3 524 656 514.4 651.1C511.5 651.6 508.8 650.8 506 650.6Z" fill="#686868" stroke="#2A2A2A" stroke-width="0.75" stroke-miterlimit="10" stroke-linecap="round" stroke-linejoin="round"/>
<path d="M526.399 648.6C531.599 645 536.899 648.6 542.099 643.9C538.599 639.9 537 641.4 532.5 643.2C528.6 642 526.499 644.7 526.399 648.6Z" fill="#686868" stroke="#2A2A2A" stroke-width="0.75" stroke-miterlimit="10" stroke-linecap="round" stroke-linejoin="round"/>
<path d="M586.5 644.7C585.3 645.8 586.2 648.6 588.1 648.6C591.8 648.6 589.7 644.3 586.5 644.7Z" fill="#686868" stroke="#2A2A2A" stroke-width="0.75" stroke-miterlimit="10" stroke-linecap="round" stroke-linejoin="round"/>
<path d="M617.799 632.6C615.399 632.7 609.199 640.9 611.699 643.1C606.699 640.9 611.099 652.9 612.999 647.4C619.099 641.3 616.299 639.4 619.199 634.3C618.899 633.6 618.399 633.1 617.799 632.6Z" fill="#686868" stroke="#2A2A2A" stroke-width="0.75" stroke-miterlimit="10" stroke-linecap="round" stroke-linejoin="round"/>
<path d="M656.2 615.8C655.9 617.6 655.7 620.1 657.4 621.6C648.3 634.1 672.1 626.7 656.2 615.8Z" fill="#686868" stroke="#2A2A2A" stroke-width="0.75" stroke-miterlimit="10" stroke-linecap="round" stroke-linejoin="round"/>
<path d="M159.9 603.8C160.2 601.8 157.3 599.5 155.8 601.4C157.2 602.1 157.9 604.5 159.9 603.8Z" fill="#686868" stroke="#2A2A2A" stroke-width="0.75" stroke-miterlimit="10" stroke-linecap="round" stroke-linejoin="round"/>
<path d="M83.7997 413.5C80.7997 416.3 62.9997 415.7 59.0997 410.1C57.4997 408.1 52.7997 405.4 50.0997 407.2C40.0997 413.9 62.7997 432.8 66.2997 437.8C70.6997 440.8 76.2997 440.9 77.7997 447.4C80.3997 454 87.2997 456.2 86.4997 463.9C90.8997 469.5 105.1 471.3 103.6 480.8C105.1 487.3 109 493.6 109.7 500.2C110 504.3 119.6 503.8 120 509.8C125.8 520.3 133.1 530.2 136.7 542.1C136.5 551.4 145.3 557.4 149.4 565.3C156 568.5 157.3 574.7 161.7 579.8C168.2 587 178 591.4 183.7 598.8C186.2 601.4 193.7 613.4 195.9 610.3C188 593.5 206.3 618.1 204.9 603.2C218.5 623.2 214 588.6 213.7 581C217.4 575.4 211.2 570.6 216 565.5C221.3 559.3 208.7 557.1 211.1 549.4C209.3 549.1 192.2 545.6 191.8 526.9C185.9 522 176.3 528.1 176 514.7C179.7 517.6 179.5 512.5 175.5 513.1C178.7 512.4 178 510.1 174.9 511.3C180.1 506.8 187.3 507.4 179.5 500.2C174.1 492.8 167.1 507.8 161.2 502.2C166.4 505.2 176.4 495.9 166.9 493.8C163.1 494.3 160.7 492.9 158.6 489.8C155.7 484.4 154.5 476.7 146.3 476.9C144 475.7 144.1 472.1 142.7 470.1C136.7 462.9 133.4 466.9 137.7 474.5C136.1 471.1 133.8 469.3 130.6 467.6C128.6 465.9 119.5 452 115.5 448.4C109.4 442.8 103.1 438.5 96.4997 434.3C94.5997 432.4 97.2997 429.1 95.2997 427.4C90.7997 423.5 89.2997 416.8 83.7997 413.5Z" fill="#686868" stroke="#2A2A2A" stroke-width="0.75" stroke-miterlimit="10" stroke-linecap="round" stroke-linejoin="round"/>
<path d="M86.9996 495.6C94.3996 498.1 88.6996 476.8 78.0996 481.2C79.2996 487 85.4996 489.9 86.9996 495.6Z" fill="#686868" stroke="#2A2A2A" stroke-width="0.75" stroke-miterlimit="10" stroke-linecap="round" stroke-linejoin="round"/>
<path d="M99.8 514.9C100.2 513.6 99.7 512.3 98.6 511.5C95.6 513.7 97.9 520.4 99.8 514.9Z" fill="#686868" stroke="#2A2A2A" stroke-width="0.75" stroke-miterlimit="10" stroke-linecap="round" stroke-linejoin="round"/>
<path d="M97.0996 506.5C97.8996 508.7 98.9996 510.7 100.2 512.7C100.7 511.1 99.3996 506.2 97.0996 506.5Z" fill="#686868" stroke="#2A2A2A" stroke-width="0.75" stroke-miterlimit="10" stroke-linecap="round" stroke-linejoin="round"/>
<path d="M104.6 504.9C104.2 503 101.1 503.3 100 504.3C101.4 505.2 103 505.3 104.6 504.9Z" fill="#686868" stroke="#2A2A2A" stroke-width="0.75" stroke-miterlimit="10" stroke-linecap="round" stroke-linejoin="round"/>
<path d="M109.3 538.5C115.4 537.6 105.8 525.7 106 522.9C96.8001 523.9 103.9 536.7 109.3 538.5Z" fill="#686868" stroke="#2A2A2A" stroke-width="0.75" stroke-miterlimit="10" stroke-linecap="round" stroke-linejoin="round"/>
<path d="M120.7 548.6C120.3 547 118.3 541.5 116.1 542.9C113.7 544.6 119.6 548 120.7 548.6Z" fill="#686868" stroke="#2A2A2A" stroke-width="0.75" stroke-miterlimit="10" stroke-linecap="round" stroke-linejoin="round"/>
<path d="M122.799 555.7C123.299 557.4 125.299 556.6 125.899 555.5C125.599 550.8 120.999 548.9 122.799 555.7Z" fill="#686868" stroke="#2A2A2A" stroke-width="0.75" stroke-miterlimit="10" stroke-linecap="round" stroke-linejoin="round"/>
<path d="M129.7 565.6C128.6 563.4 129.3 562.1 129.6 560C129.3 559 128 555.8 126.4 556.4C124.1 557.2 128.6 564.7 129.7 565.6Z" fill="#686868" stroke="#2A2A2A" stroke-width="0.75" stroke-miterlimit="10" stroke-linecap="round" stroke-linejoin="round"/>
<path d="M150.6 472.2C150.1 469.3 146 468.4 144.9 471.5C143.9 476.8 150 477.6 150.6 472.2Z" fill="#686868" stroke="#2A2A2A" stroke-width="0.75" stroke-miterlimit="10" stroke-linecap="round" stroke-linejoin="round"/>
<path d="M161.5 479.8C159.3 478.9 156.8 479 154.7 477.7C154.4 481.8 160.3 480.9 162 484.2C161.9 482.8 162.1 481.2 161.5 479.8Z" fill="#686868" stroke="#2A2A2A" stroke-width="0.75" stroke-miterlimit="10" stroke-linecap="round" stroke-linejoin="round"/>
<path d="M161.8 485.3C160.9 483.8 159.6 482 157.7 481.8C156.2 486.5 161.4 494.1 161.8 485.3Z" fill="#686868" stroke="#2A2A2A" stroke-width="0.75" stroke-miterlimit="10" stroke-linecap="round" stroke-linejoin="round"/>
<path d="M170.8 492.7C169.3 489.6 164.9 488.8 162.8 486.7C158.2 493.3 166.6 492.3 170.5 494.2C170.6 493.6 170.7 493.1 170.8 492.7Z" fill="#686868" stroke="#2A2A2A" stroke-width="0.75" stroke-miterlimit="10" stroke-linecap="round" stroke-linejoin="round"/>
<path d="M172.6 491.5C172 489 163.9 484.1 165.1 488.6C168.1 487.1 169.5 492.5 172.6 491.5Z" fill="#686868" stroke="#2A2A2A" stroke-width="0.75" stroke-miterlimit="10" stroke-linecap="round" stroke-linejoin="round"/>
<path d="M206.8 537C208.5 539.4 204.2 540.4 203.3 542C206 545.9 211.8 541.5 213.8 546.2C216.8 550 213.8 554.3 217.9 556.9C219.4 557.7 226.1 562.8 227.7 561.4C229 558.7 222.6 556.3 229.7 552.4C223.9 551.3 218.4 548.9 219.5 541.8C221.1 535.6 211.2 528.2 214 538.1C212.9 538.3 207 530.3 206.8 537Z" fill="#686868" stroke="#2A2A2A" stroke-width="0.75" stroke-miterlimit="10" stroke-linecap="round" stroke-linejoin="round"/>
<path d="M243.4 551.9C239.2 554 242.2 567.3 244.9 561.2C253.8 568.9 255.3 548.6 243.4 551.9Z" fill="#686868" stroke="#2A2A2A" stroke-width="0.75" stroke-miterlimit="10" stroke-linecap="round" stroke-linejoin="round"/>
<path d="M262.199 491.2C264.099 489.9 262.799 488.6 263.199 486.9C263.699 484.7 266.999 484.5 267.299 482C261.299 488.2 265.899 476.9 270.499 472C271.299 471.1 272.799 471.6 272.899 472.9C273.099 479.2 282.599 487.1 287.499 490.5C287.799 490.7 288.099 490.8 288.399 490.7C294.499 490 299.799 487 306.599 488.8C306.799 488.9 306.999 488.9 307.199 488.8C314.499 487.2 315.299 473.5 326.199 479.9C326.299 480 326.399 480.1 326.499 480.2C333.899 487.9 337.399 482.1 343.799 481.3C345.999 481.4 347.599 479.9 349.499 480.3C350.199 480.4 350.899 480.1 351.099 479.4C351.999 476.3 356.099 471.6 354.799 470.1C352.499 467.4 356.899 464.1 359.699 462.7C360.399 462.4 360.599 461.6 360.299 460.9C359.099 458.4 358.099 454 361.699 453.5C366.999 452.9 363.499 449.7 366.099 446.8C366.299 446.6 366.499 446.3 366.499 446C367.299 436.6 365.399 428.7 377.699 429.3C378.599 428.9 393.299 430.2 397.999 432.8C397.699 433 397.399 433.2 396.999 433.4C396.099 433.8 395.899 435 396.599 435.6C397.999 436.9 399.399 438.4 396.999 437.2C398.999 437.6 399.599 438.9 400.499 440.1C401.099 440.9 400.699 442 399.799 442.2C398.199 442.6 396.599 441.4 395.999 439.7C396.299 440.7 396.399 441.7 396.299 442.8C395.699 442.4 394.799 442.2 393.899 442.1C392.599 442 391.899 443.6 392.799 444.5C393.299 444.9 393.799 445.4 394.399 445.7C394.999 446.1 395.299 446.8 395.099 447.4C394.899 447.9 394.699 448.3 394.399 448.7C393.799 449.4 393.999 450.3 394.699 450.8C395.399 451.2 396.099 451.6 396.899 451.8C397.499 452 397.899 452.7 397.799 453.3C397.599 454.4 399.399 454.6 397.099 454.9C398.099 454.9 398.999 455.2 399.899 455.6C396.699 457.9 411.399 466.1 402.099 470.2C401.299 470.6 400.999 471.5 401.499 472.2C405.899 478.6 415.999 482.6 419.199 488.7C419.499 489.3 419.399 490.1 418.799 490.5C414.999 493.2 410.399 492.2 406.499 490C405.699 489.5 404.599 490 404.399 490.9C404.299 491.6 403.799 492.1 402.499 492.2C396.599 496 396.199 505.9 395.999 513.2C395.999 514.1 396.899 514.8 397.799 514.5C398.099 514.4 398.499 514.3 398.899 514.3C398.499 515.5 396.799 518.8 397.099 519.5C397.399 520.1 396.999 520.9 396.399 521.2C395.599 521.6 394.899 522 394.299 521.9C393.699 521.8 393.099 522 392.799 522.6C391.399 525.5 388.099 529 386.199 527.8C385.399 527.3 384.399 527.6 384.199 528.5C383.399 531.7 381.999 534.3 379.499 536.5C378.899 537 378.799 537.9 379.399 538.5C380.299 539.4 379.999 541.4 379.199 543C378.799 543.8 379.299 544.8 380.099 544.9C383.099 545.5 382.899 547.5 381.399 550.5C381.099 551.1 380.299 551.5 379.699 551.2C379.099 550.9 378.399 550.9 377.699 551.2C379.899 553.1 378.299 558.2 376.499 558.7C375.599 559 375.099 560 375.699 560.8C376.199 561.4 375.999 562.3 375.299 562.7C372.899 564.5 373.499 569.2 370.499 570.4C366.899 571.9 363.299 574.4 359.599 576.1C359.499 576.1 359.399 576.2 359.399 576.2C348.999 584.2 350.999 575.6 350.099 567.9C349.999 567 348.899 566.4 348.099 566.9C346.099 568 345.099 566.7 346.699 563.4C345.799 565 344.099 566.2 343.299 565.4C342.799 564.9 341.999 564.9 341.599 565.5C339.099 568.2 334.799 569.4 335.199 564.4C335.299 563.7 334.699 563 333.999 563C332.399 562.8 330.999 564.9 330.499 562.5C330.899 564.7 329.199 562.9 327.899 561C327.299 560.1 325.899 560.3 325.499 561.3C323.199 567 318.899 565.8 313.399 565.6C312.999 565.6 312.599 565.8 312.299 566.1C306.099 573.3 307.499 565.1 306.599 559.3C306.399 558.2 305.099 557.7 304.299 558.5C303.299 559.6 302.399 558.6 300.099 558.4C299.899 558.4 299.699 558.4 299.499 558.5C296.299 559.6 294.099 562 290.499 560C291.199 559.3 291.899 558.6 292.699 557.9C291.699 558 291.099 558.8 290.499 559.4C289.799 560 288.599 559.8 288.299 558.9C286.499 553.8 280.799 566.9 281.599 549.3C281.599 545.4 280.399 541.9 278.499 538.9C278.199 538.4 278.199 537.8 278.499 537.3C282.799 532 277.399 526.7 275.099 521.9C274.699 522.4 274.199 522.9 273.799 523.4C272.199 520.4 270.599 523.2 268.399 521.9C267.299 520.8 267.699 519.8 268.499 519.2C269.399 518.6 269.399 517.2 268.399 516.8C267.699 516.5 266.899 516.2 266.199 515.8C265.899 515.6 265.699 515.4 265.599 515.1C264.999 513.7 264.799 510.8 265.899 510.2C266.499 509.9 266.699 509.2 266.499 508.6C266.199 507.7 266.099 506.9 266.599 506.5C266.999 506 266.999 505.3 266.599 504.8C263.499 501.3 260.399 496 262.199 491.2Z" fill="#686868" stroke="#2A2A2A" stroke-width="0.75" stroke-miterlimit="10" stroke-linecap="round" stroke-linejoin="round"/>
<path d="M657.7 613.3C657.9 614.5 658.4 615.5 659.4 616.4C658.8 612.4 660.5 610.7 658.4 607.1C660.5 608.1 661.6 604.8 662.3 603.6C667.9 602 668.5 625.6 660 616.8C663.2 620.5 651.9 613 657.7 613.3Z" fill="#686868" stroke="#2A2A2A" stroke-width="0.75" stroke-miterlimit="10" stroke-linecap="round" stroke-linejoin="round"/>
<path d="M81.5996 177.5C82.2996 179.3 86.1996 179.2 87.5996 177.9C89.2996 176.4 86.8996 172.2 87.5996 170.1C90.2996 166.9 88.4996 165.5 88.9996 162C89.4996 160.8 92.3996 156.5 93.2996 156.7C97.1996 158.2 101.1 158 104.7 156.1C105.9 156.1 106.3 157.3 107.6 155.7C108.9 154.1 107.4 151.2 109.9 150.5C111.7 150.1 118.2 151.4 115.3 146.8C117.9 146.7 125.5 142.2 124.6 147.7C128.9 144.2 128.9 146.2 131.6 150C132.8 151.6 130.4 154 129.7 155.7C128.8 158 130.1 159.8 131.6 161.1C133.7 163 137.7 159.2 140.3 160C141.9 160.5 143.4 160.5 142.2 162.6C141 164.7 143.5 167.6 143.6 169.6C143.1 173.1 141.3 176.9 139.9 179.9C146.1 185.3 132.4 194.6 141.4 197.4C144.1 193.9 150.1 191.3 150.9 186.8C155.8 188 153.1 180 159.9 187.3C160.8 187.8 163 187.9 163.5 188.9C165 192 167.7 187.5 170 187.9C171.2 188.1 172.3 183.2 174.3 182.9C171.3 179.1 181.7 181.6 182.8 181.9C189.1 183.7 190.3 192.6 196 195.8C202.4 201 193.1 212.4 201.4 218.4C203.5 221.9 204.7 221.9 208.4 223.4C204.8 225.7 209.6 227.2 211 228.4C212.6 229.8 208.5 235.6 210.9 235.2C207.6 239.6 209.6 238.5 210.6 242.4C209.9 245.9 210.8 249.4 207.1 251.6C204.6 253.1 202.9 256.1 201.5 252.8C200 249.4 194.2 252.8 191.6 251.9C189.7 251.3 187.8 252 185.9 252.3C181.5 251.2 177.6 250.8 173.2 253C169.5 254.4 168.7 258.6 166.5 261.5C165.5 262.8 163.2 263.9 163.2 265.6C163.2 267.4 161 266.7 159.9 266.7C161.7 272 160.7 279.2 164.3 283.7C166.9 285.6 166 287.8 166 290.7C166 294.3 169.6 297.2 168.8 300.8C168.9 299 167.5 298 166.8 296.6C165.8 294.4 166.2 291.7 163.3 290.8C163.3 291.7 163.3 292.6 163.2 293.5C162.6 291.5 156 290.6 160.1 288C159 288.6 158.3 288 158 287C157.7 290.2 154.4 285.3 153.8 283.8C153.6 286.6 151.9 280.9 149.2 282.1C147.9 282.7 146.5 283.8 144.9 283.5C143 283.1 141 282.1 139 282.6C135.1 283.5 137.6 279.6 137.5 277.3C137 274.1 138.2 271 138.8 268.1C137 269.4 132.8 268.2 132.5 266.2C132.8 270.2 120.8 266.7 123.6 272.9C125.1 276 123.8 278 122.9 281.3C121.9 284.8 124.3 288 123.3 291.5C121.7 294.2 120.3 296.7 119.3 299.7C115.5 305.8 115.6 313.4 111.8 319.5C111.1 320.7 112.1 324.1 109.7 323.8C112.2 327 109.1 333 110.6 336.9C111.3 338.8 112.4 340 111.4 341.9C111.4 348.8 122.1 336.8 122.1 347.1C122.2 348.9 124.1 361.5 126.8 357.4C128.3 364.6 130.6 371.8 131.5 379.1C129.1 378.7 129.1 367.9 126.4 369.8C124.1 373 128.6 377.6 130.7 379.7C135 380.5 135.2 385 139.8 385.3C148.1 383.6 148.6 388 152.6 393.5C155.1 395.6 156.7 396.7 155.2 400.1C153.7 403.7 151.7 407.9 148.6 402.7C145.7 401.5 143.7 406.8 141.8 406.8C138.1 406.8 139.2 403.2 140.6 401.1C142.1 398.9 139.7 396.9 138.1 396.5C135.8 395.9 136.9 392.7 134 392.3C131.3 391.9 129.8 391.8 128.1 389.6C125.8 386.4 126.4 391.9 125.3 393.3C125.3 389.1 115 385.2 119.4 380.8C115.8 382.9 117.5 377.4 115.8 376.4C115.9 378.5 114.1 378.1 113.4 376.8C112.5 375.1 112.8 372.6 111.4 371.1C110.5 370.2 108.5 371.4 108.4 369.9C108.6 367.5 107.5 365 105 364.9C103.9 364.7 104.2 362.8 103.8 362C102.5 357.5 99.1996 358.7 98.8996 362.9C88.9996 361.3 104.2 319.9 107.7 314.1C109.5 310.5 116.8 299.6 113.9 295.7C111.4 291.1 115 286.1 111.7 281.9C107.7 276.1 112.2 269.6 109.8 263.6C106.9 254.7 96.1996 250.2 95.3996 240.4C95.3996 238.7 96.2996 234.8 98.5996 237C98.2996 234.9 100.7 235.4 101.4 233.9C102.4 231.8 101.5 227 101.5 224.7C101.4 221 104.1 222.9 105.6 220.8C106.6 219.5 107 216.6 105.8 215.5C105.3 216.7 104.6 217.7 103.6 218.6C101.4 215.5 101.1 211.9 100.5 208.3C97.3996 201.2 86.8996 196.8 87.7996 188.1C87.4996 186.5 85.8996 185.2 86.3996 183.3C82.8996 183.7 81.8996 179.6 81.5996 177.5Z" fill="#B2B2B2" stroke="#2A2A2A" stroke-width="0.75" stroke-miterlimit="10" stroke-linecap="round" stroke-linejoin="round"/>
<path d="M1 131.3C2.3 123.4 4.4 129 8.5 129.4C7.2 124.4 6.60004 118.7 9.10004 114.2C12.2 117.8 13.6 119.4 14.5 113.3C18.9 116.5 14.5 101.4 16 98.3999C22.3 100.8 19.7 84.1999 18.9 80.8999C21.1 81.0999 21.3 82.7 23.8 81.5C25.5 81.2 30.4 83.3003 31.6 84.3003C32.5 77.5003 44 65.5002 39.4 60.2002C37 57.4002 43.6 53.5002 44.7 50.7002C49.1 44.9002 42.2 38.8 48.2 34C49.1 33.5 51.5 34.2003 51.9 32.8003C54 30.4003 58.6 28.9001 60.3 25.6001C62.4 23.0001 66.2 23.4 68.9 23C70.2 22.8 71.9 22 72.8 23C74 24.4 74.8 27.6 77.8 26.5C76.1 21 70.4 19.4001 77.9 14.1001C81.9 10.9001 80.2 11.5 81 8C82.8 5.9 83.7 3.7 84.5 1C97.9 9.9 90.9 5.4002 96.3 18.7002C97.6 18.3002 98.4 17.4002 98.1 16.2002C105.2 20.5002 103 32.4 102.3 40C101.9 41.3 103.6 45.5002 100.4 44.2002C100.7 45.5002 104.2 50.4002 100.1 49.2002C99.4 49.0002 97.5 52.2003 97.5 52.8003C97.6 54.7003 95.2 53.4999 94.2 53.3999C93.7 54.4999 92.2 62.5999 89.1 59.3999C88.8 62.0999 87 64.2003 88.2 66.8003C85.3 67.0003 85 69.0002 84.8 71.2002C85 74.1002 88.6 75.5999 87.6 78.8999C86.8 80.3999 84.1 82.5 85.8 84C86.6 84.7 92.4 80.7002 93.3 80.2002C97.4 78.1002 101.5 81.5003 105.6 78.8003C104.9 82.2003 100.7 83.7002 104.8 87.2002C105.8 88.4002 104.1 89.7999 104.8 90.3999C106.7 92.1999 105.4 95.5999 107.9 96.8999C111.4 98.7999 114.9 96.4003 115.7 100.8C111.8 100.6 113.3 105.2 113.2 107.3C105.4 120.2 116.1 112.5 122.3 116.1C124.5 118.3 120.3 122.7 125.3 122.7C124.5 123.7 124.7 125.6 125.3 126.5C126.3 127.9 127.8 124.8 129.3 125.9C132.3 128 137.5 122.8 140.3 121C141.8 127.4 138.6 126.9 134.3 129.8C133.7 130.7 129.3 138.4 132.6 136.6C127.5 141.1 126.5 134.5 124 146.2C121.4 143.3 118.5 146.6 114.8 146.8C116.3 151.3 112.7 151.4 109.5 150C107.6 150.2 107.5 154.2 106.9 155.4C106.3 156.8 105.5 156.6 104.6 155.9C103.7 155.3 100.8 158.1 99.4 157.9C98.7 157.8 91.8 156.8 91.8 156.6C91.5 159 89.3 160.6 88.3 163C87.8 164.2 88.5 165.6 88.6 166.7C88.8 168.2 87 169.7 86.6 171.2C86.1 173.1 88.7 175.3 87.1 177.3C85.7 179.1 81.9 179.6 81 177.5C81.4 179.7 82.3 183.7 85.5 182.8C85.1 184.2 85.9 185.3 86.4 186.4C85.9 194.1 92.8 198.4 96.5 204.4C101.3 207.1 99.4 214.1 102.7 218.2C103.6 217.3 104.3 216.3 104.9 215.1C106.6 216.6 105.6 219.7 103.8 221.1C101.4 223 100.3 221 100.7 224.9C100.9 227.1 101 230.6 100.5 232.8C100.1 234.5 97.4 234.4 97.8 236.5C96.5 235.2 95.2 236.2 94.8 237.8C93.4 246.4 101.8 252 106.6 257.8C111.2 263.2 109.6 270.5 109.4 276.9C110.4 281.6 114.1 284.1 114 289.1C116 295.1 110.9 309.5 104.4 316.5C102.4 318 104.3 319.8 103.3 321.6C101.8 324.3 101.4 327.3 99.7 329.9C98.1 327.1 99.2 323.1 98.7 319.9C98.5 318.6 97.9 317.5 99.2 316.8C100.8 315.8 99.7 315.3 100.5 314.1C104.9 310.2 99.8 301.7 104.5 299.4C104.1 298.7 104 298 104.1 297.2C103.3 298.2 102.2 299 101 299.3C100.8 297.2 103.8 296 100.8 296.4C104.4 294.8 99.6 292.2 102.5 290.7C101.2 291 100.3 290.4 99.9 289.2C100.7 289.1 101.5 288.8 102.2 288.3C100.9 287.6 100.1 286 102.3 285.5C100.5 284.9 101.8 283.1 101.6 281.5C100.5 273.2 96.3 265.7 94.3 257.8C94.9 259.9 95.3 264.7 93.5 266.6C93.6 263.2 92.7 259.4 93 256C92.8 254.6 88.2 245 91.5 246.9C91.4 246.3 91.2 245.8 90.9 245.3C90.4 245.6 89.8 245.9 89.3 246.2C87.4 239.9 88.7 232.8 87.1 226.5C85.9 224.4 84.6 222.8 85.7 220.2C85.8 218.3 84.8 214.5 87.5 213.5C85.8 213.8 82.8 214.9 81.7 213.3C79.8 210.4 74.1 199.4 73.8 197.9C73.5 198.3 74.5 207.2 72.8 209.8C71.6 211.7 57.4 221.4 55.8 219.7C56.2 222 53.5 229.6 49.9 228.2C48 227.5 38.3 226.2 33.9 223.1C30.4 224.4 35.9 202.7 36.8 201.9C39.2 199.8 37.5 194 36.7 191.7C36.1 186.9 35.4 182.4 32.9 178.3C32.2 176.5 15.8 166.7 22.6 164.1C24.9 163.2 30.1 166.3 28 162.7C27.7 161.1 1.8 137.6 1 131.3Z" fill="#E4E4E4" stroke="#2A2A2A" stroke-width="0.75" stroke-miterlimit="10" stroke-linecap="round" stroke-linejoin="round"/>
<path d="M156.7 110C162.1 108.8 158.6 97.9003 168.2 107.3C172.6 112.2 175.1 98.2003 178.3 106.8C180.3 100.5 181.9 106.1 184.7 108.1C185.6 108.7 187.2 102.5 190 102.4C188.6 106.5 197 102.8 198.5 101.5C200.3 99.9 198.6 98.9 199.2 97.5C200.1 95.3 205 95.1001 206.5 92.6001C208.2 95.6001 210.7 98.0001 213.9 99.6001C216.4 100.9 219.2 98.4003 220.8 100.8C222.4 103.1 226 99.5003 227.9 101.8C228.9 103 229.6 107.7 226.4 106.6C225.7 110.6 227.4 113.6 228.1 117.5C229.5 116.5 233.6 117.9 233.3 119.6C232.9 122.2 238 121.6 238.3 124C238.9 123.7 239.4 123.4 240 123.1C241.5 126.5 244.4 119.5 249.1 126C247 127.6 247.1 124.6 245 126.1C243.1 127.5 242.2 129.4 239.9 129.7C237.4 130.1 239 132.2 237.8 133.8C236.7 135.3 231.6 136.8 234.5 134.1C233 133.7 230.5 136.1 230.3 136.9C229.1 136.2 229 133.8 226.9 134.4C227.4 135 228 135.5 228.8 135.9C226 138 232.1 141.8 225.9 140.8C226.4 142.2 226.1 146.1 224.4 147.1C224.6 147.2 224.8 147.2 225 147.1C224.7 148.2 219.2 153.2 218.4 152C212 155.6 214.8 163 211.6 168.4C209 172 212.8 172.9 212.5 176.2C213.8 173.9 213.8 177.4 214.6 178.6C218.1 183.8 225.8 185.6 224.2 193.1C223.4 192.4 222.4 192 221.2 191.9C224.9 192.5 226.1 197.1 228.7 199.4C230.6 201.1 237 204.4 234.8 207.9C237.2 206.6 240.3 211.1 241.4 212.5C240.8 212.2 240.2 212 239.5 211.8C242.1 213.5 244.4 215.4 245.9 218.1C248.7 215.2 252.9 221.8 251.4 223.3C252.8 222.4 251.2 219.6 253.6 220.9C249.2 224.3 260.5 232.2 260.4 235.2C261.7 232.6 261.9 234.8 262.6 236C263.7 237.8 261.8 237.1 261.9 238.5C264.7 245.5 266.6 252.8 268.3 260.2C268.4 260.9 268 264.6 267.5 261C267.2 263 268.9 268.8 267 265.3C267.4 266.5 268 267.5 268.9 268.4C266.1 268.8 268.2 270.1 268.4 271.7C269.3 275.7 271.6 279.1 270.2 283.6C269.4 282.8 268.9 281.8 268.7 280.7C265.7 282.3 268.1 285.7 268.8 287.6C267.9 287.1 267 286.7 265.9 286.4C267.1 287.6 267.9 293.9 267 295.7C267.1 294.6 266.9 293.7 266.4 292.8C267.2 294.3 266.3 295.8 265.7 297.2C269.6 297.6 264.9 301.8 264 302.1C263.6 305.7 260.9 306.5 258 308.5C255.6 311.2 253 311.8 249.9 313.4C249.2 313.8 247.8 317.2 247.3 317C243.6 317.2 239 320.9 235.9 322.8C235 320.8 232.3 320.8 232.3 318.2C232 319.2 231.7 320.3 231.4 321.3C231.2 320.5 231 319.7 230.6 318.9C231.2 320.6 231 320.5 229.9 318.6C231.6 318.6 228.3 317.6 228.4 317.6C228.7 319.4 227.8 321.7 225.6 321.1C226 322.7 228.6 320.2 228.9 322.6C229.4 325.6 224.2 324.1 223.1 324.1C224.9 325.6 227.9 325.3 229 327.6C227.2 327.9 226.9 330.7 225 329.2C223.7 328.3 222.9 325.4 221.2 325.2C222.3 326.5 227.7 331.2 226.7 332.7C223.1 331.2 221.4 327.6 218.5 325.3C219 327.7 229.5 334.9 224.5 337.5C221.2 339.2 216.3 330.8 214 329.4C220.2 336.4 223.9 340.7 212.2 343.9C206.9 346.2 204.9 357.8 197.8 354.2C198.6 353.2 199.6 352.6 200.8 352.4C200.6 351.8 200.4 351.1 200.3 350.5C199.7 350.8 199 351 198.3 351.2C198.8 345.7 197.2 340 199.2 334.6C199.7 333.4 202.5 328.4 202.9 332C203.2 326.2 192.1 327.1 193.4 322.1C193.1 323 192.7 322.9 192.2 322C195.8 318.4 198.4 322.1 201.6 317.2C203 315.6 200.9 314.1 202.5 312.6C205.6 316.6 212 308.9 214.4 313.3C215.4 315.2 217.7 315 219.5 315.6C219.7 314 218.1 312.6 220.1 312.4C220 309.7 216.6 309.6 215.6 307.7C214.2 304.5 213 301 216.7 298.9C218.2 296.9 222.3 299.8 224 300.2C223.2 298.5 224.6 296.5 223.5 294.9C228.8 295.8 232.5 291.7 236.5 289.1C237.8 288.7 239.6 288.9 240.7 287.9C243.8 285.2 240.1 277.9 240.8 274.5C243.5 268.9 240.3 265.4 240.1 260C239.5 258 238.4 258.2 238.5 255.5C239.1 251.1 242.9 247.3 241.7 242.8C239.5 240.8 241.8 241.3 243 239.1C246.4 229.9 227.6 231 240.4 222.8C238.4 222 235.9 220.4 234.8 218.6C234 217.3 232.9 218.4 232 216.5C230.1 213.3 227.3 218.7 226.1 210.8C226.4 201.5 215.9 198.8 212.1 191.3C210.6 189.5 210.7 184.1 207.5 185.1C205.8 183 201.8 180.2 203.7 177.1C205.4 175.6 198.6 174.2 198.1 174.1C193.6 173 191.2 167.7 186.9 166.5C185.7 166.2 182.4 164.5 185.4 163.3C189.7 161.5 184.8 160.4 185.8 158.3C186.3 157.2 191.5 158.8 192 158.9C194.1 159.2 200.7 155.6 197.7 154.8C201.2 153 202.5 149.2 197.5 148.7C194.4 148.2 198.3 145.6 191.6 144.8C192.3 143.2 194.5 143.6 194.8 142.3C195.4 140.1 193 139.3 191.7 138.2C187.7 133.6 183.5 136.5 181.3 140.8C179.8 139.8 177.6 137.9 175.7 138.2C170.3 137.6 167 130.6 168.9 125.6C170.5 122 167.4 122.8 167 120C167.3 121.2 166.9 122.2 165.9 123.1C164 122.5 164.1 119.1 162.6 117.8C160.8 115.8 157.5 112.6 156.7 110Z" fill="#414141" stroke="#2A2A2A" stroke-width="0.75" stroke-miterlimit="10" stroke-linecap="round" stroke-linejoin="round"/>
<path d="M125.1 392.7C127.2 387.4 126.2 385.6 130.6 391.4C133.5 392.4 135.8 391.1 136.7 395C138 396.9 141.7 396.5 140.4 400.3C139.8 402.1 137.2 407.3 141.9 406.2C144 405.7 144.6 402.2 147.1 401.8C149.1 401.5 149.8 405.4 151.7 404.7C153.2 404.1 155.8 397.6 155.9 396C160.6 396.3 161.2 400.7 163.8 403.7C167.9 407.1 171.5 410.2 173.8 415.2C180.4 426.3 174.6 433.8 176.8 443.7C178 447.8 175.4 452.8 177.7 456.9C184 462.7 186.9 470.6 189.8 478.7C191.4 484.9 184.3 481.5 187.5 479.3C186.3 479.3 185.2 478.6 184.7 477.5C184.9 477.9 186.1 482.1 184.4 480.8C182.7 479.6 178.7 482.3 177.1 483.1C174.8 476.5 166 475.6 162.2 470.1C158.3 468.2 153.4 466.1 151.3 461.8C150.7 460.6 149.7 460.4 148.5 460.1C146.6 459.6 145.8 457.9 144.3 456.8C142.9 455.8 143.2 455.5 144 454.4C145.7 448.4 138.4 444.6 136.5 439.7C135.8 437.9 132 436.9 136.5 435.5C133.9 435.9 131.4 430.4 132.2 428.5C133.7 424.8 131.8 420.8 129.7 418C127 409.9 130.8 401 125.1 392.7Z" fill="#777777" stroke="#2A2A2A" stroke-width="0.75" stroke-miterlimit="10" stroke-linecap="round" stroke-linejoin="round"/>
<path d="M456.1 402.9C461.7 399.8 448 397.2 450.6 402.1C452.1 401.4 455.6 401 456.1 402.9Z" fill="#606060" stroke="#2A2A2A" stroke-width="0.75" stroke-miterlimit="10" stroke-linecap="round" stroke-linejoin="round"/>
<path d="M465.3 390.7C466.7 395.6 470.7 391.7 471.8 388.8C467.6 387.8 468.3 386.5 464.1 389.2C464.4 389.8 464.9 390.2 465.3 390.7Z" fill="#606060" stroke="#2A2A2A" stroke-width="0.75" stroke-miterlimit="10" stroke-linecap="round" stroke-linejoin="round"/>
<path d="M492 345.6C494.6 345.5 493.6 343.1 492.7 341.9C491.2 342.6 490.1 344.7 492 345.6Z" fill="#606060" stroke="#2A2A2A" stroke-width="0.75" stroke-miterlimit="10" stroke-linecap="round" stroke-linejoin="round"/>
<path d="M510.6 345.9C511.4 344.4 510.2 342 508.4 343.5C508.6 344.7 509.4 345.6 510.6 345.9Z" fill="#606060" stroke="#2A2A2A" stroke-width="0.75" stroke-miterlimit="10" stroke-linecap="round" stroke-linejoin="round"/>
<path d="M393.1 354.6C392.2 356 392.4 357.6 391.9 359.2C394.5 355.9 420.5 338.1 415.3 334.1C417.7 334.7 416.1 333 416.4 331.6C417.7 328.2 423.7 330.9 423.9 326.4C426.3 321.2 434 324.9 428.5 315.7C427 312.4 430.5 307.8 428 305C426 306.6 427.6 312.5 425.2 310.2C425.7 311.4 427.1 314.9 427.1 316.2C425.7 315.4 424 314.4 423.6 312.7C423.4 314.6 424.2 316.1 424.6 317.8C425 319.5 422.4 324.8 421.7 321.1C420.7 323.8 418.9 321.7 419 326C418.7 326.7 417.3 325.8 416.9 326.4C416.3 327.4 417.6 328.2 416.7 329.3C416.4 324.7 412.6 334.7 411.1 335.3C408.4 338.2 407 342.5 402.7 343.2C399.5 346.8 394.7 349.7 393.1 354.6Z" fill="#606060" stroke="#2A2A2A" stroke-width="0.75" stroke-miterlimit="10" stroke-linecap="round" stroke-linejoin="round"/>
<path d="M435.7 289.5C435.3 289 434.8 288.7 434.3 288.3C431.2 293.2 437.6 294.1 441 294.1C441.5 290.5 437.7 291.4 435.7 289.5Z" fill="#606060" stroke="#2A2A2A" stroke-width="0.75" stroke-miterlimit="10" stroke-linecap="round" stroke-linejoin="round"/>
<path d="M435.5 319.8C435.6 317.2 432 319.6 431.8 321.3C433.7 322.1 433.6 319.5 435.5 319.8Z" fill="#606060" stroke="#2A2A2A" stroke-width="0.75" stroke-miterlimit="10" stroke-linecap="round" stroke-linejoin="round"/>
<path d="M440.7 268.2C440.9 269 443.8 271.7 444.5 272.3C447.5 274.9 446.4 278.3 448.5 281C449.4 282.2 455.2 295.2 457.6 287.6C458.1 286 459.2 284.6 459.7 283C460.2 281.4 458.8 280 459 278.4C459.4 274.6 457.7 272.2 455.5 269.7C453.8 267.7 443 265.7 440.7 268.2Z" fill="#606060" stroke="#2A2A2A" stroke-width="0.75" stroke-miterlimit="10" stroke-linecap="round" stroke-linejoin="round"/>
<path d="M432.8 220.9C431.7 224.2 434.4 223.7 434.5 225.6C433.8 231.5 436.8 236.2 437 241.8C437 243.4 439.2 247 439.3 243.3C441.9 244.3 439.6 249.7 442.7 250.6C447.3 252 444.3 246 444.7 244C462.7 251.2 441.3 249 445.7 262C447 261.9 447.6 261.1 447.2 259.9C449.9 259.9 450.9 261.4 450.1 264C451.4 260.9 453 263.6 452.2 265.2C459 266.8 458.3 260.2 463.8 259.5C468.1 262.5 474.2 266.1 475.4 271.6C476.6 275.2 478.9 271.8 477.4 269.5C477.3 269 475.5 266 476.6 266.4C474.4 264.9 475.5 261.8 474.1 259.8C477.4 259.3 479.9 263.1 481.1 265.3C482.8 268.3 486.3 268.4 487.6 272.1C487.9 273.1 486.7 274.9 488 275.2C489.5 275.5 490.7 276.6 492 277.3C495 280.6 495.9 277.3 498.9 277.1C498.5 278.9 495 279.7 496.3 281.8C496.5 282.2 498.9 286.1 499.8 284.2C501.3 281.2 501.2 270.7 495 274.6C495.2 271.4 494.9 268.7 491.8 266.8C488.5 264.8 496.3 262.8 498.1 263.9C498.1 261.7 494.6 260.9 492.9 260.7C489.9 260.4 489.7 257.9 487.3 257.4C486.4 259.5 489.8 262.4 486.4 263.6C483.9 264.4 484 258.8 483.2 257.1C481.6 253.5 473.1 250.3 472.3 257C472 256.4 471.7 255.8 471.4 255.2C469.1 257 473.1 258.2 471.7 259.5C466.4 264 458 248.4 463.4 246.5C456.5 241.2 459.4 231.4 461.3 224.5C463 221.4 467.3 221.2 469.7 218.9C469.3 219.7 469 220.6 468.6 221.4C471.5 215.8 475 209.3 475.6 203.1C473.4 204.1 474.7 201.2 474.2 200.3C469.5 196.2 468 189.8 471.8 184.1C472.9 182.3 471.2 177.4 469.2 180C466.9 185.7 465.3 181 461.9 182.8C460.1 179.7 455.7 176.7 451.9 177.4C450.7 177.8 449.5 177.2 448.4 177.1C447.3 177 448 178.5 446.9 178.5C444 178.5 445.6 180.1 445.3 181.7C444.8 184.7 443.3 188.4 442.4 191.4C440.8 196.9 444.4 201.8 442.4 207.7C440.8 212.5 442.3 216 442.3 220.5C442.3 226 434.9 218.7 434.6 216.3C432.4 217.3 432.3 219.3 432.8 220.9Z" fill="#606060" stroke="#2A2A2A" stroke-width="0.75" stroke-miterlimit="10" stroke-linecap="round" stroke-linejoin="round"/>
<path d="M464.6 241C464.8 242.8 465.3 246.3 467.2 247C468.4 244.8 468.7 237.7 464.6 241Z" fill="#606060" stroke="#2A2A2A" stroke-width="0.75" stroke-miterlimit="10" stroke-linecap="round" stroke-linejoin="round"/>
<path d="M464.1 268.5C463.6 271.8 468.5 274.3 469.2 269.6C469.7 267.2 465.3 265.9 464.1 268.5Z" fill="#606060" stroke="#2A2A2A" stroke-width="0.75" stroke-miterlimit="10" stroke-linecap="round" stroke-linejoin="round"/>
<path d="M464.7 298.1C469.4 298.9 467.9 302.7 467.4 306.3C466.7 311.5 466.1 316.5 465.3 321.7C468 322.3 470.3 317.6 473.3 317.6C475.3 317.6 479.2 314.8 478.8 312.8C478.5 311.1 484.8 310.5 484.2 308.1C483.4 304.9 486.2 300.5 480.6 304.2C482 302.8 480.3 301 478.8 301.3C477.4 301.6 476.3 303.4 475.2 302.1C473.5 298.2 469 298 466.5 295.2C465.7 296 465.1 297 464.7 298.1Z" fill="#606060" stroke="#2A2A2A" stroke-width="0.75" stroke-miterlimit="10" stroke-linecap="round" stroke-linejoin="round"/>
<path d="M467.3 285.2C466.8 287.9 465.5 290.1 467.3 292.4C468 289.4 468.5 286.3 469.5 283.4C470 281.7 466.1 282.8 467.3 285.2Z" fill="#606060" stroke="#2A2A2A" stroke-width="0.75" stroke-miterlimit="10" stroke-linecap="round" stroke-linejoin="round"/>
<path d="M466 379.9C465 384.1 470.6 385.8 471.3 381C471.6 379.2 472.6 374.3 474 373.8C475.1 373.4 476.3 366.9 478.6 368.8C480.3 370.2 479.4 373.1 480.7 374.6C481.3 372 482.1 373.3 482.8 374.6C483.5 373 483.1 370.8 485.2 370C486 371.1 485.8 372.3 484.7 373.2C486.7 373.3 487.8 375.8 489.9 375.4C488.7 373.4 487.9 372.1 490.5 371C491 369.4 489.2 369.8 491.4 368.2C492.7 367.3 493.9 368.9 494.8 369.5C502.8 373.6 503 376 498.4 383.4C498.2 389.7 499.9 397.1 506.4 399.6C518 406.4 512.6 400.7 518 398.7C516.3 414 524.1 407.5 525.2 397.5C524.9 393.6 522 391.9 520.7 388.8C519.9 386.9 525.3 376.2 526.9 377C528.1 377.6 530.6 383.7 531 385.1C530.9 388.8 531.6 391.9 533 395.2C533.2 391.8 535 387.3 532.6 384.4C533.9 383.8 534.9 384.6 535.3 385.7C532.6 381.6 541.9 381.7 538.5 370.4C538.2 367.9 535 367.9 536.4 365.2C537.3 363.6 537.6 359.6 534.7 360.9C539.7 356.8 531.1 355.5 531.3 353.4C534.6 349.4 536.4 350.9 532.5 345.6C532.3 344.8 533.4 341 531.9 341.7C527.6 343.7 529.6 337.7 526.3 337C523.5 336.1 523.1 333.5 520.6 332.4C517.8 337 524.4 343 521.8 347C520.1 347.5 517.7 347.1 517.1 345.2C515.4 349.5 516.9 349.9 513 347.1C509.3 344.4 512 354.9 508.8 355.4C506.7 355.7 506.5 353.2 504.6 354.1C502.6 355 502.9 358.6 502.2 360.2C501.3 362.2 498.4 361.3 496.9 362.5C496 363.2 494.4 364.8 493.3 364.9C492.1 365 494.9 363 494.7 363.2C498.5 362.5 495.1 350.4 491.8 354.4C491.5 353.2 490.8 351.7 489.3 351.7C489.9 355.8 484.9 354.2 483.6 356.4C481.8 366.8 473.9 359.8 469.8 366.7C469 371.5 468.8 376 466 379.9Z" fill="#606060" stroke="#2A2A2A" stroke-width="0.75" stroke-miterlimit="10" stroke-linecap="round" stroke-linejoin="round"/>
<path d="M475.3 285.2C474.7 285.5 474.2 285.9 473.7 286.4C474.9 287.4 476.1 288.4 477.1 289.5C478.7 287.5 477.7 285.2 475.3 285.2Z" fill="#606060" stroke="#2A2A2A" stroke-width="0.75" stroke-miterlimit="10" stroke-linecap="round" stroke-linejoin="round"/>
<path d="M476.4 339.5C481.5 341.6 480.5 341.1 482.2 345.9C483.7 347.3 486 345.6 486.9 344.2C488.6 341.5 485.9 339.7 485.3 337.4C484.2 333.1 486.3 326.8 487.9 322.6C491.5 317.4 492.5 310.6 484 312.5C481.2 313.7 482.1 316 481.2 318.2C478 321 481.1 324.2 479.8 327.6C475 332.2 469 327.5 476.4 339.5Z" fill="#606060" stroke="#2A2A2A" stroke-width="0.75" stroke-miterlimit="10" stroke-linecap="round" stroke-linejoin="round"/>
<path d="M475.2 322.3C476.6 321.7 480.1 317.6 477.4 316.9C475.4 316.4 474.3 321.2 475.2 322.3Z" fill="#606060" stroke="#2A2A2A" stroke-width="0.75" stroke-miterlimit="10" stroke-linecap="round" stroke-linejoin="round"/>
<path d="M488.4 281.8C487 279.1 485.4 275.3 482.4 274C480.6 276.6 487.4 280.1 488.4 281.8Z" fill="#606060" stroke="#2A2A2A" stroke-width="0.75" stroke-miterlimit="10" stroke-linecap="round" stroke-linejoin="round"/>
<path d="M485.5 294C485.4 294.5 485.3 295.1 485.2 295.6C493.5 285.9 489.8 293.1 498.8 298.4C501.6 294 495.8 291.3 494 288.9C492.3 286.6 489.1 284.2 486.2 283.6C486.6 285 485.8 288.7 486.3 289.6C487.7 291.7 485.9 291.8 485.5 294Z" fill="#606060" stroke="#2A2A2A" stroke-width="0.75" stroke-miterlimit="10" stroke-linecap="round" stroke-linejoin="round"/>
<path d="M493.1 285.2C493.5 286.3 494.2 287.2 495 288C494.9 286 494.6 283.6 492.8 282.5C492.2 283.6 492.3 284.4 493.1 285.2Z" fill="#606060" stroke="#2A2A2A" stroke-width="0.75" stroke-miterlimit="10" stroke-linecap="round" stroke-linejoin="round"/>
<path d="M489 329.5C489 332.6 487.9 335.6 487.4 338.6C491.6 339.7 491.3 329.7 493.1 327.7C499.8 322.8 498.7 314.9 499 307.6C496.9 308 495.6 314.4 495.1 316C493.6 320.8 490.3 324.8 489 329.5Z" fill="#606060" stroke="#2A2A2A" stroke-width="0.75" stroke-miterlimit="10" stroke-linecap="round" stroke-linejoin="round"/>
<path d="M501.6 267.2C505.7 264.6 506 258.7 501.1 257.8C499.2 260.8 499.6 265.1 501.6 267.2Z" fill="#606060" stroke="#2A2A2A" stroke-width="0.75" stroke-miterlimit="10" stroke-linecap="round" stroke-linejoin="round"/>
<path d="M496.1 334.5C495.4 340.2 506.1 333.7 507.4 334.2C507.1 319.2 493.4 330.8 496.1 334.5Z" fill="#606060" stroke="#2A2A2A" stroke-width="0.75" stroke-miterlimit="10" stroke-linecap="round" stroke-linejoin="round"/>
<path d="M502.8 285.2C504 290.4 509.3 297.4 514.4 298.3C513.6 299.8 513.5 301.7 511.6 302.3C512.4 303 513.1 303.9 513.5 305C510.5 302.4 509.2 311.1 504 302.6C502.3 304.4 504.2 313.1 506.3 314.1C506.3 310.1 510.5 315.3 510.3 317.3C510 322.4 508.8 326.4 514.1 328.9C514 327.3 513.3 325.9 513.3 324.3C519.3 327.3 517.2 320.6 515.5 317.6C512.7 314.8 515.7 309.9 513.5 306.9C514.8 306.6 517.9 310 517.9 309.9C519.4 308.3 524.3 310.3 525.6 311.1C524.6 309.8 524 308 522.3 307.4C524.8 305.6 520.7 300.4 520.7 298.3C520.7 296.1 521.9 294.1 520.9 292.2C520.2 291 523.2 291.3 520.9 289.9C519.7 289.1 518 289.7 518.3 287.7C518.7 283.9 512.5 284 509.9 284.8C507.6 285.7 505.2 283.5 502.8 285.2Z" fill="#606060" stroke="#2A2A2A" stroke-width="0.75" stroke-miterlimit="10" stroke-linecap="round" stroke-linejoin="round"/>
<path d="M506 303.6C508.6 304 507.3 297.9 503.9 299.8C504.4 301.1 504.6 302.8 506 303.6Z" fill="#606060" stroke="#2A2A2A" stroke-width="0.75" stroke-miterlimit="10" stroke-linecap="round" stroke-linejoin="round"/>
<path d="M522.9 329.5C524 330.3 524.1 331.6 523 332.6C526.7 332.2 524 327.1 523.6 324.9C523.5 323.7 524.3 322.8 524 321.7C521 322.9 523.2 325.4 521.4 327.3C522.6 327.5 523.3 328.3 522.9 329.5Z" fill="#606060" stroke="#2A2A2A" stroke-width="0.75" stroke-miterlimit="10" stroke-linecap="round" stroke-linejoin="round"/>
<path d="M530.1 329.5C529.3 330.5 528.4 334.7 530.8 334.1C533.2 333.6 531.7 329.8 530.1 329.5Z" fill="#606060" stroke="#2A2A2A" stroke-width="0.75" stroke-miterlimit="10" stroke-linecap="round" stroke-linejoin="round"/>
<path d="M513.5 304.9C513.7 305.5 513.7 306.1 513.6 306.8C513.4 306.2 513.4 305.6 513.5 304.9Z" fill="#606060" stroke="#2A2A2A" stroke-width="0.75" stroke-miterlimit="10" stroke-linecap="round" stroke-linejoin="round"/>
<path d="M492 311.3C499 308.5 491.5 305.5 492 311.3Z" fill="#606060" stroke="#2A2A2A" stroke-width="0.75" stroke-miterlimit="10" stroke-linecap="round" stroke-linejoin="round"/>
<path d="M159.6 271C159.8 269.5 159.9 267.9 159.5 266.4C169.2 265.3 167.7 246.8 182.8 251.9C184.4 253 187.1 252.4 189 251.8C191.5 251 193.2 252.4 195.8 251.3C200.5 249.5 202.3 256.3 204.7 252.3C204.3 258.5 212.2 254.2 214.2 258.3C215.2 260.3 219.3 260.4 219.3 257.4C219.3 255.7 215.8 253.6 218.2 252.1C219.2 251.4 220 252.8 220.5 251.2C220.9 249.9 221.9 250.4 222.9 250.3C224.1 250.2 224.1 248.5 225.2 248.4C226.6 248.3 227.7 250.2 228.6 250.9C232.5 254 238.8 249.5 241.4 246C241.3 247.1 241.4 248.4 240.8 249.5C240.2 250.7 238.3 251.3 238.6 252.8C237 260 243.7 264.6 241.6 271.7C237.8 277.5 244.2 282.3 239.9 288C238.8 290 238.5 287.4 236.9 288.2C232.8 291.6 229 294.3 223.5 294.5C224.7 296.1 223.3 298.1 224 299.8C222.3 299.5 218.2 296.5 216.7 298.5C213 300.6 214.1 304.1 215.6 307.3C216.5 309.2 220 309.3 220.1 312C218.1 312.3 219.7 313.6 219.5 315.2C213.8 314.8 215.5 312.1 212.4 311.4C209.3 312 205.1 314.9 202.5 312.2C200 318.6 202.3 318.5 194.1 319.9C192.4 320.6 192 321.6 190 320.8C188 319.9 183.9 319.3 183.1 317.3C183 322.6 174.2 319.1 180.2 316C182.6 311.3 177.2 304.4 175.7 313.6C174.3 312.4 173.3 314.2 172 313.5C169.2 311.8 173 304.7 171.1 302.8C170.1 302 167.9 299.4 170.7 299C169.6 298.4 168.7 299 168.4 300.2C169 297.7 167 295.5 166.3 293.3C165.5 290.9 167.1 287.5 165.8 285.3C163 280.9 161 276.5 159.6 271Z" fill="#606060" stroke="#2A2A2A" stroke-width="0.75" stroke-miterlimit="10" stroke-linecap="round" stroke-linejoin="round"/>
<path d="M124.4 146.2C126.9 134.2 128.2 141.1 133 136.6C129.6 138.4 132.9 133 133.5 132C134.3 128.1 140.6 128.5 141 124.5C143.4 125.9 140.2 132.7 145 130.9C147.8 129.8 147.7 131.1 149.9 131.9C153 133.1 150.6 129.2 150.6 129C151.2 125 152.8 121.9 149.6 118.4C148.6 116.7 147.7 115.2 147.9 113C147.9 112.5 150.4 107.2 151.1 108.3C151.8 109.4 151.5 110 153.6 109.5C157.2 108.4 160.1 115.9 163.5 117.9C164.8 119.2 164.2 122.2 166.1 122.8C167.1 121.9 167.5 120.9 167.2 119.7C167.4 121.5 169.6 121.1 169.7 123.2C165.5 134.6 172.7 136.3 181.4 140.5C183.2 136 188.5 134.1 192.1 137.8C196.7 141.4 195.5 141.5 191.6 144.5C197.5 145.1 194.1 146.8 198.1 148.3C202.3 150.7 200.5 151.1 197.7 154.5C200.6 155.4 194.1 159 192 158.6C191.5 158.5 186.3 156.9 185.8 158C185.3 159.1 187.3 160.9 186.6 162.7C184.8 162.7 182.8 164.6 185.2 165.4C189.2 166.7 193 170.5 196.3 173C197.6 174 204.5 174.1 203.9 176.6C203.5 178.5 202.2 179.1 203.7 180.9C204.8 182.3 206.7 184.4 208.2 184.4C209.8 184.4 210.4 187.1 210.8 188.2C212.8 191.8 217.3 199.3 221.1 200.6C222.8 200.1 223.5 205.4 225 206.1C227.1 207.8 225.3 213.3 228.4 215C232.8 213.4 231.1 216.7 234.1 217.9C236.2 218.4 238.1 221.5 240.3 222.4C233.8 228.2 235.1 227.2 240.8 232.7C241.7 234.9 244.3 234.9 242.7 238.1C242.2 239 241 240.1 240.9 241.1C242.2 244.3 241.5 248.2 237.5 248.5C235.1 249.1 234.1 252.1 230.9 252.2C227.8 252.2 227.7 248.2 225.8 247.9C224.5 247.7 225 249.5 224.1 249.8C222.2 250.4 217.5 250.9 217.6 253.5C218.3 255.2 220.4 257.1 218.5 259.1C216.1 261.5 212 254.9 208.4 256.1C206.4 256.8 203.7 253.4 205.8 251.8C207.3 250.6 210.1 249.5 210.1 247.4C210.1 245.4 211.3 242.4 211 240.7C208.4 237.9 208.7 238 210.9 234.8C210.3 235.1 209.8 235 209.4 234.7C209.3 233 213.4 230.9 211.2 228.3C210 226.9 204.7 225.3 208.5 223C189.2 215.9 203.9 203.2 195.1 194.5C189.9 191.3 189 183.4 182.7 182C181.9 181.8 171.2 178.6 174.4 182.6C171.8 183 172.1 186.6 170.8 187.8C170.3 188.3 167.7 188.3 166.5 189.2C164.7 190.6 164.3 189.1 163.2 188.3C161.5 186.9 158.6 184.9 156.4 184.2C154.2 183.5 153.5 188.1 151 186.5C150.3 190.6 145.1 193.4 142.4 196.2C138.4 198.8 137.2 192.9 139.6 190.2C142.2 186.6 140.7 182.6 140.3 178.8C141.4 177.2 142.8 176.2 142.4 174.2C143 171.4 144.2 169.8 143.2 167.1C142.2 162.2 143.7 156.2 136.1 160.3C135.3 161.7 135.3 160.5 134 160.7C131.8 161.1 130.9 160.3 130.2 158.2C129.1 155.3 133.6 151.8 132.2 149.7C129.7 145.8 129.3 143.9 124.9 147.3C124.5 147.2 124.5 146.7 124.4 146.2Z" fill="#818181" stroke="#2A2A2A" stroke-width="0.75" stroke-miterlimit="10" stroke-linecap="round" stroke-linejoin="round"/>
<path d="M274.3 470.5C275 470.3 276.2 473.4 277.3 474.2C280.8 476.5 289.8 479.9 291.1 480.4C293 481.1 294.1 479.6 295.7 481.4C297.2 483.1 296.9 483.2 296.1 480.2C295.6 478.3 301.4 461.9 302.2 460.6C305.3 455.4 323.2 455.3 326.8 451.4C330.7 448.7 331 443.2 334.5 440.2C339 436.3 343.4 432 343.9 426.1C348.9 426 347.3 434.6 352.6 435.6C355.4 435.7 357.9 429.6 362.6 430.6C362.9 427.7 362.4 424.5 361 422C359.3 418.8 362.8 420.7 364 419.8C373 413.2 358.2 416.8 367.8 408.1C367.2 411.8 372.1 407.8 373 406.2C374.4 403.8 374.9 401 376.2 398.6C381.8 395.3 382.5 388.4 386.4 383.5C388.3 385.9 385.7 388.4 386.5 391C388.2 389.9 390.2 383.5 392.3 383.9C392.4 383.9 396.8 395.3 397.8 390.2C397.9 392.3 401.8 393.3 401.4 395.8C401.1 397.5 398.8 396.9 399.3 399.2C399.9 401.9 399.5 402.6 396.7 403.6C398.4 402.6 400.1 403.7 401.7 402.8C403 402.1 403.8 400.3 405.5 401C408.7 402.4 405.5 404.7 403.8 405.3C404.6 410.6 411.2 398 414.2 409.1C416.1 407.2 419 410.6 419.6 412C421.2 410 425.2 411.6 425.1 413.9C425 417.3 417.4 420 414.7 419.8C412.8 419.7 405.9 417.2 407.7 422.4C408.5 424.4 413.2 425.3 412.7 427.8C414.2 426.9 415.3 428.2 414.4 429.6C413.4 431.1 411.4 430.7 409.9 430.9C405.3 431.3 403.3 432.5 399.5 429.1C399.8 434.6 398.1 433 393.7 431.8C389.7 430.7 376.6 433.4 371.6 429.7C368.5 433.6 366.3 438.6 367.2 443.9C367.8 446.2 366.4 453.7 362.5 453.8C358.2 453.9 360.6 461.3 361.7 462.8C359.3 463.6 352.8 467.6 355.5 470.8C357.1 472.6 352.4 481.1 351.7 481.6C349.2 481.7 343.2 481 341.4 481.9C339.1 483.2 338.5 485.2 335.3 484.7C333.2 484.4 329 482.9 327.8 481C323.5 477 310 488.9 310.2 488.9C306.9 489.6 302.5 489.8 299.4 488.7C292.4 488.8 292.2 494.8 285.2 489.4C281.8 487.1 278.6 483.6 275.8 480.5C274.9 479.3 270.3 473.2 274.3 470.5Z" fill="#777777" stroke="#2A2A2A" stroke-width="0.75" stroke-miterlimit="10" stroke-linecap="round" stroke-linejoin="round"/>
<path d="M186 492.3C185.8 492.3 185.6 492.2 185.4 492.2C185.2 492.1 185 492.1 184.7 492C184 491.8 183.8 491.7 183.7 491.3C183.7 491.2 183.6 491 183.4 490.8C182.9 490.2 182.8 489.8 182.7 489.6L182 488.7L181.9 488.6L181.5 487.2C181.5 487.1 181.5 487 181.5 486.9C181.6 486.8 181.6 486.7 181.7 486.7L183.1 486.4L184.3 486.3L185.1 486L186.7 484.7C186.8 484.7 186.8 484.6 186.9 484.6L188.3 484.4L190.9 484C190.9 484 190.9 484 191 484C191.1 484 191.2 484 191.2 484.1L192.2 484.8C192.3 484.8 192.3 484.9 192.3 485L192.7 486.4L193.5 488C193.5 488.1 193.5 488.1 193.5 488.2L193.4 490.1C193.4 490.2 193.3 490.3 193.3 490.4L192.3 491.3C192.2 491.4 192.1 491.4 192.1 491.4H192L190.1 490.9L188.2 490.5C187.9 490.8 187 491.6 186.7 491.9C186.6 492.1 186.3 492.3 186 492.3Z" fill="#B2B2B2"/>
<path d="M191 484.4L192 485.1L192.4 486.5L193.2 488.2L193.1 490.1L192.1 491L190.2 490.5L188.1 490.1C188.1 490.1 186.8 491.2 186.4 491.7C186.2 491.9 186.1 491.9 186 491.9C185.8 491.9 185.5 491.7 184.8 491.6C183.8 491.4 184.4 491.3 183.8 490.5C183.2 489.7 183.2 489.4 183.2 489.4L182.4 488.4L182 487L183.4 486.7L184.6 486.6L185.5 486.3L187.2 484.9L188.6 484.7L191 484.4ZM191 483.7H190.9L188.3 484.1L187 484.3C186.9 484.3 186.7 484.4 186.6 484.5L185 485.8L184.3 486L183.2 486.1H183.1L181.7 486.4C181.5 486.4 181.3 486.6 181.2 486.7C181.1 486.9 181.1 487.1 181.1 487.3L181.5 488.7C181.5 488.8 181.6 488.9 181.6 489L182.3 489.8C182.4 490.1 182.6 490.5 183 491C183.2 491.2 183.2 491.3 183.2 491.4C183.4 492 183.7 492.2 184.5 492.4C184.8 492.5 185 492.5 185.2 492.6C185.4 492.7 185.7 492.8 185.9 492.8C186.5 492.8 186.8 492.4 186.9 492.3C187.1 492 187.8 491.4 188.2 491L189.9 491.3L191.8 491.8C191.9 491.8 191.9 491.8 192 491.8C192.2 491.8 192.3 491.7 192.5 491.6L193.5 490.7C193.7 490.6 193.8 490.4 193.8 490.2L193.9 488.3C193.9 488.2 193.9 488.1 193.8 487.9L193 486.3L192.6 484.9C192.6 484.7 192.5 484.6 192.3 484.5L191.3 483.8C191.3 483.7 191.2 483.7 191 483.7Z" fill="#2A2A2A"/>
</svg>
