<svg width="500" height="500" viewBox="0 0 500 500" fill="none" xmlns="http://www.w3.org/2000/svg">
<g clip-path="url(#clip0_468_22282)">
<path d="M-178 340.333H678.072V159.668H-178V340.333ZM219.224 247.377C218.485 247.443 217.744 247.474 217.005 247.474C208.793 247.474 200.74 243.67 197.472 241.921C193.783 239.944 190.152 240.085 187.5 240.187C186.499 240.226 185.633 240.259 184.982 240.16C182.924 239.846 178.643 238.507 177.168 235.679C176.711 234.802 176.614 234.201 176.863 233.789C176.981 233.594 177.23 233.36 177.742 233.36C178.308 233.36 178.855 233.645 179.243 234.138C179.697 234.72 181.484 236.565 185.437 235.973C191.019 235.131 195.535 235.9 195.725 235.932C196.713 236.105 205.495 239.863 206.811 240.506C207.711 240.946 214.89 241.37 220.137 241.58C213 238.372 180.008 223.444 179.326 221.345L179.268 221.167L179.365 220.908C179.683 220.356 180.159 219.517 201.851 227.549C211.451 231.102 221.059 234.875 222.809 235.563C222.841 235.503 222.871 235.441 222.903 235.381L222.248 235.164C213.68 232.482 206.799 224.927 204.237 221.803C201.583 218.566 198.173 217.306 195.684 216.387C194.745 216.04 193.933 215.74 193.368 215.399C191.586 214.323 188.143 211.449 187.862 208.272C187.774 207.286 187.914 206.694 188.302 206.408C188.486 206.272 188.805 206.152 189.279 206.349C189.803 206.566 190.199 207.037 190.369 207.642C190.567 208.353 191.514 210.746 195.391 211.706C200.875 213.064 204.75 215.5 204.912 215.603C205.759 216.141 212.436 222.97 213.405 224.068C214.074 224.825 220.663 228.015 225.442 230.218C219.654 224.014 195.702 198.197 195.883 196.028L195.899 195.842L196.088 195.641C196.591 195.25 197.356 194.663 214.251 210.462C221.848 217.565 229.354 224.868 230.519 226.003C230.589 225.945 230.658 225.889 230.728 225.832L230.415 225.569C223.452 219.902 219.862 210.333 218.642 206.483C217.378 202.492 214.679 200.059 212.708 198.283C211.964 197.612 211.321 197.032 210.923 196.506C209.668 194.846 207.535 190.9 208.452 187.845C208.736 186.897 209.085 186.399 209.552 186.278C209.772 186.22 210.113 186.226 210.481 186.586C210.888 186.98 211.082 187.565 211.013 188.189C210.933 188.922 210.925 191.495 214.17 193.826C218.759 197.119 221.455 200.819 221.567 200.975C222.155 201.789 225.823 210.607 226.316 211.986C226.657 212.936 231.584 218.333 235.205 222.15C232.242 214.505 219.455 181.249 220.436 179.288L220.521 179.121L220.772 179.005C221.387 178.833 222.318 178.581 232.117 199.512C236.663 209.223 241.045 219.108 241.49 220.112C241.541 220.097 241.592 220.084 241.642 220.068L241.34 219.488C237.072 211.588 237.415 201.376 237.76 197.351C238.118 193.179 236.555 189.899 235.413 187.504C234.982 186.599 234.611 185.818 234.444 185.18C233.918 183.167 233.457 178.705 235.473 176.232C236.099 175.464 236.609 175.135 237.089 175.205C237.315 175.237 237.628 175.373 237.83 175.844C238.054 176.364 238.009 176.979 237.708 177.531C237.354 178.178 236.363 180.553 238.471 183.945C241.451 188.745 242.528 193.193 242.573 193.382C242.804 194.355 242.823 203.907 242.752 205.371C242.709 206.237 244.536 211.418 246.247 215.975C246.376 211.848 246.641 204.174 247.044 196.554C248.255 173.624 249.45 173.515 250.164 173.45C250.339 173.428 250.509 173.493 250.65 173.618C252.421 175.187 253.57 203.101 253.978 214.934C254.11 207.139 257.433 199.609 259.013 196.458C260.89 192.716 260.653 189.09 260.48 186.441C260.415 185.442 260.359 184.579 260.44 183.924C260.698 181.859 261.923 177.544 264.711 175.994C265.576 175.513 266.174 175.4 266.593 175.638C266.792 175.752 267.031 175.995 267.044 176.508C267.06 177.074 266.791 177.628 266.306 178.028C265.738 178.498 263.938 180.337 264.638 184.27C265.628 189.827 264.98 194.362 264.953 194.553C264.807 195.544 261.285 204.422 260.676 205.756C260.286 206.61 260.058 212.985 259.974 218.104C261.482 214.716 264.993 206.88 268.607 199.153C278.399 178.222 279.33 178.471 279.944 178.646L280.123 178.696L280.278 178.929C281.276 180.921 268.035 215.305 265.371 222.177L265.221 222.565L265.109 222.523C265.202 222.573 265.293 222.625 265.385 222.676L265.443 222.485C267.943 213.862 275.352 206.824 278.421 204.198C281.602 201.475 282.788 198.04 283.656 195.532C283.983 194.585 284.266 193.768 284.594 193.196C285.633 191.392 288.433 187.89 291.606 187.54C292.587 187.434 293.184 187.56 293.476 187.942C293.616 188.123 293.743 188.439 293.557 188.919C293.351 189.447 292.889 189.853 292.288 190.034C291.581 190.247 289.209 191.245 288.33 195.14C287.088 200.649 284.734 204.576 284.634 204.741C284.115 205.6 277.427 212.419 276.35 213.411C275.604 214.1 272.526 220.82 270.424 225.651C272.342 223.783 279.288 217.039 286.316 210.463C303.186 194.675 303.958 195.256 304.465 195.642L304.613 195.756L304.67 196.029C304.856 198.248 279.81 225.208 274.76 230.62C274.797 230.667 274.833 230.713 274.869 230.759C280.478 223.758 290.003 220.092 293.84 218.839C297.82 217.542 300.23 214.822 301.989 212.836C302.654 212.086 303.228 211.439 303.751 211.036C305.4 209.765 309.325 207.598 312.392 208.491C313.342 208.767 313.843 209.113 313.967 209.577C314.026 209.797 314.022 210.138 313.668 210.51C313.276 210.92 312.696 211.119 312.069 211.056C311.332 210.98 308.76 210.998 306.459 214.261C303.202 218.881 299.527 221.607 299.372 221.72C298.567 222.312 289.778 226.058 288.404 226.563C287.482 226.902 282.407 231.602 278.646 235.221C281.679 234.031 290.196 230.706 298.709 227.551C320.38 219.521 320.863 220.357 321.181 220.91L321.273 221.073L321.22 221.347C320.656 223.082 298.069 233.567 286.2 238.973C292.768 236.94 299.63 237.051 302.762 237.254C306.945 237.519 310.187 235.892 312.558 234.7C313.453 234.25 314.226 233.861 314.861 233.68C316.862 233.113 321.313 232.558 323.83 234.521C324.61 235.13 324.946 235.636 324.89 236.115C324.863 236.342 324.734 236.657 324.266 236.87C323.751 237.106 323.136 237.074 322.579 236.784C321.924 236.444 319.528 235.504 316.181 237.681C311.451 240.759 307.021 241.932 306.835 241.981C305.861 242.233 296.314 242.452 294.851 242.411C294.847 242.411 294.841 242.411 294.835 242.411C293.712 242.411 286.243 245.321 281.378 247.325C281.389 247.449 281.397 247.574 281.407 247.698C284.124 247.716 293.788 247.792 303.376 248.044C326.482 248.65 326.617 249.604 326.705 250.236L326.731 250.42L326.579 250.656C325.455 252.002 302.411 253.287 289.06 253.922C295.34 254.77 300.972 257.218 303.59 258.506C307.346 260.353 310.972 260.085 313.617 259.891C314.617 259.816 315.48 259.754 316.136 259.831C318.202 260.071 322.527 261.261 324.101 264.037C324.589 264.899 324.706 265.496 324.47 265.916C324.359 266.116 324.118 266.357 323.605 266.374C323.584 266.375 323.564 266.375 323.544 266.375C322.999 266.375 322.469 266.114 322.079 265.65C321.604 265.085 319.751 263.301 315.825 264.031C310.277 265.067 305.736 264.456 305.544 264.43C304.552 264.291 295.643 260.842 294.307 260.245C293.54 259.903 288.361 259.725 283.613 259.661C287.498 261.489 294.124 264.626 300.668 267.839C321.417 278.025 321.14 278.949 320.957 279.56L320.903 279.738L320.668 279.889C320.602 279.921 320.499 279.936 320.362 279.936C316.463 279.936 285.07 267.182 277.969 264.276C277.785 264.628 277.595 264.973 277.398 265.317L277.842 265.46C286.431 268.077 293.369 275.579 295.953 278.683C298.631 281.901 302.05 283.133 304.547 284.033C305.49 284.373 306.303 284.667 306.87 285.003C308.661 286.065 312.125 288.914 312.431 292.089C312.526 293.074 312.391 293.666 312.005 293.955C311.889 294.042 311.72 294.122 311.493 294.122C311.358 294.122 311.204 294.094 311.028 294.023C310.503 293.811 310.103 293.343 309.929 292.739C309.726 292.03 308.76 289.644 304.876 288.713C299.384 287.397 295.488 284.99 295.325 284.888C294.475 284.358 287.745 277.579 286.767 276.488C286.162 275.814 280.791 273.223 276.23 271.133C279.037 274.14 284.387 279.902 289.622 285.712C305.095 302.884 304.495 303.638 304.098 304.138L303.982 304.283L303.707 304.335C303.702 304.335 303.694 304.335 303.688 304.335C301.378 304.335 275.858 279.754 269.976 274.059C269.742 274.25 269.504 274.436 269.263 274.621L269.425 274.758C276.361 280.461 279.903 290.045 281.103 293.902C282.349 297.9 285.036 300.346 286.998 302.133C287.739 302.808 288.379 303.39 288.773 303.917C290.02 305.583 292.132 309.54 291.202 312.592C290.913 313.538 290.56 314.035 290.093 314.153C290.033 314.167 289.964 314.178 289.889 314.178C289.685 314.178 289.431 314.102 289.165 313.839C288.761 313.444 288.569 312.858 288.64 312.234C288.723 311.501 288.744 308.927 285.511 306.582C280.936 303.262 278.26 299.551 278.149 299.395C277.565 298.579 273.941 289.742 273.454 288.361C273.121 287.414 268.273 282.05 264.677 278.219C265.83 281.153 269.199 289.774 272.393 298.389C280.428 320.062 279.592 320.54 279.038 320.858L278.876 320.95L278.601 320.897C276.729 320.289 264.663 294.039 259.788 283.286C262.702 290.608 262.467 298.971 262.19 302.522C261.865 306.697 263.453 309.965 264.613 312.351C265.051 313.252 265.43 314.03 265.601 314.667C266.141 316.676 266.636 321.135 264.639 323.623C264.07 324.333 263.591 324.668 263.146 324.668C263.107 324.668 263.069 324.666 263.031 324.661C262.805 324.631 262.491 324.498 262.285 324.028C262.057 323.509 262.097 322.894 262.394 322.341C262.743 321.691 263.716 319.309 261.583 315.933C258.568 311.161 257.456 306.715 257.41 306.528C257.171 305.554 257.081 296.004 257.141 294.54C257.184 293.497 254.469 286.218 252.528 281.301C252.497 283.589 252.35 293.604 252.017 303.534C251.242 326.635 250.286 326.762 249.654 326.846L249.469 326.871L249.235 326.717C247.854 325.548 246.712 301.064 246.196 287.948C245.358 294.5 242.684 300.418 241.312 303.117C239.415 306.848 239.633 310.476 239.791 313.125C239.852 314.125 239.904 314.989 239.818 315.643C239.55 317.707 238.302 322.015 235.505 323.55C234.933 323.864 234.478 324.019 234.114 324.019C233.926 324.019 233.764 323.978 233.621 323.896C233.423 323.782 233.185 323.539 233.173 323.026C233.16 322.46 233.432 321.907 233.918 321.509C234.489 321.042 236.299 319.212 235.621 315.277C234.66 309.713 235.332 305.181 235.361 304.991C235.513 303.998 239.082 295.139 239.698 293.812C240.024 293.105 240.26 288.597 240.395 284.159C235.289 295.39 223.788 320.306 221.963 320.898L221.785 320.956L221.526 320.859C220.973 320.541 220.134 320.062 228.176 298.39C231.664 288.99 235.359 279.586 236.155 277.568C236.043 277.51 235.931 277.455 235.82 277.396L235.655 277.883C232.922 286.435 225.325 293.27 222.187 295.811C218.933 298.445 217.654 301.846 216.718 304.331C216.365 305.268 216.061 306.078 215.716 306.641C214.629 308.416 211.734 311.842 208.555 312.104C208.378 312.119 208.214 312.126 208.062 312.126C207.367 312.126 206.927 311.972 206.695 311.652C206.561 311.467 206.442 311.148 206.641 310.674C206.86 310.152 207.334 309.758 207.94 309.593C208.652 309.399 211.05 308.467 212.034 304.596C213.425 299.123 215.885 295.26 215.989 295.098C216.53 294.255 223.402 287.619 224.505 286.656C225.293 285.969 228.715 278.976 230.948 274.184C230.86 274.113 230.769 274.046 230.683 273.975C224.972 279.503 199.182 304.338 196.856 304.338C196.85 304.338 196.843 304.338 196.837 304.338L196.651 304.326L196.446 304.14C196.048 303.64 195.448 302.886 210.933 285.714C217.703 278.205 224.658 270.785 226.066 269.287C226.028 269.24 225.991 269.191 225.953 269.144L225.455 269.73C219.746 276.657 210.157 280.19 206.298 281.387C202.299 282.627 199.849 285.312 198.061 287.272C197.386 288.012 196.802 288.65 196.275 289.046C194.896 290.076 191.948 291.696 189.244 291.696C188.679 291.696 188.125 291.625 187.597 291.464C186.651 291.174 186.156 290.821 186.037 290.354C185.98 290.133 185.99 289.792 186.35 289.426C186.748 289.022 187.335 288.831 187.957 288.904C188.692 288.984 191.263 289.01 193.612 285.78C196.93 281.217 200.65 278.538 200.806 278.425C201.625 277.843 210.465 274.227 211.846 273.743C212.859 273.387 218.939 267.867 222.781 264.242C222.775 264.23 222.769 264.219 222.763 264.208C215.985 266.98 184.102 279.937 180.167 279.937C180.031 279.937 179.929 279.922 179.862 279.89L179.694 279.809L179.573 279.561C179.389 278.95 179.112 278.026 199.877 267.84C205.351 265.156 210.88 262.522 214.82 260.663C208.015 262.713 200.83 262.401 197.609 262.105C193.438 261.722 190.151 263.266 187.748 264.393C186.841 264.819 186.057 265.187 185.418 265.349C184.548 265.57 183.22 265.777 181.796 265.777C179.92 265.777 177.875 265.42 176.477 264.265C175.714 263.635 175.391 263.12 175.461 262.643C175.494 262.417 175.631 262.105 176.103 261.905C176.626 261.685 177.24 261.732 177.789 262.038C178.434 262.396 180.802 263.401 184.208 261.314C189.025 258.364 193.481 257.314 193.668 257.271C194.644 257.046 204.196 257.086 205.658 257.165C206.465 257.196 210.987 255.661 215.282 254.098C203.123 253.552 175.187 252.143 173.948 250.657L173.829 250.514L173.823 250.238C173.912 249.606 174.045 248.651 197.169 248.046C207.02 247.788 216.959 247.713 219.364 247.699C219.372 247.59 219.38 247.481 219.389 247.372L219.224 247.377Z" fill="#F4F4F4"/>
<path d="M258.87 281.228C258.658 280.757 258.47 280.341 258.315 279.996C258.292 280.002 258.27 280.009 258.247 280.015L258.456 280.408C258.604 280.677 258.733 280.954 258.87 281.228Z" fill="#F4F4F4"/>
<path d="M254.067 217.379C254.086 217.972 254.103 218.493 254.116 218.909L254.119 219.037C254.151 219.04 254.185 219.045 254.217 219.049L254.146 218.342C254.109 218.021 254.092 217.7 254.067 217.379Z" fill="#F4F4F4"/>
<path d="M678.072 0H-178V159.667H678.072V0Z" fill="#74A9DA"/>
<path d="M678.072 340.333H-178V500H678.072V340.333Z" fill="#74A9DA"/>
<path d="M258.339 245.698C258.339 245.036 258.673 244.452 259.182 244.106C257.469 244.548 256.246 245.744 255.824 246.212C257.053 246.909 258.226 247.243 259.304 247.359C258.73 247.024 258.339 246.41 258.339 245.698Z" fill="#FABD4A"/>
<path d="M237.987 245.698C237.987 245.036 238.321 244.452 238.83 244.106C237.116 244.548 235.894 245.744 235.472 246.212C236.701 246.909 237.873 247.243 238.952 247.359C238.378 247.024 237.987 246.41 237.987 245.698Z" fill="#FABD4A"/>
<path d="M240.777 243.984C241.405 244.302 241.841 244.946 241.841 245.698C241.841 246.395 241.467 247.002 240.911 247.339C242.781 247.095 244.147 246.286 244.646 245.949C243.371 244.801 242.079 244.151 240.777 243.984Z" fill="#FABD4A"/>
<path d="M253.908 261.17C253.318 260.893 252.57 260.728 252.075 260.979C251.58 261.378 250.807 261.753 250.049 261.78C249.664 261.793 249.273 261.748 248.908 261.628C248.725 261.571 248.551 261.496 248.377 261.416C248.209 261.33 248.026 261.22 247.961 261.195C247.53 261.039 246.828 261.242 246.224 261.468C244.99 261.952 243.755 262.747 242.779 263.584L244.692 264.251C245.355 264.461 245.936 264.882 246.509 265.196C247.092 265.51 247.69 265.869 248.242 266.104C248.815 266.332 249.416 266.465 250.026 266.451C250.627 266.444 251.272 266.336 251.788 266.101C252.057 265.98 252.315 265.82 252.558 265.631C252.794 265.451 253.024 265.214 253.317 264.976C254.333 264.172 255.51 263.702 256.732 263.44C255.921 262.529 255.009 261.682 253.908 261.17ZM249.922 264.212C249.114 264.195 248.307 264.126 247.517 263.957C246.728 263.796 245.947 263.566 245.223 263.193C246.836 263.243 248.378 263.339 249.932 263.344C250.707 263.364 251.48 263.344 252.26 263.323L254.631 263.229C253.18 263.955 251.534 264.227 249.922 264.212Z" fill="#FABD4A"/>
<path d="M261.131 243.984C261.758 244.302 262.194 244.946 262.194 245.698C262.194 246.395 261.82 247.002 261.265 247.339C263.134 247.095 264.501 246.286 264.999 245.949C263.724 244.801 262.433 244.15 261.131 243.984Z" fill="#FABD4A"/>
<path d="M221.131 244.174C220.768 246.032 220.571 247.951 220.571 249.914C220.571 266.361 233.951 279.74 250.397 279.74C266.844 279.74 280.223 266.361 280.223 249.914C280.223 233.468 266.844 220.088 250.397 220.088C236.822 220.088 225.345 229.207 221.748 241.639L221.784 241.64L221.131 244.174ZM244.775 244.282L244.355 244.035L243.906 243.848L243.018 243.471L242.094 243.221C241.792 243.113 241.471 243.106 241.16 243.055C240.847 243.003 240.532 242.97 240.215 242.992C238.95 242.955 237.684 243.235 236.477 243.698C235.875 243.939 235.281 244.216 234.718 244.555C234.131 244.86 233.591 245.244 233.047 245.642C233.88 244.576 234.983 243.73 236.202 243.092C237.422 242.449 238.821 242.105 240.226 242.124C241.619 242.172 243.038 242.501 244.213 243.243C244.846 243.528 245.336 244.036 245.885 244.431C246.372 244.906 246.831 245.408 247.267 245.914C246.692 245.548 246.188 245.118 245.628 244.77L244.775 244.282ZM245.319 245.983L245.124 246.139C245.094 246.164 242.944 247.849 239.828 247.849C238.394 247.849 236.756 247.492 235.026 246.454L234.816 246.328L234.966 246.135C235.042 246.038 236.852 243.74 239.689 243.517C241.538 243.373 243.366 244.145 245.137 245.812L245.319 245.983ZM239.356 249.659C237.211 249.55 235.075 248.516 233.888 246.784C234.724 247.398 235.613 247.871 236.539 248.212C237.467 248.543 238.423 248.759 239.397 248.794C240.368 248.819 241.348 248.739 242.318 248.511C242.809 248.426 243.278 248.242 243.772 248.122C244.253 247.963 244.725 247.772 245.231 247.626C244.82 247.94 244.39 248.238 243.944 248.513C243.473 248.732 243.014 249.011 242.506 249.162C241.514 249.54 240.433 249.675 239.356 249.659ZM253.366 270.333C253.038 269.98 252.693 269.65 252.364 269.322C251.648 268.737 250.858 268.278 250.029 268.302C249.203 268.301 248.391 268.765 247.676 269.354C246.961 269.956 246.313 270.679 245.693 271.452C246.001 270.504 246.517 269.623 247.211 268.866C247.893 268.12 248.86 267.464 250.015 267.436C251.175 267.424 252.156 268.092 252.841 268.842C253.16 269.243 253.455 269.661 253.713 270.088C253.93 270.543 254.145 270.992 254.323 271.454C253.978 271.085 253.672 270.707 253.366 270.333ZM257.248 263.836C256.01 264.208 254.795 264.794 253.844 265.609C253.622 265.804 253.392 266.061 253.104 266.305C252.826 266.54 252.518 266.754 252.181 266.924C251.478 267.263 250.761 267.373 250.021 267.376C249.287 267.358 248.544 267.198 247.894 266.861C247.229 266.519 246.729 266.086 246.189 265.662C245.649 265.226 245.19 264.765 244.594 264.469C244.004 264.154 243.373 263.913 242.748 263.668C242.724 263.667 242.712 263.59 242.727 263.591L242.737 263.574L242.76 263.543L242.805 263.494L242.897 263.4L243.088 263.221L243.478 262.878L244.272 262.203C244.807 261.757 245.366 261.334 245.983 260.97C246.292 260.79 246.618 260.622 246.982 260.514C247.341 260.403 247.757 260.327 248.215 260.471C248.472 260.571 248.584 260.643 248.721 260.717C248.862 260.782 249.001 260.846 249.147 260.893C249.437 260.988 249.735 261.057 250.041 261.063C250.673 261.097 251.235 260.93 251.875 260.555C252.281 260.4 252.671 260.456 253.023 260.539C253.38 260.619 253.707 260.764 254.024 260.917C255.289 261.549 256.358 262.466 257.381 263.418L257.686 263.702L257.248 263.836ZM264.298 248.512C263.827 248.731 263.368 249.009 262.86 249.161C261.867 249.54 260.786 249.676 259.711 249.659C257.565 249.55 255.429 248.516 254.242 246.784C255.078 247.398 255.968 247.871 256.894 248.212C257.821 248.543 258.778 248.759 259.751 248.794C260.722 248.819 261.702 248.739 262.672 248.511C263.164 248.426 263.632 248.242 264.126 248.122C264.607 247.963 265.08 247.772 265.585 247.626C265.175 247.939 264.744 248.237 264.298 248.512ZM265.477 246.139C265.447 246.164 263.297 247.849 260.181 247.849C258.747 247.849 257.109 247.492 255.379 246.454L255.169 246.328L255.319 246.135C255.394 246.038 257.205 243.74 260.042 243.517C261.891 243.373 263.719 244.145 265.49 245.812L265.673 245.983L265.477 246.139ZM265.982 244.772L265.128 244.283L264.708 244.036L264.259 243.849L263.371 243.472L262.447 243.222C262.145 243.115 261.824 243.108 261.513 243.057C261.2 243.005 260.885 242.971 260.568 242.993C259.303 242.956 258.037 243.237 256.83 243.7C256.228 243.94 255.634 244.217 255.071 244.556C254.484 244.861 253.944 245.245 253.4 245.643C254.233 244.577 255.336 243.732 256.555 243.093C257.775 242.45 259.174 242.106 260.579 242.125C261.972 242.173 263.391 242.503 264.566 243.244C265.199 243.529 265.689 244.037 266.238 244.433C266.725 244.907 267.184 245.41 267.62 245.915C267.046 245.549 266.542 245.121 265.982 244.772ZM258.333 238.209C264.116 237.123 269.032 243.093 269.032 243.093C266.42 242.532 265.735 238.842 258.136 239.566C250.535 240.289 251.561 247.816 251.669 248.793C251.777 249.77 253.92 253.587 253.92 253.587C253.885 254.564 253.038 254.221 253.038 254.221C248.175 241.627 252.551 239.293 258.333 238.209ZM251.536 256.943C251.938 256.705 252.268 256.323 252.58 255.926L252.882 255.542L253.182 255.89C253.465 256.218 253.782 256.561 254.12 256.835C254.451 257.103 254.857 257.36 255.149 257.299C255.447 257.265 255.644 256.799 255.744 256.371C255.837 255.922 255.857 255.453 255.899 254.98C255.976 255.446 256.039 255.919 256.019 256.408C256 256.651 255.981 256.903 255.883 257.153C255.798 257.393 255.609 257.69 255.285 257.777C254.634 257.953 254.145 257.613 253.735 257.359C253.45 257.162 253.193 256.944 252.947 256.712C252.684 257.06 252.388 257.393 251.995 257.644C251.496 258.004 250.836 258.201 250.206 258.153C249.573 258.115 248.994 257.882 248.489 257.585C248.093 257.35 247.751 257.065 247.426 256.746C247.14 257.016 246.84 257.277 246.489 257.494C246.248 257.633 246.005 257.776 245.689 257.836C245.387 257.919 244.949 257.802 244.741 257.526C244.356 256.984 244.394 256.433 244.404 255.919C244.433 255.401 244.511 254.894 244.645 254.402C244.637 254.911 244.641 255.417 244.697 255.91C244.758 256.388 244.869 256.917 245.118 257.189C245.334 257.425 245.745 257.233 246.113 256.945C246.476 256.654 246.818 256.305 247.148 255.944L247.413 255.654L247.722 255.953C248.423 256.63 249.345 257.239 250.254 257.29C250.706 257.33 251.152 257.209 251.536 256.943ZM242.057 238.209C247.864 239.295 252.261 241.629 247.377 254.22C247.377 254.22 246.526 254.563 246.49 253.586C246.49 253.586 248.642 249.768 248.751 248.791C248.86 247.815 249.892 240.288 242.256 239.565C234.621 238.841 233.934 242.532 231.311 243.092C231.311 243.092 236.249 237.123 242.057 238.209Z" fill="#FABD4A"/>
<path d="M222.872 264.162L222.868 264.163C222.841 264.174 222.806 264.188 222.778 264.2C222.784 264.211 222.79 264.222 222.796 264.233L222.8 264.23L222.872 264.162Z" fill="#83371B"/>
<path d="M219.926 247.688L220.372 247.686L220.061 253.415L220.73 257.893L220.822 257.85L223.238 263.965L226.186 268.878L225.967 269.135C226.005 269.183 226.042 269.231 226.08 269.279C226.24 269.109 226.346 268.994 226.354 268.986L226.66 268.662L231.208 273.473L230.91 273.762C230.847 273.823 230.766 273.9 230.698 273.967C230.784 274.038 230.875 274.105 230.963 274.175C231.027 274.038 231.093 273.897 231.155 273.763L231.375 273.289L236.024 276.825L235.835 277.388C235.945 277.447 236.058 277.501 236.17 277.559C236.267 277.312 236.324 277.168 236.328 277.158L236.492 276.743L241.367 279.01L246.212 280.147L246.261 280.655L252.177 280.377L252.173 280.37L257.938 279.429L258.248 280.014C258.27 280.008 258.293 280.001 258.315 279.995C258.305 279.97 258.289 279.938 258.279 279.914L258.108 279.536L264.03 276.781L268.593 274.035L269.275 274.614C269.515 274.431 269.753 274.245 269.988 274.053C269.886 273.955 269.776 273.848 269.686 273.76L269.388 273.472L273.933 268.66L274.07 268.806L276.802 265.11L277.411 265.307C277.607 264.964 277.798 264.618 277.982 264.266C277.898 264.232 277.799 264.191 277.722 264.159L277.339 264.002L279.636 258.182L280.561 253.991L280.218 247.682L280.665 247.685C280.681 247.685 280.949 247.686 281.42 247.689C281.411 247.565 281.403 247.441 281.392 247.316C281.347 247.335 281.297 247.355 281.252 247.373L280.769 247.572L279.75 241.821L279.843 241.77L277.373 236.458L277.243 236.584L274.164 231.621L274.869 230.768C274.873 230.762 274.878 230.757 274.883 230.753C274.846 230.706 274.811 230.66 274.774 230.614C274.77 230.618 274.767 230.622 274.763 230.626L274.48 230.929L269.938 226.796L269.875 226.943L265.131 223.534L265.399 222.667C265.307 222.616 265.215 222.564 265.123 222.515L259.956 220.586L259.954 220.743L254.261 219.439L254.222 219.045C254.19 219.041 254.158 219.037 254.125 219.033L254.135 219.372L247.617 219.514L247.637 219.566L241.865 220.464L241.657 220.063C241.606 220.079 241.555 220.092 241.505 220.107C241.528 220.157 241.543 220.192 241.546 220.197L241.726 220.605L235.843 222.798C235.862 222.818 235.883 222.84 235.903 222.861L236.264 223.239L231.276 226.277L230.742 225.828C230.672 225.885 230.602 225.941 230.533 225.999C230.629 226.093 230.697 226.159 230.703 226.165L231.022 226.477L226.423 230.658L226.817 230.838L223.31 235.508L222.913 235.378C222.881 235.438 222.851 235.5 222.82 235.56C222.995 235.629 223.093 235.668 223.103 235.671L223.518 235.836L220.835 241.603C220.98 241.609 221.129 241.615 221.269 241.619L221.756 241.637C225.353 229.205 236.83 220.086 250.405 220.086C266.852 220.086 280.232 233.465 280.232 249.912C280.232 266.358 266.852 279.738 250.405 279.738C233.959 279.738 220.579 266.358 220.579 249.912C220.579 247.949 220.775 246.03 221.139 244.172L220.335 247.295L219.411 247.362C219.401 247.471 219.393 247.58 219.386 247.689C219.721 247.688 219.911 247.688 219.926 247.688Z" fill="#83371B"/>
<path d="M264.566 243.244C263.392 242.503 261.972 242.174 260.579 242.125C259.174 242.106 257.773 242.45 256.555 243.093C255.336 243.732 254.233 244.578 253.4 245.643C253.943 245.245 254.483 244.86 255.071 244.556C255.635 244.217 256.228 243.94 256.83 243.7C258.037 243.237 259.303 242.956 260.568 242.993C260.885 242.971 261.199 243.003 261.513 243.057C261.825 243.108 262.146 243.115 262.447 243.222L263.371 243.472L264.259 243.849L264.708 244.036L265.128 244.283L265.982 244.772C266.542 245.121 267.048 245.55 267.621 245.916C267.185 245.411 266.727 244.909 266.239 244.434C265.689 244.037 265.2 243.53 264.566 243.244Z" fill="#83371B"/>
<path d="M260.043 243.516C257.206 243.739 255.395 246.037 255.319 246.134L255.17 246.327L255.38 246.453C257.11 247.491 258.748 247.848 260.181 247.848C263.297 247.848 265.447 246.163 265.478 246.138L265.672 245.981L265.49 245.811C263.719 244.145 261.891 243.372 260.043 243.516ZM260.266 247.625C259.915 247.625 259.589 247.523 259.305 247.359C258.226 247.243 257.054 246.91 255.825 246.211C256.248 245.743 257.47 244.547 259.183 244.106C259.492 243.895 259.865 243.771 260.266 243.771C260.579 243.771 260.869 243.852 261.13 243.984C262.432 244.151 263.723 244.801 264.997 245.948C264.499 246.286 263.132 247.095 261.262 247.338C260.972 247.517 260.634 247.625 260.266 247.625Z" fill="#83371B"/>
<path d="M262.193 245.698C262.193 244.946 261.758 244.302 261.13 243.985C260.869 243.853 260.578 243.771 260.266 243.771C259.864 243.771 259.491 243.896 259.183 244.107C258.674 244.453 258.34 245.037 258.34 245.698C258.34 246.41 258.731 247.025 259.305 247.358C259.589 247.523 259.915 247.625 260.266 247.625C260.634 247.625 260.972 247.517 261.263 247.339C261.819 247.001 262.193 246.396 262.193 245.698Z" fill="#83371B"/>
<path d="M262.672 248.509C261.702 248.736 260.722 248.817 259.751 248.792C258.777 248.757 257.819 248.542 256.893 248.21C255.967 247.869 255.078 247.396 254.242 246.782C255.429 248.515 257.565 249.548 259.711 249.657C260.786 249.673 261.867 249.538 262.86 249.159C263.368 249.007 263.825 248.729 264.298 248.51C264.744 248.235 265.175 247.937 265.585 247.623C265.079 247.769 264.607 247.959 264.126 248.119C263.632 248.24 263.163 248.423 262.672 248.509Z" fill="#83371B"/>
<path d="M242.257 239.564C249.892 240.287 248.861 247.814 248.752 248.791C248.643 249.768 246.49 253.585 246.49 253.585C246.527 254.562 247.377 254.219 247.377 254.219C252.261 241.627 247.866 239.293 242.058 238.208C236.25 237.122 231.311 243.093 231.311 243.093C233.933 242.531 234.621 238.84 242.257 239.564Z" fill="#83371B"/>
<path d="M247.268 245.915C246.832 245.41 246.374 244.907 245.886 244.433C245.338 244.037 244.848 243.53 244.214 243.244C243.041 242.503 241.621 242.174 240.227 242.125C238.823 242.106 237.422 242.45 236.203 243.093C234.985 243.732 233.881 244.578 233.049 245.643C233.591 245.245 234.131 244.86 234.72 244.556C235.283 244.217 235.877 243.94 236.478 243.7C237.686 243.237 238.952 242.956 240.216 242.993C240.534 242.971 240.848 243.003 241.161 243.057C241.473 243.108 241.795 243.115 242.096 243.222L243.019 243.472L243.907 243.849L244.356 244.036L244.777 244.283L245.63 244.772C246.188 245.121 246.694 245.549 247.268 245.915Z" fill="#83371B"/>
<path d="M239.688 243.516C236.851 243.739 235.04 246.037 234.965 246.134L234.815 246.327L235.025 246.453C236.756 247.491 238.394 247.848 239.827 247.848C242.942 247.848 245.093 246.163 245.123 246.138L245.318 245.981L245.135 245.811C243.366 244.145 241.537 243.372 239.688 243.516ZM239.913 247.625C239.561 247.625 239.236 247.523 238.952 247.359C237.873 247.243 236.701 246.91 235.471 246.211C235.894 245.743 237.116 244.547 238.83 244.106C239.139 243.895 239.512 243.771 239.914 243.771C240.227 243.771 240.517 243.852 240.779 243.984C242.08 244.151 243.373 244.801 244.646 245.948C244.148 246.286 242.781 247.095 240.911 247.338C240.619 247.517 240.279 247.625 239.913 247.625Z" fill="#83371B"/>
<path d="M241.84 245.698C241.84 244.946 241.405 244.302 240.777 243.985C240.516 243.853 240.225 243.771 239.912 243.771C239.51 243.771 239.137 243.896 238.828 244.107C238.32 244.453 237.984 245.037 237.984 245.698C237.984 246.41 238.375 247.025 238.949 247.358C239.234 247.523 239.559 247.625 239.911 247.625C240.277 247.625 240.617 247.517 240.908 247.339C241.466 247.001 241.84 246.396 241.84 245.698Z" fill="#83371B"/>
<path d="M245.232 247.624C244.727 247.77 244.254 247.96 243.774 248.12C243.279 248.24 242.81 248.423 242.319 248.509C241.35 248.736 240.369 248.817 239.398 248.792C238.425 248.757 237.467 248.542 236.541 248.21C235.615 247.869 234.726 247.396 233.89 246.782C235.076 248.515 237.212 249.548 239.358 249.657C240.433 249.673 241.514 249.538 242.508 249.159C243.016 249.007 243.473 248.729 243.945 248.51C244.392 248.236 244.822 247.938 245.232 247.624Z" fill="#83371B"/>
<path d="M253.92 253.586C253.92 253.586 251.777 249.768 251.669 248.791C251.561 247.814 250.535 240.288 258.136 239.564C265.737 238.841 266.421 242.532 269.032 243.092C269.032 243.092 264.116 237.121 258.334 238.207C252.551 239.293 248.175 241.627 253.038 254.218C253.038 254.218 253.885 254.563 253.92 253.586Z" fill="#83371B"/>
<path d="M247.413 255.652L247.147 255.942C246.817 256.303 246.475 256.653 246.113 256.944C245.745 257.232 245.335 257.424 245.118 257.188C244.868 256.916 244.758 256.386 244.696 255.909C244.641 255.415 244.636 254.91 244.644 254.4C244.509 254.893 244.432 255.4 244.404 255.917C244.393 256.431 244.354 256.983 244.74 257.524C244.949 257.8 245.387 257.917 245.689 257.834C246.005 257.774 246.249 257.632 246.488 257.492C246.84 257.275 247.139 257.015 247.426 256.745C247.75 257.063 248.091 257.349 248.488 257.583C248.993 257.879 249.573 258.114 250.205 258.152C250.835 258.199 251.496 258.003 251.994 257.643C252.387 257.393 252.683 257.059 252.946 256.711C253.194 256.943 253.449 257.161 253.735 257.357C254.145 257.613 254.634 257.952 255.285 257.775C255.608 257.689 255.798 257.392 255.883 257.151C255.98 256.9 255.999 256.649 256.018 256.406C256.038 255.918 255.975 255.445 255.898 254.978C255.857 255.452 255.837 255.921 255.743 256.37C255.645 256.797 255.447 257.264 255.149 257.298C254.856 257.358 254.45 257.101 254.12 256.834C253.781 256.558 253.465 256.217 253.182 255.889L252.881 255.541L252.579 255.924C252.268 256.321 251.937 256.704 251.536 256.942C251.151 257.209 250.706 257.329 250.253 257.287C249.344 257.236 248.423 256.628 247.722 255.95L247.413 255.652Z" fill="#83371B"/>
<path d="M254.025 260.918C253.707 260.766 253.379 260.62 253.023 260.541C252.671 260.459 252.28 260.402 251.876 260.556C251.235 260.932 250.674 261.097 250.041 261.064C249.736 261.058 249.437 260.988 249.147 260.895C249.002 260.847 248.861 260.784 248.721 260.718C248.585 260.645 248.471 260.573 248.215 260.472C247.757 260.329 247.341 260.405 246.983 260.516C246.618 260.625 246.292 260.792 245.983 260.972C245.366 261.335 244.807 261.758 244.272 262.205L243.479 262.879L243.088 263.223L242.897 263.402L242.805 263.495L242.76 263.545L242.738 263.576L242.727 263.592C242.713 263.591 242.724 263.668 242.748 263.669C243.373 263.913 244.006 264.156 244.594 264.471C245.19 264.766 245.65 265.228 246.189 265.663C246.729 266.087 247.229 266.521 247.894 266.863C248.545 267.199 249.286 267.359 250.021 267.378C250.761 267.376 251.479 267.264 252.181 266.926C252.52 266.755 252.826 266.542 253.105 266.306C253.391 266.062 253.622 265.805 253.845 265.61C254.796 264.795 256.011 264.209 257.248 263.837L257.687 263.706L257.383 263.422C256.359 262.467 255.289 261.552 254.025 260.918ZM253.315 264.977C253.023 265.215 252.793 265.451 252.556 265.631C252.314 265.82 252.055 265.981 251.787 266.101C251.269 266.338 250.624 266.446 250.025 266.452C249.414 266.465 248.812 266.331 248.24 266.105C247.688 265.869 247.09 265.511 246.508 265.197C245.935 264.883 245.353 264.461 244.69 264.252L242.778 263.585C243.755 262.747 244.99 261.951 246.222 261.469C246.826 261.243 247.529 261.039 247.96 261.196C248.023 261.22 248.206 261.331 248.375 261.417C248.549 261.495 248.723 261.571 248.907 261.629C249.272 261.749 249.662 261.794 250.047 261.781C250.805 261.753 251.579 261.379 252.073 260.98C252.568 260.728 253.317 260.892 253.906 261.171C255.009 261.682 255.921 262.53 256.729 263.441C255.507 263.702 254.331 264.174 253.315 264.977Z" fill="#83371B"/>
<path d="M249.931 263.344C248.377 263.34 246.835 263.243 245.223 263.192C245.946 263.564 246.728 263.795 247.516 263.957C248.306 264.125 249.114 264.195 249.921 264.212C251.532 264.227 253.179 263.955 254.631 263.229L252.259 263.323C251.48 263.343 250.706 263.363 249.931 263.344Z" fill="#83371B"/>
<path d="M252.842 268.84C252.156 268.09 251.176 267.422 250.015 267.434C248.862 267.462 247.894 268.118 247.211 268.864C246.518 269.622 246.001 270.503 245.693 271.45C246.314 270.677 246.962 269.954 247.677 269.352C248.391 268.764 249.203 268.299 250.03 268.301C250.857 268.276 251.648 268.735 252.365 269.32C252.693 269.648 253.039 269.98 253.367 270.331C253.672 270.704 253.979 271.083 254.325 271.45C254.147 270.989 253.931 270.54 253.715 270.085C253.455 269.659 253.161 269.241 252.842 268.84Z" fill="#83371B"/>
<path d="M240.589 220.131C234.166 205.618 223.786 183.187 221.218 180.137C221.757 184.124 230.304 207.149 235.998 221.842L240.589 220.131Z" fill="#F4B31A"/>
<path d="M235.836 222.8L241.719 220.607L241.538 220.2C241.536 220.195 241.521 220.16 241.498 220.11C241.053 219.106 236.67 209.221 232.125 199.51C222.326 178.579 221.396 178.831 220.779 179.003L220.528 179.119L220.444 179.286C219.463 181.247 232.25 214.503 235.213 222.148C235.426 222.372 235.633 222.588 235.836 222.8ZM221.217 180.137C223.785 183.187 234.166 205.617 240.589 220.131L235.998 221.842C230.303 207.15 221.756 184.124 221.217 180.137Z" fill="#83371B"/>
<path d="M229.788 226.457C218.425 215.371 200.441 198.407 196.922 196.53C198.906 200.031 215.41 218.23 226.164 229.752L229.788 226.457Z" fill="#F4B31A"/>
<path d="M226.334 230.624L226.416 230.66L231.015 226.479L230.695 226.168C230.689 226.162 230.622 226.095 230.526 226.002C229.361 224.866 221.854 217.564 214.257 210.46C197.362 194.661 196.597 195.25 196.095 195.639L195.905 195.841L195.89 196.027C195.707 198.196 219.66 224.014 225.448 230.216C225.75 230.356 226.047 230.492 226.334 230.624ZM229.788 226.457L226.165 229.751C215.411 218.228 198.907 200.03 196.922 196.529C200.442 198.407 218.425 215.371 229.788 226.457Z" fill="#83371B"/>
<path d="M222.371 236.293C207.602 230.467 184.453 221.78 180.477 221.408C183.664 223.869 205.928 234.266 220.306 240.732L222.371 236.293Z" fill="#F4B31A"/>
<path d="M220.827 241.605L223.51 235.838L223.094 235.674C223.085 235.67 222.987 235.631 222.811 235.562C221.062 234.874 211.453 231.102 201.853 227.548C180.16 219.516 179.684 220.355 179.367 220.907L179.27 221.167L179.328 221.344C180.01 223.444 213.001 238.371 220.139 241.579C220.373 241.588 220.6 241.597 220.827 241.605ZM222.371 236.293L220.306 240.732C205.928 234.266 183.664 223.87 180.476 221.408C184.451 221.78 207.601 230.467 222.371 236.293Z" fill="#83371B"/>
<path d="M219.483 248.531C203.604 248.611 178.881 249.151 175.053 250.283C178.777 251.34 201.586 252.653 217.34 253.339C218.01 253.09 218.654 252.847 219.26 252.617L219.483 248.531Z" fill="#F4B31A"/>
<path d="M217.341 253.34C201.586 252.654 178.777 251.341 175.054 250.283C178.882 249.151 203.605 248.611 219.484 248.532L219.263 252.617C219.314 252.598 219.367 252.577 219.417 252.558L219.906 252.372L220.062 253.415L220.373 247.687L219.927 247.689C219.913 247.689 219.722 247.69 219.379 247.691C216.974 247.707 207.035 247.78 197.184 248.038C174.06 248.643 173.927 249.599 173.838 250.23L173.844 250.506L173.963 250.649C175.203 252.135 203.139 253.544 215.297 254.09C215.99 253.839 216.676 253.587 217.341 253.34Z" fill="#83371B"/>
<path d="M180.715 279.095C184.695 278.48 207.572 269.508 222.166 263.542L220.367 258.989C205.968 265.678 183.723 276.471 180.715 279.095Z" fill="#F4B31A"/>
<path d="M222.873 264.162L223.18 263.871L223.237 263.965L220.822 257.851L220.729 257.893L220.767 258.148L219.782 258.652C218.201 259.493 216.529 260.144 214.835 260.655C210.895 262.514 205.365 265.147 199.892 267.832C179.127 278.018 179.404 278.941 179.588 279.552L179.708 279.801L179.876 279.881C179.944 279.913 180.046 279.929 180.182 279.929C184.117 279.929 216.001 266.972 222.778 264.2C222.805 264.188 222.841 264.174 222.868 264.163L222.873 264.162ZM180.715 279.094C183.723 276.47 205.968 265.678 220.367 258.989L222.166 263.542C207.572 269.507 184.696 278.479 180.715 279.094Z" fill="#83371B"/>
<path d="M197.336 303.287C200.8 301.24 218.698 284.409 230.026 273.448L226.661 269.889C215.785 281.449 199.149 299.736 197.336 303.287Z" fill="#F4B31A"/>
<path d="M231.209 273.474L226.661 268.663L226.355 268.988C226.347 268.996 226.24 269.11 226.08 269.28C224.674 270.778 217.718 278.198 210.947 285.706C195.462 302.878 196.064 303.633 196.46 304.133L196.665 304.319L196.851 304.33C196.857 304.33 196.864 304.33 196.87 304.33C199.196 304.33 224.986 279.496 230.697 273.968C230.766 273.902 230.847 273.824 230.909 273.763L231.209 273.474ZM230.027 273.448C218.698 284.409 200.8 301.24 197.337 303.287C199.15 299.736 215.785 281.449 226.662 269.889L230.027 273.448Z" fill="#83371B"/>
<path d="M236.946 277.884C231.11 292.643 222.412 315.777 222.041 319.745C224.39 316.71 233.969 296.331 240.467 281.988C240.488 281.135 240.504 280.31 240.516 279.543L236.946 277.884Z" fill="#F4B31A"/>
<path d="M240.466 281.988C233.967 296.332 224.389 316.711 222.04 319.746C222.41 315.779 231.11 292.644 236.944 277.884L240.513 279.543C240.515 279.476 240.516 279.403 240.517 279.337L240.525 278.815L241.366 279.013L236.491 276.746L236.327 277.161C236.323 277.172 236.266 277.315 236.169 277.562C235.373 279.58 231.677 288.984 228.19 298.384C220.149 320.057 220.986 320.536 221.54 320.853L221.799 320.95L221.977 320.892C223.802 320.3 235.303 295.383 240.409 284.153C240.431 283.422 240.449 282.698 240.466 281.988Z" fill="#83371B"/>
<path d="M250.194 174.585C248.725 177.647 247.548 202.245 247.113 218.229C247.162 218.356 247.209 218.476 247.257 218.599L253.177 218.47C252.682 202.615 251.472 177.807 250.194 174.585Z" fill="#F4B31A"/>
<path d="M247.112 218.229C247.547 202.245 248.725 177.647 250.194 174.585C251.471 177.806 252.681 202.615 253.176 218.47L247.256 218.6C247.317 218.761 247.381 218.926 247.442 219.081L247.611 219.517L254.13 219.375L254.119 219.036L254.115 218.909C254.102 218.493 254.087 217.973 254.067 217.379C254.005 216.562 253.971 215.745 253.985 214.929C253.577 203.094 252.428 175.182 250.657 173.613C250.516 173.489 250.346 173.422 250.171 173.445C249.457 173.51 248.262 173.619 247.051 196.548C246.648 204.17 246.383 211.843 246.254 215.97C246.548 216.751 246.835 217.511 247.112 218.229Z" fill="#83371B"/>
<path d="M260.158 219.769L264.746 221.48C270.435 206.787 278.977 183.76 279.515 179.774C276.949 182.826 266.576 205.256 260.158 219.769Z" fill="#F4B31A"/>
<path d="M259.955 220.224L259.951 220.588L265.119 222.517L265.23 222.559L265.38 222.171C268.045 215.3 281.286 180.916 280.288 178.923L280.132 178.69L279.954 178.64C279.34 178.465 278.408 178.215 268.617 199.147C265.003 206.874 261.492 214.71 259.983 218.098C259.97 218.84 259.961 219.556 259.955 220.224ZM260.158 219.769C266.575 205.256 276.948 182.826 279.514 179.775C278.976 183.76 270.434 206.787 264.745 221.48L260.158 219.769Z" fill="#83371B"/>
<path d="M270.808 226.457L274.429 229.751C285.175 218.227 301.666 200.03 303.648 196.529C300.132 198.407 282.161 215.371 270.808 226.457Z" fill="#F4B31A"/>
<path d="M270.079 226.466L269.936 226.8L274.478 230.933L274.761 230.63C274.764 230.626 274.768 230.621 274.772 230.618C279.823 225.206 304.868 198.246 304.682 196.027L304.625 195.753L304.477 195.639C303.97 195.253 303.198 194.672 286.328 210.46C279.3 217.037 272.354 223.779 270.435 225.648C270.312 225.926 270.192 226.202 270.079 226.466ZM270.807 226.457C282.162 215.371 300.131 198.407 303.648 196.53C301.666 200.03 285.174 218.228 274.428 229.752L270.807 226.457Z" fill="#83371B"/>
<path d="M278.219 236.293L280.283 240.732C294.651 234.266 316.9 223.869 320.083 221.408C316.114 221.779 292.978 230.466 278.219 236.293Z" fill="#F4B31A"/>
<path d="M277.615 236.224L277.37 236.462L279.84 241.774L280.718 241.295C282.461 240.306 284.325 239.554 286.211 238.97C298.08 233.564 320.667 223.079 321.231 221.344L321.284 221.07L321.191 220.907C320.874 220.354 320.391 219.518 298.72 227.548C290.207 230.703 281.69 234.026 278.657 235.218C278.297 235.564 277.946 235.903 277.615 236.224ZM280.283 240.732L278.219 236.293C292.979 230.466 316.114 221.779 320.083 221.408C316.9 223.869 294.651 234.266 280.283 240.732Z" fill="#83371B"/>
<path d="M281.104 248.531L281.369 253.419C297.111 252.76 321.631 251.383 325.5 250.283C321.678 249.151 296.972 248.611 281.104 248.531Z" fill="#F4B31A"/>
<path d="M280.661 247.689L280.215 247.687L280.557 253.996L280.574 253.922L281.674 253.803C284.147 253.495 286.655 253.591 289.07 253.916C302.421 253.282 325.466 251.997 326.589 250.65L326.741 250.415L326.715 250.23C326.627 249.598 326.492 248.643 303.386 248.038C293.798 247.787 284.134 247.71 281.417 247.692C280.945 247.69 280.678 247.689 280.661 247.689ZM281.368 253.42L281.103 248.532C296.972 248.611 321.677 249.151 325.5 250.283C321.631 251.383 297.111 252.761 281.368 253.42Z" fill="#83371B"/>
<path d="M278.424 263.542C293.006 269.508 315.865 278.48 319.844 279.094C316.936 276.554 295.994 266.351 281.606 259.633C281.04 259.63 280.491 259.626 279.97 259.626L278.424 263.542Z" fill="#F4B31A"/>
<path d="M281.606 259.634C295.994 266.352 316.937 276.555 319.844 279.096C315.866 278.481 293.007 269.509 278.424 263.543L279.969 259.627C279.927 259.627 279.88 259.627 279.839 259.627L279.317 259.626L279.634 258.188L277.337 264.008L277.721 264.165C277.798 264.197 277.896 264.236 277.98 264.272C285.081 267.177 316.475 279.932 320.373 279.932C320.509 279.932 320.612 279.916 320.679 279.884L320.914 279.734L320.968 279.555C321.151 278.944 321.427 278.021 300.679 267.835C294.135 264.622 287.509 261.483 283.624 259.657C282.937 259.645 282.261 259.639 281.606 259.634Z" fill="#83371B"/>
<path d="M303.235 303.287C301.441 299.769 285.115 281.795 274.242 270.22C274.097 270.155 273.947 270.088 273.807 270.024L273.805 270.022L270.57 273.447C281.888 284.409 299.772 301.24 303.235 303.287Z" fill="#F4B31A"/>
<path d="M274.241 270.22C285.114 281.796 301.439 299.77 303.233 303.287C299.771 301.24 281.887 284.409 270.568 273.448L273.803 270.024L273.327 269.811L274.067 268.809L273.93 268.663L269.385 273.474L269.682 273.763C269.772 273.85 269.882 273.957 269.984 274.056C275.864 279.75 301.386 304.332 303.696 304.332C303.702 304.332 303.709 304.332 303.715 304.332L303.99 304.28L304.106 304.134C304.503 303.634 305.103 302.88 289.63 285.709C284.395 279.899 279.045 274.137 276.237 271.13C275.548 270.81 274.877 270.506 274.241 270.22Z" fill="#83371B"/>
<path d="M263.655 277.884L259.217 279.949C265.687 294.315 276.088 316.562 278.549 319.744C278.177 315.775 269.484 292.642 263.655 277.884Z" fill="#F4B31A"/>
<path d="M263.946 277.429L263.587 277.05L264.03 276.783L258.108 279.537L258.279 279.916C258.29 279.94 258.304 279.972 258.316 279.997C258.471 280.342 258.659 280.76 258.871 281.228C259.209 281.901 259.522 282.585 259.801 283.282C264.676 294.035 276.742 320.285 278.614 320.892L278.889 320.946L279.051 320.853C279.605 320.536 280.441 320.056 272.406 298.384C269.212 289.77 265.842 281.149 264.69 278.215C264.434 277.945 264.185 277.681 263.946 277.429ZM263.655 277.884C269.486 292.642 278.177 315.776 278.549 319.745C276.088 316.563 265.686 294.316 259.217 279.95L263.655 277.884Z" fill="#83371B"/>
<path d="M249.621 325.626C250.781 321.812 251.503 297.109 251.699 281.243L246.809 281.472C247.353 297.22 248.549 321.749 249.621 325.626Z" fill="#F4B31A"/>
<path d="M252.367 280.857L252.177 280.379L246.26 280.656L246.316 281.249C246.564 283.487 246.489 285.75 246.208 287.943C246.723 301.059 247.866 325.543 249.247 326.712L249.481 326.866L249.666 326.841C250.298 326.757 251.254 326.63 252.029 303.529C252.362 293.599 252.509 283.586 252.54 281.297C252.482 281.151 252.422 280.999 252.367 280.857ZM251.7 281.243C251.503 297.111 250.782 321.813 249.622 325.626C248.55 321.749 247.353 297.219 246.811 281.472L251.7 281.243Z" fill="#83371B"/>
<path d="M275.792 212.788C277.119 211.565 283.515 204.981 283.925 204.302C284.023 204.142 286.308 200.328 287.52 194.951C288.499 190.612 291.239 189.47 292.055 189.224C292.406 189.119 292.672 188.894 292.783 188.608C292.829 188.491 292.817 188.445 292.817 188.445C292.817 188.445 292.641 188.269 291.708 188.373C289.078 188.662 286.455 191.664 285.335 193.611C285.046 194.113 284.774 194.896 284.462 195.803C283.614 198.256 282.333 201.963 278.979 204.833C276.63 206.844 268.769 214.076 266.261 222.722L266.111 223.209L269.514 225.655C270.589 223.178 274.711 213.784 275.792 212.788Z" fill="#F4B31A"/>
<path d="M265.128 223.538L269.872 226.948L269.934 226.801L270.078 226.467C270.192 226.202 270.312 225.926 270.433 225.646C272.535 220.816 275.613 214.095 276.359 213.407C277.436 212.415 284.125 205.595 284.644 204.737C284.743 204.572 287.097 200.644 288.339 195.136C289.217 191.241 291.59 190.243 292.297 190.03C292.898 189.849 293.36 189.442 293.566 188.914C293.752 188.436 293.625 188.118 293.486 187.937C293.192 187.555 292.596 187.428 291.615 187.536C288.444 187.885 285.642 191.388 284.603 193.191C284.274 193.763 283.992 194.58 283.666 195.528C282.799 198.036 281.612 201.471 278.431 204.193C275.361 206.82 267.952 213.857 265.452 222.481L265.394 222.672L265.128 223.538ZM266.259 222.721C268.766 214.075 276.628 206.843 278.978 204.833C282.332 201.962 283.613 198.255 284.46 195.802C284.773 194.897 285.044 194.114 285.333 193.611C286.453 191.664 289.076 188.661 291.706 188.372C292.64 188.269 292.815 188.444 292.815 188.444C292.815 188.444 292.827 188.49 292.781 188.608C292.67 188.893 292.405 189.118 292.053 189.223C291.236 189.47 288.497 190.611 287.519 194.95C286.306 200.327 284.021 204.141 283.924 204.301C283.513 204.981 277.117 211.564 275.79 212.788C274.71 213.784 270.587 223.177 269.513 225.652L266.11 223.206L266.259 222.721Z" fill="#83371B"/>
<path d="M288.124 225.771C289.82 225.148 298.246 221.51 298.884 221.041C298.921 221.013 302.603 218.284 305.782 213.775C308.346 210.139 311.311 210.135 312.162 210.218C312.524 210.254 312.858 210.149 313.069 209.927C313.156 209.837 313.164 209.789 313.164 209.789C313.164 209.789 313.068 209.559 312.166 209.297C309.627 208.56 306.053 210.33 304.273 211.701C303.814 212.055 303.265 212.675 302.629 213.393C300.907 215.335 298.307 218.27 294.11 219.639C291.17 220.598 281.141 224.273 275.518 231.305L275.193 231.697L277.403 235.259C279.344 233.38 286.745 226.277 288.124 225.771Z" fill="#F4B31A"/>
<path d="M274.161 231.626L277.24 236.59L277.37 236.463L277.615 236.225C277.946 235.904 278.297 235.564 278.657 235.219C282.417 231.601 287.493 226.9 288.415 226.561C289.791 226.056 298.578 222.312 299.383 221.718C299.538 221.605 303.213 218.879 306.47 214.259C308.771 210.996 311.343 210.979 312.08 211.054C312.707 211.117 313.287 210.918 313.679 210.508C314.033 210.136 314.037 209.796 313.978 209.575C313.852 209.11 313.351 208.765 312.403 208.489C309.336 207.596 305.411 209.763 303.762 211.034C303.24 211.436 302.666 212.084 302 212.834C300.241 214.82 297.831 217.54 293.851 218.837C290.014 220.089 280.489 223.755 274.88 230.757C274.875 230.763 274.87 230.768 274.866 230.772L274.161 231.626ZM275.519 231.303C281.143 224.271 291.172 220.596 294.112 219.637C298.308 218.268 300.908 215.332 302.63 213.391C303.266 212.674 303.816 212.053 304.275 211.699C306.055 210.328 309.63 208.558 312.167 209.296C313.07 209.558 313.163 209.787 313.165 209.787C313.165 209.787 313.157 209.834 313.071 209.926C312.859 210.147 312.526 210.252 312.164 210.216C311.312 210.133 308.347 210.138 305.784 213.773C302.604 218.282 298.923 221.011 298.886 221.039C298.248 221.509 289.82 225.146 288.126 225.769C286.746 226.276 279.345 233.38 277.406 235.255L275.196 231.694L275.519 231.303Z" fill="#83371B"/>
<path d="M280.681 242.274L281.413 246.402C283.897 245.385 293.317 241.566 294.861 241.566C294.869 241.566 294.877 241.566 294.886 241.566C296.687 241.61 305.863 241.362 306.635 241.162C306.816 241.116 311.117 239.976 315.734 236.971C319.462 234.545 322.221 235.64 322.978 236.032C323.304 236.201 323.648 236.227 323.928 236.1C324.043 236.048 324.068 236.006 324.068 236.006C324.068 236.006 324.064 235.758 323.323 235.18C321.237 233.552 317.263 233.873 315.101 234.486C314.543 234.643 313.803 235.016 312.947 235.447C310.629 236.614 307.121 238.376 302.72 238.089C299.633 237.89 288.957 237.585 281.126 242.029L280.681 242.274Z" fill="#F4B31A"/>
<path d="M279.84 241.774L279.746 241.825L280.766 247.576L281.249 247.377C281.294 247.358 281.342 247.34 281.389 247.321C286.252 245.317 293.723 242.406 294.845 242.406C294.851 242.406 294.857 242.406 294.862 242.406C296.324 242.447 305.873 242.229 306.845 241.977C307.031 241.928 311.461 240.756 316.192 237.677C319.538 235.5 321.933 236.439 322.589 236.779C323.147 237.069 323.762 237.101 324.277 236.866C324.743 236.653 324.874 236.338 324.901 236.11C324.958 235.632 324.62 235.125 323.84 234.516C321.325 232.553 316.872 233.11 314.871 233.676C314.237 233.856 313.463 234.244 312.568 234.695C310.197 235.888 306.955 237.515 302.773 237.249C299.641 237.048 292.778 236.936 286.21 238.969C284.323 239.553 282.459 240.305 280.717 241.293L279.84 241.774ZM302.72 238.09C307.12 238.376 310.628 236.614 312.947 235.448C313.804 235.017 314.544 234.646 315.101 234.487C317.263 233.873 321.237 233.553 323.322 235.181C324.064 235.76 324.065 236.007 324.067 236.007C324.067 236.007 324.042 236.049 323.928 236.101C323.648 236.228 323.303 236.203 322.978 236.033C322.221 235.64 319.462 234.546 315.733 236.972C311.116 239.977 306.814 241.116 306.634 241.163C305.863 241.363 296.686 241.611 294.885 241.567C294.877 241.567 294.87 241.567 294.86 241.567C293.315 241.567 283.895 245.384 281.412 246.403L280.68 242.275L281.127 242.031C288.956 237.586 299.633 237.891 302.72 238.09Z" fill="#83371B"/>
<path d="M303.23 259.254C300.455 257.89 290.706 253.526 281.771 254.637L281.266 254.692L280.363 258.785C283.062 258.795 293.32 258.87 294.662 259.47C296.31 260.206 304.884 263.48 305.672 263.589C305.857 263.615 310.268 264.207 315.681 263.197C320.053 262.38 322.185 264.448 322.734 265.1C322.971 265.382 323.278 265.54 323.587 265.527C323.712 265.522 323.751 265.493 323.751 265.493C323.751 265.493 323.844 265.264 323.38 264.445C322.075 262.143 318.281 260.92 316.049 260.66C315.473 260.592 314.647 260.654 313.69 260.724C311.102 260.914 307.192 261.202 303.23 259.254Z" fill="#F4B31A"/>
<path d="M281.674 253.802L280.574 253.922L280.558 253.995L279.633 258.186L279.315 259.624L279.838 259.626C279.88 259.626 279.925 259.626 279.968 259.626C280.489 259.627 281.037 259.629 281.603 259.633C282.258 259.637 282.934 259.644 283.622 259.654C288.37 259.718 293.55 259.894 294.316 260.238C295.653 260.836 304.56 264.285 305.554 264.423C305.744 264.449 310.285 265.06 315.834 264.023C319.76 263.294 321.614 265.077 322.089 265.642C322.478 266.105 323.01 266.368 323.554 266.368C323.574 266.368 323.594 266.368 323.614 266.367C324.127 266.349 324.368 266.108 324.48 265.909C324.715 265.488 324.598 264.891 324.11 264.029C322.536 261.254 318.212 260.065 316.146 259.823C315.49 259.746 314.626 259.81 313.627 259.884C310.982 260.078 307.357 260.344 303.6 258.498C300.982 257.211 295.35 254.762 289.069 253.914C286.656 253.59 284.148 253.493 281.674 253.802ZM316.049 260.659C318.281 260.92 322.075 262.142 323.38 264.445C323.844 265.264 323.749 265.493 323.751 265.493C323.751 265.493 323.712 265.521 323.587 265.526C323.278 265.54 322.971 265.382 322.734 265.1C322.185 264.447 320.053 262.38 315.681 263.197C310.268 264.207 305.857 263.615 305.672 263.589C304.885 263.479 296.31 260.205 294.662 259.469C293.32 258.869 283.062 258.794 280.363 258.785L281.266 254.691L281.771 254.637C290.706 253.526 300.455 257.89 303.23 259.254C307.192 261.202 311.104 260.914 313.69 260.723C314.647 260.653 315.473 260.592 316.049 260.659Z" fill="#83371B"/>
<path d="M277.602 266.256L277.117 266.1L274.626 269.471C277.087 270.579 286.425 274.827 287.405 275.921C288.611 277.265 295.107 283.748 295.782 284.168C295.94 284.268 299.723 286.604 305.083 287.889C309.41 288.925 310.514 291.681 310.748 292.5C310.849 292.853 311.07 293.122 311.353 293.237C311.47 293.284 311.517 293.273 311.517 293.273C311.514 293.273 311.695 293.103 311.604 292.165C311.351 289.531 308.385 286.868 306.452 285.721C305.954 285.425 305.174 285.144 304.272 284.819C301.832 283.939 298.142 282.608 295.318 279.215C293.339 276.839 286.215 268.88 277.602 266.256Z" fill="#F4B31A"/>
<path d="M274.068 268.809L273.328 269.811L273.804 270.024L273.805 270.025C273.946 270.088 274.097 270.156 274.241 270.222C274.877 270.507 275.547 270.813 276.241 271.13C280.802 273.22 286.174 275.81 286.779 276.485C287.757 277.575 294.485 284.355 295.337 284.885C295.5 284.987 299.395 287.393 304.888 288.71C308.772 289.641 309.738 292.027 309.941 292.736C310.113 293.34 310.514 293.808 311.039 294.02C311.216 294.092 311.371 294.119 311.505 294.119C311.732 294.119 311.9 294.039 312.016 293.952C312.402 293.664 312.537 293.071 312.443 292.086C312.137 288.911 308.672 286.062 306.882 285C306.315 284.664 305.501 284.37 304.559 284.03C302.062 283.13 298.644 281.896 295.964 278.68C293.38 275.575 286.441 268.074 277.854 265.457L277.41 265.314L276.801 265.117L274.068 268.809ZM304.272 284.819C305.174 285.145 305.954 285.425 306.452 285.721C308.385 286.869 311.351 289.532 311.604 292.165C311.695 293.104 311.514 293.274 311.517 293.274C311.517 293.274 311.47 293.284 311.353 293.237C311.069 293.122 310.849 292.854 310.748 292.5C310.514 291.681 309.41 288.925 305.083 287.889C299.723 286.605 295.939 284.267 295.782 284.169C295.108 283.748 288.611 277.265 287.405 275.921C286.425 274.827 277.087 270.58 274.626 269.471L277.117 266.1L277.602 266.256C286.214 268.88 293.339 276.839 295.318 279.214C298.143 282.608 301.832 283.938 304.272 284.819Z" fill="#83371B"/>
<path d="M264.917 277.23C266.767 279.196 273.771 286.691 274.257 288.078C274.857 289.78 278.381 298.256 278.844 298.902C278.953 299.054 281.551 302.657 286.016 305.897C289.617 308.51 289.584 311.478 289.487 312.324C289.445 312.69 289.546 313.022 289.765 313.236C289.855 313.324 289.902 313.333 289.902 313.333C289.9 313.333 290.131 313.245 290.407 312.342C291.18 309.812 289.457 306.217 288.11 304.418C287.763 303.955 287.15 303.397 286.441 302.751C284.523 301.004 281.623 298.363 280.31 294.148C279.39 291.196 275.85 281.119 268.896 275.399L268.507 275.07L264.917 277.23Z" fill="#F4B31A"/>
<path d="M268.592 274.037L264.03 276.783L263.587 277.05L263.946 277.428C264.185 277.682 264.434 277.945 264.687 278.215C268.283 282.045 273.13 287.411 273.464 288.357C273.95 289.738 277.575 298.575 278.159 299.391C278.27 299.547 280.946 303.258 285.521 306.577C288.753 308.922 288.733 311.496 288.65 312.229C288.579 312.853 288.77 313.439 289.175 313.835C289.441 314.098 289.695 314.174 289.898 314.174C289.974 314.174 290.043 314.163 290.103 314.149C290.57 314.03 290.923 313.534 291.212 312.588C292.144 309.536 290.031 305.579 288.783 303.913C288.389 303.385 287.748 302.802 287.008 302.128C285.046 300.342 282.358 297.895 281.113 293.898C279.913 290.041 276.371 280.456 269.435 274.754L269.273 274.616L268.592 274.037ZM268.897 275.399C275.851 281.118 279.39 291.195 280.31 294.147C281.623 298.363 284.522 301.004 286.442 302.75C287.151 303.396 287.763 303.953 288.11 304.417C289.457 306.216 291.18 309.811 290.408 312.342C290.132 313.244 289.901 313.332 289.903 313.333C289.903 313.333 289.856 313.324 289.766 313.236C289.548 313.021 289.447 312.69 289.488 312.324C289.585 311.477 289.618 308.51 286.017 305.896C281.551 302.657 278.953 299.053 278.845 298.902C278.382 298.254 274.859 289.779 274.258 288.078C273.77 286.691 266.767 279.195 264.918 277.23L268.509 275.069L268.897 275.399Z" fill="#83371B"/>
<path d="M263.995 323.092C265.65 321.029 265.384 317.051 264.8 314.881C264.65 314.321 264.287 313.576 263.868 312.714C262.734 310.38 261.02 306.853 261.364 302.451C261.604 299.368 262.054 288.695 257.715 280.806L257.477 280.356L253.34 281.033C254.329 283.543 258.054 293.101 257.993 294.57C257.919 296.373 258.049 305.55 258.239 306.322C258.284 306.503 259.364 310.82 262.306 315.478C264.683 319.24 263.551 321.984 263.147 322.734C262.973 323.058 262.943 323.405 263.066 323.684C263.117 323.799 263.158 323.824 263.158 323.824C263.155 323.824 263.404 323.828 263.995 323.092Z" fill="#F4B31A"/>
<path d="M258.456 280.409L258.247 280.016L257.937 279.431L252.173 280.372L252.176 280.379L252.366 280.857C252.421 281 252.482 281.151 252.539 281.297C254.48 286.213 257.195 293.492 257.152 294.536C257.092 295.998 257.182 305.549 257.421 306.524C257.467 306.711 258.579 311.156 261.594 315.928C263.726 319.304 262.753 321.687 262.405 322.337C262.107 322.89 262.067 323.504 262.296 324.023C262.502 324.493 262.816 324.627 263.042 324.656C263.08 324.661 263.118 324.664 263.157 324.664C263.601 324.664 264.081 324.327 264.65 323.618C266.647 321.129 266.152 316.672 265.612 314.662C265.44 314.025 265.062 313.247 264.624 312.346C263.465 309.96 261.876 306.691 262.201 302.518C262.478 298.967 262.713 290.603 259.799 283.281C259.522 282.584 259.207 281.901 258.869 281.228C258.733 280.955 258.604 280.678 258.456 280.409ZM263.067 323.685C262.944 323.406 262.973 323.059 263.147 322.736C263.551 321.985 264.683 319.241 262.307 315.479C259.365 310.821 258.284 306.505 258.239 306.324C258.05 305.552 257.919 296.373 257.994 294.571C258.054 293.103 254.33 283.544 253.34 281.034L257.478 280.358L257.716 280.808C262.054 288.697 261.604 299.369 261.364 302.453C261.021 306.854 262.734 310.38 263.869 312.716C264.288 313.578 264.65 314.322 264.8 314.883C265.384 317.052 265.652 321.031 263.995 323.093C263.404 323.83 263.158 323.826 263.158 323.826C263.158 323.826 263.117 323.8 263.067 323.685Z" fill="#83371B"/>
<path d="M245.48 281.337L245.433 280.83L241.352 279.872C241.306 282.571 241.093 292.827 240.475 294.16C239.717 295.796 236.328 304.324 236.207 305.113C236.179 305.298 235.526 309.698 236.464 315.129C237.221 319.512 235.126 321.614 234.467 322.155C234.182 322.387 234.023 322.696 234.028 323.002C234.032 323.127 234.06 323.167 234.06 323.167C234.064 323.167 234.296 323.259 235.113 322.81C237.433 321.536 238.707 317.759 238.997 315.531C239.072 314.957 239.022 314.129 238.965 313.172C238.809 310.583 238.574 306.668 240.576 302.733C241.976 299.974 246.471 290.283 245.48 281.337Z" fill="#F4B31A"/>
<path d="M246.316 281.25L246.26 280.656L246.212 280.148L241.366 279.011L240.525 278.813L240.517 279.336C240.516 279.402 240.515 279.474 240.514 279.542C240.502 280.309 240.485 281.133 240.465 281.987C240.449 282.696 240.43 283.421 240.407 284.152C240.272 288.591 240.036 293.098 239.71 293.805C239.094 295.133 235.525 303.991 235.373 304.984C235.345 305.175 234.672 309.705 235.633 315.27C236.311 319.204 234.502 321.034 233.93 321.502C233.444 321.9 233.172 322.453 233.185 323.019C233.196 323.531 233.435 323.775 233.633 323.889C233.775 323.971 233.938 324.012 234.126 324.012C234.489 324.012 234.945 323.858 235.517 323.543C238.314 322.007 239.562 317.699 239.83 315.635C239.916 314.982 239.864 314.117 239.803 313.118C239.644 310.469 239.427 306.842 241.324 303.11C242.695 300.412 245.369 294.493 246.208 287.941C246.489 285.751 246.565 283.487 246.316 281.25ZM238.964 313.17C239.02 314.127 239.07 314.955 238.996 315.529C238.705 317.757 237.431 321.535 235.112 322.808C234.295 323.258 234.062 323.164 234.059 323.164C234.059 323.164 234.03 323.125 234.027 323C234.021 322.694 234.18 322.385 234.465 322.153C235.125 321.613 237.219 319.51 236.463 315.126C235.525 309.696 236.177 305.296 236.206 305.111C236.327 304.322 239.716 295.794 240.473 294.158C241.092 292.824 241.305 282.568 241.351 279.87L245.431 280.828L245.479 281.335C246.471 290.282 241.975 299.972 240.573 302.73C238.573 306.666 238.807 310.58 238.964 313.17Z" fill="#83371B"/>
<path d="M225.073 287.283C223.713 288.469 217.141 294.878 216.712 295.547C216.612 295.704 214.223 299.453 212.865 304.796C211.769 309.109 208.999 310.174 208.177 310.398C207.823 310.495 207.551 310.712 207.433 310.994C207.385 311.11 207.394 311.157 207.394 311.157C207.397 311.157 207.57 311.339 208.501 311.26C211.137 311.043 213.842 308.113 215.015 306.197C215.317 305.703 215.61 304.927 215.947 304.03C216.861 301.601 218.242 297.93 221.673 295.152C224.076 293.207 232.131 286.191 234.872 277.615L235.036 277.133L231.699 274.596C230.556 277.039 226.181 286.317 225.073 287.283Z" fill="#F4B31A"/>
<path d="M231.376 273.292L231.155 273.766C231.094 273.898 231.027 274.04 230.963 274.178C228.73 278.97 225.308 285.962 224.521 286.65C223.417 287.613 216.545 294.249 216.004 295.092C215.9 295.254 213.441 299.116 212.049 304.59C211.065 308.461 208.667 309.394 207.956 309.587C207.349 309.752 206.876 310.146 206.657 310.668C206.458 311.141 206.576 311.46 206.71 311.646C206.942 311.966 207.381 312.12 208.078 312.12C208.229 312.12 208.394 312.113 208.57 312.099C211.75 311.837 214.645 308.41 215.732 306.635C216.076 306.073 216.381 305.263 216.734 304.325C217.668 301.84 218.948 298.44 222.202 295.805C225.341 293.264 232.937 286.429 235.67 277.877L235.835 277.39L236.024 276.828L231.376 273.292ZM235.035 277.132L234.871 277.614C232.13 286.19 224.075 293.206 221.672 295.151C218.241 297.929 216.86 301.6 215.946 304.029C215.609 304.926 215.317 305.702 215.014 306.196C213.841 308.112 211.137 311.042 208.5 311.259C207.567 311.338 207.393 311.156 207.393 311.156C207.393 311.156 207.383 311.109 207.432 310.993C207.551 310.711 207.822 310.494 208.176 310.397C208.999 310.173 211.767 309.107 212.864 304.795C214.222 299.452 216.611 295.702 216.711 295.545C217.14 294.878 223.712 288.469 225.072 287.281C226.18 286.316 230.555 277.037 231.696 274.592L235.035 277.132Z" fill="#83371B"/>
<path d="M222.997 265.201C221.03 267.048 213.527 274.044 212.141 274.531C210.438 275.128 201.96 278.641 201.311 279.104C201.159 279.213 197.546 281.816 194.309 286.268C191.693 289.866 188.726 289.83 187.878 289.732C187.51 289.689 187.179 289.791 186.966 290.009C186.878 290.098 186.87 290.146 186.87 290.146C186.87 290.146 186.962 290.377 187.861 290.653C190.392 291.43 193.988 289.71 195.788 288.365C196.251 288.018 196.81 287.407 197.456 286.699C199.205 284.782 201.849 281.886 206.066 280.577C209.019 279.661 219.102 276.132 224.828 269.185L225.158 268.797L222.997 265.201Z" fill="#F4B31A"/>
<path d="M223.237 263.966L223.18 263.871L222.872 264.162L222.8 264.23L222.796 264.233C218.955 267.859 212.875 273.38 211.861 273.735C210.48 274.219 201.64 277.833 200.821 278.417C200.665 278.53 196.944 281.209 193.627 285.772C191.278 289.001 188.707 288.976 187.972 288.895C187.349 288.823 186.763 289.014 186.365 289.418C186.005 289.784 185.995 290.125 186.052 290.346C186.171 290.813 186.666 291.165 187.612 291.456C188.139 291.617 188.694 291.688 189.259 291.688C191.964 291.688 194.911 290.068 196.29 289.038C196.819 288.643 197.401 288.004 198.076 287.264C199.865 285.303 202.314 282.618 206.313 281.379C210.171 280.181 219.761 276.65 225.47 269.722L225.968 269.136L226.188 268.879L223.237 263.966ZM206.063 280.576C201.846 281.884 199.202 284.781 197.453 286.698C196.807 287.406 196.249 288.018 195.785 288.364C193.984 289.709 190.389 291.428 187.858 290.652C186.959 290.377 186.867 290.145 186.867 290.145C186.867 290.145 186.875 290.097 186.963 290.007C187.177 289.789 187.506 289.688 187.875 289.73C188.723 289.829 191.69 289.864 194.306 286.267C197.544 281.813 201.156 279.21 201.308 279.103C201.956 278.64 210.435 275.126 212.138 274.529C213.524 274.043 221.028 267.048 222.994 265.2L225.151 268.795L224.821 269.182C219.099 276.129 209.018 279.659 206.063 280.576Z" fill="#83371B"/>
<path d="M219.846 257.676L219.227 253.53C216.704 254.485 207.061 258.057 205.627 257.998C203.825 257.9 194.646 257.905 193.872 258.083C193.691 258.125 189.364 259.144 184.662 262.024C180.868 264.349 178.141 263.18 177.395 262.765C177.073 262.587 176.726 262.552 176.447 262.673C176.332 262.722 176.306 262.763 176.306 262.763C176.306 262.763 176.302 263.011 177.027 263.61C179.067 265.292 183.048 265.08 185.226 264.526C185.787 264.383 186.538 264.031 187.406 263.624C189.754 262.521 193.309 260.859 197.701 261.26C200.779 261.542 211.445 262.139 219.393 257.908L219.846 257.676Z" fill="#F4B31A"/>
<path d="M220.768 258.148L220.73 257.894L220.061 253.415L219.905 252.372L219.416 252.558C219.366 252.577 219.312 252.597 219.262 252.617C218.654 252.848 218.01 253.091 217.341 253.34C216.677 253.587 215.991 253.839 215.297 254.091C211.003 255.654 206.48 257.188 205.674 257.158C204.212 257.078 194.659 257.039 193.683 257.264C193.496 257.308 189.04 258.357 184.223 261.308C180.817 263.394 178.449 262.389 177.804 262.031C177.255 261.726 176.641 261.678 176.119 261.898C175.647 262.099 175.508 262.41 175.476 262.636C175.406 263.113 175.729 263.628 176.492 264.258C177.891 265.412 179.936 265.771 181.811 265.771C183.236 265.771 184.563 265.563 185.433 265.342C186.073 265.179 186.857 264.811 187.764 264.386C190.166 263.259 193.454 261.715 197.624 262.099C200.845 262.395 208.032 262.706 214.836 260.656C216.53 260.146 218.202 259.495 219.783 258.654L220.768 258.148ZM197.701 261.26C193.309 260.859 189.756 262.523 187.406 263.624C186.538 264.031 185.788 264.383 185.226 264.526C183.049 265.08 179.068 265.292 177.027 263.61C176.301 263.01 176.306 262.763 176.306 262.763C176.306 262.763 176.332 262.721 176.447 262.673C176.726 262.552 177.073 262.586 177.396 262.765C178.14 263.178 180.869 264.348 184.663 262.024C189.365 259.144 193.692 258.125 193.873 258.083C194.647 257.904 203.826 257.9 205.628 257.998C207.062 258.057 216.704 254.485 219.228 253.53L219.847 257.676L219.393 257.907C211.445 262.139 200.78 261.541 197.701 261.26Z" fill="#83371B"/>
<path d="M219.663 246.502L220.709 242.443C218.011 242.34 207.762 241.908 206.442 241.261C204.821 240.468 196.365 236.897 195.582 236.76C195.398 236.728 191.014 235.983 185.564 236.803C181.162 237.465 179.109 235.327 178.583 234.656C178.357 234.367 178.05 234.201 177.744 234.201C177.619 234.201 177.58 234.228 177.58 234.228C177.58 234.228 177.479 234.455 177.915 235.289C179.138 237.635 182.887 238.989 185.11 239.327C185.683 239.415 186.511 239.382 187.469 239.345C188.072 239.321 188.75 239.295 189.48 239.295C191.887 239.295 194.887 239.578 197.872 241.177C200.598 242.637 210.191 247.334 219.157 246.538L219.663 246.502Z" fill="#F4B31A"/>
<path d="M220.328 247.297L221.132 244.174L221.784 241.64L221.749 241.639L221.261 241.621C221.121 241.616 220.971 241.61 220.827 241.605C220.6 241.596 220.374 241.588 220.138 241.579C214.892 241.369 207.712 240.945 206.812 240.504C205.496 239.861 196.716 236.104 195.726 235.931C195.536 235.899 191.02 235.13 185.438 235.972C181.485 236.562 179.697 234.718 179.244 234.137C178.857 233.644 178.31 233.359 177.744 233.359C177.23 233.359 176.982 233.593 176.864 233.788C176.614 234.2 176.711 234.8 177.169 235.678C178.645 238.506 182.925 239.845 184.983 240.159C185.636 240.258 186.5 240.225 187.501 240.186C190.153 240.084 193.784 239.943 197.474 241.92C200.741 243.668 208.793 247.473 217.006 247.473C217.745 247.473 218.486 247.442 219.225 247.376L219.404 247.363L220.328 247.297ZM197.872 241.178C194.886 239.58 191.887 239.297 189.48 239.297C188.749 239.297 188.073 239.323 187.468 239.346C186.51 239.383 185.682 239.416 185.109 239.329C182.887 238.99 179.139 237.635 177.914 235.291C177.478 234.456 177.579 234.23 177.579 234.23C177.579 234.23 177.618 234.203 177.744 234.203C178.049 234.203 178.355 234.368 178.582 234.657C179.108 235.329 181.161 237.466 185.564 236.804C191.013 235.983 195.397 236.728 195.581 236.761C196.365 236.898 204.82 240.469 206.441 241.262C207.761 241.908 218.01 242.34 220.708 242.444L219.662 246.503L219.155 246.54C210.189 247.336 200.596 242.638 197.872 241.178Z" fill="#83371B"/>
<path d="M212.78 224.624C211.586 223.271 205.138 216.738 204.467 216.312C204.309 216.213 200.545 213.847 195.194 212.522C190.876 211.451 189.793 208.689 189.563 207.867C189.465 207.513 189.246 207.243 188.963 207.127C188.848 207.078 188.8 207.089 188.8 207.089C188.803 207.089 188.62 207.258 188.703 208.197C188.937 210.833 191.884 213.518 193.807 214.68C194.303 214.98 195.08 215.267 195.979 215.598C198.413 216.498 202.092 217.855 204.89 221.27C206.851 223.662 213.916 231.674 222.508 234.363L222.991 234.523L225.509 231.171C223.057 230.043 213.753 225.724 212.78 224.624Z" fill="#F4B31A"/>
<path d="M226.81 230.841L226.415 230.661L226.334 230.624C226.047 230.492 225.75 230.356 225.447 230.217C220.668 228.014 214.079 224.824 213.41 224.067C212.441 222.97 205.764 216.139 204.917 215.602C204.755 215.499 200.878 213.063 195.396 211.705C191.519 210.745 190.572 208.351 190.374 207.641C190.204 207.036 189.808 206.565 189.284 206.348C188.81 206.152 188.491 206.272 188.307 206.407C187.919 206.692 187.779 207.284 187.867 208.271C188.149 211.448 191.592 214.323 193.373 215.398C193.938 215.739 194.749 216.039 195.689 216.386C198.178 217.305 201.588 218.563 204.242 221.802C206.804 224.926 213.685 232.481 222.253 235.163L222.908 235.379L223.305 235.51L226.81 230.841ZM222.509 234.362C213.917 231.673 206.852 223.661 204.891 221.269C202.092 217.854 198.414 216.496 195.98 215.597C195.081 215.266 194.304 214.978 193.808 214.679C191.884 213.518 188.937 210.832 188.704 208.196C188.621 207.256 188.801 207.088 188.801 207.088C188.801 207.088 188.849 207.077 188.963 207.126C189.246 207.243 189.466 207.513 189.564 207.866C189.794 208.688 190.876 211.45 195.194 212.521C200.547 213.846 204.31 216.212 204.467 216.311C205.139 216.737 211.586 223.27 212.781 224.623C213.753 225.724 223.058 230.042 225.511 231.17L222.993 234.522L222.509 234.362Z" fill="#83371B"/>
<path d="M225.533 212.266C224.926 210.567 221.36 202.11 220.894 201.464C220.785 201.313 218.165 197.72 213.687 194.505C210.072 191.909 210.092 188.942 210.184 188.095C210.224 187.73 210.121 187.398 209.902 187.185C209.812 187.097 209.765 187.089 209.765 187.089C209.767 187.089 209.535 187.178 209.264 188.082C208.504 190.616 210.245 194.203 211.6 195.995C211.95 196.458 212.564 197.012 213.277 197.654C215.205 199.391 218.117 202.017 219.45 206.226C220.384 209.174 223.975 219.234 230.958 224.917L231.347 225.245L234.928 223.067C233.069 221.112 226.028 213.65 225.533 212.266Z" fill="#F4B31A"/>
<path d="M231.269 226.278L236.258 223.241L235.897 222.863C235.878 222.843 235.857 222.821 235.837 222.799C235.634 222.587 235.427 222.371 235.215 222.146C231.594 218.329 226.665 212.932 226.326 211.981C225.833 210.603 222.164 201.783 221.577 200.971C221.465 200.815 218.767 197.114 214.18 193.821C210.934 191.491 210.942 188.918 211.023 188.185C211.09 187.559 210.896 186.974 210.491 186.581C210.123 186.221 209.781 186.215 209.562 186.273C209.095 186.394 208.746 186.893 208.462 187.84C207.545 190.896 209.678 194.842 210.933 196.502C211.331 197.028 211.974 197.607 212.717 198.278C214.689 200.054 217.388 202.488 218.652 206.478C219.872 210.329 223.462 219.897 230.425 225.564L230.738 225.827L231.269 226.278ZM231.347 225.246L230.958 224.918C223.975 219.234 220.385 209.175 219.45 206.226C218.117 202.018 215.205 199.393 213.278 197.654C212.565 197.012 211.95 196.458 211.601 195.995C210.245 194.202 208.503 190.617 209.264 188.083C209.536 187.178 209.768 187.089 209.765 187.089C209.765 187.089 209.813 187.098 209.903 187.185C210.122 187.397 210.225 187.729 210.185 188.096C210.092 188.944 210.072 191.91 213.687 194.506C218.166 197.72 220.785 201.313 220.894 201.465C221.36 202.109 224.926 210.567 225.533 212.266C226.028 213.65 233.068 221.111 234.928 223.067L231.347 225.246Z" fill="#83371B"/>
<path d="M242.328 219.543L246.469 218.899C245.498 216.38 241.847 206.795 241.918 205.326C242.006 203.523 241.945 194.344 241.762 193.571C241.719 193.389 240.672 189.069 237.764 184.386C235.417 180.606 236.569 177.871 236.979 177.124C237.155 176.802 237.187 176.455 237.066 176.174C237.017 176.059 236.977 176.033 236.977 176.033C236.979 176.034 236.73 176.028 236.135 176.76C234.464 178.811 234.701 182.791 235.268 184.965C235.415 185.526 235.771 186.274 236.183 187.138C237.3 189.48 238.987 193.02 238.609 197.419C238.345 200.5 237.815 211.168 242.094 219.091L242.328 219.543Z" fill="#F4B31A"/>
<path d="M247.63 219.569L247.61 219.517L247.442 219.081C247.381 218.926 247.317 218.76 247.256 218.599C247.208 218.476 247.161 218.355 247.113 218.229C246.837 217.51 246.548 216.751 246.255 215.97C244.544 211.414 242.717 206.232 242.76 205.367C242.831 203.903 242.813 194.35 242.581 193.377C242.537 193.19 241.46 188.74 238.479 183.941C236.372 180.548 237.362 178.174 237.716 177.526C238.017 176.974 238.062 176.361 237.838 175.84C237.635 175.369 237.322 175.233 237.097 175.201C236.618 175.131 236.107 175.46 235.481 176.227C233.465 178.701 233.926 183.163 234.452 185.176C234.619 185.814 234.991 186.594 235.422 187.499C236.563 189.895 238.127 193.176 237.769 197.346C237.424 201.37 237.082 211.583 241.348 219.484L241.65 220.064L241.859 220.464L247.63 219.569ZM238.608 197.42C238.986 193.021 237.298 189.48 236.182 187.139C235.77 186.273 235.413 185.526 235.266 184.966C234.699 182.792 234.462 178.812 236.133 176.761C236.73 176.029 236.978 176.035 236.975 176.034C236.975 176.034 237.017 176.06 237.065 176.175C237.186 176.456 237.154 176.802 236.978 177.125C236.568 177.873 235.416 180.607 237.763 184.387C240.671 189.07 241.718 193.391 241.76 193.572C241.944 194.345 242.004 203.523 241.917 205.327C241.846 206.795 245.496 216.381 246.467 218.9L242.326 219.544L242.092 219.093C237.814 211.169 238.344 200.501 238.608 197.42Z" fill="#83371B"/>
<path d="M254.981 218.251L255.032 218.757L259.119 219.694C259.149 216.995 259.309 206.738 259.92 205.402C260.67 203.759 264.014 195.212 264.129 194.426C264.156 194.241 264.785 189.836 263.818 184.413C263.038 180.033 265.122 177.919 265.779 177.375C266.062 177.141 266.22 176.832 266.212 176.526C266.208 176.401 266.18 176.362 266.18 176.362C266.176 176.362 265.943 176.272 265.128 176.725C262.816 178.011 261.561 181.796 261.283 184.025C261.211 184.601 261.265 185.428 261.328 186.384C261.498 188.974 261.753 192.886 259.775 196.833C258.387 199.593 253.942 209.306 254.981 218.251Z" fill="#F4B31A"/>
<path d="M254.067 217.38C254.092 217.701 254.107 218.022 254.145 218.342L254.216 219.049L254.255 219.444L259.949 220.747L259.95 220.59L259.953 220.225C259.959 219.557 259.969 218.841 259.981 218.1C260.065 212.98 260.293 206.605 260.683 205.752C261.291 204.418 264.813 195.54 264.96 194.548C264.987 194.358 265.635 189.821 264.645 184.265C263.944 180.333 265.744 178.494 266.313 178.024C266.798 177.622 267.066 177.068 267.051 176.503C267.038 175.991 266.798 175.748 266.6 175.634C266.181 175.396 265.583 175.509 264.718 175.989C261.93 177.539 260.705 181.854 260.447 183.92C260.365 184.574 260.422 185.438 260.487 186.437C260.66 189.085 260.897 192.712 259.02 196.454C257.439 199.605 254.115 207.135 253.985 214.93C253.972 215.746 254.005 216.563 254.067 217.38ZM261.327 186.383C261.264 185.426 261.211 184.599 261.282 184.024C261.56 181.794 262.814 178.01 265.127 176.724C265.943 176.27 266.175 176.36 266.178 176.36C266.178 176.36 266.207 176.399 266.21 176.525C266.219 176.83 266.061 177.139 265.778 177.374C265.121 177.917 263.037 180.03 263.817 184.411C264.783 189.834 264.155 194.239 264.127 194.424C264.011 195.21 260.669 203.757 259.919 205.4C259.308 206.737 259.149 216.994 259.117 219.692L255.031 218.756L254.98 218.249C253.94 209.304 258.384 199.593 259.771 196.829C261.752 192.885 261.496 188.972 261.327 186.383Z" fill="#83371B"/>
</g>
<defs>
<clipPath id="clip0_468_22282">
<rect width="500" height="500" fill="white"/>
</clipPath>
</defs>
</svg>
