<svg width="500" height="500" viewBox="0 0 500 500" fill="none" xmlns="http://www.w3.org/2000/svg">
<g clip-path="url(#clip0_670_338)">
<mask id="mask0_670_338" style="mask-type:luminance" maskUnits="userSpaceOnUse" x="-179" y="0" width="858" height="500">
<path d="M678.119 0H-179V500H678.119V0Z" fill="white"/>
</mask>
<g mask="url(#mask0_670_338)">
<path d="M678.119 0H-179V500H678.119V0Z" fill="#180087"/>
</g>
<mask id="mask1_670_338" style="mask-type:luminance" maskUnits="userSpaceOnUse" x="-179" y="0" width="858" height="500">
<path d="M678.119 0H-179V500H678.119V0Z" fill="white"/>
</mask>
<g mask="url(#mask1_670_338)">
<path d="M46.3959 306.323L59.5731 346.954L99.3602 331.835L75.891 367.332L112.436 389.09L70.0428 392.768L75.891 434.93L46.3959 404.106L17.1798 434.93L23.0031 392.768L-19.4915 389.09L17.1798 367.332L-6.41561 331.835L33.4728 346.954L46.3959 306.323Z" fill="white"/>
</g>
<mask id="mask2_670_338" style="mask-type:luminance" maskUnits="userSpaceOnUse" x="-179" y="0" width="858" height="500">
<path d="M678.119 0H-179V500H678.119V0Z" fill="white"/>
</mask>
<g mask="url(#mask2_670_338)">
<path d="M497.364 379.36L503.697 398.692L522.646 391.516L511.461 408.422L528.877 418.791L508.574 420.527L511.461 440.599L497.364 425.89L483.496 440.599L486.28 420.527L466.079 418.791L483.496 408.422L472.311 391.516L491.26 398.692L497.364 379.36Z" fill="white"/>
</g>
<mask id="mask3_670_338" style="mask-type:luminance" maskUnits="userSpaceOnUse" x="-179" y="0" width="858" height="500">
<path d="M678.119 0H-179V500H678.119V0Z" fill="white"/>
</mask>
<g mask="url(#mask3_670_338)">
<path d="M384.717 200.853L390.922 220.159L409.871 212.957L398.686 229.914L416.103 240.257L395.902 241.968L398.686 262.092L384.717 247.382L370.697 262.092L373.506 241.968L353.307 240.257L370.697 229.914L359.537 212.957L378.486 220.159L384.717 200.853Z" fill="white"/>
</g>
<mask id="mask4_670_338" style="mask-type:luminance" maskUnits="userSpaceOnUse" x="-179" y="0" width="858" height="500">
<path d="M678.119 0H-179V500H678.119V0Z" fill="white"/>
</mask>
<g mask="url(#mask4_670_338)">
<path d="M497.364 78.707L503.697 98.0387L522.646 90.8882L511.461 107.743L528.877 118.111L508.574 119.899L511.461 139.946L497.364 125.287L483.496 139.946L486.28 119.899L466.079 118.111L483.496 107.743L472.311 90.8882L491.26 98.0387L497.364 78.707Z" fill="white"/>
</g>
<mask id="mask5_670_338" style="mask-type:luminance" maskUnits="userSpaceOnUse" x="-179" y="0" width="858" height="500">
<path d="M678.119 0H-179V500H678.119V0Z" fill="white"/>
</mask>
<g mask="url(#mask5_670_338)">
<path d="M8.95773 0V75.2079H-179V150.365H8.95773V225.522H84.0118V150.365H272.046V75.2079H84.0118V0H8.95773Z" fill="white"/>
</g>
<mask id="mask6_670_338" style="mask-type:luminance" maskUnits="userSpaceOnUse" x="-179" y="0" width="858" height="500">
<path d="M678.119 0H-179V500H678.119V0Z" fill="white"/>
</mask>
<g mask="url(#mask6_670_338)">
<path d="M-179 0V25.2056L221.583 225.522H271.943V200.317L-128.562 0H-179Z" fill="white"/>
</g>
<mask id="mask7_670_338" style="mask-type:luminance" maskUnits="userSpaceOnUse" x="-179" y="0" width="858" height="500">
<path d="M678.119 0H-179V500H678.119V0Z" fill="white"/>
</mask>
<g mask="url(#mask7_670_338)">
<path d="M221.583 0L-179 200.317V225.522H-128.562L271.943 25.2056V0H221.583Z" fill="white"/>
</g>
<mask id="mask8_670_338" style="mask-type:luminance" maskUnits="userSpaceOnUse" x="-179" y="0" width="858" height="500">
<path d="M678.119 0H-179V500H678.119V0Z" fill="white"/>
</mask>
<g mask="url(#mask8_670_338)">
<path d="M23.8962 0V90.1986H-179V135.323H23.8962V225.522H68.9954V135.323H271.943V90.1986H68.9954V0H23.8962Z" fill="#EA0020"/>
</g>
<mask id="mask9_670_338" style="mask-type:luminance" maskUnits="userSpaceOnUse" x="-179" y="0" width="858" height="500">
<path d="M678.119 0H-179V500H678.119V0Z" fill="white"/>
</mask>
<g mask="url(#mask9_670_338)">
<path d="M-179 0V16.8292L-62.3944 75.1826H-28.6846L-179 0ZM238.336 0L88.0472 75.1826H121.654L271.943 0H238.336Z" fill="#EA0020"/>
</g>
<mask id="mask10_670_338" style="mask-type:luminance" maskUnits="userSpaceOnUse" x="-179" y="0" width="858" height="500">
<path d="M678.119 0H-179V500H678.119V0Z" fill="white"/>
</mask>
<g mask="url(#mask10_670_338)">
<path d="M-28.6597 150.365L-179 225.522H-145.392L4.94723 150.365H-28.6597ZM121.654 150.365L272.046 225.522V208.718L155.288 150.365H121.654Z" fill="#EA0020"/>
</g>
</g>
<defs>
<clipPath id="clip0_670_338">
<rect width="500" height="500" fill="white"/>
</clipPath>
</defs>
</svg>
