<svg width="500" height="500" viewBox="0 0 500 500" fill="none" xmlns="http://www.w3.org/2000/svg">
<g clip-path="url(#clip0_468_22377)">
<path d="M678.072 0H-178V163.552H678.072V0Z" fill="#D32D27"/>
<path d="M678.072 336.633H-178V500H678.072V336.633Z" fill="#017A3E"/>
<path d="M253.797 222.924C253.918 222.803 253.995 222.687 254.043 222.58L254.105 222.16C254.092 222.083 254.071 222.034 254.071 222.034L250.174 223.743L250.367 224.051L250.478 224.17C251.005 224.181 251.531 224.201 252.052 224.237L253.637 223.069C253.694 223.018 253.759 222.96 253.797 222.924Z" fill="#F7E200"/>
<path d="M236.573 298.026C236.553 298.017 236.533 298.009 236.514 298C236.557 298.136 236.602 298.272 236.643 298.409C236.617 298.261 236.593 298.134 236.573 298.026Z" fill="#F7E200"/>
<path d="M214.032 278.889C214.032 278.889 214.024 278.835 214.01 278.751L205.97 285.738L215.104 278.087L214.032 278.889Z" fill="#F7E200"/>
<path d="M263.656 297.771C263.629 297.784 263.603 297.798 263.576 297.811C263.461 298.438 263.056 300.776 262.866 303.544L263.656 297.771Z" fill="#F7E200"/>
<path d="M256.403 224.528C255.519 220.377 257.436 220.719 257.436 220.719C258.72 221.258 258.823 224.026 258.823 224.026L259.491 223.359C258.361 220.308 259.851 219.282 259.851 219.282C261.648 219.949 261.315 222.334 261.315 222.334L262.444 221.488C260.596 218.591 262.341 217.693 262.341 217.693C263.42 217.873 264.19 220.437 264.19 220.437L264.908 219.462C263.008 217.59 264.266 215.667 264.266 215.667C265.396 215.898 266.269 218.437 266.244 218.514C266.218 218.591 267.117 217.591 267.117 217.591C265.247 216.298 265.581 214.763 265.788 214.199L264.601 215.198L262.071 214.173L261.387 217.387L256.532 218.139C256.532 218.139 256.122 219.233 256.053 219.438C256.016 219.551 255.628 220.817 255.293 221.918L254.985 223.335L256.403 224.528Z" fill="#F7E200"/>
<path d="M278.782 295.738L283.95 300.05C283.95 300.05 286.478 300.217 289.215 298.919C287.786 299.542 286.066 299.957 283.979 300.05L278.782 295.738Z" fill="#F7E200"/>
<path d="M245.797 220.804L247.575 215.335L245.865 214.583L244.292 215.199L243.472 212.668H240.668L239.78 211.505L237.044 211.984L236.771 208.907L234.514 209.728L233.83 207.54C233.83 207.54 229.933 207.197 229.933 206.992C229.933 206.788 229.933 206.172 229.933 206.172L228.754 206.686C228.665 207.307 228.298 208.203 226.985 208.719L226.831 208.95L227.011 209.847C227.011 209.847 229.165 207.924 230.087 207.975C230.087 207.975 229.857 210.565 227.83 211.129L228.087 212.051C228.087 212.051 230.549 210 231.241 210.128C231.241 210.128 231.267 212.179 229.421 213.257L229.907 214.59C229.907 214.59 231.523 212.18 232.471 212.128C232.471 212.128 233.215 214.179 230.83 215.666L231.496 216.307C231.496 216.307 232.804 213.922 234.137 213.973C234.137 213.973 235.24 215.973 232.907 217.588C232.907 217.588 233.804 218.588 233.778 218.511C233.752 218.434 234.625 215.895 235.752 215.664C235.752 215.664 237.009 217.587 235.112 219.459L235.829 220.434C235.829 220.434 236.599 217.87 237.675 217.69C237.675 217.69 239.42 218.588 237.572 221.485L238.701 222.331C238.701 222.331 238.367 219.946 240.162 219.279C240.162 219.279 241.649 220.305 240.521 223.356L241.187 224.023C241.187 224.023 241.291 221.253 242.572 220.716C242.572 220.716 244.563 220.358 243.549 224.776C243.571 224.771 243.595 224.766 243.617 224.763L245.797 220.804Z" fill="#F7E200"/>
<path d="M225.622 205.9L225.832 207.335C225.832 207.335 226.183 207.081 226.652 206.796L225.627 205.898L225.622 205.9Z" fill="#F7E200"/>
<path d="M275.341 209.317L274.702 209.249L274.563 209.761C274.704 209.563 274.99 209.421 275.341 209.317Z" fill="#F7E200"/>
<path d="M268.529 216.308L269.196 215.667C267.665 214.714 267.424 213.532 267.446 212.804L266.025 213.998C267.309 214.109 268.529 216.308 268.529 216.308Z" fill="#F7E200"/>
<path d="M270.122 214.589L270.61 213.256C270.019 212.913 269.635 212.468 269.365 212.024L268.223 212.442C269.114 213.1 270.122 214.589 270.122 214.589Z" fill="#F7E200"/>
<path d="M272.201 211.128C272.029 211.079 271.875 211.013 271.727 210.938L271.164 211.367L271.103 211.39C271.584 211.752 271.944 212.05 271.944 212.05L272.201 211.128Z" fill="#F7E200"/>
<path d="M216.264 300.05C213.642 299.933 211.602 299.299 210.002 298.378C213.087 300.263 216.264 300.05 216.264 300.05Z" fill="#F7E200"/>
<path d="M678.072 163.552H-178V336.631H678.072V163.552ZM323.317 226.205L324.753 224.308L332.291 220.615L327.163 227.077L324.907 228.001L327.471 229.642L320.342 230.155L322.496 223.334L323.317 226.205ZM314.034 218.257L321.573 214.564L316.444 221.026L314.188 221.949L316.752 223.59L309.623 224.103L311.777 217.282L312.598 220.154L314.034 218.257ZM302.24 212.512L303.061 215.384L304.496 213.487L312.034 209.795L306.906 216.257L304.649 217.179L307.213 218.82L300.084 219.333L302.24 212.512ZM210.755 228.308L210.779 228.331L211.518 229.051L211.508 229.082L219.269 237.076L219.252 237.119L221.709 239.584C225.647 233.817 231.036 229.312 237.28 226.694L236.123 226.308C236.123 226.308 239.302 224.804 240.498 225.112L239.404 224.189C239.404 224.189 237.011 226.001 233.114 224.12C233.114 224.12 235.576 222.958 237.422 223.231L236.67 222.479C236.67 222.479 231.61 223.197 230.38 221.762C230.38 221.762 232.909 220.394 234.858 221.215L234.106 220.463C234.106 220.463 230.209 221.18 228.021 219.403C228.021 219.403 230.892 218.821 232.431 219.129L231.986 218.343C231.986 218.343 226.072 218.582 225.901 216.736C225.901 216.736 229.038 216.386 230.14 216.744L229.679 216.027C229.679 216.027 226.244 216.54 224.217 214.309C224.217 214.309 226.935 214.001 228.141 214.335L227.859 213.719C227.859 213.719 223.449 213.873 222.73 211.719C222.73 211.719 225.909 211.462 226.602 212.078L226.474 211.462C226.474 211.462 222.013 211.052 221.526 209.077C221.526 209.077 224.859 208.889 225.475 209.76L225.304 209.128C225.304 209.128 221.288 208.496 220.808 206.461C220.808 206.461 224.022 206.53 224.569 207.299L224.466 206.163L223.236 206.444L222.484 204.871L220.502 205.897L220.364 204.188C220.364 204.188 216.467 205.692 216.261 205.692C216.056 205.692 215.645 204.051 215.645 204.051L210.928 204.119C210.928 204.119 217.933 201.169 222.004 198.459C221.264 197.883 220.596 197.088 220.654 196.101C220.654 196.101 222.526 196.588 222.987 197.435L223.449 197.05C223.449 197.05 220.219 194.845 221.423 193.563C221.423 193.563 223.526 194.46 223.859 195.332L224.243 194.845C224.243 194.845 222.217 192.973 222.346 191.409C222.346 191.409 224.142 192.203 224.628 193.281L224.961 192.614C224.961 192.614 222.91 190.973 223.936 188.999C223.936 188.999 225.654 190.229 225.756 190.845L225.987 190.28C225.987 190.28 224.473 188.152 225.14 186.973C225.14 186.973 226.704 187.717 227.012 188.922L227.474 188.255C227.474 188.255 226.55 187.025 227.217 184.845C227.217 184.845 228.268 185.076 228.499 186.691L228.961 186.255C228.961 186.255 228.448 184.358 229.089 183.179C229.089 183.179 229.884 182.871 230.319 184.64L230.858 184.563C230.858 184.563 230.473 181.922 231.91 181.23C231.91 181.23 232.858 181.563 232.499 182.948L233.063 182.897C233.063 182.897 233.191 180.256 234.576 179.615C234.576 179.615 235.499 180.024 235.243 181.358L235.73 181.076C235.73 181.076 236.396 178.435 237.987 178.178C237.987 178.178 238.345 178.511 237.961 179.767H238.704C238.704 179.767 239.474 177.306 241.371 177.101C241.371 177.101 241.704 178.024 240.396 179.306C240.396 179.306 242.73 179.049 243.833 180.075C243.833 180.075 241.859 180.973 239.14 180.409C239.14 180.409 240.704 180.819 240.858 181.179C241.012 181.538 239.499 182.23 235.987 181.896C235.987 181.896 238.038 182.229 238.371 182.563C238.371 182.563 237.833 183.589 234.064 183.384L233.705 183.846C233.705 183.846 236.013 183.769 236.244 183.973C236.474 184.178 234.116 185.281 231.885 185.127L231.526 185.512C231.526 185.512 233.911 185.358 234.296 185.769C234.296 185.769 232.782 187.23 229.988 186.999L229.398 187.384C229.398 187.384 232.014 187.153 232.296 187.564C232.296 187.564 232.27 188.461 228.399 188.897L228.066 189.179C228.066 189.179 230.759 189.102 231.014 189.307C231.271 189.512 229.732 190.871 227.091 190.897L226.733 191.615C226.733 191.615 229.476 190.948 229.886 191.384C229.886 191.384 228.476 193.025 225.912 193.153L225.656 193.538C225.656 193.538 228.246 193.051 228.809 193.282C228.809 193.282 228.348 195.025 225.297 194.974L225.093 195.718C225.093 195.718 227.707 195.179 228.69 195.309C232.96 194.468 238.258 194.524 240.947 194.615C244.981 194.751 245.596 197.146 245.938 199.949C246.28 202.751 251.75 202.206 253.049 202.206C254.348 202.206 261.254 201.59 261.254 201.59C261.254 201.59 263.305 200.153 263.784 197.419C264.263 194.684 266.793 194.89 266.793 194.89C266.793 194.89 269.444 194.852 274.878 195.445L274.748 194.975C271.692 195.026 271.23 193.283 271.23 193.283C271.795 193.052 274.388 193.539 274.388 193.539L274.131 193.154C271.564 193.026 270.151 191.385 270.151 191.385C270.562 190.949 273.309 191.616 273.309 191.616L272.949 190.898C270.304 190.872 268.763 189.514 269.02 189.308C269.277 189.103 271.974 189.18 271.974 189.18L271.64 188.898C267.763 188.463 267.737 187.565 267.737 187.565C268.02 187.155 270.639 187.385 270.639 187.385L270.048 187C267.249 187.231 265.734 185.77 265.734 185.77C266.119 185.359 268.508 185.513 268.508 185.513L268.148 185.128C265.915 185.282 263.552 184.179 263.783 183.975C264.014 183.77 266.325 183.847 266.325 183.847L265.967 183.385C262.192 183.59 261.653 182.564 261.653 182.564C261.987 182.232 264.041 181.898 264.041 181.898C260.523 182.23 259.009 181.539 259.163 181.18C259.316 180.821 260.883 180.41 260.883 180.41C258.162 180.974 256.184 180.076 256.184 180.076C257.288 179.051 259.626 179.307 259.626 179.307C258.316 178.024 258.65 177.102 258.65 177.102C260.55 177.307 261.32 179.769 261.32 179.769H262.065C261.68 178.512 262.039 178.179 262.039 178.179C263.63 178.436 264.298 181.077 264.298 181.077L264.786 181.359C264.529 180.026 265.454 179.616 265.454 179.616C266.84 180.256 266.968 182.898 266.968 182.898L267.533 182.949C267.173 181.565 268.124 181.231 268.124 181.231C269.562 181.924 269.177 184.564 269.177 184.564L269.716 184.641C270.153 182.872 270.948 183.18 270.948 183.18C271.59 184.359 271.077 186.256 271.077 186.256L271.539 186.692C271.77 185.077 272.823 184.846 272.823 184.846C273.491 187.026 272.566 188.256 272.566 188.256L273.029 188.923C273.337 187.718 274.903 186.974 274.903 186.974C275.571 188.153 274.055 190.281 274.055 190.281L274.286 190.846C274.389 190.23 276.11 189 276.11 189C277.137 190.974 275.082 192.615 275.082 192.615L275.416 193.282C275.904 192.204 277.701 191.41 277.701 191.41C277.829 192.974 275.801 194.846 275.801 194.846L276.186 195.333C276.52 194.461 278.625 193.564 278.625 193.564C279.238 194.216 278.703 195.105 278.028 195.823C278.865 195.932 279.738 196.05 280.672 196.187C290.04 197.554 299.202 205.691 299.202 205.691H295.099L293.937 206.785L289.356 205.759L287.919 206.785L284.774 206.58L282.859 208.631L278.603 207.5C278.438 207.657 278.252 207.801 278.052 207.932L276.985 209.078C277.81 209.036 278.522 209.075 278.522 209.075C278.034 211.049 273.566 211.46 273.566 211.46L273.437 212.075C274.131 211.46 277.315 211.717 277.315 211.717C276.597 213.871 272.18 213.717 272.18 213.717L271.898 214.332C273.105 214 275.827 214.306 275.827 214.306C273.799 216.537 270.357 216.025 270.357 216.025L269.896 216.742C270.999 216.383 274.141 216.734 274.141 216.734C273.969 218.58 268.046 218.341 268.046 218.341L267.601 219.127C269.141 218.819 272.018 219.4 272.018 219.4C269.826 221.178 265.924 220.46 265.924 220.46L265.171 221.212C267.122 220.392 269.656 221.759 269.656 221.759C268.424 223.196 263.357 222.477 263.357 222.477L262.604 223.229C264.452 222.955 266.917 224.118 266.917 224.118C263.014 225.998 260.618 224.187 260.618 224.187L259.522 225.109C260.721 224.801 263.905 226.305 263.905 226.305L262.544 226.758C268.75 229.398 274.103 233.906 278.013 239.662L280.726 236.868L280.73 236.88L289.302 228.304L289.338 228.434L296.272 221.688L300.426 230.663L300.487 230.776L306.247 226.27L307.751 237.415L316.777 232.424C316.777 232.424 321.221 274.714 320.195 278.405C320.195 278.405 320.4 290.764 317.529 294.661C317.529 294.661 314.349 303.84 310.4 304.404C310.4 304.404 310.305 304.451 310.148 304.526L312.298 306.746C312.367 308.011 311.102 307.668 311.102 307.668L308.264 305.28C306.432 305.925 303.574 306.696 300.24 306.751L310.624 315.498C311.445 317.275 309.394 316.728 309.394 316.728L297.673 306.637C297.119 306.581 296.56 306.509 295.992 306.403C288.265 304.968 286.145 304.214 286.145 304.214C286.145 304.214 286.1 304.198 286.037 304.174L303.718 321.856C304.196 323.292 302.35 322.95 302.35 322.95L282.541 303.008C281.8 302.797 281.128 302.643 280.743 302.643C279.808 302.643 278.798 302.761 278.364 302.818L285.12 310.815L275.479 316.507L272.966 311.84L270.094 313.84L262.843 304.036C262.671 307.014 262.776 310.381 263.76 312.609C263.76 312.609 259.415 308.299 258.096 299.787C257.525 299.937 256.949 300.072 256.368 300.192L257.174 310.574C257.174 310.574 257.032 313.583 259.017 314.267C261 314.95 259.796 319.531 258.309 321.377C256.821 323.223 256.821 323.77 255.404 322.198C253.988 320.625 253.563 318.301 254.058 312.83C254.461 308.377 253.033 302.7 252.49 300.745C251.614 300.816 250.731 300.866 249.839 300.866C249.035 300.866 248.24 300.825 247.449 300.767C246.919 302.744 245.553 308.394 245.942 312.831C246.42 318.301 246.01 320.627 244.643 322.199C243.275 323.772 243.275 323.225 241.84 321.378C240.403 319.532 239.242 314.951 241.156 314.268C243.071 313.584 242.934 310.576 242.934 310.576L243.707 300.27C243.243 300.18 242.781 300.083 242.324 299.974C240.888 308.359 236.354 312.61 236.354 312.61C237.482 310.2 237.52 306.457 237.277 303.316C237.262 303.627 237.264 303.943 237.226 304.25L229.911 314.096L227.025 312.096L224.5 316.763L214.815 311.071L221.823 302.814C221.372 302.756 220.393 302.643 219.483 302.643C219.128 302.643 218.525 302.776 217.852 302.963L197.806 322.746C196.029 323.429 196.576 321.583 196.576 321.583L213.249 304.465C212.052 304.795 209.404 305.446 204.252 306.405C203.734 306.501 203.223 306.572 202.716 306.628L190.286 317.072C190.286 317.072 188.371 317.003 189.056 315.431L199.52 306.731C196.314 306.61 193.581 305.853 191.849 305.23L189.329 307.635C189.329 307.635 187.347 308.32 187.825 306.541L190.034 304.49C189.93 304.441 189.857 304.405 189.857 304.405C185.913 303.841 182.737 294.662 182.737 294.662C179.868 290.765 180.073 278.406 180.073 278.406C179.048 274.714 183.488 232.425 183.488 232.425L192.504 237.416L194.006 226.271L199.76 230.778L199.821 230.664L203.97 221.689L210.755 228.308ZM195.642 213.545L197.076 215.517L198.06 212.636L200.254 219.437L193.117 218.968L195.711 217.488L193.526 216.544L188.146 210.101L195.642 213.545ZM186.001 218.331L187.433 220.303L188.417 217.422L190.612 224.223L183.475 223.755L186.069 222.274L183.884 221.331L178.505 214.888L186.001 218.331ZM175.198 224.279L176.632 226.251L177.616 223.37L179.81 230.171L172.673 229.702L175.268 228.222L173.083 227.28L167.703 220.837L175.198 224.279Z" fill="#F7E200"/>
<path d="M302.342 322.956C302.342 322.956 304.188 323.298 303.709 321.862L286.028 304.18C285.609 304.025 283.948 303.415 282.532 303.013L302.342 322.956Z" fill="#9E5725"/>
<path d="M297.665 306.642L309.386 316.733C309.386 316.733 311.437 317.28 310.616 315.503L300.232 306.755C299.403 306.768 298.544 306.732 297.665 306.642Z" fill="#9E5725"/>
<path d="M311.094 307.673C311.094 307.673 312.359 308.015 312.29 306.751L310.14 304.53C309.812 304.683 309.159 304.966 308.256 305.285L311.094 307.673Z" fill="#9E5725"/>
<path d="M213.24 304.469L196.568 321.587C196.568 321.587 196.021 323.433 197.798 322.75L217.843 302.967C216.183 303.426 214.079 304.22 214.079 304.22C214.079 304.22 213.836 304.306 213.24 304.469Z" fill="#9E5725"/>
<path d="M199.51 306.735L189.045 315.435C188.361 317.007 190.276 317.076 190.276 317.076L202.705 306.632C201.603 306.751 200.535 306.774 199.51 306.735Z" fill="#9E5725"/>
<path d="M187.815 306.545C187.336 308.322 189.319 307.639 189.319 307.639L191.839 305.234C190.928 304.907 190.302 304.627 190.024 304.494L187.815 306.545Z" fill="#9E5725"/>
<path d="M304.65 217.179L306.907 216.257L312.035 209.795L304.496 213.487L303.061 215.385L302.24 212.513L300.086 219.333L307.214 218.82L304.65 217.179Z" fill="#F4F4F4"/>
<path d="M195.711 217.488L193.116 218.968L200.253 219.437L198.059 212.636L197.076 215.517L195.642 213.545L188.146 210.102L193.526 216.544L195.711 217.488Z" fill="#F4F4F4"/>
<path d="M186.069 222.274L183.476 223.754L190.613 224.223L188.418 217.422L187.434 220.303L186 218.331L178.505 214.888L183.884 221.331L186.069 222.274Z" fill="#F4F4F4"/>
<path d="M175.266 228.222L172.672 229.703L179.809 230.171L177.615 223.371L176.632 226.252L175.198 224.279L167.702 220.837L173.082 227.28L175.266 228.222Z" fill="#F4F4F4"/>
<path d="M309.625 224.103L316.754 223.59L314.189 221.949L316.446 221.025L321.573 214.564L314.035 218.257L312.6 220.154L311.779 217.282L309.625 224.103Z" fill="#F4F4F4"/>
<path d="M327.47 229.641L324.907 228L327.162 227.077L332.291 220.615L324.753 224.307L323.316 226.204L322.496 223.333L320.342 230.153L327.47 229.641Z" fill="#F4F4F4"/>
<path d="M270.411 293.566C268.321 295.225 266.059 296.643 263.657 297.77L262.867 303.544C262.856 303.707 262.845 303.873 262.836 304.039L270.088 313.844L272.959 311.844L275.472 316.51L285.113 310.818L278.358 302.822C278.22 302.839 278.139 302.852 278.139 302.852L270.411 293.566Z" fill="#9F5A29"/>
<path d="M236.513 298C234.047 296.892 231.726 295.484 229.579 293.82L222.07 302.853C222.07 302.853 221.973 302.839 221.814 302.817L214.807 311.074L224.492 316.767L227.016 312.1L229.902 314.1L237.218 304.254C237.256 303.946 237.254 303.631 237.269 303.319C237.105 301.218 236.817 299.39 236.643 298.409C236.602 298.274 236.556 298.136 236.513 298Z" fill="#9F5A29"/>
<path d="M236.641 298.409C236.815 299.392 237.103 301.219 237.266 303.319C237.51 306.46 237.471 310.203 236.343 312.614C236.343 312.614 240.878 308.364 242.313 299.978C240.331 299.504 238.413 298.849 236.571 298.026C236.593 298.134 236.616 298.261 236.641 298.409Z" fill="#037A3E"/>
<path d="M263.575 297.811C261.816 298.631 259.98 299.292 258.087 299.792C259.406 308.303 263.752 312.613 263.752 312.613C262.768 310.385 262.664 307.017 262.834 304.04C262.843 303.873 262.854 303.709 262.865 303.545C263.055 300.776 263.46 298.438 263.575 297.811Z" fill="#037A3E"/>
<path d="M242.925 310.579C242.925 310.579 243.062 313.588 241.147 314.271C239.232 314.954 240.395 319.536 241.83 321.382C243.267 323.228 243.267 323.775 244.633 322.203C246.001 320.63 246.411 318.306 245.932 312.835C245.544 308.398 246.91 302.747 247.44 300.771C246.171 300.677 244.923 300.51 243.697 300.273L242.925 310.579Z" fill="#CF2F27"/>
<path d="M254.049 312.837C253.553 318.306 253.978 320.632 255.396 322.204C256.813 323.777 256.813 323.23 258.3 321.384C259.788 319.538 260.992 314.956 259.008 314.273C257.025 313.59 257.166 310.581 257.166 310.581L256.359 300.198C255.089 300.46 253.796 300.645 252.481 300.752C253.026 302.706 254.453 308.382 254.049 312.837Z" fill="#CF2F27"/>
<path d="M282.682 275.97L285.609 278.406C285.701 277.841 287.089 269.338 287.396 267.999C287.713 266.614 287.396 262.511 287.343 261.998C287.289 261.486 286.55 255.383 286.814 253.178C287.079 250.973 285.23 242.152 285.23 242.152L283.224 243.717L280.532 237.076L280.724 236.883L280.72 236.871L278.007 239.666C282.341 246.048 284.908 253.951 284.908 262.512C284.907 267.249 284.117 271.782 282.682 275.97Z" fill="#0C7E3F"/>
<path d="M214.703 242.154C214.703 242.154 212.908 250.975 213.165 253.179C213.422 255.384 212.703 261.487 212.652 262C212.601 262.513 212.293 266.616 212.601 268C212.909 269.384 214.344 278.461 214.344 278.461L214.01 278.751C214.023 278.835 214.032 278.888 214.032 278.888L215.105 278.087L217.131 276.39C215.603 272.085 214.755 267.408 214.755 262.513C214.755 253.916 217.341 245.981 221.708 239.586L219.251 237.12L216.652 243.719L214.703 242.154Z" fill="#0C7E3F"/>
<path d="M210.755 228.308V228.309L210.777 228.331L210.755 228.308Z" fill="#FDDF00"/>
<path d="M205.677 234.974L203.765 241.658L202.741 258.614L201.307 279.948L204.312 287.127L205.971 285.737L214.011 278.751L214.345 278.461C214.345 278.461 212.909 269.384 212.602 268C212.294 266.616 212.602 262.513 212.653 262C212.704 261.487 213.423 255.384 213.166 253.179C212.909 250.974 214.704 242.154 214.704 242.154L216.653 243.718L219.252 237.119L219.269 237.076L211.508 229.082L208.931 237.333L205.677 234.974Z" fill="#FDDF00"/>
<path d="M283.224 243.718L285.23 242.154C285.23 242.154 287.078 250.974 286.814 253.179C286.55 255.384 287.289 261.487 287.342 262C287.396 262.513 287.712 266.616 287.396 268C287.089 269.338 285.701 277.841 285.609 278.407L295.96 287.02L298.923 279.948L297.488 258.614L296.463 241.658L294.548 234.974L291.291 237.333L288.702 229.051L289.332 228.438L289.296 228.308L280.724 236.883L280.531 237.076L283.224 243.718Z" fill="#FDDF00"/>
<path d="M199.811 230.667L199.751 230.781L193.997 226.274L192.495 237.419L183.479 232.428C183.479 232.428 179.039 274.718 180.064 278.409C180.064 278.409 179.859 290.768 182.728 294.665C182.728 294.665 185.904 303.844 189.848 304.408C189.848 304.408 189.92 304.444 190.025 304.493C190.303 304.626 190.929 304.907 191.839 305.233C193.572 305.856 196.304 306.613 199.51 306.734C200.535 306.772 201.603 306.75 202.707 306.629C203.214 306.574 203.725 306.503 204.243 306.407C209.395 305.449 212.044 304.796 213.24 304.467C213.835 304.304 214.078 304.219 214.078 304.219C214.078 304.219 216.183 303.425 217.842 302.966C218.516 302.78 219.119 302.646 219.474 302.646C220.382 302.646 221.362 302.757 221.814 302.817C221.974 302.838 222.07 302.852 222.07 302.852L229.578 293.819C228.579 293.045 227.617 292.215 226.699 291.333L216.264 300.049C216.264 300.049 213.087 300.262 210.002 298.377C203.917 294.871 204.311 287.127 204.311 287.127L201.306 279.947L202.74 258.614L203.764 241.657L205.677 234.974L208.929 237.332L211.506 229.081L211.516 229.051L210.777 228.331L210.753 228.308L203.96 221.692L199.811 230.667Z" fill="#D32D27"/>
<path d="M291.292 237.333L294.549 234.975L296.463 241.658L297.489 258.615L298.924 279.948L295.961 287.02L296.048 287.091C296.048 287.091 296.493 295.747 289.215 298.919C286.479 300.217 283.951 300.05 283.951 300.05L278.783 295.739L273.202 291.109C272.312 291.979 271.38 292.798 270.411 293.567L278.139 302.854C278.139 302.854 278.22 302.842 278.358 302.823C278.791 302.767 279.801 302.648 280.737 302.648C281.122 302.648 281.793 302.802 282.534 303.013C283.949 303.415 285.611 304.024 286.03 304.18C286.094 304.204 286.139 304.221 286.139 304.221C286.139 304.221 288.258 304.973 295.985 306.409C296.552 306.514 297.112 306.587 297.666 306.643C298.545 306.732 299.405 306.769 300.234 306.756C303.568 306.703 306.425 305.931 308.257 305.285C309.162 304.967 309.815 304.684 310.141 304.531C310.299 304.458 310.394 304.409 310.394 304.409C314.343 303.845 317.522 294.666 317.522 294.666C320.394 290.769 320.189 278.41 320.189 278.41C321.214 274.718 316.77 232.429 316.77 232.429L307.745 237.42L306.241 226.275L300.48 230.782L300.419 230.668L296.266 221.693L289.331 228.439L288.701 229.053L291.292 237.333Z" fill="#D32D27"/>
<path d="M217.131 276.389L215.105 278.086L205.971 285.736L204.312 287.126C204.312 287.126 203.918 294.871 210.003 298.377C211.603 299.298 213.644 299.932 216.265 300.049L226.699 291.332C222.498 287.299 219.191 282.187 217.131 276.389Z" fill="#E0A026"/>
<path d="M283.979 300.05C286.066 299.958 287.785 299.542 289.214 298.919C296.492 295.747 296.047 287.091 296.047 287.091L295.96 287.02L285.609 278.407L282.681 275.972C280.672 281.833 277.391 287.013 273.201 291.11L278.782 295.74L283.979 300.05Z" fill="#E0A026"/>
<path d="M222.59 245.696L223.413 244.41C223.413 244.41 224.086 243.513 223.533 243.138C222.979 242.764 222.291 242.989 221.379 244.979C221.359 245.021 222.59 245.696 222.59 245.696Z" fill="#03A5DB"/>
<path d="M277.886 246.295L275.702 246.234L276.449 247.761L277.886 246.295Z" fill="#03A5DB"/>
<path d="M243.552 224.779C243.538 224.843 243.527 224.9 243.511 224.965L243.621 224.765C243.597 224.769 243.575 224.774 243.552 224.779Z" fill="#03A5DB"/>
<path d="M224.833 246.982L226.015 245.936C226.015 245.936 227.077 244.425 225.476 244.605C225.476 244.605 225.131 244.515 224.414 245.383L223.741 246.235L224.833 246.982Z" fill="#03A5DB"/>
<path d="M217.132 276.388C219.191 282.186 222.499 287.299 226.699 291.333C227.618 292.215 228.579 293.046 229.579 293.82C231.726 295.484 234.048 296.892 236.514 298C236.534 298.009 236.554 298.017 236.573 298.026C238.414 298.849 240.332 299.505 242.315 299.977C242.772 300.086 243.234 300.183 243.698 300.273C244.925 300.51 246.174 300.678 247.441 300.771C248.231 300.829 249.026 300.869 249.83 300.869C250.723 300.869 251.606 300.821 252.482 300.748C253.796 300.641 255.09 300.456 256.36 300.194C256.941 300.075 257.517 299.94 258.088 299.789C259.981 299.289 261.816 298.629 263.576 297.808C263.603 297.795 263.629 297.781 263.657 297.768C266.059 296.639 268.321 295.223 270.411 293.564C271.379 292.796 272.311 291.976 273.202 291.106C277.39 287.009 280.672 281.831 282.682 275.968C284.117 271.78 284.908 267.247 284.908 262.509C284.908 253.949 282.342 246.045 278.007 239.662C274.098 233.906 268.746 229.397 262.539 226.757L262.359 226.818L256.513 225.023C256.504 224.99 256.5 224.962 256.492 224.929L254.267 224.715L252.819 226.331V231.365H252.161V225.875L252.362 225.866L252.423 225.177L250.603 225.305L252.054 224.235C251.533 224.2 251.007 224.18 250.481 224.169L251.039 224.767L250.812 224.759L250.86 224.836L248.851 224.702C248.759 224.823 246.732 227.487 246.732 227.563C246.732 227.64 247.167 225.076 247.167 225.076L245.295 225.05L245.373 224.987L243.134 225.656L243.478 225.031L237.665 226.818L237.283 226.691C231.039 229.309 225.65 233.816 221.713 239.582C217.346 245.977 214.76 253.913 214.76 262.509C214.755 267.408 215.603 272.084 217.132 276.388ZM219.583 266.297L220.241 264.27L220.9 266.297H223.031L221.307 267.55L221.965 269.577L220.241 268.324L218.517 269.577L219.175 267.55L217.451 266.297H219.583ZM237.312 295.422L235.588 294.169L233.864 295.422L234.522 293.395L232.798 292.142H234.929L235.588 290.115L236.246 292.142H238.378L236.653 293.395L237.312 295.422ZM229.549 287.974L227.824 286.721L226.1 287.974L226.759 285.947L225.035 284.694H227.166L227.824 282.668L228.483 284.694H230.614L228.89 285.947L229.549 287.974ZM223.506 277.781L224.164 279.807L222.44 278.554L220.716 279.807L221.374 277.781L219.65 276.528H221.782L222.44 274.502L223.098 276.528H225.23L223.506 277.781ZM241.996 296.092H244.128L244.786 294.065L245.444 296.092H247.576L245.852 297.345L246.51 299.372L244.786 298.12L243.062 299.372L243.72 297.345L241.996 296.092ZM255.286 298.163L253.562 299.416L254.22 297.389L252.496 296.136H254.627L255.286 294.109L255.944 296.136H258.076L256.351 297.389L257.01 299.416L255.286 298.163ZM264.44 294.259L262.716 295.512L263.375 293.485L261.65 292.232H263.782L264.44 290.205L265.099 292.232H267.23L265.506 293.485L266.164 295.512L264.44 294.259ZM282.217 266.387L280.492 267.64L281.151 269.667L279.427 268.414L277.703 269.667L278.361 267.64L276.637 266.387H278.768L279.427 264.36L280.085 266.387H282.217ZM276.838 276.483L277.497 274.456L278.155 276.483H280.286L278.562 277.736L279.221 279.762L277.497 278.509L275.773 279.762L276.431 277.736L274.707 276.483H276.838ZM275.081 284.829L273.357 286.082L274.015 288.109L272.291 286.856L270.567 288.109L271.225 286.082L269.501 284.829H271.633L272.291 282.801L272.95 284.829H275.081ZM279.891 245.487L275.164 250.093L274.925 249.674L275.912 248.447L274.775 246.174L272.921 246.233L272.742 245.396L279.891 245.487ZM272.457 235.899L273.07 236.512L269.256 240.326L268.672 239.743L272.457 235.899ZM261.344 228.683L262.106 228.773L262.129 232.968L265.472 230.411L265.988 230.882L261.299 234.36L261.344 228.683ZM240.883 226.775H241.758V231.464H244.787V232.407H240.883V226.775ZM250.036 232.974C264.084 232.974 275.472 246.428 275.472 263.025C275.472 263.963 275.435 264.89 275.365 265.804C274.178 281.099 263.289 293.075 250.036 293.075C236.524 293.075 225.475 280.629 224.651 264.912C224.618 264.288 224.601 263.659 224.601 263.024C224.601 246.428 235.989 232.974 250.036 232.974ZM224.057 242.54C224.888 243.236 224.579 243.996 224.312 244.396C225.055 243.64 226.535 243.526 227.018 244.425C227.557 245.427 226.585 246.309 226.585 246.309L224.775 247.849L220.318 245.366C220.318 245.366 221.2 243.706 221.455 243.228C221.71 242.749 222.859 241.538 224.057 242.54Z" fill="#03A5DB"/>
<path d="M224.65 264.912C227.838 263.55 235.653 260.01 238.6 256.82C239.03 256.354 239.505 255.861 240.007 255.36L236.191 255.845L242.037 251.486L234.14 249.64L241.986 248.358L235.473 243.332L241.883 245.128L239.062 238.82L245.318 243.229L243.729 236.204L248.242 241.64L249.78 235.231L251.267 241.999L255.267 235.999L254.805 243.128L259.985 238.769L256.754 245.383L263.523 243.64L257.626 248.717L265.369 249.999L257.318 251.537L262.754 255.025L258.399 254.566C263.911 258.807 271.672 264.279 275.366 265.804C275.435 264.888 275.472 263.961 275.472 263.025C275.472 246.428 264.083 232.974 250.037 232.974C235.989 232.974 224.602 246.428 224.602 263.025C224.602 263.659 224.617 264.289 224.65 264.912Z" fill="#FDDF00"/>
<path d="M228.685 195.31C227.703 195.179 225.087 195.719 225.087 195.719L225.292 194.975C228.344 195.026 228.804 193.283 228.804 193.283C228.241 193.052 225.651 193.539 225.651 193.539L225.907 193.154C228.47 193.026 229.881 191.385 229.881 191.385C229.471 190.949 226.727 191.616 226.727 191.616L227.086 190.898C229.727 190.872 231.265 189.514 231.009 189.308C230.753 189.103 228.061 189.18 228.061 189.18L228.393 188.898C232.266 188.462 232.29 187.565 232.29 187.565C232.009 187.155 229.393 187.385 229.393 187.385L229.983 187C232.777 187.231 234.29 185.769 234.29 185.769C233.906 185.359 231.521 185.513 231.521 185.513L231.88 185.128C234.11 185.282 236.469 184.179 236.238 183.974C236.007 183.769 233.7 183.846 233.7 183.846L234.058 183.385C237.827 183.589 238.366 182.564 238.366 182.564C238.034 182.231 235.981 181.897 235.981 181.897C239.495 182.23 241.007 181.539 240.853 181.18C240.699 180.821 239.135 180.41 239.135 180.41C241.852 180.974 243.827 180.076 243.827 180.076C242.725 179.051 240.391 179.306 240.391 179.306C241.698 178.024 241.366 177.102 241.366 177.102C239.469 177.306 238.699 179.768 238.699 179.768H237.955C238.34 178.512 237.982 178.179 237.982 178.179C236.391 178.436 235.725 181.077 235.725 181.077L235.238 181.359C235.494 180.025 234.571 179.616 234.571 179.616C233.187 180.256 233.058 182.898 233.058 182.898L232.494 182.949C232.853 181.565 231.904 181.231 231.904 181.231C230.468 181.923 230.853 184.564 230.853 184.564L230.314 184.641C229.878 182.872 229.084 183.18 229.084 183.18C228.443 184.359 228.956 186.256 228.956 186.256L228.494 186.692C228.263 185.077 227.212 184.846 227.212 184.846C226.545 187.026 227.469 188.256 227.469 188.256L227.007 188.923C226.699 187.717 225.135 186.974 225.135 186.974C224.468 188.153 225.981 190.281 225.981 190.281L225.75 190.846C225.647 190.23 223.93 189 223.93 189C222.905 190.974 224.956 192.615 224.956 192.615L224.623 193.282C224.137 192.204 222.341 191.41 222.341 191.41C222.214 192.974 224.238 194.846 224.238 194.846L223.854 195.333C223.521 194.461 221.418 193.563 221.418 193.563C220.212 194.846 223.444 197.051 223.444 197.051L222.982 197.436C222.52 196.589 220.649 196.102 220.649 196.102C220.59 197.089 221.258 197.884 221.999 198.46C222.566 198.082 223.078 197.71 223.504 197.35C224.668 196.371 226.55 195.73 228.685 195.31Z" fill="#0E753B"/>
<path d="M243.474 225.033L243.512 224.965C243.527 224.9 243.538 224.843 243.554 224.779C244.568 220.359 242.577 220.718 242.577 220.718C241.294 221.257 241.192 224.026 241.192 224.026L240.526 223.359C241.654 220.307 240.167 219.282 240.167 219.282C238.372 219.949 238.706 222.333 238.706 222.333L237.577 221.488C239.423 218.59 237.68 217.693 237.68 217.693C236.604 217.873 235.834 220.436 235.834 220.436L235.117 219.462C237.014 217.59 235.757 215.667 235.757 215.667C234.629 215.898 233.757 218.436 233.783 218.513C233.809 218.59 232.912 217.591 232.912 217.591C235.246 215.976 234.142 213.976 234.142 213.976C232.809 213.925 231.501 216.31 231.501 216.31L230.835 215.669C233.22 214.182 232.476 212.131 232.476 212.131C231.527 212.182 229.912 214.593 229.912 214.593L229.426 213.259C231.272 212.183 231.246 210.131 231.246 210.131C230.553 210.003 228.092 212.054 228.092 212.054L227.835 211.132C229.861 210.567 230.092 207.978 230.092 207.978C229.169 207.927 227.016 209.85 227.016 209.85L226.836 208.953L226.99 208.722C228.303 208.205 228.67 207.31 228.759 206.689L227.272 207.337L226.656 206.799C226.187 207.084 225.835 207.337 225.835 207.337L225.626 205.902L224.466 206.168L224.569 207.303C224.022 206.533 220.809 206.466 220.809 206.466C221.287 208.5 225.305 209.133 225.305 209.133L225.475 209.765C224.86 208.894 221.526 209.082 221.526 209.082C222.013 211.056 226.475 211.467 226.475 211.467L226.603 212.082C225.91 211.467 222.731 211.724 222.731 211.724C223.448 213.878 227.859 213.724 227.859 213.724L228.141 214.339C226.935 214.007 224.218 214.313 224.218 214.313C226.244 216.544 229.679 216.031 229.679 216.031L230.141 216.749C229.038 216.39 225.902 216.741 225.902 216.741C226.072 218.587 231.987 218.348 231.987 218.348L232.431 219.134C230.893 218.826 228.021 219.407 228.021 219.407C230.209 221.185 234.106 220.467 234.106 220.467L234.858 221.219C232.909 220.399 230.38 221.766 230.38 221.766C231.61 223.203 236.67 222.484 236.67 222.484L237.422 223.236C235.576 222.962 233.114 224.125 233.114 224.125C237.011 226.005 239.404 224.194 239.404 224.194L240.499 225.116C239.303 224.808 236.123 226.312 236.123 226.312L237.28 226.698L237.661 226.825L243.474 225.033Z" fill="#0E753B"/>
<path d="M275.342 209.317C274.99 209.42 274.705 209.562 274.564 209.761L274.702 209.249L274.036 209.179L271.727 210.939C271.875 211.013 272.028 211.08 272.201 211.128L271.944 212.051C271.944 212.051 271.584 211.751 271.103 211.39L269.365 212.025C269.635 212.469 270.02 212.912 270.61 213.256L270.122 214.589C270.122 214.589 269.114 213.1 268.222 212.443L267.609 212.666L267.447 212.803C267.425 213.531 267.667 214.713 269.197 215.666L268.529 216.306C268.529 216.306 267.31 214.108 266.025 213.997L265.788 214.196C265.58 214.76 265.247 216.296 267.117 217.589C267.117 217.589 266.218 218.588 266.244 218.511C266.27 218.434 265.396 215.896 264.266 215.665C264.266 215.665 263.008 217.588 264.908 219.46L264.189 220.434C264.189 220.434 263.419 217.871 262.341 217.691C262.341 217.691 260.596 218.588 262.444 221.486L261.314 222.331C261.314 222.331 261.648 219.947 259.851 219.28C259.851 219.28 258.361 220.305 259.491 223.357L258.823 224.023C258.823 224.023 258.72 221.254 257.436 220.716C257.436 220.716 255.519 220.374 256.403 224.526L256.933 224.972L256.491 224.929C256.5 224.963 256.503 224.99 256.512 225.023L262.358 226.818L262.538 226.758L263.898 226.305C263.898 226.305 260.714 224.802 259.516 225.109L260.611 224.187C260.611 224.187 263.008 225.999 266.911 224.118C266.911 224.118 264.445 222.955 262.597 223.229L263.35 222.477C263.35 222.477 268.417 223.195 269.65 221.759C269.65 221.759 267.116 220.392 265.164 221.212L265.917 220.46C265.917 220.46 269.82 221.178 272.011 219.401C272.011 219.401 269.134 218.819 267.594 219.127L268.039 218.341C268.039 218.341 273.962 218.58 274.134 216.734C274.134 216.734 270.992 216.383 269.889 216.742L270.351 216.025C270.351 216.025 273.792 216.537 275.82 214.306C275.82 214.306 273.098 213.999 271.891 214.333L272.173 213.717C272.173 213.717 276.59 213.871 277.309 211.717C277.309 211.717 274.124 211.46 273.43 212.076L273.56 211.46C273.56 211.46 278.027 211.05 278.515 209.075C278.515 209.075 277.804 209.036 276.978 209.079L276.631 209.452L275.342 209.317Z" fill="#0E753B"/>
<path d="M278.62 193.565C278.62 193.565 276.515 194.463 276.181 195.335L275.796 194.848C275.796 194.848 277.825 192.976 277.697 191.411C277.697 191.411 275.899 192.206 275.411 193.284L275.077 192.617C275.077 192.617 277.132 190.976 276.105 189.002C276.105 189.002 274.385 190.232 274.282 190.848L274.051 190.283C274.051 190.283 275.565 188.155 274.899 186.976C274.899 186.976 273.332 187.719 273.024 188.925L272.561 188.258C272.561 188.258 273.486 187.028 272.818 184.848C272.818 184.848 271.765 185.079 271.534 186.694L271.073 186.258C271.073 186.258 271.587 184.361 270.944 183.182C270.944 183.182 270.148 182.874 269.711 184.643L269.172 184.566C269.172 184.566 269.557 181.925 268.119 181.233C268.119 181.233 267.17 181.565 267.528 182.951L266.964 182.9C266.964 182.9 266.835 180.259 265.449 179.617C265.449 179.617 264.524 180.027 264.781 181.36L264.293 181.079C264.293 181.079 263.626 178.438 262.034 178.181C262.034 178.181 261.674 178.514 262.06 179.77H261.315C261.315 179.77 260.544 177.308 258.645 177.104C258.645 177.104 258.311 178.027 259.621 179.308C259.621 179.308 257.284 179.051 256.18 180.078C256.18 180.078 258.157 180.976 260.878 180.412C260.878 180.412 259.312 180.822 259.158 181.182C259.004 181.54 260.518 182.233 264.036 181.899C264.036 181.899 261.982 182.232 261.648 182.566C261.648 182.566 262.187 183.591 265.962 183.387L266.321 183.848C266.321 183.848 264.009 183.771 263.778 183.976C263.547 184.181 265.91 185.284 268.143 185.13L268.503 185.514C268.503 185.514 266.115 185.361 265.73 185.771C265.73 185.771 267.244 187.233 270.044 187.002L270.635 187.387C270.635 187.387 268.015 187.156 267.732 187.567C267.732 187.567 267.758 188.464 271.635 188.9L271.969 189.182C271.969 189.182 269.273 189.105 269.016 189.31C268.759 189.514 270.299 190.874 272.945 190.9L273.305 191.618C273.305 191.618 270.558 190.951 270.147 191.387C270.147 191.387 271.559 193.028 274.126 193.156L274.384 193.541C274.384 193.541 271.79 193.054 271.225 193.285C271.225 193.285 271.687 195.028 274.743 194.977L274.874 195.447C275.835 195.552 276.888 195.678 278.025 195.826C278.698 195.107 279.234 194.217 278.62 193.565Z" fill="#0E753B"/>
<path d="M278.049 207.935C278.249 207.803 278.436 207.66 278.599 207.503L278.481 207.471L278.049 207.935Z" fill="#0E753B"/>
<path d="M225.626 205.898L226.652 206.795L227.268 207.334L228.755 206.685L229.934 206.171C229.934 206.171 229.934 206.787 229.934 206.992C229.934 207.197 233.831 207.539 233.831 207.539L234.515 209.727L236.772 208.906L237.045 211.983L239.78 211.505L240.669 212.667H243.473L244.293 215.198L245.866 214.582L247.576 215.334L245.798 220.804L243.622 224.766L243.512 224.966L243.474 225.034L243.13 225.66L245.37 224.991L248.728 222.284L249.061 219.13L250.548 219.258L249.932 223.591L250.364 224.053L250.171 223.745L254.068 222.036C254.068 222.036 254.09 222.085 254.103 222.162L254.522 219.335L255.881 219.207L255.292 221.919C255.628 220.818 256.014 219.552 256.052 219.438C256.121 219.233 256.53 218.139 256.53 218.139L261.385 217.387L262.07 214.174L264.599 215.199L265.787 214.2L266.023 214.001L267.444 212.806L267.607 212.67L268.219 212.446L269.362 212.028L271.099 211.393L271.16 211.371L271.723 210.942L274.032 209.182L274.698 209.252L275.338 209.32L276.631 209.456L276.978 209.083L278.045 207.937L278.477 207.473L278.595 207.505L282.852 208.635L284.767 206.584L287.912 206.789L289.348 205.764L293.93 206.789L295.092 205.695H299.195C299.195 205.695 290.033 197.559 280.665 196.191C279.731 196.055 278.859 195.937 278.021 195.828C276.884 195.68 275.832 195.553 274.87 195.449C269.436 194.856 266.785 194.893 266.785 194.893C266.785 194.893 264.255 194.689 263.776 197.423C263.298 200.158 261.245 201.593 261.245 201.593C261.245 201.593 254.339 202.209 253.04 202.209C251.741 202.209 246.272 202.756 245.93 199.952C245.587 197.149 244.973 194.756 240.939 194.619C238.249 194.528 232.95 194.472 228.682 195.313C226.548 195.733 224.666 196.374 223.503 197.353C223.077 197.712 222.566 198.085 221.998 198.462C217.927 201.172 210.922 204.123 210.922 204.123L215.639 204.054C215.639 204.054 216.05 205.695 216.255 205.695C216.46 205.695 220.358 204.191 220.358 204.191L220.496 205.9L222.478 204.875L223.23 206.447L224.46 206.166L225.619 205.901L225.626 205.898ZM242.788 208.496C243.438 207.778 244.532 207.744 244.429 207.3C244.399 207.165 244.415 206.901 244.498 206.607C244.042 206.666 242.994 206.76 243.301 206.034C243.678 205.145 245.421 202.889 247.848 204.324C248.461 204.687 248.691 204.973 248.695 205.199L250.371 205.217C251.146 203.946 252.508 203.094 254.071 203.094C256.487 203.094 258.447 205.114 258.447 207.606C258.447 210.099 256.487 212.119 254.071 212.119C251.849 212.119 250.035 210.407 249.752 208.196C247.971 208.159 246.023 208.119 245.968 208.119C245.865 208.119 245.865 208.837 245.421 208.905C244.977 208.974 242.139 209.213 242.788 208.496Z" fill="#432A22"/>
<path d="M253.636 223.07L254.01 222.795L254.042 222.579C253.993 222.686 253.918 222.802 253.797 222.922C253.759 222.96 253.694 223.018 253.636 223.07Z" fill="#432A22"/>
<path d="M248.848 224.703L250.857 224.837L250.809 224.761L248.857 224.692L248.848 224.703Z" fill="#432A22"/>
<path d="M249.934 223.591L250.549 219.258L249.062 219.13L248.729 222.283L245.371 224.99L245.293 225.053L247.165 225.079C247.165 225.079 246.729 227.643 246.729 227.566C246.729 227.491 248.757 224.826 248.849 224.705C248.851 224.702 248.857 224.693 248.857 224.693L250.81 224.762L251.037 224.77L250.478 224.172L250.367 224.052L249.934 223.591Z" fill="#D9A267"/>
<path d="M256.402 224.528L254.984 223.333L255.292 221.917L255.882 219.205L254.523 219.333L254.103 222.159L254.042 222.58L254.01 222.794L253.636 223.07L252.051 224.238L250.6 225.307L252.421 225.179L252.36 225.869L252.817 225.848V226.334L254.266 224.717L256.491 224.932L256.932 224.974L256.402 224.528Z" fill="#D9A267"/>
<path d="M246.754 205.181L248.693 205.201C248.691 204.976 248.461 204.689 247.847 204.326C245.419 202.89 243.676 205.146 243.3 206.036C242.993 206.76 244.04 206.668 244.497 206.609C244.688 205.933 245.276 205.085 246.754 205.181Z" fill="#E12E26"/>
<path d="M254.924 207.162C254.924 207.162 254.821 208.496 252.668 208.257C252.668 208.257 251.269 208.227 249.751 208.196C250.034 210.407 251.848 212.119 254.069 212.119C256.486 212.119 258.446 210.099 258.446 207.607C258.446 205.114 256.486 203.094 254.069 203.094C252.506 203.094 251.145 203.945 250.37 205.217L253.385 205.248C253.385 205.248 255.37 205.248 254.924 207.162Z" fill="#F4F4F4"/>
<path d="M245.421 208.906C245.865 208.837 245.865 208.12 245.968 208.12C246.024 208.12 247.97 208.16 249.753 208.197C251.271 208.227 252.669 208.257 252.669 208.257C254.823 208.496 254.926 207.163 254.926 207.163C255.37 205.248 253.388 205.248 253.388 205.248L250.373 205.217L248.696 205.2L246.757 205.179C245.279 205.083 244.692 205.931 244.501 206.606C244.418 206.9 244.401 207.164 244.432 207.299C244.535 207.743 243.441 207.777 242.791 208.495C242.14 209.214 244.977 208.975 245.421 208.906Z" fill="#DB9F68"/>
<path d="M253.163 250.307C254.222 251.271 256.122 252.817 258.397 254.566L262.752 255.025L257.316 251.537L265.367 249.999L257.624 248.717L263.521 243.64L256.752 245.383L259.983 238.769L254.803 243.127L255.265 235.999L251.265 241.999L249.778 235.23L248.24 241.64L243.727 236.204L245.316 243.229L239.06 238.82L241.881 245.127L235.471 243.332L241.984 248.358L234.138 249.64L242.035 251.486L236.189 255.845L240.005 255.36C243.876 251.495 249.623 247.085 253.163 250.307ZM253.728 247.461C254.479 247.461 255.087 247.863 255.087 248.359C255.087 248.855 254.479 249.257 253.728 249.257C252.977 249.257 252.37 248.855 252.37 248.359C252.369 247.863 252.977 247.461 253.728 247.461ZM246.421 247.461C247.172 247.461 247.78 247.863 247.78 248.359C247.78 248.855 247.172 249.257 246.421 249.257C245.67 249.257 245.061 248.855 245.061 248.359C245.061 247.863 245.67 247.461 246.421 247.461Z" fill="#E12E26"/>
<path d="M253.728 249.256C254.479 249.256 255.088 248.855 255.088 248.359C255.088 247.862 254.479 247.461 253.728 247.461C252.978 247.461 252.37 247.862 252.37 248.359C252.369 248.853 252.978 249.256 253.728 249.256Z" fill="black"/>
<path d="M246.421 249.256C247.172 249.256 247.78 248.855 247.78 248.359C247.78 247.862 247.172 247.461 246.421 247.461C245.67 247.461 245.062 247.862 245.062 248.359C245.062 248.853 245.67 249.256 246.421 249.256Z" fill="black"/>
<path d="M253.164 250.307C249.623 247.084 243.876 251.495 240.006 255.36C239.503 255.861 239.03 256.355 238.599 256.82C235.651 260.01 227.836 263.551 224.648 264.912C225.473 280.629 236.523 293.076 250.034 293.076C263.287 293.076 274.175 281.098 275.363 265.805C271.668 264.279 263.907 258.808 258.396 254.568C256.124 252.817 254.223 251.271 253.164 250.307ZM248.78 274.846H247.55C247.55 274.846 247.165 276.641 247.165 276.974C247.165 277.307 245.985 281.641 245.985 282.358C245.985 283.076 247.088 286.435 247.114 287.076C247.14 287.716 247.704 287.666 247.704 287.666C248.473 288.486 246.986 288.743 246.575 288.614C246.164 288.486 245.754 285.767 244.652 283.485C243.55 281.204 243.37 283.358 243.37 283.358C243.37 283.358 242.754 287.639 243.267 287.716C243.779 287.793 243.728 288.28 243.677 288.46C243.627 288.64 242.395 288.409 242.395 288.409C242.395 288.409 242.19 288.512 242.318 286.512C242.446 284.512 241.856 283.41 241.856 283.41C241.164 281.564 240.318 283.461 240.318 283.461C240.318 283.461 240.318 286.05 240.267 286.871C240.216 287.692 240.934 287.487 240.934 287.487C241.627 288.512 240.549 288.435 239.858 288.384C239.165 288.333 239.371 287.692 239.371 287.692C239.371 287.692 239.345 284.076 239.268 283.282C239.191 282.487 238.781 283.359 238.781 283.359L238.14 286.282C238.14 286.282 237.73 287.513 238.268 287.667C238.807 287.821 238.525 288.384 238.422 288.436C238.319 288.487 237.551 288.41 237.115 288.179C236.679 287.948 237.012 287.462 237.012 287.462L237.91 282.667C237.936 282.41 237.756 281.95 237.166 281.36C236.576 280.77 236.268 280.231 236.961 278.667C237.654 277.103 240.884 276.487 243.166 276.975C245.448 277.462 245.063 276.565 245.397 275.411C245.73 274.257 245.14 273.873 245.14 273.873C243.857 272.258 246.96 271.386 247.525 272.539C248.088 273.693 249.166 273.77 249.166 273.77C250.626 274.871 248.78 274.846 248.78 274.846ZM248.156 260.803L248.122 259.093C248.019 259.093 248.805 259.059 248.805 259.059V258.512H250.377V259.059H251.129V260.802L248.156 260.803ZM265.062 262.153L263.267 265.999L270.035 266.461L265.164 269.128L268.497 275.333L263.779 272.82L264.369 277.667L260.856 273.717V289.23H258.779V273.384L254.369 276.666L256.189 271.384L250.574 271.716L255.395 267.307L252.01 263.128L259.421 265.742L265.062 262.153Z" fill="#017A3E"/>
<path d="M251.13 259.059H250.378V258.512H248.806V259.059C248.806 259.059 248.02 259.093 248.123 259.093L248.157 260.803H251.132L251.13 259.059Z" fill="#F4F4F4"/>
<path d="M255.395 267.307L250.574 271.717L256.191 271.384L254.369 276.665L258.78 273.383V289.229H260.856V273.717L264.369 277.666L263.78 272.819L268.497 275.332L265.164 269.127L270.036 266.46L263.267 265.998L265.062 262.152L259.421 265.743L252.011 263.127L255.395 267.307Z" fill="#F4F4F4"/>
<path d="M249.165 273.768C249.165 273.768 248.089 273.691 247.524 272.538C246.96 271.385 243.858 272.256 245.139 273.871C245.139 273.871 245.729 274.256 245.396 275.409C245.063 276.563 245.447 277.46 243.165 276.974C240.883 276.487 237.652 277.102 236.96 278.666C236.268 280.23 236.575 280.769 237.165 281.359C237.755 281.948 237.935 282.41 237.909 282.666L237.011 287.46C237.011 287.46 236.678 287.947 237.114 288.178C237.55 288.409 238.319 288.486 238.421 288.435C238.524 288.384 238.806 287.819 238.267 287.665C237.729 287.511 238.139 286.281 238.139 286.281L238.78 283.357C238.78 283.357 239.191 282.486 239.267 283.28C239.344 284.075 239.37 287.69 239.37 287.69C239.37 287.69 239.165 288.331 239.856 288.383C240.549 288.434 241.625 288.511 240.933 287.485C240.933 287.485 240.215 287.69 240.266 286.87C240.317 286.049 240.317 283.459 240.317 283.459C240.317 283.459 241.163 281.562 241.855 283.408C241.855 283.408 242.445 284.511 242.317 286.511C242.189 288.511 242.394 288.408 242.394 288.408C242.394 288.408 243.624 288.639 243.676 288.459C243.729 288.279 243.779 287.792 243.265 287.715C242.753 287.638 243.369 283.356 243.369 283.356C243.369 283.356 243.547 281.202 244.651 283.484C245.753 285.766 246.163 288.485 246.574 288.613C246.984 288.741 248.471 288.485 247.703 287.664C247.703 287.664 247.139 287.715 247.113 287.074C247.087 286.434 245.984 283.074 245.984 282.357C245.984 281.639 247.164 277.305 247.164 276.973C247.164 276.64 247.549 274.845 247.549 274.845H248.779C248.779 274.845 250.626 274.871 249.165 273.768Z" fill="#F4F4F4"/>
<path d="M218.518 269.578L220.241 268.325L221.966 269.578L221.307 267.55L223.031 266.298H220.9L220.241 264.271L219.582 266.298H217.452L219.176 267.55L218.518 269.578Z" fill="#F4D90B"/>
<path d="M222.44 274.502L221.782 276.528H219.651L221.376 277.781L220.716 279.808L222.44 278.555L224.164 279.808L223.506 277.781L225.23 276.528H223.098L222.44 274.502Z" fill="#F4D90B"/>
<path d="M228.483 284.695L227.825 282.668L227.166 284.695H225.035L226.759 285.948L226.101 287.974L227.825 286.721L229.548 287.974L228.89 285.948L230.614 284.695H228.483Z" fill="#F4D90B"/>
<path d="M236.246 292.143L235.588 290.117L234.929 292.143H232.798L234.522 293.396L233.864 295.422L235.588 294.17L237.312 295.422L236.653 293.396L238.378 292.143H236.246Z" fill="#F4D90B"/>
<path d="M244.786 298.119L246.51 299.372L245.852 297.346L247.576 296.093H245.444L244.786 294.065L244.128 296.093H241.996L243.72 297.346L243.062 299.372L244.786 298.119Z" fill="#F4D90B"/>
<path d="M258.076 296.138H255.944L255.286 294.11L254.628 296.138H252.496L254.22 297.389L253.562 299.416L255.286 298.164L257.01 299.416L256.352 297.389L258.076 296.138Z" fill="#F4D90B"/>
<path d="M265.505 293.486L267.229 292.233H265.097L264.44 290.206L263.781 292.233H261.65L263.375 293.486L262.716 295.512L264.44 294.259L266.163 295.512L265.505 293.486Z" fill="#F4D90B"/>
<path d="M272.292 282.803L271.633 284.829H269.502L271.226 286.082L270.568 288.109L272.292 286.856L274.016 288.109L273.358 286.082L275.08 284.829H272.95L272.292 282.803Z" fill="#F4D90B"/>
<path d="M276.432 277.736L275.773 279.763L277.498 278.51L279.221 279.763L278.562 277.736L280.287 276.483H278.156L277.498 274.457L276.838 276.483H274.708L276.432 277.736Z" fill="#F4D90B"/>
<path d="M278.768 266.387H276.637L278.361 267.64L277.702 269.667L279.427 268.415L281.151 269.667L280.492 267.64L282.216 266.387H280.085L279.427 264.361L278.768 266.387Z" fill="#F4D90B"/>
<path d="M272.92 246.234L274.775 246.175L275.911 248.449L274.924 249.676L275.163 250.095L279.89 245.488L272.74 245.398L272.92 246.234ZM277.887 246.295L276.45 247.761L275.702 246.234L277.887 246.295Z" fill="#ECE216"/>
<path d="M273.07 236.513L272.456 235.899L268.672 239.743L269.256 240.327L273.07 236.513Z" fill="#ECE216"/>
<path d="M265.472 230.41L262.129 232.967L262.106 228.771L261.344 228.683L261.299 234.358L265.988 230.88L265.472 230.41Z" fill="#ECE216"/>
<path d="M252.818 225.849L252.361 225.87L252.159 225.878V231.368H252.818V226.334V225.849Z" fill="#ECE216"/>
<path d="M244.786 231.465H241.757V226.775H240.883V232.407H244.786V231.465Z" fill="#ECE216"/>
<path d="M221.453 243.228C221.199 243.706 220.316 245.367 220.316 245.367L224.774 247.85L226.583 246.309C226.583 246.309 227.555 245.427 227.016 244.425C226.533 243.526 225.053 243.64 224.311 244.397C224.577 243.996 224.886 243.236 224.055 242.54C222.859 241.538 221.707 242.75 221.453 243.228ZM224.415 245.382C225.132 244.514 225.477 244.604 225.477 244.604C227.078 244.425 226.016 245.935 226.016 245.935L224.834 246.982L223.742 246.233L224.415 245.382ZM223.533 243.138C224.086 243.512 223.413 244.41 223.413 244.41L222.59 245.696C222.59 245.696 221.359 245.021 221.379 244.978C222.29 242.989 222.978 242.765 223.533 243.138Z" fill="#F4D90B"/>
</g>
<defs>
<clipPath id="clip0_468_22377">
<rect width="500" height="500" fill="white"/>
</clipPath>
</defs>
</svg>
