<svg width="500" height="500" viewBox="0 0 500 500" fill="none" xmlns="http://www.w3.org/2000/svg">
<g clip-path="url(#clip0_468_29396)">
<mask id="mask0_468_29396" style="mask-type:luminance" maskUnits="userSpaceOnUse" x="-179" y="0" width="858" height="500">
<path d="M678.336 0H-179V500H678.336V0Z" fill="white"/>
</mask>
<g mask="url(#mask0_468_29396)">
<path d="M678.336 0H-179V500H678.336V0Z" fill="#1A0095"/>
</g>
<mask id="mask1_468_29396" style="mask-type:luminance" maskUnits="userSpaceOnUse" x="-179" y="0" width="858" height="500">
<path d="M678.336 0H-179V500H678.336V0Z" fill="white"/>
</mask>
<g mask="url(#mask1_468_29396)">
<path d="M678.336 125.026H-179V374.975H678.336V125.026Z" fill="#BA0019"/>
</g>
<mask id="mask2_468_29396" style="mask-type:luminance" maskUnits="userSpaceOnUse" x="-179" y="0" width="858" height="500">
<path d="M678.336 0H-179V500H678.336V0Z" fill="white"/>
</mask>
<g mask="url(#mask2_468_29396)">
<path d="M408.594 249.554H90.6719V300.948H408.594V249.554Z" fill="white"/>
</g>
<mask id="mask3_468_29396" style="mask-type:luminance" maskUnits="userSpaceOnUse" x="-179" y="0" width="858" height="500">
<path d="M678.336 0H-179V500H678.336V0Z" fill="white"/>
</mask>
<g mask="url(#mask3_468_29396)">
<path d="M409.254 301.553H90.6678L90.0547 249.571L408.615 248.881L409.254 301.553ZM408.002 249.571L90.6678 250.081L91.3062 300.965L408.002 300.276V249.571Z" fill="#BA0019"/>
</g>
<mask id="mask4_468_29396" style="mask-type:luminance" maskUnits="userSpaceOnUse" x="-179" y="0" width="858" height="500">
<path d="M678.336 0H-179V500H678.336V0Z" fill="white"/>
</mask>
<g mask="url(#mask4_468_29396)">
<path d="M90.4625 300.966L85.3027 313.023H413.953L408.793 300.966H90.4625Z" fill="white"/>
</g>
<mask id="mask5_468_29396" style="mask-type:luminance" maskUnits="userSpaceOnUse" x="-179" y="0" width="858" height="500">
<path d="M678.336 0H-179V500H678.336V0Z" fill="white"/>
</mask>
<g mask="url(#mask5_468_29396)">
<path d="M414.977 313.729H84.3857L89.903 300.651L408.821 300.242L414.977 313.729ZM86.2247 312.324H413.01L408.259 301.136L90.465 301.545L86.2247 312.324Z" fill="#BA0019"/>
</g>
<mask id="mask6_468_29396" style="mask-type:luminance" maskUnits="userSpaceOnUse" x="-179" y="0" width="858" height="500">
<path d="M678.336 0H-179V500H678.336V0Z" fill="white"/>
</mask>
<g mask="url(#mask6_468_29396)">
<path d="M341.614 300.966L335.381 313.023H410.148L403.89 300.966H341.614Z" fill="white"/>
</g>
<mask id="mask7_468_29396" style="mask-type:luminance" maskUnits="userSpaceOnUse" x="-179" y="0" width="858" height="500">
<path d="M678.336 0H-179V500H678.336V0Z" fill="white"/>
</mask>
<g mask="url(#mask7_468_29396)">
<path d="M411.17 313.729H334.308L341.077 300.549L403.89 300.242L411.17 313.729ZM336.377 312.324H409.075L403.328 301.238L341.613 301.545L336.377 312.324Z" fill="#BA0019"/>
</g>
<mask id="mask8_468_29396" style="mask-type:luminance" maskUnits="userSpaceOnUse" x="-179" y="0" width="858" height="500">
<path d="M678.336 0H-179V500H678.336V0Z" fill="white"/>
</mask>
<g mask="url(#mask8_468_29396)">
<path d="M359.619 300.966L356.478 313.023H394.129L390.988 300.966H359.619Z" fill="white"/>
</g>
<mask id="mask9_468_29396" style="mask-type:luminance" maskUnits="userSpaceOnUse" x="-179" y="0" width="858" height="500">
<path d="M678.336 0H-179V500H678.336V0Z" fill="white"/>
</mask>
<g mask="url(#mask9_468_29396)">
<path d="M394.948 313.729H356.453L358.982 300.753L390.988 300.242L394.948 313.729ZM390.401 301.034L359.62 301.545L357.092 313.116L393.364 312.426L390.401 301.034Z" fill="#BA0019"/>
</g>
<mask id="mask10_468_29396" style="mask-type:luminance" maskUnits="userSpaceOnUse" x="-179" y="0" width="858" height="500">
<path d="M678.336 0H-179V500H678.336V0Z" fill="white"/>
</mask>
<g mask="url(#mask10_468_29396)">
<path d="M365.194 300.966L363.176 313.023H387.468L385.475 300.966H365.194Z" fill="white"/>
</g>
<mask id="mask11_468_29396" style="mask-type:luminance" maskUnits="userSpaceOnUse" x="-179" y="0" width="858" height="500">
<path d="M678.336 0H-179V500H678.336V0Z" fill="white"/>
</mask>
<g mask="url(#mask11_468_29396)">
<path d="M388.284 313.729H363.2L364.605 300.855L385.5 300.268L388.284 313.729ZM384.836 301.034L365.218 301.544L363.839 313.014L386.752 312.426L384.836 301.034Z" fill="#BA0019"/>
</g>
<mask id="mask12_468_29396" style="mask-type:luminance" maskUnits="userSpaceOnUse" x="-179" y="0" width="858" height="500">
<path d="M678.336 0H-179V500H678.336V0Z" fill="white"/>
</mask>
<g mask="url(#mask12_468_29396)">
<path d="M216.905 300.966L210.366 313.023H288.914L282.401 300.966H216.905Z" fill="white"/>
</g>
<mask id="mask13_468_29396" style="mask-type:luminance" maskUnits="userSpaceOnUse" x="-179" y="0" width="858" height="500">
<path d="M678.336 0H-179V500H678.336V0Z" fill="white"/>
</mask>
<g mask="url(#mask13_468_29396)">
<path d="M290.012 313.729H209.318L216.317 300.549L282.4 300.242L290.012 313.729ZM211.388 312.324H287.892L281.812 301.238L216.905 301.545L211.388 312.324Z" fill="#BA0019"/>
</g>
<mask id="mask14_468_29396" style="mask-type:luminance" maskUnits="userSpaceOnUse" x="-179" y="0" width="858" height="500">
<path d="M678.336 0H-179V500H678.336V0Z" fill="white"/>
</mask>
<g mask="url(#mask14_468_29396)">
<path d="M410.43 248.78H88.9326V260.863H410.43V248.78Z" fill="white"/>
</g>
<mask id="mask15_468_29396" style="mask-type:luminance" maskUnits="userSpaceOnUse" x="-179" y="0" width="858" height="500">
<path d="M678.336 0H-179V500H678.336V0Z" fill="white"/>
</mask>
<g mask="url(#mask15_468_29396)">
<path d="M411.071 261.541H88.9343L88.2959 248.769L410.432 248.182L411.071 261.541ZM409.768 248.769L88.9343 249.459L89.5475 260.826L409.768 260.238V248.769Z" fill="#BA0019"/>
</g>
<mask id="mask16_468_29396" style="mask-type:luminance" maskUnits="userSpaceOnUse" x="-179" y="0" width="858" height="500">
<path d="M678.336 0H-179V500H678.336V0Z" fill="white"/>
</mask>
<g mask="url(#mask16_468_29396)">
<path d="M404.122 249.679H341.13V300.869H404.122V249.679Z" fill="white"/>
</g>
<mask id="mask17_468_29396" style="mask-type:luminance" maskUnits="userSpaceOnUse" x="-179" y="0" width="858" height="500">
<path d="M678.336 0H-179V500H678.336V0Z" fill="white"/>
</mask>
<g mask="url(#mask17_468_29396)">
<path d="M404.757 301.444H341.127L340.488 249.666L404.119 249.079L404.757 301.444ZM403.505 249.666L341.127 250.254L341.74 300.831L403.505 300.142V249.666Z" fill="#BA0019"/>
</g>
<mask id="mask18_468_29396" style="mask-type:luminance" maskUnits="userSpaceOnUse" x="-179" y="0" width="858" height="500">
<path d="M678.336 0H-179V500H678.336V0Z" fill="white"/>
</mask>
<g mask="url(#mask18_468_29396)">
<path d="M392.548 273.602H386.213V300.831H392.548V273.602Z" fill="white"/>
</g>
<mask id="mask19_468_29396" style="mask-type:luminance" maskUnits="userSpaceOnUse" x="-179" y="0" width="858" height="500">
<path d="M678.336 0H-179V500H678.336V0Z" fill="white"/>
</mask>
<g mask="url(#mask19_468_29396)">
<path d="M393.112 301.458H386.189L385.576 273.615L392.55 273.027L393.112 301.458ZM391.86 273.615L386.189 274.305L386.828 300.845L391.834 300.258L391.86 273.615Z" fill="#BA0019"/>
</g>
<mask id="mask20_468_29396" style="mask-type:luminance" maskUnits="userSpaceOnUse" x="-179" y="0" width="858" height="500">
<path d="M678.336 0H-179V500H678.336V0Z" fill="white"/>
</mask>
<g mask="url(#mask20_468_29396)">
<path d="M364.783 273.602H358.474V300.831H364.783V273.602Z" fill="white"/>
</g>
<mask id="mask21_468_29396" style="mask-type:luminance" maskUnits="userSpaceOnUse" x="-179" y="0" width="858" height="500">
<path d="M678.336 0H-179V500H678.336V0Z" fill="white"/>
</mask>
<g mask="url(#mask21_468_29396)">
<path d="M365.423 301.458H358.45L357.837 273.615L364.759 273.027L365.423 301.458ZM364.12 273.615L358.45 274.305L359.088 300.845L364.095 300.258L364.12 273.615Z" fill="#BA0019"/>
</g>
<mask id="mask22_468_29396" style="mask-type:luminance" maskUnits="userSpaceOnUse" x="-179" y="0" width="858" height="500">
<path d="M678.336 0H-179V500H678.336V0Z" fill="white"/>
</mask>
<g mask="url(#mask22_468_29396)">
<path d="M233 300.966L229.705 313.023H269.171L265.876 300.966H233Z" fill="white"/>
</g>
<mask id="mask23_468_29396" style="mask-type:luminance" maskUnits="userSpaceOnUse" x="-179" y="0" width="858" height="500">
<path d="M678.336 0H-179V500H678.336V0Z" fill="white"/>
</mask>
<g mask="url(#mask23_468_29396)">
<path d="M270.014 313.729H229.705L232.387 300.753L265.876 300.242L270.014 313.729ZM265.288 301.034L232.975 301.545L230.292 313.116L268.379 312.426L265.288 301.034Z" fill="#BA0019"/>
</g>
<mask id="mask24_468_29396" style="mask-type:luminance" maskUnits="userSpaceOnUse" x="-179" y="0" width="858" height="500">
<path d="M678.336 0H-179V500H678.336V0Z" fill="white"/>
</mask>
<g mask="url(#mask24_468_29396)">
<path d="M239.307 300.966L237.289 313.023H262.042L259.947 300.966H239.307Z" fill="white"/>
</g>
<mask id="mask25_468_29396" style="mask-type:luminance" maskUnits="userSpaceOnUse" x="-179" y="0" width="858" height="500">
<path d="M678.336 0H-179V500H678.336V0Z" fill="white"/>
</mask>
<g mask="url(#mask25_468_29396)">
<path d="M262.808 313.729H237.289L238.745 300.753L259.972 300.242L262.808 313.729ZM259.359 301.034L239.307 301.545L237.902 313.116L261.275 312.426L259.359 301.034Z" fill="#BA0019"/>
</g>
<mask id="mask26_468_29396" style="mask-type:luminance" maskUnits="userSpaceOnUse" x="-179" y="0" width="858" height="500">
<path d="M678.336 0H-179V500H678.336V0Z" fill="white"/>
</mask>
<g mask="url(#mask26_468_29396)">
<path d="M282.505 249.554H216.142V300.948H282.505V249.554Z" fill="white"/>
</g>
<mask id="mask27_468_29396" style="mask-type:luminance" maskUnits="userSpaceOnUse" x="-179" y="0" width="858" height="500">
<path d="M678.336 0H-179V500H678.336V0Z" fill="white"/>
</mask>
<g mask="url(#mask27_468_29396)">
<path d="M283.12 301.553H216.143L215.505 249.571L282.507 248.881L283.12 301.553ZM281.92 249.571L216.169 250.081L216.756 300.965L281.92 300.276V249.571Z" fill="#BA0019"/>
</g>
<mask id="mask28_468_29396" style="mask-type:luminance" maskUnits="userSpaceOnUse" x="-179" y="0" width="858" height="500">
<path d="M678.336 0H-179V500H678.336V0Z" fill="white"/>
</mask>
<g mask="url(#mask28_468_29396)">
<path d="M275.329 273.602H269.02V300.831H275.329V273.602Z" fill="white"/>
</g>
<mask id="mask29_468_29396" style="mask-type:luminance" maskUnits="userSpaceOnUse" x="-179" y="0" width="858" height="500">
<path d="M678.336 0H-179V500H678.336V0Z" fill="white"/>
</mask>
<g mask="url(#mask29_468_29396)">
<path d="M275.964 301.458H269.015L268.402 273.615L275.325 273.027L275.964 301.458ZM274.712 273.615L268.99 274.305L269.629 300.845L274.686 300.155L274.712 273.615Z" fill="#BA0019"/>
</g>
<mask id="mask30_468_29396" style="mask-type:luminance" maskUnits="userSpaceOnUse" x="-179" y="0" width="858" height="500">
<path d="M678.336 0H-179V500H678.336V0Z" fill="white"/>
</mask>
<g mask="url(#mask30_468_29396)">
<path d="M231.493 273.602H225.184V300.831H231.493V273.602Z" fill="white"/>
</g>
<mask id="mask31_468_29396" style="mask-type:luminance" maskUnits="userSpaceOnUse" x="-179" y="0" width="858" height="500">
<path d="M678.336 0H-179V500H678.336V0Z" fill="white"/>
</mask>
<g mask="url(#mask31_468_29396)">
<path d="M232.134 301.458H225.161L224.548 273.615L231.496 273.027L232.134 301.458ZM230.857 273.615L225.186 274.305L225.774 300.845L230.832 300.155L230.857 273.615Z" fill="#BA0019"/>
</g>
<mask id="mask32_468_29396" style="mask-type:luminance" maskUnits="userSpaceOnUse" x="-179" y="0" width="858" height="500">
<path d="M678.336 0H-179V500H678.336V0Z" fill="white"/>
</mask>
<g mask="url(#mask32_468_29396)">
<path d="M265.745 237.105H233.56V300.966H265.745V237.105Z" fill="white"/>
</g>
<mask id="mask33_468_29396" style="mask-type:luminance" maskUnits="userSpaceOnUse" x="-179" y="0" width="858" height="500">
<path d="M678.336 0H-179V500H678.336V0Z" fill="white"/>
</mask>
<g mask="url(#mask33_468_29396)">
<path d="M266.36 301.543H233.561L232.948 237.095L265.747 236.508L266.36 301.543ZM265.083 237.095L233.561 237.785L234.2 300.955L265.083 300.266V237.095Z" fill="#BA0019"/>
</g>
<mask id="mask34_468_29396" style="mask-type:luminance" maskUnits="userSpaceOnUse" x="-179" y="0" width="858" height="500">
<path d="M678.336 0H-179V500H678.336V0Z" fill="white"/>
</mask>
<g mask="url(#mask34_468_29396)">
<path d="M264.011 273.602H257.65V300.831H264.011V273.602Z" fill="white"/>
</g>
<mask id="mask35_468_29396" style="mask-type:luminance" maskUnits="userSpaceOnUse" x="-179" y="0" width="858" height="500">
<path d="M678.336 0H-179V500H678.336V0Z" fill="white"/>
</mask>
<g mask="url(#mask35_468_29396)">
<path d="M264.6 301.458H257.678L257.064 273.615L264.038 273.027L264.6 301.458ZM263.374 273.615L257.652 274.305L258.291 300.845L263.348 300.155L263.374 273.615Z" fill="#BA0019"/>
</g>
<mask id="mask36_468_29396" style="mask-type:luminance" maskUnits="userSpaceOnUse" x="-179" y="0" width="858" height="500">
<path d="M678.336 0H-179V500H678.336V0Z" fill="white"/>
</mask>
<g mask="url(#mask36_468_29396)">
<path d="M242.837 273.602H236.527V300.831H242.837V273.602Z" fill="white"/>
</g>
<mask id="mask37_468_29396" style="mask-type:luminance" maskUnits="userSpaceOnUse" x="-179" y="0" width="858" height="500">
<path d="M678.336 0H-179V500H678.336V0Z" fill="white"/>
</mask>
<g mask="url(#mask37_468_29396)">
<path d="M243.471 301.458H236.549L235.936 273.615L242.858 273.027L243.471 301.458ZM242.194 273.615L236.523 274.305L237.161 300.845L242.168 300.155L242.194 273.615Z" fill="#BA0019"/>
</g>
<mask id="mask38_468_29396" style="mask-type:luminance" maskUnits="userSpaceOnUse" x="-179" y="0" width="858" height="500">
<path d="M678.336 0H-179V500H678.336V0Z" fill="white"/>
</mask>
<g mask="url(#mask38_468_29396)">
<path d="M235.68 247.358L249.244 266.925L263.65 247.358H235.68Z" fill="white"/>
</g>
<mask id="mask39_468_29396" style="mask-type:luminance" maskUnits="userSpaceOnUse" x="-179" y="0" width="858" height="500">
<path d="M678.336 0H-179V500H678.336V0Z" fill="white"/>
</mask>
<g mask="url(#mask39_468_29396)">
<path d="M249.247 268.037L234.482 246.784H264.855L249.247 268.037ZM236.858 247.96L249.247 265.917L262.377 247.96H236.858Z" fill="#BA0019"/>
</g>
<mask id="mask40_468_29396" style="mask-type:luminance" maskUnits="userSpaceOnUse" x="-179" y="0" width="858" height="500">
<path d="M678.336 0H-179V500H678.336V0Z" fill="white"/>
</mask>
<g mask="url(#mask40_468_29396)">
<path d="M383.969 249.554H366.113V313.005H383.969V249.554Z" fill="white"/>
</g>
<mask id="mask41_468_29396" style="mask-type:luminance" maskUnits="userSpaceOnUse" x="-179" y="0" width="858" height="500">
<path d="M678.336 0H-179V500H678.336V0Z" fill="white"/>
</mask>
<g mask="url(#mask41_468_29396)">
<path d="M384.628 313.737H366.108L365.521 249.571L383.989 248.881L384.628 313.737ZM383.401 249.571L366.108 250.081L366.721 313.048L383.376 312.46L383.401 249.571Z" fill="#BA0019"/>
</g>
<mask id="mask42_468_29396" style="mask-type:luminance" maskUnits="userSpaceOnUse" x="-179" y="0" width="858" height="500">
<path d="M678.336 0H-179V500H678.336V0Z" fill="white"/>
</mask>
<g mask="url(#mask42_468_29396)">
<path d="M380.978 249.554H369.101V313.005H380.978V249.554Z" fill="white"/>
</g>
<mask id="mask43_468_29396" style="mask-type:luminance" maskUnits="userSpaceOnUse" x="-179" y="0" width="858" height="500">
<path d="M678.336 0H-179V500H678.336V0Z" fill="white"/>
</mask>
<g mask="url(#mask43_468_29396)">
<path d="M381.618 313.737H369.101L368.514 249.571L380.979 248.881L381.618 313.737ZM380.392 249.571L369.101 250.081L369.714 313.048L380.392 312.46V249.571Z" fill="#BA0019"/>
</g>
<mask id="mask44_468_29396" style="mask-type:luminance" maskUnits="userSpaceOnUse" x="-179" y="0" width="858" height="500">
<path d="M678.336 0H-179V500H678.336V0Z" fill="white"/>
</mask>
<g mask="url(#mask44_468_29396)">
<path d="M94.7543 300.966L88.4961 313.023H163.264L157.005 300.966H94.7543Z" fill="white"/>
</g>
<mask id="mask45_468_29396" style="mask-type:luminance" maskUnits="userSpaceOnUse" x="-179" y="0" width="858" height="500">
<path d="M678.336 0H-179V500H678.336V0Z" fill="white"/>
</mask>
<g mask="url(#mask45_468_29396)">
<path d="M164.31 313.729H87.4482L94.1663 300.549L157.005 300.242L164.31 313.729ZM89.4918 312.324H162.216L156.468 301.238L94.7537 301.545L89.4918 312.324Z" fill="#BA0019"/>
</g>
<mask id="mask46_468_29396" style="mask-type:luminance" maskUnits="userSpaceOnUse" x="-179" y="0" width="858" height="500">
<path d="M678.336 0H-179V500H678.336V0Z" fill="white"/>
</mask>
<g mask="url(#mask46_468_29396)">
<path d="M109.674 300.966L106.762 313.023H141.885L138.973 300.966H109.674Z" fill="white"/>
</g>
<mask id="mask47_468_29396" style="mask-type:luminance" maskUnits="userSpaceOnUse" x="-179" y="0" width="858" height="500">
<path d="M678.336 0H-179V500H678.336V0Z" fill="white"/>
</mask>
<g mask="url(#mask47_468_29396)">
<path d="M142.702 313.729H106.762L109.086 300.753L138.973 300.242L142.702 313.729ZM138.36 301.034L109.674 301.545L107.349 313.116L141.093 312.426L138.36 301.034Z" fill="#BA0019"/>
</g>
<mask id="mask48_468_29396" style="mask-type:luminance" maskUnits="userSpaceOnUse" x="-179" y="0" width="858" height="500">
<path d="M678.336 0H-179V500H678.336V0Z" fill="white"/>
</mask>
<g mask="url(#mask48_468_29396)">
<path d="M114.913 300.966L113.048 313.023H135.45L133.611 300.966H114.913Z" fill="white"/>
</g>
<mask id="mask49_468_29396" style="mask-type:luminance" maskUnits="userSpaceOnUse" x="-179" y="0" width="858" height="500">
<path d="M678.336 0H-179V500H678.336V0Z" fill="white"/>
</mask>
<g mask="url(#mask49_468_29396)">
<path d="M136.191 313.729H113.048L114.299 300.855L133.611 300.268L136.191 313.729ZM132.972 301.034L114.938 301.544L113.661 313.014L134.735 312.426L132.972 301.034Z" fill="#BA0019"/>
</g>
<mask id="mask50_468_29396" style="mask-type:luminance" maskUnits="userSpaceOnUse" x="-179" y="0" width="858" height="500">
<path d="M678.336 0H-179V500H678.336V0Z" fill="white"/>
</mask>
<g mask="url(#mask50_468_29396)">
<path d="M156.778 249.554H94.2461V300.948H156.778V249.554Z" fill="white"/>
</g>
<mask id="mask51_468_29396" style="mask-type:luminance" maskUnits="userSpaceOnUse" x="-179" y="0" width="858" height="500">
<path d="M678.336 0H-179V500H678.336V0Z" fill="white"/>
</mask>
<g mask="url(#mask51_468_29396)">
<path d="M157.438 301.553H94.2424L93.6035 249.571L156.8 248.881L157.438 301.553ZM156.161 249.571L94.2424 250.081L94.8808 300.965L156.135 300.276V249.571H156.161Z" fill="#BA0019"/>
</g>
<mask id="mask52_468_29396" style="mask-type:luminance" maskUnits="userSpaceOnUse" x="-179" y="0" width="858" height="500">
<path d="M678.336 0H-179V500H678.336V0Z" fill="white"/>
</mask>
<g mask="url(#mask52_468_29396)">
<path d="M112.741 273.602H106.432V300.831H112.741V273.602Z" fill="white"/>
</g>
<mask id="mask53_468_29396" style="mask-type:luminance" maskUnits="userSpaceOnUse" x="-179" y="0" width="858" height="500">
<path d="M678.336 0H-179V500H678.336V0Z" fill="white"/>
</mask>
<g mask="url(#mask53_468_29396)">
<path d="M113.376 301.458H106.428L105.814 273.615L112.737 273.027L113.376 301.458ZM112.098 273.615L106.428 274.305L107.066 300.845L112.073 300.258L112.098 273.615Z" fill="#BA0019"/>
</g>
<mask id="mask54_468_29396" style="mask-type:luminance" maskUnits="userSpaceOnUse" x="-179" y="0" width="858" height="500">
<path d="M678.336 0H-179V500H678.336V0Z" fill="white"/>
</mask>
<g mask="url(#mask54_468_29396)">
<path d="M141.759 273.602H135.424V300.831H141.759V273.602Z" fill="white"/>
</g>
<mask id="mask55_468_29396" style="mask-type:luminance" maskUnits="userSpaceOnUse" x="-179" y="0" width="858" height="500">
<path d="M678.336 0H-179V500H678.336V0Z" fill="white"/>
</mask>
<g mask="url(#mask55_468_29396)">
<path d="M142.367 301.458H135.445L134.807 273.615L141.78 273.027L142.367 301.458ZM141.116 273.615L135.42 274.305L136.032 300.845L141.091 300.258L141.116 273.615Z" fill="#BA0019"/>
</g>
<mask id="mask56_468_29396" style="mask-type:luminance" maskUnits="userSpaceOnUse" x="-179" y="0" width="858" height="500">
<path d="M678.336 0H-179V500H678.336V0Z" fill="white"/>
</mask>
<g mask="url(#mask56_468_29396)">
<path d="M133.559 249.554H115.729V313.005H133.559V249.554Z" fill="white"/>
</g>
<mask id="mask57_468_29396" style="mask-type:luminance" maskUnits="userSpaceOnUse" x="-179" y="0" width="858" height="500">
<path d="M678.336 0H-179V500H678.336V0Z" fill="white"/>
</mask>
<g mask="url(#mask57_468_29396)">
<path d="M134.195 313.737H115.701L115.062 249.571L133.556 248.881L134.195 313.737ZM132.918 249.571L115.727 250.081L116.34 313.048L132.893 312.46L132.918 249.571Z" fill="#BA0019"/>
</g>
<mask id="mask58_468_29396" style="mask-type:luminance" maskUnits="userSpaceOnUse" x="-179" y="0" width="858" height="500">
<path d="M678.336 0H-179V500H678.336V0Z" fill="white"/>
</mask>
<g mask="url(#mask58_468_29396)">
<path d="M130.546 249.554H118.643V313.005H130.546V249.554Z" fill="white"/>
</g>
<mask id="mask59_468_29396" style="mask-type:luminance" maskUnits="userSpaceOnUse" x="-179" y="0" width="858" height="500">
<path d="M678.336 0H-179V500H678.336V0Z" fill="white"/>
</mask>
<g mask="url(#mask59_468_29396)">
<path d="M131.18 313.737H118.637L118.024 249.571L130.541 248.881L131.18 313.737ZM129.877 249.571L118.637 250.081L119.276 313.048L129.877 312.46V249.571Z" fill="#BA0019"/>
</g>
<mask id="mask60_468_29396" style="mask-type:luminance" maskUnits="userSpaceOnUse" x="-179" y="0" width="858" height="500">
<path d="M678.336 0H-179V500H678.336V0Z" fill="white"/>
</mask>
<g mask="url(#mask60_468_29396)">
<path d="M413.927 237.48H85.3027V249.563H413.927V237.48Z" fill="white"/>
</g>
<mask id="mask61_468_29396" style="mask-type:luminance" maskUnits="userSpaceOnUse" x="-179" y="0" width="858" height="500">
<path d="M678.336 0H-179V500H678.336V0Z" fill="white"/>
</mask>
<g mask="url(#mask61_468_29396)">
<path d="M414.594 250.062H85.3054L84.667 237.494L413.93 236.906L414.594 250.062ZM413.291 237.494L85.3054 238.082L85.9439 249.55L413.266 248.861L413.291 237.494Z" fill="#BA0019"/>
</g>
<mask id="mask62_468_29396" style="mask-type:luminance" maskUnits="userSpaceOnUse" x="-179" y="0" width="858" height="500">
<path d="M678.336 0H-179V500H678.336V0Z" fill="white"/>
</mask>
<g mask="url(#mask62_468_29396)">
<path d="M421.796 310.021H76.21V325.578H421.796V310.021Z" fill="white"/>
</g>
<mask id="mask63_468_29396" style="mask-type:luminance" maskUnits="userSpaceOnUse" x="-179" y="0" width="858" height="500">
<path d="M678.336 0H-179V500H678.336V0Z" fill="white"/>
</mask>
<g mask="url(#mask63_468_29396)">
<path d="M422.463 326.207H76.2127L75.5742 310.038L421.824 309.348L422.463 326.207ZM421.16 310.038L76.2127 310.625L76.8258 325.594L421.16 324.904V310.038Z" fill="#BA0019"/>
</g>
<mask id="mask64_468_29396" style="mask-type:luminance" maskUnits="userSpaceOnUse" x="-179" y="0" width="858" height="500">
<path d="M678.336 0H-179V500H678.336V0Z" fill="white"/>
</mask>
<g mask="url(#mask64_468_29396)">
<path d="M427.082 313.314H70.9463V328.871H427.082V313.314Z" fill="white"/>
</g>
<mask id="mask65_468_29396" style="mask-type:luminance" maskUnits="userSpaceOnUse" x="-179" y="0" width="858" height="500">
<path d="M678.336 0H-179V500H678.336V0Z" fill="white"/>
</mask>
<g mask="url(#mask65_468_29396)">
<path d="M427.749 329.599H70.9494L70.3105 313.328L427.11 312.74L427.749 329.599ZM426.395 313.328L70.9494 314.018L71.5625 328.885L426.395 328.297V313.328Z" fill="#BA0019"/>
</g>
<mask id="mask66_468_29396" style="mask-type:luminance" maskUnits="userSpaceOnUse" x="-179" y="0" width="858" height="500">
<path d="M678.336 0H-179V500H678.336V0Z" fill="white"/>
</mask>
<g mask="url(#mask66_468_29396)">
<path d="M437.585 322.22H61.7041V337.776H437.585V322.22Z" fill="white"/>
</g>
<mask id="mask67_468_29396" style="mask-type:luminance" maskUnits="userSpaceOnUse" x="-179" y="0" width="858" height="500">
<path d="M678.336 0H-179V500H678.336V0Z" fill="white"/>
</mask>
<g mask="url(#mask67_468_29396)">
<path d="M438.193 338.456H61.7244L61.1113 322.184L437.606 321.597L438.193 338.456ZM436.942 322.209L61.6991 322.797L62.3122 337.766L436.942 337.178V322.209Z" fill="#BA0019"/>
</g>
<mask id="mask68_468_29396" style="mask-type:luminance" maskUnits="userSpaceOnUse" x="-179" y="0" width="858" height="500">
<path d="M678.336 0H-179V500H678.336V0Z" fill="white"/>
</mask>
<g mask="url(#mask68_468_29396)">
<path d="M450.738 333.47H48.5205V348.924H450.738V333.47Z" fill="white"/>
</g>
<mask id="mask69_468_29396" style="mask-type:luminance" maskUnits="userSpaceOnUse" x="-179" y="0" width="858" height="500">
<path d="M678.336 0H-179V500H678.336V0Z" fill="white"/>
</mask>
<g mask="url(#mask69_468_29396)">
<path d="M451.379 349.556H48.5235L47.8594 333.489L450.741 332.697L451.379 349.556ZM450.153 333.489L48.5235 333.898L49.1367 348.969L450.128 348.28V333.489H450.153Z" fill="#BA0019"/>
</g>
<mask id="mask70_468_29396" style="mask-type:luminance" maskUnits="userSpaceOnUse" x="-179" y="0" width="858" height="500">
<path d="M678.336 0H-179V500H678.336V0Z" fill="white"/>
</mask>
<g mask="url(#mask70_468_29396)">
<path d="M463.844 349.036H35.3936V364.388H463.844V349.036Z" fill="white"/>
</g>
<mask id="mask71_468_29396" style="mask-type:luminance" maskUnits="userSpaceOnUse" x="-179" y="0" width="858" height="500">
<path d="M678.336 0H-179V500H678.336V0Z" fill="white"/>
</mask>
<g mask="url(#mask71_468_29396)">
<path d="M464.505 364.992H35.3898L34.751 349.027L463.866 348.337L464.505 364.992ZM463.304 349.027L35.3898 349.614L36.0283 364.378L463.304 363.689V349.027Z" fill="#BA0019"/>
</g>
<mask id="mask72_468_29396" style="mask-type:luminance" maskUnits="userSpaceOnUse" x="-179" y="0" width="858" height="500">
<path d="M678.336 0H-179V500H678.336V0Z" fill="white"/>
</mask>
<g mask="url(#mask72_468_29396)">
<path d="M133.559 310.021H115.729V364.507H133.559V310.021Z" fill="white"/>
</g>
<mask id="mask73_468_29396" style="mask-type:luminance" maskUnits="userSpaceOnUse" x="-179" y="0" width="858" height="500">
<path d="M678.336 0H-179V500H678.336V0Z" fill="white"/>
</mask>
<g mask="url(#mask73_468_29396)">
<path d="M134.195 365.111H115.701L115.062 310.038L133.556 309.348L134.195 365.111ZM132.918 310.038L115.727 310.625L116.34 364.497L132.893 363.808L132.918 310.038Z" fill="#BA0019"/>
</g>
<mask id="mask74_468_29396" style="mask-type:luminance" maskUnits="userSpaceOnUse" x="-179" y="0" width="858" height="500">
<path d="M678.336 0H-179V500H678.336V0Z" fill="white"/>
</mask>
<g mask="url(#mask74_468_29396)">
<path d="M130.597 310.021H118.643V364.507H130.597V310.021Z" fill="white"/>
</g>
<mask id="mask75_468_29396" style="mask-type:luminance" maskUnits="userSpaceOnUse" x="-179" y="0" width="858" height="500">
<path d="M678.336 0H-179V500H678.336V0Z" fill="white"/>
</mask>
<g mask="url(#mask75_468_29396)">
<path d="M131.231 365.111H118.637L118.024 310.038L130.592 309.348L131.231 365.111ZM129.928 310.038L118.637 310.625L119.276 364.497L129.928 363.808V310.038Z" fill="#BA0019"/>
</g>
<mask id="mask76_468_29396" style="mask-type:luminance" maskUnits="userSpaceOnUse" x="-179" y="0" width="858" height="500">
<path d="M678.336 0H-179V500H678.336V0Z" fill="white"/>
</mask>
<g mask="url(#mask76_468_29396)">
<path d="M383.607 310.021H365.727V364.507H383.607V310.021Z" fill="white"/>
</g>
<mask id="mask77_468_29396" style="mask-type:luminance" maskUnits="userSpaceOnUse" x="-179" y="0" width="858" height="500">
<path d="M678.336 0H-179V500H678.336V0Z" fill="white"/>
</mask>
<g mask="url(#mask77_468_29396)">
<path d="M384.198 365.111H365.704L365.065 310.038L383.61 309.348L384.198 365.111ZM382.998 310.038L365.73 310.625L366.419 364.497L382.998 363.808V310.038Z" fill="#BA0019"/>
</g>
<mask id="mask78_468_29396" style="mask-type:luminance" maskUnits="userSpaceOnUse" x="-179" y="0" width="858" height="500">
<path d="M678.336 0H-179V500H678.336V0Z" fill="white"/>
</mask>
<g mask="url(#mask78_468_29396)">
<path d="M380.617 310.021H368.714V364.507H380.617V310.021Z" fill="white"/>
</g>
<mask id="mask79_468_29396" style="mask-type:luminance" maskUnits="userSpaceOnUse" x="-179" y="0" width="858" height="500">
<path d="M678.336 0H-179V500H678.336V0Z" fill="white"/>
</mask>
<g mask="url(#mask79_468_29396)">
<path d="M381.234 365.111H368.717L368.078 310.038L380.621 309.348L381.234 365.111ZM379.956 310.038L368.717 310.625L369.355 364.497L379.956 363.808V310.038Z" fill="#BA0019"/>
</g>
<mask id="mask80_468_29396" style="mask-type:luminance" maskUnits="userSpaceOnUse" x="-179" y="0" width="858" height="500">
<path d="M678.336 0H-179V500H678.336V0Z" fill="white"/>
</mask>
<g mask="url(#mask80_468_29396)">
<path d="M257.42 249.554H243.063V364.502H257.42V249.554Z" fill="white"/>
</g>
<mask id="mask81_468_29396" style="mask-type:luminance" maskUnits="userSpaceOnUse" x="-179" y="0" width="858" height="500">
<path d="M678.336 0H-179V500H678.336V0Z" fill="white"/>
</mask>
<g mask="url(#mask81_468_29396)">
<path d="M258.035 365.107H243.066L242.428 249.571L257.422 248.881L258.035 365.107ZM256.758 249.571L243.066 250.081L243.679 364.519L256.758 363.829V249.571Z" fill="#BA0019"/>
</g>
<mask id="mask82_468_29396" style="mask-type:luminance" maskUnits="userSpaceOnUse" x="-179" y="0" width="858" height="500">
<path d="M678.336 0H-179V500H678.336V0Z" fill="white"/>
</mask>
<g mask="url(#mask82_468_29396)">
<mask id="mask83_468_29396" style="mask-type:luminance" maskUnits="userSpaceOnUse" x="-179" y="0" width="858" height="500">
<path d="M678.336 0H-179V500H678.336V0Z" fill="white"/>
</mask>
<g mask="url(#mask83_468_29396)">
<path d="M345.215 249.95L345.368 218.531C345.368 218.531 348.587 224.712 373.467 226.117C397.018 225.325 400.926 221.519 401.974 218.122L401.029 250.052L345.215 249.95Z" fill="white"/>
</g>
<mask id="mask84_468_29396" style="mask-type:luminance" maskUnits="userSpaceOnUse" x="-179" y="0" width="858" height="500">
<path d="M678.336 0H-179V500H678.336V0Z" fill="white"/>
</mask>
<g mask="url(#mask84_468_29396)">
<path d="M401.59 250.764L345.214 250.662L344.703 218.528L344.754 216.127L345.878 218.222C345.929 218.324 349.556 224.199 373.491 225.4C396.328 224.608 400.364 221.108 401.385 217.915L402.612 218.119L401.59 250.764ZM345.98 220.214L345.827 249.947L400.364 249.538L401.283 220.699C398.652 223.585 392.087 226.089 373.44 226.677C355.151 225.706 348.356 222.028 345.98 220.214Z" fill="#BA0019"/>
</g>
<mask id="mask85_468_29396" style="mask-type:luminance" maskUnits="userSpaceOnUse" x="-179" y="0" width="858" height="500">
<path d="M678.336 0H-179V500H678.336V0Z" fill="white"/>
</mask>
<g mask="url(#mask85_468_29396)">
<path d="M361.28 213.137L353.54 206.956C356.146 205.346 360.922 208.156 360.922 208.156C360.922 208.156 363.502 200.978 374.486 198.066C385.47 200.953 388.05 208.156 388.05 208.156C388.05 208.156 392.801 205.372 395.33 206.956L387.667 213.137H361.28Z" fill="white"/>
</g>
<mask id="mask86_468_29396" style="mask-type:luminance" maskUnits="userSpaceOnUse" x="-179" y="0" width="858" height="500">
<path d="M678.336 0H-179V500H678.336V0Z" fill="white"/>
</mask>
<g mask="url(#mask86_468_29396)">
<path d="M387.898 213.818H361.282L353.21 207.432C353.849 206.027 354.717 205.822 355.56 205.822C358.012 205.822 360.643 207.227 361.129 207.432C360.771 206.844 363.759 200.253 374.36 197.443C384.757 200.125 387.975 206.129 388.588 207.61C388.972 206.716 393.57 204.928 395.766 206.41L387.898 213.818ZM355.534 207.15C354.921 207.15 354.359 207.252 353.899 207.457L361.665 212.642L387.49 212.54L394.259 207.15C393.978 207.15 393.723 207.15 393.442 207.15C391.168 207.15 388.435 208.76 388.435 208.76C387.465 208.351 384.859 201.479 374.36 198.67C364.168 201.454 361.563 208.351 361.563 208.351C360.49 208.734 357.884 207.15 355.534 207.15Z" fill="#BA0019"/>
</g>
<mask id="mask87_468_29396" style="mask-type:luminance" maskUnits="userSpaceOnUse" x="-179" y="0" width="858" height="500">
<path d="M678.336 0H-179V500H678.336V0Z" fill="white"/>
</mask>
<g mask="url(#mask87_468_29396)">
<path d="M357.349 229.195L347.311 220.511C350.657 218.212 356.813 222.12 356.813 222.12C356.813 222.12 360.21 212.234 374.489 208.045C388.82 212.234 392.14 222.12 392.14 222.12C392.14 222.12 398.322 218.237 401.643 220.511L391.63 229.195H357.349Z" fill="white"/>
</g>
<mask id="mask88_468_29396" style="mask-type:luminance" maskUnits="userSpaceOnUse" x="-179" y="0" width="858" height="500">
<path d="M678.336 0H-179V500H678.336V0Z" fill="white"/>
</mask>
<g mask="url(#mask88_468_29396)">
<path d="M391.887 229.796H357.351L346.93 221.009C347.773 219.399 348.769 219.119 349.918 219.119C353.111 219.119 356.585 221.316 357.096 221.52C356.611 220.932 360.34 211.43 374.338 207.445C388.03 211.328 391.989 220.115 392.653 221.622C392.985 220.728 399.167 218.021 402.028 220.013L391.887 229.796ZM349.918 220.422C349.075 220.422 348.283 220.728 347.696 221.111L357.709 228.698L391.427 228.494L401.032 220.319C400.496 220.626 399.857 220.422 399.065 220.422C396.051 220.422 392.551 222.618 392.475 222.72C391.529 222.21 388.081 212.631 374.338 208.646C360.928 212.631 357.479 222.21 357.428 222.312C356.483 222.721 352.881 220.422 349.918 220.422Z" fill="#BA0019"/>
</g>
<mask id="mask89_468_29396" style="mask-type:luminance" maskUnits="userSpaceOnUse" x="-179" y="0" width="858" height="500">
<path d="M678.336 0H-179V500H678.336V0Z" fill="white"/>
</mask>
<g mask="url(#mask89_468_29396)">
<path d="M374.64 164.938C374.972 164.938 386.569 185.706 374.64 185.987C362.609 186.396 374.64 165.552 374.64 164.938Z" fill="white"/>
</g>
<mask id="mask90_468_29396" style="mask-type:luminance" maskUnits="userSpaceOnUse" x="-179" y="0" width="858" height="500">
<path d="M678.336 0H-179V500H678.336V0Z" fill="white"/>
</mask>
<g mask="url(#mask90_468_29396)">
<path d="M374.385 186.707C372.111 186.707 370.528 185.915 369.557 184.408C366.747 179.912 371.652 169.746 373.465 165.838C373.746 165.327 373.976 164.944 374.002 164.739C374.18 164.739 374.436 164.841 374.64 164.943H375.253C375.253 164.943 375.202 165.045 375.1 165.352C377.271 167.549 380.566 175.519 380.618 180.117C380.669 184.306 378.625 186.605 374.64 186.707H374.385ZM374.742 166.246C374.691 166.246 374.64 166.246 374.589 166.348C373.005 169.848 368.101 179.81 370.63 183.82C371.294 184.919 372.545 185.506 374.359 185.506V186.017L374.64 185.506C376.76 185.404 378.191 184.51 378.88 183.003C380.898 178.635 376.402 169.133 374.742 166.246Z" fill="#BA0019"/>
</g>
<mask id="mask91_468_29396" style="mask-type:luminance" maskUnits="userSpaceOnUse" x="-179" y="0" width="858" height="500">
<path d="M678.336 0H-179V500H678.336V0Z" fill="white"/>
</mask>
<g mask="url(#mask91_468_29396)">
<path d="M364.524 191.293L358.623 188.1C360.59 187.205 364.269 188.611 364.269 188.611C364.269 188.611 366.184 184.907 374.665 183.323C383.146 184.933 385.112 188.611 385.112 188.611C385.112 188.611 388.765 187.205 390.783 188.1L384.806 191.293H364.524Z" fill="white"/>
</g>
<mask id="mask92_468_29396" style="mask-type:luminance" maskUnits="userSpaceOnUse" x="-179" y="0" width="858" height="500">
<path d="M678.336 0H-179V500H678.336V0Z" fill="white"/>
</mask>
<g mask="url(#mask92_468_29396)">
<path d="M384.988 191.999H364.528L357.146 188.014L358.346 187.503C360.109 186.813 363.685 187.912 364.349 188.091C364.119 187.58 366.597 184.309 374.541 182.7C382.434 184.207 384.963 187.401 385.525 188.091C385.755 187.682 389.28 186.788 390.991 187.503L392.167 188.014L384.988 191.999ZM360.645 188.397L364.86 190.696H384.656L388.769 188.397C387.083 188.499 385.346 189.291 385.346 189.291C384.529 188.883 382.536 185.511 374.541 184.004C366.725 185.511 364.809 188.882 364.809 188.984C364.017 189.291 362.229 188.499 360.645 188.397Z" fill="#BA0019"/>
</g>
<mask id="mask93_468_29396" style="mask-type:luminance" maskUnits="userSpaceOnUse" x="-179" y="0" width="858" height="500">
<path d="M678.336 0H-179V500H678.336V0Z" fill="white"/>
</mask>
<g mask="url(#mask93_468_29396)">
<path d="M369.434 193.886L369.306 191.281C369.306 191.281 370.353 187.577 374.644 185.993C379.012 187.602 380.009 191.281 380.009 191.281L379.881 193.886H369.434Z" fill="white"/>
</g>
<mask id="mask94_468_29396" style="mask-type:luminance" maskUnits="userSpaceOnUse" x="-179" y="0" width="858" height="500">
<path d="M678.336 0H-179V500H678.336V0Z" fill="white"/>
</mask>
<g mask="url(#mask94_468_29396)">
<path d="M380.541 194.587H369.429L368.714 191.394C368.765 190.985 369.812 187.103 374.461 185.52C379.519 187.129 380.592 191.011 380.617 191.216L380.541 194.587ZM374.461 186.694C370.936 187.997 369.965 191.394 369.914 191.496L370.144 193.898L379.289 193.387L379.366 191.292C379.366 191.292 378.369 187.997 374.461 186.694Z" fill="#BA0019"/>
</g>
<mask id="mask95_468_29396" style="mask-type:luminance" maskUnits="userSpaceOnUse" x="-179" y="0" width="858" height="500">
<path d="M678.336 0H-179V500H678.336V0Z" fill="white"/>
</mask>
<g mask="url(#mask95_468_29396)">
<path d="M364.244 201.882L363.912 198.485C363.912 198.485 365.981 193.503 374.641 191.307C383.402 193.503 385.369 198.485 385.369 198.485L385.088 201.882H364.244Z" fill="white"/>
</g>
<mask id="mask96_468_29396" style="mask-type:luminance" maskUnits="userSpaceOnUse" x="-179" y="0" width="858" height="500">
<path d="M678.336 0H-179V500H678.336V0Z" fill="white"/>
</mask>
<g mask="url(#mask96_468_29396)">
<path d="M385.676 202.458H364.245L363.351 198.473C363.453 197.962 365.624 192.879 374.488 190.683C383.684 192.879 385.829 197.963 385.983 198.167L385.676 202.458ZM374.514 191.985C366.621 193.875 364.526 198.575 364.526 198.678L364.858 201.871L384.527 201.284L384.782 198.397H384.731C384.654 198.371 382.534 193.773 374.514 191.985Z" fill="#BA0019"/>
</g>
<mask id="mask97_468_29396" style="mask-type:luminance" maskUnits="userSpaceOnUse" x="-179" y="0" width="858" height="500">
<path d="M678.336 0H-179V500H678.336V0Z" fill="white"/>
</mask>
<g mask="url(#mask97_468_29396)">
<path d="M364.243 207.272L363.911 203.671C363.911 203.671 365.98 198.689 374.64 196.595C383.401 198.689 385.368 203.671 385.368 203.671L385.087 207.272H364.243Z" fill="white"/>
</g>
<mask id="mask98_468_29396" style="mask-type:luminance" maskUnits="userSpaceOnUse" x="-179" y="0" width="858" height="500">
<path d="M678.336 0H-179V500H678.336V0Z" fill="white"/>
</mask>
<g mask="url(#mask98_468_29396)">
<path d="M385.676 207.85H364.245L363.351 203.762C363.453 203.252 365.624 198.168 374.488 195.972C383.684 198.168 385.829 203.252 385.983 203.456L385.676 207.85ZM374.514 197.172C366.621 199.165 364.526 203.865 364.526 203.865L364.858 207.16L384.527 206.573L384.782 203.686H384.731C384.654 203.66 382.534 199.062 374.514 197.172Z" fill="#BA0019"/>
</g>
<mask id="mask99_468_29396" style="mask-type:luminance" maskUnits="userSpaceOnUse" x="-179" y="0" width="858" height="500">
<path d="M678.336 0H-179V500H678.336V0Z" fill="white"/>
</mask>
<g mask="url(#mask99_468_29396)">
<path d="M364.524 223.033L358.623 214.451C360.59 212.152 364.269 215.957 364.269 215.957C364.269 215.957 366.184 206.072 374.665 201.883C383.146 206.072 385.112 215.957 385.112 215.957C385.112 215.957 388.765 212.177 390.783 214.451L384.806 223.033H364.524Z" fill="white"/>
</g>
<mask id="mask100_468_29396" style="mask-type:luminance" maskUnits="userSpaceOnUse" x="-179" y="0" width="858" height="500">
<path d="M678.336 0H-179V500H678.336V0Z" fill="white"/>
</mask>
<g mask="url(#mask100_468_29396)">
<path d="M385.169 223.712H364.529L358.117 214.823C359.65 210.94 362.486 213.724 363.89 214.925C364.682 212.038 367.339 204.835 374.44 201.259C381.924 204.861 384.658 212.141 385.45 214.925C386.829 213.724 389.792 212.319 391.248 213.929L385.169 223.712ZM360.11 214.337C359.675 214.337 359.343 214.541 359.062 214.848L365.04 222.741L384.479 222.435L390.201 214.261C389.92 214.465 389.588 214.363 389.23 214.363C387.851 214.363 386.139 215.972 385.577 216.458L384.709 217.352L384.479 216.151C384.479 216.049 382.486 206.47 374.414 202.485C366.828 206.47 364.835 216.049 364.835 216.151L364.606 217.352L363.814 216.458C363.201 215.921 361.489 214.337 360.11 214.337Z" fill="#BA0019"/>
</g>
<mask id="mask101_468_29396" style="mask-type:luminance" maskUnits="userSpaceOnUse" x="-179" y="0" width="858" height="500">
<path d="M678.336 0H-179V500H678.336V0Z" fill="white"/>
</mask>
<g mask="url(#mask101_468_29396)">
<path d="M364.524 233.609L358.623 225.026C360.59 222.727 364.269 226.712 364.269 226.712C364.269 226.712 366.184 216.622 374.665 212.535C383.146 216.622 385.112 226.712 385.112 226.712C385.112 226.712 388.765 222.727 390.783 225.026L384.806 233.609H364.524Z" fill="white"/>
</g>
<mask id="mask102_468_29396" style="mask-type:luminance" maskUnits="userSpaceOnUse" x="-179" y="0" width="858" height="500">
<path d="M678.336 0H-179V500H678.336V0Z" fill="white"/>
</mask>
<g mask="url(#mask102_468_29396)">
<path d="M385.169 234.29H364.529L358.117 225.401C359.65 221.518 362.486 224.2 363.89 225.401C364.682 222.719 367.339 215.413 374.44 211.837C381.924 215.439 384.658 222.719 385.45 225.401C386.829 224.2 389.843 222.898 391.248 224.609L385.169 234.29ZM360.11 224.915C359.675 224.915 359.343 225.119 359.062 225.426L365.04 233.217L384.479 233.012L390.201 224.737C389.869 225.146 389.588 224.941 389.179 224.941C387.851 224.941 386.139 226.55 385.577 227.036L384.709 227.93L384.479 226.729C384.479 226.729 382.486 217.048 374.414 213.063C366.828 217.048 364.835 226.729 364.835 226.729L364.606 227.93L363.814 227.036C363.201 226.525 361.489 224.915 360.11 224.915Z" fill="#BA0019"/>
</g>
<mask id="mask103_468_29396" style="mask-type:luminance" maskUnits="userSpaceOnUse" x="-179" y="0" width="858" height="500">
<path d="M678.336 0H-179V500H678.336V0Z" fill="white"/>
</mask>
<g mask="url(#mask103_468_29396)">
<path d="M364.244 249.577L363.912 240.79C363.912 240.79 365.981 228.223 374.641 223.037C383.402 228.223 385.369 240.79 385.369 240.79L385.088 249.577H364.244Z" fill="white"/>
</g>
<mask id="mask104_468_29396" style="mask-type:luminance" maskUnits="userSpaceOnUse" x="-179" y="0" width="858" height="500">
<path d="M678.336 0H-179V500H678.336V0Z" fill="white"/>
</mask>
<g mask="url(#mask104_468_29396)">
<path d="M385.729 250.049H364.246L363.301 240.777C363.454 240.087 365.523 227.8 374.387 222.513C383.838 227.8 385.958 240.087 386.035 240.675L385.729 250.049ZM374.387 223.611C366.673 228.592 364.629 240.674 364.578 240.777L364.91 249.564L384.502 248.976L384.758 240.7C384.758 240.7 382.663 228.618 374.387 223.611Z" fill="#BA0019"/>
</g>
<mask id="mask105_468_29396" style="mask-type:luminance" maskUnits="userSpaceOnUse" x="-179" y="0" width="858" height="500">
<path d="M678.336 0H-179V500H678.336V0Z" fill="white"/>
</mask>
<g mask="url(#mask105_468_29396)">
<path d="M364.524 249.554L358.623 243.066C360.59 241.38 364.269 244.164 364.269 244.164C364.269 244.164 366.184 236.782 374.665 233.589C383.146 236.782 385.112 244.164 385.112 244.164C385.112 244.164 388.765 241.38 390.783 243.066L384.806 249.554H364.524Z" fill="white"/>
</g>
<mask id="mask106_468_29396" style="mask-type:luminance" maskUnits="userSpaceOnUse" x="-179" y="0" width="858" height="500">
<path d="M678.336 0H-179V500H678.336V0Z" fill="white"/>
</mask>
<g mask="url(#mask106_468_29396)">
<path d="M385.117 250.051H364.528L358.168 243.461C358.679 242.158 359.394 241.851 360.109 241.851C361.54 241.851 363.072 242.643 363.864 243.256C364.707 241.059 367.364 235.67 374.439 233.09C381.822 235.695 384.606 241.085 385.423 243.256C386.751 242.362 389.613 241.264 391.171 242.567L385.117 250.051ZM360.109 243.179C359.624 243.179 359.343 243.384 358.985 243.486L364.988 249.183L384.529 248.876L389.817 243.179C389.613 243.282 389.383 243.179 389.229 243.179C387.85 243.179 386.087 244.278 385.5 244.789L384.759 245.3L384.555 244.406C384.504 244.406 382.511 237.228 374.49 234.316C366.878 237.203 364.886 244.406 364.886 244.406L364.656 245.3L363.864 244.789C363.864 244.789 361.82 243.179 360.109 243.179Z" fill="#BA0019"/>
</g>
<mask id="mask107_468_29396" style="mask-type:luminance" maskUnits="userSpaceOnUse" x="-179" y="0" width="858" height="500">
<path d="M678.336 0H-179V500H678.336V0Z" fill="white"/>
</mask>
<g mask="url(#mask107_468_29396)">
<path d="M111.614 210.84L103.899 204.76C106.454 203.151 111.231 205.859 111.231 205.859C111.231 205.859 113.836 198.783 124.795 195.871C135.779 198.758 138.358 205.859 138.358 205.859C138.358 205.859 143.11 203.176 145.69 204.76L138.001 210.84H111.614Z" fill="white"/>
</g>
<mask id="mask108_468_29396" style="mask-type:luminance" maskUnits="userSpaceOnUse" x="-179" y="0" width="858" height="500">
<path d="M678.336 0H-179V500H678.336V0Z" fill="white"/>
</mask>
<g mask="url(#mask108_468_29396)">
<path d="M138.285 211.446H111.617L103.52 205.162C104.235 203.757 105.027 203.553 105.946 203.553C108.322 203.553 110.927 204.856 111.515 205.239C111.081 204.651 114.12 198.06 124.67 195.148C135.092 197.933 138.31 203.936 138.898 205.315C139.23 204.523 143.905 202.812 146.076 204.217L138.285 211.446ZM105.921 204.855C105.231 204.855 104.669 204.855 104.235 205.162L111.975 210.347L137.825 210.245L144.62 204.855C144.339 204.855 144.032 204.855 143.751 204.855C141.478 204.855 138.745 206.362 138.745 206.362C137.8 206.056 135.194 199.185 124.67 196.375C114.529 199.159 111.923 206.056 111.872 206.056C110.774 206.337 108.143 204.855 105.921 204.855Z" fill="#BA0019"/>
</g>
<mask id="mask109_468_29396" style="mask-type:luminance" maskUnits="userSpaceOnUse" x="-179" y="0" width="858" height="500">
<path d="M678.336 0H-179V500H678.336V0Z" fill="white"/>
</mask>
<g mask="url(#mask109_468_29396)">
<path d="M107.632 226.901L97.6191 218.216C100.965 216.019 107.173 219.901 107.173 219.901C107.173 219.901 110.493 210.016 124.773 205.725C139.103 210.016 142.423 219.901 142.423 219.901C142.423 219.901 148.58 216.019 151.926 218.216L141.938 226.901H107.632Z" fill="white"/>
</g>
<mask id="mask110_468_29396" style="mask-type:luminance" maskUnits="userSpaceOnUse" x="-179" y="0" width="858" height="500">
<path d="M678.336 0H-179V500H678.336V0Z" fill="white"/>
</mask>
<g mask="url(#mask110_468_29396)">
<path d="M142.165 227.529H107.63L97.208 218.742C98.051 217.235 99.0471 216.954 100.222 216.954C103.415 216.954 106.915 219.049 107.425 219.356C106.94 218.666 110.619 209.265 124.617 205.076C138.308 209.061 142.344 217.849 142.932 219.458C143.315 218.462 149.471 215.958 152.307 217.772L142.165 227.529ZM100.222 218.232C99.3281 218.232 98.5874 218.436 97.9743 218.819L108.039 226.508L141.757 226.303L151.31 217.925C150.799 218.334 150.135 218.13 149.369 218.232C146.355 218.232 142.778 220.326 142.753 220.429C141.808 220.02 138.411 210.339 124.617 206.252C111.155 210.339 107.809 220.02 107.758 220.122C106.864 220.429 103.211 218.232 100.222 218.232Z" fill="#BA0019"/>
</g>
<mask id="mask111_468_29396" style="mask-type:luminance" maskUnits="userSpaceOnUse" x="-179" y="0" width="858" height="500">
<path d="M678.336 0H-179V500H678.336V0Z" fill="white"/>
</mask>
<g mask="url(#mask111_468_29396)">
<path d="M97.6943 249.95L97.8475 218.531C97.8475 218.531 101.041 224.712 125.92 226.117C149.498 225.325 153.406 221.519 154.428 218.122L153.483 250.052L97.6943 249.95Z" fill="white"/>
</g>
<mask id="mask112_468_29396" style="mask-type:luminance" maskUnits="userSpaceOnUse" x="-179" y="0" width="858" height="500">
<path d="M678.336 0H-179V500H678.336V0Z" fill="white"/>
</mask>
<g mask="url(#mask112_468_29396)">
<path d="M154.042 250.764L97.6924 250.662L97.2324 218.528V216.127L98.4076 218.222C98.4076 218.324 102.009 224.199 125.97 225.4C148.78 224.608 152.842 221.108 153.864 217.915L155.064 218.119L154.042 250.764ZM98.4329 220.214L98.3055 249.947L152.817 249.538L153.736 220.699C151.131 223.585 144.54 226.089 125.893 226.677C107.578 225.706 100.809 222.028 98.4329 220.214Z" fill="#BA0019"/>
</g>
<mask id="mask113_468_29396" style="mask-type:luminance" maskUnits="userSpaceOnUse" x="-179" y="0" width="858" height="500">
<path d="M678.336 0H-179V500H678.336V0Z" fill="white"/>
</mask>
<g mask="url(#mask113_468_29396)">
<path d="M124.567 164.938C124.899 164.938 136.573 185.706 124.567 185.987C112.612 186.396 124.567 165.552 124.567 164.938Z" fill="white"/>
</g>
<mask id="mask114_468_29396" style="mask-type:luminance" maskUnits="userSpaceOnUse" x="-179" y="0" width="858" height="500">
<path d="M678.336 0H-179V500H678.336V0Z" fill="white"/>
</mask>
<g mask="url(#mask114_468_29396)">
<path d="M124.309 186.707C122.087 186.707 120.452 185.915 119.558 184.408C116.697 179.912 121.576 169.746 123.467 165.838C123.748 165.327 123.926 164.944 123.977 164.739C124.156 164.739 124.386 164.841 124.59 164.943H125.229C125.229 164.943 125.178 165.045 125.076 165.352C127.222 167.549 130.542 175.519 130.593 180.117C130.695 184.306 128.601 186.605 124.59 186.707H124.309ZM124.667 166.246C124.667 166.246 124.565 166.246 124.514 166.348C122.981 169.848 118.051 179.81 120.555 183.82C121.244 184.919 122.496 185.506 124.284 185.506V186.017L124.514 185.506C126.762 185.404 128.141 184.51 128.856 183.003C130.849 178.635 126.353 169.133 124.667 166.246Z" fill="#BA0019"/>
</g>
<mask id="mask115_468_29396" style="mask-type:luminance" maskUnits="userSpaceOnUse" x="-179" y="0" width="858" height="500">
<path d="M678.336 0H-179V500H678.336V0Z" fill="white"/>
</mask>
<g mask="url(#mask115_468_29396)">
<path d="M114.478 191.293L108.552 188.1C110.493 187.205 114.197 188.611 114.197 188.611C114.197 188.611 116.138 184.907 124.619 183.323C133.074 184.933 135.041 188.611 135.041 188.611C135.041 188.611 138.694 187.205 140.712 188.1L134.785 191.293H114.478Z" fill="white"/>
</g>
<mask id="mask116_468_29396" style="mask-type:luminance" maskUnits="userSpaceOnUse" x="-179" y="0" width="858" height="500">
<path d="M678.336 0H-179V500H678.336V0Z" fill="white"/>
</mask>
<g mask="url(#mask116_468_29396)">
<path d="M134.936 191.999H114.475L107.093 188.014L108.344 187.503C110.056 186.813 113.606 187.912 114.296 188.091C114.117 187.58 116.57 184.309 124.463 182.7C132.356 184.207 134.91 187.401 135.498 188.091C135.677 187.682 139.227 186.788 140.939 187.503L142.114 188.014L134.936 191.999ZM110.567 188.397L114.782 190.696H134.604L138.691 188.397C137.056 188.499 135.319 189.291 135.319 189.291C134.501 188.883 132.509 185.511 124.463 184.004C116.723 185.511 114.705 188.882 114.705 188.984C114.015 189.291 112.227 188.499 110.567 188.397Z" fill="#BA0019"/>
</g>
<mask id="mask117_468_29396" style="mask-type:luminance" maskUnits="userSpaceOnUse" x="-179" y="0" width="858" height="500">
<path d="M678.336 0H-179V500H678.336V0Z" fill="white"/>
</mask>
<g mask="url(#mask117_468_29396)">
<path d="M119.433 193.886L119.254 191.281C119.254 191.281 120.276 187.577 124.618 185.993C128.935 187.602 129.931 191.281 129.931 191.281L129.829 193.886H119.433Z" fill="white"/>
</g>
<mask id="mask118_468_29396" style="mask-type:luminance" maskUnits="userSpaceOnUse" x="-179" y="0" width="858" height="500">
<path d="M678.336 0H-179V500H678.336V0Z" fill="white"/>
</mask>
<g mask="url(#mask118_468_29396)">
<path d="M130.413 194.587H119.429L118.611 191.394C118.688 190.985 119.812 187.103 124.41 185.52C129.468 187.129 130.54 191.011 130.591 191.216L130.413 194.587ZM124.41 186.694C120.859 187.997 119.914 191.394 119.914 191.496L120.042 193.898L129.238 193.387L129.366 191.292C129.314 191.292 128.318 187.997 124.41 186.694Z" fill="#BA0019"/>
</g>
<mask id="mask119_468_29396" style="mask-type:luminance" maskUnits="userSpaceOnUse" x="-179" y="0" width="858" height="500">
<path d="M678.336 0H-179V500H678.336V0Z" fill="white"/>
</mask>
<g mask="url(#mask119_468_29396)">
<path d="M114.197 201.882L113.865 198.485C113.865 198.485 115.909 193.503 124.619 191.307C133.33 193.503 135.322 198.485 135.322 198.485L135.042 201.882H114.197Z" fill="white"/>
</g>
<mask id="mask120_468_29396" style="mask-type:luminance" maskUnits="userSpaceOnUse" x="-179" y="0" width="858" height="500">
<path d="M678.336 0H-179V500H678.336V0Z" fill="white"/>
</mask>
<g mask="url(#mask120_468_29396)">
<path d="M135.598 202.458H114.192L113.272 198.473C113.426 197.962 115.571 192.879 124.486 190.683C133.657 192.879 135.828 197.963 135.93 198.167L135.598 202.458ZM124.486 191.985C116.568 193.875 114.524 198.575 114.473 198.678L114.831 201.871L134.474 201.284L134.704 198.397C134.653 198.371 132.507 193.773 124.486 191.985Z" fill="#BA0019"/>
</g>
<mask id="mask121_468_29396" style="mask-type:luminance" maskUnits="userSpaceOnUse" x="-179" y="0" width="858" height="500">
<path d="M678.336 0H-179V500H678.336V0Z" fill="white"/>
</mask>
<g mask="url(#mask121_468_29396)">
<path d="M114.197 207.272L113.865 203.671C113.865 203.671 115.909 198.689 124.619 196.595C133.33 198.689 135.322 203.671 135.322 203.671L135.042 207.272H114.197Z" fill="white"/>
</g>
<mask id="mask122_468_29396" style="mask-type:luminance" maskUnits="userSpaceOnUse" x="-179" y="0" width="858" height="500">
<path d="M678.336 0H-179V500H678.336V0Z" fill="white"/>
</mask>
<g mask="url(#mask122_468_29396)">
<path d="M135.598 207.85H114.192L113.272 203.762C113.426 203.252 115.571 198.168 124.486 195.972C133.657 198.168 135.828 203.252 135.93 203.456L135.598 207.85ZM124.486 197.172C116.568 199.165 114.524 203.865 114.524 203.865L114.831 207.16L134.474 206.573L134.704 203.686C134.653 203.66 132.507 199.062 124.486 197.172Z" fill="#BA0019"/>
</g>
<mask id="mask123_468_29396" style="mask-type:luminance" maskUnits="userSpaceOnUse" x="-179" y="0" width="858" height="500">
<path d="M678.336 0H-179V500H678.336V0Z" fill="white"/>
</mask>
<g mask="url(#mask123_468_29396)">
<path d="M114.478 223.033L108.552 214.451C110.493 212.152 114.197 215.957 114.197 215.957C114.197 215.957 116.138 206.072 124.619 201.883C133.074 206.072 135.041 215.957 135.041 215.957C135.041 215.957 138.694 212.177 140.712 214.451L134.785 223.033H114.478Z" fill="white"/>
</g>
<mask id="mask124_468_29396" style="mask-type:luminance" maskUnits="userSpaceOnUse" x="-179" y="0" width="858" height="500">
<path d="M678.336 0H-179V500H678.336V0Z" fill="white"/>
</mask>
<g mask="url(#mask124_468_29396)">
<path d="M135.118 223.712H114.478L107.99 214.823C109.574 210.94 112.486 213.724 113.84 214.925C114.632 212.038 117.288 204.835 124.364 201.259C131.874 204.861 134.658 212.141 135.45 214.925C136.829 213.724 139.742 212.319 141.198 213.929L135.118 223.712ZM110.059 214.337C109.625 214.337 109.319 214.541 109.038 214.848L115.015 222.741L134.454 222.435L140.074 214.261C139.844 214.465 139.563 214.363 139.179 214.363C137.8 214.363 136.114 215.972 135.501 216.458L134.684 217.352L134.454 216.151C134.403 216.049 132.436 206.47 124.364 202.485C116.854 206.47 114.836 216.049 114.785 216.151L114.58 217.352L113.763 216.458C113.125 215.921 111.439 214.337 110.059 214.337Z" fill="#BA0019"/>
</g>
<mask id="mask125_468_29396" style="mask-type:luminance" maskUnits="userSpaceOnUse" x="-179" y="0" width="858" height="500">
<path d="M678.336 0H-179V500H678.336V0Z" fill="white"/>
</mask>
<g mask="url(#mask125_468_29396)">
<path d="M114.478 233.609L108.552 225.026C110.493 222.727 114.197 226.712 114.197 226.712C114.197 226.712 116.138 216.622 124.619 212.535C133.074 216.622 135.041 226.712 135.041 226.712C135.041 226.712 138.694 222.727 140.712 225.026L134.785 233.609H114.478Z" fill="white"/>
</g>
<mask id="mask126_468_29396" style="mask-type:luminance" maskUnits="userSpaceOnUse" x="-179" y="0" width="858" height="500">
<path d="M678.336 0H-179V500H678.336V0Z" fill="white"/>
</mask>
<g mask="url(#mask126_468_29396)">
<path d="M135.118 234.29H114.478L107.99 225.401C109.625 221.518 112.486 224.2 113.84 225.401C114.632 222.719 117.288 215.413 124.364 211.837C131.874 215.439 134.658 222.719 135.45 225.401C136.829 224.2 139.742 222.898 141.198 224.609L135.118 234.29ZM110.059 224.915C109.625 224.915 109.319 225.119 109.038 225.426L115.015 233.217L134.454 233.012L140.074 224.737C139.844 225.146 139.537 224.941 139.179 224.941C137.8 224.941 136.114 226.55 135.501 227.036L134.684 227.93L134.454 226.729C134.403 226.729 132.436 217.048 124.364 213.063C116.854 217.048 114.836 226.729 114.785 226.729L114.58 227.93L113.763 227.036C113.125 226.525 111.439 224.915 110.059 224.915Z" fill="#BA0019"/>
</g>
<mask id="mask127_468_29396" style="mask-type:luminance" maskUnits="userSpaceOnUse" x="-179" y="0" width="858" height="500">
<path d="M678.336 0H-179V500H678.336V0Z" fill="white"/>
</mask>
<g mask="url(#mask127_468_29396)">
<path d="M114.197 249.577L113.865 240.79C113.865 240.79 115.909 228.223 124.619 223.037C133.33 228.223 135.322 240.79 135.322 240.79L135.042 249.577H114.197Z" fill="white"/>
</g>
<mask id="mask128_468_29396" style="mask-type:luminance" maskUnits="userSpaceOnUse" x="-179" y="0" width="858" height="500">
<path d="M678.336 0H-179V500H678.336V0Z" fill="white"/>
</mask>
<g mask="url(#mask128_468_29396)">
<path d="M135.65 250.049H114.193L113.223 240.777C113.376 240.087 115.47 227.8 124.309 222.513C133.785 227.8 135.88 240.087 135.982 240.675L135.65 250.049ZM124.309 223.611C116.62 228.592 114.525 240.674 114.525 240.777L114.832 249.564L134.424 248.976L134.705 240.7C134.705 240.7 132.661 228.618 124.309 223.611Z" fill="#BA0019"/>
</g>
<mask id="mask129_468_29396" style="mask-type:luminance" maskUnits="userSpaceOnUse" x="-179" y="0" width="858" height="500">
<path d="M678.336 0H-179V500H678.336V0Z" fill="white"/>
</mask>
<g mask="url(#mask129_468_29396)">
<path d="M114.478 249.554L108.552 243.066C110.493 241.38 114.197 244.164 114.197 244.164C114.197 244.164 116.138 236.782 124.619 233.589C133.074 236.782 135.041 244.164 135.041 244.164C135.041 244.164 138.694 241.38 140.712 243.066L134.785 249.554H114.478Z" fill="white"/>
</g>
<mask id="mask130_468_29396" style="mask-type:luminance" maskUnits="userSpaceOnUse" x="-179" y="0" width="858" height="500">
<path d="M678.336 0H-179V500H678.336V0Z" fill="white"/>
</mask>
<g mask="url(#mask130_468_29396)">
<path d="M135.064 250.051H114.476L108.09 243.461C108.677 242.158 109.316 241.851 110.057 241.851C111.487 241.851 113.02 242.643 113.812 243.256C114.629 241.059 117.337 235.67 124.387 233.09C131.82 235.695 134.554 241.085 135.371 243.256C136.699 242.362 139.56 241.264 141.118 242.567L135.064 250.051ZM110.057 243.179C109.571 243.179 109.239 243.384 108.984 243.486L114.91 249.183L134.502 248.876L139.765 243.179C139.611 243.282 139.381 243.179 139.177 243.179C137.542 243.179 135.448 244.789 135.448 244.789L134.681 245.3L134.451 244.406C134.4 244.406 132.433 237.228 124.387 234.316C116.775 237.203 114.808 244.406 114.757 244.406L114.502 245.3L113.761 244.789C113.761 244.789 111.743 243.179 110.057 243.179Z" fill="#BA0019"/>
</g>
<mask id="mask131_468_29396" style="mask-type:luminance" maskUnits="userSpaceOnUse" x="-179" y="0" width="858" height="500">
<path d="M678.336 0H-179V500H678.336V0Z" fill="white"/>
</mask>
<g mask="url(#mask131_468_29396)">
<path d="M213.307 235.385H286.005C289.606 235.385 292.519 238.271 292.519 241.873C292.519 245.372 289.606 248.361 286.005 248.361H213.307C209.705 248.361 206.818 245.372 206.818 241.873C206.818 238.271 209.705 235.385 213.307 235.385Z" fill="white"/>
</g>
<mask id="mask132_468_29396" style="mask-type:luminance" maskUnits="userSpaceOnUse" x="-179" y="0" width="858" height="500">
<path d="M678.336 0H-179V500H678.336V0Z" fill="white"/>
</mask>
<g mask="url(#mask132_468_29396)">
<path d="M286.001 248.966H213.303C209.369 248.966 206.125 245.773 206.125 241.89C206.125 238.007 209.369 234.712 213.303 234.712H286.001C289.91 234.712 293.154 238.007 293.154 241.89C293.154 245.773 289.91 248.966 286.001 248.966ZM213.303 236.015C210.008 236.015 207.428 238.62 207.428 241.89C207.428 245.083 210.033 247.688 213.303 247.688H286.001C289.245 247.688 291.877 245.083 291.877 241.89C291.877 238.595 289.22 236.015 286.001 236.015H213.303Z" fill="#BA0019"/>
</g>
<mask id="mask133_468_29396" style="mask-type:luminance" maskUnits="userSpaceOnUse" x="-179" y="0" width="858" height="500">
<path d="M678.336 0H-179V500H678.336V0Z" fill="white"/>
</mask>
<g mask="url(#mask133_468_29396)">
<path d="M293.743 243.078L294.305 200.062C294.305 200.062 292.645 210.638 287.689 210.638H211.619C206.689 210.638 205.028 200.062 205.028 200.062L205.539 243.078H293.743Z" fill="white"/>
</g>
<mask id="mask134_468_29396" style="mask-type:luminance" maskUnits="userSpaceOnUse" x="-179" y="0" width="858" height="500">
<path d="M678.336 0H-179V500H678.336V0Z" fill="white"/>
</mask>
<g mask="url(#mask134_468_29396)">
<path d="M294.385 243.567H205.517L204.367 200.065L205.593 199.963C206.079 202.747 207.995 210.053 211.596 210.053H287.666C291.268 210.053 293.235 202.773 293.644 199.963L294.921 200.065L294.385 243.567ZM205.696 205.071L206.181 242.979L293.158 242.391L293.618 205.071C292.494 208.162 290.655 211.253 287.692 211.253H211.622C208.659 211.253 206.819 208.162 205.696 205.071Z" fill="#BA0019"/>
</g>
<mask id="mask135_468_29396" style="mask-type:luminance" maskUnits="userSpaceOnUse" x="-179" y="0" width="858" height="500">
<path d="M678.336 0H-179V500H678.336V0Z" fill="white"/>
</mask>
<g mask="url(#mask135_468_29396)">
<path d="M276.913 223.513L277.066 209.541C277.066 209.541 286.569 206.935 285.24 203.359C283.886 199.655 272.468 207.957 272.468 207.957H226.77C226.77 207.957 215.377 199.681 214.023 203.359C212.695 206.961 222.223 209.541 222.223 209.541L222.402 223.513H276.913Z" fill="white"/>
</g>
<mask id="mask136_468_29396" style="mask-type:luminance" maskUnits="userSpaceOnUse" x="-179" y="0" width="858" height="500">
<path d="M678.336 0H-179V500H678.336V0Z" fill="white"/>
</mask>
<g mask="url(#mask136_468_29396)">
<path d="M277.499 224.236H222.426L221.608 209.677C221.43 210.086 215.171 208.271 213.639 205.283C213.256 204.695 213.179 203.878 213.46 203.188C213.639 202.6 214.175 201.783 215.631 201.783C219.31 201.783 226.819 207.173 227.151 207.479L272.467 207.377C272.415 207.173 279.977 201.783 283.655 201.783C285.162 201.783 285.648 202.575 285.826 203.188C286.107 203.878 286.056 204.695 285.647 205.283C284.14 208.271 277.499 210.085 277.218 210.162L277.55 223.522L277.499 224.236ZM215.631 203.086C214.967 203.086 214.737 203.291 214.635 203.597C214.507 203.904 214.533 204.389 214.788 204.798C215.81 206.79 220.638 208.502 222.426 208.987L223.039 223.547L276.349 222.96L276.477 209.6C278.699 208.501 283.527 206.816 284.574 204.798C284.804 204.389 284.804 204.006 284.677 203.597C284.574 203.291 284.37 203.086 283.681 203.086C280.973 203.086 274.97 206.968 272.901 208.476L226.794 208.681C224.342 206.969 218.313 203.086 215.631 203.086Z" fill="#BA0019"/>
</g>
<mask id="mask137_468_29396" style="mask-type:luminance" maskUnits="userSpaceOnUse" x="-179" y="0" width="858" height="500">
<path d="M678.336 0H-179V500H678.336V0Z" fill="white"/>
</mask>
<g mask="url(#mask137_468_29396)">
<path d="M282.375 235.691L282.553 220.825C282.553 220.825 293.92 219.037 292.337 215.435C290.779 211.654 277.062 220.033 277.062 220.033H222.218C222.218 220.033 208.501 211.654 206.917 215.435C205.308 219.037 216.701 220.825 216.701 220.825L216.931 235.691H282.375Z" fill="white"/>
</g>
<mask id="mask138_468_29396" style="mask-type:luminance" maskUnits="userSpaceOnUse" x="-179" y="0" width="858" height="500">
<path d="M678.336 0H-179V500H678.336V0Z" fill="white"/>
</mask>
<g mask="url(#mask138_468_29396)">
<path d="M282.963 236.285H216.957L216.165 220.831C215.807 221.239 208.068 220.141 206.484 217.127C206.126 216.437 206.075 215.927 206.356 215.135C206.637 214.547 207.25 213.832 208.86 213.832C213.151 213.832 222.168 219.222 222.551 219.426H277.088C277.139 219.222 286.156 213.832 290.498 213.832C292.108 213.832 292.695 214.522 292.95 215.135C293.283 215.927 293.231 216.437 292.848 217.127C291.29 220.014 283.525 221.316 282.656 221.521L283.039 235.697L282.963 236.285ZM208.834 215.135C207.761 215.135 207.557 215.543 207.505 215.645C208.604 218.532 214.607 219.936 216.778 220.243L217.57 235.697L281.711 235.008L281.89 220.831C284.674 219.937 290.651 218.532 291.724 216.539C291.699 211.558 277.471 220.422 277.394 220.524L222.244 220.627C221.836 220.524 212.819 215.135 208.834 215.135Z" fill="#BA0019"/>
</g>
<mask id="mask139_468_29396" style="mask-type:luminance" maskUnits="userSpaceOnUse" x="-179" y="0" width="858" height="500">
<path d="M678.336 0H-179V500H678.336V0Z" fill="white"/>
</mask>
<g mask="url(#mask139_468_29396)">
<path d="M257.602 159.95L257.653 154.152C250.961 154.152 252.621 147.765 252.621 145.262C254.614 142.861 255.176 137.88 249.658 135.479C244.294 138.263 244.702 142.861 246.669 145.058C246.695 147.74 248.917 154.126 241.561 154.126L241.612 159.924H257.602V159.95Z" fill="white"/>
</g>
<mask id="mask140_468_29396" style="mask-type:luminance" maskUnits="userSpaceOnUse" x="-179" y="0" width="858" height="500">
<path d="M678.336 0H-179V500H678.336V0Z" fill="white"/>
</mask>
<g mask="url(#mask140_468_29396)">
<path d="M258.262 160.65H241.608L240.918 154.162C243.421 153.472 244.699 153.166 245.49 152.169C246.691 150.765 246.436 148.568 246.231 146.78C246.129 146.09 246.104 145.579 246.052 145.094C244.98 144.097 244.469 142.105 244.801 140.292C245.107 138.784 246.129 136.588 249.399 135.004C253.077 136.409 254.15 138.401 254.507 139.882C254.967 141.773 254.456 144.072 253.128 145.681C253.128 145.681 253.205 146.09 253.205 146.678C253.051 148.466 252.847 150.867 254.175 152.272C254.839 153.166 256.015 153.472 257.675 153.472L258.262 159.96V160.65ZM249.373 136.102C247.738 137.303 246.384 138.784 246.027 140.496C245.771 142.003 246.155 143.485 247.151 144.583C247.33 145.477 247.381 145.988 247.432 146.575C247.636 148.568 247.968 151.276 246.41 153.064C245.388 154.264 243.728 154.673 241.557 154.673L242.221 159.96L257.011 159.45L257.036 154.162C255.708 154.673 254.227 154.264 253.205 153.268C251.57 151.378 251.825 148.466 251.927 146.575L252.03 145.272C253 143.765 253.716 142.08 253.256 140.189C252.847 138.504 251.519 137.124 249.373 136.102Z" fill="#BA0019"/>
</g>
<mask id="mask141_468_29396" style="mask-type:luminance" maskUnits="userSpaceOnUse" x="-179" y="0" width="858" height="500">
<path d="M678.336 0H-179V500H678.336V0Z" fill="white"/>
</mask>
<g mask="url(#mask141_468_29396)">
<path d="M268.941 198.471L269.069 187.206C269.069 187.206 275.762 185.01 274.868 182.021C273.923 179.033 265.825 185.725 265.825 185.725H233.461C233.461 185.725 225.338 179.033 224.418 182.021C223.524 185.01 230.217 187.206 230.217 187.206L230.344 198.471H268.941Z" fill="white"/>
</g>
<mask id="mask142_468_29396" style="mask-type:luminance" maskUnits="userSpaceOnUse" x="-179" y="0" width="858" height="500">
<path d="M678.336 0H-179V500H678.336V0Z" fill="white"/>
</mask>
<g mask="url(#mask142_468_29396)">
<path d="M269.553 199.076H230.342L229.576 187.198C229.346 187.607 222.731 185.308 223.829 181.808C224.059 181.016 224.646 180.505 225.541 180.505C228.146 180.505 233.255 184.695 233.817 185.308L265.798 185.103C265.976 184.695 271.111 180.505 273.742 180.505C274.611 180.505 275.223 181.016 275.428 181.808C276.526 185.308 269.987 187.606 269.272 187.887L269.553 198.565V199.076ZM225.566 181.833C224.442 184.132 228.861 186.125 230.445 186.712L230.956 198.488L268.327 197.9L268.429 187.223C270.421 186.125 274.84 184.133 274.227 182.242C271.852 181.732 267.662 185.026 266.232 186.227L233.459 186.432C231.569 185.027 227.379 181.833 225.566 181.833Z" fill="#BA0019"/>
</g>
<mask id="mask143_468_29396" style="mask-type:luminance" maskUnits="userSpaceOnUse" x="-179" y="0" width="858" height="500">
<path d="M678.336 0H-179V500H678.336V0Z" fill="white"/>
</mask>
<g mask="url(#mask143_468_29396)">
<path d="M272.771 208.444L272.924 196.259C272.924 196.259 281.047 194.752 279.872 191.865C278.748 188.774 269.041 195.646 269.041 195.646H230.189C230.189 195.646 220.482 188.749 219.384 191.865C218.234 194.752 226.306 196.259 226.306 196.259L226.434 208.444H272.771Z" fill="white"/>
</g>
<mask id="mask144_468_29396" style="mask-type:luminance" maskUnits="userSpaceOnUse" x="-179" y="0" width="858" height="500">
<path d="M678.336 0H-179V500H678.336V0Z" fill="white"/>
</mask>
<g mask="url(#mask144_468_29396)">
<path d="M273.437 209.052H226.487L225.721 196.28C225.619 196.791 220.255 195.871 218.977 193.496C218.645 192.985 218.543 192.296 218.824 191.708C218.978 191.197 219.412 190.508 220.74 190.508C223.856 190.508 230.293 194.901 230.6 195.106L269.069 195.003C268.967 194.901 275.455 190.508 278.546 190.508C279.875 190.508 280.309 191.197 280.513 191.708C280.743 192.296 280.692 193.01 280.36 193.496C279.032 195.897 273.667 196.792 273.08 196.996L273.437 208.465V209.052ZM220.74 191.785L220.05 192.985C220.842 194.288 224.393 195.284 226.487 195.668L227.151 208.44L272.211 207.75L272.313 196.28C274.357 195.386 278.393 194.39 279.261 192.985L278.546 191.785C276.324 191.785 271.215 194.875 269.504 196.178L230.242 196.28C228.097 194.875 223.013 191.785 220.74 191.785Z" fill="#BA0019"/>
</g>
<mask id="mask145_468_29396" style="mask-type:luminance" maskUnits="userSpaceOnUse" x="-179" y="0" width="858" height="500">
<path d="M678.336 0H-179V500H678.336V0Z" fill="white"/>
</mask>
<g mask="url(#mask145_468_29396)">
<path d="M262.15 180.515L262.227 173.133C262.227 173.133 266.569 171.345 265.956 169.353C265.394 167.258 260.132 171.856 260.132 171.856H239.16C239.16 171.856 233.924 167.258 233.362 169.353C232.723 171.345 237.066 173.133 237.066 173.133L237.168 180.515H262.15Z" fill="white"/>
</g>
<mask id="mask146_468_29396" style="mask-type:luminance" maskUnits="userSpaceOnUse" x="-179" y="0" width="858" height="500">
<path d="M678.336 0H-179V500H678.336V0Z" fill="white"/>
</mask>
<g mask="url(#mask146_468_29396)">
<path d="M262.808 181.209H237.187L236.446 173.137C236.318 173.545 232.001 171.527 232.717 169.05L232.87 168.743L234.096 168.156C235.808 168.156 238.95 170.94 239.614 171.451L260.176 171.246C260.33 170.94 263.472 168.156 265.26 168.156H265.72L266.588 169.05C267.303 171.553 262.987 173.546 262.476 173.75L262.833 180.545L262.808 181.209ZM234.096 169.433C233.56 170.634 236.063 172.039 237.34 172.524L237.8 180.519L261.531 179.932L261.556 173.035C263.242 172.038 265.72 170.634 265.413 169.433C264.774 169.637 261.913 171.119 260.56 172.32L239.179 172.524C237.34 171.145 235.016 169.433 234.096 169.433Z" fill="#BA0019"/>
</g>
<mask id="mask147_468_29396" style="mask-type:luminance" maskUnits="userSpaceOnUse" x="-179" y="0" width="858" height="500">
<path d="M678.336 0H-179V500H678.336V0Z" fill="white"/>
</mask>
<g mask="url(#mask147_468_29396)">
<path d="M264.651 187.294L264.753 179.81C264.753 179.81 269.965 178.021 269.249 176.029C268.56 173.934 262.25 178.634 262.25 178.634H237.115C237.115 178.634 230.831 173.934 230.116 176.029C229.401 178.021 234.637 179.81 234.637 179.81L234.739 187.294H264.651Z" fill="white"/>
</g>
<mask id="mask148_468_29396" style="mask-type:luminance" maskUnits="userSpaceOnUse" x="-179" y="0" width="858" height="500">
<path d="M678.336 0H-179V500H678.336V0Z" fill="white"/>
</mask>
<g mask="url(#mask148_468_29396)">
<path d="M265.288 187.893H234.685L233.945 179.821C233.996 180.332 230.445 179.029 229.577 177.216L229.475 176.91V175.811C229.628 175.402 229.986 174.917 230.931 174.917C233 174.917 237.01 177.701 237.47 178.008L262.248 177.906C262.299 177.701 266.309 174.917 268.404 174.917H268.813L269.834 175.811C269.988 176.322 269.988 176.705 269.732 177.216C268.864 179.106 265.364 180.307 264.93 180.409L265.313 187.306L265.288 187.893ZM230.905 176.117C231.161 177.727 233.46 178.8 234.737 179.208L235.273 187.203L263.985 186.693L264.061 179.796C265.773 178.8 268.072 177.701 268.557 176.705C267.101 176.118 264.113 177.906 262.58 179.106L237.061 179.208C235.12 177.906 232.182 176.117 230.905 176.117Z" fill="#BA0019"/>
</g>
<mask id="mask149_468_29396" style="mask-type:luminance" maskUnits="userSpaceOnUse" x="-179" y="0" width="858" height="500">
<path d="M678.336 0H-179V500H678.336V0Z" fill="white"/>
</mask>
<g mask="url(#mask149_468_29396)">
<path d="M258.518 167.434L258.569 160.64C258.569 160.64 261.634 159.133 261.251 157.345C260.791 155.735 257.061 159.644 257.061 159.644H242.246C242.246 159.644 238.516 155.761 238.108 157.345C237.724 159.133 240.764 160.64 240.764 160.64L240.815 166.515L258.518 167.434Z" fill="white"/>
</g>
<mask id="mask150_468_29396" style="mask-type:luminance" maskUnits="userSpaceOnUse" x="-179" y="0" width="858" height="500">
<path d="M678.336 0H-179V500H678.336V0Z" fill="white"/>
</mask>
<g mask="url(#mask150_468_29396)">
<path d="M259.132 168.135L240.766 167.241L240.102 160.753C240.102 161.059 236.96 159.348 237.445 157.253L237.599 156.742L238.595 156.333C239.923 156.333 241.992 158.53 242.682 159.118L257.038 158.913C257.293 158.504 259.362 156.308 260.691 156.308H261.202L261.789 157.202C262.325 159.399 259.209 160.982 258.852 161.187L259.132 167.369V168.135ZM238.595 157.662C238.442 158.556 240.204 159.858 240.996 160.063L241.431 166.551L257.855 166.857L257.907 160.675C259.133 159.781 260.818 158.582 260.563 157.585C260.18 157.687 258.622 158.888 257.472 159.884L242.197 160.088C240.613 158.862 239.131 157.662 238.595 157.662Z" fill="#BA0019"/>
</g>
<mask id="mask151_468_29396" style="mask-type:luminance" maskUnits="userSpaceOnUse" x="-179" y="0" width="858" height="500">
<path d="M678.336 0H-179V500H678.336V0Z" fill="white"/>
</mask>
<g mask="url(#mask151_468_29396)">
<path d="M260.256 172.135L260.307 166.26C260.307 166.26 264.036 164.651 263.5 162.965C263.04 161.177 258.57 165.059 258.57 165.059H240.74C240.74 165.059 236.27 161.177 235.785 162.965C235.274 164.651 238.978 166.26 238.978 166.26L239.08 172.135H260.256Z" fill="white"/>
</g>
<mask id="mask152_468_29396" style="mask-type:luminance" maskUnits="userSpaceOnUse" x="-179" y="0" width="858" height="500">
<path d="M678.336 0H-179V500H678.336V0Z" fill="white"/>
</mask>
<g mask="url(#mask152_468_29396)">
<path d="M260.845 172.729H239.03L238.341 166.241C238.009 166.241 234.535 164.938 235.148 162.741L235.301 162.332L236.399 161.822C237.906 161.822 240.588 164.121 241.15 164.606L258.572 164.402C258.674 164.095 261.432 161.796 262.939 161.796H263.399L264.166 162.69C264.779 164.887 261.305 166.394 260.59 166.675L260.871 172.065V172.729H260.845ZM236.399 163.15C236.118 163.84 237.906 165.04 239.209 165.653L239.669 172.141L259.619 171.452L259.67 166.267C261.407 165.066 263.118 163.865 262.914 163.176C262.097 163.176 260.155 164.58 258.955 165.577L240.716 165.679C239.184 164.555 237.191 163.15 236.399 163.15Z" fill="#BA0019"/>
</g>
<mask id="mask153_468_29396" style="mask-type:luminance" maskUnits="userSpaceOnUse" x="-179" y="0" width="858" height="500">
<path d="M678.336 0H-179V500H678.336V0Z" fill="white"/>
</mask>
<g mask="url(#mask153_468_29396)">
<path d="M244.008 172.434L240.713 168.73C241.837 167.734 243.804 169.42 243.804 169.42C243.804 169.42 244.953 165.128 249.653 163.442C254.379 165.128 255.452 169.42 255.452 169.42C255.452 169.42 257.495 167.734 258.619 168.73L255.324 172.434H244.008Z" fill="white"/>
</g>
<mask id="mask154_468_29396" style="mask-type:luminance" maskUnits="userSpaceOnUse" x="-179" y="0" width="858" height="500">
<path d="M678.336 0H-179V500H678.336V0Z" fill="white"/>
</mask>
<g mask="url(#mask154_468_29396)">
<path d="M255.53 173.037H244.009L239.31 168.056L241.557 167.749C242.273 167.749 243.039 168.158 243.498 168.439C244.112 167.034 245.721 164.148 249.45 162.743C253.486 164.148 255.198 167.034 255.785 168.439C256.296 168.133 257.037 167.749 257.727 167.749L259.004 168.261L255.53 173.037ZM241.557 169.052L244.469 172.041L254.994 171.734L258.084 168.337C257.037 169.027 256.117 169.742 255.836 169.946L255.07 170.534L254.84 169.64C254.789 169.435 253.767 165.553 249.425 163.944C245.568 165.553 244.52 169.435 244.469 169.64L244.188 170.534L243.473 169.946C243.141 169.742 242.222 169.052 241.557 169.052Z" fill="#BA0019"/>
</g>
<mask id="mask155_468_29396" style="mask-type:luminance" maskUnits="userSpaceOnUse" x="-179" y="0" width="858" height="500">
<path d="M678.336 0H-179V500H678.336V0Z" fill="white"/>
</mask>
<g mask="url(#mask155_468_29396)">
<path d="M241.738 178.42L237.114 174.818C238.672 173.822 241.533 175.406 241.533 175.406C241.533 175.406 243.066 171.115 249.631 169.429C256.196 171.115 257.729 175.406 257.729 175.406C257.729 175.406 260.589 173.797 262.122 174.818L257.499 178.42H241.738Z" fill="white"/>
</g>
<mask id="mask156_468_29396" style="mask-type:luminance" maskUnits="userSpaceOnUse" x="-179" y="0" width="858" height="500">
<path d="M678.336 0H-179V500H678.336V0Z" fill="white"/>
</mask>
<g mask="url(#mask156_468_29396)">
<path d="M257.749 179.124H241.733L236.752 175.241C237.237 173.939 237.774 173.837 238.361 173.837C239.69 173.837 241.197 174.526 241.656 174.833C241.427 174.143 243.393 170.439 249.498 168.855C255.501 170.363 257.621 173.735 258.209 174.935C258.592 174.143 261.249 173.428 262.526 174.245L257.749 179.124ZM238.591 175.241L242.142 177.924L257.315 177.822L260.738 175.216C259.512 175.216 258.107 176.008 258.107 176.008C257.162 175.497 255.654 171.615 249.498 170.031C243.649 171.64 242.219 175.523 242.167 175.727C241.273 176.034 239.817 175.241 238.591 175.241Z" fill="#BA0019"/>
</g>
<mask id="mask157_468_29396" style="mask-type:luminance" maskUnits="userSpaceOnUse" x="-179" y="0" width="858" height="500">
<path d="M678.336 0H-179V500H678.336V0Z" fill="white"/>
</mask>
<g mask="url(#mask157_468_29396)">
<path d="M240.586 188.994L235.35 184.116C237.112 182.813 240.356 185.009 240.356 185.009C240.356 185.009 242.119 179.313 249.629 176.938C257.164 179.339 258.876 185.009 258.876 185.009C258.876 185.009 262.145 182.813 263.934 184.116L258.621 188.994H240.586Z" fill="white"/>
</g>
<mask id="mask158_468_29396" style="mask-type:luminance" maskUnits="userSpaceOnUse" x="-179" y="0" width="858" height="500">
<path d="M678.336 0H-179V500H678.336V0Z" fill="white"/>
</mask>
<g mask="url(#mask158_468_29396)">
<path d="M258.904 189.697H240.588L234.943 184.511C235.454 183.208 236.042 183.004 236.68 183.004C238.289 183.004 239.975 184.103 240.537 184.307C240.205 183.617 242.377 178.611 249.401 176.414C256.349 178.407 258.725 183.004 259.338 184.307C259.772 183.617 262.863 182.519 264.294 183.617L258.904 189.697ZM236.706 184.307C236.297 184.307 236.016 184.409 235.735 184.613L241.048 188.598L258.418 188.394L262.812 184.307C261.688 184.307 259.849 185.201 259.261 185.61C258.316 185.201 256.554 179.811 249.427 177.537C242.785 179.836 240.997 185.227 240.997 185.227C240.001 185.61 238.187 184.307 236.706 184.307Z" fill="#BA0019"/>
</g>
<mask id="mask159_468_29396" style="mask-type:luminance" maskUnits="userSpaceOnUse" x="-179" y="0" width="858" height="500">
<path d="M678.336 0H-179V500H678.336V0Z" fill="white"/>
</mask>
<g mask="url(#mask159_468_29396)">
<path d="M238.366 202.064L231.826 195.882C233.997 194.273 238.034 197.083 238.034 197.083C238.034 197.083 240.256 189.905 249.656 186.916C259.031 189.905 261.278 197.083 261.278 197.083C261.278 197.083 265.289 194.299 267.511 195.882L260.895 202.064H238.366Z" fill="white"/>
</g>
<mask id="mask160_468_29396" style="mask-type:luminance" maskUnits="userSpaceOnUse" x="-179" y="0" width="858" height="500">
<path d="M678.336 0H-179V500H678.336V0Z" fill="white"/>
</mask>
<g mask="url(#mask160_468_29396)">
<path d="M261.2 202.664H238.338L231.339 196.278C231.977 194.873 232.667 194.669 233.485 194.669C235.477 194.669 237.725 195.972 238.287 196.355C237.904 195.665 240.535 189.177 249.45 186.367C258.288 188.973 261.123 194.848 261.736 196.457C262.12 195.563 266.002 193.954 267.892 195.358L261.2 202.664ZM233.485 195.972C232.948 195.972 232.488 196.074 232.182 196.38L238.772 201.566L260.664 201.362L266.462 195.87C266.283 195.972 266.028 195.972 265.824 195.972C263.933 195.972 261.583 197.479 261.583 197.581C260.638 197.172 258.416 190.403 249.45 187.593C240.918 190.378 238.696 197.172 238.696 197.172C237.7 197.479 235.4 195.972 233.485 195.972Z" fill="#BA0019"/>
</g>
<mask id="mask161_468_29396" style="mask-type:luminance" maskUnits="userSpaceOnUse" x="-179" y="0" width="858" height="500">
<path d="M678.336 0H-179V500H678.336V0Z" fill="white"/>
</mask>
<g mask="url(#mask161_468_29396)">
<path d="M236.752 212.659L249.269 228.318L262.551 212.659H236.752Z" fill="white"/>
</g>
<mask id="mask162_468_29396" style="mask-type:luminance" maskUnits="userSpaceOnUse" x="-179" y="0" width="858" height="500">
<path d="M678.336 0H-179V500H678.336V0Z" fill="white"/>
</mask>
<g mask="url(#mask162_468_29396)">
<path d="M249.244 229.301L235.399 212.136H263.907L249.244 229.301ZM238.082 213.438L249.296 227.309L261.225 213.438H238.082Z" fill="#BA0019"/>
</g>
<mask id="mask163_468_29396" style="mask-type:luminance" maskUnits="userSpaceOnUse" x="-179" y="0" width="858" height="500">
<path d="M678.336 0H-179V500H678.336V0Z" fill="white"/>
</mask>
<g mask="url(#mask163_468_29396)">
<path d="M236.141 214.552L228.196 207.579C230.853 205.79 235.732 208.881 235.732 208.881C235.732 208.881 238.363 200.988 249.654 197.692C260.893 200.988 263.549 208.881 263.549 208.881C263.549 208.881 268.479 205.79 271.085 207.579L263.166 214.552H236.141Z" fill="white"/>
</g>
<mask id="mask164_468_29396" style="mask-type:luminance" maskUnits="userSpaceOnUse" x="-179" y="0" width="858" height="500">
<path d="M678.336 0H-179V500H678.336V0Z" fill="white"/>
</mask>
<g mask="url(#mask164_468_29396)">
<path d="M263.398 215.128H236.143L227.815 208.052C228.531 206.647 229.374 206.366 230.293 206.366C232.745 206.366 235.428 207.975 236.041 208.358C235.555 207.464 238.646 200.185 249.502 197.094C260.18 200.082 263.424 206.877 264.063 208.358C264.42 207.464 269.223 205.472 271.445 207.056L263.398 215.128ZM230.268 207.643C229.578 207.643 228.965 207.745 228.582 208.154L236.526 214.029L262.964 213.825L270.04 207.541C269.784 207.643 269.478 207.643 268.992 207.643C266.668 207.643 263.909 209.432 263.909 209.432C262.913 208.921 260.257 201.359 249.477 198.243C239.055 201.334 236.347 208.92 236.347 209.022C235.3 209.457 232.567 207.643 230.268 207.643Z" fill="#BA0019"/>
</g>
<mask id="mask165_468_29396" style="mask-type:luminance" maskUnits="userSpaceOnUse" x="-179" y="0" width="858" height="500">
<path d="M678.336 0H-179V500H678.336V0Z" fill="white"/>
</mask>
<g mask="url(#mask165_468_29396)">
<path d="M235.68 229.896L249.244 249.565L263.65 229.896H235.68Z" fill="white"/>
</g>
<mask id="mask166_468_29396" style="mask-type:luminance" maskUnits="userSpaceOnUse" x="-179" y="0" width="858" height="500">
<path d="M678.336 0H-179V500H678.336V0Z" fill="white"/>
</mask>
<g mask="url(#mask166_468_29396)">
<path d="M249.247 250.551L234.457 229.298H264.855L249.247 250.551ZM236.858 230.6L249.247 248.456L262.377 230.6H236.858Z" fill="#BA0019"/>
</g>
<mask id="mask167_468_29396" style="mask-type:luminance" maskUnits="userSpaceOnUse" x="-179" y="0" width="858" height="500">
<path d="M678.336 0H-179V500H678.336V0Z" fill="white"/>
</mask>
<g mask="url(#mask167_468_29396)">
<path d="M235.02 232.089L226.438 223.404C229.324 221.208 234.586 225.09 234.586 225.09C234.586 225.09 237.447 215.102 249.657 210.913C261.867 215.102 264.754 225.09 264.754 225.09C264.754 225.09 270.016 221.208 272.877 223.404L264.319 232.089H235.02Z" fill="white"/>
</g>
<mask id="mask168_468_29396" style="mask-type:luminance" maskUnits="userSpaceOnUse" x="-179" y="0" width="858" height="500">
<path d="M678.336 0H-179V500H678.336V0Z" fill="white"/>
</mask>
<g mask="url(#mask168_468_29396)">
<path d="M264.547 232.718H235.018L226.001 223.931C226.742 222.322 227.636 222.04 228.632 222.04C230.752 222.04 233.153 223.343 234.226 224.135C235.223 221.53 238.977 213.866 249.45 210.265C260.281 213.866 264.062 221.53 265.058 224.135C266.744 223.037 271.086 221.351 273.258 222.935L264.547 232.718ZM228.632 223.343C227.942 223.343 227.304 223.548 226.844 224.033L235.478 231.722L264.062 231.517L272.21 223.139C271.827 223.548 271.316 223.343 270.652 223.343C268.098 223.343 265.083 225.54 265.083 225.54L264.368 226.128L264.138 225.336C264.087 225.233 261.201 215.552 249.425 211.465C238.135 215.552 235.146 225.233 235.146 225.336L234.942 226.128L234.201 225.54C234.15 225.514 231.161 223.343 228.632 223.343Z" fill="#BA0019"/>
</g>
<mask id="mask169_468_29396" style="mask-type:luminance" maskUnits="userSpaceOnUse" x="-179" y="0" width="858" height="500">
<path d="M678.336 0H-179V500H678.336V0Z" fill="white"/>
</mask>
<g mask="url(#mask169_468_29396)">
<path d="M235.02 249.578L226.438 240.893C229.324 238.594 234.586 242.502 234.586 242.502C234.586 242.502 237.447 232.617 249.657 228.325C261.867 232.617 264.754 242.502 264.754 242.502C264.754 242.502 270.016 238.62 272.877 240.893L264.319 249.578H235.02Z" fill="white"/>
</g>
<mask id="mask170_468_29396" style="mask-type:luminance" maskUnits="userSpaceOnUse" x="-179" y="0" width="858" height="500">
<path d="M678.336 0H-179V500H678.336V0Z" fill="white"/>
</mask>
<g mask="url(#mask170_468_29396)">
<path d="M264.547 250.053H235.018L226.001 241.266C226.742 239.759 227.636 239.58 228.632 239.58C230.803 239.58 233.153 240.781 234.226 241.47C235.223 238.967 238.977 231.38 249.45 227.702C260.281 231.406 264.062 238.967 265.058 241.47C266.693 240.474 271.086 238.584 273.258 240.372L264.547 250.053ZM228.632 240.781C227.942 240.781 227.304 240.985 226.844 241.368L235.478 249.159L264.062 248.853L272.21 240.678C271.827 240.883 271.316 240.781 270.652 240.781C268.098 240.781 265.083 242.977 265.083 243.079L264.368 243.488L264.138 242.697C264.087 242.594 261.201 233.015 249.425 228.928C238.084 233.015 235.146 242.594 235.146 242.697L234.942 243.488L234.201 243.079C234.15 242.977 231.161 240.781 228.632 240.781Z" fill="#BA0019"/>
</g>
<mask id="mask171_468_29396" style="mask-type:luminance" maskUnits="userSpaceOnUse" x="-179" y="0" width="858" height="500">
<path d="M678.336 0H-179V500H678.336V0Z" fill="white"/>
</mask>
<g mask="url(#mask171_468_29396)">
<path d="M168.524 273.602H162.24V300.831H168.524V273.602Z" fill="white"/>
</g>
<mask id="mask172_468_29396" style="mask-type:luminance" maskUnits="userSpaceOnUse" x="-179" y="0" width="858" height="500">
<path d="M678.336 0H-179V500H678.336V0Z" fill="white"/>
</mask>
<g mask="url(#mask172_468_29396)">
<path d="M169.164 301.458H162.267L161.654 273.615L168.551 273.027L169.164 301.458ZM167.887 273.615L162.242 274.305L162.881 300.845L167.861 300.258V273.615H167.887Z" fill="#BA0019"/>
</g>
<mask id="mask173_468_29396" style="mask-type:luminance" maskUnits="userSpaceOnUse" x="-179" y="0" width="858" height="500">
<path d="M678.336 0H-179V500H678.336V0Z" fill="white"/>
</mask>
<g mask="url(#mask173_468_29396)">
<path d="M189.96 273.602H183.65V300.831H189.96V273.602Z" fill="white"/>
</g>
<mask id="mask174_468_29396" style="mask-type:luminance" maskUnits="userSpaceOnUse" x="-179" y="0" width="858" height="500">
<path d="M678.336 0H-179V500H678.336V0Z" fill="white"/>
</mask>
<g mask="url(#mask174_468_29396)">
<path d="M190.62 301.458H183.647L183.008 273.615L189.956 273.027L190.62 301.458ZM189.368 273.615L183.647 274.305L184.285 300.845L189.343 300.155V273.615H189.368Z" fill="#BA0019"/>
</g>
<mask id="mask175_468_29396" style="mask-type:luminance" maskUnits="userSpaceOnUse" x="-179" y="0" width="858" height="500">
<path d="M678.336 0H-179V500H678.336V0Z" fill="white"/>
</mask>
<g mask="url(#mask175_468_29396)">
<path d="M179.868 273.602H173.584V300.831H179.868V273.602Z" fill="white"/>
</g>
<mask id="mask176_468_29396" style="mask-type:luminance" maskUnits="userSpaceOnUse" x="-179" y="0" width="858" height="500">
<path d="M678.336 0H-179V500H678.336V0Z" fill="white"/>
</mask>
<g mask="url(#mask176_468_29396)">
<path d="M180.509 301.458H173.586L172.974 273.615L179.87 273.027L180.509 301.458ZM179.232 273.615L173.586 274.305L174.225 300.845L179.206 300.155V273.615H179.232Z" fill="#BA0019"/>
</g>
<mask id="mask177_468_29396" style="mask-type:luminance" maskUnits="userSpaceOnUse" x="-179" y="0" width="858" height="500">
<path d="M678.336 0H-179V500H678.336V0Z" fill="white"/>
</mask>
<g mask="url(#mask177_468_29396)">
<path d="M294.329 273.602H288.071V300.831H294.329V273.602Z" fill="white"/>
</g>
<mask id="mask178_468_29396" style="mask-type:luminance" maskUnits="userSpaceOnUse" x="-179" y="0" width="858" height="500">
<path d="M678.336 0H-179V500H678.336V0Z" fill="white"/>
</mask>
<g mask="url(#mask178_468_29396)">
<path d="M294.971 301.458H288.074L287.436 273.615L294.358 273.027L294.971 301.458ZM293.719 273.615L288.074 274.305L288.687 300.845L293.694 300.258L293.719 273.615Z" fill="#BA0019"/>
</g>
<mask id="mask179_468_29396" style="mask-type:luminance" maskUnits="userSpaceOnUse" x="-179" y="0" width="858" height="500">
<path d="M678.336 0H-179V500H678.336V0Z" fill="white"/>
</mask>
<g mask="url(#mask179_468_29396)">
<path d="M337.193 273.602H330.884V300.831H337.193V273.602Z" fill="white"/>
</g>
<mask id="mask180_468_29396" style="mask-type:luminance" maskUnits="userSpaceOnUse" x="-179" y="0" width="858" height="500">
<path d="M678.336 0H-179V500H678.336V0Z" fill="white"/>
</mask>
<g mask="url(#mask180_468_29396)">
<path d="M337.835 301.458H330.886L330.248 273.615L337.196 273.027L337.835 301.458ZM336.557 273.615L330.861 274.305L331.474 300.845L336.532 300.155L336.557 273.615Z" fill="#BA0019"/>
</g>
<mask id="mask181_468_29396" style="mask-type:luminance" maskUnits="userSpaceOnUse" x="-179" y="0" width="858" height="500">
<path d="M678.336 0H-179V500H678.336V0Z" fill="white"/>
</mask>
<g mask="url(#mask181_468_29396)">
<path d="M315.817 273.602H309.456V300.831H315.817V273.602Z" fill="white"/>
</g>
<mask id="mask182_468_29396" style="mask-type:luminance" maskUnits="userSpaceOnUse" x="-179" y="0" width="858" height="500">
<path d="M678.336 0H-179V500H678.336V0Z" fill="white"/>
</mask>
<g mask="url(#mask182_468_29396)">
<path d="M316.374 301.458H309.451L308.838 273.615L315.812 273.027L316.374 301.458ZM315.096 273.615L309.426 274.305L310.064 300.845L315.071 300.155V273.615H315.096Z" fill="#BA0019"/>
</g>
<mask id="mask183_468_29396" style="mask-type:luminance" maskUnits="userSpaceOnUse" x="-179" y="0" width="858" height="500">
<path d="M678.336 0H-179V500H678.336V0Z" fill="white"/>
</mask>
<g mask="url(#mask183_468_29396)">
<path d="M305.673 273.602H299.415V300.831H305.673V273.602Z" fill="white"/>
</g>
<mask id="mask184_468_29396" style="mask-type:luminance" maskUnits="userSpaceOnUse" x="-179" y="0" width="858" height="500">
<path d="M678.336 0H-179V500H678.336V0Z" fill="white"/>
</mask>
<g mask="url(#mask184_468_29396)">
<path d="M306.313 301.458H299.442L298.804 273.615L305.701 273.027L306.313 301.458ZM305.037 273.615L299.417 274.305L300.03 300.845L305.011 300.155V273.615H305.037Z" fill="#BA0019"/>
</g>
<mask id="mask185_468_29396" style="mask-type:luminance" maskUnits="userSpaceOnUse" x="-179" y="0" width="858" height="500">
<path d="M678.336 0H-179V500H678.336V0Z" fill="white"/>
</mask>
<g mask="url(#mask185_468_29396)">
<path d="M325.856 273.602H319.521V300.831H325.856V273.602Z" fill="white"/>
</g>
<mask id="mask186_468_29396" style="mask-type:luminance" maskUnits="userSpaceOnUse" x="-179" y="0" width="858" height="500">
<path d="M678.336 0H-179V500H678.336V0Z" fill="white"/>
</mask>
<g mask="url(#mask186_468_29396)">
<path d="M326.515 301.458H319.541L318.954 273.615L325.876 273.027L326.515 301.458ZM325.212 273.615L319.516 274.305L320.155 300.845L325.187 300.155L325.212 273.615Z" fill="#BA0019"/>
</g>
<mask id="mask187_468_29396" style="mask-type:luminance" maskUnits="userSpaceOnUse" x="-179" y="0" width="858" height="500">
<path d="M678.336 0H-179V500H678.336V0Z" fill="white"/>
</mask>
<g mask="url(#mask187_468_29396)">
<path d="M211.388 273.602H205.078V300.831H211.388V273.602Z" fill="white"/>
</g>
<mask id="mask188_468_29396" style="mask-type:luminance" maskUnits="userSpaceOnUse" x="-179" y="0" width="858" height="500">
<path d="M678.336 0H-179V500H678.336V0Z" fill="white"/>
</mask>
<g mask="url(#mask188_468_29396)">
<path d="M212.028 301.458H205.08L204.492 273.615L211.415 273.027L212.028 301.458ZM210.75 273.615L205.054 274.305L205.667 300.845L210.725 300.258L210.75 273.615Z" fill="#BA0019"/>
</g>
<mask id="mask189_468_29396" style="mask-type:luminance" maskUnits="userSpaceOnUse" x="-179" y="0" width="858" height="500">
<path d="M678.336 0H-179V500H678.336V0Z" fill="white"/>
</mask>
<g mask="url(#mask189_468_29396)">
<path d="M200.024 273.602H193.715V300.831H200.024V273.602Z" fill="white"/>
</g>
<mask id="mask190_468_29396" style="mask-type:luminance" maskUnits="userSpaceOnUse" x="-179" y="0" width="858" height="500">
<path d="M678.336 0H-179V500H678.336V0Z" fill="white"/>
</mask>
<g mask="url(#mask190_468_29396)">
<path d="M200.685 301.458H193.712L193.073 273.615L200.021 273.027L200.685 301.458ZM199.408 273.615L193.712 274.305L194.325 300.845L199.383 300.155L199.408 273.615Z" fill="#BA0019"/>
</g>
<mask id="mask191_468_29396" style="mask-type:luminance" maskUnits="userSpaceOnUse" x="-179" y="0" width="858" height="500">
<path d="M678.336 0H-179V500H678.336V0Z" fill="white"/>
</mask>
<g mask="url(#mask191_468_29396)">
<path d="M256.117 149.373H243.063V154.354H256.117V149.373Z" fill="white"/>
</g>
<mask id="mask192_468_29396" style="mask-type:luminance" maskUnits="userSpaceOnUse" x="-179" y="0" width="858" height="500">
<path d="M678.336 0H-179V500H678.336V0Z" fill="white"/>
</mask>
<g mask="url(#mask192_468_29396)">
<path d="M256.809 154.882H243.066L242.428 149.39L256.119 148.7L256.809 154.882ZM255.481 149.39L243.066 149.978L243.679 154.371L255.481 153.784V149.39Z" fill="#BA0019"/>
</g>
<mask id="mask193_468_29396" style="mask-type:luminance" maskUnits="userSpaceOnUse" x="-179" y="0" width="858" height="500">
<path d="M678.336 0H-179V500H678.336V0Z" fill="white"/>
</mask>
<g mask="url(#mask193_468_29396)">
<path d="M254.434 144.509H244.778V149.312H254.434V144.509Z" fill="white"/>
</g>
<mask id="mask194_468_29396" style="mask-type:luminance" maskUnits="userSpaceOnUse" x="-179" y="0" width="858" height="500">
<path d="M678.336 0H-179V500H678.336V0Z" fill="white"/>
</mask>
<g mask="url(#mask194_468_29396)">
<path d="M255.069 149.888H244.8L244.161 144.499L254.455 143.81L255.069 149.888ZM253.791 144.499L244.774 145.086L245.413 149.276L253.766 148.688L253.791 144.499Z" fill="#BA0019"/>
</g>
</g>
</g>
<defs>
<clipPath id="clip0_468_29396">
<rect width="500" height="500" fill="white"/>
</clipPath>
</defs>
</svg>
