<svg width="500" height="500" viewBox="0 0 500 500" fill="none" xmlns="http://www.w3.org/2000/svg">
<g clip-path="url(#clip0_468_22464)">
<path d="M828.073 0H253.74V250.113H828.073V0Z" fill="#F4F4F4"/>
<path d="M253.74 250.114V0H-28V250.113L253.74 250.114ZM154.179 192.804L111.812 162.022L69.443 192.804L85.6267 142.998L43.2581 112.216H95.628L111.812 62.4102L127.994 112.216H180.364L137.996 142.998L154.179 192.804Z" fill="#1F429A"/>
<path d="M-28 250.114V500H828.074V250.114H253.74H-28Z" fill="#D32D27"/>
<path d="M127.994 112.217L111.811 62.4092L95.6277 112.217H43.2578L85.6264 142.998L69.4428 192.804L111.811 162.023L154.179 192.804L137.996 142.998L180.363 112.217H127.994Z" fill="#F7F8F9"/>
</g>
<defs>
<clipPath id="clip0_468_22464">
<rect width="500" height="500" fill="white"/>
</clipPath>
</defs>
</svg>
