<svg width="500" height="500" viewBox="0 0 500 500" fill="none" xmlns="http://www.w3.org/2000/svg">
<g clip-path="url(#clip0_670_306)">
<mask id="mask0_670_306" style="mask-type:luminance" maskUnits="userSpaceOnUse" x="-179" y="0" width="858" height="500">
<path d="M678.161 0H-179V500H678.161V0Z" fill="white"/>
</mask>
<g mask="url(#mask0_670_306)">
<path d="M678.161 0H-179V500H678.161V0Z" fill="white"/>
</g>
<mask id="mask1_670_306" style="mask-type:luminance" maskUnits="userSpaceOnUse" x="-179" y="0" width="858" height="500">
<path d="M678.161 0H-179V500H678.161V0Z" fill="white"/>
</mask>
<g mask="url(#mask1_670_306)">
<path d="M678.161 0H-179V166.692H678.161V0Z" fill="#F0953E"/>
</g>
<mask id="mask2_670_306" style="mask-type:luminance" maskUnits="userSpaceOnUse" x="-179" y="0" width="858" height="500">
<path d="M678.161 0H-179V500H678.161V0Z" fill="white"/>
</mask>
<g mask="url(#mask2_670_306)">
<path d="M678.161 333.385H-179V499.974H678.161V333.385Z" fill="#3B8916"/>
</g>
<mask id="mask3_670_306" style="mask-type:luminance" maskUnits="userSpaceOnUse" x="-179" y="0" width="858" height="500">
<path d="M678.161 0H-179V500H678.161V0Z" fill="white"/>
</mask>
<g mask="url(#mask3_670_306)">
<mask id="mask4_670_306" style="mask-type:luminance" maskUnits="userSpaceOnUse" x="-179" y="0" width="858" height="500">
<path d="M678.161 0H-179V500H678.161V0Z" fill="white"/>
</mask>
<g mask="url(#mask4_670_306)">
<path d="M249.568 175.069C208.169 175.069 174.535 208.602 174.535 250C174.535 291.399 208.144 325.034 249.568 325.034C290.992 325.034 324.601 291.424 324.601 250C324.55 208.602 290.966 175.069 249.568 175.069ZM249.516 182.348L247.627 220.069L249.669 241.521L251.56 220.069L249.669 182.348C251.661 182.348 253.552 182.45 255.468 182.654C255.468 182.756 255.365 182.756 255.365 182.859C255.365 184.646 256.769 186.153 258.454 186.153C260.063 186.153 261.341 184.85 261.494 183.369C263.384 183.778 265.197 184.059 267.035 184.672L255.468 220.579L251.764 241.828L259.246 221.473L267.241 184.672C269.029 185.26 270.842 185.77 272.63 186.459C272.528 186.766 272.374 187.149 272.374 187.557C272.374 189.243 273.778 190.648 275.515 190.648C276.715 190.648 277.916 189.857 278.351 188.758C280.036 189.55 281.695 190.444 283.381 191.44L262.874 222.955L253.808 242.697L266.322 225.049L283.535 191.516C285.093 192.41 286.676 193.406 288.285 194.402C287.825 194.989 287.596 195.602 287.596 196.394C287.596 198.08 289 199.484 290.737 199.484C291.733 199.484 292.627 199.076 293.188 198.182C294.695 199.484 296.074 200.787 297.377 202.064L269.437 227.296L255.621 243.947L272.22 230.182L297.505 202.14C298.807 203.545 300.108 204.822 301.283 206.329C300.543 206.916 300.186 207.836 300.186 208.729C300.186 210.415 301.591 211.82 303.225 211.82C303.966 211.82 304.527 211.615 305.063 211.232C306.212 212.841 307.209 214.425 308.103 216.034L274.571 233.196L256.922 245.761L276.536 236.771L308.204 216.11C309.251 217.898 310.095 219.813 310.938 221.397C309.891 221.907 309.047 223.082 309.047 224.385C309.047 226.07 310.452 227.475 312.087 227.475C312.572 227.475 312.93 227.373 313.287 227.169C313.9 228.957 314.436 230.668 314.896 232.455L278.043 240.245L257.842 247.727L279.091 244.127L314.999 232.66C315.458 234.269 315.891 236.261 316.249 238.048C314.691 238.253 313.543 239.453 313.543 241.139C313.543 242.824 314.998 244.229 316.684 244.229C316.786 244.229 316.889 244.229 316.991 244.229C317.195 246.017 317.195 248.008 317.195 249.822L279.576 248.034L258.021 249.924L279.576 252.018L317.195 250.026C317.195 252.018 317.195 253.908 316.991 255.721C316.889 255.721 316.786 255.721 316.684 255.721C314.998 255.721 313.543 257.228 313.543 258.811C313.543 260.394 314.692 261.595 316.199 261.901C315.841 263.791 315.458 265.604 314.999 267.392L302.178 263.306L279.091 255.823L257.842 252.222L278.043 259.705L314.896 267.596C314.462 269.384 313.9 271.299 313.211 272.883C313.109 272.883 312.905 272.781 312.802 272.781C312.496 272.781 312.316 272.781 312.112 272.781C310.375 272.781 308.971 274.083 308.971 275.871C308.971 276.382 309.074 276.663 309.278 277.071C309.431 277.582 309.737 277.965 310.12 278.272C310.222 278.272 310.273 278.374 310.375 278.374C310.478 278.476 310.58 278.579 310.683 278.579C310.734 278.579 310.836 278.681 310.887 278.783C310.095 280.468 309.201 282.179 308.231 283.762L276.612 263.306H276.563L256.949 254.316H257.05L267.318 261.493L274.595 266.677L308.128 283.839C307.132 285.525 306.136 287.236 305.038 288.717C304.527 288.41 303.889 288.206 303.25 288.206C301.514 288.206 300.161 289.509 300.161 291.194C300.161 292.191 300.569 293.084 301.31 293.595C300.058 295 298.807 296.379 297.53 297.681L272.246 269.742L255.697 255.976L269.462 272.628L297.402 297.86C296.099 299.264 294.822 300.363 293.366 301.563C292.779 301.053 292.115 300.874 291.425 300.874C289.74 300.874 288.336 302.381 288.336 303.964C288.336 304.551 288.438 304.96 288.592 305.368C286.957 306.364 285.246 307.463 283.611 308.561L266.398 275.028L253.884 257.279L262.925 276.943L283.432 308.663C281.798 309.557 280.137 310.451 278.452 311.268C277.992 310.068 276.894 309.378 275.668 309.378C273.931 309.378 272.527 310.885 272.527 312.469C272.527 312.877 272.629 313.26 272.731 313.669C270.943 314.256 269.181 314.869 267.343 315.277L259.349 278.374L251.865 258.326V258.223L255.569 279.472L267.138 315.38C265.3 315.89 263.461 316.376 261.597 316.58C261.341 315.175 260.064 313.975 258.557 313.975C256.77 313.975 255.468 315.38 255.468 316.963C255.468 317.168 255.468 317.27 255.468 317.372C253.578 317.576 251.687 317.678 249.772 317.678L251.661 280.059L249.669 258.505L247.729 280.059L249.619 317.678C247.627 317.678 245.787 317.576 243.821 317.372C243.821 317.27 243.821 317.168 243.821 316.963C243.821 315.354 242.416 313.975 240.68 313.975C239.173 313.975 237.897 315.175 237.642 316.58C235.803 316.273 234.014 315.89 232.252 315.38L243.821 279.472L247.423 258.326L239.939 278.374L232.047 315.277C230.26 314.869 228.448 314.282 226.609 313.669C226.762 313.26 226.863 312.877 226.863 312.469C226.863 310.86 225.459 309.378 223.825 309.378C222.522 309.378 221.424 310.17 220.888 311.268C219.228 310.477 217.542 309.582 215.908 308.663L236.415 276.943L245.404 257.279L232.942 274.926L215.78 308.535C214.146 307.437 212.485 306.441 210.952 305.343C211.31 304.934 211.54 304.347 211.54 303.658C211.54 301.87 210.135 300.465 208.501 300.465C207.453 300.465 206.611 300.976 206.1 301.666C204.593 300.363 203.214 299.265 201.912 297.885L229.954 272.653L243.719 256.002L227.118 269.768L201.835 297.707C200.431 296.405 199.205 294.923 197.954 293.621C198.643 293.033 199.154 292.114 199.154 291.118C199.154 289.433 197.749 288.13 196.063 288.13C195.374 288.13 194.711 288.334 194.225 288.64C193.127 287.134 192.131 285.551 191.186 283.839L224.794 266.575L242.315 254.316L222.701 263.306L191.083 283.762C190.138 282.153 189.398 280.571 188.53 278.783C189.73 278.374 190.522 277.276 190.522 275.999C190.522 274.211 189.169 272.806 187.381 272.806C186.947 272.806 186.486 272.908 186.078 273.113C185.49 271.427 184.878 269.512 184.341 267.622L221.245 259.731L241.548 252.248L220.198 255.849L184.29 267.418C183.805 265.63 183.448 263.817 183.04 261.825C184.597 261.621 185.721 260.42 185.721 258.837C185.721 257.151 184.315 255.747 182.63 255.747C182.528 255.747 182.375 255.747 182.273 255.747C182.171 253.959 182.017 252.044 182.017 250.052L219.688 252.044L241.191 249.949L219.688 248.059L182.017 249.847C182.017 248.06 182.171 246.067 182.273 244.254C182.477 244.254 182.63 244.254 182.809 244.254C184.494 244.254 185.9 242.951 185.9 241.163C185.9 239.478 184.648 238.278 183.013 238.074C183.422 236.286 183.754 234.293 184.265 232.685L220.173 244.152L241.523 247.753L221.22 240.27L184.316 232.378C184.853 230.488 185.465 228.675 186.053 226.99C186.359 227.092 186.844 227.194 187.202 227.194C188.938 227.194 190.293 225.789 190.293 224.104C190.293 222.801 189.5 221.703 188.453 221.32C189.245 219.533 190.113 217.821 191.058 216.136L222.674 236.797L242.391 245.786L224.794 233.222L191.186 216.059C192.131 214.451 193.177 212.867 194.275 211.181C194.709 211.692 195.476 211.871 196.115 211.871C197.749 211.871 199.206 210.466 199.206 208.781C199.206 207.887 198.694 206.993 198.055 206.277C199.204 204.873 200.456 203.596 201.784 202.191L227.069 230.233L243.719 243.999L229.954 227.347L201.912 202.115C203.316 200.812 204.67 199.51 206.1 198.336C206.585 199.025 207.505 199.536 208.501 199.536C210.237 199.536 211.643 198.131 211.643 196.343C211.643 195.654 211.336 195.041 211.004 194.453C212.613 193.56 214.145 192.461 215.805 191.567L232.967 225.1L245.431 242.671L236.44 223.005L215.933 191.491C217.567 190.495 219.227 189.601 220.862 188.809C221.372 190.009 222.471 190.801 223.748 190.801C225.485 190.801 226.838 189.396 226.838 187.813C226.838 187.302 226.736 186.817 226.634 186.511C228.37 185.821 230.286 185.31 232.074 184.723L240.067 221.525L247.549 241.879L243.899 220.631L232.329 184.723C234.117 184.135 235.93 183.829 237.819 183.42C238.024 184.927 239.327 186.102 240.859 186.102C242.596 186.102 244 184.698 244 182.91C244 182.808 244 182.705 244 182.603C245.737 182.347 247.627 182.348 249.516 182.348Z" fill="#16007E"/>
</g>
<mask id="mask5_670_306" style="mask-type:luminance" maskUnits="userSpaceOnUse" x="-179" y="0" width="858" height="500">
<path d="M678.161 0H-179V500H678.161V0Z" fill="white"/>
</mask>
<g mask="url(#mask5_670_306)">
<path d="M249.669 238.814C255.85 238.814 260.856 243.896 260.856 250C260.856 256.181 255.875 261.263 249.669 261.263C243.387 261.263 238.407 256.181 238.407 250C238.407 243.896 243.387 238.814 249.669 238.814Z" fill="white"/>
</g>
<mask id="mask6_670_306" style="mask-type:luminance" maskUnits="userSpaceOnUse" x="-179" y="0" width="858" height="500">
<path d="M678.161 0H-179V500H678.161V0Z" fill="white"/>
</mask>
<g mask="url(#mask6_670_306)">
<path d="M249.669 241.419C254.419 241.419 258.302 245.199 258.302 250C258.302 254.878 254.419 258.785 249.669 258.785C244.842 258.785 240.884 254.903 240.884 250C240.909 245.199 244.842 241.419 249.669 241.419Z" fill="#16007E"/>
</g>
</g>
</g>
<defs>
<clipPath id="clip0_670_306">
<rect width="500" height="500" fill="white"/>
</clipPath>
</defs>
</svg>
