<svg width="500" height="500" viewBox="0 0 500 500" fill="none" xmlns="http://www.w3.org/2000/svg">
<g clip-path="url(#clip0_468_29205)">
<mask id="mask0_468_29205" style="mask-type:luminance" maskUnits="userSpaceOnUse" x="-178" y="0" width="857" height="500">
<path d="M678.987 0H-178V500H678.987V0Z" fill="white"/>
</mask>
<g mask="url(#mask0_468_29205)">
<path d="M678.987 0H-178V500H678.987V0Z" fill="white"/>
</g>
<mask id="mask1_468_29205" style="mask-type:luminance" maskUnits="userSpaceOnUse" x="-178" y="0" width="857" height="500">
<path d="M678.987 0H-178V500H678.987V0Z" fill="white"/>
</mask>
<g mask="url(#mask1_468_29205)">
<path d="M678.987 0H-178V150.01H678.987V0Z" fill="black"/>
</g>
<mask id="mask2_468_29205" style="mask-type:luminance" maskUnits="userSpaceOnUse" x="-178" y="0" width="857" height="500">
<path d="M678.987 0H-178V500H678.987V0Z" fill="white"/>
</mask>
<g mask="url(#mask2_468_29205)">
<path d="M678.987 349.991H-178V500.002H678.987V349.991Z" fill="#2A680B"/>
</g>
<mask id="mask3_468_29205" style="mask-type:luminance" maskUnits="userSpaceOnUse" x="-178" y="0" width="857" height="500">
<path d="M678.987 0H-178V500H678.987V0Z" fill="white"/>
</mask>
<g mask="url(#mask3_468_29205)">
<mask id="mask4_468_29205" style="mask-type:luminance" maskUnits="userSpaceOnUse" x="-178" y="0" width="857" height="500">
<path d="M678.987 0H-178V500H678.987V0Z" fill="white"/>
</mask>
<g mask="url(#mask4_468_29205)">
<path d="M157.566 398.464L163.005 401.553L308.777 148.821C317.356 146.523 322.003 138.351 326.676 130.257C329.765 124.869 342.278 103.243 347.716 75.105C326.064 93.7701 313.603 115.601 310.412 120.886C305.765 128.955 301.092 137.152 303.441 145.63L157.566 398.464Z" fill="black"/>
</g>
<mask id="mask5_468_29205" style="mask-type:luminance" maskUnits="userSpaceOnUse" x="-178" y="0" width="857" height="500">
<path d="M678.987 0H-178V500H678.987V0Z" fill="white"/>
</mask>
<g mask="url(#mask5_468_29205)">
<path d="M163.1 402.149L157.304 398.753L303.025 145.406C300.625 137.133 305.425 128.657 310.046 120.767C323.017 98.323 337.521 83.3596 347.402 74.7803C345.615 87.9557 339.972 107.999 327.052 130.444C322.354 138.512 317.579 146.812 308.846 149.084L163.1 402.149ZM347.274 74.9844C338.057 83.8702 323.631 98.7321 310.813 121.074C306.217 128.964 301.544 137.236 303.842 145.509L157.916 398.753L162.794 401.05L308.413 148.598C317.043 146.096 321.767 137.925 326.312 130.035C339.155 107.795 344.823 87.7513 347.274 74.9844Z" fill="black"/>
</g>
<mask id="mask6_468_29205" style="mask-type:luminance" maskUnits="userSpaceOnUse" x="-178" y="0" width="857" height="500">
<path d="M678.987 0H-178V500H678.987V0Z" fill="white"/>
</mask>
<g mask="url(#mask6_468_29205)">
<path d="M157.566 398.464L163.005 401.553L308.777 148.821C317.356 146.523 322.003 138.351 326.676 130.257C329.765 124.869 342.278 103.243 347.716 75.105C326.064 93.7701 313.603 115.601 310.412 120.886C305.765 128.955 301.092 137.152 303.441 145.63L157.566 398.464Z" fill="white"/>
</g>
<mask id="mask7_468_29205" style="mask-type:luminance" maskUnits="userSpaceOnUse" x="-178" y="0" width="857" height="500">
<path d="M678.987 0H-178V500H678.987V0Z" fill="white"/>
</mask>
<g mask="url(#mask7_468_29205)">
<path d="M336.021 398.464L330.531 401.553L184.811 148.821C176.231 146.523 171.583 138.351 166.962 130.257C163.821 124.869 151.259 103.243 145.871 75.105C167.524 93.7701 179.984 115.601 183.176 120.886C187.772 128.955 192.445 137.152 190.147 145.63L336.021 398.464Z" fill="black"/>
</g>
<mask id="mask8_468_29205" style="mask-type:luminance" maskUnits="userSpaceOnUse" x="-178" y="0" width="857" height="500">
<path d="M678.987 0H-178V500H678.987V0Z" fill="white"/>
</mask>
<g mask="url(#mask8_468_29205)">
<path d="M330.375 402.165L330.222 401.755L184.348 149.1C175.973 146.802 171.172 138.53 166.551 130.537C153.579 107.991 147.886 87.9465 145.46 75.1797C156.031 83.3505 170.559 98.3141 183.505 120.758C188.152 128.623 192.877 137.023 190.579 145.704L336.35 398.258L330.375 402.165ZM145.613 75.5116C148.753 87.7678 154.396 107.736 167.214 130.078C171.862 137.968 176.585 146.138 184.909 148.436L330.732 401.091L335.763 398.105L189.787 145.96C192.034 137.278 187.284 129.005 182.765 121.115C169.896 98.8497 155.443 83.9888 145.613 75.5116Z" fill="black"/>
</g>
<mask id="mask9_468_29205" style="mask-type:luminance" maskUnits="userSpaceOnUse" x="-178" y="0" width="857" height="500">
<path d="M678.987 0H-178V500H678.987V0Z" fill="white"/>
</mask>
<g mask="url(#mask9_468_29205)">
<path d="M336.021 398.464L330.531 401.553L184.811 148.821C176.231 146.523 171.583 138.351 166.962 130.257C163.821 124.869 151.259 103.243 145.871 75.105C167.524 93.7701 179.984 115.601 183.176 120.886C187.772 128.955 192.445 137.152 190.147 145.63L336.021 398.464Z" fill="white"/>
</g>
<mask id="mask10_468_29205" style="mask-type:luminance" maskUnits="userSpaceOnUse" x="-178" y="0" width="857" height="500">
<path d="M678.987 0H-178V500H678.987V0Z" fill="white"/>
</mask>
<g mask="url(#mask10_468_29205)">
<path d="M-178 175.033V325.043H187.488C196.859 349.99 228.036 400.061 246.778 400.061C265.52 400.061 296.748 349.99 306.016 325.043H678.96V175.033H306.041C296.773 149.984 265.545 100.015 246.803 100.015C228.061 100.015 196.884 149.984 187.513 175.033H-178Z" fill="#AA0017"/>
</g>
<mask id="mask11_468_29205" style="mask-type:luminance" maskUnits="userSpaceOnUse" x="-178" y="0" width="857" height="500">
<path d="M678.987 0H-178V500H678.987V0Z" fill="white"/>
</mask>
<g mask="url(#mask11_468_29205)">
<path d="M306.046 325.056C315.519 300.007 321.698 275.086 321.698 249.935C321.698 224.989 315.519 199.966 306.046 175.045C296.778 199.992 290.496 225.014 290.496 249.935C290.496 275.086 296.778 300.033 306.046 325.056Z" fill="black"/>
</g>
<mask id="mask12_468_29205" style="mask-type:luminance" maskUnits="userSpaceOnUse" x="-178" y="0" width="857" height="500">
<path d="M678.987 0H-178V500H678.987V0Z" fill="white"/>
</mask>
<g mask="url(#mask12_468_29205)">
<path d="M187.493 325.056C178.122 300.007 171.892 275.086 171.892 249.935C171.892 224.989 178.122 199.966 187.493 175.045C196.864 199.992 203.095 225.014 203.095 249.935C203.12 275.086 196.89 300.033 187.493 325.056Z" fill="black"/>
</g>
<mask id="mask13_468_29205" style="mask-type:luminance" maskUnits="userSpaceOnUse" x="-178" y="0" width="857" height="500">
<path d="M678.987 0H-178V500H678.987V0Z" fill="white"/>
</mask>
<g mask="url(#mask13_468_29205)">
<path d="M246.802 231.274C253.696 231.274 259.313 239.649 259.313 249.914C259.313 260.382 253.67 268.758 246.802 268.758C239.882 268.758 234.342 260.382 234.342 249.914C234.316 239.675 239.857 231.274 246.802 231.274Z" fill="white"/>
</g>
<mask id="mask14_468_29205" style="mask-type:luminance" maskUnits="userSpaceOnUse" x="-178" y="0" width="857" height="500">
<path d="M678.987 0H-178V500H678.987V0Z" fill="white"/>
</mask>
<g mask="url(#mask14_468_29205)">
<path d="M249.938 268.303C249.938 268.303 262.348 293.249 262.348 333.822C262.348 374.523 249.938 399.545 249.938 399.545V268.303Z" fill="white"/>
</g>
<mask id="mask15_468_29205" style="mask-type:luminance" maskUnits="userSpaceOnUse" x="-178" y="0" width="857" height="500">
<path d="M678.987 0H-178V500H678.987V0Z" fill="white"/>
</mask>
<g mask="url(#mask15_468_29205)">
<path d="M243.662 231.783C243.662 231.783 231.2 206.733 231.2 166.058C231.2 125.562 243.662 100.539 243.662 100.539V231.783Z" fill="white"/>
</g>
<mask id="mask16_468_29205" style="mask-type:luminance" maskUnits="userSpaceOnUse" x="-178" y="0" width="857" height="500">
<path d="M678.987 0H-178V500H678.987V0Z" fill="white"/>
</mask>
<g mask="url(#mask16_468_29205)">
<path d="M243.662 268.303C243.662 268.303 231.2 293.249 231.2 333.822C231.2 374.523 243.662 399.545 243.662 399.545V268.303Z" fill="white"/>
</g>
<mask id="mask17_468_29205" style="mask-type:luminance" maskUnits="userSpaceOnUse" x="-178" y="0" width="857" height="500">
<path d="M678.987 0H-178V500H678.987V0Z" fill="white"/>
</mask>
<g mask="url(#mask17_468_29205)">
<path d="M249.938 231.783C249.938 231.783 262.348 206.733 262.348 166.058C262.348 125.562 249.938 100.539 249.938 100.539V231.783Z" fill="white"/>
</g>
</g>
</g>
<defs>
<clipPath id="clip0_468_29205">
<rect width="500" height="500" fill="white"/>
</clipPath>
</defs>
</svg>
