<svg width="500" height="500" viewBox="0 0 500 500" fill="none" xmlns="http://www.w3.org/2000/svg">
<g clip-path="url(#clip0_468_30276)">
<mask id="mask0_468_30276" style="mask-type:luminance" maskUnits="userSpaceOnUse" x="-52" y="0" width="858" height="500">
<path d="M805.136 0H-52V500H805.136V0Z" fill="white"/>
</mask>
<g mask="url(#mask0_468_30276)">
<path d="M805.136 0H-52V35.7036H805.136V0Z" fill="#D80031"/>
</g>
<mask id="mask1_468_30276" style="mask-type:luminance" maskUnits="userSpaceOnUse" x="-52" y="0" width="858" height="500">
<path d="M805.136 0H-52V500H805.136V0Z" fill="white"/>
</mask>
<g mask="url(#mask1_468_30276)">
<path d="M805.136 35.7148H-52V71.4184H805.136V35.7148Z" fill="white"/>
</g>
<mask id="mask2_468_30276" style="mask-type:luminance" maskUnits="userSpaceOnUse" x="-52" y="0" width="858" height="500">
<path d="M805.136 0H-52V500H805.136V0Z" fill="white"/>
</mask>
<g mask="url(#mask2_468_30276)">
<path d="M805.136 71.4287H-52V107.132H805.136V71.4287Z" fill="#D80031"/>
</g>
<mask id="mask3_468_30276" style="mask-type:luminance" maskUnits="userSpaceOnUse" x="-52" y="0" width="858" height="500">
<path d="M805.136 0H-52V500H805.136V0Z" fill="white"/>
</mask>
<g mask="url(#mask3_468_30276)">
<path d="M805.136 107.144H-52V142.847H805.136V107.144Z" fill="white"/>
</g>
<mask id="mask4_468_30276" style="mask-type:luminance" maskUnits="userSpaceOnUse" x="-52" y="0" width="858" height="500">
<path d="M805.136 0H-52V500H805.136V0Z" fill="white"/>
</mask>
<g mask="url(#mask4_468_30276)">
<path d="M805.136 142.833H-52V178.536H805.136V142.833Z" fill="#D80031"/>
</g>
<mask id="mask5_468_30276" style="mask-type:luminance" maskUnits="userSpaceOnUse" x="-52" y="0" width="858" height="500">
<path d="M805.136 0H-52V500H805.136V0Z" fill="white"/>
</mask>
<g mask="url(#mask5_468_30276)">
<path d="M805.136 178.572H-52V214.276H805.136V178.572Z" fill="white"/>
</g>
<mask id="mask6_468_30276" style="mask-type:luminance" maskUnits="userSpaceOnUse" x="-52" y="0" width="858" height="500">
<path d="M805.136 0H-52V500H805.136V0Z" fill="white"/>
</mask>
<g mask="url(#mask6_468_30276)">
<path d="M805.136 214.262H-52V249.965H805.136V214.262Z" fill="#D80031"/>
</g>
<mask id="mask7_468_30276" style="mask-type:luminance" maskUnits="userSpaceOnUse" x="-52" y="0" width="858" height="500">
<path d="M805.136 0H-52V500H805.136V0Z" fill="white"/>
</mask>
<g mask="url(#mask7_468_30276)">
<path d="M805.136 250.002H-52V285.706H805.136V250.002Z" fill="white"/>
</g>
<mask id="mask8_468_30276" style="mask-type:luminance" maskUnits="userSpaceOnUse" x="-52" y="0" width="858" height="500">
<path d="M805.136 0H-52V500H805.136V0Z" fill="white"/>
</mask>
<g mask="url(#mask8_468_30276)">
<path d="M805.136 285.716H-52V321.419H805.136V285.716Z" fill="#D80031"/>
</g>
<mask id="mask9_468_30276" style="mask-type:luminance" maskUnits="userSpaceOnUse" x="-52" y="0" width="858" height="500">
<path d="M805.136 0H-52V500H805.136V0Z" fill="white"/>
</mask>
<g mask="url(#mask9_468_30276)">
<path d="M805.136 321.431H-52V357.134H805.136V321.431Z" fill="white"/>
</g>
<mask id="mask10_468_30276" style="mask-type:luminance" maskUnits="userSpaceOnUse" x="-52" y="0" width="858" height="500">
<path d="M805.136 0H-52V500H805.136V0Z" fill="white"/>
</mask>
<g mask="url(#mask10_468_30276)">
<path d="M805.136 357.146H-52V392.849H805.136V357.146Z" fill="#D80031"/>
</g>
<mask id="mask11_468_30276" style="mask-type:luminance" maskUnits="userSpaceOnUse" x="-52" y="0" width="858" height="500">
<path d="M805.136 0H-52V500H805.136V0Z" fill="white"/>
</mask>
<g mask="url(#mask11_468_30276)">
<path d="M805.136 392.859H-52V428.563H805.136V392.859Z" fill="white"/>
</g>
<mask id="mask12_468_30276" style="mask-type:luminance" maskUnits="userSpaceOnUse" x="-52" y="0" width="858" height="500">
<path d="M805.136 0H-52V500H805.136V0Z" fill="white"/>
</mask>
<g mask="url(#mask12_468_30276)">
<path d="M805.136 428.574H-52V464.278H805.136V428.574Z" fill="#D80031"/>
</g>
<mask id="mask13_468_30276" style="mask-type:luminance" maskUnits="userSpaceOnUse" x="-52" y="0" width="858" height="500">
<path d="M805.136 0H-52V500H805.136V0Z" fill="white"/>
</mask>
<g mask="url(#mask13_468_30276)">
<path d="M805.136 464.264H-52V499.966H805.136V464.264Z" fill="white"/>
</g>
<mask id="mask14_468_30276" style="mask-type:luminance" maskUnits="userSpaceOnUse" x="-52" y="0" width="858" height="500">
<path d="M805.136 0H-52V500H805.136V0Z" fill="white"/>
</mask>
<g mask="url(#mask14_468_30276)">
<path d="M447.974 0H-52V285.729H447.974V0Z" fill="#2530A9"/>
</g>
<mask id="mask15_468_30276" style="mask-type:luminance" maskUnits="userSpaceOnUse" x="-52" y="0" width="858" height="500">
<path d="M805.136 0H-52V500H805.136V0Z" fill="white"/>
</mask>
<g mask="url(#mask15_468_30276)">
<mask id="mask16_468_30276" style="mask-type:luminance" maskUnits="userSpaceOnUse" x="-52" y="0" width="858" height="500">
<path d="M805.136 0H-52V500H805.136V0Z" fill="white"/>
</mask>
<g mask="url(#mask16_468_30276)">
<path d="M81.8928 142.851C81.8928 91.0833 123.93 49.0719 175.646 49.0719C193.625 49.0719 210.379 54.1541 224.706 62.9395C205.705 45.9817 180.703 35.7148 153.351 35.7148C94.2025 35.7148 46.1895 83.7026 46.1895 142.851C46.1895 202.101 94.2025 249.986 153.351 249.986C180.703 249.986 205.705 239.617 224.706 222.762C210.379 231.547 193.625 236.629 175.646 236.629C123.904 236.629 81.8928 194.643 81.8928 142.851Z" fill="#F5D028"/>
</g>
<mask id="mask17_468_30276" style="mask-type:luminance" maskUnits="userSpaceOnUse" x="-52" y="0" width="858" height="500">
<path d="M805.136 0H-52V500H805.136V0Z" fill="white"/>
</mask>
<g mask="url(#mask17_468_30276)">
<path d="M296.2 142.831L347.507 122.987L292.701 127.38L330.294 87.1812L282.766 114.916L299.188 62.4342L268.388 108.021L260.496 53.5469L254.776 92.5699L253.167 103.833L252.528 108.021L221.728 62.4342L238.227 114.916L190.699 87.1812L228.292 127.38L173.46 122.987L224.793 142.831L173.46 162.7L228.292 158.307L190.699 198.607L238.227 170.77L221.728 223.252L252.528 177.665L253.167 181.956L254.776 193.117L260.496 232.217L268.388 177.665L299.188 223.252L282.766 170.77L330.294 198.607L292.701 158.307L347.507 162.7L296.2 142.831Z" fill="#F5D028"/>
</g>
</g>
</g>
<defs>
<clipPath id="clip0_468_30276">
<rect width="500" height="500" fill="white"/>
</clipPath>
</defs>
</svg>
