<svg width="500" height="500" viewBox="0 0 500 500" fill="none" xmlns="http://www.w3.org/2000/svg">
<g clip-path="url(#clip0_468_29109)">
<mask id="mask0_468_29109" style="mask-type:luminance" maskUnits="userSpaceOnUse" x="0" y="0" width="858" height="500">
<path d="M857.186 0H0V500H857.186V0Z" fill="white"/>
</mask>
<g mask="url(#mask0_468_29109)">
<path d="M857.186 0H0V250H857.186V0Z" fill="#2534A4"/>
</g>
<mask id="mask1_468_29109" style="mask-type:luminance" maskUnits="userSpaceOnUse" x="0" y="0" width="858" height="500">
<path d="M857.186 0H0V500H857.186V0Z" fill="white"/>
</mask>
<g mask="url(#mask1_468_29109)">
<path d="M857.186 250.001H0V500.001H857.186V250.001Z" fill="#BC0030"/>
</g>
<mask id="mask2_468_29109" style="mask-type:luminance" maskUnits="userSpaceOnUse" x="0" y="0" width="858" height="500">
<path d="M857.186 0H0V500H857.186V0Z" fill="white"/>
</mask>
<g mask="url(#mask2_468_29109)">
<path d="M0 0V500L435.208 250L0 0Z" fill="white"/>
</g>
<mask id="mask3_468_29109" style="mask-type:luminance" maskUnits="userSpaceOnUse" x="0" y="0" width="858" height="500">
<path d="M857.186 0H0V500H857.186V0Z" fill="white"/>
</mask>
<g mask="url(#mask3_468_29109)">
<path d="M58.8167 451.92L39.5098 440.657L22.8839 455.724L27.6335 433.864L8.17383 422.805L30.4689 420.506L35.0143 398.646L44.0037 419.102L66.2489 416.624L49.5202 431.59L58.8167 451.92Z" fill="#F3D02F"/>
</g>
<mask id="mask4_468_29109" style="mask-type:luminance" maskUnits="userSpaceOnUse" x="0" y="0" width="858" height="500">
<path d="M857.186 0H0V500H857.186V0Z" fill="white"/>
</mask>
<g mask="url(#mask4_468_29109)">
<path d="M117.475 204.826L101.156 176.785L91.732 175.687L114.079 207.406L117.475 204.826ZM104.757 217.596L70.5858 191.266L69.2842 175.891L83.151 175.38L111.474 210.088L104.757 217.596ZM99.5477 223.674L71.3262 207.712L70.1774 198.442L102.101 220.201L99.5477 223.674Z" fill="#F3D02F"/>
</g>
<mask id="mask5_468_29109" style="mask-type:luminance" maskUnits="userSpaceOnUse" x="0" y="0" width="858" height="500">
<path d="M857.186 0H0V500H857.186V0Z" fill="white"/>
</mask>
<g mask="url(#mask5_468_29109)">
<path d="M157.73 199.03L166.261 167.797L160.413 160.416L153.492 198.52L157.73 199.03ZM139.776 199.03L134.49 156.125L144.629 144.454L154.641 154.031L149.813 198.52L139.776 199.03ZM131.783 199.541L123.354 168.307L129.203 160.824L136.048 199.03L131.783 199.541Z" fill="#F3D02F"/>
</g>
<mask id="mask6_468_29109" style="mask-type:luminance" maskUnits="userSpaceOnUse" x="0" y="0" width="858" height="500">
<path d="M857.186 0H0V500H857.186V0Z" fill="white"/>
</mask>
<g mask="url(#mask6_468_29109)">
<path d="M190.388 224.251L218.762 208.596L220.065 199.325L187.834 220.778L190.388 224.251ZM177.925 211.201L205.201 177.668L220.525 176.876L220.626 190.744L185.306 218.173L177.925 211.201ZM172.025 205.914L188.626 178.179L197.999 177.183L175.346 208.519L172.025 205.914Z" fill="#F3D02F"/>
</g>
<mask id="mask7_468_29109" style="mask-type:luminance" maskUnits="userSpaceOnUse" x="0" y="0" width="858" height="500">
<path d="M857.186 0H0V500H857.186V0Z" fill="white"/>
</mask>
<g mask="url(#mask7_468_29109)">
<path d="M195.424 263.378L226.71 271.959L234.04 266.086L195.987 259.114L195.424 263.378ZM195.476 245.399L238.432 240.113L250.053 250.201L240.476 260.288L195.987 255.411L195.476 245.399ZM194.939 237.431L226.224 228.952L233.605 234.749L195.501 241.722L194.939 237.431Z" fill="#F3D02F"/>
</g>
<mask id="mask8_468_29109" style="mask-type:luminance" maskUnits="userSpaceOnUse" x="0" y="0" width="858" height="500">
<path d="M857.186 0H0V500H857.186V0Z" fill="white"/>
</mask>
<g mask="url(#mask8_468_29109)">
<path d="M171.646 295.214L188.092 323.051L197.414 324.149L174.966 292.533L171.646 295.214ZM184.312 282.342L218.636 308.571L219.888 323.843L206.071 324.43L177.595 289.825L184.312 282.342ZM189.445 276.239L217.615 291.996L218.917 301.368L186.84 279.712L189.445 276.239Z" fill="#F3D02F"/>
</g>
<mask id="mask9_468_29109" style="mask-type:luminance" maskUnits="userSpaceOnUse" x="0" y="0" width="858" height="500">
<path d="M857.186 0H0V500H857.186V0Z" fill="white"/>
</mask>
<g mask="url(#mask9_468_29109)">
<path d="M131.473 301.068L123.249 332.404L129.122 339.785L135.711 301.579L131.473 301.068ZM149.503 300.966L155.045 343.871L145.111 355.645L134.946 346.067L139.44 301.579L149.503 300.966ZM157.472 300.48L166.053 331.715L160.306 339.095L153.232 300.992L157.472 300.48Z" fill="#F3D02F"/>
</g>
<mask id="mask10_468_29109" style="mask-type:luminance" maskUnits="userSpaceOnUse" x="0" y="0" width="858" height="500">
<path d="M857.186 0H0V500H857.186V0Z" fill="white"/>
</mask>
<g mask="url(#mask10_468_29109)">
<path d="M98.9114 276.538L70.8193 292.602L69.619 301.975L101.491 279.935L98.9114 276.538ZM111.629 289.41L84.8388 323.325L69.5676 324.423L69.1592 310.556L104.121 282.617L111.629 289.41ZM117.581 294.594L101.415 322.738L92.0419 323.734L114.234 292.014L117.581 294.594Z" fill="#F3D02F"/>
</g>
<mask id="mask11_468_29109" style="mask-type:luminance" maskUnits="userSpaceOnUse" x="0" y="0" width="858" height="500">
<path d="M857.186 0H0V500H857.186V0Z" fill="white"/>
</mask>
<g mask="url(#mask11_468_29109)">
<path d="M93.3688 237.127L62.0828 228.852L54.6521 234.649L92.8575 241.341L93.3688 237.127ZM93.4701 255.081L50.6165 260.674L38.8945 250.688L48.3687 240.523L92.8575 245.018L93.4701 255.081ZM94.0329 263.074L62.7982 271.655L55.366 265.858L93.4701 258.784L94.0329 263.074Z" fill="#F3D02F"/>
</g>
<mask id="mask12_468_29109" style="mask-type:luminance" maskUnits="userSpaceOnUse" x="0" y="0" width="858" height="500">
<path d="M857.186 0H0V500H857.186V0Z" fill="white"/>
</mask>
<g mask="url(#mask12_468_29109)">
<mask id="mask13_468_29109" style="mask-type:luminance" maskUnits="userSpaceOnUse" x="0" y="0" width="858" height="500">
<path d="M857.186 0H0V500H857.186V0Z" fill="white"/>
</mask>
<g mask="url(#mask13_468_29109)">
<path d="M144.449 197.328C173.538 197.328 197.187 220.875 197.187 250.015C197.187 279.155 173.538 302.88 144.449 302.88C115.309 302.88 91.7363 279.129 91.7363 250.015C91.7363 220.875 115.335 197.328 144.449 197.328Z" fill="#F3D02F"/>
</g>
<mask id="mask14_468_29109" style="mask-type:luminance" maskUnits="userSpaceOnUse" x="0" y="0" width="858" height="500">
<path d="M857.186 0H0V500H857.186V0Z" fill="white"/>
</mask>
<g mask="url(#mask14_468_29109)">
<path d="M325.926 268.169L339.182 250.113L325.876 232.057L347.124 239.029L360.2 220.896L360.097 243.243L381.448 250.011L360.097 256.804L360.225 279.252L347.226 261.094L325.926 268.169Z" fill="#F3D02F"/>
</g>
<mask id="mask15_468_29109" style="mask-type:luminance" maskUnits="userSpaceOnUse" x="0" y="0" width="858" height="500">
<path d="M857.186 0H0V500H857.186V0Z" fill="white"/>
</mask>
<g mask="url(#mask15_468_29109)">
<path d="M58.8167 42.5871L39.5098 53.85L22.8839 38.8071L27.6335 60.7452L8.17383 71.8289L30.4689 74.0252L35.0143 95.9633L44.0037 75.5068L66.2489 77.9073L49.5202 63.0436L58.8167 42.5871Z" fill="#F3D02F"/>
</g>
</g>
</g>
<defs>
<clipPath id="clip0_468_29109">
<rect width="500" height="500" fill="white"/>
</clipPath>
</defs>
</svg>
