<svg width="500" height="500" viewBox="0 0 500 500" fill="none" xmlns="http://www.w3.org/2000/svg">
<g clip-path="url(#clip0_670_394)">
<path d="M249.5 685C548.01 685 790 443.01 790 144.5C790 -154.01 548.01 -396 249.5 -396C-49.0099 -396 -291 -154.01 -291 144.5C-291 443.01 -49.0099 685 249.5 685Z" fill="#28A27D"/>
<path d="M251.251 199.912C193.152 199.737 81.7822 206.124 81.7822 239.552C81.7822 264.223 193.327 278.051 251.251 277.963C308.319 277.963 418.196 270.72 418.196 239.552C418.196 203.665 308.45 200.044 251.251 199.912ZM219.776 211.435C217.581 219.908 225.351 250.439 225.351 264.245C225.351 264.245 101.888 266.572 101.163 239.684C101.163 212.489 219.688 211.435 219.688 211.435H219.776ZM280.443 211.435C280.443 211.435 399.254 212.687 399.254 239.969C398.529 267.032 277.985 264.113 277.985 264.113C277.985 250.241 282.704 219.842 280.443 211.304V211.435Z" fill="white"/>
<path d="M118.108 93.0643V166.528H211.589L214.925 408.604L291.747 406.936L285.162 163.301H383.67L380.334 91.5059L118.108 93.0643Z" fill="white"/>
</g>
<defs>
<clipPath id="clip0_670_394">
<rect width="500" height="500" fill="white"/>
</clipPath>
</defs>
</svg>
