<svg width="500" height="500" viewBox="0 0 500 500" fill="none" xmlns="http://www.w3.org/2000/svg">
<g clip-path="url(#clip0_468_29336)">
<mask id="mask0_468_29336" style="mask-type:luminance" maskUnits="userSpaceOnUse" x="0" y="0" width="858" height="500">
<path d="M857.058 0H0V500H857.058V0Z" fill="white"/>
</mask>
<g mask="url(#mask0_468_29336)">
<path d="M857.058 0H0V500H857.058V0Z" fill="#2D6B4F"/>
</g>
<mask id="mask1_468_29336" style="mask-type:luminance" maskUnits="userSpaceOnUse" x="0" y="0" width="858" height="500">
<path d="M857.058 0H0V500H857.058V0Z" fill="white"/>
</mask>
<g mask="url(#mask1_468_29336)">
<path d="M857.058 99.9858H0V199.945H857.058V99.9858Z" fill="#F5CD28"/>
</g>
<mask id="mask2_468_29336" style="mask-type:luminance" maskUnits="userSpaceOnUse" x="0" y="0" width="858" height="500">
<path d="M857.058 0H0V500H857.058V0Z" fill="white"/>
</mask>
<g mask="url(#mask2_468_29336)">
<path d="M857.058 299.982H0V400.044H857.058V299.982Z" fill="#F5CD28"/>
</g>
<mask id="mask3_468_29336" style="mask-type:luminance" maskUnits="userSpaceOnUse" x="0" y="0" width="858" height="500">
<path d="M857.058 0H0V500H857.058V0Z" fill="white"/>
</mask>
<g mask="url(#mask3_468_29336)">
<path d="M299.927 0H0V299.979H299.927V0Z" fill="#C0003B"/>
</g>
<mask id="mask4_468_29336" style="mask-type:luminance" maskUnits="userSpaceOnUse" x="0" y="0" width="858" height="500">
<path d="M857.058 0H0V500H857.058V0Z" fill="white"/>
</mask>
<g mask="url(#mask4_468_29336)">
<path d="M149.937 54.9932L120.593 145.375L165.797 159.931L149.937 54.9932Z" fill="white"/>
</g>
<mask id="mask5_468_29336" style="mask-type:luminance" maskUnits="userSpaceOnUse" x="0" y="0" width="858" height="500">
<path d="M857.058 0H0V500H857.058V0Z" fill="white"/>
</mask>
<g mask="url(#mask5_468_29336)">
<path d="M149.938 54.9932L179.308 145.375L134.129 159.931L149.938 54.9932Z" fill="white"/>
</g>
<mask id="mask6_468_29336" style="mask-type:luminance" maskUnits="userSpaceOnUse" x="0" y="0" width="858" height="500">
<path d="M857.058 0H0V500H857.058V0Z" fill="white"/>
</mask>
<g mask="url(#mask6_468_29336)">
<path d="M240.319 120.611H145.34V168.115L240.319 120.611Z" fill="white"/>
</g>
<mask id="mask7_468_29336" style="mask-type:luminance" maskUnits="userSpaceOnUse" x="0" y="0" width="858" height="500">
<path d="M857.058 0H0V500H857.058V0Z" fill="white"/>
</mask>
<g mask="url(#mask7_468_29336)">
<path d="M240.318 120.611L163.395 176.492L135.507 137.979L240.318 120.611Z" fill="white"/>
</g>
<mask id="mask8_468_29336" style="mask-type:luminance" maskUnits="userSpaceOnUse" x="0" y="0" width="858" height="500">
<path d="M857.058 0H0V500H857.058V0Z" fill="white"/>
</mask>
<g mask="url(#mask8_468_29336)">
<path d="M59.6074 120.611L136.453 176.492L164.393 137.979L59.6074 120.611Z" fill="white"/>
</g>
<mask id="mask9_468_29336" style="mask-type:luminance" maskUnits="userSpaceOnUse" x="0" y="0" width="858" height="500">
<path d="M857.058 0H0V500H857.058V0Z" fill="white"/>
</mask>
<g mask="url(#mask9_468_29336)">
<path d="M59.6074 120.611H154.561V168.115L59.6074 120.611Z" fill="white"/>
</g>
<mask id="mask10_468_29336" style="mask-type:luminance" maskUnits="userSpaceOnUse" x="0" y="0" width="858" height="500">
<path d="M857.058 0H0V500H857.058V0Z" fill="white"/>
</mask>
<g mask="url(#mask10_468_29336)">
<path d="M205.79 226.855L176.419 136.473L131.267 151.132L205.79 226.855Z" fill="white"/>
</g>
<mask id="mask11_468_29336" style="mask-type:luminance" maskUnits="userSpaceOnUse" x="0" y="0" width="858" height="500">
<path d="M857.058 0H0V500H857.058V0Z" fill="white"/>
</mask>
<g mask="url(#mask11_468_29336)">
<path d="M205.788 226.871L128.916 171.017L156.804 132.607L205.788 226.871Z" fill="white"/>
</g>
<mask id="mask12_468_29336" style="mask-type:luminance" maskUnits="userSpaceOnUse" x="0" y="0" width="858" height="500">
<path d="M857.058 0H0V500H857.058V0Z" fill="white"/>
</mask>
<g mask="url(#mask12_468_29336)">
<path d="M94.0625 226.871L170.986 171.017L142.995 132.607L94.0625 226.871Z" fill="white"/>
</g>
<mask id="mask13_468_29336" style="mask-type:luminance" maskUnits="userSpaceOnUse" x="0" y="0" width="858" height="500">
<path d="M857.058 0H0V500H857.058V0Z" fill="white"/>
</mask>
<g mask="url(#mask13_468_29336)">
<path d="M94.0625 226.855L123.509 136.473L168.687 151.132L94.0625 226.855Z" fill="white"/>
</g>
</g>
<defs>
<clipPath id="clip0_468_29336">
<rect width="500" height="500" fill="white"/>
</clipPath>
</defs>
</svg>
