<svg width="500" height="500" viewBox="0 0 500 500" fill="none" xmlns="http://www.w3.org/2000/svg">
<g clip-path="url(#clip0_468_22988)">
<mask id="mask0_468_22988" style="mask-type:luminance" maskUnits="userSpaceOnUse" x="-179" y="0" width="858" height="500">
<path d="M678.205 0H-179V500H678.205V0Z" fill="white"/>
</mask>
<g mask="url(#mask0_468_22988)">
<path d="M678.205 0H-179V500H678.205V0Z" fill="white"/>
</g>
<mask id="mask1_468_22988" style="mask-type:luminance" maskUnits="userSpaceOnUse" x="-179" y="0" width="858" height="500">
<path d="M678.205 0H-179V500H678.205V0Z" fill="white"/>
</mask>
<g mask="url(#mask1_468_22988)">
<path d="M394.947 180.798L678.188 22.2456V0H658.675L335.719 180.798H394.947Z" fill="#BD0034"/>
</g>
<mask id="mask2_468_22988" style="mask-type:luminance" maskUnits="userSpaceOnUse" x="-179" y="0" width="858" height="500">
<path d="M678.205 0H-179V500H678.205V0Z" fill="white"/>
</mask>
<g mask="url(#mask2_468_22988)">
<path d="M381.587 329.254L678.185 495.239V462.062L440.84 329.254H381.587Z" fill="#BD0034"/>
</g>
<mask id="mask3_468_22988" style="mask-type:luminance" maskUnits="userSpaceOnUse" x="-179" y="0" width="858" height="500">
<path d="M678.205 0H-179V500H678.205V0Z" fill="white"/>
</mask>
<g mask="url(#mask3_468_22988)">
<path d="M-179 38.0914L74.7159 180.809H134.021L-179 4.88867V38.0914Z" fill="#BD0034"/>
</g>
<mask id="mask4_468_22988" style="mask-type:luminance" maskUnits="userSpaceOnUse" x="-179" y="0" width="858" height="500">
<path d="M678.205 0H-179V500H678.205V0Z" fill="white"/>
</mask>
<g mask="url(#mask4_468_22988)">
<path d="M120.561 329.254L-179 497.104V500.016H-124.881L179.865 329.254H120.561Z" fill="#BD0034"/>
</g>
<mask id="mask5_468_22988" style="mask-type:luminance" maskUnits="userSpaceOnUse" x="-179" y="0" width="858" height="500">
<path d="M678.205 0H-179V500H678.205V0Z" fill="white"/>
</mask>
<g mask="url(#mask5_468_22988)">
<path d="M619.505 0H319.383V168.08L619.505 0Z" fill="#1A237B"/>
</g>
<mask id="mask6_468_22988" style="mask-type:luminance" maskUnits="userSpaceOnUse" x="-179" y="0" width="858" height="500">
<path d="M678.205 0H-179V500H678.205V0Z" fill="white"/>
</mask>
<g mask="url(#mask6_468_22988)">
<path d="M186.89 0H-112.032L186.89 168.08V0Z" fill="#1A237B"/>
</g>
<mask id="mask7_468_22988" style="mask-type:luminance" maskUnits="userSpaceOnUse" x="-179" y="0" width="858" height="500">
<path d="M678.205 0H-179V500H678.205V0Z" fill="white"/>
</mask>
<g mask="url(#mask7_468_22988)">
<path d="M678.175 180.797V66.0703L474.594 180.797H678.175Z" fill="#1A237B"/>
</g>
<mask id="mask8_468_22988" style="mask-type:luminance" maskUnits="userSpaceOnUse" x="-179" y="0" width="858" height="500">
<path d="M678.205 0H-179V500H678.205V0Z" fill="white"/>
</mask>
<g mask="url(#mask8_468_22988)">
<path d="M678.175 442.729V329.254H474.594L678.175 442.729Z" fill="#1A237B"/>
</g>
<mask id="mask9_468_22988" style="mask-type:luminance" maskUnits="userSpaceOnUse" x="-179" y="0" width="858" height="500">
<path d="M678.205 0H-179V500H678.205V0Z" fill="white"/>
</mask>
<g mask="url(#mask9_468_22988)">
<path d="M-95.0718 500.016H186.891V341.999L-95.0718 500.016Z" fill="#1A237B"/>
</g>
<mask id="mask10_468_22988" style="mask-type:luminance" maskUnits="userSpaceOnUse" x="-179" y="0" width="858" height="500">
<path d="M678.205 0H-179V500H678.205V0Z" fill="white"/>
</mask>
<g mask="url(#mask10_468_22988)">
<path d="M319.383 500.016H602.266L319.383 341.999V500.016Z" fill="#1A237B"/>
</g>
<mask id="mask11_468_22988" style="mask-type:luminance" maskUnits="userSpaceOnUse" x="-179" y="0" width="858" height="500">
<path d="M678.205 0H-179V500H678.205V0Z" fill="white"/>
</mask>
<g mask="url(#mask11_468_22988)">
<path d="M-179 329.254V447.862L31.6808 329.254H-179Z" fill="#1A237B"/>
</g>
<mask id="mask12_468_22988" style="mask-type:luminance" maskUnits="userSpaceOnUse" x="-179" y="0" width="858" height="500">
<path d="M678.205 0H-179V500H678.205V0Z" fill="white"/>
</mask>
<g mask="url(#mask12_468_22988)">
<path d="M-179 180.792H31.6808L-179 62.0049V180.792Z" fill="#1A237B"/>
</g>
<mask id="mask13_468_22988" style="mask-type:luminance" maskUnits="userSpaceOnUse" x="-179" y="0" width="858" height="500">
<path d="M678.205 0H-179V500H678.205V0Z" fill="white"/>
</mask>
<g mask="url(#mask13_468_22988)">
<path d="M213.399 0V210.501H-179V299.637H213.399V500.026H292.88V299.637H678.18V210.501H292.88V0H213.399Z" fill="#BD0034"/>
</g>
</g>
<defs>
<clipPath id="clip0_468_22988">
<rect width="500" height="500" fill="white"/>
</clipPath>
</defs>
</svg>
