<svg width="500" height="500" viewBox="0 0 500 500" fill="none" xmlns="http://www.w3.org/2000/svg">
<g clip-path="url(#clip0_468_21800)">
<path d="M828.072 451.718H-28V500H828.072V451.718Z" fill="#F4F4F4"/>
<path d="M828.072 336.536H-28V393.351H828.072V336.536Z" fill="#F4F4F4"/>
<path d="M828.072 221.352H268.013V162.985H828.072V106.17H268.013V47.8013H828.072V0H-28V278.167H828.072V221.352ZM172.693 149.624C182.144 151.435 185.623 157.455 186.884 161.124C187.558 162.214 187.884 163.094 188.02 163.532L188.166 164L187.693 164.276C187.607 164.316 187.517 164.335 187.428 164.335C187.224 164.335 187.028 164.234 186.909 164.05C182.019 156.588 176.688 157.248 169.941 158.084C168.62 158.248 167.254 158.418 165.827 158.535C160.06 159.006 153.576 156.587 149.61 154.759L172.941 188.528L174.586 190.183L174.029 190.832L141.062 166.804C140.707 170.11 140.966 176.391 145.898 183.849C151.204 191.877 149.328 198.571 147.583 202.037C147.274 203.28 146.872 204.128 146.652 204.531L146.419 204.961L145.892 204.816C145.598 204.704 145.436 204.402 145.505 204.097C147.43 195.386 143.234 192.034 137.92 187.789C136.881 186.959 135.805 186.099 134.724 185.16C130.407 181.409 127.628 175.194 126.154 171.077L118.894 210.791L118.887 213.124L118.034 213.19L111.669 172.618C108.985 174.855 105.028 179.378 103.313 187.492C101.346 196.786 95.1291 200.165 91.3304 201.378C90.183 202.047 89.257 202.364 88.7975 202.497L88.3227 202.632L88.0538 202.149C87.9271 201.862 88.029 201.532 88.2966 201.366C96.0433 196.618 95.4228 191.352 94.6365 184.685C94.4826 183.378 94.3227 182.027 94.2185 180.615C93.8621 175.839 95.611 170.579 97.3232 166.702L64.2052 190.833L63.6487 190.184L65.2947 188.529L87.669 156.152C84.8058 155.669 77.6109 155.275 68.8861 160.896C60.6706 166.189 53.7659 164.404 50.1744 162.709C48.8943 162.414 48.0074 162.028 47.5894 161.815L47.149 161.59L47.284 161.056C47.387 160.762 47.6924 160.581 48.0027 160.65C57.0199 162.491 60.4432 158.316 64.7784 153.031C65.6262 151.996 66.5037 150.928 67.4641 149.853C71.0449 145.841 76.8448 143.141 81.0402 141.592L40.3165 134.483L40.3958 133.631L42.7345 133.664L80.3391 127.46C78.2633 124.959 73.4333 120.587 64.0786 118.87C54.313 117.077 50.7321 111.105 49.4402 107.483C48.7629 106.424 48.4325 105.571 48.294 105.142L48.1425 104.674L48.6125 104.393C48.8979 104.255 49.233 104.345 49.4094 104.606C54.4515 111.982 59.9518 111.329 66.9181 110.501C68.2799 110.34 69.6879 110.173 71.1574 110.056C77.7708 109.546 85.3291 112.58 89.1693 114.388L63.4238 79.0495L64.0727 78.493L65.7257 80.1414L96.7111 101.622C97.0284 98.287 96.6365 92.222 91.6974 85.0615C86.203 77.0946 88.1793 70.4562 89.9851 67.0471C90.3036 65.8381 90.711 65.0116 90.9348 64.6149L91.1765 64.1862L91.707 64.3403C91.9995 64.4551 92.1592 64.7595 92.0881 65.065C90.1083 73.6524 94.4304 76.962 99.9011 81.1527C100.973 81.9733 102.081 82.8221 103.195 83.7493C107.353 87.2106 110.133 92.8163 111.721 96.859L118.656 58.1033L118.654 55.7694L119.506 55.7018L125.936 95.7069C128.514 93.6477 132.832 89.0154 134.627 80.1639C136.54 70.7347 142.595 67.3194 146.278 66.0985C147.376 65.4366 148.259 65.1204 148.701 64.989L149.168 64.8494L149.44 65.3229C149.569 65.6059 149.473 65.933 149.212 66.1023C141.692 70.9135 142.293 76.249 143.057 83.0069C143.206 84.3296 143.36 85.6973 143.463 87.1254C143.891 93.1029 141.204 99.8147 139.315 103.712L172.782 80.416L174.453 78.75L175.103 79.3053L151.302 112.08C154.679 112.362 160.817 111.934 168.029 107.086C176.016 101.717 182.726 103.542 186.205 105.26C187.449 105.56 188.299 105.954 188.706 106.171L189.137 106.4L188.997 106.926C188.89 107.22 188.586 107.389 188.285 107.322C179.556 105.468 176.235 109.685 172.032 115.032C171.209 116.079 170.358 117.16 169.428 118.247C165.633 122.685 159.237 125.546 155.135 127.027L195.36 133.666L197.699 133.632L197.778 134.484L157.421 141.531C159.66 144.107 164.292 148.015 172.693 149.624Z" fill="#F4F4F4"/>
<path d="M828.072 278.167H-28V336.534H828.072V278.167Z" fill="#1E429A"/>
<path d="M828.072 162.985H268.014V221.352H828.072V162.985Z" fill="#1E429A"/>
<path d="M828.072 47.8027H268.014V106.17H828.072V47.8027Z" fill="#1E429A"/>
<path d="M828.072 393.351H-28V451.718H828.072V393.351Z" fill="#1E429A"/>
<path d="M109.421 156.555L109.751 156.399L109.981 156.672C110.023 156.639 110.065 156.595 110.107 156.563L110.202 156.878C112.952 157.97 115.944 158.578 119.077 158.578C129.02 158.578 137.576 152.53 141.266 143.922L141.167 143.727L141.43 143.494C141.396 143.451 141.35 143.412 141.317 143.37L141.511 143.312C142.6 140.566 143.205 137.577 143.205 134.447C143.205 131.101 142.52 127.912 141.282 125.011L141.22 124.881C140.148 122.67 138.955 120.729 137.663 119.077C133.234 113.731 126.547 110.318 119.077 110.318C112.671 110.318 106.845 112.832 102.521 116.919L102.286 117.168C101.209 118.307 100.103 119.527 99.07 120.974C96.4696 124.824 94.9492 129.461 94.9492 134.446C94.948 144.32 100.91 152.823 109.421 156.555ZM103.471 128.02C104.078 127.071 104.967 126.303 106.002 125.779C107.038 125.254 108.242 125.037 109.422 125.117C110.589 125.29 111.712 125.681 112.669 126.314C113.147 126.627 113.567 127.015 114.007 127.361C114.38 127.789 114.767 128.193 115.107 128.632L115.069 128.671L113.829 127.587C113.371 127.289 112.94 126.943 112.459 126.682C111.972 126.407 111.462 126.181 110.934 126.005C111.496 126.427 111.848 127.012 111.848 127.661C111.848 128.942 110.489 129.979 108.813 129.979C107.138 129.979 105.778 128.941 105.778 127.661C105.778 126.982 106.165 126.378 106.773 125.955C105.533 126.354 104.394 127.095 103.515 128.053L103.471 128.02ZM106.3 147.006L106.028 146.991C106.167 144.677 107.923 143.48 107.997 143.43L108.149 143.657C108.132 143.667 106.431 144.831 106.3 147.006ZM104.379 129.406L104.414 129.377C104.791 129.657 105.164 129.927 105.572 130.133C105.964 130.362 106.374 130.55 106.794 130.69C107.63 130.973 108.502 131.127 109.365 131.014C110.232 130.946 111.071 130.659 111.884 130.277C112.297 130.098 112.673 129.838 113.08 129.624C113.468 129.377 113.84 129.103 114.253 128.863L114.285 128.896L113.228 129.817C112.837 130.072 112.469 130.368 112.058 130.589C111.242 131.051 110.341 131.361 109.406 131.472C107.515 131.645 105.641 130.78 104.379 129.406ZM118.987 149.228C114.349 149.228 110.53 147.317 108.8 145.361C108.8 145.361 113.721 143.192 114.801 143.541C116.212 143.997 119.166 144.816 120.896 143.724C122.168 142.919 129.533 145.178 129.716 145.406C129.899 145.634 123.624 149.228 118.987 149.228ZM131.676 146.897C131.193 145.097 129.421 143.617 129.403 143.603L129.576 143.392C129.652 143.455 131.435 144.942 131.941 146.827L131.676 146.897ZM133.112 129.884C132.72 130.138 132.353 130.434 131.942 130.656C131.126 131.117 130.225 131.428 129.29 131.539C127.398 131.713 125.524 130.847 124.261 129.474L124.297 129.444C124.674 129.725 125.047 129.995 125.455 130.201C125.847 130.429 126.257 130.618 126.677 130.757C127.513 131.04 128.385 131.194 129.248 131.082C130.115 131.012 130.954 130.727 131.766 130.344C132.18 130.165 132.556 129.906 132.962 129.692C133.351 129.444 133.723 129.169 134.136 128.929L134.168 128.962L133.112 129.884ZM134.949 128.74L133.71 127.656C133.251 127.358 132.82 127.012 132.34 126.75C131.854 126.475 131.343 126.249 130.815 126.074C131.377 126.495 131.729 127.081 131.729 127.73C131.729 129.011 130.369 130.048 128.694 130.048C127.018 130.048 125.659 129.01 125.659 127.73C125.659 127.051 126.046 126.447 126.653 126.023C125.414 126.422 124.274 127.164 123.395 128.122L123.352 128.087C123.958 127.139 124.848 126.37 125.883 125.847C126.919 125.321 128.123 125.104 129.302 125.185C130.47 125.358 131.592 125.749 132.549 126.382C133.028 126.695 133.447 127.082 133.887 127.429C134.26 127.856 134.647 128.26 134.987 128.699L134.949 128.74ZM124.353 122.378C125.589 121.491 127.148 121.02 128.69 120.992C130.24 120.98 131.72 121.424 133.025 122.087C133.672 122.427 134.26 122.865 134.839 123.281C135.366 123.782 135.886 124.271 136.332 124.833C135.611 124.673 134.964 124.441 134.323 124.221C133.663 124.049 133.03 123.849 132.407 123.675C131.138 123.398 129.92 123.165 128.713 123.174C127.51 123.198 126.34 123.42 125.172 123.863C124.008 124.319 122.88 124.988 121.736 125.855C122.144 124.459 123.109 123.238 124.353 122.378ZM116.895 137.95C116.258 139.86 119.168 139.814 119.168 139.814C120.851 139.86 121.215 138.041 121.215 138.041C121.487 138.36 122.897 138.904 123.397 138.268C123.897 137.631 122.579 135.904 122.579 135.904C123.898 136.45 124.58 138.541 124.58 138.541C126.945 139.45 127.672 141.451 127.672 141.451C123.443 138.268 121.034 140.451 121.034 140.451C121.034 140.451 118.715 142.087 117.032 140.36C115.35 138.632 109.712 141.314 109.712 141.314C109.848 139.859 113.441 138.813 113.441 138.813C113.35 137.54 115.123 135.721 115.123 135.721C115.123 135.721 113.668 138.131 114.896 138.632C116.122 139.132 116.895 137.95 116.895 137.95ZM104.388 121.833C105.72 121.097 107.325 120.813 108.858 120.968C110.399 121.14 111.816 121.754 113.033 122.567C113.636 122.98 114.168 123.486 114.694 123.965C115.158 124.524 115.616 125.072 115.994 125.682C115.296 125.438 114.682 125.131 114.071 124.837C113.436 124.588 112.831 124.316 112.233 124.069C111.006 123.644 109.824 123.269 108.624 123.136C107.426 123.018 106.238 123.101 105.026 123.403C103.817 123.719 102.618 124.249 101.379 124.975C101.949 123.638 103.052 122.54 104.388 121.833Z" fill="#FAD016"/>
<path d="M125.526 145.776C124.637 146.177 111.847 145.68 111.847 145.68C119.415 149.641 125.285 145.931 125.526 145.776Z" fill="#FAD016"/>
<path d="M142.135 125.304L141.778 125.186L141.531 125.527L141.282 125.013C142.52 127.913 143.205 131.102 143.205 134.45C143.205 137.579 142.6 140.568 141.511 143.314L141.842 143.214C142.797 140.208 143.311 137.38 143.343 134.814L143.347 134.396L144.083 134.385C144.324 131.712 143.575 128.645 142.135 125.304Z" fill="#7B441C"/>
<path d="M141.266 143.923C137.576 152.532 129.02 158.579 119.077 158.579C115.944 158.579 112.952 157.971 110.202 156.88L110.273 157.115C113.26 158.122 116.077 158.683 118.64 158.759L119.058 158.771L119.056 159.506C121.643 159.785 124.619 159.137 127.867 157.836L128.045 157.317L127.86 157.182L128.505 156.87C131.504 155.423 134.015 153.757 135.97 151.915L136.275 151.628L136.793 152.149C138.784 150.546 140.407 148.047 141.769 144.913L141.266 143.923Z" fill="#7B441C"/>
<path d="M94.9477 134.448C94.9477 129.463 96.4681 124.826 99.0684 120.976C98.3781 121.945 97.7185 123.012 97.1253 124.235L96.8139 124.878L96.2609 124.119L96.5581 124.683L96.3012 124.916C96.3379 124.959 96.3793 125.001 96.4148 125.045L96.0312 125.155C94.5486 128.555 93.7742 131.672 94.0194 134.385L94.7547 134.396L94.7595 134.814C94.7926 137.451 95.3255 140.359 96.332 143.457C96.3498 143.459 96.3699 143.457 96.3876 143.459L96.3509 143.523C96.3628 143.559 96.3699 143.592 96.3817 143.626L96.6055 144.306L96.1827 144.233C97.6025 147.687 99.3159 150.431 101.449 152.149L101.967 151.628L102.272 151.913C104.122 153.656 106.485 155.236 109.27 156.626L109.419 156.555C100.91 152.822 94.9477 144.32 94.9477 134.448Z" fill="#7B441C"/>
<path d="M137.663 119.08C137.204 118.492 136.733 117.938 136.249 117.427L135.963 117.122L136.484 116.602C134.784 114.496 132.145 112.85 128.735 111.447L128.486 111.569L128.572 112.103L127.895 111.868C124.749 110.782 121.791 110.197 119.105 110.127L118.687 110.118V109.382C116.183 109.122 113.319 109.727 110.199 110.956L110.197 110.965L110.232 110.989C110.215 110.997 110.198 111.003 110.181 111.011L110.032 111.429L109.687 111.399C109.681 111.448 109.684 111.503 109.678 111.551L109.337 111.368C106.183 112.728 103.667 114.351 102.055 116.346L102.576 116.865L102.524 116.921C106.848 112.833 112.674 110.319 119.08 110.319C126.546 110.32 133.233 113.733 137.663 119.08Z" fill="#7B441C"/>
<path d="M136.795 85.9378C137.729 73.2237 142.973 68.0869 146.278 66.0928C142.595 67.3136 136.539 70.7286 134.627 80.1579C132.832 89.0093 128.513 93.6416 125.936 95.7009L128.273 110.242C129.793 108.675 135.637 101.692 136.795 85.9378Z" fill="#7A411B"/>
<path d="M142.343 87.1999C142.243 85.7943 142.09 84.4397 141.942 83.1277C141.39 78.2408 140.891 73.8274 143.578 69.8203C141.062 72.68 138.534 77.6059 137.916 86.0192C136.971 98.8683 132.917 106.091 130.503 109.327L133.023 108.086L137.364 105.064C139.03 101.96 142.832 94.0478 142.343 87.1999Z" fill="#FAD016"/>
<path d="M128.446 111.326L128.485 111.57L128.734 111.448C128.637 111.407 128.546 111.365 128.446 111.326Z" fill="#7B441C"/>
<path d="M136.795 85.9378C135.637 101.692 129.792 108.675 128.271 110.242L128.437 111.277L133.021 108.086L130.501 109.327C132.916 106.092 136.969 98.8684 137.914 86.0193C138.532 77.6072 141.06 72.6801 143.577 69.8204C140.89 73.8287 141.388 78.2408 141.94 83.1278C142.088 84.4398 142.241 85.7944 142.342 87.2C142.831 94.0467 139.029 101.96 137.362 105.064L139.313 103.707C141.201 99.8098 143.888 93.0983 143.46 87.1208C143.359 85.6927 143.205 84.3238 143.054 83.0023C142.291 76.2444 141.689 70.9085 149.209 66.0974C149.47 65.928 149.566 65.6001 149.437 65.3183L149.166 64.8447L148.698 64.9844C148.256 65.1158 147.373 65.432 146.275 66.0939C142.973 68.0868 137.73 73.2237 136.795 85.9378Z" fill="#7B441C"/>
<path d="M165.511 112.718C175.109 104.325 182.45 104.355 186.202 105.257C182.723 103.539 176.014 101.713 168.027 107.083C160.814 111.931 154.676 112.359 151.3 112.076L142.626 124.019C145.232 123.896 154.061 122.73 165.511 112.718Z" fill="#7A411B"/>
<path d="M168.572 117.514C169.487 116.444 170.331 115.371 171.146 114.334C174.185 110.47 176.929 106.98 181.652 106.014C177.851 106.282 172.596 108.014 166.25 113.563C156.551 122.045 148.593 124.337 144.602 124.943L146.635 125.621L152.784 126.635C156.334 125.513 164.248 122.569 168.572 117.514Z" fill="#FAD016"/>
<path d="M142.135 125.304C142.079 125.175 142.029 125.05 141.972 124.919L141.779 125.186L142.135 125.304Z" fill="#7B441C"/>
<path d="M165.511 112.718C154.061 122.73 145.233 123.896 142.626 124.02L142.018 124.858L146.636 125.621L144.603 124.943C148.593 124.337 156.55 122.044 166.251 113.562C172.597 108.014 177.852 106.282 181.653 106.014C176.93 106.98 174.186 110.47 171.147 114.333C170.331 115.371 169.488 116.444 168.573 117.514C164.249 122.57 156.335 125.513 152.785 126.635L155.133 127.023C159.235 125.541 165.63 122.68 169.426 118.242C170.356 117.155 171.207 116.073 172.03 115.027C176.233 109.682 179.554 105.463 188.283 107.317C188.585 107.385 188.888 107.216 188.995 106.922L189.134 106.395L188.703 106.166C188.297 105.951 187.447 105.555 186.202 105.256C182.45 104.355 175.109 104.325 165.511 112.718Z" fill="#7B441C"/>
<path d="M166.937 151.855C179.662 152.652 184.855 157.841 186.885 161.123C185.624 157.453 182.145 151.433 172.693 149.623C164.293 148.015 159.66 144.106 157.419 141.524L143.035 144.036C145.339 146.011 152.466 150.948 166.937 151.855Z" fill="#7A411B"/>
<path d="M141.316 143.371C141.35 143.414 141.396 143.453 141.43 143.495L141.569 143.372C141.647 143.314 141.736 143.285 141.826 143.269C141.832 143.25 141.836 143.232 141.842 143.213L141.511 143.313L141.316 143.371Z" fill="#7A411B"/>
<path d="M165.733 157.415C167.136 157.299 168.491 157.131 169.8 156.969C171.856 156.715 173.828 156.471 175.723 156.471C178.327 156.471 180.787 156.931 183.122 158.459C180.234 155.973 175.282 153.502 166.866 152.974C154.005 152.169 146.74 148.194 143.48 145.816L143.618 146.088L148.318 152.891C151.722 154.625 159.235 157.964 165.733 157.415Z" fill="#FAD016"/>
<path d="M166.937 151.855C152.465 150.948 145.339 146.012 143.034 144.038L142.291 144.167L143.619 146.087L143.481 145.815C146.741 148.194 154.006 152.168 166.867 152.973C175.281 153.501 180.234 155.973 183.123 158.458C180.787 156.93 178.328 156.47 175.724 156.47C173.828 156.47 171.857 156.714 169.801 156.968C168.491 157.131 167.137 157.297 165.733 157.414C159.235 157.963 151.723 154.624 148.32 152.89L149.609 154.756C153.575 156.585 160.059 159.004 165.826 158.533C167.253 158.415 168.618 158.246 169.939 158.082C176.687 157.246 182.019 156.586 186.908 164.048C187.027 164.232 187.222 164.332 187.427 164.332C187.516 164.332 187.606 164.314 187.692 164.273L188.165 163.997L188.019 163.53C187.883 163.09 187.557 162.211 186.883 161.122C184.855 157.841 179.661 152.652 166.937 151.855Z" fill="#7B441C"/>
<path d="M141.43 143.495L141.167 143.729L141.265 143.923L141.766 144.913C141.867 144.68 141.969 144.446 142.067 144.207L141.496 144.307L141.72 143.627C141.76 143.506 141.786 143.391 141.825 143.271C141.735 143.286 141.647 143.315 141.568 143.373L141.43 143.495Z" fill="#7B441C"/>
<path d="M140.279 181.289C148.596 190.951 148.512 198.291 147.58 202.036C149.325 198.57 151.201 191.877 145.895 183.849C140.964 176.391 140.705 170.11 141.059 166.804L129.146 158.122C129.195 160.442 130.091 169.457 140.279 181.289Z" fill="#7A411B"/>
<path d="M135.46 184.314C136.523 185.237 137.589 186.089 138.62 186.913C142.462 189.981 145.929 192.752 146.86 197.484C146.619 193.68 144.928 188.411 139.429 182.022C131.023 172.258 128.792 164.281 128.216 160.286L128.021 160.858L126.569 168.801C127.735 172.503 130.584 180.077 135.46 184.314Z" fill="#FAD016"/>
<path d="M127.865 157.837C128.056 157.76 128.247 157.687 128.44 157.605L128.043 157.316L127.865 157.837Z" fill="#7B441C"/>
<path d="M140.279 181.289C130.092 169.457 129.196 160.443 129.147 158.122L128.594 157.718L128.02 160.857L128.215 160.285C128.791 164.28 131.022 172.257 139.428 182.021C144.927 188.409 146.618 193.679 146.858 197.482C145.928 192.752 142.459 189.98 138.619 186.912C137.588 186.087 136.522 185.236 135.459 184.312C130.583 180.075 127.733 172.502 126.568 168.799L126.151 171.076C127.626 175.193 130.405 181.408 134.722 185.159C135.802 186.098 136.878 186.958 137.918 187.788C143.231 192.033 147.428 195.386 145.503 204.096C145.433 204.401 145.596 204.704 145.89 204.814L146.417 204.96L146.65 204.53C146.869 204.125 147.272 203.279 147.581 202.035C148.513 198.291 148.597 190.951 140.279 181.289Z" fill="#7B441C"/>
<path d="M101.064 181.783C100.102 194.308 94.7359 199.391 91.3291 201.377C95.1278 200.163 101.345 196.785 103.311 187.491C105.028 179.378 108.983 174.854 111.668 172.617L109.413 158.239C107.378 160.452 102.165 167.429 101.064 181.783Z" fill="#7A411B"/>
<path d="M110.107 156.563C110.064 156.595 110.023 156.639 109.98 156.672L110.102 156.818C110.16 156.902 110.185 156.995 110.198 157.09L110.203 157.092C110.227 157.101 110.249 157.107 110.273 157.115L110.202 156.879L110.107 156.563Z" fill="#7A411B"/>
<path d="M95.3465 180.531C95.4507 181.917 95.6082 183.256 95.7598 184.552C96.3294 189.39 96.8444 193.758 94.0664 197.724C96.6715 194.904 99.2945 190.037 99.9339 181.698C100.802 170.386 104.209 163.496 106.702 159.865L99.2057 165.327C97.3466 169.119 94.9463 175.165 95.3465 180.531Z" fill="#FAD016"/>
<path d="M101.064 181.783C102.166 167.429 107.378 160.452 109.414 158.239L109.364 157.926L106.704 159.865C104.209 163.498 100.803 170.386 99.9358 181.698C99.2964 190.035 96.6734 194.904 94.0683 197.724C96.8463 193.758 96.3313 189.391 95.7617 184.552C95.6089 183.256 95.4514 181.917 95.3484 180.53C94.9482 175.165 97.3484 169.119 99.2099 165.326L97.3235 166.699C95.6113 170.578 93.8635 175.837 94.2188 180.613C94.3242 182.025 94.4829 183.376 94.6368 184.683C95.4219 191.35 96.0424 196.615 88.2969 201.364C88.0293 201.53 87.9274 201.86 88.0541 202.147L88.3229 202.63L88.7978 202.495C89.2572 202.363 90.1833 202.045 91.3307 201.376C94.7375 199.391 100.104 194.308 101.064 181.783Z" fill="#7B441C"/>
<path d="M110.101 156.818L109.979 156.672L109.749 156.398L109.419 156.555L109.27 156.626C109.429 156.705 109.575 156.792 109.738 156.87L110.196 157.091C110.185 156.995 110.159 156.902 110.101 156.818Z" fill="#7B441C"/>
<path d="M95.9329 144.188L95.6688 144.142C95.6369 144.146 95.606 144.158 95.5729 144.158C95.5729 144.158 95.5706 144.158 95.5682 144.158C93.7601 144.158 84.1567 144.701 71.4603 155.341C64.0346 161.564 57.9221 163.097 53.703 163.097C52.3058 163.097 51.1322 162.926 50.1719 162.705C53.7634 164.4 60.6681 166.186 68.8836 160.892C77.6084 155.271 84.8019 155.666 87.6664 156.149L95.9329 144.188Z" fill="#7A411B"/>
<path d="M96.334 143.456C96.3411 143.479 96.3458 143.5 96.3529 143.522L96.3896 143.458C96.3719 143.456 96.3517 143.458 96.334 143.456Z" fill="#7A411B"/>
<path d="M68.3077 150.604C67.3639 151.661 66.4948 152.722 65.6529 153.746C62.5599 157.516 59.7618 160.925 55.0039 161.926C58.9139 161.625 64.2769 159.886 70.7352 154.474C79.7868 146.887 87.3557 144.321 91.756 143.459L83.3274 141.989C79.2954 143.313 72.3231 146.106 68.3077 150.604Z" fill="#FAD016"/>
<path d="M71.4611 155.342C84.1575 144.702 93.7597 144.159 95.569 144.159H95.5738C95.6081 144.159 95.6377 144.148 95.6696 144.143L91.7561 143.459C87.3547 144.321 79.7868 146.887 70.7352 154.474C64.2781 159.886 58.9141 161.625 55.0041 161.926C59.7619 160.925 62.5588 157.516 65.6529 153.746C66.4948 152.722 67.3641 151.661 68.3078 150.604C72.3232 146.106 79.2954 143.313 83.3285 141.988L81.0396 141.588C76.8442 143.137 71.0444 145.837 67.4635 149.849C66.5044 150.924 65.6268 151.994 64.7778 153.027C60.4427 158.312 57.0194 162.487 48.0021 160.646C47.6919 160.577 47.3853 160.758 47.2834 161.052L47.1484 161.586L47.5889 161.811C48.0069 162.024 48.895 162.41 50.1738 162.705C51.1342 162.927 52.3089 163.097 53.705 163.097C57.9229 163.098 64.0354 161.565 71.4611 155.342Z" fill="#7B441C"/>
<path d="M70.0125 116.676C56.8532 115.886 51.5139 110.72 49.4404 107.479C50.7323 111.102 54.3132 117.075 64.0788 118.866C73.4335 120.583 78.2635 124.956 80.3393 127.456L95.3306 124.982C94.0055 123.731 86.7906 117.681 70.0125 116.676Z" fill="#7A411B"/>
<path d="M96.4159 125.044C96.3803 125 96.339 124.959 96.3022 124.915L96.1577 125.046C96.1257 125.07 96.0903 125.083 96.0548 125.1C96.0465 125.118 96.0405 125.135 96.0322 125.154L96.4159 125.044Z" fill="#7A411B"/>
<path d="M71.2459 111.181C69.7989 111.296 68.4017 111.461 67.0517 111.622C62.0369 112.219 57.5088 112.755 53.3584 110.163C56.3424 112.606 61.4425 115.025 70.0796 115.545C83.3597 116.343 90.8482 120.285 94.1946 122.632L91.6119 117.739L90.609 116.363C88.3604 115.171 79.079 110.555 71.2459 111.181Z" fill="#FAD016"/>
<path d="M70.0121 116.676C86.7901 117.682 94.0063 123.731 95.3289 124.984L96.1626 124.846C96.1247 124.933 96.0928 125.016 96.0549 125.101C96.0892 125.084 96.1258 125.071 96.1578 125.048L96.3023 124.916L96.5592 124.683L96.262 124.119L91.6144 117.739L94.1968 122.632C90.8505 120.285 83.362 116.342 70.0819 115.545C61.4448 115.026 56.3447 112.606 53.3607 110.163C57.5111 112.755 62.0392 112.22 67.054 111.622C68.4051 111.462 69.8012 111.296 71.2482 111.181C79.0813 110.555 88.3626 115.171 90.6125 116.362L89.1715 114.383C85.3313 112.574 77.7741 109.541 71.1595 110.052C69.6888 110.168 68.2809 110.336 66.9203 110.497C59.954 111.325 54.4537 111.977 49.4116 104.601C49.2352 104.341 48.9001 104.251 48.6147 104.388L48.1445 104.67L48.2962 105.137C48.4347 105.566 48.7651 106.421 49.4424 107.479C51.5135 110.721 56.8515 115.885 70.0121 116.676Z" fill="#7B441C"/>
<path d="M97.5032 87.6013C88.8922 78.0168 89.013 70.7367 89.984 67.041C88.1793 70.4513 86.2031 77.0895 91.6963 85.0552C96.6353 92.2157 97.0285 98.2821 96.7099 101.615L108.957 110.106C108.813 107.336 107.502 98.7322 97.5032 87.6013Z" fill="#7A411B"/>
<path d="M109.683 111.399L109.488 111.382C109.452 111.376 109.423 111.358 109.39 111.346C109.371 111.354 109.353 111.361 109.334 111.369L109.675 111.552C109.681 111.502 109.677 111.447 109.683 111.399Z" fill="#7A411B"/>
<path d="M102.47 84.6151C101.374 83.7021 100.276 82.86 99.2129 82.0465C95.2058 78.9772 91.593 76.2101 90.6836 71.4297C90.892 75.1917 92.6018 80.4491 98.3461 86.8434C106.534 95.9601 109.039 103.5 109.792 107.637L111.329 99.0459C109.971 95.169 107.109 88.4766 102.47 84.6151Z" fill="#FAD016"/>
<path d="M110.189 110.96L110.195 110.964L110.199 110.956L110.189 110.96Z" fill="#7B441C"/>
<path d="M97.5033 87.6014C107.502 98.7323 108.813 107.336 108.959 110.107L109.307 110.349L109.792 107.637C109.039 103.5 106.535 95.9601 98.3465 86.8434C92.6022 80.4491 90.8924 75.1917 90.684 71.4297C91.5934 76.2101 95.2062 78.9772 99.2133 82.0465C100.277 82.86 101.376 83.7021 102.471 84.6151C107.109 88.4766 109.972 95.1693 111.329 99.0473L111.721 96.8554C110.133 92.8128 107.354 87.207 103.195 83.7458C102.081 82.8186 100.973 81.9697 99.9012 81.1491C94.4293 76.9584 90.1084 73.6486 92.0882 65.0612C92.1605 64.7557 91.9996 64.4516 91.7071 64.3367L91.1766 64.1826L90.9349 64.6113C90.7111 65.008 90.3026 65.8345 89.9852 67.0435C89.013 70.7368 88.8923 78.017 97.5033 87.6014Z" fill="#7B441C"/>
<path d="M109.683 111.399L110.029 111.429L110.178 111.011C109.908 111.12 109.65 111.234 109.389 111.345C109.422 111.357 109.451 111.375 109.487 111.382L109.683 111.399Z" fill="#7B441C"/>
<path d="M111.328 99.0474L109.791 107.638L109.306 110.35L110.188 110.961C110.191 110.96 110.194 110.958 110.197 110.957C113.318 109.728 116.181 109.123 118.685 109.384L118.654 58.0986L111.72 96.8543L111.328 99.0474Z" fill="#7A411B"/>
<path d="M127.499 110.832L119.516 61.1562L119.544 109.287C122.009 109.396 124.68 109.915 127.499 110.832Z" fill="#FAD016"/>
<path d="M118.685 109.384V110.119L119.103 110.129C121.789 110.199 124.748 110.784 127.893 111.869L128.571 112.104L128.484 111.57L128.445 111.326C128.428 111.319 128.413 111.312 128.397 111.306L128.437 111.277L128.271 110.242L125.934 95.7011L119.504 55.6963L118.652 55.7636L118.654 58.0978L118.685 109.384ZM119.514 61.1565L127.498 110.832C124.678 109.916 122.008 109.396 119.543 109.287L119.514 61.1565Z" fill="#7B441C"/>
<path d="M137.364 105.064L133.023 108.085L128.439 111.277L128.398 111.305C128.415 111.312 128.43 111.319 128.447 111.325C128.545 111.364 128.638 111.407 128.735 111.447C132.145 112.851 134.784 114.495 136.484 116.603L172.781 80.4111L139.314 103.707L137.364 105.064Z" fill="#7A411B"/>
<path d="M171.239 83.1602L137.156 117.144C138.818 118.967 140.333 121.225 141.674 123.871L171.239 83.1602Z" fill="#FAD016"/>
<path d="M136.484 116.603L135.963 117.123L136.25 117.427C136.734 117.939 137.204 118.494 137.663 119.081C138.955 120.732 140.149 122.673 141.219 124.884L141.282 125.014L141.531 125.528L141.778 125.187L141.971 124.921C141.961 124.896 141.951 124.871 141.941 124.846L142.016 124.859L142.625 124.021L151.299 112.077L175.1 79.3029L174.45 78.7476L172.779 80.4136L136.484 116.603ZM141.675 123.87C140.335 121.226 138.818 118.967 137.158 117.143L171.241 83.1597L141.675 123.87Z" fill="#7B441C"/>
<path d="M152.784 126.635L146.634 125.62L142.016 124.858L141.94 124.845C141.951 124.87 141.961 124.894 141.971 124.919C142.029 125.048 142.079 125.175 142.133 125.304C143.572 128.645 144.323 131.711 144.081 134.384L195.356 133.661L155.13 127.022L152.784 126.635Z" fill="#7A411B"/>
<path d="M192.317 134.562L144.191 135.241C144.115 137.705 143.632 140.383 142.752 143.214L192.317 134.562Z" fill="#FAD016"/>
<path d="M197.695 133.628L195.357 133.661L144.082 134.384L143.347 134.395L143.342 134.813C143.31 137.38 142.796 140.208 141.842 143.213C141.836 143.232 141.831 143.25 141.825 143.269C141.787 143.389 141.76 143.505 141.72 143.626L141.496 144.305L142.067 144.206C142.099 144.129 142.132 144.058 142.163 143.981L142.292 144.167L143.034 144.038L157.418 141.526L197.776 134.479L197.695 133.628ZM142.752 143.216C143.632 140.383 144.114 137.706 144.191 135.242L192.317 134.563L142.752 143.216Z" fill="#7B441C"/>
<path d="M101.449 152.149C99.3156 150.431 97.6034 147.687 96.1836 144.233L95.9326 144.189L87.6673 156.15L65.293 188.527L101.449 152.149Z" fill="#7A411B"/>
<path d="M108.728 157.327C106.08 155.992 103.819 154.48 101.991 152.821L68.0576 186.962L108.728 157.327Z" fill="#FAD016"/>
<path d="M99.2085 165.326L106.705 159.863L109.365 157.925L109.18 156.748L109.856 156.984C109.973 157.025 110.086 157.053 110.202 157.092L110.197 157.09L109.74 156.869C109.577 156.79 109.431 156.704 109.271 156.625C106.486 155.234 104.124 153.655 102.273 151.912L101.969 151.626L101.45 152.147L65.2925 188.526L63.6465 190.181L64.203 190.83L97.321 166.698L99.2085 165.326ZM101.991 152.821C103.82 154.48 106.081 155.992 108.728 157.327L68.0574 186.962L101.991 152.821Z" fill="#7B441C"/>
<path d="M102.051 116.347C103.664 114.352 106.179 112.729 109.334 111.369C109.353 111.361 109.372 111.354 109.39 111.346C109.651 111.233 109.909 111.119 110.179 111.012C110.197 111.005 110.212 110.997 110.23 110.99L110.195 110.965L110.189 110.961L109.307 110.35L108.958 110.108L96.7109 101.618L65.7256 80.1377L102.051 116.347Z" fill="#7A411B"/>
<path d="M96.6727 123.227C98.0723 120.557 99.8035 118.56 101.375 116.884L67.3203 82.937L96.6727 123.227Z" fill="#FAD016"/>
<path d="M90.6104 116.363L91.6133 117.739L96.2611 124.119L96.8142 124.878L97.1255 124.235C97.7188 123.012 98.3771 121.945 99.0687 120.976C100.101 119.529 101.207 118.309 102.285 117.17L102.519 116.922L102.571 116.866L102.05 116.347L65.7258 80.1377L64.0727 78.4893L63.4238 79.0458L89.1693 114.384L90.6104 116.363ZM101.375 116.884C99.804 118.559 98.0729 120.557 96.6732 123.227L67.3208 82.9367L101.375 116.884Z" fill="#7B441C"/>
<path d="M94.0208 134.384C93.7745 131.671 94.5501 128.553 96.0326 125.154C96.0409 125.136 96.0481 125.118 96.0552 125.099C96.0919 125.014 96.125 124.931 96.1629 124.845L95.3293 124.982L80.338 127.456L42.7334 133.661L94.0208 134.384Z" fill="#7A411B"/>
<path d="M95.3516 143.216C94.473 140.385 93.9886 137.707 93.9128 135.242L45.7764 134.563L95.3516 143.216Z" fill="#FAD016"/>
<path d="M83.3279 141.988L91.7566 143.459L95.6701 144.142L95.9342 144.188L96.1853 144.232L96.6079 144.305L96.3842 143.626C96.3723 143.59 96.3652 143.557 96.3534 143.523C96.3463 143.5 96.3416 143.479 96.3345 143.456C95.3291 140.359 94.7951 137.45 94.7619 134.813L94.7571 134.395L94.0218 134.384L42.7344 133.661L40.3958 133.628L40.3164 134.479L81.0401 141.589L83.3279 141.988ZM93.9117 135.242C93.9886 137.707 94.4717 140.386 95.3504 143.216L45.7741 134.562L93.9117 135.242Z" fill="#7B441C"/>
<path d="M148.32 152.891L143.62 146.088L142.293 144.168L142.163 143.981C142.133 144.058 142.098 144.131 142.067 144.207C141.969 144.447 141.868 144.679 141.767 144.912C140.405 148.047 138.782 150.545 136.791 152.149L172.939 188.527L149.608 154.757L148.32 152.891Z" fill="#7A411B"/>
<path d="M170.177 186.962L136.251 152.821C134.425 154.479 132.163 155.991 129.516 157.327L170.177 186.962Z" fill="#FAD016"/>
<path d="M136.791 152.149L136.272 151.628L135.968 151.915C134.013 153.757 131.501 155.424 128.503 156.87L127.857 157.182L128.042 157.317L128.439 157.606C128.502 157.58 128.564 157.557 128.627 157.53L128.593 157.718L129.146 158.122L141.058 166.804L174.026 190.833L174.582 190.184L172.938 188.528L136.791 152.149ZM129.515 157.327C132.163 155.991 134.425 154.479 136.251 152.822L170.176 186.963L129.515 157.327Z" fill="#7B441C"/>
<path d="M126.569 168.8L128.021 160.857L128.595 157.717L128.629 157.529C128.566 157.557 128.504 157.579 128.441 157.605C128.248 157.687 128.058 157.76 127.867 157.837C124.619 159.137 121.644 159.786 119.056 159.507L118.894 210.792L126.153 171.078L126.569 168.8Z" fill="#7A411B"/>
<path d="M118.044 207.73L118.197 159.599C115.734 159.481 113.065 158.95 110.248 158.024L118.044 207.73Z" fill="#FAD016"/>
<path d="M119.056 159.506L119.058 158.771L118.641 158.759C116.077 158.683 113.26 158.121 110.273 157.115C110.25 157.107 110.227 157.102 110.204 157.093C110.086 157.054 109.975 157.025 109.858 156.984L109.182 156.748L109.366 157.925L109.416 158.238L111.671 172.616L118.036 213.188L118.888 213.122L118.895 210.789L119.056 159.506ZM110.249 158.025C113.066 158.952 115.735 159.481 118.198 159.6L118.045 207.73L110.249 158.025Z" fill="#7B441C"/>
<path d="M128.714 123.173C129.922 123.163 131.139 123.395 132.409 123.674C133.031 123.846 133.665 124.046 134.325 124.219C134.965 124.44 135.613 124.672 136.334 124.832C135.887 124.27 135.366 123.78 134.841 123.279C134.262 122.865 133.674 122.425 133.027 122.086C131.723 121.422 130.243 120.979 128.691 120.99C127.15 121.018 125.59 121.49 124.354 122.377C123.111 123.237 122.144 124.459 121.738 125.854C122.882 124.987 124.012 124.318 125.175 123.862C126.341 123.419 127.511 123.196 128.714 123.173Z" fill="#7A411B"/>
<path d="M105.029 123.404C106.24 123.101 107.429 123.019 108.626 123.137C109.827 123.27 111.008 123.645 112.235 124.07C112.833 124.317 113.439 124.589 114.073 124.838C114.684 125.132 115.299 125.439 115.996 125.683C115.619 125.073 115.16 124.525 114.696 123.966C114.17 123.487 113.638 122.981 113.036 122.568C111.819 121.755 110.401 121.14 108.861 120.969C107.326 120.815 105.722 121.099 104.391 121.834C103.055 122.541 101.951 123.639 101.383 124.978C102.619 124.25 103.819 123.72 105.029 123.404Z" fill="#7A411B"/>
<path d="M132.549 126.383C131.592 125.75 130.469 125.359 129.302 125.186C128.122 125.106 126.918 125.323 125.882 125.848C124.848 126.371 123.958 127.14 123.352 128.088L123.394 128.123C124.274 127.164 125.413 126.424 126.653 126.025C127.193 125.647 127.905 125.412 128.693 125.412C129.52 125.412 130.267 125.666 130.815 126.075C131.342 126.25 131.854 126.477 132.34 126.752C132.821 127.013 133.252 127.358 133.71 127.657L134.95 128.741L134.988 128.702C134.647 128.263 134.261 127.86 133.888 127.431C133.446 127.083 133.027 126.696 132.549 126.383Z" fill="#7A411B"/>
<path d="M132.964 129.691C132.556 129.906 132.18 130.165 131.768 130.344C130.955 130.726 130.115 131.012 129.249 131.082C128.386 131.194 127.514 131.04 126.678 130.757C126.258 130.617 125.847 130.429 125.456 130.2C125.047 129.994 124.675 129.725 124.298 129.444L124.263 129.473C125.525 130.847 127.4 131.713 129.292 131.539C130.226 131.427 131.127 131.117 131.943 130.655C132.355 130.433 132.722 130.138 133.113 129.883L134.17 128.962L134.139 128.929C133.723 129.169 133.351 129.444 132.964 129.691Z" fill="#7A411B"/>
<path d="M126.653 126.024C126.045 126.448 125.658 127.052 125.658 127.731C125.658 129.012 127.016 130.049 128.693 130.049C130.37 130.049 131.728 129.011 131.728 127.731C131.728 127.082 131.376 126.496 130.814 126.075C130.267 125.666 129.519 125.412 128.692 125.412C127.905 125.412 127.192 125.647 126.653 126.024Z" fill="#7A411B"/>
<path d="M108.811 125.344C109.638 125.344 110.385 125.598 110.933 126.007C111.46 126.181 111.972 126.408 112.458 126.683C112.939 126.945 113.37 127.289 113.828 127.589L115.068 128.672L115.106 128.633C114.765 128.194 114.379 127.791 114.006 127.363C113.567 127.016 113.146 126.629 112.668 126.316C111.711 125.682 110.589 125.292 109.421 125.119C108.242 125.038 107.037 125.255 106.001 125.781C104.966 126.304 104.077 127.073 103.471 128.021L103.513 128.056C104.393 127.096 105.531 126.356 106.771 125.957C107.311 125.58 108.023 125.344 108.811 125.344Z" fill="#7A411B"/>
<path d="M112.06 130.588C112.472 130.365 112.839 130.07 113.23 129.816L114.287 128.894L114.255 128.861C113.842 129.102 113.47 129.375 113.082 129.623C112.676 129.838 112.298 130.096 111.886 130.275C111.073 130.657 110.233 130.943 109.367 131.013C108.504 131.125 107.632 130.971 106.796 130.688C106.376 130.549 105.965 130.36 105.574 130.132C105.165 129.926 104.792 129.656 104.416 129.375L104.381 129.405C105.643 130.778 107.518 131.644 109.41 131.47C110.343 131.36 111.244 131.05 112.06 130.588Z" fill="#7A411B"/>
<path d="M106.772 125.956C106.165 126.379 105.777 126.983 105.777 127.662C105.777 128.943 107.136 129.98 108.812 129.98C110.489 129.98 111.847 128.942 111.847 127.662C111.847 127.013 111.496 126.428 110.933 126.006C110.386 125.597 109.638 125.343 108.811 125.343C108.024 125.343 107.312 125.579 106.772 125.956Z" fill="#7A411B"/>
<path d="M120.896 143.725C119.166 144.815 116.211 143.997 114.801 143.542C113.721 143.193 108.8 145.362 108.8 145.362C110.53 147.319 114.349 149.229 118.987 149.229C123.625 149.229 129.9 145.636 129.716 145.409C129.534 145.179 122.168 142.92 120.896 143.725ZM125.526 145.776C125.285 145.931 119.414 149.641 111.847 145.68C111.847 145.68 124.636 146.177 125.526 145.776Z" fill="#7A411B"/>
<path d="M129.575 143.392L129.402 143.603C129.42 143.617 131.194 145.097 131.676 146.897L131.94 146.827C131.434 144.941 129.651 143.455 129.575 143.392Z" fill="#7A411B"/>
<path d="M106.027 146.989L106.3 147.005C106.431 144.83 108.132 143.666 108.149 143.655L107.998 143.428C107.922 143.479 106.166 144.676 106.027 146.989Z" fill="#7A411B"/>
<path d="M114.893 138.632C113.665 138.132 115.12 135.721 115.12 135.721C115.12 135.721 113.347 137.54 113.438 138.813C113.438 138.813 109.845 139.858 109.709 141.314C109.709 141.314 115.348 138.632 117.029 140.359C118.711 142.087 121.03 140.451 121.03 140.451C121.03 140.451 123.44 138.268 127.669 141.451C127.669 141.451 126.94 139.45 124.577 138.54C124.577 138.54 123.895 136.449 122.576 135.904C122.576 135.904 123.895 137.631 123.394 138.268C122.894 138.905 121.484 138.359 121.212 138.041C121.212 138.041 120.848 139.86 119.165 139.814C119.165 139.814 116.255 139.86 116.892 137.95C116.894 137.95 116.121 139.132 114.893 138.632Z" fill="#7A411B"/>
</g>
<defs>
<clipPath id="clip0_468_21800">
<rect width="500" height="500" fill="white"/>
</clipPath>
</defs>
</svg>
