<svg width="500" height="500" viewBox="0 0 500 500" fill="none" xmlns="http://www.w3.org/2000/svg">
<g clip-path="url(#clip0_670_46)">
<mask id="mask0_670_46" style="mask-type:luminance" maskUnits="userSpaceOnUse" x="-143" y="0" width="858" height="500">
<path d="M714.198 0H-143V500H714.198V0Z" fill="white"/>
</mask>
<g mask="url(#mask0_670_46)">
<path d="M714.198 461.547H-143V500.005H714.198V461.547Z" fill="#CB001C"/>
</g>
<mask id="mask1_670_46" style="mask-type:luminance" maskUnits="userSpaceOnUse" x="-143" y="0" width="858" height="500">
<path d="M714.198 0H-143V500H714.198V0Z" fill="white"/>
</mask>
<g mask="url(#mask1_670_46)">
<path d="M714.198 423.079H-143V461.547H714.198V423.079Z" fill="white"/>
</g>
<mask id="mask2_670_46" style="mask-type:luminance" maskUnits="userSpaceOnUse" x="-143" y="0" width="858" height="500">
<path d="M714.198 0H-143V500H714.198V0Z" fill="white"/>
</mask>
<g mask="url(#mask2_670_46)">
<path d="M714.198 384.68H-143V423.079H714.198V384.68Z" fill="#CB001C"/>
</g>
<mask id="mask3_670_46" style="mask-type:luminance" maskUnits="userSpaceOnUse" x="-143" y="0" width="858" height="500">
<path d="M714.198 0H-143V500H714.198V0Z" fill="white"/>
</mask>
<g mask="url(#mask3_670_46)">
<path d="M714.198 346.174H-143V384.68H714.198V346.174Z" fill="white"/>
</g>
<mask id="mask4_670_46" style="mask-type:luminance" maskUnits="userSpaceOnUse" x="-143" y="0" width="858" height="500">
<path d="M714.198 0H-143V500H714.198V0Z" fill="white"/>
</mask>
<g mask="url(#mask4_670_46)">
<path d="M714.198 307.706H-143V346.174H714.198V307.706Z" fill="#CB001C"/>
</g>
<mask id="mask5_670_46" style="mask-type:luminance" maskUnits="userSpaceOnUse" x="-143" y="0" width="858" height="500">
<path d="M714.198 0H-143V500H714.198V0Z" fill="white"/>
</mask>
<g mask="url(#mask5_670_46)">
<path d="M714.198 269.258H-143V307.706H714.198V269.258Z" fill="white"/>
</g>
<mask id="mask6_670_46" style="mask-type:luminance" maskUnits="userSpaceOnUse" x="-143" y="0" width="858" height="500">
<path d="M714.198 0H-143V500H714.198V0Z" fill="white"/>
</mask>
<g mask="url(#mask6_670_46)">
<path d="M714.198 230.742H-143V269.258H714.198V230.742Z" fill="#CB001C"/>
</g>
<mask id="mask7_670_46" style="mask-type:luminance" maskUnits="userSpaceOnUse" x="-143" y="0" width="858" height="500">
<path d="M714.198 0H-143V500H714.198V0Z" fill="white"/>
</mask>
<g mask="url(#mask7_670_46)">
<path d="M714.198 192.333H-143V230.742H714.198V192.333Z" fill="white"/>
</g>
<mask id="mask8_670_46" style="mask-type:luminance" maskUnits="userSpaceOnUse" x="-143" y="0" width="858" height="500">
<path d="M714.198 0H-143V500H714.198V0Z" fill="white"/>
</mask>
<g mask="url(#mask8_670_46)">
<path d="M714.198 153.89H-143V192.338H714.198V153.89Z" fill="#CB001C"/>
</g>
<mask id="mask9_670_46" style="mask-type:luminance" maskUnits="userSpaceOnUse" x="-143" y="0" width="858" height="500">
<path d="M714.198 0H-143V500H714.198V0Z" fill="white"/>
</mask>
<g mask="url(#mask9_670_46)">
<path d="M714.198 115.422H-143V153.889H714.198V115.422Z" fill="white"/>
</g>
<mask id="mask10_670_46" style="mask-type:luminance" maskUnits="userSpaceOnUse" x="-143" y="0" width="858" height="500">
<path d="M714.198 0H-143V500H714.198V0Z" fill="white"/>
</mask>
<g mask="url(#mask10_670_46)">
<path d="M714.198 76.916H-143V115.422H714.198V76.916Z" fill="#CB001C"/>
</g>
<mask id="mask11_670_46" style="mask-type:luminance" maskUnits="userSpaceOnUse" x="-143" y="0" width="858" height="500">
<path d="M714.198 0H-143V500H714.198V0Z" fill="white"/>
</mask>
<g mask="url(#mask11_670_46)">
<path d="M714.198 38.5068H-143V76.916H714.198V38.5068Z" fill="white"/>
</g>
<mask id="mask12_670_46" style="mask-type:luminance" maskUnits="userSpaceOnUse" x="-143" y="0" width="858" height="500">
<path d="M714.198 0H-143V500H714.198V0Z" fill="white"/>
</mask>
<g mask="url(#mask12_670_46)">
<path d="M714.198 0H-143V38.5064H714.198V0Z" fill="#CB001C"/>
</g>
<mask id="mask13_670_46" style="mask-type:luminance" maskUnits="userSpaceOnUse" x="-143" y="0" width="858" height="500">
<path d="M714.198 0H-143V500H714.198V0Z" fill="white"/>
</mask>
<g mask="url(#mask13_670_46)">
<path d="M248.457 0H-143V269.258H248.457V0Z" fill="#2A3560"/>
</g>
<mask id="mask14_670_46" style="mask-type:luminance" maskUnits="userSpaceOnUse" x="-143" y="0" width="858" height="500">
<path d="M714.198 0H-143V500H714.198V0Z" fill="white"/>
</mask>
<g mask="url(#mask14_670_46)">
<path d="M-13.3592 53.3711L-10.0676 63.5463H0.70462L-8.019 69.8426L-4.67438 80.008L-13.3592 73.731L-21.9954 80.008L-18.6505 69.8426L-27.3792 63.5463H-16.6552L-13.3592 53.3711Z" fill="white"/>
</g>
<mask id="mask15_670_46" style="mask-type:luminance" maskUnits="userSpaceOnUse" x="-143" y="0" width="858" height="500">
<path d="M714.198 0H-143V500H714.198V0Z" fill="white"/>
</mask>
<g mask="url(#mask15_670_46)">
<path d="M-13.3592 98.3047L-10.0676 108.441H0.70462L-8.019 114.776L-4.67438 124.893L-13.3592 118.718L-21.9954 124.893L-18.6505 114.776L-27.3792 108.441H-16.6552L-13.3592 98.3047Z" fill="white"/>
</g>
<mask id="mask16_670_46" style="mask-type:luminance" maskUnits="userSpaceOnUse" x="-143" y="0" width="858" height="500">
<path d="M714.198 0H-143V500H714.198V0Z" fill="white"/>
</mask>
<g mask="url(#mask16_670_46)">
<path d="M-13.3592 143.258L-10.0676 153.433H0.70462L-8.019 159.71L-4.67438 169.88L-13.3592 163.603L-21.9954 169.88L-18.6505 159.71L-27.3792 153.433H-16.6552L-13.3592 143.258Z" fill="white"/>
</g>
<mask id="mask17_670_46" style="mask-type:luminance" maskUnits="userSpaceOnUse" x="-143" y="0" width="858" height="500">
<path d="M714.198 0H-143V500H714.198V0Z" fill="white"/>
</mask>
<g mask="url(#mask17_670_46)">
<path d="M-13.3592 188.25L-10.0676 198.386H0.70462L-8.019 204.658L-4.67438 214.785L-13.3592 208.503L-21.9954 214.785L-18.6505 204.658L-27.3792 198.386H-16.6552L-13.3592 188.25Z" fill="white"/>
</g>
<mask id="mask18_670_46" style="mask-type:luminance" maskUnits="userSpaceOnUse" x="-143" y="0" width="858" height="500">
<path d="M714.198 0H-143V500H714.198V0Z" fill="white"/>
</mask>
<g mask="url(#mask18_670_46)">
<path d="M18.3653 29.6709L21.715 39.9092H32.3222L23.6471 46.1863L27.0889 56.3612L18.3653 50.0844L9.68051 56.3612L12.9718 46.1863L4.38892 39.9092H15.069L18.3653 29.6709Z" fill="white"/>
</g>
<mask id="mask19_670_46" style="mask-type:luminance" maskUnits="userSpaceOnUse" x="-143" y="0" width="858" height="500">
<path d="M714.198 0H-143V500H714.198V0Z" fill="white"/>
</mask>
<g mask="url(#mask19_670_46)">
<path d="M18.3653 74.6191L21.715 84.794H32.3222L23.6471 91.0711L27.0889 101.256L18.3653 94.9692L9.68051 101.256L12.9718 91.0711L4.38892 84.794H15.069L18.3653 74.6191Z" fill="white"/>
</g>
<mask id="mask20_670_46" style="mask-type:luminance" maskUnits="userSpaceOnUse" x="-143" y="0" width="858" height="500">
<path d="M714.198 0H-143V500H714.198V0Z" fill="white"/>
</mask>
<g mask="url(#mask20_670_46)">
<path d="M18.3653 119.611L21.715 129.738H32.3222L23.6471 136.024L27.0889 146.243L18.3653 139.908L9.68051 146.243L12.9718 136.024L4.38892 129.738H15.069L18.3653 119.611Z" fill="white"/>
</g>
<mask id="mask21_670_46" style="mask-type:luminance" maskUnits="userSpaceOnUse" x="-143" y="0" width="858" height="500">
<path d="M714.198 0H-143V500H714.198V0Z" fill="white"/>
</mask>
<g mask="url(#mask21_670_46)">
<path d="M18.3653 164.507L21.715 174.682H32.3222L23.6471 180.969L27.0889 191.139L18.3653 184.862L9.68051 191.139L12.9718 180.969L4.38892 174.682H15.069L18.3653 164.507Z" fill="white"/>
</g>
<mask id="mask22_670_46" style="mask-type:luminance" maskUnits="userSpaceOnUse" x="-143" y="0" width="858" height="500">
<path d="M714.198 0H-143V500H714.198V0Z" fill="white"/>
</mask>
<g mask="url(#mask22_670_46)">
<path d="M18.3653 209.45L21.715 219.669H32.3222L23.6471 225.907L27.0889 236.082L18.3653 229.796L9.68051 236.082L12.9718 225.907L4.38892 219.669H15.069L18.3653 209.45Z" fill="white"/>
</g>
<mask id="mask23_670_46" style="mask-type:luminance" maskUnits="userSpaceOnUse" x="-143" y="0" width="858" height="500">
<path d="M714.198 0H-143V500H714.198V0Z" fill="white"/>
</mask>
<g mask="url(#mask23_670_46)">
<path d="M49.6868 53.3711L52.9734 63.5463H63.6632L55.0317 69.8426L58.265 80.008L49.6868 73.731L41.0556 80.008L44.2885 69.8426L35.6621 63.5463H46.3372L49.6868 53.3711Z" fill="white"/>
</g>
<mask id="mask24_670_46" style="mask-type:luminance" maskUnits="userSpaceOnUse" x="-143" y="0" width="858" height="500">
<path d="M714.198 0H-143V500H714.198V0Z" fill="white"/>
</mask>
<g mask="url(#mask24_670_46)">
<path d="M49.6868 98.3047L52.9734 108.441H63.6632L55.0317 114.776L58.265 124.893L49.6868 118.718L41.0556 124.893L44.2885 114.776L35.6621 108.441H46.3372L49.6868 98.3047Z" fill="white"/>
</g>
<mask id="mask25_670_46" style="mask-type:luminance" maskUnits="userSpaceOnUse" x="-143" y="0" width="858" height="500">
<path d="M714.198 0H-143V500H714.198V0Z" fill="white"/>
</mask>
<g mask="url(#mask25_670_46)">
<path d="M49.6868 143.258L52.9734 153.433H63.6632L55.0317 159.71L58.265 169.88L49.6868 163.603L41.0556 169.88L44.2885 159.71L35.6621 153.433H46.3372L49.6868 143.258Z" fill="white"/>
</g>
<mask id="mask26_670_46" style="mask-type:luminance" maskUnits="userSpaceOnUse" x="-143" y="0" width="858" height="500">
<path d="M714.198 0H-143V500H714.198V0Z" fill="white"/>
</mask>
<g mask="url(#mask26_670_46)">
<path d="M49.6868 188.25L52.9734 198.386H63.6632L55.0317 204.658L58.265 214.785L49.6868 208.503L41.0556 214.785L44.2885 204.658L35.6621 198.386H46.3372L49.6868 188.25Z" fill="white"/>
</g>
<mask id="mask27_670_46" style="mask-type:luminance" maskUnits="userSpaceOnUse" x="-143" y="0" width="858" height="500">
<path d="M714.198 0H-143V500H714.198V0Z" fill="white"/>
</mask>
<g mask="url(#mask27_670_46)">
<path d="M81.3045 29.6709L84.6542 39.9092H95.3295L86.7028 46.1863L90.0477 56.3612L81.3045 50.0844L72.7267 56.3612L75.9791 46.1863L67.3477 39.9092H78.0277L81.3045 29.6709Z" fill="white"/>
</g>
<mask id="mask28_670_46" style="mask-type:luminance" maskUnits="userSpaceOnUse" x="-143" y="0" width="858" height="500">
<path d="M714.198 0H-143V500H714.198V0Z" fill="white"/>
</mask>
<g mask="url(#mask28_670_46)">
<path d="M81.3045 74.6191L84.6542 84.794H95.3295L86.7028 91.0711L90.0477 101.256L81.3045 94.9692L72.7267 101.256L75.9791 91.0711L67.3477 84.794H78.0277L81.3045 74.6191Z" fill="white"/>
</g>
<mask id="mask29_670_46" style="mask-type:luminance" maskUnits="userSpaceOnUse" x="-143" y="0" width="858" height="500">
<path d="M714.198 0H-143V500H714.198V0Z" fill="white"/>
</mask>
<g mask="url(#mask29_670_46)">
<path d="M81.3045 119.611L84.6542 129.738H95.3295L86.7028 136.024L90.0477 146.243L81.3045 139.908L72.7267 146.243L75.9791 136.024L67.3477 129.738H78.0277L81.3045 119.611Z" fill="white"/>
</g>
<mask id="mask30_670_46" style="mask-type:luminance" maskUnits="userSpaceOnUse" x="-143" y="0" width="858" height="500">
<path d="M714.198 0H-143V500H714.198V0Z" fill="white"/>
</mask>
<g mask="url(#mask30_670_46)">
<path d="M81.3045 164.507L84.6542 174.682H95.3295L86.7028 180.969L90.0477 191.139L81.3045 184.862L72.7267 191.139L75.9791 180.969L67.3477 174.682H78.0277L81.3045 164.507Z" fill="white"/>
</g>
<mask id="mask31_670_46" style="mask-type:luminance" maskUnits="userSpaceOnUse" x="-143" y="0" width="858" height="500">
<path d="M714.198 0H-143V500H714.198V0Z" fill="white"/>
</mask>
<g mask="url(#mask31_670_46)">
<path d="M81.3045 209.45L84.6542 219.669H95.3295L86.7028 225.907L90.0477 236.082L81.3045 229.796L72.7267 236.082L75.9791 225.907L67.3477 219.669H78.0277L81.3045 209.45Z" fill="white"/>
</g>
<mask id="mask32_670_46" style="mask-type:luminance" maskUnits="userSpaceOnUse" x="-143" y="0" width="858" height="500">
<path d="M714.198 0H-143V500H714.198V0Z" fill="white"/>
</mask>
<g mask="url(#mask32_670_46)">
<path d="M112.631 53.3711L115.932 63.5463H126.705L118.02 69.8426L121.321 80.008L112.631 73.731L104.004 80.008L107.354 69.8426L98.6741 63.5463H109.388L112.631 53.3711Z" fill="white"/>
</g>
<mask id="mask33_670_46" style="mask-type:luminance" maskUnits="userSpaceOnUse" x="-143" y="0" width="858" height="500">
<path d="M714.198 0H-143V500H714.198V0Z" fill="white"/>
</mask>
<g mask="url(#mask33_670_46)">
<path d="M112.631 98.3047L115.932 108.441H126.705L118.02 114.776L121.321 124.893L112.631 118.718L104.004 124.893L107.354 114.776L98.6741 108.441H109.388L112.631 98.3047Z" fill="white"/>
</g>
<mask id="mask34_670_46" style="mask-type:luminance" maskUnits="userSpaceOnUse" x="-143" y="0" width="858" height="500">
<path d="M714.198 0H-143V500H714.198V0Z" fill="white"/>
</mask>
<g mask="url(#mask34_670_46)">
<path d="M112.631 143.258L115.932 153.433H126.705L118.02 159.71L121.321 169.88L112.631 163.603L104.004 169.88L107.354 159.71L98.6741 153.433H109.388L112.631 143.258Z" fill="white"/>
</g>
<mask id="mask35_670_46" style="mask-type:luminance" maskUnits="userSpaceOnUse" x="-143" y="0" width="858" height="500">
<path d="M714.198 0H-143V500H714.198V0Z" fill="white"/>
</mask>
<g mask="url(#mask35_670_46)">
<path d="M112.631 188.25L115.932 198.386H126.705L118.02 204.658L121.321 214.785L112.631 208.503L104.004 214.785L107.354 204.658L98.6741 198.386H109.388L112.631 188.25Z" fill="white"/>
</g>
<mask id="mask36_670_46" style="mask-type:luminance" maskUnits="userSpaceOnUse" x="-143" y="0" width="858" height="500">
<path d="M714.198 0H-143V500H714.198V0Z" fill="white"/>
</mask>
<g mask="url(#mask36_670_46)">
<path d="M144.36 29.6709L147.696 39.9092H158.38L149.754 46.1863L152.997 56.3612L144.36 50.0844L135.778 56.3612L139.02 46.1863L130.384 39.9092H141.059L144.36 29.6709Z" fill="white"/>
</g>
<mask id="mask37_670_46" style="mask-type:luminance" maskUnits="userSpaceOnUse" x="-143" y="0" width="858" height="500">
<path d="M714.198 0H-143V500H714.198V0Z" fill="white"/>
</mask>
<g mask="url(#mask37_670_46)">
<path d="M144.36 74.6191L147.696 84.794H158.38L149.754 91.0711L152.997 101.256L144.36 94.9692L135.778 101.256L139.02 91.0711L130.384 84.794H141.059L144.36 74.6191Z" fill="white"/>
</g>
<mask id="mask38_670_46" style="mask-type:luminance" maskUnits="userSpaceOnUse" x="-143" y="0" width="858" height="500">
<path d="M714.198 0H-143V500H714.198V0Z" fill="white"/>
</mask>
<g mask="url(#mask38_670_46)">
<path d="M144.36 119.611L147.696 129.738H158.38L149.754 136.024L152.997 146.243L144.36 139.908L135.778 146.243L139.02 136.024L130.384 129.738H141.059L144.36 119.611Z" fill="white"/>
</g>
<mask id="mask39_670_46" style="mask-type:luminance" maskUnits="userSpaceOnUse" x="-143" y="0" width="858" height="500">
<path d="M714.198 0H-143V500H714.198V0Z" fill="white"/>
</mask>
<g mask="url(#mask39_670_46)">
<path d="M144.36 164.507L147.696 174.682H158.38L149.754 180.969L152.997 191.139L144.36 184.862L135.778 191.139L139.02 180.969L130.384 174.682H141.059L144.36 164.507Z" fill="white"/>
</g>
<mask id="mask40_670_46" style="mask-type:luminance" maskUnits="userSpaceOnUse" x="-143" y="0" width="858" height="500">
<path d="M714.198 0H-143V500H714.198V0Z" fill="white"/>
</mask>
<g mask="url(#mask40_670_46)">
<path d="M144.36 209.45L147.696 219.669H158.38L149.754 225.907L152.997 236.082L144.36 229.796L135.778 236.082L139.02 225.907L130.384 219.669H141.059L144.36 209.45Z" fill="white"/>
</g>
<mask id="mask41_670_46" style="mask-type:luminance" maskUnits="userSpaceOnUse" x="-143" y="0" width="858" height="500">
<path d="M714.198 0H-143V500H714.198V0Z" fill="white"/>
</mask>
<g mask="url(#mask41_670_46)">
<path d="M175.687 53.3711L178.92 63.5463H189.653L181.071 69.8426L184.265 80.008L175.687 73.731L166.963 80.008L170.289 69.8426L161.72 63.5463H172.337L175.687 53.3711Z" fill="white"/>
</g>
<mask id="mask42_670_46" style="mask-type:luminance" maskUnits="userSpaceOnUse" x="-143" y="0" width="858" height="500">
<path d="M714.198 0H-143V500H714.198V0Z" fill="white"/>
</mask>
<g mask="url(#mask42_670_46)">
<path d="M175.687 98.3047L178.92 108.441H189.653L181.071 114.776L184.265 124.893L175.687 118.718L166.963 124.893L170.289 114.776L161.72 108.441H172.337L175.687 98.3047Z" fill="white"/>
</g>
<mask id="mask43_670_46" style="mask-type:luminance" maskUnits="userSpaceOnUse" x="-143" y="0" width="858" height="500">
<path d="M714.198 0H-143V500H714.198V0Z" fill="white"/>
</mask>
<g mask="url(#mask43_670_46)">
<path d="M175.687 143.258L178.92 153.433H189.653L181.071 159.71L184.265 169.88L175.687 163.603L166.963 169.88L170.289 159.71L161.72 153.433H172.337L175.687 143.258Z" fill="white"/>
</g>
<mask id="mask44_670_46" style="mask-type:luminance" maskUnits="userSpaceOnUse" x="-143" y="0" width="858" height="500">
<path d="M714.198 0H-143V500H714.198V0Z" fill="white"/>
</mask>
<g mask="url(#mask44_670_46)">
<path d="M175.687 188.25L178.92 198.386H189.653L181.071 204.658L184.265 214.785L175.687 208.503L166.963 214.785L170.289 204.658L161.72 198.386H172.337L175.687 188.25Z" fill="white"/>
</g>
<mask id="mask45_670_46" style="mask-type:luminance" maskUnits="userSpaceOnUse" x="-143" y="0" width="858" height="500">
<path d="M714.198 0H-143V500H714.198V0Z" fill="white"/>
</mask>
<g mask="url(#mask45_670_46)">
<path d="M207.305 29.6709L210.703 39.9092H221.329L212.703 46.1863L216.038 56.3612L207.305 50.0844L198.727 56.3612L201.969 46.1863L193.338 39.9092H204.018L207.305 29.6709Z" fill="white"/>
</g>
<mask id="mask46_670_46" style="mask-type:luminance" maskUnits="userSpaceOnUse" x="-143" y="0" width="858" height="500">
<path d="M714.198 0H-143V500H714.198V0Z" fill="white"/>
</mask>
<g mask="url(#mask46_670_46)">
<path d="M207.305 74.6191L210.703 84.794H221.329L212.703 91.0711L216.038 101.256L207.305 94.9692L198.727 101.256L201.969 91.0711L193.338 84.794H204.018L207.305 74.6191Z" fill="white"/>
</g>
<mask id="mask47_670_46" style="mask-type:luminance" maskUnits="userSpaceOnUse" x="-143" y="0" width="858" height="500">
<path d="M714.198 0H-143V500H714.198V0Z" fill="white"/>
</mask>
<g mask="url(#mask47_670_46)">
<path d="M207.305 119.611L210.703 129.738H221.329L212.703 136.024L216.038 146.243L207.305 139.908L198.727 146.243L201.969 136.024L193.338 129.738H204.018L207.305 119.611Z" fill="white"/>
</g>
<mask id="mask48_670_46" style="mask-type:luminance" maskUnits="userSpaceOnUse" x="-143" y="0" width="858" height="500">
<path d="M714.198 0H-143V500H714.198V0Z" fill="white"/>
</mask>
<g mask="url(#mask48_670_46)">
<path d="M207.305 164.507L210.703 174.682H221.329L212.703 180.969L216.038 191.139L207.305 184.862L198.727 191.139L201.969 180.969L193.338 174.682H204.018L207.305 164.507Z" fill="white"/>
</g>
<mask id="mask49_670_46" style="mask-type:luminance" maskUnits="userSpaceOnUse" x="-143" y="0" width="858" height="500">
<path d="M714.198 0H-143V500H714.198V0Z" fill="white"/>
</mask>
<g mask="url(#mask49_670_46)">
<path d="M207.305 209.45L210.703 219.669H221.329L212.703 225.907L216.038 236.082L207.305 229.796L198.727 236.082L201.969 225.907L193.338 219.669H204.018L207.305 209.45Z" fill="white"/>
</g>
</g>
<defs>
<clipPath id="clip0_670_46">
<rect width="500" height="500" fill="white"/>
</clipPath>
</defs>
</svg>
